%TF.GenerationSoftware,KiCad,Pcbnew,9.0.2*%
%TF.CreationDate,2025-07-04T11:51:32+02:00*%
%TF.ProjectId,WiFi_1YN,57694669-5f31-4594-9e2e-6b696361645f,rev?*%
%TF.SameCoordinates,Original*%
%TF.FileFunction,Legend,Top*%
%TF.FilePolarity,Positive*%
%FSLAX46Y46*%
G04 Gerber Fmt 4.6, Leading zero omitted, Abs format (unit mm)*
G04 Created by KiCad (PCBNEW 9.0.2) date 2025-07-04 11:51:32*
%MOMM*%
%LPD*%
G01*
G04 APERTURE LIST*
G04 Aperture macros list*
%AMRoundRect*
0 Rectangle with rounded corners*
0 $1 Rounding radius*
0 $2 $3 $4 $5 $6 $7 $8 $9 X,Y pos of 4 corners*
0 Add a 4 corners polygon primitive as box body*
4,1,4,$2,$3,$4,$5,$6,$7,$8,$9,$2,$3,0*
0 Add four circle primitives for the rounded corners*
1,1,$1+$1,$2,$3*
1,1,$1+$1,$4,$5*
1,1,$1+$1,$6,$7*
1,1,$1+$1,$8,$9*
0 Add four rect primitives between the rounded corners*
20,1,$1+$1,$2,$3,$4,$5,0*
20,1,$1+$1,$4,$5,$6,$7,0*
20,1,$1+$1,$6,$7,$8,$9,0*
20,1,$1+$1,$8,$9,$2,$3,0*%
G04 Aperture macros list end*
%ADD10C,0.100000*%
%ADD11C,0.150000*%
%ADD12C,0.120132*%
%ADD13C,0.127000*%
%ADD14C,0.200000*%
%ADD15C,0.120000*%
%ADD16C,0.010000*%
%ADD17RoundRect,0.102000X-0.500000X-0.500000X0.500000X-0.500000X0.500000X0.500000X-0.500000X0.500000X0*%
%ADD18RoundRect,0.237500X0.237500X-0.300000X0.237500X0.300000X-0.237500X0.300000X-0.237500X-0.300000X0*%
%ADD19RoundRect,0.100000X0.400000X0.400000X-0.400000X0.400000X-0.400000X-0.400000X0.400000X-0.400000X0*%
%ADD20RoundRect,0.105000X0.420000X0.995000X-0.420000X0.995000X-0.420000X-0.995000X0.420000X-0.995000X0*%
%ADD21RoundRect,0.237500X-0.300000X-0.237500X0.300000X-0.237500X0.300000X0.237500X-0.300000X0.237500X0*%
%ADD22RoundRect,0.237500X-0.287500X-0.237500X0.287500X-0.237500X0.287500X0.237500X-0.287500X0.237500X0*%
%ADD23RoundRect,0.102000X0.650000X0.550000X-0.650000X0.550000X-0.650000X-0.550000X0.650000X-0.550000X0*%
G04 APERTURE END LIST*
D10*
X189303884Y-63372419D02*
X189303884Y-62372419D01*
X189303884Y-62372419D02*
X189637217Y-63086704D01*
X189637217Y-63086704D02*
X189970550Y-62372419D01*
X189970550Y-62372419D02*
X189970550Y-63372419D01*
X190637217Y-62372419D02*
X190827693Y-62372419D01*
X190827693Y-62372419D02*
X190922931Y-62420038D01*
X190922931Y-62420038D02*
X191018169Y-62515276D01*
X191018169Y-62515276D02*
X191065788Y-62705752D01*
X191065788Y-62705752D02*
X191065788Y-63039085D01*
X191065788Y-63039085D02*
X191018169Y-63229561D01*
X191018169Y-63229561D02*
X190922931Y-63324800D01*
X190922931Y-63324800D02*
X190827693Y-63372419D01*
X190827693Y-63372419D02*
X190637217Y-63372419D01*
X190637217Y-63372419D02*
X190541979Y-63324800D01*
X190541979Y-63324800D02*
X190446741Y-63229561D01*
X190446741Y-63229561D02*
X190399122Y-63039085D01*
X190399122Y-63039085D02*
X190399122Y-62705752D01*
X190399122Y-62705752D02*
X190446741Y-62515276D01*
X190446741Y-62515276D02*
X190541979Y-62420038D01*
X190541979Y-62420038D02*
X190637217Y-62372419D01*
X191494360Y-62372419D02*
X191494360Y-63181942D01*
X191494360Y-63181942D02*
X191541979Y-63277180D01*
X191541979Y-63277180D02*
X191589598Y-63324800D01*
X191589598Y-63324800D02*
X191684836Y-63372419D01*
X191684836Y-63372419D02*
X191875312Y-63372419D01*
X191875312Y-63372419D02*
X191970550Y-63324800D01*
X191970550Y-63324800D02*
X192018169Y-63277180D01*
X192018169Y-63277180D02*
X192065788Y-63181942D01*
X192065788Y-63181942D02*
X192065788Y-62372419D01*
X192541979Y-63372419D02*
X192541979Y-62372419D01*
X192541979Y-62372419D02*
X193113407Y-63372419D01*
X193113407Y-63372419D02*
X193113407Y-62372419D01*
X193446741Y-62372419D02*
X194018169Y-62372419D01*
X193732455Y-63372419D02*
X193732455Y-62372419D01*
X190303884Y-63872419D02*
X190303884Y-64681942D01*
X190303884Y-64681942D02*
X190351503Y-64777180D01*
X190351503Y-64777180D02*
X190399122Y-64824800D01*
X190399122Y-64824800D02*
X190494360Y-64872419D01*
X190494360Y-64872419D02*
X190684836Y-64872419D01*
X190684836Y-64872419D02*
X190780074Y-64824800D01*
X190780074Y-64824800D02*
X190827693Y-64777180D01*
X190827693Y-64777180D02*
X190875312Y-64681942D01*
X190875312Y-64681942D02*
X190875312Y-63872419D01*
X191351503Y-64872419D02*
X191351503Y-63872419D01*
X191351503Y-63872419D02*
X191732455Y-63872419D01*
X191732455Y-63872419D02*
X191827693Y-63920038D01*
X191827693Y-63920038D02*
X191875312Y-63967657D01*
X191875312Y-63967657D02*
X191922931Y-64062895D01*
X191922931Y-64062895D02*
X191922931Y-64205752D01*
X191922931Y-64205752D02*
X191875312Y-64300990D01*
X191875312Y-64300990D02*
X191827693Y-64348609D01*
X191827693Y-64348609D02*
X191732455Y-64396228D01*
X191732455Y-64396228D02*
X191351503Y-64396228D01*
X194500000Y-62500000D02*
X194000000Y-63500000D01*
X195000000Y-63500000D02*
X194500000Y-62500000D01*
X194500000Y-63500000D02*
X195000000Y-63500000D01*
X194000000Y-63500000D02*
X194500000Y-63500000D01*
X194500000Y-63500000D02*
X194500000Y-65000000D01*
D11*
X196570695Y-66917219D02*
X196570695Y-67726742D01*
X196570695Y-67726742D02*
X196618314Y-67821980D01*
X196618314Y-67821980D02*
X196665933Y-67869600D01*
X196665933Y-67869600D02*
X196761171Y-67917219D01*
X196761171Y-67917219D02*
X196951647Y-67917219D01*
X196951647Y-67917219D02*
X197046885Y-67869600D01*
X197046885Y-67869600D02*
X197094504Y-67821980D01*
X197094504Y-67821980D02*
X197142123Y-67726742D01*
X197142123Y-67726742D02*
X197142123Y-66917219D01*
X198142123Y-67917219D02*
X197570695Y-67917219D01*
X197856409Y-67917219D02*
X197856409Y-66917219D01*
X197856409Y-66917219D02*
X197761171Y-67060076D01*
X197761171Y-67060076D02*
X197665933Y-67155314D01*
X197665933Y-67155314D02*
X197570695Y-67202933D01*
X207191780Y-68416466D02*
X207239400Y-68464085D01*
X207239400Y-68464085D02*
X207287019Y-68606942D01*
X207287019Y-68606942D02*
X207287019Y-68702180D01*
X207287019Y-68702180D02*
X207239400Y-68845037D01*
X207239400Y-68845037D02*
X207144161Y-68940275D01*
X207144161Y-68940275D02*
X207048923Y-68987894D01*
X207048923Y-68987894D02*
X206858447Y-69035513D01*
X206858447Y-69035513D02*
X206715590Y-69035513D01*
X206715590Y-69035513D02*
X206525114Y-68987894D01*
X206525114Y-68987894D02*
X206429876Y-68940275D01*
X206429876Y-68940275D02*
X206334638Y-68845037D01*
X206334638Y-68845037D02*
X206287019Y-68702180D01*
X206287019Y-68702180D02*
X206287019Y-68606942D01*
X206287019Y-68606942D02*
X206334638Y-68464085D01*
X206334638Y-68464085D02*
X206382257Y-68416466D01*
X206287019Y-68083132D02*
X206287019Y-67464085D01*
X206287019Y-67464085D02*
X206667971Y-67797418D01*
X206667971Y-67797418D02*
X206667971Y-67654561D01*
X206667971Y-67654561D02*
X206715590Y-67559323D01*
X206715590Y-67559323D02*
X206763209Y-67511704D01*
X206763209Y-67511704D02*
X206858447Y-67464085D01*
X206858447Y-67464085D02*
X207096542Y-67464085D01*
X207096542Y-67464085D02*
X207191780Y-67511704D01*
X207191780Y-67511704D02*
X207239400Y-67559323D01*
X207239400Y-67559323D02*
X207287019Y-67654561D01*
X207287019Y-67654561D02*
X207287019Y-67940275D01*
X207287019Y-67940275D02*
X207239400Y-68035513D01*
X207239400Y-68035513D02*
X207191780Y-68083132D01*
X195856266Y-63183419D02*
X195856266Y-63897704D01*
X195856266Y-63897704D02*
X195808647Y-64040561D01*
X195808647Y-64040561D02*
X195713409Y-64135800D01*
X195713409Y-64135800D02*
X195570552Y-64183419D01*
X195570552Y-64183419D02*
X195475314Y-64183419D01*
X196856266Y-64183419D02*
X196284838Y-64183419D01*
X196570552Y-64183419D02*
X196570552Y-63183419D01*
X196570552Y-63183419D02*
X196475314Y-63326276D01*
X196475314Y-63326276D02*
X196380076Y-63421514D01*
X196380076Y-63421514D02*
X196284838Y-63469133D01*
X208748333Y-71987580D02*
X208700714Y-72035200D01*
X208700714Y-72035200D02*
X208557857Y-72082819D01*
X208557857Y-72082819D02*
X208462619Y-72082819D01*
X208462619Y-72082819D02*
X208319762Y-72035200D01*
X208319762Y-72035200D02*
X208224524Y-71939961D01*
X208224524Y-71939961D02*
X208176905Y-71844723D01*
X208176905Y-71844723D02*
X208129286Y-71654247D01*
X208129286Y-71654247D02*
X208129286Y-71511390D01*
X208129286Y-71511390D02*
X208176905Y-71320914D01*
X208176905Y-71320914D02*
X208224524Y-71225676D01*
X208224524Y-71225676D02*
X208319762Y-71130438D01*
X208319762Y-71130438D02*
X208462619Y-71082819D01*
X208462619Y-71082819D02*
X208557857Y-71082819D01*
X208557857Y-71082819D02*
X208700714Y-71130438D01*
X208700714Y-71130438D02*
X208748333Y-71178057D01*
X209700714Y-72082819D02*
X209129286Y-72082819D01*
X209415000Y-72082819D02*
X209415000Y-71082819D01*
X209415000Y-71082819D02*
X209319762Y-71225676D01*
X209319762Y-71225676D02*
X209224524Y-71320914D01*
X209224524Y-71320914D02*
X209129286Y-71368533D01*
X208722933Y-70514380D02*
X208675314Y-70562000D01*
X208675314Y-70562000D02*
X208532457Y-70609619D01*
X208532457Y-70609619D02*
X208437219Y-70609619D01*
X208437219Y-70609619D02*
X208294362Y-70562000D01*
X208294362Y-70562000D02*
X208199124Y-70466761D01*
X208199124Y-70466761D02*
X208151505Y-70371523D01*
X208151505Y-70371523D02*
X208103886Y-70181047D01*
X208103886Y-70181047D02*
X208103886Y-70038190D01*
X208103886Y-70038190D02*
X208151505Y-69847714D01*
X208151505Y-69847714D02*
X208199124Y-69752476D01*
X208199124Y-69752476D02*
X208294362Y-69657238D01*
X208294362Y-69657238D02*
X208437219Y-69609619D01*
X208437219Y-69609619D02*
X208532457Y-69609619D01*
X208532457Y-69609619D02*
X208675314Y-69657238D01*
X208675314Y-69657238D02*
X208722933Y-69704857D01*
X209103886Y-69704857D02*
X209151505Y-69657238D01*
X209151505Y-69657238D02*
X209246743Y-69609619D01*
X209246743Y-69609619D02*
X209484838Y-69609619D01*
X209484838Y-69609619D02*
X209580076Y-69657238D01*
X209580076Y-69657238D02*
X209627695Y-69704857D01*
X209627695Y-69704857D02*
X209675314Y-69800095D01*
X209675314Y-69800095D02*
X209675314Y-69895333D01*
X209675314Y-69895333D02*
X209627695Y-70038190D01*
X209627695Y-70038190D02*
X209056267Y-70609619D01*
X209056267Y-70609619D02*
X209675314Y-70609619D01*
X205104733Y-63490019D02*
X204628543Y-63490019D01*
X204628543Y-63490019D02*
X204628543Y-62490019D01*
X205961876Y-63490019D02*
X205390448Y-63490019D01*
X205676162Y-63490019D02*
X205676162Y-62490019D01*
X205676162Y-62490019D02*
X205580924Y-62632876D01*
X205580924Y-62632876D02*
X205485686Y-62728114D01*
X205485686Y-62728114D02*
X205390448Y-62775733D01*
D12*
X210980846Y-66858556D02*
X210980846Y-67087379D01*
X210820670Y-66606852D02*
X210980846Y-66858556D01*
X210980846Y-66858556D02*
X211141021Y-66606852D01*
X211552901Y-67087379D02*
X211278314Y-67087379D01*
X211415608Y-67087379D02*
X211415608Y-66606852D01*
X211415608Y-66606852D02*
X211369843Y-66675498D01*
X211369843Y-66675498D02*
X211324079Y-66721263D01*
X211324079Y-66721263D02*
X211278314Y-66744145D01*
D13*
%TO.C,U1*%
X198655000Y-67030000D02*
X199960000Y-67030000D01*
X198655000Y-68785000D02*
X198655000Y-67030000D01*
X198655000Y-74020000D02*
X198655000Y-72265000D01*
X199960000Y-74020000D02*
X198655000Y-74020000D01*
X202540000Y-67030000D02*
X203845000Y-67030000D01*
X203845000Y-67030000D02*
X203845000Y-68785000D01*
X203845000Y-72265000D02*
X203845000Y-74020000D01*
X203845000Y-74020000D02*
X202540000Y-74020000D01*
D14*
X198100000Y-68275000D02*
G75*
G02*
X197900000Y-68275000I-100000J0D01*
G01*
X197900000Y-68275000D02*
G75*
G02*
X198100000Y-68275000I100000J0D01*
G01*
D15*
%TO.C,C3*%
X204790000Y-67583767D02*
X204790000Y-67291233D01*
X205810000Y-67583767D02*
X205810000Y-67291233D01*
%TO.C,J1*%
X198150000Y-62475000D02*
X198950000Y-62475000D01*
X198150000Y-62675000D02*
X198150000Y-62475000D01*
X198150000Y-65475000D02*
X198150000Y-65275000D01*
X198950000Y-62475000D02*
X198950000Y-61975000D01*
X198950000Y-65475000D02*
X198150000Y-65475000D01*
X200350000Y-62475000D02*
X200350000Y-61975000D01*
X200350000Y-62475000D02*
X200950000Y-62475000D01*
X200950000Y-62475000D02*
X201150000Y-62675000D01*
X201150000Y-65275000D02*
X201150000Y-65475000D01*
X201150000Y-65475000D02*
X200350000Y-65475000D01*
%TO.C,C1*%
X206078733Y-71140000D02*
X206371267Y-71140000D01*
X206078733Y-72160000D02*
X206371267Y-72160000D01*
%TO.C,C2*%
X206026380Y-69640000D02*
X206318914Y-69640000D01*
X206026380Y-70660000D02*
X206318914Y-70660000D01*
%TO.C,L1*%
X205100133Y-63955200D02*
X205442667Y-63955200D01*
X205100133Y-64975200D02*
X205442667Y-64975200D01*
D13*
%TO.C,Y1*%
X210850000Y-63320000D02*
X210350000Y-63320000D01*
X210850000Y-65820000D02*
X210350000Y-65820000D01*
D14*
X212975000Y-63576000D02*
G75*
G02*
X212775000Y-63576000I-100000J0D01*
G01*
X212775000Y-63576000D02*
G75*
G02*
X212975000Y-63576000I100000J0D01*
G01*
%TD*%
%LPC*%
D16*
%TO.C,U1*%
X199400000Y-67900000D02*
X198925000Y-67900000D01*
X198925000Y-67300000D01*
X199400000Y-67300000D01*
X199400000Y-67900000D01*
G36*
X199400000Y-67900000D02*
G01*
X198925000Y-67900000D01*
X198925000Y-67300000D01*
X199400000Y-67300000D01*
X199400000Y-67900000D01*
G37*
X199525000Y-68450000D02*
X198925000Y-68450000D01*
X198925000Y-68100000D01*
X199525000Y-68100000D01*
X199525000Y-68450000D01*
G36*
X199525000Y-68450000D02*
G01*
X198925000Y-68450000D01*
X198925000Y-68100000D01*
X199525000Y-68100000D01*
X199525000Y-68450000D01*
G37*
X199525000Y-68900000D02*
X198925000Y-68900000D01*
X198925000Y-68550000D01*
X199525000Y-68550000D01*
X199525000Y-68900000D01*
G36*
X199525000Y-68900000D02*
G01*
X198925000Y-68900000D01*
X198925000Y-68550000D01*
X199525000Y-68550000D01*
X199525000Y-68900000D01*
G37*
X199525000Y-69350000D02*
X198925000Y-69350000D01*
X198925000Y-69000000D01*
X199525000Y-69000000D01*
X199525000Y-69350000D01*
G36*
X199525000Y-69350000D02*
G01*
X198925000Y-69350000D01*
X198925000Y-69000000D01*
X199525000Y-69000000D01*
X199525000Y-69350000D01*
G37*
X199525000Y-69800000D02*
X198925000Y-69800000D01*
X198925000Y-69450000D01*
X199525000Y-69450000D01*
X199525000Y-69800000D01*
G36*
X199525000Y-69800000D02*
G01*
X198925000Y-69800000D01*
X198925000Y-69450000D01*
X199525000Y-69450000D01*
X199525000Y-69800000D01*
G37*
X199525000Y-70250000D02*
X198925000Y-70250000D01*
X198925000Y-69900000D01*
X199525000Y-69900000D01*
X199525000Y-70250000D01*
G36*
X199525000Y-70250000D02*
G01*
X198925000Y-70250000D01*
X198925000Y-69900000D01*
X199525000Y-69900000D01*
X199525000Y-70250000D01*
G37*
X199525000Y-70700000D02*
X198925000Y-70700000D01*
X198925000Y-70350000D01*
X199525000Y-70350000D01*
X199525000Y-70700000D01*
G36*
X199525000Y-70700000D02*
G01*
X198925000Y-70700000D01*
X198925000Y-70350000D01*
X199525000Y-70350000D01*
X199525000Y-70700000D01*
G37*
X199525000Y-71150000D02*
X198925000Y-71150000D01*
X198925000Y-70800000D01*
X199525000Y-70800000D01*
X199525000Y-71150000D01*
G36*
X199525000Y-71150000D02*
G01*
X198925000Y-71150000D01*
X198925000Y-70800000D01*
X199525000Y-70800000D01*
X199525000Y-71150000D01*
G37*
X199525000Y-71600000D02*
X198925000Y-71600000D01*
X198925000Y-71250000D01*
X199525000Y-71250000D01*
X199525000Y-71600000D01*
G36*
X199525000Y-71600000D02*
G01*
X198925000Y-71600000D01*
X198925000Y-71250000D01*
X199525000Y-71250000D01*
X199525000Y-71600000D01*
G37*
X199525000Y-72050000D02*
X198925000Y-72050000D01*
X198925000Y-71700000D01*
X199525000Y-71700000D01*
X199525000Y-72050000D01*
G36*
X199525000Y-72050000D02*
G01*
X198925000Y-72050000D01*
X198925000Y-71700000D01*
X199525000Y-71700000D01*
X199525000Y-72050000D01*
G37*
X199525000Y-72500000D02*
X198925000Y-72500000D01*
X198925000Y-72150000D01*
X199525000Y-72150000D01*
X199525000Y-72500000D01*
G36*
X199525000Y-72500000D02*
G01*
X198925000Y-72500000D01*
X198925000Y-72150000D01*
X199525000Y-72150000D01*
X199525000Y-72500000D01*
G37*
X199525000Y-72950000D02*
X198925000Y-72950000D01*
X198925000Y-72600000D01*
X199525000Y-72600000D01*
X199525000Y-72950000D01*
G36*
X199525000Y-72950000D02*
G01*
X198925000Y-72950000D01*
X198925000Y-72600000D01*
X199525000Y-72600000D01*
X199525000Y-72950000D01*
G37*
X199400000Y-73750000D02*
X198925000Y-73750000D01*
X198925000Y-73150000D01*
X199400000Y-73150000D01*
X199400000Y-73750000D01*
G36*
X199400000Y-73750000D02*
G01*
X198925000Y-73750000D01*
X198925000Y-73150000D01*
X199400000Y-73150000D01*
X199400000Y-73750000D01*
G37*
X199850000Y-67900000D02*
X199500000Y-67900000D01*
X199500000Y-67300000D01*
X199850000Y-67300000D01*
X199850000Y-67900000D01*
G36*
X199850000Y-67900000D02*
G01*
X199500000Y-67900000D01*
X199500000Y-67300000D01*
X199850000Y-67300000D01*
X199850000Y-67900000D01*
G37*
X199850000Y-73750000D02*
X199500000Y-73750000D01*
X199500000Y-73150000D01*
X199850000Y-73150000D01*
X199850000Y-73750000D01*
G36*
X199850000Y-73750000D02*
G01*
X199500000Y-73750000D01*
X199500000Y-73150000D01*
X199850000Y-73150000D01*
X199850000Y-73750000D01*
G37*
X200300000Y-67900000D02*
X199950000Y-67900000D01*
X199950000Y-67300000D01*
X200300000Y-67300000D01*
X200300000Y-67900000D01*
G36*
X200300000Y-67900000D02*
G01*
X199950000Y-67900000D01*
X199950000Y-67300000D01*
X200300000Y-67300000D01*
X200300000Y-67900000D01*
G37*
X200300000Y-73750000D02*
X199950000Y-73750000D01*
X199950000Y-73150000D01*
X200300000Y-73150000D01*
X200300000Y-73750000D01*
G36*
X200300000Y-73750000D02*
G01*
X199950000Y-73750000D01*
X199950000Y-73150000D01*
X200300000Y-73150000D01*
X200300000Y-73750000D01*
G37*
X200750000Y-67900000D02*
X200400000Y-67900000D01*
X200400000Y-67300000D01*
X200750000Y-67300000D01*
X200750000Y-67900000D01*
G36*
X200750000Y-67900000D02*
G01*
X200400000Y-67900000D01*
X200400000Y-67300000D01*
X200750000Y-67300000D01*
X200750000Y-67900000D01*
G37*
X200750000Y-73750000D02*
X200400000Y-73750000D01*
X200400000Y-73150000D01*
X200750000Y-73150000D01*
X200750000Y-73750000D01*
G36*
X200750000Y-73750000D02*
G01*
X200400000Y-73750000D01*
X200400000Y-73150000D01*
X200750000Y-73150000D01*
X200750000Y-73750000D01*
G37*
X201200000Y-67900000D02*
X200850000Y-67900000D01*
X200850000Y-67300000D01*
X201200000Y-67300000D01*
X201200000Y-67900000D01*
G36*
X201200000Y-67900000D02*
G01*
X200850000Y-67900000D01*
X200850000Y-67300000D01*
X201200000Y-67300000D01*
X201200000Y-67900000D01*
G37*
X201200000Y-73750000D02*
X200850000Y-73750000D01*
X200850000Y-73150000D01*
X201200000Y-73150000D01*
X201200000Y-73750000D01*
G36*
X201200000Y-73750000D02*
G01*
X200850000Y-73750000D01*
X200850000Y-73150000D01*
X201200000Y-73150000D01*
X201200000Y-73750000D01*
G37*
X201650000Y-67900000D02*
X201300000Y-67900000D01*
X201300000Y-67300000D01*
X201650000Y-67300000D01*
X201650000Y-67900000D01*
G36*
X201650000Y-67900000D02*
G01*
X201300000Y-67900000D01*
X201300000Y-67300000D01*
X201650000Y-67300000D01*
X201650000Y-67900000D01*
G37*
X201650000Y-73750000D02*
X201300000Y-73750000D01*
X201300000Y-73150000D01*
X201650000Y-73150000D01*
X201650000Y-73750000D01*
G36*
X201650000Y-73750000D02*
G01*
X201300000Y-73750000D01*
X201300000Y-73150000D01*
X201650000Y-73150000D01*
X201650000Y-73750000D01*
G37*
X202100000Y-67900000D02*
X201750000Y-67900000D01*
X201750000Y-67300000D01*
X202100000Y-67300000D01*
X202100000Y-67900000D01*
G36*
X202100000Y-67900000D02*
G01*
X201750000Y-67900000D01*
X201750000Y-67300000D01*
X202100000Y-67300000D01*
X202100000Y-67900000D01*
G37*
X202100000Y-73750000D02*
X201750000Y-73750000D01*
X201750000Y-73150000D01*
X202100000Y-73150000D01*
X202100000Y-73750000D01*
G36*
X202100000Y-73750000D02*
G01*
X201750000Y-73750000D01*
X201750000Y-73150000D01*
X202100000Y-73150000D01*
X202100000Y-73750000D01*
G37*
X202550000Y-67900000D02*
X202200000Y-67900000D01*
X202200000Y-67300000D01*
X202550000Y-67300000D01*
X202550000Y-67900000D01*
G36*
X202550000Y-67900000D02*
G01*
X202200000Y-67900000D01*
X202200000Y-67300000D01*
X202550000Y-67300000D01*
X202550000Y-67900000D01*
G37*
X202550000Y-73750000D02*
X202200000Y-73750000D01*
X202200000Y-73150000D01*
X202550000Y-73150000D01*
X202550000Y-73750000D01*
G36*
X202550000Y-73750000D02*
G01*
X202200000Y-73750000D01*
X202200000Y-73150000D01*
X202550000Y-73150000D01*
X202550000Y-73750000D01*
G37*
X203000000Y-67900000D02*
X202650000Y-67900000D01*
X202650000Y-67300000D01*
X203000000Y-67300000D01*
X203000000Y-67900000D01*
G36*
X203000000Y-67900000D02*
G01*
X202650000Y-67900000D01*
X202650000Y-67300000D01*
X203000000Y-67300000D01*
X203000000Y-67900000D01*
G37*
X203000000Y-73750000D02*
X202650000Y-73750000D01*
X202650000Y-73150000D01*
X203000000Y-73150000D01*
X203000000Y-73750000D01*
G36*
X203000000Y-73750000D02*
G01*
X202650000Y-73750000D01*
X202650000Y-73150000D01*
X203000000Y-73150000D01*
X203000000Y-73750000D01*
G37*
X203575000Y-68450000D02*
X202975000Y-68450000D01*
X202975000Y-68100000D01*
X203575000Y-68100000D01*
X203575000Y-68450000D01*
G36*
X203575000Y-68450000D02*
G01*
X202975000Y-68450000D01*
X202975000Y-68100000D01*
X203575000Y-68100000D01*
X203575000Y-68450000D01*
G37*
X203575000Y-68900000D02*
X202975000Y-68900000D01*
X202975000Y-68550000D01*
X203575000Y-68550000D01*
X203575000Y-68900000D01*
G36*
X203575000Y-68900000D02*
G01*
X202975000Y-68900000D01*
X202975000Y-68550000D01*
X203575000Y-68550000D01*
X203575000Y-68900000D01*
G37*
X203575000Y-69350000D02*
X202975000Y-69350000D01*
X202975000Y-69000000D01*
X203575000Y-69000000D01*
X203575000Y-69350000D01*
G36*
X203575000Y-69350000D02*
G01*
X202975000Y-69350000D01*
X202975000Y-69000000D01*
X203575000Y-69000000D01*
X203575000Y-69350000D01*
G37*
X203575000Y-69800000D02*
X202975000Y-69800000D01*
X202975000Y-69450000D01*
X203575000Y-69450000D01*
X203575000Y-69800000D01*
G36*
X203575000Y-69800000D02*
G01*
X202975000Y-69800000D01*
X202975000Y-69450000D01*
X203575000Y-69450000D01*
X203575000Y-69800000D01*
G37*
X203575000Y-70250000D02*
X202975000Y-70250000D01*
X202975000Y-69900000D01*
X203575000Y-69900000D01*
X203575000Y-70250000D01*
G36*
X203575000Y-70250000D02*
G01*
X202975000Y-70250000D01*
X202975000Y-69900000D01*
X203575000Y-69900000D01*
X203575000Y-70250000D01*
G37*
X203575000Y-70700000D02*
X202975000Y-70700000D01*
X202975000Y-70350000D01*
X203575000Y-70350000D01*
X203575000Y-70700000D01*
G36*
X203575000Y-70700000D02*
G01*
X202975000Y-70700000D01*
X202975000Y-70350000D01*
X203575000Y-70350000D01*
X203575000Y-70700000D01*
G37*
X203575000Y-71150000D02*
X202975000Y-71150000D01*
X202975000Y-70800000D01*
X203575000Y-70800000D01*
X203575000Y-71150000D01*
G36*
X203575000Y-71150000D02*
G01*
X202975000Y-71150000D01*
X202975000Y-70800000D01*
X203575000Y-70800000D01*
X203575000Y-71150000D01*
G37*
X203575000Y-71600000D02*
X202975000Y-71600000D01*
X202975000Y-71250000D01*
X203575000Y-71250000D01*
X203575000Y-71600000D01*
G36*
X203575000Y-71600000D02*
G01*
X202975000Y-71600000D01*
X202975000Y-71250000D01*
X203575000Y-71250000D01*
X203575000Y-71600000D01*
G37*
X203575000Y-72050000D02*
X202975000Y-72050000D01*
X202975000Y-71700000D01*
X203575000Y-71700000D01*
X203575000Y-72050000D01*
G36*
X203575000Y-72050000D02*
G01*
X202975000Y-72050000D01*
X202975000Y-71700000D01*
X203575000Y-71700000D01*
X203575000Y-72050000D01*
G37*
X203575000Y-72500000D02*
X202975000Y-72500000D01*
X202975000Y-72150000D01*
X203575000Y-72150000D01*
X203575000Y-72500000D01*
G36*
X203575000Y-72500000D02*
G01*
X202975000Y-72500000D01*
X202975000Y-72150000D01*
X203575000Y-72150000D01*
X203575000Y-72500000D01*
G37*
X203575000Y-72950000D02*
X202975000Y-72950000D01*
X202975000Y-72600000D01*
X203575000Y-72600000D01*
X203575000Y-72950000D01*
G36*
X203575000Y-72950000D02*
G01*
X202975000Y-72950000D01*
X202975000Y-72600000D01*
X203575000Y-72600000D01*
X203575000Y-72950000D01*
G37*
X203575000Y-67900000D02*
X203100000Y-67900000D01*
X203100000Y-67300000D01*
X203575000Y-67300000D01*
X203575000Y-67900000D01*
G36*
X203575000Y-67900000D02*
G01*
X203100000Y-67900000D01*
X203100000Y-67300000D01*
X203575000Y-67300000D01*
X203575000Y-67900000D01*
G37*
X203575000Y-73750000D02*
X203100000Y-73750000D01*
X203100000Y-73150000D01*
X203575000Y-73150000D01*
X203575000Y-73750000D01*
G36*
X203575000Y-73750000D02*
G01*
X203100000Y-73750000D01*
X203100000Y-73150000D01*
X203575000Y-73150000D01*
X203575000Y-73750000D01*
G37*
X201100000Y-70125000D02*
X199900000Y-70125000D01*
X199900000Y-69483600D01*
X200458600Y-68925000D01*
X201100000Y-68925000D01*
X201100000Y-70125000D01*
G36*
X201100000Y-70125000D02*
G01*
X199900000Y-70125000D01*
X199900000Y-69483600D01*
X200458600Y-68925000D01*
X201100000Y-68925000D01*
X201100000Y-70125000D01*
G37*
%TD*%
D17*
%TO.C,U1*%
X200500000Y-71525000D03*
X202000000Y-69525000D03*
X202000000Y-71525000D03*
%TD*%
D18*
%TO.C,C3*%
X205300000Y-68300000D03*
X205300000Y-66575000D03*
%TD*%
D19*
%TO.C,J1*%
X199650000Y-65475000D03*
D20*
X198175000Y-63975000D03*
D19*
X199650000Y-62475000D03*
D20*
X201125000Y-63975000D03*
%TD*%
D21*
%TO.C,C1*%
X205362500Y-71650000D03*
X207087500Y-71650000D03*
%TD*%
%TO.C,C2*%
X205310147Y-70150000D03*
X207035147Y-70150000D03*
%TD*%
D22*
%TO.C,L1*%
X204396400Y-64465200D03*
X206146400Y-64465200D03*
%TD*%
D23*
%TO.C,Y1*%
X211750000Y-63620000D03*
X209450000Y-63620000D03*
X209450000Y-65520000D03*
X211750000Y-65520000D03*
%TD*%
%LPD*%
M02*
