%TF.GenerationSoftware,KiCad,Pcbnew,9.0.2*%
%TF.CreationDate,2025-07-04T11:51:32+02:00*%
%TF.ProjectId,WiFi_1YN,57694669-5f31-4594-9e2e-6b696361645f,rev?*%
%TF.SameCoordinates,Original*%
%TF.FileFunction,Soldermask,Top*%
%TF.FilePolarity,Negative*%
%FSLAX46Y46*%
G04 Gerber Fmt 4.6, Leading zero omitted, Abs format (unit mm)*
G04 Created by KiCad (PCBNEW 9.0.2) date 2025-07-04 11:51:32*
%MOMM*%
%LPD*%
G01*
G04 APERTURE LIST*
G04 Aperture macros list*
%AMRoundRect*
0 Rectangle with rounded corners*
0 $1 Rounding radius*
0 $2 $3 $4 $5 $6 $7 $8 $9 X,Y pos of 4 corners*
0 Add a 4 corners polygon primitive as box body*
4,1,4,$2,$3,$4,$5,$6,$7,$8,$9,$2,$3,0*
0 Add four circle primitives for the rounded corners*
1,1,$1+$1,$2,$3*
1,1,$1+$1,$4,$5*
1,1,$1+$1,$6,$7*
1,1,$1+$1,$8,$9*
0 Add four rect primitives between the rounded corners*
20,1,$1+$1,$2,$3,$4,$5,0*
20,1,$1+$1,$4,$5,$6,$7,0*
20,1,$1+$1,$6,$7,$8,$9,0*
20,1,$1+$1,$8,$9,$2,$3,0*%
G04 Aperture macros list end*
%ADD10C,0.010000*%
%ADD11RoundRect,0.102000X-0.500000X-0.500000X0.500000X-0.500000X0.500000X0.500000X-0.500000X0.500000X0*%
%ADD12RoundRect,0.237500X0.237500X-0.300000X0.237500X0.300000X-0.237500X0.300000X-0.237500X-0.300000X0*%
%ADD13RoundRect,0.100000X0.400000X0.400000X-0.400000X0.400000X-0.400000X-0.400000X0.400000X-0.400000X0*%
%ADD14RoundRect,0.105000X0.420000X0.995000X-0.420000X0.995000X-0.420000X-0.995000X0.420000X-0.995000X0*%
%ADD15RoundRect,0.237500X-0.300000X-0.237500X0.300000X-0.237500X0.300000X0.237500X-0.300000X0.237500X0*%
%ADD16RoundRect,0.237500X-0.287500X-0.237500X0.287500X-0.237500X0.287500X0.237500X-0.287500X0.237500X0*%
%ADD17RoundRect,0.102000X0.650000X0.550000X-0.650000X0.550000X-0.650000X-0.550000X0.650000X-0.550000X0*%
G04 APERTURE END LIST*
D10*
%TO.C,U1*%
X199400000Y-67900000D02*
X198925000Y-67900000D01*
X198925000Y-67300000D01*
X199400000Y-67300000D01*
X199400000Y-67900000D01*
G36*
X199400000Y-67900000D02*
G01*
X198925000Y-67900000D01*
X198925000Y-67300000D01*
X199400000Y-67300000D01*
X199400000Y-67900000D01*
G37*
X199525000Y-68450000D02*
X198925000Y-68450000D01*
X198925000Y-68100000D01*
X199525000Y-68100000D01*
X199525000Y-68450000D01*
G36*
X199525000Y-68450000D02*
G01*
X198925000Y-68450000D01*
X198925000Y-68100000D01*
X199525000Y-68100000D01*
X199525000Y-68450000D01*
G37*
X199525000Y-68900000D02*
X198925000Y-68900000D01*
X198925000Y-68550000D01*
X199525000Y-68550000D01*
X199525000Y-68900000D01*
G36*
X199525000Y-68900000D02*
G01*
X198925000Y-68900000D01*
X198925000Y-68550000D01*
X199525000Y-68550000D01*
X199525000Y-68900000D01*
G37*
X199525000Y-69350000D02*
X198925000Y-69350000D01*
X198925000Y-69000000D01*
X199525000Y-69000000D01*
X199525000Y-69350000D01*
G36*
X199525000Y-69350000D02*
G01*
X198925000Y-69350000D01*
X198925000Y-69000000D01*
X199525000Y-69000000D01*
X199525000Y-69350000D01*
G37*
X199525000Y-69800000D02*
X198925000Y-69800000D01*
X198925000Y-69450000D01*
X199525000Y-69450000D01*
X199525000Y-69800000D01*
G36*
X199525000Y-69800000D02*
G01*
X198925000Y-69800000D01*
X198925000Y-69450000D01*
X199525000Y-69450000D01*
X199525000Y-69800000D01*
G37*
X199525000Y-70250000D02*
X198925000Y-70250000D01*
X198925000Y-69900000D01*
X199525000Y-69900000D01*
X199525000Y-70250000D01*
G36*
X199525000Y-70250000D02*
G01*
X198925000Y-70250000D01*
X198925000Y-69900000D01*
X199525000Y-69900000D01*
X199525000Y-70250000D01*
G37*
X199525000Y-70700000D02*
X198925000Y-70700000D01*
X198925000Y-70350000D01*
X199525000Y-70350000D01*
X199525000Y-70700000D01*
G36*
X199525000Y-70700000D02*
G01*
X198925000Y-70700000D01*
X198925000Y-70350000D01*
X199525000Y-70350000D01*
X199525000Y-70700000D01*
G37*
X199525000Y-71150000D02*
X198925000Y-71150000D01*
X198925000Y-70800000D01*
X199525000Y-70800000D01*
X199525000Y-71150000D01*
G36*
X199525000Y-71150000D02*
G01*
X198925000Y-71150000D01*
X198925000Y-70800000D01*
X199525000Y-70800000D01*
X199525000Y-71150000D01*
G37*
X199525000Y-71600000D02*
X198925000Y-71600000D01*
X198925000Y-71250000D01*
X199525000Y-71250000D01*
X199525000Y-71600000D01*
G36*
X199525000Y-71600000D02*
G01*
X198925000Y-71600000D01*
X198925000Y-71250000D01*
X199525000Y-71250000D01*
X199525000Y-71600000D01*
G37*
X199525000Y-72050000D02*
X198925000Y-72050000D01*
X198925000Y-71700000D01*
X199525000Y-71700000D01*
X199525000Y-72050000D01*
G36*
X199525000Y-72050000D02*
G01*
X198925000Y-72050000D01*
X198925000Y-71700000D01*
X199525000Y-71700000D01*
X199525000Y-72050000D01*
G37*
X199525000Y-72500000D02*
X198925000Y-72500000D01*
X198925000Y-72150000D01*
X199525000Y-72150000D01*
X199525000Y-72500000D01*
G36*
X199525000Y-72500000D02*
G01*
X198925000Y-72500000D01*
X198925000Y-72150000D01*
X199525000Y-72150000D01*
X199525000Y-72500000D01*
G37*
X199525000Y-72950000D02*
X198925000Y-72950000D01*
X198925000Y-72600000D01*
X199525000Y-72600000D01*
X199525000Y-72950000D01*
G36*
X199525000Y-72950000D02*
G01*
X198925000Y-72950000D01*
X198925000Y-72600000D01*
X199525000Y-72600000D01*
X199525000Y-72950000D01*
G37*
X199400000Y-73750000D02*
X198925000Y-73750000D01*
X198925000Y-73150000D01*
X199400000Y-73150000D01*
X199400000Y-73750000D01*
G36*
X199400000Y-73750000D02*
G01*
X198925000Y-73750000D01*
X198925000Y-73150000D01*
X199400000Y-73150000D01*
X199400000Y-73750000D01*
G37*
X199850000Y-67900000D02*
X199500000Y-67900000D01*
X199500000Y-67300000D01*
X199850000Y-67300000D01*
X199850000Y-67900000D01*
G36*
X199850000Y-67900000D02*
G01*
X199500000Y-67900000D01*
X199500000Y-67300000D01*
X199850000Y-67300000D01*
X199850000Y-67900000D01*
G37*
X199850000Y-73750000D02*
X199500000Y-73750000D01*
X199500000Y-73150000D01*
X199850000Y-73150000D01*
X199850000Y-73750000D01*
G36*
X199850000Y-73750000D02*
G01*
X199500000Y-73750000D01*
X199500000Y-73150000D01*
X199850000Y-73150000D01*
X199850000Y-73750000D01*
G37*
X200300000Y-67900000D02*
X199950000Y-67900000D01*
X199950000Y-67300000D01*
X200300000Y-67300000D01*
X200300000Y-67900000D01*
G36*
X200300000Y-67900000D02*
G01*
X199950000Y-67900000D01*
X199950000Y-67300000D01*
X200300000Y-67300000D01*
X200300000Y-67900000D01*
G37*
X200300000Y-73750000D02*
X199950000Y-73750000D01*
X199950000Y-73150000D01*
X200300000Y-73150000D01*
X200300000Y-73750000D01*
G36*
X200300000Y-73750000D02*
G01*
X199950000Y-73750000D01*
X199950000Y-73150000D01*
X200300000Y-73150000D01*
X200300000Y-73750000D01*
G37*
X200750000Y-67900000D02*
X200400000Y-67900000D01*
X200400000Y-67300000D01*
X200750000Y-67300000D01*
X200750000Y-67900000D01*
G36*
X200750000Y-67900000D02*
G01*
X200400000Y-67900000D01*
X200400000Y-67300000D01*
X200750000Y-67300000D01*
X200750000Y-67900000D01*
G37*
X200750000Y-73750000D02*
X200400000Y-73750000D01*
X200400000Y-73150000D01*
X200750000Y-73150000D01*
X200750000Y-73750000D01*
G36*
X200750000Y-73750000D02*
G01*
X200400000Y-73750000D01*
X200400000Y-73150000D01*
X200750000Y-73150000D01*
X200750000Y-73750000D01*
G37*
X201200000Y-67900000D02*
X200850000Y-67900000D01*
X200850000Y-67300000D01*
X201200000Y-67300000D01*
X201200000Y-67900000D01*
G36*
X201200000Y-67900000D02*
G01*
X200850000Y-67900000D01*
X200850000Y-67300000D01*
X201200000Y-67300000D01*
X201200000Y-67900000D01*
G37*
X201200000Y-73750000D02*
X200850000Y-73750000D01*
X200850000Y-73150000D01*
X201200000Y-73150000D01*
X201200000Y-73750000D01*
G36*
X201200000Y-73750000D02*
G01*
X200850000Y-73750000D01*
X200850000Y-73150000D01*
X201200000Y-73150000D01*
X201200000Y-73750000D01*
G37*
X201650000Y-67900000D02*
X201300000Y-67900000D01*
X201300000Y-67300000D01*
X201650000Y-67300000D01*
X201650000Y-67900000D01*
G36*
X201650000Y-67900000D02*
G01*
X201300000Y-67900000D01*
X201300000Y-67300000D01*
X201650000Y-67300000D01*
X201650000Y-67900000D01*
G37*
X201650000Y-73750000D02*
X201300000Y-73750000D01*
X201300000Y-73150000D01*
X201650000Y-73150000D01*
X201650000Y-73750000D01*
G36*
X201650000Y-73750000D02*
G01*
X201300000Y-73750000D01*
X201300000Y-73150000D01*
X201650000Y-73150000D01*
X201650000Y-73750000D01*
G37*
X202100000Y-67900000D02*
X201750000Y-67900000D01*
X201750000Y-67300000D01*
X202100000Y-67300000D01*
X202100000Y-67900000D01*
G36*
X202100000Y-67900000D02*
G01*
X201750000Y-67900000D01*
X201750000Y-67300000D01*
X202100000Y-67300000D01*
X202100000Y-67900000D01*
G37*
X202100000Y-73750000D02*
X201750000Y-73750000D01*
X201750000Y-73150000D01*
X202100000Y-73150000D01*
X202100000Y-73750000D01*
G36*
X202100000Y-73750000D02*
G01*
X201750000Y-73750000D01*
X201750000Y-73150000D01*
X202100000Y-73150000D01*
X202100000Y-73750000D01*
G37*
X202550000Y-67900000D02*
X202200000Y-67900000D01*
X202200000Y-67300000D01*
X202550000Y-67300000D01*
X202550000Y-67900000D01*
G36*
X202550000Y-67900000D02*
G01*
X202200000Y-67900000D01*
X202200000Y-67300000D01*
X202550000Y-67300000D01*
X202550000Y-67900000D01*
G37*
X202550000Y-73750000D02*
X202200000Y-73750000D01*
X202200000Y-73150000D01*
X202550000Y-73150000D01*
X202550000Y-73750000D01*
G36*
X202550000Y-73750000D02*
G01*
X202200000Y-73750000D01*
X202200000Y-73150000D01*
X202550000Y-73150000D01*
X202550000Y-73750000D01*
G37*
X203000000Y-67900000D02*
X202650000Y-67900000D01*
X202650000Y-67300000D01*
X203000000Y-67300000D01*
X203000000Y-67900000D01*
G36*
X203000000Y-67900000D02*
G01*
X202650000Y-67900000D01*
X202650000Y-67300000D01*
X203000000Y-67300000D01*
X203000000Y-67900000D01*
G37*
X203000000Y-73750000D02*
X202650000Y-73750000D01*
X202650000Y-73150000D01*
X203000000Y-73150000D01*
X203000000Y-73750000D01*
G36*
X203000000Y-73750000D02*
G01*
X202650000Y-73750000D01*
X202650000Y-73150000D01*
X203000000Y-73150000D01*
X203000000Y-73750000D01*
G37*
X203575000Y-68450000D02*
X202975000Y-68450000D01*
X202975000Y-68100000D01*
X203575000Y-68100000D01*
X203575000Y-68450000D01*
G36*
X203575000Y-68450000D02*
G01*
X202975000Y-68450000D01*
X202975000Y-68100000D01*
X203575000Y-68100000D01*
X203575000Y-68450000D01*
G37*
X203575000Y-68900000D02*
X202975000Y-68900000D01*
X202975000Y-68550000D01*
X203575000Y-68550000D01*
X203575000Y-68900000D01*
G36*
X203575000Y-68900000D02*
G01*
X202975000Y-68900000D01*
X202975000Y-68550000D01*
X203575000Y-68550000D01*
X203575000Y-68900000D01*
G37*
X203575000Y-69350000D02*
X202975000Y-69350000D01*
X202975000Y-69000000D01*
X203575000Y-69000000D01*
X203575000Y-69350000D01*
G36*
X203575000Y-69350000D02*
G01*
X202975000Y-69350000D01*
X202975000Y-69000000D01*
X203575000Y-69000000D01*
X203575000Y-69350000D01*
G37*
X203575000Y-69800000D02*
X202975000Y-69800000D01*
X202975000Y-69450000D01*
X203575000Y-69450000D01*
X203575000Y-69800000D01*
G36*
X203575000Y-69800000D02*
G01*
X202975000Y-69800000D01*
X202975000Y-69450000D01*
X203575000Y-69450000D01*
X203575000Y-69800000D01*
G37*
X203575000Y-70250000D02*
X202975000Y-70250000D01*
X202975000Y-69900000D01*
X203575000Y-69900000D01*
X203575000Y-70250000D01*
G36*
X203575000Y-70250000D02*
G01*
X202975000Y-70250000D01*
X202975000Y-69900000D01*
X203575000Y-69900000D01*
X203575000Y-70250000D01*
G37*
X203575000Y-70700000D02*
X202975000Y-70700000D01*
X202975000Y-70350000D01*
X203575000Y-70350000D01*
X203575000Y-70700000D01*
G36*
X203575000Y-70700000D02*
G01*
X202975000Y-70700000D01*
X202975000Y-70350000D01*
X203575000Y-70350000D01*
X203575000Y-70700000D01*
G37*
X203575000Y-71150000D02*
X202975000Y-71150000D01*
X202975000Y-70800000D01*
X203575000Y-70800000D01*
X203575000Y-71150000D01*
G36*
X203575000Y-71150000D02*
G01*
X202975000Y-71150000D01*
X202975000Y-70800000D01*
X203575000Y-70800000D01*
X203575000Y-71150000D01*
G37*
X203575000Y-71600000D02*
X202975000Y-71600000D01*
X202975000Y-71250000D01*
X203575000Y-71250000D01*
X203575000Y-71600000D01*
G36*
X203575000Y-71600000D02*
G01*
X202975000Y-71600000D01*
X202975000Y-71250000D01*
X203575000Y-71250000D01*
X203575000Y-71600000D01*
G37*
X203575000Y-72050000D02*
X202975000Y-72050000D01*
X202975000Y-71700000D01*
X203575000Y-71700000D01*
X203575000Y-72050000D01*
G36*
X203575000Y-72050000D02*
G01*
X202975000Y-72050000D01*
X202975000Y-71700000D01*
X203575000Y-71700000D01*
X203575000Y-72050000D01*
G37*
X203575000Y-72500000D02*
X202975000Y-72500000D01*
X202975000Y-72150000D01*
X203575000Y-72150000D01*
X203575000Y-72500000D01*
G36*
X203575000Y-72500000D02*
G01*
X202975000Y-72500000D01*
X202975000Y-72150000D01*
X203575000Y-72150000D01*
X203575000Y-72500000D01*
G37*
X203575000Y-72950000D02*
X202975000Y-72950000D01*
X202975000Y-72600000D01*
X203575000Y-72600000D01*
X203575000Y-72950000D01*
G36*
X203575000Y-72950000D02*
G01*
X202975000Y-72950000D01*
X202975000Y-72600000D01*
X203575000Y-72600000D01*
X203575000Y-72950000D01*
G37*
X203575000Y-67900000D02*
X203100000Y-67900000D01*
X203100000Y-67300000D01*
X203575000Y-67300000D01*
X203575000Y-67900000D01*
G36*
X203575000Y-67900000D02*
G01*
X203100000Y-67900000D01*
X203100000Y-67300000D01*
X203575000Y-67300000D01*
X203575000Y-67900000D01*
G37*
X203575000Y-73750000D02*
X203100000Y-73750000D01*
X203100000Y-73150000D01*
X203575000Y-73150000D01*
X203575000Y-73750000D01*
G36*
X203575000Y-73750000D02*
G01*
X203100000Y-73750000D01*
X203100000Y-73150000D01*
X203575000Y-73150000D01*
X203575000Y-73750000D01*
G37*
X201100000Y-70125000D02*
X199900000Y-70125000D01*
X199900000Y-69483600D01*
X200458600Y-68925000D01*
X201100000Y-68925000D01*
X201100000Y-70125000D01*
G36*
X201100000Y-70125000D02*
G01*
X199900000Y-70125000D01*
X199900000Y-69483600D01*
X200458600Y-68925000D01*
X201100000Y-68925000D01*
X201100000Y-70125000D01*
G37*
%TD*%
D11*
%TO.C,U1*%
X200500000Y-71525000D03*
X202000000Y-69525000D03*
X202000000Y-71525000D03*
%TD*%
D12*
%TO.C,C3*%
X205300000Y-68300000D03*
X205300000Y-66575000D03*
%TD*%
D13*
%TO.C,J1*%
X199650000Y-65475000D03*
D14*
X198175000Y-63975000D03*
D13*
X199650000Y-62475000D03*
D14*
X201125000Y-63975000D03*
%TD*%
D15*
%TO.C,C1*%
X205362500Y-71650000D03*
X207087500Y-71650000D03*
%TD*%
%TO.C,C2*%
X205310147Y-70150000D03*
X207035147Y-70150000D03*
%TD*%
D16*
%TO.C,L1*%
X204396400Y-64465200D03*
X206146400Y-64465200D03*
%TD*%
D17*
%TO.C,Y1*%
X211750000Y-63620000D03*
X209450000Y-63620000D03*
X209450000Y-65520000D03*
X211750000Y-65520000D03*
%TD*%
M02*
