M48
; DRILL file {KiCad 9.0.2} date 2025-06-09T01:03:38+0200
; FORMAT={-:-/ absolute / inch / decimal}
; #@! TF.CreationDate,2025-06-09T01:03:38+02:00
; #@! TF.GenerationSoftware,Kicad,Pcbnew,9.0.2
; #@! TF.FileFunction,Plated,1,4,PTH
FMAT,2
INCH
; #@! TA.AperFunction,Plated,PTH,ViaDrill
T1C0.0118
%
G90
G05
T1
X7.4492Y-2.6762
X7.4492Y-2.7075
X7.4492Y-2.785
X7.4552Y-2.7512
X7.4799Y-2.558
X7.4801Y-2.4252
X7.4801Y-2.9482
X7.5201Y-2.6551
X7.524Y-2.692
X7.524Y-2.7575
X7.526Y-2.832
X7.5315Y-2.6043
X7.5535Y-2.8323
X7.5606Y-2.6075
X7.5646Y-2.6752
X7.5646Y-2.7374
X7.5646Y-2.7843
X7.6138Y-2.5578
X7.614Y-2.425
X7.614Y-2.948
X7.6386Y-2.6347
X7.6453Y-2.6594
X7.6453Y-2.7217
X7.6453Y-2.7854
X7.7008Y-2.7574
X7.747Y-2.558
X7.7472Y-2.4252
X7.7472Y-2.9482
X7.756Y-2.798
X7.76Y-2.844
X7.7638Y-2.9075
X7.7756Y-2.5039
X7.7962Y-2.6888
X7.805Y-2.785
X7.806Y-2.8453
X7.8154Y-2.7433
X7.817Y-2.568
X7.826Y-2.678
X7.8297Y-2.626
X7.8701Y-2.7165
X7.875Y-2.843
X7.878Y-2.8701
X7.878Y-2.688
X7.8811Y-2.4252
X7.8811Y-2.9482
X7.8888Y-2.6249
X7.905Y-2.57
X7.9137Y-2.6189
X7.926Y-2.782
X7.9282Y-2.757
X7.941Y-2.931
X7.9449Y-2.5039
X7.9449Y-2.5866
X7.9567Y-2.6929
X7.9685Y-2.6299
X7.9691Y-2.8393
X7.9764Y-2.8652
X7.9823Y-2.7766
X7.9843Y-2.9154
X7.9882Y-2.5591
X7.9961Y-2.5945
X8.0118Y-2.5079
X8.015Y-2.425
X8.015Y-2.948
X8.036Y-2.9208
X8.0409Y-2.8242
X8.0441Y-2.7439
X8.0453Y-2.6486
X8.0463Y-2.5846
X8.0488Y-2.7858
X8.0622Y-2.8627
X8.0709Y-2.7343
X8.0944Y-2.5045
X8.1122Y-2.8583
X8.122Y-2.5827
X8.1299Y-2.6417
X8.148Y-2.425
X8.148Y-2.948
X8.1772Y-2.5354
X8.1831Y-2.6831
X8.1929Y-2.6181
X8.2362Y-2.6374
X8.2801Y-2.4262
X8.2801Y-2.9492
X8.3327Y-2.6492
X8.414Y-2.426
X8.414Y-2.848
X8.414Y-2.949
X8.4213Y-2.6201
X8.4232Y-2.5413
X8.4232Y-2.5728
X8.4232Y-2.6646
X8.424Y-2.7098
X8.4941Y-2.6449
X8.4975Y-2.5788
X8.498Y-2.5571
X8.499Y-2.6043
X8.5394Y-2.6329
X8.547Y-2.426
X8.547Y-2.848
X8.547Y-2.949
X8.5984Y-2.6772
X8.6014Y-2.564
X8.6014Y-2.6014
M30
