%TF.GenerationSoftware,KiCad,Pcbnew,9.0.2*%
%TF.CreationDate,2025-06-09T01:03:38+02:00*%
%TF.ProjectId,WiFi_1YN,57694669-5f31-4594-9e2e-6b696361645f,rev?*%
%TF.SameCoordinates,Original*%
%TF.FileFunction,Legend,Bot*%
%TF.FilePolarity,Positive*%
%FSLAX46Y46*%
G04 Gerber Fmt 4.6, Leading zero omitted, Abs format (unit mm)*
G04 Created by KiCad (PCBNEW 9.0.2) date 2025-06-09 01:03:38*
%MOMM*%
%LPD*%
G01*
G04 APERTURE LIST*
G04 Aperture macros list*
%AMRoundRect*
0 Rectangle with rounded corners*
0 $1 Rounding radius*
0 $2 $3 $4 $5 $6 $7 $8 $9 X,Y pos of 4 corners*
0 Add a 4 corners polygon primitive as box body*
4,1,4,$2,$3,$4,$5,$6,$7,$8,$9,$2,$3,0*
0 Add four circle primitives for the rounded corners*
1,1,$1+$1,$2,$3*
1,1,$1+$1,$4,$5*
1,1,$1+$1,$6,$7*
1,1,$1+$1,$8,$9*
0 Add four rect primitives between the rounded corners*
20,1,$1+$1,$2,$3,$4,$5,0*
20,1,$1+$1,$4,$5,$6,$7,0*
20,1,$1+$1,$6,$7,$8,$9,0*
20,1,$1+$1,$8,$9,$2,$3,0*%
G04 Aperture macros list end*
%ADD10C,0.150000*%
%ADD11C,0.127000*%
%ADD12C,0.120000*%
%ADD13RoundRect,0.102000X0.330000X-0.115000X0.330000X0.115000X-0.330000X0.115000X-0.330000X-0.115000X0*%
%ADD14RoundRect,0.102000X0.330000X-0.175000X0.330000X0.175000X-0.330000X0.175000X-0.330000X-0.175000X0*%
G04 APERTURE END LIST*
D10*
X218609676Y-67114667D02*
X219066819Y-67114667D01*
X219066819Y-67114667D02*
X219158247Y-67084190D01*
X219158247Y-67084190D02*
X219219200Y-67023238D01*
X219219200Y-67023238D02*
X219249676Y-66931809D01*
X219249676Y-66931809D02*
X219249676Y-66870857D01*
X218670628Y-67388952D02*
X218640152Y-67419428D01*
X218640152Y-67419428D02*
X218609676Y-67480381D01*
X218609676Y-67480381D02*
X218609676Y-67632762D01*
X218609676Y-67632762D02*
X218640152Y-67693714D01*
X218640152Y-67693714D02*
X218670628Y-67724190D01*
X218670628Y-67724190D02*
X218731580Y-67754667D01*
X218731580Y-67754667D02*
X218792533Y-67754667D01*
X218792533Y-67754667D02*
X218883961Y-67724190D01*
X218883961Y-67724190D02*
X219249676Y-67358476D01*
X219249676Y-67358476D02*
X219249676Y-67754667D01*
X193949676Y-69714667D02*
X194406819Y-69714667D01*
X194406819Y-69714667D02*
X194498247Y-69684190D01*
X194498247Y-69684190D02*
X194559200Y-69623238D01*
X194559200Y-69623238D02*
X194589676Y-69531809D01*
X194589676Y-69531809D02*
X194589676Y-69470857D01*
X193949676Y-69958476D02*
X193949676Y-70354667D01*
X193949676Y-70354667D02*
X194193485Y-70141333D01*
X194193485Y-70141333D02*
X194193485Y-70232762D01*
X194193485Y-70232762D02*
X194223961Y-70293714D01*
X194223961Y-70293714D02*
X194254438Y-70324190D01*
X194254438Y-70324190D02*
X194315390Y-70354667D01*
X194315390Y-70354667D02*
X194467771Y-70354667D01*
X194467771Y-70354667D02*
X194528723Y-70324190D01*
X194528723Y-70324190D02*
X194559200Y-70293714D01*
X194559200Y-70293714D02*
X194589676Y-70232762D01*
X194589676Y-70232762D02*
X194589676Y-70049905D01*
X194589676Y-70049905D02*
X194559200Y-69988952D01*
X194559200Y-69988952D02*
X194528723Y-69958476D01*
D11*
%TO.C,J2*%
X215330000Y-69110000D02*
X217180000Y-69110000D01*
X217180000Y-63590000D02*
X215330000Y-63590000D01*
D12*
X218380000Y-68150000D02*
G75*
G02*
X218260000Y-68150000I-60000J0D01*
G01*
X218260000Y-68150000D02*
G75*
G02*
X218380000Y-68150000I60000J0D01*
G01*
D11*
%TO.C,J3*%
X190670000Y-71710000D02*
X192520000Y-71710000D01*
X192520000Y-66190000D02*
X190670000Y-66190000D01*
D12*
X193720000Y-70750000D02*
G75*
G02*
X193600000Y-70750000I-60000J0D01*
G01*
X193600000Y-70750000D02*
G75*
G02*
X193720000Y-70750000I60000J0D01*
G01*
%TD*%
%LPC*%
D13*
%TO.C,J2*%
X217610000Y-68150000D03*
X214900000Y-68150000D03*
X217610000Y-67750000D03*
X214900000Y-67750000D03*
X217610000Y-67350000D03*
X214900000Y-67350000D03*
X217610000Y-66950000D03*
X214900000Y-66950000D03*
X217610000Y-66550000D03*
X214900000Y-66550000D03*
X217610000Y-66150000D03*
X214900000Y-66150000D03*
X217610000Y-65750000D03*
X214900000Y-65750000D03*
X217610000Y-65350000D03*
X214900000Y-65350000D03*
X217610000Y-64950000D03*
X214900000Y-64950000D03*
X217610000Y-64550000D03*
X214900000Y-64550000D03*
D14*
X217610000Y-68625000D03*
X214900000Y-68625000D03*
X217610000Y-64075000D03*
X214900000Y-64075000D03*
%TD*%
D13*
%TO.C,J3*%
X192950000Y-70750000D03*
X190240000Y-70750000D03*
X192950000Y-70350000D03*
X190240000Y-70350000D03*
X192950000Y-69950000D03*
X190240000Y-69950000D03*
X192950000Y-69550000D03*
X190240000Y-69550000D03*
X192950000Y-69150000D03*
X190240000Y-69150000D03*
X192950000Y-68750000D03*
X190240000Y-68750000D03*
X192950000Y-68350000D03*
X190240000Y-68350000D03*
X192950000Y-67950000D03*
X190240000Y-67950000D03*
X192950000Y-67550000D03*
X190240000Y-67550000D03*
X192950000Y-67150000D03*
X190240000Y-67150000D03*
D14*
X192950000Y-71225000D03*
X190240000Y-71225000D03*
X192950000Y-66675000D03*
X190240000Y-66675000D03*
%TD*%
%LPD*%
M02*
