%TF.GenerationSoftware,KiCad,Pcbnew,9.0.2*%
%TF.CreationDate,2025-06-09T01:03:38+02:00*%
%TF.ProjectId,WiFi_1YN,57694669-5f31-4594-9e2e-6b696361645f,rev?*%
%TF.SameCoordinates,Original*%
%TF.FileFunction,Copper,L2,Inr*%
%TF.FilePolarity,Positive*%
%FSLAX46Y46*%
G04 Gerber Fmt 4.6, Leading zero omitted, Abs format (unit mm)*
G04 Created by KiCad (PCBNEW 9.0.2) date 2025-06-09 01:03:38*
%MOMM*%
%LPD*%
G01*
G04 APERTURE LIST*
%TA.AperFunction,ViaPad*%
%ADD10C,0.450000*%
%TD*%
%TA.AperFunction,Conductor*%
%ADD11C,0.127000*%
%TD*%
%TA.AperFunction,Conductor*%
%ADD12C,0.200000*%
%TD*%
G04 APERTURE END LIST*
D10*
%TO.N,GND*%
X198780400Y-68021200D03*
X200101200Y-68275200D03*
X198551800Y-65227200D03*
X200787000Y-65278000D03*
X213715600Y-72339200D03*
X217093800Y-72339200D03*
X201701400Y-74447400D03*
X204114400Y-74188500D03*
X189362212Y-69881334D03*
X201375285Y-70027800D03*
X202415569Y-72118587D03*
X200025000Y-72212200D03*
X201320400Y-70662800D03*
X193395600Y-74879200D03*
X200180500Y-74884200D03*
X210315100Y-74909600D03*
X217093800Y-74904600D03*
X189995100Y-74884200D03*
X196780000Y-74884200D03*
X203581000Y-74879200D03*
X206959200Y-74879200D03*
X213715600Y-74904600D03*
X193389400Y-64968200D03*
X189988900Y-64973200D03*
X196773800Y-64973200D03*
X189995100Y-61600000D03*
X193395600Y-61595000D03*
X210315100Y-61625400D03*
X213715600Y-61620400D03*
X217093800Y-61620400D03*
X196780000Y-61600000D03*
X200180500Y-61600000D03*
X203581000Y-61595000D03*
X206959200Y-61595000D03*
%TO.N,+3.3V*%
X211650000Y-67290000D03*
%TO.N,/32KHz*%
X209200000Y-66990000D03*
%TO.N,+3.3V*%
X205000000Y-69450000D03*
%TO.N,GND*%
X215750000Y-67180000D03*
%TO.N,/WL_GPIO_0_HOST_WAKE*%
X202751136Y-70525000D03*
%TO.N,/WIFI_SDIO_DAT3*%
X204239672Y-71735328D03*
%TO.N,/WL_REG_ON*%
X204319715Y-69696130D03*
%TO.N,/WIFI_SDIO_DAT2*%
X202599998Y-72774998D03*
%TO.N,/WIFI_SDIO_DAT0*%
X204779578Y-72711500D03*
%TO.N,/WIFI_SDIO_DAT1*%
X204439717Y-70760283D03*
%TO.N,/WIFI_SDIO_CMD*%
X206050000Y-72600000D03*
%TO.N,/WIFI_SDIO_CLK*%
X202800000Y-74050000D03*
%TO.N,/WIFI_SDIO_DAT0*%
X213970000Y-68830000D03*
%TO.N,/WIFI_SDIO_DAT2*%
X213950000Y-67680000D03*
%TO.N,/WIFI_SDIO_DAT1*%
X213900000Y-66550000D03*
%TO.N,GND*%
X215836831Y-65501119D03*
%TO.N,/WIFI_SDIO_DAT3*%
X215875000Y-66150000D03*
%TO.N,/WIFI_SDIO_CLK*%
X213950000Y-65350000D03*
%TO.N,/WIFI_SDIO_CMD*%
X213950000Y-64550000D03*
%TO.N,GND*%
X215850000Y-64950000D03*
X218475000Y-65125000D03*
X216900000Y-66875000D03*
%TO.N,+3.3V*%
X218400000Y-68000000D03*
%TO.N,GND*%
X206500000Y-67100000D03*
X204350000Y-67275000D03*
X204375000Y-65650000D03*
X206300000Y-65600000D03*
X207850000Y-68150000D03*
X208100000Y-66500000D03*
X207700000Y-64400000D03*
X205598660Y-63613410D03*
X203500000Y-63700000D03*
X203100000Y-65900000D03*
X202400000Y-66800000D03*
%TO.N,+3.3V*%
X202100000Y-68400000D03*
%TO.N,/32KHz*%
X202900000Y-65000000D03*
%TO.N,/BT_HOST_WAKE*%
X201800000Y-65700000D03*
%TO.N,GND*%
X200374999Y-66672254D03*
%TO.N,/BT_DEV_WAKE*%
X201007090Y-66520713D03*
%TO.N,/BT_PCM_CLK*%
X197200000Y-73850000D03*
%TO.N,/BT_UART_RX*%
X198023090Y-68294700D03*
%TO.N,/BT_PCM_IN*%
X197104000Y-72237600D03*
%TO.N,/BT_PCM_OUT*%
X198272400Y-72270458D03*
%TO.N,/BT_PCM_SYNC*%
X197002400Y-71069200D03*
%TO.N,/BT_UART_RTS*%
X198247000Y-70739000D03*
%TO.N,/BT_UART_CTS*%
X198510000Y-69680000D03*
%TO.N,GND*%
X191860000Y-71940000D03*
X191300000Y-66150000D03*
%TO.N,+3.3V*%
X192140000Y-70720000D03*
%TO.N,/BT_REG_ON*%
X195600000Y-70039000D03*
%TO.N,/BT_HOST_WAKE*%
X192140000Y-69530000D03*
%TO.N,/BT_UART_CTS*%
X194190000Y-69130000D03*
%TO.N,/BT_UART_RTS*%
X192140000Y-67949940D03*
%TO.N,/BT_UART_RX*%
X194190000Y-67550000D03*
%TO.N,/BT_UART_TX*%
X192040000Y-66230000D03*
%TO.N,/BT_DEV_WAKE*%
X191160400Y-71932800D03*
%TO.N,/WL_REG_ON*%
X189210000Y-70740000D03*
%TO.N,/BT_PCM_CLK*%
X191110000Y-70040000D03*
%TO.N,/BT_PCM_IN*%
X189210000Y-68770000D03*
%TO.N,GND*%
X191010000Y-67440000D03*
%TO.N,/BT_PCM_OUT*%
X189210000Y-67975000D03*
%TO.N,GND*%
X197500000Y-63600000D03*
X201800000Y-63600000D03*
X198875000Y-66700000D03*
%TO.N,/WL_GPIO_0_HOST_WAKE*%
X218475000Y-66075000D03*
%TO.N,+3.3V*%
X194190000Y-70750000D03*
%TO.N,/BT_PCM_SYNC*%
X191109600Y-68376800D03*
%TO.N,GND*%
X194021017Y-66922348D03*
%TO.N,/BT_UART_TX*%
X199900000Y-69000000D03*
%TO.N,/BT_REG_ON*%
X200100521Y-72899479D03*
%TD*%
D11*
%TO.N,/BT_HOST_WAKE*%
X201025000Y-67157600D02*
X201025000Y-69175000D01*
X201025000Y-67157600D02*
X201062461Y-67157600D01*
X201062461Y-67157600D02*
X201800000Y-66420061D01*
X201800000Y-66420061D02*
X201800000Y-65700000D01*
%TO.N,/WL_GPIO_0_HOST_WAKE*%
X218475000Y-66075000D02*
X212486672Y-72063328D01*
X212486672Y-72063328D02*
X204868672Y-72063328D01*
X204868672Y-72063328D02*
X204707172Y-72224828D01*
X204707172Y-72224828D02*
X204036914Y-72224828D01*
X204036914Y-72224828D02*
X202751136Y-70939050D01*
X202751136Y-70939050D02*
X202751136Y-70525000D01*
%TO.N,/WIFI_SDIO_DAT1*%
X213900000Y-66550000D02*
X209689717Y-70760283D01*
X209689717Y-70760283D02*
X204439717Y-70760283D01*
%TO.N,/WIFI_SDIO_DAT3*%
X215875000Y-66150000D02*
X214985500Y-67039500D01*
X214985500Y-67039500D02*
X213874362Y-67039500D01*
X209178534Y-71735328D02*
X204239672Y-71735328D01*
X213874362Y-67039500D02*
X209178534Y-71735328D01*
D12*
%TO.N,+3.3V*%
X194190000Y-70750000D02*
X194190000Y-70905881D01*
X194190000Y-70905881D02*
X196528819Y-73244700D01*
X196528819Y-73244700D02*
X199701865Y-73244700D01*
X199701865Y-73244700D02*
X199882644Y-73425479D01*
X199882644Y-73425479D02*
X200318398Y-73425479D01*
X200318398Y-73425479D02*
X202073998Y-71669879D01*
X202073998Y-71669879D02*
X202073998Y-68426002D01*
X202073998Y-68426002D02*
X202100000Y-68400000D01*
D11*
%TO.N,/BT_PCM_CLK*%
X196959200Y-73609200D02*
X194259200Y-73609200D01*
X197200000Y-73850000D02*
X196959200Y-73609200D01*
X194259200Y-73609200D02*
X191110000Y-70460000D01*
X191110000Y-70460000D02*
X191110000Y-70040000D01*
%TO.N,/BT_HOST_WAKE*%
X201025000Y-69175000D02*
X200030500Y-70169500D01*
X200030500Y-70169500D02*
X198307242Y-70169500D01*
X198307242Y-70169500D02*
X197595742Y-69458000D01*
X197595742Y-69458000D02*
X194554258Y-69458000D01*
X194554258Y-69458000D02*
X194392758Y-69619500D01*
X194392758Y-69619500D02*
X192329500Y-69619500D01*
X192329500Y-69619500D02*
X192240000Y-69530000D01*
%TO.N,/BT_UART_CTS*%
X194190000Y-69130000D02*
X194320000Y-69000000D01*
X194320000Y-69000000D02*
X194376138Y-69000000D01*
X194376138Y-69000000D02*
X194506138Y-69130000D01*
X194506138Y-69130000D02*
X197960000Y-69130000D01*
X197960000Y-69130000D02*
X198510000Y-69680000D01*
%TO.N,/BT_UART_TX*%
X199900000Y-69000000D02*
X199900000Y-68954000D01*
X198143862Y-68850000D02*
X198095862Y-68802000D01*
X198095862Y-68802000D02*
X194642000Y-68802000D01*
X192146400Y-66336400D02*
X192040000Y-66230000D01*
X199900000Y-68954000D02*
X199796000Y-68850000D01*
X192176400Y-66336400D02*
X192146400Y-66336400D01*
X199796000Y-68850000D02*
X198143862Y-68850000D01*
X194642000Y-68802000D02*
X192176400Y-66336400D01*
%TO.N,/BT_REG_ON*%
X195600000Y-70039000D02*
X195350000Y-70039000D01*
X195350000Y-70039000D02*
X195350000Y-71550400D01*
X195350000Y-71550400D02*
X196558558Y-72758958D01*
X196558558Y-72758958D02*
X199960000Y-72758958D01*
X199960000Y-72758958D02*
X200100521Y-72899479D01*
%TO.N,/BT_UART_RX*%
X198023090Y-68294700D02*
X197991790Y-68326000D01*
X197991790Y-68326000D02*
X194966000Y-68326000D01*
X194966000Y-68326000D02*
X194190000Y-67550000D01*
%TD*%
%TA.AperFunction,Conductor*%
%TO.N,GND*%
G36*
X219842539Y-61090185D02*
G01*
X219888294Y-61142989D01*
X219899500Y-61194500D01*
X219899500Y-75478100D01*
X219879815Y-75545139D01*
X219827011Y-75590894D01*
X219775500Y-75602100D01*
X188830500Y-75602100D01*
X188763461Y-75582415D01*
X188717706Y-75529611D01*
X188706500Y-75478100D01*
X188706500Y-71876782D01*
X190734900Y-71876782D01*
X190734900Y-71988818D01*
X190763897Y-72097037D01*
X190819915Y-72194063D01*
X190899137Y-72273285D01*
X190996163Y-72329303D01*
X191104382Y-72358300D01*
X191104384Y-72358300D01*
X191216416Y-72358300D01*
X191216418Y-72358300D01*
X191324637Y-72329303D01*
X191421663Y-72273285D01*
X191500885Y-72194063D01*
X191556903Y-72097037D01*
X191585900Y-71988818D01*
X191585900Y-71876782D01*
X191556903Y-71768563D01*
X191500885Y-71671537D01*
X191421663Y-71592315D01*
X191324637Y-71536297D01*
X191216418Y-71507300D01*
X191104382Y-71507300D01*
X190996163Y-71536297D01*
X190996160Y-71536298D01*
X190899140Y-71592313D01*
X190899134Y-71592317D01*
X190819917Y-71671534D01*
X190819913Y-71671540D01*
X190763898Y-71768560D01*
X190763897Y-71768563D01*
X190734900Y-71876782D01*
X188706500Y-71876782D01*
X188706500Y-71137610D01*
X188726185Y-71070571D01*
X188778989Y-71024816D01*
X188848147Y-71014872D01*
X188911703Y-71043897D01*
X188918181Y-71049929D01*
X188948737Y-71080485D01*
X189045763Y-71136503D01*
X189153982Y-71165500D01*
X189153984Y-71165500D01*
X189266016Y-71165500D01*
X189266018Y-71165500D01*
X189374237Y-71136503D01*
X189471263Y-71080485D01*
X189550485Y-71001263D01*
X189606503Y-70904237D01*
X189635500Y-70796018D01*
X189635500Y-70683982D01*
X189606503Y-70575763D01*
X189550485Y-70478737D01*
X189471263Y-70399515D01*
X189374237Y-70343497D01*
X189266018Y-70314500D01*
X189153982Y-70314500D01*
X189045763Y-70343497D01*
X189045760Y-70343498D01*
X188948740Y-70399513D01*
X188948734Y-70399517D01*
X188918181Y-70430071D01*
X188856858Y-70463556D01*
X188787166Y-70458572D01*
X188731233Y-70416700D01*
X188706816Y-70351236D01*
X188706500Y-70342390D01*
X188706500Y-69983982D01*
X190684500Y-69983982D01*
X190684500Y-70096018D01*
X190713497Y-70204237D01*
X190769515Y-70301263D01*
X190769517Y-70301265D01*
X190809681Y-70341429D01*
X190843166Y-70402752D01*
X190846000Y-70429110D01*
X190846000Y-70512513D01*
X190886192Y-70609544D01*
X194035392Y-73758744D01*
X194109656Y-73833008D01*
X194206687Y-73873200D01*
X196670558Y-73873200D01*
X196737597Y-73892885D01*
X196783352Y-73945689D01*
X196790330Y-73965100D01*
X196803497Y-74014237D01*
X196859515Y-74111263D01*
X196938737Y-74190485D01*
X197035763Y-74246503D01*
X197143982Y-74275500D01*
X197143984Y-74275500D01*
X197256016Y-74275500D01*
X197256018Y-74275500D01*
X197364237Y-74246503D01*
X197461263Y-74190485D01*
X197540485Y-74111263D01*
X197596503Y-74014237D01*
X197601930Y-73993982D01*
X202374500Y-73993982D01*
X202374500Y-74106018D01*
X202403497Y-74214237D01*
X202459515Y-74311263D01*
X202538737Y-74390485D01*
X202635763Y-74446503D01*
X202743982Y-74475500D01*
X202743984Y-74475500D01*
X202856016Y-74475500D01*
X202856018Y-74475500D01*
X202964237Y-74446503D01*
X203061263Y-74390485D01*
X203140485Y-74311263D01*
X203196503Y-74214237D01*
X203225500Y-74106018D01*
X203225500Y-73993982D01*
X203196503Y-73885763D01*
X203140485Y-73788737D01*
X203061263Y-73709515D01*
X202964237Y-73653497D01*
X202856018Y-73624500D01*
X202743982Y-73624500D01*
X202635763Y-73653497D01*
X202635760Y-73653498D01*
X202538740Y-73709513D01*
X202538734Y-73709517D01*
X202459517Y-73788734D01*
X202459513Y-73788740D01*
X202403498Y-73885760D01*
X202403497Y-73885763D01*
X202374500Y-73993982D01*
X197601930Y-73993982D01*
X197625500Y-73906018D01*
X197625500Y-73793982D01*
X197600664Y-73701292D01*
X197602327Y-73631443D01*
X197641490Y-73573581D01*
X197705718Y-73546077D01*
X197720439Y-73545200D01*
X199526032Y-73545200D01*
X199593071Y-73564885D01*
X199613713Y-73581519D01*
X199642184Y-73609990D01*
X199698133Y-73665939D01*
X199698135Y-73665940D01*
X199698139Y-73665943D01*
X199732469Y-73685763D01*
X199766655Y-73705500D01*
X199843082Y-73725979D01*
X199843084Y-73725979D01*
X200357958Y-73725979D01*
X200357960Y-73725979D01*
X200434387Y-73705500D01*
X200502909Y-73665939D01*
X200558858Y-73609990D01*
X201449868Y-72718980D01*
X202174498Y-72718980D01*
X202174498Y-72831016D01*
X202203495Y-72939235D01*
X202259513Y-73036261D01*
X202338735Y-73115483D01*
X202435761Y-73171501D01*
X202543980Y-73200498D01*
X202543982Y-73200498D01*
X202656014Y-73200498D01*
X202656016Y-73200498D01*
X202764235Y-73171501D01*
X202861261Y-73115483D01*
X202940483Y-73036261D01*
X202996501Y-72939235D01*
X203025498Y-72831016D01*
X203025498Y-72718980D01*
X202996501Y-72610761D01*
X202940483Y-72513735D01*
X202861261Y-72434513D01*
X202764235Y-72378495D01*
X202656016Y-72349498D01*
X202543980Y-72349498D01*
X202435761Y-72378495D01*
X202435758Y-72378496D01*
X202338738Y-72434511D01*
X202338732Y-72434515D01*
X202259515Y-72513732D01*
X202259511Y-72513738D01*
X202203496Y-72610758D01*
X202203495Y-72610761D01*
X202174498Y-72718980D01*
X201449868Y-72718980D01*
X202314458Y-71854390D01*
X202354019Y-71785868D01*
X202374498Y-71709441D01*
X202374498Y-71235126D01*
X202394183Y-71168087D01*
X202446987Y-71122332D01*
X202516145Y-71112388D01*
X202579701Y-71141413D01*
X202586178Y-71147444D01*
X203887370Y-72448637D01*
X203955981Y-72477056D01*
X203984401Y-72488828D01*
X203984402Y-72488828D01*
X204089427Y-72488828D01*
X204237133Y-72488828D01*
X204304172Y-72508513D01*
X204349927Y-72561317D01*
X204359871Y-72630475D01*
X204356908Y-72644920D01*
X204354078Y-72655480D01*
X204354078Y-72655482D01*
X204354078Y-72767518D01*
X204383075Y-72875737D01*
X204439093Y-72972763D01*
X204518315Y-73051985D01*
X204615341Y-73108003D01*
X204723560Y-73137000D01*
X204723562Y-73137000D01*
X204835594Y-73137000D01*
X204835596Y-73137000D01*
X204943815Y-73108003D01*
X205040841Y-73051985D01*
X205120063Y-72972763D01*
X205176081Y-72875737D01*
X205205078Y-72767518D01*
X205205078Y-72655482D01*
X205176081Y-72547263D01*
X205156487Y-72513326D01*
X205140016Y-72445427D01*
X205162869Y-72379400D01*
X205217791Y-72336210D01*
X205263876Y-72327328D01*
X205520953Y-72327328D01*
X205587992Y-72347013D01*
X205633747Y-72399817D01*
X205643691Y-72468975D01*
X205640731Y-72483404D01*
X205624500Y-72543982D01*
X205624500Y-72656018D01*
X205653497Y-72764237D01*
X205709515Y-72861263D01*
X205788737Y-72940485D01*
X205885763Y-72996503D01*
X205993982Y-73025500D01*
X205993984Y-73025500D01*
X206106016Y-73025500D01*
X206106018Y-73025500D01*
X206214237Y-72996503D01*
X206311263Y-72940485D01*
X206390485Y-72861263D01*
X206446503Y-72764237D01*
X206475500Y-72656018D01*
X206475500Y-72543982D01*
X206459272Y-72483418D01*
X206460935Y-72413572D01*
X206500097Y-72355710D01*
X206564325Y-72328205D01*
X206579047Y-72327328D01*
X212539184Y-72327328D01*
X212539185Y-72327328D01*
X212636216Y-72287136D01*
X216979371Y-67943982D01*
X217974500Y-67943982D01*
X217974500Y-68056018D01*
X218003497Y-68164237D01*
X218059515Y-68261263D01*
X218138737Y-68340485D01*
X218235763Y-68396503D01*
X218343982Y-68425500D01*
X218343984Y-68425500D01*
X218456016Y-68425500D01*
X218456018Y-68425500D01*
X218564237Y-68396503D01*
X218661263Y-68340485D01*
X218740485Y-68261263D01*
X218796503Y-68164237D01*
X218825500Y-68056018D01*
X218825500Y-67943982D01*
X218796503Y-67835763D01*
X218740485Y-67738737D01*
X218661263Y-67659515D01*
X218564237Y-67603497D01*
X218456018Y-67574500D01*
X218343982Y-67574500D01*
X218235763Y-67603497D01*
X218235760Y-67603498D01*
X218138740Y-67659513D01*
X218138734Y-67659517D01*
X218059517Y-67738734D01*
X218059513Y-67738740D01*
X218003498Y-67835760D01*
X218003497Y-67835763D01*
X217974500Y-67943982D01*
X216979371Y-67943982D01*
X218386534Y-66536819D01*
X218447857Y-66503334D01*
X218474215Y-66500500D01*
X218531016Y-66500500D01*
X218531018Y-66500500D01*
X218639237Y-66471503D01*
X218736263Y-66415485D01*
X218815485Y-66336263D01*
X218871503Y-66239237D01*
X218900500Y-66131018D01*
X218900500Y-66018982D01*
X218871503Y-65910763D01*
X218815485Y-65813737D01*
X218736263Y-65734515D01*
X218639237Y-65678497D01*
X218531018Y-65649500D01*
X218418982Y-65649500D01*
X218310763Y-65678497D01*
X218310760Y-65678498D01*
X218213740Y-65734513D01*
X218213734Y-65734517D01*
X218134517Y-65813734D01*
X218134513Y-65813740D01*
X218078498Y-65910760D01*
X218078497Y-65910763D01*
X218049500Y-66018982D01*
X218049500Y-66075785D01*
X218029815Y-66142824D01*
X218013181Y-66163466D01*
X212413639Y-71763009D01*
X212352316Y-71796494D01*
X212325958Y-71799328D01*
X209787248Y-71799328D01*
X209720209Y-71779643D01*
X209674454Y-71726839D01*
X209664510Y-71657681D01*
X209693535Y-71594125D01*
X209699567Y-71587647D01*
X211149856Y-70137358D01*
X212513231Y-68773982D01*
X213544500Y-68773982D01*
X213544500Y-68886018D01*
X213573497Y-68994237D01*
X213629515Y-69091263D01*
X213708737Y-69170485D01*
X213805763Y-69226503D01*
X213913982Y-69255500D01*
X213913984Y-69255500D01*
X214026016Y-69255500D01*
X214026018Y-69255500D01*
X214134237Y-69226503D01*
X214231263Y-69170485D01*
X214310485Y-69091263D01*
X214366503Y-68994237D01*
X214395500Y-68886018D01*
X214395500Y-68773982D01*
X214366503Y-68665763D01*
X214310485Y-68568737D01*
X214231263Y-68489515D01*
X214134237Y-68433497D01*
X214026018Y-68404500D01*
X213913982Y-68404500D01*
X213805763Y-68433497D01*
X213805760Y-68433498D01*
X213708740Y-68489513D01*
X213708734Y-68489517D01*
X213629517Y-68568734D01*
X213629513Y-68568740D01*
X213573498Y-68665760D01*
X213573497Y-68665763D01*
X213544500Y-68773982D01*
X212513231Y-68773982D01*
X213398777Y-67888436D01*
X213460098Y-67854953D01*
X213529790Y-67859937D01*
X213585723Y-67901809D01*
X213593841Y-67914115D01*
X213609515Y-67941263D01*
X213688737Y-68020485D01*
X213785763Y-68076503D01*
X213893982Y-68105500D01*
X213893984Y-68105500D01*
X214006016Y-68105500D01*
X214006018Y-68105500D01*
X214114237Y-68076503D01*
X214211263Y-68020485D01*
X214290485Y-67941263D01*
X214346503Y-67844237D01*
X214375500Y-67736018D01*
X214375500Y-67623982D01*
X214346503Y-67515763D01*
X214331339Y-67489499D01*
X214314867Y-67421600D01*
X214337719Y-67355573D01*
X214392641Y-67312382D01*
X214438727Y-67303500D01*
X215038012Y-67303500D01*
X215038013Y-67303500D01*
X215135044Y-67263308D01*
X215786534Y-66611819D01*
X215847857Y-66578334D01*
X215874215Y-66575500D01*
X215931016Y-66575500D01*
X215931018Y-66575500D01*
X216039237Y-66546503D01*
X216136263Y-66490485D01*
X216215485Y-66411263D01*
X216271503Y-66314237D01*
X216300500Y-66206018D01*
X216300500Y-66093982D01*
X216271503Y-65985763D01*
X216215485Y-65888737D01*
X216136263Y-65809515D01*
X216071579Y-65772169D01*
X216039239Y-65753498D01*
X216039238Y-65753497D01*
X216039237Y-65753497D01*
X215931018Y-65724500D01*
X215818982Y-65724500D01*
X215710763Y-65753497D01*
X215710760Y-65753498D01*
X215613740Y-65809513D01*
X215613734Y-65809517D01*
X215534517Y-65888734D01*
X215534513Y-65888740D01*
X215478498Y-65985760D01*
X215478497Y-65985763D01*
X215449500Y-66093982D01*
X215449500Y-66150785D01*
X215429815Y-66217824D01*
X215413181Y-66238466D01*
X214912467Y-66739181D01*
X214851144Y-66772666D01*
X214824786Y-66775500D01*
X214441687Y-66775500D01*
X214374648Y-66755815D01*
X214328893Y-66703011D01*
X214318949Y-66633853D01*
X214321909Y-66619417D01*
X214325500Y-66606018D01*
X214325500Y-66493982D01*
X214296503Y-66385763D01*
X214240485Y-66288737D01*
X214161263Y-66209515D01*
X214064237Y-66153497D01*
X213956018Y-66124500D01*
X213843982Y-66124500D01*
X213735763Y-66153497D01*
X213735760Y-66153498D01*
X213638740Y-66209513D01*
X213638734Y-66209517D01*
X213559517Y-66288734D01*
X213559513Y-66288740D01*
X213503498Y-66385760D01*
X213503497Y-66385763D01*
X213474500Y-66493982D01*
X213474500Y-66550786D01*
X213454815Y-66617825D01*
X213438181Y-66638467D01*
X209616684Y-70459964D01*
X209555361Y-70493449D01*
X209529003Y-70496283D01*
X204828827Y-70496283D01*
X204761788Y-70476598D01*
X204741146Y-70459964D01*
X204700982Y-70419800D01*
X204700980Y-70419798D01*
X204603954Y-70363780D01*
X204495735Y-70334783D01*
X204495734Y-70334783D01*
X204487885Y-70332680D01*
X204488522Y-70330299D01*
X204435992Y-70307047D01*
X204397534Y-70248713D01*
X204396719Y-70178848D01*
X204433806Y-70119634D01*
X204476765Y-70096516D01*
X204476445Y-70095742D01*
X204483943Y-70092635D01*
X204483952Y-70092633D01*
X204580978Y-70036615D01*
X204660200Y-69957393D01*
X204691592Y-69903019D01*
X204742156Y-69854805D01*
X204810763Y-69841581D01*
X204831072Y-69845245D01*
X204835759Y-69846501D01*
X204835763Y-69846503D01*
X204943982Y-69875500D01*
X204943985Y-69875500D01*
X205056016Y-69875500D01*
X205056018Y-69875500D01*
X205164237Y-69846503D01*
X205261263Y-69790485D01*
X205340485Y-69711263D01*
X205396503Y-69614237D01*
X205425500Y-69506018D01*
X205425500Y-69393982D01*
X205396503Y-69285763D01*
X205340485Y-69188737D01*
X205261263Y-69109515D01*
X205185283Y-69065648D01*
X205164239Y-69053498D01*
X205164238Y-69053497D01*
X205164237Y-69053497D01*
X205056018Y-69024500D01*
X204943982Y-69024500D01*
X204835763Y-69053497D01*
X204835760Y-69053498D01*
X204738740Y-69109513D01*
X204738734Y-69109517D01*
X204659517Y-69188734D01*
X204659513Y-69188740D01*
X204628121Y-69243111D01*
X204577553Y-69291326D01*
X204508946Y-69304547D01*
X204488642Y-69300884D01*
X204483953Y-69299627D01*
X204483952Y-69299627D01*
X204375733Y-69270630D01*
X204263697Y-69270630D01*
X204155478Y-69299627D01*
X204155475Y-69299628D01*
X204058455Y-69355643D01*
X204058449Y-69355647D01*
X203979232Y-69434864D01*
X203979228Y-69434870D01*
X203923213Y-69531890D01*
X203923212Y-69531893D01*
X203894215Y-69640112D01*
X203894215Y-69752148D01*
X203918179Y-69841581D01*
X203923212Y-69860366D01*
X203923213Y-69860369D01*
X203931948Y-69875499D01*
X203979230Y-69957393D01*
X204058452Y-70036615D01*
X204155478Y-70092633D01*
X204263697Y-70121630D01*
X204263699Y-70121630D01*
X204271547Y-70123733D01*
X204270908Y-70126117D01*
X204323418Y-70149348D01*
X204361889Y-70207673D01*
X204362719Y-70277537D01*
X204325646Y-70336760D01*
X204282666Y-70359898D01*
X204282987Y-70360671D01*
X204275477Y-70363781D01*
X204178457Y-70419796D01*
X204178451Y-70419800D01*
X204099234Y-70499017D01*
X204099230Y-70499023D01*
X204043215Y-70596043D01*
X204043214Y-70596046D01*
X204014217Y-70704265D01*
X204014217Y-70816301D01*
X204043214Y-70924520D01*
X204099232Y-71021546D01*
X204178454Y-71100768D01*
X204178456Y-71100769D01*
X204182251Y-71103681D01*
X204223453Y-71160110D01*
X204227607Y-71229856D01*
X204193393Y-71290776D01*
X204138858Y-71321830D01*
X204075439Y-71338823D01*
X204075432Y-71338826D01*
X203978412Y-71394841D01*
X203978406Y-71394845D01*
X203899189Y-71474062D01*
X203899183Y-71474070D01*
X203892253Y-71486073D01*
X203841684Y-71534286D01*
X203773077Y-71547506D01*
X203708213Y-71521535D01*
X203697188Y-71511749D01*
X203115007Y-70929568D01*
X203081522Y-70868245D01*
X203086506Y-70798553D01*
X203095293Y-70779902D01*
X203147639Y-70689237D01*
X203176636Y-70581018D01*
X203176636Y-70468982D01*
X203147639Y-70360763D01*
X203091621Y-70263737D01*
X203012399Y-70184515D01*
X202915373Y-70128497D01*
X202807154Y-70099500D01*
X202695118Y-70099500D01*
X202586899Y-70128497D01*
X202586898Y-70128497D01*
X202560497Y-70143740D01*
X202492596Y-70160211D01*
X202426570Y-70137358D01*
X202383380Y-70082437D01*
X202374498Y-70036352D01*
X202374498Y-68778612D01*
X202394183Y-68711573D01*
X202410817Y-68690931D01*
X202423574Y-68678174D01*
X202440485Y-68661263D01*
X202496503Y-68564237D01*
X202525500Y-68456018D01*
X202525500Y-68343982D01*
X202496503Y-68235763D01*
X202440485Y-68138737D01*
X202361263Y-68059515D01*
X202264237Y-68003497D01*
X202156018Y-67974500D01*
X202043982Y-67974500D01*
X201935763Y-68003497D01*
X201935760Y-68003498D01*
X201838740Y-68059513D01*
X201838734Y-68059517D01*
X201759517Y-68138734D01*
X201759513Y-68138740D01*
X201703498Y-68235760D01*
X201703497Y-68235763D01*
X201674500Y-68343982D01*
X201674500Y-68456018D01*
X201703497Y-68564237D01*
X201746120Y-68638063D01*
X201756885Y-68656707D01*
X201773498Y-68718707D01*
X201773498Y-71494045D01*
X201753813Y-71561084D01*
X201737179Y-71581726D01*
X200643004Y-72675900D01*
X200581681Y-72709385D01*
X200511989Y-72704401D01*
X200456056Y-72662529D01*
X200447936Y-72650219D01*
X200447385Y-72649266D01*
X200441006Y-72638216D01*
X200361784Y-72558994D01*
X200283388Y-72513732D01*
X200264760Y-72502977D01*
X200264759Y-72502976D01*
X200264758Y-72502976D01*
X200156539Y-72473979D01*
X200044503Y-72473979D01*
X199981976Y-72490733D01*
X199949883Y-72494958D01*
X198814355Y-72494958D01*
X198747316Y-72475273D01*
X198701561Y-72422469D01*
X198691617Y-72353311D01*
X198694580Y-72338865D01*
X198697900Y-72326476D01*
X198697900Y-72214440D01*
X198668903Y-72106221D01*
X198612885Y-72009195D01*
X198533663Y-71929973D01*
X198436637Y-71873955D01*
X198328418Y-71844958D01*
X198216382Y-71844958D01*
X198108163Y-71873955D01*
X198108160Y-71873956D01*
X198011140Y-71929971D01*
X198011134Y-71929975D01*
X197931917Y-72009192D01*
X197931913Y-72009198D01*
X197875898Y-72106218D01*
X197875897Y-72106221D01*
X197846900Y-72214440D01*
X197846900Y-72326476D01*
X197850185Y-72338737D01*
X197850220Y-72338865D01*
X197849624Y-72363859D01*
X197853183Y-72388605D01*
X197848807Y-72398185D01*
X197848557Y-72408714D01*
X197834544Y-72429416D01*
X197824158Y-72452161D01*
X197815296Y-72457855D01*
X197809394Y-72466577D01*
X197786413Y-72476418D01*
X197765380Y-72489935D01*
X197749524Y-72492214D01*
X197745166Y-72494081D01*
X197730445Y-72494958D01*
X197637151Y-72494958D01*
X197570112Y-72475273D01*
X197524357Y-72422469D01*
X197514413Y-72353311D01*
X197517376Y-72338865D01*
X197517410Y-72338737D01*
X197529500Y-72293618D01*
X197529500Y-72181582D01*
X197500503Y-72073363D01*
X197444485Y-71976337D01*
X197365263Y-71897115D01*
X197291249Y-71854383D01*
X197268239Y-71841098D01*
X197268238Y-71841097D01*
X197268237Y-71841097D01*
X197160018Y-71812100D01*
X197047982Y-71812100D01*
X196939763Y-71841097D01*
X196939760Y-71841098D01*
X196842740Y-71897113D01*
X196842734Y-71897117D01*
X196763517Y-71976334D01*
X196763513Y-71976340D01*
X196707498Y-72073360D01*
X196707497Y-72073363D01*
X196678500Y-72181582D01*
X196678500Y-72206186D01*
X196658815Y-72273225D01*
X196606011Y-72318980D01*
X196536853Y-72328924D01*
X196473297Y-72299899D01*
X196466819Y-72293867D01*
X195650319Y-71477367D01*
X195616834Y-71416044D01*
X195614000Y-71389686D01*
X195614000Y-71013182D01*
X196576900Y-71013182D01*
X196576900Y-71125218D01*
X196605897Y-71233437D01*
X196661915Y-71330463D01*
X196741137Y-71409685D01*
X196838163Y-71465703D01*
X196946382Y-71494700D01*
X196946384Y-71494700D01*
X197058416Y-71494700D01*
X197058418Y-71494700D01*
X197166637Y-71465703D01*
X197263663Y-71409685D01*
X197342885Y-71330463D01*
X197398903Y-71233437D01*
X197427900Y-71125218D01*
X197427900Y-71013182D01*
X197398903Y-70904963D01*
X197342885Y-70807937D01*
X197263663Y-70728715D01*
X197166637Y-70672697D01*
X197058418Y-70643700D01*
X196946382Y-70643700D01*
X196838163Y-70672697D01*
X196838160Y-70672698D01*
X196741140Y-70728713D01*
X196741134Y-70728717D01*
X196661917Y-70807934D01*
X196661913Y-70807940D01*
X196605898Y-70904960D01*
X196605897Y-70904963D01*
X196576900Y-71013182D01*
X195614000Y-71013182D01*
X195614000Y-70570907D01*
X195633685Y-70503868D01*
X195686489Y-70458113D01*
X195705902Y-70451133D01*
X195764237Y-70435503D01*
X195861263Y-70379485D01*
X195940485Y-70300263D01*
X195996503Y-70203237D01*
X196025500Y-70095018D01*
X196025500Y-69982982D01*
X195997395Y-69878092D01*
X195999058Y-69808243D01*
X196038221Y-69750381D01*
X196102449Y-69722877D01*
X196117170Y-69722000D01*
X197435028Y-69722000D01*
X197502067Y-69741685D01*
X197522709Y-69758319D01*
X197986639Y-70222250D01*
X198020124Y-70283573D01*
X198015140Y-70353265D01*
X197986640Y-70397612D01*
X197906514Y-70477738D01*
X197906513Y-70477740D01*
X197850498Y-70574760D01*
X197850497Y-70574763D01*
X197821500Y-70682982D01*
X197821500Y-70795018D01*
X197846023Y-70886537D01*
X197850497Y-70903236D01*
X197850498Y-70903239D01*
X197856847Y-70914236D01*
X197906515Y-71000263D01*
X197985737Y-71079485D01*
X198082763Y-71135503D01*
X198190982Y-71164500D01*
X198190984Y-71164500D01*
X198303016Y-71164500D01*
X198303018Y-71164500D01*
X198411237Y-71135503D01*
X198508263Y-71079485D01*
X198587485Y-71000263D01*
X198643503Y-70903237D01*
X198672500Y-70795018D01*
X198672500Y-70682982D01*
X198647476Y-70589590D01*
X198649139Y-70519744D01*
X198688301Y-70461881D01*
X198752530Y-70434377D01*
X198767251Y-70433500D01*
X200083012Y-70433500D01*
X200083013Y-70433500D01*
X200180044Y-70393308D01*
X201248808Y-69324544D01*
X201259129Y-69299627D01*
X201289000Y-69227513D01*
X201289000Y-67355775D01*
X201308685Y-67288736D01*
X201325319Y-67268094D01*
X201659432Y-66933982D01*
X208774500Y-66933982D01*
X208774500Y-67046018D01*
X208803497Y-67154237D01*
X208859515Y-67251263D01*
X208938737Y-67330485D01*
X209035763Y-67386503D01*
X209143982Y-67415500D01*
X209143984Y-67415500D01*
X209256016Y-67415500D01*
X209256018Y-67415500D01*
X209364237Y-67386503D01*
X209461263Y-67330485D01*
X209540485Y-67251263D01*
X209550462Y-67233982D01*
X211224500Y-67233982D01*
X211224500Y-67346018D01*
X211253497Y-67454237D01*
X211309515Y-67551263D01*
X211388737Y-67630485D01*
X211485763Y-67686503D01*
X211593982Y-67715500D01*
X211593984Y-67715500D01*
X211706016Y-67715500D01*
X211706018Y-67715500D01*
X211814237Y-67686503D01*
X211911263Y-67630485D01*
X211990485Y-67551263D01*
X212046503Y-67454237D01*
X212075500Y-67346018D01*
X212075500Y-67233982D01*
X212046503Y-67125763D01*
X211990485Y-67028737D01*
X211911263Y-66949515D01*
X211814237Y-66893497D01*
X211706018Y-66864500D01*
X211593982Y-66864500D01*
X211485763Y-66893497D01*
X211485760Y-66893498D01*
X211388740Y-66949513D01*
X211388734Y-66949517D01*
X211309517Y-67028734D01*
X211309513Y-67028740D01*
X211253498Y-67125760D01*
X211253497Y-67125763D01*
X211224500Y-67233982D01*
X209550462Y-67233982D01*
X209596503Y-67154237D01*
X209625500Y-67046018D01*
X209625500Y-66933982D01*
X209596503Y-66825763D01*
X209540485Y-66728737D01*
X209461263Y-66649515D01*
X209364237Y-66593497D01*
X209256018Y-66564500D01*
X209143982Y-66564500D01*
X209035763Y-66593497D01*
X209035760Y-66593498D01*
X208938740Y-66649513D01*
X208938734Y-66649517D01*
X208859517Y-66728734D01*
X208859513Y-66728740D01*
X208803498Y-66825760D01*
X208803497Y-66825763D01*
X208774500Y-66933982D01*
X201659432Y-66933982D01*
X201755240Y-66838174D01*
X201879177Y-66714237D01*
X202023809Y-66569605D01*
X202064000Y-66472573D01*
X202064000Y-66367548D01*
X202064000Y-66089110D01*
X202083685Y-66022071D01*
X202100319Y-66001429D01*
X202115988Y-65985760D01*
X202140485Y-65961263D01*
X202196503Y-65864237D01*
X202225500Y-65756018D01*
X202225500Y-65643982D01*
X202196503Y-65535763D01*
X202140485Y-65438737D01*
X202061263Y-65359515D01*
X201964237Y-65303497D01*
X201856018Y-65274500D01*
X201743982Y-65274500D01*
X201635763Y-65303497D01*
X201635760Y-65303498D01*
X201538740Y-65359513D01*
X201538734Y-65359517D01*
X201459517Y-65438734D01*
X201459513Y-65438740D01*
X201403498Y-65535760D01*
X201403497Y-65535763D01*
X201374500Y-65643982D01*
X201374500Y-65756018D01*
X201403497Y-65864237D01*
X201459515Y-65961263D01*
X201459517Y-65961265D01*
X201499681Y-66001429D01*
X201514384Y-66028356D01*
X201530977Y-66054175D01*
X201531868Y-66060375D01*
X201533166Y-66062752D01*
X201536000Y-66089110D01*
X201536000Y-66148513D01*
X201516315Y-66215552D01*
X201463511Y-66261307D01*
X201394353Y-66271251D01*
X201330797Y-66242226D01*
X201324319Y-66236194D01*
X201268355Y-66180230D01*
X201268353Y-66180228D01*
X201183117Y-66131017D01*
X201171329Y-66124211D01*
X201171328Y-66124210D01*
X201171327Y-66124210D01*
X201063108Y-66095213D01*
X200951072Y-66095213D01*
X200842853Y-66124210D01*
X200842850Y-66124211D01*
X200745830Y-66180226D01*
X200745824Y-66180230D01*
X200666607Y-66259447D01*
X200666603Y-66259453D01*
X200610588Y-66356473D01*
X200610587Y-66356476D01*
X200581590Y-66464695D01*
X200581590Y-66576731D01*
X200607971Y-66675185D01*
X200610587Y-66684949D01*
X200610588Y-66684952D01*
X200627496Y-66714237D01*
X200666605Y-66781976D01*
X200745827Y-66861198D01*
X200745830Y-66861200D01*
X200752276Y-66866146D01*
X200751423Y-66867257D01*
X200793639Y-66911536D01*
X200806859Y-66980144D01*
X200797982Y-67015804D01*
X200761000Y-67105084D01*
X200761000Y-69014286D01*
X200741315Y-69081325D01*
X200724681Y-69101967D01*
X200462667Y-69363980D01*
X200401344Y-69397465D01*
X200331652Y-69392481D01*
X200275719Y-69350609D01*
X200251302Y-69285145D01*
X200266154Y-69216872D01*
X200267554Y-69214377D01*
X200296503Y-69164237D01*
X200325500Y-69056018D01*
X200325500Y-68943982D01*
X200296503Y-68835763D01*
X200240485Y-68738737D01*
X200161263Y-68659515D01*
X200064237Y-68603497D01*
X199956018Y-68574500D01*
X199843982Y-68574500D01*
X199816830Y-68581775D01*
X199784739Y-68586000D01*
X198547146Y-68586000D01*
X198480107Y-68566315D01*
X198434352Y-68513511D01*
X198424408Y-68444353D01*
X198427368Y-68429918D01*
X198448590Y-68350718D01*
X198448590Y-68238682D01*
X198419593Y-68130463D01*
X198363575Y-68033437D01*
X198284353Y-67954215D01*
X198187327Y-67898197D01*
X198079108Y-67869200D01*
X197967072Y-67869200D01*
X197858853Y-67898197D01*
X197858850Y-67898198D01*
X197761830Y-67954213D01*
X197761824Y-67954217D01*
X197690361Y-68025681D01*
X197629038Y-68059166D01*
X197602680Y-68062000D01*
X195126715Y-68062000D01*
X195059676Y-68042315D01*
X195039034Y-68025681D01*
X194651819Y-67638466D01*
X194618334Y-67577143D01*
X194615500Y-67550785D01*
X194615500Y-67493984D01*
X194615500Y-67493982D01*
X194586503Y-67385763D01*
X194530485Y-67288737D01*
X194451263Y-67209515D01*
X194354237Y-67153497D01*
X194246018Y-67124500D01*
X194133982Y-67124500D01*
X194025763Y-67153497D01*
X194025760Y-67153498D01*
X193928740Y-67209513D01*
X193928734Y-67209517D01*
X193849517Y-67288734D01*
X193849516Y-67288736D01*
X193849515Y-67288737D01*
X193835864Y-67312382D01*
X193803148Y-67369047D01*
X193752581Y-67417262D01*
X193683973Y-67430484D01*
X193619109Y-67404516D01*
X193608080Y-67394727D01*
X192501819Y-66288466D01*
X192468334Y-66227143D01*
X192465500Y-66200785D01*
X192465500Y-66173984D01*
X192465500Y-66173982D01*
X192436503Y-66065763D01*
X192380485Y-65968737D01*
X192301263Y-65889515D01*
X192204237Y-65833497D01*
X192096018Y-65804500D01*
X191983982Y-65804500D01*
X191875763Y-65833497D01*
X191875760Y-65833498D01*
X191778740Y-65889513D01*
X191778734Y-65889517D01*
X191699517Y-65968734D01*
X191699513Y-65968740D01*
X191643498Y-66065760D01*
X191643497Y-66065763D01*
X191614500Y-66173982D01*
X191614500Y-66286018D01*
X191641227Y-66385763D01*
X191643497Y-66394236D01*
X191643498Y-66394239D01*
X191655765Y-66415486D01*
X191699515Y-66491263D01*
X191778737Y-66570485D01*
X191875763Y-66626503D01*
X191983982Y-66655500D01*
X191983984Y-66655500D01*
X192070786Y-66655500D01*
X192137825Y-66675185D01*
X192158467Y-66691819D01*
X194022047Y-68555400D01*
X194055532Y-68616723D01*
X194050548Y-68686415D01*
X194008676Y-68742348D01*
X193996368Y-68750467D01*
X193928740Y-68789513D01*
X193928734Y-68789517D01*
X193849517Y-68868734D01*
X193849513Y-68868740D01*
X193793498Y-68965760D01*
X193793497Y-68965763D01*
X193764500Y-69073982D01*
X193764500Y-69186018D01*
X193768087Y-69199408D01*
X193766425Y-69269256D01*
X193727263Y-69327119D01*
X193663034Y-69354623D01*
X193648313Y-69355500D01*
X192602169Y-69355500D01*
X192535130Y-69335815D01*
X192494782Y-69293500D01*
X192489958Y-69285145D01*
X192480485Y-69268737D01*
X192401263Y-69189515D01*
X192304237Y-69133497D01*
X192196018Y-69104500D01*
X192083982Y-69104500D01*
X191975763Y-69133497D01*
X191975760Y-69133498D01*
X191878740Y-69189513D01*
X191878734Y-69189517D01*
X191799517Y-69268734D01*
X191799513Y-69268740D01*
X191743498Y-69365760D01*
X191743497Y-69365763D01*
X191714500Y-69473982D01*
X191714500Y-69586018D01*
X191743497Y-69694237D01*
X191799515Y-69791263D01*
X191878737Y-69870485D01*
X191975763Y-69926503D01*
X192083982Y-69955500D01*
X192083984Y-69955500D01*
X192196016Y-69955500D01*
X192196018Y-69955500D01*
X192304237Y-69926503D01*
X192349946Y-69900112D01*
X192411946Y-69883500D01*
X194445270Y-69883500D01*
X194445271Y-69883500D01*
X194542302Y-69843308D01*
X194627291Y-69758319D01*
X194688614Y-69724834D01*
X194714972Y-69722000D01*
X195009976Y-69722000D01*
X195077015Y-69741685D01*
X195122770Y-69794489D01*
X195132714Y-69863647D01*
X195124536Y-69893454D01*
X195086001Y-69986482D01*
X195086000Y-69986488D01*
X195086000Y-71077548D01*
X195066315Y-71144587D01*
X195013511Y-71190342D01*
X194944353Y-71200286D01*
X194880797Y-71171261D01*
X194874319Y-71165229D01*
X194644907Y-70935817D01*
X194611422Y-70874494D01*
X194612813Y-70816042D01*
X194615500Y-70806018D01*
X194615500Y-70693982D01*
X194586503Y-70585763D01*
X194530485Y-70488737D01*
X194451263Y-70409515D01*
X194372772Y-70364198D01*
X194354239Y-70353498D01*
X194354238Y-70353497D01*
X194354237Y-70353497D01*
X194246018Y-70324500D01*
X194133982Y-70324500D01*
X194025763Y-70353497D01*
X194025760Y-70353498D01*
X193928740Y-70409513D01*
X193928734Y-70409517D01*
X193849517Y-70488734D01*
X193849513Y-70488740D01*
X193793498Y-70585760D01*
X193793497Y-70585763D01*
X193764500Y-70693982D01*
X193764500Y-70806018D01*
X193793497Y-70914237D01*
X193849515Y-71011263D01*
X193928737Y-71090485D01*
X193964041Y-71110867D01*
X193989721Y-71130573D01*
X195992667Y-73133519D01*
X196026152Y-73194842D01*
X196021168Y-73264534D01*
X195979296Y-73320467D01*
X195913832Y-73344884D01*
X195904986Y-73345200D01*
X194419914Y-73345200D01*
X194352875Y-73325515D01*
X194332233Y-73308881D01*
X192314291Y-71290939D01*
X192280806Y-71229616D01*
X192285790Y-71159924D01*
X192327662Y-71103991D01*
X192339967Y-71095874D01*
X192401263Y-71060485D01*
X192480485Y-70981263D01*
X192536503Y-70884237D01*
X192565500Y-70776018D01*
X192565500Y-70663982D01*
X192536503Y-70555763D01*
X192480485Y-70458737D01*
X192401263Y-70379515D01*
X192323785Y-70334783D01*
X192304239Y-70323498D01*
X192304238Y-70323497D01*
X192304237Y-70323497D01*
X192196018Y-70294500D01*
X192083982Y-70294500D01*
X191975763Y-70323497D01*
X191975760Y-70323498D01*
X191878740Y-70379513D01*
X191878734Y-70379517D01*
X191799517Y-70458734D01*
X191799510Y-70458743D01*
X191764127Y-70520028D01*
X191746034Y-70537279D01*
X191731051Y-70557294D01*
X191721182Y-70560974D01*
X191713560Y-70568243D01*
X191689012Y-70572973D01*
X191665587Y-70581711D01*
X191655294Y-70579471D01*
X191644952Y-70581465D01*
X191621742Y-70572173D01*
X191597314Y-70566859D01*
X191584491Y-70557259D01*
X191580088Y-70555497D01*
X191569060Y-70545708D01*
X191471693Y-70448341D01*
X191438208Y-70387018D01*
X191443192Y-70317326D01*
X191451980Y-70298672D01*
X191506503Y-70204237D01*
X191535500Y-70096018D01*
X191535500Y-69983982D01*
X191506503Y-69875763D01*
X191450485Y-69778737D01*
X191371263Y-69699515D01*
X191274237Y-69643497D01*
X191166018Y-69614500D01*
X191053982Y-69614500D01*
X190945763Y-69643497D01*
X190945760Y-69643498D01*
X190848740Y-69699513D01*
X190848734Y-69699517D01*
X190769517Y-69778734D01*
X190769513Y-69778740D01*
X190713498Y-69875760D01*
X190713497Y-69875763D01*
X190684500Y-69983982D01*
X188706500Y-69983982D01*
X188706500Y-69167610D01*
X188726185Y-69100571D01*
X188778989Y-69054816D01*
X188848147Y-69044872D01*
X188911703Y-69073897D01*
X188918181Y-69079929D01*
X188948737Y-69110485D01*
X189045763Y-69166503D01*
X189153982Y-69195500D01*
X189153984Y-69195500D01*
X189266016Y-69195500D01*
X189266018Y-69195500D01*
X189374237Y-69166503D01*
X189471263Y-69110485D01*
X189550485Y-69031263D01*
X189606503Y-68934237D01*
X189635500Y-68826018D01*
X189635500Y-68713982D01*
X189606503Y-68605763D01*
X189550485Y-68508737D01*
X189501929Y-68460181D01*
X189497916Y-68452832D01*
X189491158Y-68447887D01*
X189481420Y-68422621D01*
X189468444Y-68398858D01*
X189469041Y-68390505D01*
X189466030Y-68382692D01*
X189471496Y-68356174D01*
X189473428Y-68329166D01*
X189478751Y-68320782D01*
X190684100Y-68320782D01*
X190684100Y-68432818D01*
X190712284Y-68538000D01*
X190713097Y-68541036D01*
X190713098Y-68541039D01*
X190726493Y-68564239D01*
X190769115Y-68638063D01*
X190848337Y-68717285D01*
X190945363Y-68773303D01*
X191053582Y-68802300D01*
X191053584Y-68802300D01*
X191165616Y-68802300D01*
X191165618Y-68802300D01*
X191273837Y-68773303D01*
X191370863Y-68717285D01*
X191450085Y-68638063D01*
X191506103Y-68541037D01*
X191535100Y-68432818D01*
X191535100Y-68320782D01*
X191506103Y-68212563D01*
X191450085Y-68115537D01*
X191370863Y-68036315D01*
X191273837Y-67980297D01*
X191165618Y-67951300D01*
X191053582Y-67951300D01*
X190945363Y-67980297D01*
X190945360Y-67980298D01*
X190848340Y-68036313D01*
X190848334Y-68036317D01*
X190769117Y-68115534D01*
X190769113Y-68115540D01*
X190713098Y-68212560D01*
X190713097Y-68212563D01*
X190684100Y-68320782D01*
X189478751Y-68320782D01*
X189478812Y-68320686D01*
X189480137Y-68314261D01*
X189499528Y-68288061D01*
X189500979Y-68285778D01*
X189501387Y-68285360D01*
X189550485Y-68236263D01*
X189606503Y-68139237D01*
X189635500Y-68031018D01*
X189635500Y-67918982D01*
X189628785Y-67893922D01*
X191714500Y-67893922D01*
X191714500Y-68005958D01*
X191743497Y-68114177D01*
X191799515Y-68211203D01*
X191878737Y-68290425D01*
X191975763Y-68346443D01*
X192083982Y-68375440D01*
X192083984Y-68375440D01*
X192196016Y-68375440D01*
X192196018Y-68375440D01*
X192304237Y-68346443D01*
X192401263Y-68290425D01*
X192480485Y-68211203D01*
X192536503Y-68114177D01*
X192565500Y-68005958D01*
X192565500Y-67893922D01*
X192536503Y-67785703D01*
X192480485Y-67688677D01*
X192401263Y-67609455D01*
X192304237Y-67553437D01*
X192196018Y-67524440D01*
X192083982Y-67524440D01*
X191975763Y-67553437D01*
X191975760Y-67553438D01*
X191878740Y-67609453D01*
X191878734Y-67609457D01*
X191799517Y-67688674D01*
X191799513Y-67688680D01*
X191743498Y-67785700D01*
X191743497Y-67785703D01*
X191714500Y-67893922D01*
X189628785Y-67893922D01*
X189606503Y-67810763D01*
X189550485Y-67713737D01*
X189471263Y-67634515D01*
X189374237Y-67578497D01*
X189266018Y-67549500D01*
X189153982Y-67549500D01*
X189045763Y-67578497D01*
X189045760Y-67578498D01*
X188948740Y-67634513D01*
X188948734Y-67634517D01*
X188918181Y-67665071D01*
X188856858Y-67698556D01*
X188787166Y-67693572D01*
X188731233Y-67651700D01*
X188706816Y-67586236D01*
X188706500Y-67577390D01*
X188706500Y-64943982D01*
X202474500Y-64943982D01*
X202474500Y-65056018D01*
X202503497Y-65164237D01*
X202559515Y-65261263D01*
X202638737Y-65340485D01*
X202735763Y-65396503D01*
X202843982Y-65425500D01*
X202843984Y-65425500D01*
X202956016Y-65425500D01*
X202956018Y-65425500D01*
X203064237Y-65396503D01*
X203161263Y-65340485D01*
X203240485Y-65261263D01*
X203296503Y-65164237D01*
X203325500Y-65056018D01*
X203325500Y-64943982D01*
X203296503Y-64835763D01*
X203240485Y-64738737D01*
X203161263Y-64659515D01*
X203096579Y-64622169D01*
X203064239Y-64603498D01*
X203064238Y-64603497D01*
X203064237Y-64603497D01*
X202956018Y-64574500D01*
X202843982Y-64574500D01*
X202735763Y-64603497D01*
X202735760Y-64603498D01*
X202638740Y-64659513D01*
X202638734Y-64659517D01*
X202559517Y-64738734D01*
X202559513Y-64738740D01*
X202503498Y-64835760D01*
X202503497Y-64835763D01*
X202474500Y-64943982D01*
X188706500Y-64943982D01*
X188706500Y-64493982D01*
X213524500Y-64493982D01*
X213524500Y-64606018D01*
X213553497Y-64714237D01*
X213609515Y-64811263D01*
X213609517Y-64811265D01*
X213660571Y-64862319D01*
X213694056Y-64923642D01*
X213689072Y-64993334D01*
X213660571Y-65037681D01*
X213609517Y-65088734D01*
X213609513Y-65088740D01*
X213553498Y-65185760D01*
X213553497Y-65185763D01*
X213524500Y-65293982D01*
X213524500Y-65406018D01*
X213553497Y-65514237D01*
X213609515Y-65611263D01*
X213688737Y-65690485D01*
X213785763Y-65746503D01*
X213893982Y-65775500D01*
X213893984Y-65775500D01*
X214006016Y-65775500D01*
X214006018Y-65775500D01*
X214114237Y-65746503D01*
X214211263Y-65690485D01*
X214290485Y-65611263D01*
X214346503Y-65514237D01*
X214375500Y-65406018D01*
X214375500Y-65293982D01*
X214346503Y-65185763D01*
X214290485Y-65088737D01*
X214239429Y-65037681D01*
X214205944Y-64976358D01*
X214210928Y-64906666D01*
X214239429Y-64862319D01*
X214290485Y-64811263D01*
X214346503Y-64714237D01*
X214375500Y-64606018D01*
X214375500Y-64493982D01*
X214346503Y-64385763D01*
X214290485Y-64288737D01*
X214211263Y-64209515D01*
X214114237Y-64153497D01*
X214006018Y-64124500D01*
X213893982Y-64124500D01*
X213785763Y-64153497D01*
X213785760Y-64153498D01*
X213688740Y-64209513D01*
X213688734Y-64209517D01*
X213609517Y-64288734D01*
X213609513Y-64288740D01*
X213553498Y-64385760D01*
X213553497Y-64385763D01*
X213524500Y-64493982D01*
X188706500Y-64493982D01*
X188706500Y-61194500D01*
X188726185Y-61127461D01*
X188778989Y-61081706D01*
X188830500Y-61070500D01*
X219775500Y-61070500D01*
X219842539Y-61090185D01*
G37*
%TD.AperFunction*%
%TD*%
M02*
