%TF.GenerationSoftware,KiCad,Pcbnew,9.0.2*%
%TF.CreationDate,2025-06-09T01:03:38+02:00*%
%TF.ProjectId,WiFi_1YN,57694669-5f31-4594-9e2e-6b696361645f,rev?*%
%TF.SameCoordinates,Original*%
%TF.FileFunction,Soldermask,Bot*%
%TF.FilePolarity,Negative*%
%FSLAX46Y46*%
G04 Gerber Fmt 4.6, Leading zero omitted, Abs format (unit mm)*
G04 Created by KiCad (PCBNEW 9.0.2) date 2025-06-09 01:03:38*
%MOMM*%
%LPD*%
G01*
G04 APERTURE LIST*
G04 Aperture macros list*
%AMRoundRect*
0 Rectangle with rounded corners*
0 $1 Rounding radius*
0 $2 $3 $4 $5 $6 $7 $8 $9 X,Y pos of 4 corners*
0 Add a 4 corners polygon primitive as box body*
4,1,4,$2,$3,$4,$5,$6,$7,$8,$9,$2,$3,0*
0 Add four circle primitives for the rounded corners*
1,1,$1+$1,$2,$3*
1,1,$1+$1,$4,$5*
1,1,$1+$1,$6,$7*
1,1,$1+$1,$8,$9*
0 Add four rect primitives between the rounded corners*
20,1,$1+$1,$2,$3,$4,$5,0*
20,1,$1+$1,$4,$5,$6,$7,0*
20,1,$1+$1,$6,$7,$8,$9,0*
20,1,$1+$1,$8,$9,$2,$3,0*%
G04 Aperture macros list end*
%ADD10RoundRect,0.102000X0.330000X-0.115000X0.330000X0.115000X-0.330000X0.115000X-0.330000X-0.115000X0*%
%ADD11RoundRect,0.102000X0.330000X-0.175000X0.330000X0.175000X-0.330000X0.175000X-0.330000X-0.175000X0*%
G04 APERTURE END LIST*
D10*
%TO.C,J2*%
X217610000Y-68150000D03*
X214900000Y-68150000D03*
X217610000Y-67750000D03*
X214900000Y-67750000D03*
X217610000Y-67350000D03*
X214900000Y-67350000D03*
X217610000Y-66950000D03*
X214900000Y-66950000D03*
X217610000Y-66550000D03*
X214900000Y-66550000D03*
X217610000Y-66150000D03*
X214900000Y-66150000D03*
X217610000Y-65750000D03*
X214900000Y-65750000D03*
X217610000Y-65350000D03*
X214900000Y-65350000D03*
X217610000Y-64950000D03*
X214900000Y-64950000D03*
X217610000Y-64550000D03*
X214900000Y-64550000D03*
D11*
X217610000Y-68625000D03*
X214900000Y-68625000D03*
X217610000Y-64075000D03*
X214900000Y-64075000D03*
%TD*%
D10*
%TO.C,J3*%
X192950000Y-70750000D03*
X190240000Y-70750000D03*
X192950000Y-70350000D03*
X190240000Y-70350000D03*
X192950000Y-69950000D03*
X190240000Y-69950000D03*
X192950000Y-69550000D03*
X190240000Y-69550000D03*
X192950000Y-69150000D03*
X190240000Y-69150000D03*
X192950000Y-68750000D03*
X190240000Y-68750000D03*
X192950000Y-68350000D03*
X190240000Y-68350000D03*
X192950000Y-67950000D03*
X190240000Y-67950000D03*
X192950000Y-67550000D03*
X190240000Y-67550000D03*
X192950000Y-67150000D03*
X190240000Y-67150000D03*
D11*
X192950000Y-71225000D03*
X190240000Y-71225000D03*
X192950000Y-66675000D03*
X190240000Y-66675000D03*
%TD*%
M02*
