%TF.GenerationSoftware,KiCad,Pcbnew,9.0.2*%
%TF.CreationDate,2025-07-04T11:51:32+02:00*%
%TF.ProjectId,WiFi_1YN,57694669-5f31-4594-9e2e-6b696361645f,rev?*%
%TF.SameCoordinates,Original*%
%TF.FileFunction,Copper,L1,Top*%
%TF.FilePolarity,Positive*%
%FSLAX46Y46*%
G04 Gerber Fmt 4.6, Leading zero omitted, Abs format (unit mm)*
G04 Created by KiCad (PCBNEW 9.0.2) date 2025-07-04 11:51:32*
%MOMM*%
%LPD*%
G01*
G04 APERTURE LIST*
G04 Aperture macros list*
%AMRoundRect*
0 Rectangle with rounded corners*
0 $1 Rounding radius*
0 $2 $3 $4 $5 $6 $7 $8 $9 X,Y pos of 4 corners*
0 Add a 4 corners polygon primitive as box body*
4,1,4,$2,$3,$4,$5,$6,$7,$8,$9,$2,$3,0*
0 Add four circle primitives for the rounded corners*
1,1,$1+$1,$2,$3*
1,1,$1+$1,$4,$5*
1,1,$1+$1,$6,$7*
1,1,$1+$1,$8,$9*
0 Add four rect primitives between the rounded corners*
20,1,$1+$1,$2,$3,$4,$5,0*
20,1,$1+$1,$4,$5,$6,$7,0*
20,1,$1+$1,$6,$7,$8,$9,0*
20,1,$1+$1,$8,$9,$2,$3,0*%
%AMFreePoly0*
4,1,14,0.503536,0.503536,0.505000,0.500000,0.505000,-0.500000,0.503536,-0.503536,0.500000,-0.505000,-0.500000,-0.505000,-0.503536,-0.503536,-0.505000,-0.500000,-0.505000,0.000000,-0.503536,0.003536,-0.003536,0.503536,0.000000,0.505000,0.500000,0.505000,0.503536,0.503536,0.503536,0.503536,$1*%
G04 Aperture macros list end*
%TA.AperFunction,SMDPad,CuDef*%
%ADD10R,0.500000X0.250000*%
%TD*%
%TA.AperFunction,SMDPad,CuDef*%
%ADD11R,0.375000X0.500000*%
%TD*%
%TA.AperFunction,SMDPad,CuDef*%
%ADD12R,0.250000X0.500000*%
%TD*%
%TA.AperFunction,SMDPad,CuDef*%
%ADD13FreePoly0,0.000000*%
%TD*%
%TA.AperFunction,SMDPad,CuDef*%
%ADD14R,1.000000X1.000000*%
%TD*%
%TA.AperFunction,SMDPad,CuDef*%
%ADD15RoundRect,0.237500X0.237500X-0.300000X0.237500X0.300000X-0.237500X0.300000X-0.237500X-0.300000X0*%
%TD*%
%TA.AperFunction,SMDPad,CuDef*%
%ADD16RoundRect,0.100000X0.400000X0.400000X-0.400000X0.400000X-0.400000X-0.400000X0.400000X-0.400000X0*%
%TD*%
%TA.AperFunction,SMDPad,CuDef*%
%ADD17RoundRect,0.105000X0.420000X0.995000X-0.420000X0.995000X-0.420000X-0.995000X0.420000X-0.995000X0*%
%TD*%
%TA.AperFunction,SMDPad,CuDef*%
%ADD18RoundRect,0.237500X-0.300000X-0.237500X0.300000X-0.237500X0.300000X0.237500X-0.300000X0.237500X0*%
%TD*%
%TA.AperFunction,SMDPad,CuDef*%
%ADD19RoundRect,0.237500X-0.287500X-0.237500X0.287500X-0.237500X0.287500X0.237500X-0.287500X0.237500X0*%
%TD*%
%TA.AperFunction,SMDPad,CuDef*%
%ADD20R,1.300000X1.100000*%
%TD*%
%TA.AperFunction,ViaPad*%
%ADD21C,0.450000*%
%TD*%
%TA.AperFunction,Conductor*%
%ADD22C,0.127000*%
%TD*%
%TA.AperFunction,Conductor*%
%ADD23C,0.200000*%
%TD*%
%TA.AperFunction,Conductor*%
%ADD24C,0.380000*%
%TD*%
%TA.AperFunction,Conductor*%
%ADD25C,0.400000*%
%TD*%
G04 APERTURE END LIST*
D10*
%TO.P,U1,1,GND*%
%TO.N,GND*%
X199225000Y-68275000D03*
%TO.P,U1,2,BT_UART_RXD*%
%TO.N,/BT_UART_RX*%
X199225000Y-68725000D03*
%TO.P,U1,3,BT_UART_TXD*%
%TO.N,/BT_UART_TX*%
X199225000Y-69175000D03*
%TO.P,U1,4,BT_UART_CTS_N*%
%TO.N,/BT_UART_CTS*%
X199225000Y-69625000D03*
%TO.P,U1,5,BT_UART_RTS_N*%
%TO.N,/BT_UART_RTS*%
X199225000Y-70075000D03*
%TO.P,U1,6,NC*%
%TO.N,unconnected-(U1-NC-Pad6)*%
X199225000Y-70525000D03*
%TO.P,U1,7,NC__1*%
%TO.N,unconnected-(U1-NC__1-Pad7)*%
X199225000Y-70975000D03*
%TO.P,U1,8,BT_PCM_SYNC*%
%TO.N,/BT_PCM_SYNC*%
X199225000Y-71425000D03*
%TO.P,U1,9,BT_PCM_IN*%
%TO.N,/BT_PCM_IN*%
X199225000Y-71875000D03*
%TO.P,U1,10,BT_PCM_OUT*%
%TO.N,/BT_PCM_OUT*%
X199225000Y-72325000D03*
%TO.P,U1,11,BT_PCM_CLK*%
%TO.N,/BT_PCM_CLK*%
X199225000Y-72775000D03*
D11*
%TO.P,U1,12,GND__1*%
%TO.N,GND*%
X199162500Y-73450000D03*
D12*
%TO.P,U1,13,NC__2*%
%TO.N,unconnected-(U1-NC__2-Pad13)*%
X199675000Y-73450000D03*
%TO.P,U1,14,BT_REG_ON*%
%TO.N,/BT_REG_ON*%
X200125000Y-73450000D03*
%TO.P,U1,15,NC__3*%
%TO.N,unconnected-(U1-NC__3-Pad15)*%
X200575000Y-73450000D03*
%TO.P,U1,16,NC__4*%
%TO.N,unconnected-(U1-NC__4-Pad16)*%
X201025000Y-73450000D03*
%TO.P,U1,17,WL_GPIO_2*%
%TO.N,unconnected-(U1-WL_GPIO_2-Pad17)*%
X201475000Y-73450000D03*
%TO.P,U1,18,WL_GPIO_1*%
%TO.N,unconnected-(U1-WL_GPIO_1-Pad18)*%
X201925000Y-73450000D03*
%TO.P,U1,19,GND__2*%
%TO.N,GND*%
X202375000Y-73450000D03*
%TO.P,U1,20,SDIO_CLK*%
%TO.N,/WIFI_SDIO_CLK*%
X202825000Y-73450000D03*
D11*
%TO.P,U1,21,GND__3*%
%TO.N,GND*%
X203337500Y-73450000D03*
D10*
%TO.P,U1,22,SDIO_CMD*%
%TO.N,/WIFI_SDIO_CMD*%
X203275000Y-72775000D03*
%TO.P,U1,23,SDIO_DATA_2*%
%TO.N,/WIFI_SDIO_DAT2*%
X203275000Y-72325000D03*
%TO.P,U1,24,SDIO_DATA_0*%
%TO.N,/WIFI_SDIO_DAT0*%
X203275000Y-71875000D03*
%TO.P,U1,25,SDIO_DATA_3*%
%TO.N,/WIFI_SDIO_DAT3*%
X203275000Y-71425000D03*
%TO.P,U1,26,SDIO_DATA_1*%
%TO.N,/WIFI_SDIO_DAT1*%
X203275000Y-70975000D03*
%TO.P,U1,27,WL_GPIO_0_HOST_WAKE*%
%TO.N,/WL_GPIO_0_HOST_WAKE*%
X203275000Y-70525000D03*
%TO.P,U1,28,WL_REG_ON*%
%TO.N,/WL_REG_ON*%
X203275000Y-70075000D03*
%TO.P,U1,29,GND__4*%
%TO.N,GND*%
X203275000Y-69625000D03*
%TO.P,U1,30,VBAT*%
%TO.N,+3.3V*%
X203275000Y-69175000D03*
%TO.P,U1,31,VIN_LDO*%
%TO.N,Net-(U1-VIN_LDO)*%
X203275000Y-68725000D03*
%TO.P,U1,32,GND(SR_PVSS)*%
%TO.N,unconnected-(U1-GND(SR_PVSS)-Pad32)*%
X203275000Y-68275000D03*
D11*
%TO.P,U1,33,GND(SR_PVSS)__1*%
%TO.N,unconnected-(U1-GND(SR_PVSS)__1-Pad33)*%
X203337500Y-67600000D03*
D12*
%TO.P,U1,34,SR_VLX*%
%TO.N,Net-(U1-SR_VLX)*%
X202825000Y-67600000D03*
%TO.P,U1,35,GND__5*%
%TO.N,GND*%
X202375000Y-67600000D03*
%TO.P,U1,36,VIO*%
%TO.N,+3.3V*%
X201925000Y-67600000D03*
%TO.P,U1,37,LPO_IN(32KHZ)*%
%TO.N,/32KHz*%
X201475000Y-67600000D03*
%TO.P,U1,38,BT_HOST_WAKE*%
%TO.N,/BT_HOST_WAKE*%
X201025000Y-67600000D03*
%TO.P,U1,39,BT_DEV_WAKE*%
%TO.N,/BT_DEV_WAKE*%
X200575000Y-67600000D03*
%TO.P,U1,40,GND__6*%
%TO.N,GND*%
X200125000Y-67600000D03*
%TO.P,U1,41,ANT*%
%TO.N,Net-(J1-In)*%
X199675000Y-67600000D03*
D11*
%TO.P,U1,42,GND__7*%
%TO.N,GND*%
X199162500Y-67600000D03*
D13*
%TO.P,U1,43,GND__8*%
X200500000Y-69525000D03*
D14*
%TO.P,U1,44,GND__9*%
X200500000Y-71525000D03*
%TO.P,U1,45,GND__10*%
X202000000Y-69525000D03*
%TO.P,U1,46,GND__11*%
X202000000Y-71525000D03*
%TD*%
D15*
%TO.P,C3,1*%
%TO.N,Net-(U1-VIN_LDO)*%
X205300000Y-68300000D03*
%TO.P,C3,2*%
%TO.N,GND*%
X205300000Y-66575000D03*
%TD*%
D16*
%TO.P,J1,1,In*%
%TO.N,Net-(J1-In)*%
X199650000Y-65475000D03*
D17*
%TO.P,J1,2,Ext*%
%TO.N,GND*%
X198175000Y-63975000D03*
D16*
X199650000Y-62475000D03*
D17*
X201125000Y-63975000D03*
%TD*%
D18*
%TO.P,C1,1*%
%TO.N,+3.3V*%
X205362500Y-71650000D03*
%TO.P,C1,2*%
%TO.N,GND*%
X207087500Y-71650000D03*
%TD*%
%TO.P,C2,1*%
%TO.N,+3.3V*%
X205310147Y-70150000D03*
%TO.P,C2,2*%
%TO.N,GND*%
X207035147Y-70150000D03*
%TD*%
D19*
%TO.P,L1,1,1*%
%TO.N,Net-(U1-SR_VLX)*%
X204396400Y-64465200D03*
%TO.P,L1,2,2*%
%TO.N,Net-(U1-VIN_LDO)*%
X206146400Y-64465200D03*
%TD*%
D20*
%TO.P,Y1,1,TRI-STATE*%
%TO.N,+3.3V*%
X211750000Y-63620000D03*
%TO.P,Y1,2,GND*%
%TO.N,GND*%
X209450000Y-63620000D03*
%TO.P,Y1,3,OUTPUT*%
%TO.N,/32KHz*%
X209450000Y-65520000D03*
%TO.P,Y1,4,VDD*%
%TO.N,+3.3V*%
X211750000Y-65520000D03*
%TD*%
D21*
%TO.N,GND*%
X191300000Y-66150000D03*
X200025000Y-72212200D03*
X193395600Y-61595000D03*
X196780000Y-74884200D03*
X210315100Y-61625400D03*
X206300000Y-65600000D03*
X200374999Y-66672254D03*
X202415569Y-72118587D03*
X210315100Y-74909600D03*
X217093800Y-72339200D03*
X201375285Y-70027800D03*
X197500000Y-63600000D03*
X204350000Y-67275000D03*
X203581000Y-61595000D03*
X213715600Y-72339200D03*
X200180500Y-61600000D03*
X218475000Y-65125000D03*
X200101200Y-68275200D03*
X217093800Y-74904600D03*
X207850000Y-68150000D03*
X203581000Y-74879200D03*
X205598660Y-63613410D03*
X191010000Y-67440000D03*
X196780000Y-61600000D03*
X216900000Y-66875000D03*
X194021017Y-66922348D03*
X201320400Y-70662800D03*
X198551800Y-65227200D03*
X201701400Y-74447400D03*
X213715600Y-61620400D03*
X206500000Y-67100000D03*
X208100000Y-66500000D03*
X213715600Y-74904600D03*
X198780400Y-68021200D03*
X189362212Y-69881334D03*
X215836831Y-65501119D03*
X206959200Y-61595000D03*
X203100000Y-65900000D03*
X193389400Y-64968200D03*
X193395600Y-74879200D03*
X198875000Y-66700000D03*
X204375000Y-65650000D03*
X206959200Y-74879200D03*
X215750000Y-67180000D03*
X189995100Y-74884200D03*
X203500000Y-63700000D03*
X215850000Y-64950000D03*
X196773800Y-64973200D03*
X200787000Y-65278000D03*
X191860000Y-71940000D03*
X217093800Y-61620400D03*
X201800000Y-63600000D03*
X189995100Y-61600000D03*
X204114400Y-74188500D03*
X207700000Y-64400000D03*
X202400000Y-66800000D03*
X189988900Y-64973200D03*
X200180500Y-74884200D03*
%TO.N,+3.3V*%
X218400000Y-68000000D03*
X202100000Y-68400000D03*
X192140000Y-70720000D03*
X205000000Y-69450000D03*
X194190000Y-70750000D03*
X211650000Y-67290000D03*
%TO.N,/BT_UART_TX*%
X199900000Y-69000000D03*
X192040000Y-66230000D03*
%TO.N,/BT_PCM_IN*%
X197104000Y-72237600D03*
X189210000Y-68770000D03*
%TO.N,/BT_PCM_OUT*%
X198272400Y-72270458D03*
X189210000Y-67975000D03*
%TO.N,/BT_REG_ON*%
X200100521Y-72899479D03*
X195600000Y-70039000D03*
%TO.N,/BT_UART_RX*%
X198023090Y-68294700D03*
X194190000Y-67550000D03*
%TO.N,/WL_REG_ON*%
X204319715Y-69696130D03*
X189210000Y-70740000D03*
%TO.N,/BT_HOST_WAKE*%
X192140000Y-69530000D03*
X201800000Y-65700000D03*
%TO.N,/BT_DEV_WAKE*%
X191160400Y-71932800D03*
X201007090Y-66520713D03*
%TO.N,/BT_UART_RTS*%
X194000000Y-69125003D03*
X198247000Y-70739000D03*
%TO.N,/BT_UART_CTS*%
X194000000Y-68500000D03*
X198510000Y-69680000D03*
%TO.N,/BT_PCM_CLK*%
X197200000Y-73850000D03*
X191110000Y-70040000D03*
%TO.N,/BT_PCM_SYNC*%
X197002400Y-71069200D03*
X191109600Y-68376800D03*
%TO.N,/WIFI_SDIO_CMD*%
X206050000Y-72600000D03*
X213950000Y-64550000D03*
%TO.N,/WIFI_SDIO_CLK*%
X202800000Y-74050000D03*
X213950000Y-65350000D03*
%TO.N,/WL_GPIO_0_HOST_WAKE*%
X218475000Y-66075000D03*
X202751136Y-70525000D03*
%TO.N,/WIFI_SDIO_DAT3*%
X215875000Y-66150000D03*
X204239672Y-71735328D03*
%TO.N,/WIFI_SDIO_DAT1*%
X204439717Y-70760283D03*
X213900000Y-66550000D03*
%TO.N,/WIFI_SDIO_DAT2*%
X202599998Y-72774998D03*
X213950000Y-67680000D03*
%TO.N,/WIFI_SDIO_DAT0*%
X204779578Y-72711500D03*
X213970000Y-68830000D03*
%TO.N,/32KHz*%
X209200000Y-66990000D03*
X202900000Y-65000000D03*
%TD*%
D22*
%TO.N,GND*%
X207700000Y-64400000D02*
X206916534Y-63616534D01*
D23*
X200250000Y-66275000D02*
X200500000Y-66025000D01*
X201125000Y-64575000D02*
X200600000Y-65100000D01*
X199075000Y-66325000D02*
X199100000Y-66325000D01*
D22*
X206700000Y-69100000D02*
X206567328Y-69232672D01*
D23*
X200525000Y-66075000D02*
X200275000Y-66325000D01*
X198775000Y-64525000D02*
X198775000Y-66025000D01*
D24*
X201125000Y-63975000D02*
X201125000Y-64402850D01*
D23*
X201125000Y-63975000D02*
X201125000Y-64575000D01*
D22*
X200250000Y-66797255D02*
X200250000Y-66800000D01*
X203100000Y-65900000D02*
X203100000Y-66000000D01*
D23*
X199100000Y-66325000D02*
X199100000Y-67587500D01*
D22*
X202375000Y-66825000D02*
X202400000Y-66800000D01*
X200374999Y-66672256D02*
X200250000Y-66797255D01*
X203446400Y-65553600D02*
X203100000Y-65900000D01*
X203500000Y-63700000D02*
X205512070Y-63700000D01*
X200374999Y-66672254D02*
X200374999Y-66672256D01*
X200125000Y-68054000D02*
X200125000Y-67806902D01*
X202375000Y-73773800D02*
X201701400Y-74447400D01*
D23*
X201125000Y-63975000D02*
X201125000Y-64600000D01*
D22*
X203275000Y-69625000D02*
X202100000Y-69625000D01*
X208100000Y-66500000D02*
X208100000Y-67900000D01*
X207850000Y-68150000D02*
X206900000Y-69100000D01*
X202400000Y-66700000D02*
X202400000Y-66800000D01*
X205601784Y-63616534D02*
X205598660Y-63613410D01*
X208100000Y-67900000D02*
X207850000Y-68150000D01*
D23*
X200250000Y-66325000D02*
X200250000Y-66800000D01*
D22*
X203375900Y-73450000D02*
X204114400Y-74188500D01*
X207700000Y-64400000D02*
X208100000Y-64800000D01*
X206900000Y-69100000D02*
X206700000Y-69100000D01*
D23*
X206675000Y-69125000D02*
X206700000Y-69100000D01*
D22*
X206916534Y-63616534D02*
X205601784Y-63616534D01*
X203337500Y-73450000D02*
X203375900Y-73450000D01*
D23*
X198775000Y-66025000D02*
X199075000Y-66325000D01*
D22*
X202100000Y-69625000D02*
X202000000Y-69525000D01*
D23*
X200525000Y-65100000D02*
X200525000Y-66075000D01*
D22*
X202375000Y-67600000D02*
X202375000Y-66825000D01*
X203100000Y-66000000D02*
X202400000Y-66700000D01*
X200202800Y-67539500D02*
X200202800Y-67085500D01*
X203446400Y-63753600D02*
X203446400Y-65553600D01*
D23*
X200250000Y-66325000D02*
X200275000Y-66325000D01*
D22*
X199225000Y-68275000D02*
X199904000Y-68275000D01*
D23*
X206675000Y-71650000D02*
X206675000Y-69125000D01*
X199162500Y-67600000D02*
X199175000Y-67587500D01*
D22*
X208100000Y-64800000D02*
X208100000Y-66500000D01*
X200125000Y-67806902D02*
X200139500Y-67792402D01*
X202375000Y-73450000D02*
X202375000Y-73773800D01*
X205512070Y-63700000D02*
X205598660Y-63613410D01*
D24*
X201125000Y-64600000D02*
X200872150Y-64852850D01*
D23*
X200250000Y-66800000D02*
X200250000Y-67106800D01*
D22*
X200139500Y-67792402D02*
X200139500Y-67600000D01*
X203500000Y-63700000D02*
X203446400Y-63753600D01*
D23*
X198175000Y-63975000D02*
X198725000Y-64525000D01*
D22*
X200125000Y-67600000D02*
X200185500Y-67539500D01*
X199904000Y-68275000D02*
X200125000Y-68054000D01*
D23*
X200125000Y-67600000D02*
X200149000Y-67576000D01*
D22*
%TO.N,+3.3V*%
X203275000Y-69175000D02*
X202975000Y-69175000D01*
D23*
X194160000Y-70720000D02*
X194190000Y-70750000D01*
D22*
X211750000Y-67190000D02*
X211650000Y-67290000D01*
D23*
X205310147Y-70150000D02*
X205310147Y-69942685D01*
D22*
X211750000Y-65520000D02*
X211750000Y-67190000D01*
X201925000Y-67600000D02*
X201925000Y-68225000D01*
D23*
X205310147Y-70062500D02*
X205310147Y-70150000D01*
D22*
X202760500Y-68960500D02*
X202760500Y-68889500D01*
D23*
X205589853Y-69782794D02*
X205310147Y-70062500D01*
D22*
X202975000Y-69175000D02*
X202760500Y-68960500D01*
X201925000Y-68054000D02*
X201925000Y-67600000D01*
D23*
X192140000Y-70720000D02*
X194160000Y-70720000D01*
D22*
X201925000Y-68225000D02*
X202100000Y-68400000D01*
D23*
X203279870Y-69170130D02*
X203275000Y-69175000D01*
X205297647Y-70162500D02*
X205310147Y-70150000D01*
D22*
X211750000Y-63620000D02*
X211750000Y-65520000D01*
D23*
X205310147Y-69942685D02*
X204537592Y-69170130D01*
D22*
X201925000Y-68054000D02*
X202100000Y-68229000D01*
D23*
X205737820Y-69782794D02*
X205242206Y-69782794D01*
D22*
X202100000Y-68229000D02*
X202100000Y-68400000D01*
D23*
X205297647Y-71650000D02*
X205297647Y-70162500D01*
D22*
X202760500Y-68889500D02*
X201925000Y-68054000D01*
D23*
X204537592Y-69170130D02*
X203279870Y-69170130D01*
%TO.N,Net-(U1-VIN_LDO)*%
X207059700Y-65378500D02*
X206146400Y-64465200D01*
X205798200Y-68725000D02*
X207059700Y-67463500D01*
X207059700Y-67463500D02*
X207059700Y-66471800D01*
X207059700Y-66471800D02*
X207059700Y-65378500D01*
X203275000Y-68725000D02*
X205798200Y-68725000D01*
D22*
%TO.N,Net-(J1-In)*%
X199650000Y-67575000D02*
X199675000Y-67600000D01*
D25*
X199675000Y-67183000D02*
X199675000Y-65627000D01*
X199675000Y-65500000D02*
X199650000Y-65475000D01*
D23*
X199699000Y-67576000D02*
X199675000Y-67600000D01*
X199675000Y-67304400D02*
X199675000Y-67600000D01*
D22*
%TO.N,/BT_UART_TX*%
X199854000Y-69000000D02*
X199679000Y-69175000D01*
X199679000Y-69175000D02*
X199225000Y-69175000D01*
X199900000Y-69000000D02*
X199854000Y-69000000D01*
%TO.N,/BT_PCM_IN*%
X197544501Y-71780958D02*
X198475158Y-71780958D01*
X198569200Y-71875000D02*
X199225000Y-71875000D01*
X197341859Y-71999741D02*
X197341859Y-71983600D01*
X197104000Y-72237600D02*
X197341859Y-71999741D01*
X197341859Y-71983600D02*
X197544501Y-71780958D01*
X198475158Y-71780958D02*
X198569200Y-71875000D01*
%TO.N,/BT_PCM_OUT*%
X198326942Y-72325000D02*
X198272400Y-72270458D01*
X199225000Y-72325000D02*
X198326942Y-72325000D01*
%TO.N,/BT_REG_ON*%
X200100521Y-72899479D02*
X200185500Y-72984458D01*
X200185500Y-72984458D02*
X200185500Y-73510500D01*
X200185500Y-73510500D02*
X200125000Y-73450000D01*
%TO.N,/BT_UART_RX*%
X198221600Y-68294700D02*
X198651900Y-68725000D01*
X198651900Y-68725000D02*
X199225000Y-68725000D01*
X198023090Y-68294700D02*
X198221600Y-68294700D01*
%TO.N,/WL_REG_ON*%
X203652000Y-70075000D02*
X204030870Y-69696130D01*
X204030870Y-69696130D02*
X204319715Y-69696130D01*
X203275000Y-70075000D02*
X203652000Y-70075000D01*
%TO.N,/BT_HOST_WAKE*%
X201800000Y-65700000D02*
X201800000Y-65932308D01*
X201516154Y-66789260D02*
X201025000Y-67280414D01*
X201800000Y-65932308D02*
X201516154Y-66216154D01*
X201025000Y-67280414D02*
X201025000Y-67600000D01*
X201516154Y-66216154D02*
X201516154Y-66789260D01*
%TO.N,/BT_DEV_WAKE*%
X200575000Y-67600000D02*
X200635500Y-67539500D01*
X200635500Y-67539500D02*
X200635500Y-67104010D01*
X201007090Y-66520713D02*
X201026654Y-66540277D01*
X201026654Y-66712857D02*
X200697155Y-67042355D01*
X201026654Y-66540277D02*
X201026654Y-66712857D01*
X200697155Y-67042355D02*
X200635500Y-67104011D01*
X200514500Y-67660500D02*
X200575000Y-67600000D01*
X200635500Y-67104010D02*
X200697155Y-67042355D01*
%TO.N,/BT_UART_RTS*%
X198900500Y-70075000D02*
X199225000Y-70075000D01*
X198247000Y-70739000D02*
X198652589Y-70333411D01*
X198652589Y-70322911D02*
X198900500Y-70075000D01*
X198652589Y-70333411D02*
X198652589Y-70322911D01*
%TO.N,/BT_UART_CTS*%
X199170000Y-69680000D02*
X199225000Y-69625000D01*
X198510000Y-69680000D02*
X199170000Y-69680000D01*
%TO.N,/BT_PCM_CLK*%
X197200000Y-73850000D02*
X197200000Y-73564000D01*
X197989000Y-72775000D02*
X199225000Y-72775000D01*
X197200000Y-73564000D02*
X197989000Y-72775000D01*
%TO.N,/BT_PCM_SYNC*%
X197358200Y-71425000D02*
X199225000Y-71425000D01*
X197002400Y-71069200D02*
X197358200Y-71425000D01*
%TO.N,/WIFI_SDIO_CMD*%
X203652000Y-72775000D02*
X203275000Y-72775000D01*
X204078000Y-73201000D02*
X203652000Y-72775000D01*
X203300000Y-72800000D02*
X203275000Y-72775000D01*
X205674000Y-73201000D02*
X204078000Y-73201000D01*
X206050000Y-72600000D02*
X206050000Y-72825000D01*
X206050000Y-72825000D02*
X205674000Y-73201000D01*
%TO.N,/WIFI_SDIO_CLK*%
X202800000Y-73475000D02*
X202825000Y-73450000D01*
X202800000Y-74050000D02*
X202800000Y-73475000D01*
%TO.N,/WL_GPIO_0_HOST_WAKE*%
X203214500Y-70585500D02*
X203275000Y-70525000D01*
X203314500Y-70485500D02*
X203275000Y-70525000D01*
X203089498Y-70585500D02*
X203214500Y-70585500D01*
X203275000Y-70525000D02*
X202751136Y-70525000D01*
%TO.N,/WIFI_SDIO_DAT3*%
X204239672Y-71735328D02*
X204079344Y-71575000D01*
X203785344Y-71425000D02*
X203275000Y-71425000D01*
X203935344Y-71575000D02*
X203785344Y-71425000D01*
X204079344Y-71575000D02*
X203935344Y-71575000D01*
%TO.N,/WIFI_SDIO_DAT1*%
X204027602Y-70975000D02*
X203275000Y-70975000D01*
X203325000Y-70925000D02*
X203275000Y-70975000D01*
X204046462Y-70878538D02*
X204046462Y-70956140D01*
X204439717Y-70760283D02*
X204379434Y-70700000D01*
X204225000Y-70700000D02*
X204046462Y-70878538D01*
X204046462Y-70956140D02*
X204027602Y-70975000D01*
X204379434Y-70700000D02*
X204225000Y-70700000D01*
%TO.N,/WIFI_SDIO_DAT2*%
X203335500Y-72385500D02*
X203275000Y-72325000D01*
X202599998Y-72625002D02*
X202900000Y-72325000D01*
X202599998Y-72774998D02*
X202599998Y-72625002D01*
X202900000Y-72325000D02*
X203275000Y-72325000D01*
%TO.N,/WIFI_SDIO_DAT0*%
X203335500Y-71935500D02*
X203275000Y-71875000D01*
X204779578Y-72711500D02*
X204523586Y-72711500D01*
X204523586Y-72711500D02*
X203687086Y-71875000D01*
X203687086Y-71875000D02*
X203275000Y-71875000D01*
%TO.N,Net-(U1-SR_VLX)*%
X203632600Y-66567400D02*
X203800000Y-66400000D01*
X203800000Y-66400000D02*
X203786800Y-66386800D01*
X203300000Y-66567400D02*
X203632600Y-66567400D01*
X202825000Y-67600000D02*
X202825000Y-67042400D01*
X203786800Y-65074800D02*
X204396400Y-64465200D01*
X203786800Y-66386800D02*
X203786800Y-65074800D01*
X202825000Y-67042400D02*
X203300000Y-66567400D01*
%TO.N,/32KHz*%
X201844154Y-66655846D02*
X201844154Y-66925122D01*
X202500000Y-65400000D02*
X202500000Y-66000000D01*
X201844154Y-66925122D02*
X201475000Y-67294276D01*
X201475000Y-67294276D02*
X201475000Y-67600000D01*
X202500000Y-66000000D02*
X201844154Y-66655846D01*
X202900000Y-65000000D02*
X202500000Y-65400000D01*
X209450000Y-66740000D02*
X209200000Y-66990000D01*
X209450000Y-65520000D02*
X209450000Y-66740000D01*
%TD*%
%TA.AperFunction,Conductor*%
%TO.N,GND*%
G36*
X202475000Y-66550000D02*
G01*
X202525000Y-67200000D01*
X202650000Y-68525000D01*
X202627739Y-68524808D01*
X202536819Y-68433888D01*
X202503334Y-68372565D01*
X202501126Y-68352029D01*
X202500500Y-68347280D01*
X202500500Y-68347273D01*
X202473207Y-68245413D01*
X202420480Y-68154087D01*
X202345913Y-68079520D01*
X202254587Y-68026793D01*
X202254586Y-68026792D01*
X202254582Y-68026791D01*
X202236429Y-68021927D01*
X202176769Y-67985561D01*
X202146241Y-67922714D01*
X202146906Y-67877962D01*
X202150500Y-67859899D01*
X202150499Y-67340102D01*
X202144669Y-67310787D01*
X202137415Y-67299930D01*
X202122457Y-67277542D01*
X202089214Y-67255332D01*
X202089215Y-67255332D01*
X202089213Y-67255331D01*
X202089211Y-67255330D01*
X202089208Y-67255329D01*
X202059901Y-67249500D01*
X202051070Y-67249500D01*
X201984031Y-67229815D01*
X201938276Y-67177011D01*
X201928332Y-67107853D01*
X201948096Y-67056418D01*
X201954834Y-67046373D01*
X201983187Y-67018021D01*
X201993528Y-66993053D01*
X202008155Y-66957743D01*
X202008155Y-66892500D01*
X202008155Y-66882511D01*
X202008154Y-66882497D01*
X202008154Y-66775138D01*
X202027839Y-66708099D01*
X202044469Y-66687461D01*
X202477959Y-66253970D01*
X202475000Y-66550000D01*
G37*
%TD.AperFunction*%
%TA.AperFunction,Conductor*%
G36*
X202488758Y-65174136D02*
G01*
X202473358Y-65194710D01*
X202407102Y-65260966D01*
X202407101Y-65260966D01*
X202407100Y-65260967D01*
X202360967Y-65307100D01*
X202351528Y-65329889D01*
X202351528Y-65329890D01*
X202335999Y-65367379D01*
X202335999Y-65370244D01*
X202334231Y-65376262D01*
X202333616Y-65379358D01*
X202333338Y-65379302D01*
X202316314Y-65437283D01*
X202263510Y-65483038D01*
X202194352Y-65492982D01*
X202130796Y-65463957D01*
X202124318Y-65457925D01*
X202045914Y-65379521D01*
X202045913Y-65379520D01*
X201959951Y-65329890D01*
X201954589Y-65326794D01*
X201954588Y-65326793D01*
X201954587Y-65326793D01*
X201852727Y-65299500D01*
X201747273Y-65299500D01*
X201645413Y-65326793D01*
X201645410Y-65326794D01*
X201554085Y-65379521D01*
X201479521Y-65454085D01*
X201426794Y-65545410D01*
X201426793Y-65545413D01*
X201399500Y-65647273D01*
X201399500Y-65752727D01*
X201426793Y-65854587D01*
X201459377Y-65911025D01*
X201465942Y-65938085D01*
X201475674Y-65964173D01*
X201474065Y-65971567D01*
X201475850Y-65978922D01*
X201466742Y-66005237D01*
X201460824Y-66032447D01*
X201454315Y-66041141D01*
X201452998Y-66044949D01*
X201439674Y-66060702D01*
X201423256Y-66077120D01*
X201359680Y-66140696D01*
X201359238Y-66140254D01*
X201337695Y-66166984D01*
X201271399Y-66189043D01*
X201204983Y-66172509D01*
X201161677Y-66147506D01*
X201059817Y-66120213D01*
X200954363Y-66120213D01*
X200852503Y-66147506D01*
X200852500Y-66147507D01*
X200761175Y-66200234D01*
X200686611Y-66274798D01*
X200633884Y-66366123D01*
X200633883Y-66366126D01*
X200606590Y-66467986D01*
X200606590Y-66573439D01*
X200633883Y-66675299D01*
X200633884Y-66675302D01*
X200658926Y-66718676D01*
X200665491Y-66745737D01*
X200675223Y-66771828D01*
X200673614Y-66779221D01*
X200675399Y-66786576D01*
X200666290Y-66812892D01*
X200660372Y-66840101D01*
X200653864Y-66848794D01*
X200652546Y-66852603D01*
X200639221Y-66868356D01*
X200604258Y-66903320D01*
X200604255Y-66903321D01*
X200604256Y-66903322D01*
X200525160Y-66982417D01*
X200525159Y-66982416D01*
X200525158Y-66982418D01*
X200498075Y-67009501D01*
X200498074Y-67009503D01*
X200496467Y-67011111D01*
X200493605Y-67018021D01*
X200471499Y-67071388D01*
X200471499Y-67136632D01*
X200471500Y-67136634D01*
X200471500Y-67159388D01*
X200469595Y-67170133D01*
X200458706Y-67192049D01*
X200451814Y-67215524D01*
X200442164Y-67225347D01*
X200438509Y-67232706D01*
X200429862Y-67237871D01*
X200416388Y-67251589D01*
X200377541Y-67277544D01*
X200377102Y-67278202D01*
X200375768Y-67279316D01*
X200368906Y-67286179D01*
X200368291Y-67285564D01*
X200323490Y-67323007D01*
X200293732Y-67326744D01*
X200300022Y-67332290D01*
X200323780Y-67349591D01*
X200325929Y-67355129D01*
X200330386Y-67359059D01*
X200338422Y-67387324D01*
X200349057Y-67414728D01*
X200349500Y-67425202D01*
X200349500Y-67859894D01*
X200349501Y-67859902D01*
X200355330Y-67889212D01*
X200377542Y-67922457D01*
X200394219Y-67933599D01*
X200410787Y-67944669D01*
X200410790Y-67944669D01*
X200410791Y-67944670D01*
X200420647Y-67946630D01*
X200440101Y-67950500D01*
X200709898Y-67950499D01*
X200739213Y-67944669D01*
X200739214Y-67944667D01*
X200750496Y-67939996D01*
X200751969Y-67943553D01*
X200797763Y-67929205D01*
X200848244Y-67943043D01*
X200849507Y-67939996D01*
X200860784Y-67944667D01*
X200860787Y-67944669D01*
X200860790Y-67944669D01*
X200860791Y-67944670D01*
X200870647Y-67946630D01*
X200890101Y-67950500D01*
X201159898Y-67950499D01*
X201189213Y-67944669D01*
X201189214Y-67944667D01*
X201200496Y-67939996D01*
X201201969Y-67943553D01*
X201247763Y-67929205D01*
X201298244Y-67943043D01*
X201299507Y-67939996D01*
X201310784Y-67944667D01*
X201310787Y-67944669D01*
X201310790Y-67944669D01*
X201310791Y-67944670D01*
X201320647Y-67946630D01*
X201340101Y-67950500D01*
X201609898Y-67950499D01*
X201612808Y-67949920D01*
X201614361Y-67950059D01*
X201615956Y-67949902D01*
X201615985Y-67950204D01*
X201633790Y-67951797D01*
X201654642Y-67948799D01*
X201667890Y-67954848D01*
X201682399Y-67956147D01*
X201699035Y-67969070D01*
X201718199Y-67977821D01*
X201726074Y-67990074D01*
X201737576Y-67999009D01*
X201744584Y-68018875D01*
X201755975Y-68036598D01*
X201759510Y-68061183D01*
X201760821Y-68064899D01*
X201760999Y-68071533D01*
X201760999Y-68086622D01*
X201760999Y-68086623D01*
X201761000Y-68101060D01*
X201761000Y-68152939D01*
X201744387Y-68214939D01*
X201726794Y-68245410D01*
X201726793Y-68245413D01*
X201699500Y-68347273D01*
X201699500Y-68452726D01*
X201712166Y-68500000D01*
X201716709Y-68516954D01*
X199750000Y-68500000D01*
X198451268Y-68289394D01*
X198423331Y-68241007D01*
X198396297Y-68140113D01*
X198343570Y-68048787D01*
X198269003Y-67974220D01*
X198177677Y-67921493D01*
X198075817Y-67894200D01*
X197970363Y-67894200D01*
X197868503Y-67921493D01*
X197868500Y-67921494D01*
X197777175Y-67974221D01*
X197702611Y-68048785D01*
X197649884Y-68140110D01*
X197649883Y-68140113D01*
X197644919Y-68158635D01*
X196975000Y-68050000D01*
X196929307Y-65950000D01*
X198875000Y-65950000D01*
X199163681Y-66238681D01*
X199197166Y-66300004D01*
X199200000Y-66326362D01*
X199200000Y-67349999D01*
X199200000Y-67350000D01*
X199322237Y-67346783D01*
X199389772Y-67364697D01*
X199436900Y-67416279D01*
X199449500Y-67470740D01*
X199449500Y-67859894D01*
X199449501Y-67859902D01*
X199455330Y-67889212D01*
X199477542Y-67922457D01*
X199494219Y-67933599D01*
X199510787Y-67944669D01*
X199510790Y-67944669D01*
X199510791Y-67944670D01*
X199520647Y-67946630D01*
X199540101Y-67950500D01*
X199809898Y-67950499D01*
X199839213Y-67944669D01*
X199872457Y-67922457D01*
X199894669Y-67889213D01*
X199900500Y-67859899D01*
X199900499Y-67452344D01*
X199900655Y-67451813D01*
X199900504Y-67451282D01*
X199910471Y-67418382D01*
X199920183Y-67385306D01*
X199920601Y-67384943D01*
X199920762Y-67384414D01*
X199946977Y-67362088D01*
X199972987Y-67339551D01*
X199973675Y-67339352D01*
X199973956Y-67339113D01*
X199976497Y-67338536D01*
X200007905Y-67329460D01*
X200014536Y-67328564D01*
X200150000Y-67325000D01*
X200150000Y-67310271D01*
X200196283Y-67304021D01*
X200191138Y-67301560D01*
X200154418Y-67242117D01*
X200150000Y-67209311D01*
X200150000Y-66326299D01*
X200169685Y-66259260D01*
X200182114Y-66243034D01*
X200425000Y-65975000D01*
X200425000Y-65974999D01*
X200450000Y-64700000D01*
X200150000Y-64700000D01*
X199150000Y-64700000D01*
X199025000Y-64700000D01*
X198875000Y-64700000D01*
X198875000Y-65950000D01*
X196929307Y-65950000D01*
X196824600Y-61137800D01*
X199428573Y-61125000D01*
X202529250Y-61125000D01*
X202488758Y-65174136D01*
G37*
%TD.AperFunction*%
%TD*%
%TA.AperFunction,Conductor*%
%TO.N,GND*%
G36*
X200910000Y-68510000D02*
G01*
X200750000Y-68510000D01*
X200750000Y-69275000D01*
X202650285Y-69275000D01*
X202676692Y-69282754D01*
X202703860Y-69287171D01*
X202712452Y-69293254D01*
X202717324Y-69294685D01*
X202733196Y-69306795D01*
X202735639Y-69308992D01*
X202825456Y-69398809D01*
X202844124Y-69406541D01*
X202859938Y-69420761D01*
X202867568Y-69433128D01*
X202871465Y-69436269D01*
X202871816Y-69435919D01*
X202875071Y-69439174D01*
X202878884Y-69442247D01*
X202880125Y-69444069D01*
X202880446Y-69444549D01*
X202880450Y-69444554D01*
X202946769Y-69488867D01*
X202946770Y-69488868D01*
X203005247Y-69500499D01*
X203005250Y-69500500D01*
X203151000Y-69500500D01*
X203159685Y-69503050D01*
X203168647Y-69501762D01*
X203192687Y-69512740D01*
X203218039Y-69520185D01*
X203223966Y-69527025D01*
X203232203Y-69530787D01*
X203246492Y-69553021D01*
X203263794Y-69572989D01*
X203266081Y-69583503D01*
X203269977Y-69589565D01*
X203275000Y-69624500D01*
X203275000Y-69625500D01*
X203255315Y-69692539D01*
X203202511Y-69738294D01*
X203151000Y-69749500D01*
X203005247Y-69749500D01*
X202946770Y-69761131D01*
X202936081Y-69765560D01*
X202888626Y-69775000D01*
X202250000Y-69775000D01*
X202250000Y-72496986D01*
X202247503Y-72508170D01*
X202248538Y-72515971D01*
X202240955Y-72537497D01*
X202238226Y-72549725D01*
X202236002Y-72554455D01*
X202203495Y-72610761D01*
X202195472Y-72640703D01*
X202190777Y-72650694D01*
X202174630Y-72668922D01*
X202161957Y-72689712D01*
X202149476Y-72697318D01*
X202144448Y-72702996D01*
X202136477Y-72705242D01*
X202121884Y-72714137D01*
X202007913Y-72756645D01*
X202007906Y-72756649D01*
X201892812Y-72842809D01*
X201803158Y-72962571D01*
X201781147Y-72979047D01*
X201761362Y-72998137D01*
X201750551Y-73001950D01*
X201747224Y-73004441D01*
X201728078Y-73009877D01*
X201724186Y-73010651D01*
X201675810Y-73010651D01*
X201619748Y-72999500D01*
X201330252Y-72999500D01*
X201274190Y-73010651D01*
X201225810Y-73010651D01*
X201169748Y-72999500D01*
X200880252Y-72999500D01*
X200824190Y-73010651D01*
X200824127Y-73010654D01*
X200824101Y-73010668D01*
X200823872Y-73010667D01*
X200788856Y-73012531D01*
X200778991Y-73011640D01*
X200778231Y-73011133D01*
X200719748Y-72999500D01*
X200644440Y-72999500D01*
X200638877Y-72998998D01*
X200611356Y-72988146D01*
X200582982Y-72979815D01*
X200579222Y-72975476D01*
X200573878Y-72973369D01*
X200556591Y-72949359D01*
X200537227Y-72927011D01*
X200535808Y-72920492D01*
X200533054Y-72916666D01*
X200532436Y-72904992D01*
X200526021Y-72875500D01*
X200526021Y-72843463D01*
X200526021Y-72843461D01*
X200497024Y-72735242D01*
X200441006Y-72638216D01*
X200361784Y-72558994D01*
X200312000Y-72530251D01*
X200306993Y-72525000D01*
X200750000Y-72525000D01*
X201047828Y-72525000D01*
X201047844Y-72524999D01*
X201107372Y-72518598D01*
X201107376Y-72518597D01*
X201206666Y-72481564D01*
X201276358Y-72476580D01*
X201293334Y-72481564D01*
X201392623Y-72518597D01*
X201392627Y-72518598D01*
X201452155Y-72524999D01*
X201452172Y-72525000D01*
X201750000Y-72525000D01*
X201750000Y-71775000D01*
X200750000Y-71775000D01*
X200750000Y-72525000D01*
X200306993Y-72525000D01*
X200263784Y-72479684D01*
X200250000Y-72422864D01*
X200250000Y-71275000D01*
X200750000Y-71275000D01*
X201750000Y-71275000D01*
X201750000Y-69775000D01*
X200750000Y-69775000D01*
X200750000Y-71275000D01*
X200250000Y-71275000D01*
X200250000Y-69278007D01*
X200266613Y-69216007D01*
X200296503Y-69164237D01*
X200325500Y-69056018D01*
X200325500Y-68943982D01*
X200296503Y-68835763D01*
X200266612Y-68783990D01*
X200250000Y-68721991D01*
X200250000Y-68592688D01*
X200228388Y-68591558D01*
X200213385Y-68602790D01*
X200147920Y-68627206D01*
X200079648Y-68612354D01*
X200077075Y-68610909D01*
X200064239Y-68603498D01*
X200064231Y-68603494D01*
X200063765Y-68603370D01*
X200063416Y-68603157D01*
X200056730Y-68600388D01*
X200057162Y-68599344D01*
X200004107Y-68567000D01*
X199973584Y-68504150D01*
X199973517Y-68501926D01*
X200910000Y-68510000D01*
G37*
%TD.AperFunction*%
%TA.AperFunction,Conductor*%
G36*
X201592409Y-68515882D02*
G01*
X201550500Y-68525000D01*
X201452155Y-68525000D01*
X201392627Y-68531401D01*
X201392619Y-68531403D01*
X201309472Y-68562415D01*
X201239780Y-68567399D01*
X201202869Y-68552877D01*
X201200332Y-68551371D01*
X201193267Y-68548445D01*
X201142271Y-68530455D01*
X201005738Y-68510825D01*
X201592409Y-68515882D01*
G37*
%TD.AperFunction*%
%TA.AperFunction,Conductor*%
G36*
X204756377Y-65160385D02*
G01*
X204777019Y-65177019D01*
X204800000Y-65200000D01*
X205700000Y-65200000D01*
X205722981Y-65177019D01*
X205784304Y-65143534D01*
X205810662Y-65140700D01*
X206345567Y-65140700D01*
X206412606Y-65160385D01*
X206433248Y-65177019D01*
X206722881Y-65466652D01*
X206756366Y-65527975D01*
X206759200Y-65554333D01*
X206759200Y-67287667D01*
X206739515Y-67354706D01*
X206722881Y-67375348D01*
X206166147Y-67932081D01*
X206104824Y-67965566D01*
X206035132Y-67960582D01*
X205979199Y-67918710D01*
X205969459Y-67903506D01*
X205964711Y-67894751D01*
X205929116Y-67793025D01*
X205855381Y-67693116D01*
X205851269Y-67685533D01*
X205845679Y-67659468D01*
X205836535Y-67634431D01*
X205838466Y-67625833D01*
X205836619Y-67617217D01*
X205846007Y-67592268D01*
X205851851Y-67566261D01*
X205858360Y-67559444D01*
X205861228Y-67551824D01*
X205876458Y-67540492D01*
X205895180Y-67520888D01*
X205998037Y-67457445D01*
X206119944Y-67335538D01*
X206119947Y-67335534D01*
X206210448Y-67188811D01*
X206210453Y-67188800D01*
X206264680Y-67025152D01*
X206274999Y-66924154D01*
X206275000Y-66924141D01*
X206275000Y-66825000D01*
X204325001Y-66825000D01*
X204325001Y-66924154D01*
X204335319Y-67025152D01*
X204389546Y-67188800D01*
X204389551Y-67188811D01*
X204480052Y-67335534D01*
X204480055Y-67335538D01*
X204601960Y-67457443D01*
X204704820Y-67520888D01*
X204751544Y-67572836D01*
X204762767Y-67641799D01*
X204739494Y-67700060D01*
X204670883Y-67793025D01*
X204627274Y-67917650D01*
X204624500Y-67947239D01*
X204624500Y-68300500D01*
X204604815Y-68367539D01*
X204552011Y-68413294D01*
X204500500Y-68424500D01*
X203849500Y-68424500D01*
X203782461Y-68404815D01*
X203736706Y-68352011D01*
X203725500Y-68300500D01*
X203725500Y-68130249D01*
X203725499Y-68130247D01*
X203713868Y-68071770D01*
X203713867Y-68071768D01*
X203711945Y-68068892D01*
X203709681Y-68061664D01*
X203709194Y-68060487D01*
X203709299Y-68060443D01*
X203691066Y-68002215D01*
X203709550Y-67934835D01*
X203711945Y-67931108D01*
X203713867Y-67928231D01*
X203713868Y-67928229D01*
X203725499Y-67869752D01*
X203725500Y-67869750D01*
X203725500Y-67330249D01*
X203725499Y-67330247D01*
X203713868Y-67271770D01*
X203713867Y-67271769D01*
X203669552Y-67205447D01*
X203603230Y-67161132D01*
X203603229Y-67161131D01*
X203544752Y-67149500D01*
X203544748Y-67149500D01*
X203390614Y-67149500D01*
X203369368Y-67143261D01*
X203347280Y-67141682D01*
X203336496Y-67133609D01*
X203323575Y-67129815D01*
X203309075Y-67113081D01*
X203291347Y-67099810D01*
X203286639Y-67087189D01*
X203277820Y-67077011D01*
X203274668Y-67055093D01*
X203266930Y-67034346D01*
X203269792Y-67021185D01*
X203267876Y-67007853D01*
X203277075Y-66987709D01*
X203281782Y-66966073D01*
X203295050Y-66948347D01*
X203296901Y-66944297D01*
X203302933Y-66937819D01*
X203373033Y-66867719D01*
X203434356Y-66834234D01*
X203460714Y-66831400D01*
X203685112Y-66831400D01*
X203685113Y-66831400D01*
X203782144Y-66791208D01*
X203932103Y-66641247D01*
X203932106Y-66641246D01*
X203949543Y-66623809D01*
X203949544Y-66623809D01*
X204023809Y-66549544D01*
X204023809Y-66549542D01*
X204023811Y-66549541D01*
X204046823Y-66493982D01*
X204064000Y-66452513D01*
X204064000Y-66347488D01*
X204060236Y-66338402D01*
X204058610Y-66330227D01*
X204055823Y-66325889D01*
X204050800Y-66290954D01*
X204050800Y-66225845D01*
X204325000Y-66225845D01*
X204325000Y-66325000D01*
X205050000Y-66325000D01*
X205550000Y-66325000D01*
X206274999Y-66325000D01*
X206274999Y-66225860D01*
X206274998Y-66225845D01*
X206264680Y-66124847D01*
X206210453Y-65961199D01*
X206210448Y-65961188D01*
X206119947Y-65814465D01*
X206119944Y-65814461D01*
X205998038Y-65692555D01*
X205998034Y-65692552D01*
X205851311Y-65602051D01*
X205851300Y-65602046D01*
X205687652Y-65547819D01*
X205586654Y-65537500D01*
X205550000Y-65537500D01*
X205550000Y-66325000D01*
X205050000Y-66325000D01*
X205050000Y-65537500D01*
X205013361Y-65537500D01*
X205013343Y-65537501D01*
X204912347Y-65547819D01*
X204748699Y-65602046D01*
X204748688Y-65602051D01*
X204601965Y-65692552D01*
X204601961Y-65692555D01*
X204480055Y-65814461D01*
X204480052Y-65814465D01*
X204389551Y-65961188D01*
X204389546Y-65961199D01*
X204335319Y-66124847D01*
X204325000Y-66225845D01*
X204050800Y-66225845D01*
X204050800Y-65264700D01*
X204070485Y-65197661D01*
X204123289Y-65151906D01*
X204174800Y-65140700D01*
X204689338Y-65140700D01*
X204756377Y-65160385D01*
G37*
%TD.AperFunction*%
%TA.AperFunction,Conductor*%
G36*
X203475452Y-65137582D02*
G01*
X203515980Y-65194497D01*
X203522800Y-65235053D01*
X203522800Y-66179400D01*
X203503115Y-66246439D01*
X203450311Y-66292194D01*
X203398800Y-66303400D01*
X203247486Y-66303400D01*
X203217988Y-66315619D01*
X203168150Y-66336263D01*
X203168148Y-66336263D01*
X203168147Y-66336264D01*
X203150457Y-66343590D01*
X202676657Y-66817390D01*
X202615334Y-66850875D01*
X202575720Y-66852998D01*
X202547844Y-66850000D01*
X202500000Y-66850000D01*
X202500000Y-66875000D01*
X202475000Y-66550000D01*
X202476531Y-66396820D01*
X202723808Y-66149544D01*
X202764000Y-66052513D01*
X202764000Y-65947488D01*
X202764000Y-65560714D01*
X202772644Y-65531273D01*
X202779168Y-65501287D01*
X202782922Y-65496271D01*
X202783685Y-65493675D01*
X202800319Y-65473033D01*
X202811533Y-65461819D01*
X202872856Y-65428334D01*
X202899214Y-65425500D01*
X202956016Y-65425500D01*
X202956018Y-65425500D01*
X203064237Y-65396503D01*
X203161263Y-65340485D01*
X203240485Y-65261263D01*
X203291413Y-65173052D01*
X203341980Y-65124837D01*
X203410587Y-65111614D01*
X203475452Y-65137582D01*
G37*
%TD.AperFunction*%
%TA.AperFunction,Conductor*%
G36*
X219842539Y-61090185D02*
G01*
X219888294Y-61142989D01*
X219899500Y-61194500D01*
X219899500Y-75478100D01*
X219879815Y-75545139D01*
X219827011Y-75590894D01*
X219775500Y-75602100D01*
X188830500Y-75602100D01*
X188763461Y-75582415D01*
X188717706Y-75529611D01*
X188706500Y-75478100D01*
X188706500Y-71876782D01*
X190734900Y-71876782D01*
X190734900Y-71988818D01*
X190755757Y-72066656D01*
X190763897Y-72097036D01*
X190763898Y-72097039D01*
X190778176Y-72121769D01*
X190819915Y-72194063D01*
X190899137Y-72273285D01*
X190996163Y-72329303D01*
X191104382Y-72358300D01*
X191104384Y-72358300D01*
X191216416Y-72358300D01*
X191216418Y-72358300D01*
X191324637Y-72329303D01*
X191421663Y-72273285D01*
X191500885Y-72194063D01*
X191556903Y-72097037D01*
X191585900Y-71988818D01*
X191585900Y-71876782D01*
X191556903Y-71768563D01*
X191500885Y-71671537D01*
X191421663Y-71592315D01*
X191324637Y-71536297D01*
X191216418Y-71507300D01*
X191104382Y-71507300D01*
X190996163Y-71536297D01*
X190996160Y-71536298D01*
X190899140Y-71592313D01*
X190899134Y-71592317D01*
X190819917Y-71671534D01*
X190819913Y-71671540D01*
X190763898Y-71768560D01*
X190763897Y-71768563D01*
X190734900Y-71876782D01*
X188706500Y-71876782D01*
X188706500Y-71137610D01*
X188726185Y-71070571D01*
X188778989Y-71024816D01*
X188848147Y-71014872D01*
X188911703Y-71043897D01*
X188918181Y-71049929D01*
X188948737Y-71080485D01*
X189045763Y-71136503D01*
X189153982Y-71165500D01*
X189153984Y-71165500D01*
X189266016Y-71165500D01*
X189266018Y-71165500D01*
X189374237Y-71136503D01*
X189471263Y-71080485D01*
X189550485Y-71001263D01*
X189606503Y-70904237D01*
X189635500Y-70796018D01*
X189635500Y-70683982D01*
X189630141Y-70663982D01*
X191714500Y-70663982D01*
X191714500Y-70776018D01*
X191738473Y-70865485D01*
X191743497Y-70884236D01*
X191743498Y-70884239D01*
X191754466Y-70903236D01*
X191799515Y-70981263D01*
X191878737Y-71060485D01*
X191975763Y-71116503D01*
X192083982Y-71145500D01*
X192083984Y-71145500D01*
X192196016Y-71145500D01*
X192196018Y-71145500D01*
X192304237Y-71116503D01*
X192401263Y-71060485D01*
X192404929Y-71056819D01*
X192466252Y-71023334D01*
X192492610Y-71020500D01*
X193807390Y-71020500D01*
X193874429Y-71040185D01*
X193895071Y-71056819D01*
X193928737Y-71090485D01*
X194025763Y-71146503D01*
X194133982Y-71175500D01*
X194133984Y-71175500D01*
X194246016Y-71175500D01*
X194246018Y-71175500D01*
X194354237Y-71146503D01*
X194451263Y-71090485D01*
X194528566Y-71013182D01*
X196576900Y-71013182D01*
X196576900Y-71125218D01*
X196605897Y-71233437D01*
X196661915Y-71330463D01*
X196741137Y-71409685D01*
X196838163Y-71465703D01*
X196946382Y-71494700D01*
X197003186Y-71494700D01*
X197032626Y-71503344D01*
X197062613Y-71509868D01*
X197067628Y-71513622D01*
X197070225Y-71514385D01*
X197090867Y-71531019D01*
X197160267Y-71600419D01*
X197193752Y-71661742D01*
X197188768Y-71731434D01*
X197146896Y-71787367D01*
X197081432Y-71811784D01*
X197072586Y-71812100D01*
X197047982Y-71812100D01*
X196939763Y-71841097D01*
X196939760Y-71841098D01*
X196842740Y-71897113D01*
X196842734Y-71897117D01*
X196763517Y-71976334D01*
X196763513Y-71976340D01*
X196707498Y-72073360D01*
X196707497Y-72073363D01*
X196678500Y-72181582D01*
X196678500Y-72293618D01*
X196707497Y-72401837D01*
X196763515Y-72498863D01*
X196842737Y-72578085D01*
X196939763Y-72634103D01*
X197047982Y-72663100D01*
X197047984Y-72663100D01*
X197160016Y-72663100D01*
X197160018Y-72663100D01*
X197268237Y-72634103D01*
X197365263Y-72578085D01*
X197444485Y-72498863D01*
X197500503Y-72401837D01*
X197529500Y-72293618D01*
X197529500Y-72236814D01*
X197549061Y-72169968D01*
X197556310Y-72158641D01*
X197565667Y-72149285D01*
X197571844Y-72134370D01*
X197577764Y-72125123D01*
X197584538Y-72119230D01*
X197594526Y-72104284D01*
X197617539Y-72081273D01*
X197678863Y-72047791D01*
X197705216Y-72044958D01*
X197730713Y-72044958D01*
X197797752Y-72064643D01*
X197843507Y-72117447D01*
X197853451Y-72186605D01*
X197850490Y-72201040D01*
X197846900Y-72214440D01*
X197846900Y-72326476D01*
X197855094Y-72357055D01*
X197874285Y-72428680D01*
X197872622Y-72498530D01*
X197842191Y-72548454D01*
X197058226Y-73332421D01*
X197058223Y-73332424D01*
X197050456Y-73340192D01*
X196976192Y-73414456D01*
X196939755Y-73502419D01*
X196932069Y-73513450D01*
X196925949Y-73518364D01*
X196918018Y-73530234D01*
X196859514Y-73588738D01*
X196859513Y-73588740D01*
X196803498Y-73685760D01*
X196803497Y-73685763D01*
X196774500Y-73793982D01*
X196774500Y-73906018D01*
X196803497Y-74014237D01*
X196859515Y-74111263D01*
X196938737Y-74190485D01*
X197035763Y-74246503D01*
X197143982Y-74275500D01*
X197143984Y-74275500D01*
X197256016Y-74275500D01*
X197256018Y-74275500D01*
X197364237Y-74246503D01*
X197461263Y-74190485D01*
X197540485Y-74111263D01*
X197596503Y-74014237D01*
X197625500Y-73906018D01*
X197625500Y-73793982D01*
X197613137Y-73747844D01*
X198475000Y-73747844D01*
X198481401Y-73807372D01*
X198481403Y-73807379D01*
X198531645Y-73942086D01*
X198531649Y-73942093D01*
X198617809Y-74057187D01*
X198617812Y-74057190D01*
X198732906Y-74143350D01*
X198732913Y-74143354D01*
X198867620Y-74193596D01*
X198867627Y-74193598D01*
X198927155Y-74199999D01*
X198927172Y-74200000D01*
X198975000Y-74200000D01*
X198975000Y-73637500D01*
X198475000Y-73637500D01*
X198475000Y-73747844D01*
X197613137Y-73747844D01*
X197596503Y-73685763D01*
X197596502Y-73685762D01*
X197596502Y-73685760D01*
X197591037Y-73676296D01*
X197584469Y-73649231D01*
X197574737Y-73623137D01*
X197576344Y-73615746D01*
X197574561Y-73608396D01*
X197583669Y-73582073D01*
X197589589Y-73554864D01*
X197596091Y-73546177D01*
X197597410Y-73542368D01*
X197610733Y-73526618D01*
X198062035Y-73075316D01*
X198123357Y-73041834D01*
X198149715Y-73039000D01*
X198351000Y-73039000D01*
X198418039Y-73058685D01*
X198463794Y-73111489D01*
X198475000Y-73163000D01*
X198475000Y-73262500D01*
X199038500Y-73262500D01*
X199105539Y-73282185D01*
X199151294Y-73334989D01*
X199162500Y-73386500D01*
X199162500Y-73450000D01*
X199225500Y-73450000D01*
X199233996Y-73452494D01*
X199242756Y-73451207D01*
X199267002Y-73462186D01*
X199292539Y-73469685D01*
X199298336Y-73476375D01*
X199306404Y-73480029D01*
X199320867Y-73502377D01*
X199338294Y-73522489D01*
X199340553Y-73532796D01*
X199344365Y-73538686D01*
X199349331Y-73572840D01*
X199349499Y-73573605D01*
X199349500Y-73573918D01*
X199349500Y-73719748D01*
X199349972Y-73722122D01*
X199349999Y-73730520D01*
X199349983Y-73730574D01*
X199350000Y-73730915D01*
X199350000Y-74200000D01*
X199397828Y-74200000D01*
X199397844Y-74199999D01*
X199457372Y-74193598D01*
X199457379Y-74193596D01*
X199592086Y-74143354D01*
X199592093Y-74143350D01*
X199707186Y-74057191D01*
X199796840Y-73937429D01*
X199818851Y-73920951D01*
X199838642Y-73901859D01*
X199849447Y-73898048D01*
X199852774Y-73895558D01*
X199871915Y-73890123D01*
X199875822Y-73889346D01*
X199924192Y-73889349D01*
X199980249Y-73900500D01*
X199980252Y-73900500D01*
X200269750Y-73900500D01*
X200325808Y-73889349D01*
X200374192Y-73889349D01*
X200430249Y-73900500D01*
X200430252Y-73900500D01*
X200719750Y-73900500D01*
X200775808Y-73889349D01*
X200824192Y-73889349D01*
X200880249Y-73900500D01*
X200880252Y-73900500D01*
X201169750Y-73900500D01*
X201225808Y-73889349D01*
X201274192Y-73889349D01*
X201330249Y-73900500D01*
X201330252Y-73900500D01*
X201619750Y-73900500D01*
X201675808Y-73889349D01*
X201684142Y-73889348D01*
X201688943Y-73887460D01*
X201724186Y-73889348D01*
X201728078Y-73890122D01*
X201789991Y-73922504D01*
X201803159Y-73937429D01*
X201892813Y-74057190D01*
X202007906Y-74143350D01*
X202007913Y-74143354D01*
X202142620Y-74193596D01*
X202142627Y-74193598D01*
X202202155Y-74199999D01*
X202202172Y-74200000D01*
X202268426Y-74200000D01*
X202289152Y-74188682D01*
X202358843Y-74193664D01*
X202414778Y-74235533D01*
X202422901Y-74247846D01*
X202459515Y-74311263D01*
X202538737Y-74390485D01*
X202635763Y-74446503D01*
X202743982Y-74475500D01*
X202743984Y-74475500D01*
X202856016Y-74475500D01*
X202856018Y-74475500D01*
X202964237Y-74446503D01*
X203061263Y-74390485D01*
X203140485Y-74311263D01*
X203196503Y-74214237D01*
X203225500Y-74106018D01*
X203225500Y-73993982D01*
X203196503Y-73885763D01*
X203166612Y-73833990D01*
X203162461Y-73818501D01*
X203155023Y-73806926D01*
X203150000Y-73771991D01*
X203150000Y-73730915D01*
X203150500Y-73720747D01*
X203150500Y-73562362D01*
X203170185Y-73495323D01*
X203222989Y-73449568D01*
X203292147Y-73439624D01*
X203314867Y-73450000D01*
X203401000Y-73450000D01*
X203468039Y-73469685D01*
X203513794Y-73522489D01*
X203525000Y-73574000D01*
X203525000Y-74200000D01*
X203572828Y-74200000D01*
X203572844Y-74199999D01*
X203632372Y-74193598D01*
X203632379Y-74193596D01*
X203767086Y-74143354D01*
X203767093Y-74143350D01*
X203882187Y-74057190D01*
X203882190Y-74057187D01*
X203968350Y-73942093D01*
X203968354Y-73942086D01*
X204018596Y-73807379D01*
X204018598Y-73807372D01*
X204024999Y-73747844D01*
X204025000Y-73747827D01*
X204025000Y-73589000D01*
X204044685Y-73521961D01*
X204097489Y-73476206D01*
X204149000Y-73465000D01*
X205726512Y-73465000D01*
X205726513Y-73465000D01*
X205823544Y-73424808D01*
X206159485Y-73088867D01*
X206282445Y-72965908D01*
X206283463Y-72966926D01*
X206305483Y-72946302D01*
X206304815Y-72945432D01*
X206311255Y-72940489D01*
X206311263Y-72940485D01*
X206390485Y-72861263D01*
X206446503Y-72764237D01*
X206464854Y-72695747D01*
X206501217Y-72636089D01*
X206564064Y-72605559D01*
X206623632Y-72610136D01*
X206637347Y-72614680D01*
X206738351Y-72624999D01*
X207337500Y-72624999D01*
X207436640Y-72624999D01*
X207436654Y-72624998D01*
X207537652Y-72614680D01*
X207701300Y-72560453D01*
X207701311Y-72560448D01*
X207848034Y-72469947D01*
X207848038Y-72469944D01*
X207969944Y-72348038D01*
X207969947Y-72348034D01*
X208060448Y-72201311D01*
X208060453Y-72201300D01*
X208114680Y-72037652D01*
X208124999Y-71936654D01*
X208125000Y-71936641D01*
X208125000Y-71900000D01*
X207337500Y-71900000D01*
X207337500Y-72624999D01*
X206738351Y-72624999D01*
X206837500Y-72624998D01*
X206837500Y-71255000D01*
X206821466Y-71238966D01*
X206787981Y-71177643D01*
X206785147Y-71151285D01*
X206785147Y-70545000D01*
X207285147Y-70545000D01*
X207301181Y-70561034D01*
X207334666Y-70622357D01*
X207337500Y-70648715D01*
X207337500Y-71400000D01*
X208124999Y-71400000D01*
X208124999Y-71363360D01*
X208124998Y-71363345D01*
X208114680Y-71262347D01*
X208060453Y-71098699D01*
X208060448Y-71098688D01*
X207969947Y-70951965D01*
X207969944Y-70951961D01*
X207967247Y-70949264D01*
X207965987Y-70946956D01*
X207965467Y-70946299D01*
X207965579Y-70946210D01*
X207933762Y-70887941D01*
X207938746Y-70818249D01*
X207949390Y-70796485D01*
X208008097Y-70701307D01*
X208008100Y-70701300D01*
X208062327Y-70537652D01*
X208072646Y-70436654D01*
X208072647Y-70436641D01*
X208072647Y-70400000D01*
X207285147Y-70400000D01*
X207285147Y-70545000D01*
X206785147Y-70545000D01*
X206785147Y-69900000D01*
X207285147Y-69900000D01*
X208072646Y-69900000D01*
X208072646Y-69863360D01*
X208072645Y-69863345D01*
X208062327Y-69762347D01*
X208008100Y-69598699D01*
X208008095Y-69598688D01*
X207917594Y-69451965D01*
X207917591Y-69451961D01*
X207795685Y-69330055D01*
X207795681Y-69330052D01*
X207648958Y-69239551D01*
X207648947Y-69239546D01*
X207485299Y-69185319D01*
X207384301Y-69175000D01*
X207285147Y-69175000D01*
X207285147Y-69900000D01*
X206785147Y-69900000D01*
X206785147Y-69174999D01*
X206686007Y-69175000D01*
X206685991Y-69175001D01*
X206584994Y-69185319D01*
X206421346Y-69239546D01*
X206421335Y-69239551D01*
X206274612Y-69330052D01*
X206274608Y-69330055D01*
X206152702Y-69451961D01*
X206152699Y-69451965D01*
X206112665Y-69516868D01*
X206060716Y-69563592D01*
X205991753Y-69574812D01*
X205927672Y-69546967D01*
X205924027Y-69543635D01*
X205922324Y-69542329D01*
X205853815Y-69502776D01*
X205853810Y-69502773D01*
X205828333Y-69495946D01*
X205777382Y-69482294D01*
X205777380Y-69482294D01*
X205727908Y-69482294D01*
X205722708Y-69482185D01*
X205704322Y-69481413D01*
X205692496Y-69477275D01*
X205662903Y-69474500D01*
X205539620Y-69474500D01*
X205537023Y-69474391D01*
X205506304Y-69463953D01*
X205475184Y-69454815D01*
X205473419Y-69452779D01*
X205470868Y-69451912D01*
X205450666Y-69426520D01*
X205429429Y-69402011D01*
X205427996Y-69398025D01*
X205427368Y-69397236D01*
X205427233Y-69395902D01*
X205422448Y-69382593D01*
X205396503Y-69285763D01*
X205360843Y-69223999D01*
X205360344Y-69221942D01*
X205358861Y-69220431D01*
X205352148Y-69188156D01*
X205344371Y-69156100D01*
X205345064Y-69154097D01*
X205344633Y-69152025D01*
X205356435Y-69121241D01*
X205367223Y-69090073D01*
X205368887Y-69088763D01*
X205369646Y-69086786D01*
X205396229Y-69067262D01*
X205422145Y-69046882D01*
X205424790Y-69046286D01*
X205425960Y-69045427D01*
X205437988Y-69043313D01*
X205460515Y-69038240D01*
X205464364Y-69038000D01*
X205590256Y-69038000D01*
X205619849Y-69035225D01*
X205643911Y-69026805D01*
X205660994Y-69025740D01*
X205663691Y-69026352D01*
X205668710Y-69025500D01*
X205837760Y-69025500D01*
X205837762Y-69025500D01*
X205914189Y-69005021D01*
X205982711Y-68965460D01*
X206038660Y-68909511D01*
X206174189Y-68773982D01*
X213544500Y-68773982D01*
X213544500Y-68886018D01*
X213572094Y-68988999D01*
X213573497Y-68994236D01*
X213573498Y-68994239D01*
X213584337Y-69013013D01*
X213629515Y-69091263D01*
X213708737Y-69170485D01*
X213805763Y-69226503D01*
X213913982Y-69255500D01*
X213913984Y-69255500D01*
X214026016Y-69255500D01*
X214026018Y-69255500D01*
X214134237Y-69226503D01*
X214231263Y-69170485D01*
X214310485Y-69091263D01*
X214366503Y-68994237D01*
X214395500Y-68886018D01*
X214395500Y-68773982D01*
X214366503Y-68665763D01*
X214310485Y-68568737D01*
X214231263Y-68489515D01*
X214134237Y-68433497D01*
X214026018Y-68404500D01*
X213913982Y-68404500D01*
X213805763Y-68433497D01*
X213805760Y-68433498D01*
X213708740Y-68489513D01*
X213708734Y-68489517D01*
X213629517Y-68568734D01*
X213629513Y-68568740D01*
X213573498Y-68665760D01*
X213573497Y-68665763D01*
X213544500Y-68773982D01*
X206174189Y-68773982D01*
X207300160Y-67648011D01*
X207307952Y-67634515D01*
X207339721Y-67579489D01*
X207360200Y-67503062D01*
X207360200Y-66432238D01*
X207360200Y-65338938D01*
X207339721Y-65262511D01*
X207339002Y-65261265D01*
X207300164Y-65193995D01*
X207300158Y-65193987D01*
X206908219Y-64802048D01*
X206874734Y-64740725D01*
X206871900Y-64714367D01*
X206871900Y-64217844D01*
X208300000Y-64217844D01*
X208306401Y-64277372D01*
X208306403Y-64277379D01*
X208356645Y-64412086D01*
X208356649Y-64412093D01*
X208442809Y-64527187D01*
X208442812Y-64527190D01*
X208557906Y-64613350D01*
X208557913Y-64613354D01*
X208602645Y-64630038D01*
X208658579Y-64671909D01*
X208682996Y-64737373D01*
X208668145Y-64805646D01*
X208661372Y-64814718D01*
X208662233Y-64815293D01*
X208611132Y-64891769D01*
X208611131Y-64891770D01*
X208599500Y-64950247D01*
X208599500Y-66089752D01*
X208611131Y-66148229D01*
X208611132Y-66148230D01*
X208655447Y-66214552D01*
X208721769Y-66258867D01*
X208721770Y-66258868D01*
X208780247Y-66270499D01*
X208780250Y-66270500D01*
X208780252Y-66270500D01*
X209062000Y-66270500D01*
X209070685Y-66273050D01*
X209079647Y-66271762D01*
X209103687Y-66282740D01*
X209129039Y-66290185D01*
X209134966Y-66297025D01*
X209143203Y-66300787D01*
X209157492Y-66323021D01*
X209174794Y-66342989D01*
X209177081Y-66353503D01*
X209180977Y-66359565D01*
X209186000Y-66394500D01*
X209186000Y-66458092D01*
X209166315Y-66525131D01*
X209113511Y-66570886D01*
X209094095Y-66577866D01*
X209035767Y-66593495D01*
X209035760Y-66593498D01*
X208938740Y-66649513D01*
X208938734Y-66649517D01*
X208859517Y-66728734D01*
X208859513Y-66728740D01*
X208803498Y-66825760D01*
X208803497Y-66825763D01*
X208774500Y-66933982D01*
X208774500Y-67046018D01*
X208803497Y-67154237D01*
X208859515Y-67251263D01*
X208938737Y-67330485D01*
X209035763Y-67386503D01*
X209143982Y-67415500D01*
X209143984Y-67415500D01*
X209256016Y-67415500D01*
X209256018Y-67415500D01*
X209364237Y-67386503D01*
X209461263Y-67330485D01*
X209540485Y-67251263D01*
X209596503Y-67154237D01*
X209625500Y-67046018D01*
X209625500Y-66989214D01*
X209645185Y-66922175D01*
X209661821Y-66901531D01*
X209664976Y-66898376D01*
X209673808Y-66889544D01*
X209679861Y-66874932D01*
X209680824Y-66872608D01*
X209713999Y-66792515D01*
X209714000Y-66792513D01*
X209714000Y-66394500D01*
X209733685Y-66327461D01*
X209786489Y-66281706D01*
X209838000Y-66270500D01*
X210119750Y-66270500D01*
X210119751Y-66270499D01*
X210134568Y-66267552D01*
X210178229Y-66258868D01*
X210178229Y-66258867D01*
X210178231Y-66258867D01*
X210244552Y-66214552D01*
X210288867Y-66148231D01*
X210288867Y-66148229D01*
X210288868Y-66148229D01*
X210300499Y-66089752D01*
X210300500Y-66089750D01*
X210300500Y-64950249D01*
X210300499Y-64950247D01*
X210288868Y-64891770D01*
X210288867Y-64891769D01*
X210237767Y-64815293D01*
X210241487Y-64812806D01*
X210219521Y-64772578D01*
X210224505Y-64702886D01*
X210266377Y-64646953D01*
X210297355Y-64630038D01*
X210342084Y-64613355D01*
X210342093Y-64613350D01*
X210457187Y-64527190D01*
X210457190Y-64527187D01*
X210543350Y-64412093D01*
X210543354Y-64412086D01*
X210593596Y-64277379D01*
X210593598Y-64277372D01*
X210599999Y-64217844D01*
X210600000Y-64217827D01*
X210600000Y-63870000D01*
X208300000Y-63870000D01*
X208300000Y-64217844D01*
X206871900Y-64217844D01*
X206871900Y-64174939D01*
X206869125Y-64145350D01*
X206825515Y-64020723D01*
X206747112Y-63914491D01*
X206747113Y-63914491D01*
X206747111Y-63914489D01*
X206640875Y-63836084D01*
X206592798Y-63819261D01*
X206516248Y-63792474D01*
X206516249Y-63792474D01*
X206486660Y-63789700D01*
X206486656Y-63789700D01*
X205806144Y-63789700D01*
X205806140Y-63789700D01*
X205776551Y-63792474D01*
X205776549Y-63792474D01*
X205774932Y-63793041D01*
X205770545Y-63793786D01*
X205769178Y-63794085D01*
X205769164Y-63794021D01*
X205733977Y-63800000D01*
X204808824Y-63800000D01*
X204773639Y-63794021D01*
X204773625Y-63794086D01*
X204772243Y-63793784D01*
X204767869Y-63793041D01*
X204766256Y-63792476D01*
X204766244Y-63792474D01*
X204736660Y-63789700D01*
X204736656Y-63789700D01*
X204056144Y-63789700D01*
X204056140Y-63789700D01*
X204026550Y-63792474D01*
X203901923Y-63836084D01*
X203795689Y-63914488D01*
X203795688Y-63914489D01*
X203717284Y-64020723D01*
X203673674Y-64145350D01*
X203670900Y-64174939D01*
X203670900Y-64755466D01*
X203671035Y-64758352D01*
X203669915Y-64758404D01*
X203664984Y-64783722D01*
X203661559Y-64813766D01*
X203658144Y-64818841D01*
X203657409Y-64822616D01*
X203643356Y-64844004D01*
X203639405Y-64848842D01*
X203637256Y-64850992D01*
X203562992Y-64925256D01*
X203548552Y-64960116D01*
X203537019Y-64974242D01*
X203522627Y-64984097D01*
X203511684Y-64997677D01*
X203494401Y-65003428D01*
X203479372Y-65013721D01*
X203461937Y-65014231D01*
X203445389Y-65019739D01*
X203427739Y-65015233D01*
X203409532Y-65015767D01*
X203394589Y-65006770D01*
X203377690Y-65002457D01*
X203365278Y-64989125D01*
X203349673Y-64979730D01*
X203341966Y-64964083D01*
X203330082Y-64951318D01*
X203321195Y-64927918D01*
X203296503Y-64835763D01*
X203240485Y-64738737D01*
X203161263Y-64659515D01*
X203081303Y-64613350D01*
X203064239Y-64603498D01*
X203064238Y-64603497D01*
X203064237Y-64603497D01*
X202956018Y-64574500D01*
X202843982Y-64574500D01*
X202735763Y-64603497D01*
X202735760Y-64603498D01*
X202638740Y-64659513D01*
X202638734Y-64659517D01*
X202559517Y-64738734D01*
X202559513Y-64738740D01*
X202503498Y-64835760D01*
X202503497Y-64835763D01*
X202491702Y-64879782D01*
X202510278Y-63022155D01*
X208300000Y-63022155D01*
X208300000Y-63370000D01*
X209200000Y-63370000D01*
X209700000Y-63370000D01*
X210600000Y-63370000D01*
X210600000Y-63050247D01*
X210899500Y-63050247D01*
X210899500Y-64189752D01*
X210911131Y-64248229D01*
X210911132Y-64248230D01*
X210955447Y-64314552D01*
X211021769Y-64358867D01*
X211021770Y-64358868D01*
X211080247Y-64370499D01*
X211080250Y-64370500D01*
X211080252Y-64370500D01*
X211362000Y-64370500D01*
X211370685Y-64373050D01*
X211379647Y-64371762D01*
X211403687Y-64382740D01*
X211429039Y-64390185D01*
X211434966Y-64397025D01*
X211443203Y-64400787D01*
X211457492Y-64423021D01*
X211474794Y-64442989D01*
X211477081Y-64453503D01*
X211480977Y-64459565D01*
X211486000Y-64494500D01*
X211486000Y-64645500D01*
X211466315Y-64712539D01*
X211413511Y-64758294D01*
X211362000Y-64769500D01*
X211080247Y-64769500D01*
X211021770Y-64781131D01*
X211021769Y-64781132D01*
X210955447Y-64825447D01*
X210911132Y-64891769D01*
X210911131Y-64891770D01*
X210899500Y-64950247D01*
X210899500Y-66089752D01*
X210911131Y-66148229D01*
X210911132Y-66148230D01*
X210955447Y-66214552D01*
X211021769Y-66258867D01*
X211021770Y-66258868D01*
X211080247Y-66270499D01*
X211080250Y-66270500D01*
X211080252Y-66270500D01*
X211362000Y-66270500D01*
X211429039Y-66290185D01*
X211474794Y-66342989D01*
X211486000Y-66394500D01*
X211486000Y-66821769D01*
X211466315Y-66888808D01*
X211424000Y-66929156D01*
X211388740Y-66949513D01*
X211388734Y-66949517D01*
X211309517Y-67028734D01*
X211309513Y-67028740D01*
X211253498Y-67125760D01*
X211253497Y-67125763D01*
X211224500Y-67233982D01*
X211224500Y-67346018D01*
X211253497Y-67454237D01*
X211309515Y-67551263D01*
X211388737Y-67630485D01*
X211485763Y-67686503D01*
X211593982Y-67715500D01*
X211593984Y-67715500D01*
X211706016Y-67715500D01*
X211706018Y-67715500D01*
X211814237Y-67686503D01*
X211911263Y-67630485D01*
X211917766Y-67623982D01*
X213524500Y-67623982D01*
X213524500Y-67736018D01*
X213553497Y-67844237D01*
X213609515Y-67941263D01*
X213688737Y-68020485D01*
X213785763Y-68076503D01*
X213893982Y-68105500D01*
X213893984Y-68105500D01*
X214006016Y-68105500D01*
X214006018Y-68105500D01*
X214114237Y-68076503D01*
X214211263Y-68020485D01*
X214287766Y-67943982D01*
X217974500Y-67943982D01*
X217974500Y-68056018D01*
X218003497Y-68164237D01*
X218059515Y-68261263D01*
X218138737Y-68340485D01*
X218235763Y-68396503D01*
X218343982Y-68425500D01*
X218343984Y-68425500D01*
X218456016Y-68425500D01*
X218456018Y-68425500D01*
X218564237Y-68396503D01*
X218661263Y-68340485D01*
X218740485Y-68261263D01*
X218796503Y-68164237D01*
X218825500Y-68056018D01*
X218825500Y-67943982D01*
X218796503Y-67835763D01*
X218740485Y-67738737D01*
X218661263Y-67659515D01*
X218588001Y-67617217D01*
X218564239Y-67603498D01*
X218564238Y-67603497D01*
X218564237Y-67603497D01*
X218456018Y-67574500D01*
X218343982Y-67574500D01*
X218235763Y-67603497D01*
X218235760Y-67603498D01*
X218138740Y-67659513D01*
X218138734Y-67659517D01*
X218059517Y-67738734D01*
X218059513Y-67738740D01*
X218003498Y-67835760D01*
X218003497Y-67835763D01*
X217974500Y-67943982D01*
X214287766Y-67943982D01*
X214290485Y-67941263D01*
X214346503Y-67844237D01*
X214375500Y-67736018D01*
X214375500Y-67623982D01*
X214346503Y-67515763D01*
X214290485Y-67418737D01*
X214211263Y-67339515D01*
X214114237Y-67283497D01*
X214006018Y-67254500D01*
X213893982Y-67254500D01*
X213785763Y-67283497D01*
X213785760Y-67283498D01*
X213688740Y-67339513D01*
X213688734Y-67339517D01*
X213609517Y-67418734D01*
X213609513Y-67418740D01*
X213553498Y-67515760D01*
X213553497Y-67515763D01*
X213524500Y-67623982D01*
X211917766Y-67623982D01*
X211990485Y-67551263D01*
X212046503Y-67454237D01*
X212075500Y-67346018D01*
X212075500Y-67233982D01*
X212046503Y-67125763D01*
X212030611Y-67098238D01*
X212014000Y-67036240D01*
X212014000Y-66493982D01*
X213474500Y-66493982D01*
X213474500Y-66606018D01*
X213497899Y-66693342D01*
X213503497Y-66714236D01*
X213503498Y-66714239D01*
X213511870Y-66728740D01*
X213559515Y-66811263D01*
X213638737Y-66890485D01*
X213735763Y-66946503D01*
X213843982Y-66975500D01*
X213843984Y-66975500D01*
X213956016Y-66975500D01*
X213956018Y-66975500D01*
X214064237Y-66946503D01*
X214161263Y-66890485D01*
X214240485Y-66811263D01*
X214296503Y-66714237D01*
X214325500Y-66606018D01*
X214325500Y-66493982D01*
X214296503Y-66385763D01*
X214240485Y-66288737D01*
X214161263Y-66209515D01*
X214064237Y-66153497D01*
X213956018Y-66124500D01*
X213843982Y-66124500D01*
X213735763Y-66153497D01*
X213735760Y-66153498D01*
X213638740Y-66209513D01*
X213638734Y-66209517D01*
X213559517Y-66288734D01*
X213559513Y-66288740D01*
X213503498Y-66385760D01*
X213503497Y-66385763D01*
X213474500Y-66493982D01*
X212014000Y-66493982D01*
X212014000Y-66394500D01*
X212033685Y-66327461D01*
X212086489Y-66281706D01*
X212138000Y-66270500D01*
X212419750Y-66270500D01*
X212419751Y-66270499D01*
X212434568Y-66267552D01*
X212478229Y-66258868D01*
X212478229Y-66258867D01*
X212478231Y-66258867D01*
X212544552Y-66214552D01*
X212588867Y-66148231D01*
X212588867Y-66148229D01*
X212588868Y-66148229D01*
X212599658Y-66093982D01*
X215449500Y-66093982D01*
X215449500Y-66206018D01*
X215478497Y-66314237D01*
X215534515Y-66411263D01*
X215613737Y-66490485D01*
X215710763Y-66546503D01*
X215818982Y-66575500D01*
X215818984Y-66575500D01*
X215931016Y-66575500D01*
X215931018Y-66575500D01*
X216039237Y-66546503D01*
X216136263Y-66490485D01*
X216215485Y-66411263D01*
X216271503Y-66314237D01*
X216300500Y-66206018D01*
X216300500Y-66093982D01*
X216280404Y-66018982D01*
X218049500Y-66018982D01*
X218049500Y-66131018D01*
X218078497Y-66239237D01*
X218134515Y-66336263D01*
X218213737Y-66415485D01*
X218310763Y-66471503D01*
X218418982Y-66500500D01*
X218418984Y-66500500D01*
X218531016Y-66500500D01*
X218531018Y-66500500D01*
X218639237Y-66471503D01*
X218736263Y-66415485D01*
X218815485Y-66336263D01*
X218871503Y-66239237D01*
X218900500Y-66131018D01*
X218900500Y-66018982D01*
X218871503Y-65910763D01*
X218815485Y-65813737D01*
X218736263Y-65734515D01*
X218639237Y-65678497D01*
X218531018Y-65649500D01*
X218418982Y-65649500D01*
X218310763Y-65678497D01*
X218310760Y-65678498D01*
X218213740Y-65734513D01*
X218213734Y-65734517D01*
X218134517Y-65813734D01*
X218134513Y-65813740D01*
X218078498Y-65910760D01*
X218078497Y-65910763D01*
X218049500Y-66018982D01*
X216280404Y-66018982D01*
X216271503Y-65985763D01*
X216215485Y-65888737D01*
X216136263Y-65809515D01*
X216071579Y-65772169D01*
X216039239Y-65753498D01*
X216039238Y-65753497D01*
X216039237Y-65753497D01*
X215931018Y-65724500D01*
X215818982Y-65724500D01*
X215710763Y-65753497D01*
X215710760Y-65753498D01*
X215613740Y-65809513D01*
X215613734Y-65809517D01*
X215534517Y-65888734D01*
X215534513Y-65888740D01*
X215478498Y-65985760D01*
X215478497Y-65985763D01*
X215449500Y-66093982D01*
X212599658Y-66093982D01*
X212600499Y-66089752D01*
X212600500Y-66089750D01*
X212600500Y-64950249D01*
X212600499Y-64950247D01*
X212588868Y-64891770D01*
X212588867Y-64891769D01*
X212544552Y-64825447D01*
X212478230Y-64781132D01*
X212478229Y-64781131D01*
X212419752Y-64769500D01*
X212419748Y-64769500D01*
X212138000Y-64769500D01*
X212129314Y-64766949D01*
X212120353Y-64768238D01*
X212096312Y-64757259D01*
X212070961Y-64749815D01*
X212065033Y-64742974D01*
X212056797Y-64739213D01*
X212042507Y-64716978D01*
X212025206Y-64697011D01*
X212022918Y-64686496D01*
X212019023Y-64680435D01*
X212014000Y-64645500D01*
X212014000Y-64494500D01*
X212014152Y-64493982D01*
X213524500Y-64493982D01*
X213524500Y-64606018D01*
X213549683Y-64700000D01*
X213553497Y-64714236D01*
X213553498Y-64714239D01*
X213566855Y-64737373D01*
X213609515Y-64811263D01*
X213609517Y-64811265D01*
X213660571Y-64862319D01*
X213694056Y-64923642D01*
X213689072Y-64993334D01*
X213660571Y-65037681D01*
X213609517Y-65088734D01*
X213609513Y-65088740D01*
X213553498Y-65185760D01*
X213553497Y-65185763D01*
X213524500Y-65293982D01*
X213524500Y-65406018D01*
X213553497Y-65514237D01*
X213609515Y-65611263D01*
X213688737Y-65690485D01*
X213785763Y-65746503D01*
X213893982Y-65775500D01*
X213893984Y-65775500D01*
X214006016Y-65775500D01*
X214006018Y-65775500D01*
X214114237Y-65746503D01*
X214211263Y-65690485D01*
X214290485Y-65611263D01*
X214346503Y-65514237D01*
X214375500Y-65406018D01*
X214375500Y-65293982D01*
X214346503Y-65185763D01*
X214290485Y-65088737D01*
X214239429Y-65037681D01*
X214205944Y-64976358D01*
X214210928Y-64906666D01*
X214239429Y-64862319D01*
X214257744Y-64844004D01*
X214290485Y-64811263D01*
X214346503Y-64714237D01*
X214375500Y-64606018D01*
X214375500Y-64493982D01*
X214346503Y-64385763D01*
X214290485Y-64288737D01*
X214211263Y-64209515D01*
X214114237Y-64153497D01*
X214006018Y-64124500D01*
X213893982Y-64124500D01*
X213785763Y-64153497D01*
X213785760Y-64153498D01*
X213688740Y-64209513D01*
X213688734Y-64209517D01*
X213609517Y-64288734D01*
X213609513Y-64288740D01*
X213553498Y-64385760D01*
X213553497Y-64385763D01*
X213524500Y-64493982D01*
X212014152Y-64493982D01*
X212033685Y-64427461D01*
X212086489Y-64381706D01*
X212138000Y-64370500D01*
X212419750Y-64370500D01*
X212419751Y-64370499D01*
X212426421Y-64369172D01*
X212451233Y-64364238D01*
X212478229Y-64358868D01*
X212478229Y-64358867D01*
X212478231Y-64358867D01*
X212544552Y-64314552D01*
X212588867Y-64248231D01*
X212588867Y-64248229D01*
X212588868Y-64248229D01*
X212600499Y-64189752D01*
X212600500Y-64189750D01*
X212600500Y-63050249D01*
X212600499Y-63050247D01*
X212588868Y-62991770D01*
X212588867Y-62991769D01*
X212544552Y-62925447D01*
X212478230Y-62881132D01*
X212478229Y-62881131D01*
X212419752Y-62869500D01*
X212419748Y-62869500D01*
X211080252Y-62869500D01*
X211080247Y-62869500D01*
X211021770Y-62881131D01*
X211021769Y-62881132D01*
X210955447Y-62925447D01*
X210911132Y-62991769D01*
X210911131Y-62991770D01*
X210899500Y-63050247D01*
X210600000Y-63050247D01*
X210600000Y-63022172D01*
X210599999Y-63022155D01*
X210593598Y-62962627D01*
X210593596Y-62962620D01*
X210543354Y-62827913D01*
X210543350Y-62827906D01*
X210457190Y-62712812D01*
X210457187Y-62712809D01*
X210342093Y-62626649D01*
X210342086Y-62626645D01*
X210207379Y-62576403D01*
X210207372Y-62576401D01*
X210147844Y-62570000D01*
X209700000Y-62570000D01*
X209700000Y-63370000D01*
X209200000Y-63370000D01*
X209200000Y-62570000D01*
X208752155Y-62570000D01*
X208692627Y-62576401D01*
X208692620Y-62576403D01*
X208557913Y-62626645D01*
X208557906Y-62626649D01*
X208442812Y-62712809D01*
X208442809Y-62712812D01*
X208356649Y-62827906D01*
X208356645Y-62827913D01*
X208306403Y-62962620D01*
X208306401Y-62962627D01*
X208300000Y-63022155D01*
X202510278Y-63022155D01*
X202529250Y-61125000D01*
X199428573Y-61125000D01*
X196824600Y-61137800D01*
X196975000Y-68050000D01*
X197620115Y-68154613D01*
X197597590Y-68238682D01*
X197597590Y-68350718D01*
X197626587Y-68458937D01*
X197682605Y-68555963D01*
X197761827Y-68635185D01*
X197858853Y-68691203D01*
X197967072Y-68720200D01*
X197967074Y-68720200D01*
X198079105Y-68720200D01*
X198079108Y-68720200D01*
X198163467Y-68697596D01*
X198233313Y-68699259D01*
X198283238Y-68729690D01*
X198428092Y-68874544D01*
X198502356Y-68948808D01*
X198599387Y-68989000D01*
X198650500Y-68989000D01*
X198659185Y-68991550D01*
X198668147Y-68990262D01*
X198692187Y-69001240D01*
X198717539Y-69008685D01*
X198723466Y-69015525D01*
X198731703Y-69019287D01*
X198745992Y-69041521D01*
X198763294Y-69061489D01*
X198765581Y-69072003D01*
X198769477Y-69078065D01*
X198774500Y-69113000D01*
X198774500Y-69148762D01*
X198754815Y-69215801D01*
X198702011Y-69261556D01*
X198632853Y-69271500D01*
X198618408Y-69268537D01*
X198566019Y-69254500D01*
X198566018Y-69254500D01*
X198453982Y-69254500D01*
X198345763Y-69283497D01*
X198345760Y-69283498D01*
X198248740Y-69339513D01*
X198248734Y-69339517D01*
X198169517Y-69418734D01*
X198169513Y-69418740D01*
X198113498Y-69515760D01*
X198113497Y-69515763D01*
X198084500Y-69623982D01*
X198084500Y-69736018D01*
X198113497Y-69844237D01*
X198169515Y-69941263D01*
X198248737Y-70020485D01*
X198326510Y-70065387D01*
X198343761Y-70083479D01*
X198363775Y-70098461D01*
X198367456Y-70108331D01*
X198374725Y-70115954D01*
X198379456Y-70140499D01*
X198388194Y-70163924D01*
X198385955Y-70174217D01*
X198387949Y-70184561D01*
X198378656Y-70207771D01*
X198373344Y-70232198D01*
X198363743Y-70245023D01*
X198361981Y-70249426D01*
X198352194Y-70260453D01*
X198335469Y-70277179D01*
X198274147Y-70310665D01*
X198247785Y-70313500D01*
X198190982Y-70313500D01*
X198082763Y-70342497D01*
X198082760Y-70342498D01*
X197985740Y-70398513D01*
X197985734Y-70398517D01*
X197906517Y-70477734D01*
X197906513Y-70477740D01*
X197850498Y-70574760D01*
X197850497Y-70574763D01*
X197821500Y-70682982D01*
X197821500Y-70795018D01*
X197846399Y-70887941D01*
X197850497Y-70903236D01*
X197850498Y-70903239D01*
X197891929Y-70975000D01*
X197893360Y-70980901D01*
X197897336Y-70985489D01*
X197901500Y-71014455D01*
X197908402Y-71042901D01*
X197906416Y-71048638D01*
X197907280Y-71054647D01*
X197895121Y-71081270D01*
X197885549Y-71108927D01*
X197880777Y-71112679D01*
X197878255Y-71118203D01*
X197853632Y-71134026D01*
X197830628Y-71152118D01*
X197823277Y-71153534D01*
X197819477Y-71155977D01*
X197784542Y-71161000D01*
X197551900Y-71161000D01*
X197484861Y-71141315D01*
X197439106Y-71088511D01*
X197427900Y-71037000D01*
X197427900Y-71013184D01*
X197427900Y-71013182D01*
X197398903Y-70904963D01*
X197342885Y-70807937D01*
X197263663Y-70728715D01*
X197166637Y-70672697D01*
X197058418Y-70643700D01*
X196946382Y-70643700D01*
X196838163Y-70672697D01*
X196838160Y-70672698D01*
X196741140Y-70728713D01*
X196741134Y-70728717D01*
X196661917Y-70807934D01*
X196661913Y-70807940D01*
X196605898Y-70904960D01*
X196605897Y-70904963D01*
X196576900Y-71013182D01*
X194528566Y-71013182D01*
X194530485Y-71011263D01*
X194586503Y-70914237D01*
X194615500Y-70806018D01*
X194615500Y-70693982D01*
X194586503Y-70585763D01*
X194530485Y-70488737D01*
X194451263Y-70409515D01*
X194386579Y-70372169D01*
X194354239Y-70353498D01*
X194354238Y-70353497D01*
X194354237Y-70353497D01*
X194246018Y-70324500D01*
X194133982Y-70324500D01*
X194025763Y-70353497D01*
X194025760Y-70353498D01*
X193940217Y-70402887D01*
X193878217Y-70419500D01*
X192492610Y-70419500D01*
X192425571Y-70399815D01*
X192404929Y-70383181D01*
X192401265Y-70379517D01*
X192401263Y-70379515D01*
X192322616Y-70334108D01*
X192304239Y-70323498D01*
X192304238Y-70323497D01*
X192304237Y-70323497D01*
X192196018Y-70294500D01*
X192083982Y-70294500D01*
X191975763Y-70323497D01*
X191975760Y-70323498D01*
X191878740Y-70379513D01*
X191878734Y-70379517D01*
X191799517Y-70458734D01*
X191799513Y-70458740D01*
X191743498Y-70555760D01*
X191743497Y-70555763D01*
X191714500Y-70663982D01*
X189630141Y-70663982D01*
X189606503Y-70575763D01*
X189550485Y-70478737D01*
X189471263Y-70399515D01*
X189374237Y-70343497D01*
X189266018Y-70314500D01*
X189153982Y-70314500D01*
X189045763Y-70343497D01*
X189045760Y-70343498D01*
X188948740Y-70399513D01*
X188948734Y-70399517D01*
X188918181Y-70430071D01*
X188856858Y-70463556D01*
X188787166Y-70458572D01*
X188731233Y-70416700D01*
X188706816Y-70351236D01*
X188706500Y-70342390D01*
X188706500Y-69983982D01*
X190684500Y-69983982D01*
X190684500Y-70096018D01*
X190713497Y-70204237D01*
X190769515Y-70301263D01*
X190848737Y-70380485D01*
X190945763Y-70436503D01*
X191053982Y-70465500D01*
X191053984Y-70465500D01*
X191166016Y-70465500D01*
X191166018Y-70465500D01*
X191274237Y-70436503D01*
X191371263Y-70380485D01*
X191450485Y-70301263D01*
X191506503Y-70204237D01*
X191535500Y-70096018D01*
X191535500Y-69983982D01*
X191535232Y-69982982D01*
X195174500Y-69982982D01*
X195174500Y-70095018D01*
X195198481Y-70184515D01*
X195203497Y-70203236D01*
X195203498Y-70203239D01*
X195206115Y-70207771D01*
X195259515Y-70300263D01*
X195338737Y-70379485D01*
X195435763Y-70435503D01*
X195543982Y-70464500D01*
X195543984Y-70464500D01*
X195656016Y-70464500D01*
X195656018Y-70464500D01*
X195764237Y-70435503D01*
X195861263Y-70379485D01*
X195940485Y-70300263D01*
X195996503Y-70203237D01*
X196025500Y-70095018D01*
X196025500Y-69982982D01*
X195996503Y-69874763D01*
X195940485Y-69777737D01*
X195861263Y-69698515D01*
X195764237Y-69642497D01*
X195656018Y-69613500D01*
X195543982Y-69613500D01*
X195435763Y-69642497D01*
X195435760Y-69642498D01*
X195338740Y-69698513D01*
X195338734Y-69698517D01*
X195259517Y-69777734D01*
X195259513Y-69777740D01*
X195203498Y-69874760D01*
X195203497Y-69874763D01*
X195174500Y-69982982D01*
X191535232Y-69982982D01*
X191506503Y-69875763D01*
X191450485Y-69778737D01*
X191371263Y-69699515D01*
X191274237Y-69643497D01*
X191166018Y-69614500D01*
X191053982Y-69614500D01*
X190945763Y-69643497D01*
X190945760Y-69643498D01*
X190848740Y-69699513D01*
X190848734Y-69699517D01*
X190769517Y-69778734D01*
X190769513Y-69778740D01*
X190713498Y-69875760D01*
X190713497Y-69875763D01*
X190684500Y-69983982D01*
X188706500Y-69983982D01*
X188706500Y-69473982D01*
X191714500Y-69473982D01*
X191714500Y-69586018D01*
X191743497Y-69694237D01*
X191799515Y-69791263D01*
X191878737Y-69870485D01*
X191975763Y-69926503D01*
X192083982Y-69955500D01*
X192083984Y-69955500D01*
X192196016Y-69955500D01*
X192196018Y-69955500D01*
X192304237Y-69926503D01*
X192401263Y-69870485D01*
X192480485Y-69791263D01*
X192536503Y-69694237D01*
X192565500Y-69586018D01*
X192565500Y-69473982D01*
X192536503Y-69365763D01*
X192480485Y-69268737D01*
X192401263Y-69189515D01*
X192304237Y-69133497D01*
X192196018Y-69104500D01*
X192083982Y-69104500D01*
X191975763Y-69133497D01*
X191975760Y-69133498D01*
X191878740Y-69189513D01*
X191878734Y-69189517D01*
X191799517Y-69268734D01*
X191799513Y-69268740D01*
X191743498Y-69365760D01*
X191743497Y-69365763D01*
X191714500Y-69473982D01*
X188706500Y-69473982D01*
X188706500Y-69167610D01*
X188726185Y-69100571D01*
X188778989Y-69054816D01*
X188848147Y-69044872D01*
X188911703Y-69073897D01*
X188918181Y-69079929D01*
X188948737Y-69110485D01*
X189045763Y-69166503D01*
X189153982Y-69195500D01*
X189153984Y-69195500D01*
X189266016Y-69195500D01*
X189266018Y-69195500D01*
X189374237Y-69166503D01*
X189471263Y-69110485D01*
X189550485Y-69031263D01*
X189606503Y-68934237D01*
X189635500Y-68826018D01*
X189635500Y-68713982D01*
X189606503Y-68605763D01*
X189550485Y-68508737D01*
X189501929Y-68460181D01*
X189497916Y-68452832D01*
X189491158Y-68447887D01*
X189481420Y-68422621D01*
X189468444Y-68398858D01*
X189469041Y-68390505D01*
X189466030Y-68382692D01*
X189471496Y-68356174D01*
X189473428Y-68329166D01*
X189478751Y-68320782D01*
X190684100Y-68320782D01*
X190684100Y-68432818D01*
X190705798Y-68513794D01*
X190713097Y-68541036D01*
X190713098Y-68541039D01*
X190728087Y-68567000D01*
X190769115Y-68638063D01*
X190848337Y-68717285D01*
X190945363Y-68773303D01*
X191053582Y-68802300D01*
X191053584Y-68802300D01*
X191165616Y-68802300D01*
X191165618Y-68802300D01*
X191273837Y-68773303D01*
X191370863Y-68717285D01*
X191450085Y-68638063D01*
X191506103Y-68541037D01*
X191532109Y-68443982D01*
X193574500Y-68443982D01*
X193574500Y-68556018D01*
X193596545Y-68638289D01*
X193603497Y-68664236D01*
X193603498Y-68664239D01*
X193653301Y-68750501D01*
X193669774Y-68818402D01*
X193653302Y-68874500D01*
X193603497Y-68960765D01*
X193603497Y-68960766D01*
X193574500Y-69068985D01*
X193574500Y-69181021D01*
X193603497Y-69289240D01*
X193659515Y-69386266D01*
X193738737Y-69465488D01*
X193835763Y-69521506D01*
X193943982Y-69550503D01*
X193943984Y-69550503D01*
X194056016Y-69550503D01*
X194056018Y-69550503D01*
X194164237Y-69521506D01*
X194261263Y-69465488D01*
X194340485Y-69386266D01*
X194396503Y-69289240D01*
X194425500Y-69181021D01*
X194425500Y-69068985D01*
X194396503Y-68960766D01*
X194346698Y-68874501D01*
X194330225Y-68806601D01*
X194346698Y-68750501D01*
X194353490Y-68738737D01*
X194396503Y-68664237D01*
X194425500Y-68556018D01*
X194425500Y-68443982D01*
X194396503Y-68335763D01*
X194340485Y-68238737D01*
X194264781Y-68163033D01*
X194231296Y-68101710D01*
X194236280Y-68032018D01*
X194278152Y-67976085D01*
X194320367Y-67955578D01*
X194354237Y-67946503D01*
X194451263Y-67890485D01*
X194530485Y-67811263D01*
X194586503Y-67714237D01*
X194615500Y-67606018D01*
X194615500Y-67493982D01*
X194586503Y-67385763D01*
X194530485Y-67288737D01*
X194451263Y-67209515D01*
X194367461Y-67161132D01*
X194354239Y-67153498D01*
X194354238Y-67153497D01*
X194354237Y-67153497D01*
X194246018Y-67124500D01*
X194133982Y-67124500D01*
X194025763Y-67153497D01*
X194025760Y-67153498D01*
X193928740Y-67209513D01*
X193928734Y-67209517D01*
X193849517Y-67288734D01*
X193849513Y-67288740D01*
X193793498Y-67385760D01*
X193793497Y-67385763D01*
X193764500Y-67493982D01*
X193764500Y-67606018D01*
X193789699Y-67700060D01*
X193793497Y-67714236D01*
X193793498Y-67714239D01*
X193794226Y-67715500D01*
X193849515Y-67811263D01*
X193849517Y-67811265D01*
X193925218Y-67886966D01*
X193958703Y-67948289D01*
X193953719Y-68017981D01*
X193911847Y-68073914D01*
X193869632Y-68094421D01*
X193835767Y-68103495D01*
X193835760Y-68103498D01*
X193738740Y-68159513D01*
X193738734Y-68159517D01*
X193659517Y-68238734D01*
X193659513Y-68238740D01*
X193603498Y-68335760D01*
X193603497Y-68335763D01*
X193574500Y-68443982D01*
X191532109Y-68443982D01*
X191535100Y-68432818D01*
X191535100Y-68320782D01*
X191506103Y-68212563D01*
X191450085Y-68115537D01*
X191370863Y-68036315D01*
X191273837Y-67980297D01*
X191165618Y-67951300D01*
X191053582Y-67951300D01*
X190945363Y-67980297D01*
X190945360Y-67980298D01*
X190848340Y-68036313D01*
X190848334Y-68036317D01*
X190769117Y-68115534D01*
X190769113Y-68115540D01*
X190713098Y-68212560D01*
X190713097Y-68212563D01*
X190684100Y-68320782D01*
X189478751Y-68320782D01*
X189478812Y-68320686D01*
X189480137Y-68314261D01*
X189499528Y-68288061D01*
X189500979Y-68285778D01*
X189501387Y-68285360D01*
X189550485Y-68236263D01*
X189606503Y-68139237D01*
X189635500Y-68031018D01*
X189635500Y-67918982D01*
X189606503Y-67810763D01*
X189550485Y-67713737D01*
X189471263Y-67634515D01*
X189374237Y-67578497D01*
X189266018Y-67549500D01*
X189153982Y-67549500D01*
X189045763Y-67578497D01*
X189045760Y-67578498D01*
X188948740Y-67634513D01*
X188948734Y-67634517D01*
X188918181Y-67665071D01*
X188856858Y-67698556D01*
X188787166Y-67693572D01*
X188731233Y-67651700D01*
X188706816Y-67586236D01*
X188706500Y-67577390D01*
X188706500Y-66173982D01*
X191614500Y-66173982D01*
X191614500Y-66286018D01*
X191641227Y-66385763D01*
X191643497Y-66394236D01*
X191643498Y-66394239D01*
X191655765Y-66415486D01*
X191699515Y-66491263D01*
X191778737Y-66570485D01*
X191875763Y-66626503D01*
X191983982Y-66655500D01*
X191983984Y-66655500D01*
X192096016Y-66655500D01*
X192096018Y-66655500D01*
X192204237Y-66626503D01*
X192301263Y-66570485D01*
X192380485Y-66491263D01*
X192436503Y-66394237D01*
X192465500Y-66286018D01*
X192465500Y-66173982D01*
X192436503Y-66065763D01*
X192380485Y-65968737D01*
X192301263Y-65889515D01*
X192204237Y-65833497D01*
X192096018Y-65804500D01*
X191983982Y-65804500D01*
X191875763Y-65833497D01*
X191875760Y-65833498D01*
X191778740Y-65889513D01*
X191778734Y-65889517D01*
X191699517Y-65968734D01*
X191699513Y-65968740D01*
X191643498Y-66065760D01*
X191643497Y-66065763D01*
X191614500Y-66173982D01*
X188706500Y-66173982D01*
X188706500Y-61194500D01*
X188726185Y-61127461D01*
X188778989Y-61081706D01*
X188830500Y-61070500D01*
X219775500Y-61070500D01*
X219842539Y-61090185D01*
G37*
%TD.AperFunction*%
%TD*%
M02*
