%TF.GenerationSoftware,KiCad,Pcbnew,9.0.2*%
%TF.CreationDate,2025-06-08T15:56:05+02:00*%
%TF.ProjectId,MicroMod_Processor_Board,4d696372-6f4d-46f6-945f-50726f636573,rev?*%
%TF.SameCoordinates,Original*%
%TF.FileFunction,Copper,L1,Top*%
%TF.FilePolarity,Positive*%
%FSLAX46Y46*%
G04 Gerber Fmt 4.6, Leading zero omitted, Abs format (unit mm)*
G04 Created by KiCad (PCBNEW 9.0.2) date 2025-06-08 15:56:05*
%MOMM*%
%LPD*%
G01*
G04 APERTURE LIST*
G04 Aperture macros list*
%AMRoundRect*
0 Rectangle with rounded corners*
0 $1 Rounding radius*
0 $2 $3 $4 $5 $6 $7 $8 $9 X,Y pos of 4 corners*
0 Add a 4 corners polygon primitive as box body*
4,1,4,$2,$3,$4,$5,$6,$7,$8,$9,$2,$3,0*
0 Add four circle primitives for the rounded corners*
1,1,$1+$1,$2,$3*
1,1,$1+$1,$4,$5*
1,1,$1+$1,$6,$7*
1,1,$1+$1,$8,$9*
0 Add four rect primitives between the rounded corners*
20,1,$1+$1,$2,$3,$4,$5,0*
20,1,$1+$1,$4,$5,$6,$7,0*
20,1,$1+$1,$6,$7,$8,$9,0*
20,1,$1+$1,$8,$9,$2,$3,0*%
G04 Aperture macros list end*
%TA.AperFunction,EtchedComponent*%
%ADD10C,0.101600*%
%TD*%
%TA.AperFunction,EtchedComponent*%
%ADD11C,0.000000*%
%TD*%
%TA.AperFunction,SMDPad,CuDef*%
%ADD12RoundRect,0.237500X0.250000X0.237500X-0.250000X0.237500X-0.250000X-0.237500X0.250000X-0.237500X0*%
%TD*%
%TA.AperFunction,SMDPad,CuDef*%
%ADD13RoundRect,0.237500X0.237500X-0.250000X0.237500X0.250000X-0.237500X0.250000X-0.237500X-0.250000X0*%
%TD*%
%TA.AperFunction,SMDPad,CuDef*%
%ADD14RoundRect,0.237500X-0.237500X0.300000X-0.237500X-0.300000X0.237500X-0.300000X0.237500X0.300000X0*%
%TD*%
%TA.AperFunction,SMDPad,CuDef*%
%ADD15RoundRect,0.237500X0.300000X0.237500X-0.300000X0.237500X-0.300000X-0.237500X0.300000X-0.237500X0*%
%TD*%
%TA.AperFunction,SMDPad,CuDef*%
%ADD16RoundRect,0.237500X-0.287500X-0.237500X0.287500X-0.237500X0.287500X0.237500X-0.287500X0.237500X0*%
%TD*%
%TA.AperFunction,SMDPad,CuDef*%
%ADD17RoundRect,0.237500X0.237500X-0.300000X0.237500X0.300000X-0.237500X0.300000X-0.237500X-0.300000X0*%
%TD*%
%TA.AperFunction,SMDPad,CuDef*%
%ADD18RoundRect,0.237500X-0.300000X-0.237500X0.300000X-0.237500X0.300000X0.237500X-0.300000X0.237500X0*%
%TD*%
%TA.AperFunction,SMDPad,CuDef*%
%ADD19RoundRect,0.250000X-0.400000X-0.625000X0.400000X-0.625000X0.400000X0.625000X-0.400000X0.625000X0*%
%TD*%
%TA.AperFunction,SMDPad,CuDef*%
%ADD20RoundRect,0.075000X-0.075000X0.725000X-0.075000X-0.725000X0.075000X-0.725000X0.075000X0.725000X0*%
%TD*%
%TA.AperFunction,SMDPad,CuDef*%
%ADD21RoundRect,0.075000X-0.725000X0.075000X-0.725000X-0.075000X0.725000X-0.075000X0.725000X0.075000X0*%
%TD*%
%TA.AperFunction,SMDPad,CuDef*%
%ADD22R,0.350000X1.450000*%
%TD*%
%TA.AperFunction,ComponentPad*%
%ADD23C,0.454000*%
%TD*%
%TA.AperFunction,SMDPad,CuDef*%
%ADD24R,1.422400X0.203200*%
%TD*%
%TA.AperFunction,SMDPad,CuDef*%
%ADD25R,0.740000X2.400000*%
%TD*%
%TA.AperFunction,ViaPad*%
%ADD26C,0.800000*%
%TD*%
%TA.AperFunction,ViaPad*%
%ADD27C,0.450000*%
%TD*%
%TA.AperFunction,ViaPad*%
%ADD28C,0.400000*%
%TD*%
%TA.AperFunction,Conductor*%
%ADD29C,0.127000*%
%TD*%
%TA.AperFunction,Conductor*%
%ADD30C,0.500000*%
%TD*%
%TA.AperFunction,Conductor*%
%ADD31C,0.250000*%
%TD*%
%TA.AperFunction,Conductor*%
%ADD32C,0.350000*%
%TD*%
G04 APERTURE END LIST*
D10*
%TO.C,J1*%
X150397600Y-93375000D02*
X149497600Y-93375000D01*
X150397600Y-93375000D02*
X150397600Y-94475000D01*
X152497600Y-94675000D02*
X152497600Y-95375000D01*
X154597600Y-93375000D02*
X154597600Y-94475000D01*
X154597600Y-93375000D02*
X155497600Y-93375000D01*
D11*
%TA.AperFunction,EtchedComponent*%
G36*
X150586020Y-92913173D02*
G01*
X150669047Y-93191787D01*
X150794637Y-93453983D01*
X150959697Y-93693304D01*
X151160163Y-93903858D01*
X151391099Y-94080460D01*
X151646818Y-94218761D01*
X151921024Y-94315356D01*
X152497600Y-94375000D01*
X152788235Y-94367867D01*
X153074176Y-94315356D01*
X153348382Y-94218761D01*
X153604101Y-94080460D01*
X153835037Y-93903858D01*
X154035503Y-93693304D01*
X154200563Y-93453983D01*
X154326153Y-93191787D01*
X154447600Y-92625000D01*
X155247600Y-92625000D01*
X155184552Y-92988935D01*
X155074051Y-93341374D01*
X154918027Y-93676158D01*
X154719208Y-93987436D01*
X154481067Y-94269770D01*
X154207766Y-94518226D01*
X153904080Y-94728461D01*
X153575318Y-94896803D01*
X153227223Y-95020309D01*
X152865879Y-95096820D01*
X152497600Y-95125000D01*
X152128411Y-95099373D01*
X151765934Y-95024760D01*
X151416637Y-94902494D01*
X151086757Y-94734756D01*
X150782181Y-94524540D01*
X150508346Y-94275599D01*
X150270140Y-93992377D01*
X150071815Y-93679928D01*
X149916911Y-93343831D01*
X149747600Y-92625000D01*
X150547600Y-92625000D01*
X150586020Y-92913173D01*
G37*
%TD.AperFunction*%
%TD*%
D12*
%TO.P,R4,2*%
%TO.N,Net-(U1-PE0)*%
X156250000Y-95950000D03*
%TO.P,R4,1*%
%TO.N,Net-(D1-A)*%
X158075000Y-95950000D03*
%TD*%
D13*
%TO.P,R2,1*%
%TO.N,/BOOT0*%
X152200000Y-98025000D03*
%TO.P,R2,2*%
%TO.N,GND*%
X152200000Y-96200000D03*
%TD*%
D14*
%TO.P,C4,1*%
%TO.N,+3.3V*%
X149780000Y-79340000D03*
%TO.P,C4,2*%
%TO.N,GND*%
X149780000Y-81065000D03*
%TD*%
D15*
%TO.P,C18,1*%
%TO.N,Net-(C18-Pad1)*%
X131400000Y-107600000D03*
%TO.P,C18,2*%
%TO.N,GND*%
X129675000Y-107600000D03*
%TD*%
D16*
%TO.P,D1,1,K*%
%TO.N,GND*%
X156400000Y-93725000D03*
%TO.P,D1,2,A*%
%TO.N,Net-(D1-A)*%
X158150000Y-93725000D03*
%TD*%
D17*
%TO.P,C8,1*%
%TO.N,GND*%
X155016200Y-109827400D03*
%TO.P,C8,2*%
%TO.N,+3.3V*%
X155016200Y-108102400D03*
%TD*%
D18*
%TO.P,C15,1*%
%TO.N,GND*%
X131800000Y-94250000D03*
%TO.P,C15,2*%
%TO.N,+3.3V*%
X133525000Y-94250000D03*
%TD*%
D15*
%TO.P,C12,1*%
%TO.N,GND*%
X158470000Y-105120000D03*
%TO.P,C12,2*%
%TO.N,+3.3V*%
X156745000Y-105120000D03*
%TD*%
D18*
%TO.P,C17,1*%
%TO.N,GND*%
X129675000Y-109100000D03*
%TO.P,C17,2*%
%TO.N,+3.3V*%
X131400000Y-109100000D03*
%TD*%
D19*
%TO.P,Y1,1,1*%
%TO.N,Net-(U1-PC15)*%
X141875000Y-91525000D03*
%TO.P,Y1,2,2*%
%TO.N,Net-(U1-PC14)*%
X144975000Y-91525000D03*
%TD*%
D18*
%TO.P,C5,1*%
%TO.N,+3.3V*%
X156575000Y-108220000D03*
%TO.P,C5,2*%
%TO.N,GND*%
X158300000Y-108220000D03*
%TD*%
D20*
%TO.P,U1,1,PE2*%
%TO.N,/TRACE_CLK*%
X148275000Y-93725000D03*
%TO.P,U1,2,PE3*%
%TO.N,/TRACE_D0*%
X147775000Y-93725000D03*
%TO.P,U1,3,PE4*%
%TO.N,/TRACE_D1*%
X147275000Y-93725000D03*
%TO.P,U1,4,PE5*%
%TO.N,/TRACE_D2*%
X146775000Y-93725000D03*
%TO.P,U1,5,PE6*%
%TO.N,/TRACE_D3*%
X146275000Y-93725000D03*
%TO.P,U1,6,VBAT*%
%TO.N,/VBAT*%
X145775000Y-93725000D03*
%TO.P,U1,7,PC13*%
%TO.N,GND*%
X145275000Y-93725000D03*
%TO.P,U1,8,PC14*%
%TO.N,Net-(U1-PC14)*%
X144775000Y-93725000D03*
%TO.P,U1,9,PC15*%
%TO.N,Net-(U1-PC15)*%
X144275000Y-93725000D03*
%TO.P,U1,10,VSS*%
%TO.N,GND*%
X143775000Y-93725000D03*
%TO.P,U1,11,VDD*%
%TO.N,+3.3V*%
X143275000Y-93725000D03*
%TO.P,U1,12,PH0*%
%TO.N,unconnected-(U1-PH0-Pad12)*%
X142775000Y-93725000D03*
%TO.P,U1,13,PH1*%
%TO.N,unconnected-(U1-PH1-Pad13)*%
X142275000Y-93725000D03*
%TO.P,U1,14,NRST*%
%TO.N,/~{RESET}*%
X141775000Y-93725000D03*
%TO.P,U1,15,PC0*%
%TO.N,/BATT_VIN*%
X141275000Y-93725000D03*
%TO.P,U1,16,PC1*%
%TO.N,/SPI_MOSI*%
X140775000Y-93725000D03*
%TO.P,U1,17,PC2*%
%TO.N,/SPI_MISO*%
X140275000Y-93725000D03*
%TO.P,U1,18,PC3*%
%TO.N,/USB_VIN*%
X139775000Y-93725000D03*
%TO.P,U1,19,VSSA*%
%TO.N,GND*%
X139275000Y-93725000D03*
%TO.P,U1,20,VREF-*%
X138775000Y-93725000D03*
%TO.P,U1,21,VREF+*%
%TO.N,+3.3V*%
X138275000Y-93725000D03*
%TO.P,U1,22,VDDA*%
X137775000Y-93725000D03*
%TO.P,U1,23,PA0*%
%TO.N,/D0*%
X137275000Y-93725000D03*
%TO.P,U1,24,PA1*%
%TO.N,/BT_REG_ON*%
X136775000Y-93725000D03*
%TO.P,U1,25,PA2*%
%TO.N,/BT_HOST_WAKE*%
X136275000Y-93725000D03*
D21*
%TO.P,U1,26,PA3*%
%TO.N,/BT_PCM_IN*%
X134600000Y-95400000D03*
%TO.P,U1,27,VSS*%
%TO.N,GND*%
X134600000Y-95900000D03*
%TO.P,U1,28,VDD*%
%TO.N,+3.3V*%
X134600000Y-96400000D03*
%TO.P,U1,29,PA4*%
%TO.N,/AUD_LRCLK*%
X134600000Y-96900000D03*
%TO.P,U1,30,PA5*%
%TO.N,/AUD_BCLK*%
X134600000Y-97400000D03*
%TO.P,U1,31,PA6*%
%TO.N,/AUD_IN-CAM_PCLK*%
X134600000Y-97900000D03*
%TO.P,U1,32,PA7*%
%TO.N,/AUD_OUT-CAM_MCLK*%
X134600000Y-98400000D03*
%TO.P,U1,33,PC4*%
%TO.N,/AUD_MCLK*%
X134600000Y-98900000D03*
%TO.P,U1,34,PC5*%
%TO.N,/BT_PCM_SYNC*%
X134600000Y-99400000D03*
%TO.P,U1,35,PB0*%
%TO.N,/A0*%
X134600000Y-99900000D03*
%TO.P,U1,36,PB1*%
%TO.N,/A1*%
X134600000Y-100400000D03*
%TO.P,U1,37,PB2*%
%TO.N,/BT_PCM_OUT*%
X134600000Y-100900000D03*
%TO.P,U1,38,PE7*%
%TO.N,/BT_UART_TX*%
X134600000Y-101400000D03*
%TO.P,U1,39,PE8*%
%TO.N,/BT_UART_RX*%
X134600000Y-101900000D03*
%TO.P,U1,40,PE9*%
%TO.N,/BT_UART_RTS*%
X134600000Y-102400000D03*
%TO.P,U1,41,PE10*%
%TO.N,/BT_UART_CTS*%
X134600000Y-102900000D03*
%TO.P,U1,42,PE11*%
%TO.N,/~{SPI_CS1}*%
X134600000Y-103400000D03*
%TO.P,U1,43,PE12*%
%TO.N,/SPI_SCK1*%
X134600000Y-103900000D03*
%TO.P,U1,44,PE13*%
%TO.N,/SPI_CIPO1*%
X134600000Y-104400000D03*
%TO.P,U1,45,PE14*%
%TO.N,/SPI_COPI1*%
X134600000Y-104900000D03*
%TO.P,U1,46,PE15*%
%TO.N,/BT_DEV_WAKE*%
X134600000Y-105400000D03*
%TO.P,U1,47,PB10*%
%TO.N,/SPI_SCK*%
X134600000Y-105900000D03*
%TO.P,U1,48,VCAP*%
%TO.N,Net-(C18-Pad1)*%
X134600000Y-106400000D03*
%TO.P,U1,49,VSS*%
%TO.N,GND*%
X134600000Y-106900000D03*
%TO.P,U1,50,VDD*%
%TO.N,+3.3V*%
X134600000Y-107400000D03*
D20*
%TO.P,U1,51,PB12*%
%TO.N,/WL_REG_ON*%
X136275000Y-109075000D03*
%TO.P,U1,52,PB13*%
%TO.N,/UART_CTS1*%
X136775000Y-109075000D03*
%TO.P,U1,53,PB14*%
%TO.N,/SD_DAT0*%
X137275000Y-109075000D03*
%TO.P,U1,54,PB15*%
%TO.N,/SD_DAT1*%
X137775000Y-109075000D03*
%TO.P,U1,55,PD8*%
%TO.N,/UART_TX1*%
X138275000Y-109075000D03*
%TO.P,U1,56,PD9*%
%TO.N,/UART_RX1*%
X138775000Y-109075000D03*
%TO.P,U1,57,PD10*%
%TO.N,unconnected-(U1-PD10-Pad57)*%
X139275000Y-109075000D03*
%TO.P,U1,58,PD11*%
%TO.N,/BT_PCM_CLK*%
X139775000Y-109075000D03*
%TO.P,U1,59,PD12*%
%TO.N,/UART_RTS1*%
X140275000Y-109075000D03*
%TO.P,U1,60,PD13*%
%TO.N,/G5*%
X140775000Y-109075000D03*
%TO.P,U1,61,PD14*%
%TO.N,/G6*%
X141275000Y-109075000D03*
%TO.P,U1,62,PD15*%
%TO.N,/G7*%
X141775000Y-109075000D03*
%TO.P,U1,63,PC6*%
%TO.N,/UART_TX2*%
X142275000Y-109075000D03*
%TO.P,U1,64,PC7*%
%TO.N,/UART_RX2*%
X142775000Y-109075000D03*
%TO.P,U1,65,PC8*%
%TO.N,/WIFI_SDIO_DAT0*%
X143275000Y-109075000D03*
%TO.P,U1,66,PC9*%
%TO.N,/WIFI_SDIO_DAT1*%
X143775000Y-109075000D03*
%TO.P,U1,67,PA8*%
%TO.N,/~{SPI_CS}*%
X144275000Y-109075000D03*
%TO.P,U1,68,PA9*%
%TO.N,/G3*%
X144775000Y-109075000D03*
%TO.P,U1,69,PA10*%
%TO.N,/G2*%
X145275000Y-109075000D03*
%TO.P,U1,70,PA11*%
%TO.N,/USB_D-*%
X145775000Y-109075000D03*
%TO.P,U1,71,PA12*%
%TO.N,/USB_D+*%
X146275000Y-109075000D03*
%TO.P,U1,72,PA13(JTMS*%
%TO.N,/SWDIO*%
X146775000Y-109075000D03*
%TO.P,U1,73,VDDUSB*%
%TO.N,+3.3V*%
X147275000Y-109075000D03*
%TO.P,U1,74,VSS*%
%TO.N,GND*%
X147775000Y-109075000D03*
%TO.P,U1,75,VDD*%
%TO.N,+3.3V*%
X148275000Y-109075000D03*
D21*
%TO.P,U1,76,PA14(JTCK*%
%TO.N,/SWDCK*%
X149950000Y-107400000D03*
%TO.P,U1,77,PA15(JTDI)*%
%TO.N,/G1*%
X149950000Y-106900000D03*
%TO.P,U1,78,PC10*%
%TO.N,/WIFI_SDIO_DAT2*%
X149950000Y-106400000D03*
%TO.P,U1,79,PC11*%
%TO.N,/WIFI_SDIO_DAT3*%
X149950000Y-105900000D03*
%TO.P,U1,80,PC12*%
%TO.N,/WIFI_SDIO_CLK*%
X149950000Y-105400000D03*
%TO.P,U1,81,PD0*%
%TO.N,/CAN-RX*%
X149950000Y-104900000D03*
%TO.P,U1,82,PD1*%
%TO.N,/CAN-TX*%
X149950000Y-104400000D03*
%TO.P,U1,83,PD2*%
%TO.N,/WIFI_SDIO_CMD*%
X149950000Y-103900000D03*
%TO.P,U1,84,PD3*%
%TO.N,/WL_GPIO_0_HOST_WAKE*%
X149950000Y-103400000D03*
%TO.P,U1,85,PD4*%
%TO.N,/D1-CAM_TRIG*%
X149950000Y-102900000D03*
%TO.P,U1,86,PD5*%
%TO.N,/G0*%
X149950000Y-102400000D03*
%TO.P,U1,87,PD6*%
%TO.N,/SD_CLK*%
X149950000Y-101900000D03*
%TO.P,U1,88,PD7*%
%TO.N,/SD_CMD*%
X149950000Y-101400000D03*
%TO.P,U1,89,PB3(JTDO*%
%TO.N,/SD_DAT2*%
X149950000Y-100900000D03*
%TO.P,U1,90,PB4(NJTRST)*%
%TO.N,/SD_DAT3*%
X149950000Y-100400000D03*
%TO.P,U1,91,PB5*%
%TO.N,/I2C_~{INT}*%
X149950000Y-99900000D03*
%TO.P,U1,92,PB6*%
%TO.N,/I2C_SCL*%
X149950000Y-99400000D03*
%TO.P,U1,93,PB7*%
%TO.N,/I2C_SDA*%
X149950000Y-98900000D03*
%TO.P,U1,94,BOOT0*%
%TO.N,/BOOT0*%
X149950000Y-98400000D03*
%TO.P,U1,95,PB8*%
%TO.N,/I2C_SCL1*%
X149950000Y-97900000D03*
%TO.P,U1,96,PB9*%
%TO.N,/I2C_SDA1*%
X149950000Y-97400000D03*
%TO.P,U1,97,PE0*%
%TO.N,Net-(U1-PE0)*%
X149950000Y-96900000D03*
%TO.P,U1,98,VCAP*%
%TO.N,Net-(C10-Pad1)*%
X149950000Y-96400000D03*
%TO.P,U1,99,VSS*%
%TO.N,GND*%
X149950000Y-95900000D03*
%TO.P,U1,100,VDD*%
%TO.N,+3.3V*%
X149950000Y-95400000D03*
%TD*%
D18*
%TO.P,C2,1*%
%TO.N,Net-(U1-PC14)*%
X143850000Y-89650000D03*
%TO.P,C2,2*%
%TO.N,GND*%
X145575000Y-89650000D03*
%TD*%
D22*
%TO.P,J1,1,GND*%
%TO.N,GND*%
X157747600Y-113100000D03*
%TO.P,J1,3,USB_D+*%
%TO.N,/USB_D+*%
X157247600Y-113100000D03*
%TO.P,J1,5,USB_D-*%
%TO.N,/USB_D-*%
X156747600Y-113100000D03*
%TO.P,J1,7,GND*%
%TO.N,GND*%
X156247600Y-113100000D03*
%TO.P,J1,9,USB_VIN*%
%TO.N,Net-(J1-USB_VIN)*%
X155747600Y-113100000D03*
%TO.P,J1,11,~{BOOT}*%
%TO.N,/~{BOOT}*%
X155247600Y-113100000D03*
%TO.P,J1,13,RTS1*%
%TO.N,/UART_RTS1*%
X154747600Y-113100000D03*
%TO.P,J1,15,CTS1*%
%TO.N,/UART_CTS1*%
X154247600Y-113100000D03*
%TO.P,J1,17,TX1*%
%TO.N,/UART_TX1*%
X153747600Y-113100000D03*
%TO.P,J1,19,RX1*%
%TO.N,/UART_RX1*%
X153247600Y-113100000D03*
%TO.P,J1,21,SWDCK*%
%TO.N,/SWDCK*%
X152747600Y-113100000D03*
%TO.P,J1,23,SWDIO*%
%TO.N,/SWDIO*%
X152247600Y-113100000D03*
%TO.P,J1,33,GND*%
%TO.N,GND*%
X149747600Y-113100000D03*
%TO.P,J1,35,USBHOST_D+*%
%TO.N,unconnected-(J1-USBHOST_D+-Pad35)*%
X149247600Y-113100000D03*
%TO.P,J1,37,USBHOST_D-*%
%TO.N,unconnected-(J1-USBHOST_D--Pad37)*%
X148747600Y-113100000D03*
%TO.P,J1,39,GND*%
%TO.N,GND*%
X148247600Y-113100000D03*
%TO.P,J1,41,CAN-RX*%
%TO.N,/CAN-RX*%
X147747600Y-113100000D03*
%TO.P,J1,43,CAN-TX*%
%TO.N,/CAN-TX*%
X147247600Y-113100000D03*
%TO.P,J1,45,GND*%
%TO.N,GND*%
X146747600Y-113100000D03*
%TO.P,J1,47,PWM1*%
%TO.N,unconnected-(J1-PWM1-Pad47)*%
X146247600Y-113100000D03*
%TO.P,J1,49,BATT_VIN/3*%
%TO.N,/BATT_VIN*%
X145747600Y-113100000D03*
%TO.P,J1,51,I2C_SDA1*%
%TO.N,/I2C_SDA1*%
X145247600Y-113100000D03*
%TO.P,J1,53,I2C_SCL1*%
%TO.N,/I2C_SCL1*%
X144747600Y-113100000D03*
%TO.P,J1,55,SPI_~{CS}*%
%TO.N,/~{SPI_CS}*%
X144247600Y-113100000D03*
%TO.P,J1,57,SPI_SCK*%
%TO.N,/SPI_SCK*%
X143747600Y-113100000D03*
%TO.P,J1,59,SPI_SDO*%
%TO.N,/SPI_MOSI*%
X143247600Y-113100000D03*
%TO.P,J1,61,SPI_SDI*%
%TO.N,/SPI_MISO*%
X142747600Y-113100000D03*
%TO.P,J1,63,G10/ADC_D+/CAM_VSYNC*%
%TO.N,unconnected-(J1-G10{slash}ADC_D+{slash}CAM_VSYNC-Pad63)*%
X142247600Y-113100000D03*
%TO.P,J1,65,G9/ADC_D-/CAM_HSYNC*%
%TO.N,unconnected-(J1-G9{slash}ADC_D-{slash}CAM_HSYNC-Pad65)*%
X141747600Y-113100000D03*
%TO.P,J1,67,G8*%
%TO.N,unconnected-(J1-G8-Pad67)*%
X141247600Y-113100000D03*
%TO.P,J1,69,G7/BUS7*%
%TO.N,/G7*%
X140747600Y-113100000D03*
%TO.P,J1,71,G6/BUS6*%
%TO.N,/G6*%
X140247600Y-113100000D03*
%TO.P,J1,73,G5/BUS5*%
%TO.N,/G5*%
X139747600Y-113100000D03*
%TO.P,J1,75,GND*%
%TO.N,GND*%
X139247600Y-113100000D03*
D23*
%TO.P,J1,GND1,GND*%
X150397600Y-93375000D03*
%TO.P,J1,GND2,GND*%
X152497600Y-94675000D03*
%TO.P,J1,GND3,GND*%
X154597600Y-93375000D03*
%TD*%
D15*
%TO.P,C3,1*%
%TO.N,Net-(U1-PC15)*%
X142275000Y-89650000D03*
%TO.P,C3,2*%
%TO.N,GND*%
X140550000Y-89650000D03*
%TD*%
D18*
%TO.P,C6,1*%
%TO.N,+3.3V*%
X156593200Y-106705400D03*
%TO.P,C6,2*%
%TO.N,GND*%
X158318200Y-106705400D03*
%TD*%
D24*
%TO.P,J4,1,Pin_1*%
%TO.N,+3.3V*%
X156699998Y-102379998D03*
%TO.P,J4,2,Pin_2*%
X156699998Y-101979999D03*
%TO.P,J4,3,Pin_3*%
%TO.N,GND*%
X156699998Y-101580000D03*
%TO.P,J4,4,Pin_4*%
X156699998Y-101179998D03*
%TO.P,J4,5,Pin_5*%
X156699998Y-100779999D03*
%TO.P,J4,6,Pin_6*%
%TO.N,/WL_GPIO_0_HOST_WAKE*%
X156699998Y-100379999D03*
%TO.P,J4,7,Pin_7*%
%TO.N,GND*%
X156699998Y-99980000D03*
%TO.P,J4,8,Pin_8*%
X156699998Y-99579998D03*
%TO.P,J4,9,Pin_9*%
X156699998Y-99179999D03*
%TO.P,J4,10,Pin_10*%
X156699998Y-98780000D03*
%TO.P,J4,11,Pin_11*%
%TO.N,/WIFI_SDIO_DAT0*%
X154350000Y-102379998D03*
%TO.P,J4,12,Pin_12*%
%TO.N,/WIFI_SDIO_DAT2*%
X154350000Y-101979999D03*
%TO.P,J4,13,Pin_13*%
%TO.N,GND*%
X154350000Y-101580000D03*
%TO.P,J4,14,Pin_14*%
X154350000Y-101179998D03*
%TO.P,J4,15,Pin_15*%
%TO.N,/WIFI_SDIO_DAT1*%
X154350000Y-100779999D03*
%TO.P,J4,16,Pin_16*%
%TO.N,/WIFI_SDIO_DAT3*%
X154350000Y-100379999D03*
%TO.P,J4,17,Pin_17*%
%TO.N,GND*%
X154350000Y-99980000D03*
%TO.P,J4,18,Pin_18*%
%TO.N,/WIFI_SDIO_CLK*%
X154350000Y-99579998D03*
%TO.P,J4,19,Pin_19*%
%TO.N,GND*%
X154350000Y-99179999D03*
%TO.P,J4,20,Pin_20*%
%TO.N,/WIFI_SDIO_CMD*%
X154350000Y-98780000D03*
%TD*%
D17*
%TO.P,C9,1*%
%TO.N,/~{RESET}*%
X139039600Y-91875000D03*
%TO.P,C9,2*%
%TO.N,GND*%
X139039600Y-90150000D03*
%TD*%
D14*
%TO.P,C7,1*%
%TO.N,GND*%
X135864600Y-90121400D03*
%TO.P,C7,2*%
%TO.N,+3.3V*%
X135864600Y-91846400D03*
%TD*%
%TO.P,C14,1*%
%TO.N,GND*%
X137541000Y-90146800D03*
%TO.P,C14,2*%
%TO.N,+3.3V*%
X137541000Y-91871800D03*
%TD*%
D24*
%TO.P,J3,1,Pin_1*%
%TO.N,+3.3V*%
X132200000Y-105000000D03*
%TO.P,J3,2,Pin_2*%
X132200000Y-104600001D03*
%TO.P,J3,3,Pin_3*%
%TO.N,/BT_REG_ON*%
X132200000Y-104200002D03*
%TO.P,J3,4,Pin_4*%
%TO.N,/BT_HOST_WAKE*%
X132200000Y-103800000D03*
%TO.P,J3,5,Pin_5*%
%TO.N,/BT_UART_CTS*%
X132200000Y-103400001D03*
%TO.P,J3,6,Pin_6*%
%TO.N,GND*%
X132200000Y-103000001D03*
%TO.P,J3,7,Pin_7*%
X132200000Y-102600002D03*
%TO.P,J3,8,Pin_8*%
%TO.N,/BT_UART_RTS*%
X132200000Y-102200000D03*
%TO.P,J3,9,Pin_9*%
%TO.N,/BT_UART_RX*%
X132200000Y-101800001D03*
%TO.P,J3,10,Pin_10*%
%TO.N,/BT_UART_TX*%
X132200000Y-101400002D03*
%TO.P,J3,11,Pin_11*%
%TO.N,/BT_DEV_WAKE*%
X129850002Y-105000000D03*
%TO.P,J3,12,Pin_12*%
%TO.N,/WL_REG_ON*%
X129850002Y-104600001D03*
%TO.P,J3,13,Pin_13*%
%TO.N,GND*%
X129850002Y-104200002D03*
%TO.P,J3,14,Pin_14*%
X129850002Y-103800000D03*
%TO.P,J3,15,Pin_15*%
%TO.N,/BT_PCM_CLK*%
X129850002Y-103400001D03*
%TO.P,J3,16,Pin_16*%
%TO.N,/BT_PCM_IN*%
X129850002Y-103000001D03*
%TO.P,J3,17,Pin_17*%
%TO.N,/BT_PCM_SYNC*%
X129850002Y-102600002D03*
%TO.P,J3,18,Pin_18*%
%TO.N,/BT_PCM_OUT*%
X129850002Y-102200000D03*
%TO.P,J3,19,Pin_19*%
%TO.N,GND*%
X129850002Y-101800001D03*
%TO.P,J3,20,Pin_20*%
X129850002Y-101400002D03*
%TD*%
D18*
%TO.P,C1,1*%
%TO.N,/VBAT*%
X147900000Y-91350000D03*
%TO.P,C1,2*%
%TO.N,GND*%
X149625000Y-91350000D03*
%TD*%
D25*
%TO.P,J5,1,Pin_1*%
%TO.N,+3.3V*%
X147600000Y-80070000D03*
%TO.P,J5,2,Pin_2*%
%TO.N,/SWDIO*%
X147600000Y-83970000D03*
%TO.P,J5,3,Pin_3*%
%TO.N,GND*%
X146330000Y-80070000D03*
%TO.P,J5,4,Pin_4*%
%TO.N,/SWDCK*%
X146330000Y-83970000D03*
%TO.P,J5,5,Pin_5*%
%TO.N,GND*%
X145060000Y-80070000D03*
%TO.P,J5,6,Pin_6*%
%TO.N,/G11-SWO*%
X145060000Y-83970000D03*
%TO.P,J5,7,Pin_7*%
%TO.N,unconnected-(J5-Pin_7-Pad7)*%
X143790000Y-80070000D03*
%TO.P,J5,8,Pin_8*%
%TO.N,unconnected-(J5-Pin_8-Pad8)*%
X143790000Y-83970000D03*
%TO.P,J5,9,Pin_9*%
%TO.N,unconnected-(J5-Pin_9-Pad9)*%
X142520000Y-80070000D03*
%TO.P,J5,10,Pin_10*%
%TO.N,/~{RESET}*%
X142520000Y-83970000D03*
%TO.P,J5,11,Pin_11*%
%TO.N,unconnected-(J5-Pin_11-Pad11)*%
X141250000Y-80070000D03*
%TO.P,J5,12,Pin_12*%
%TO.N,/TRACE_CLK*%
X141250000Y-83970000D03*
%TO.P,J5,13,Pin_13*%
%TO.N,unconnected-(J5-Pin_13-Pad13)*%
X139980000Y-80070000D03*
%TO.P,J5,14,Pin_14*%
%TO.N,/TRACE_D0*%
X139980000Y-83970000D03*
%TO.P,J5,15,Pin_15*%
%TO.N,GND*%
X138710000Y-80070000D03*
%TO.P,J5,16,Pin_16*%
%TO.N,/TRACE_D1*%
X138710000Y-83970000D03*
%TO.P,J5,17,Pin_17*%
%TO.N,GND*%
X137440000Y-80070000D03*
%TO.P,J5,18,Pin_18*%
%TO.N,/TRACE_D2*%
X137440000Y-83970000D03*
%TO.P,J5,19,Pin_19*%
%TO.N,GND*%
X136170000Y-80070000D03*
%TO.P,J5,20,Pin_20*%
%TO.N,/TRACE_D3*%
X136170000Y-83970000D03*
%TD*%
D26*
%TO.N,GND*%
X130300000Y-100275000D03*
D27*
%TO.N,/I2C_SDA*%
X151433576Y-99216424D03*
%TO.N,/I2C_SCL*%
X151500000Y-100675000D03*
%TO.N,/D0*%
X148325000Y-97575000D03*
%TO.N,/USB_VIN*%
X139775000Y-92575000D03*
%TO.N,Net-(J1-USB_VIN)*%
X154875000Y-110750000D03*
%TO.N,GND*%
X144925000Y-90200000D03*
%TO.N,/TRACE_D3*%
X146276376Y-92789892D03*
%TO.N,/TRACE_D0*%
X148050000Y-92400000D03*
D28*
%TO.N,GND*%
X145197500Y-94697500D03*
D27*
X145923000Y-104470200D03*
X147777200Y-105867200D03*
%TO.N,/G1*%
X147494052Y-106422252D03*
%TO.N,GND*%
X140130000Y-105780000D03*
%TO.N,/SPI_CIPO1*%
X138800000Y-105175000D03*
%TO.N,GND*%
X140610000Y-92100000D03*
X149625000Y-91350000D03*
X150200000Y-90225000D03*
X148425000Y-90175000D03*
X148375000Y-89375000D03*
X147650000Y-89400000D03*
X136525000Y-90975000D03*
X138275000Y-89275000D03*
X131900000Y-98225000D03*
X131800000Y-97400000D03*
X132546612Y-98551329D03*
X132450000Y-97900000D03*
X132475000Y-96950000D03*
X138950000Y-113300000D03*
X158075000Y-112450000D03*
X158075000Y-112950000D03*
X158800000Y-103300000D03*
X158800000Y-102275000D03*
X158800000Y-101175000D03*
X159025000Y-99375000D03*
X158700000Y-97800000D03*
X148675000Y-104100000D03*
%TO.N,/SPI_COPI1*%
X139275000Y-105662279D03*
%TO.N,GND*%
X137425000Y-104975000D03*
X136175000Y-103975000D03*
X137414000Y-102844600D03*
X142341600Y-106578400D03*
X146837400Y-104749600D03*
X142240000Y-102819200D03*
X140868400Y-95529400D03*
D26*
%TO.N,+3.3V*%
X139051695Y-95928337D03*
D27*
%TO.N,GND*%
X141808200Y-94970600D03*
X139954000Y-97358200D03*
X143687800Y-99720400D03*
X144576800Y-99720400D03*
X136930000Y-97700000D03*
X136170000Y-96950000D03*
X136350000Y-98870000D03*
X136360000Y-99730000D03*
D26*
X136375000Y-105600000D03*
X135000000Y-109125000D03*
X130100000Y-98400000D03*
X129850000Y-96600000D03*
X129275000Y-95600000D03*
X130425000Y-95550000D03*
X130800000Y-91578400D03*
X133325000Y-90325000D03*
X129100000Y-91250000D03*
X133300000Y-91475000D03*
X132850000Y-92925000D03*
D27*
X143425000Y-101900000D03*
X140700000Y-101600000D03*
D26*
X145671116Y-101603884D03*
D27*
X140425000Y-100475000D03*
D26*
X149733000Y-109250000D03*
X132423378Y-108544500D03*
D27*
%TO.N,/VBAT*%
X139115800Y-110261400D03*
X145753815Y-94842889D03*
%TO.N,GND*%
X147590000Y-100550000D03*
X130420000Y-108380000D03*
X152030000Y-109100000D03*
X157937200Y-106121200D03*
D26*
X132401000Y-95990500D03*
D27*
X149360000Y-111280000D03*
X150266400Y-89585800D03*
X158875000Y-108000000D03*
X133292869Y-106998564D03*
X139014200Y-89204800D03*
X157962600Y-101142800D03*
D26*
X139000078Y-94832600D03*
D27*
X139220000Y-111160000D03*
D26*
X129768600Y-93243400D03*
D27*
X153593800Y-103962200D03*
D26*
X130780018Y-101618973D03*
D27*
X137236200Y-89255600D03*
X150291800Y-109448600D03*
X136144000Y-101400000D03*
X130370000Y-106440000D03*
D26*
X145500000Y-97000000D03*
D27*
X129760000Y-106190000D03*
X144522242Y-107714842D03*
X140512800Y-91516200D03*
D26*
X153845499Y-95919230D03*
D27*
X155400000Y-98575000D03*
X155346400Y-96850200D03*
D26*
X141792246Y-99684500D03*
D27*
%TO.N,/~{RESET}*%
X148800000Y-96775000D03*
D26*
%TO.N,+3.3V*%
X149474998Y-95170000D03*
X156088100Y-107510000D03*
X138155002Y-95859600D03*
X143336234Y-95805166D03*
X136220000Y-107460000D03*
X133450000Y-109209500D03*
X156680000Y-102890000D03*
X131073637Y-105224644D03*
X147600000Y-78600000D03*
X134980000Y-94210000D03*
D27*
X148417400Y-109499400D03*
X146175000Y-107850000D03*
X147650000Y-107850000D03*
D26*
X140721500Y-96738466D03*
D27*
%TO.N,Net-(C10-Pad1)*%
X152958800Y-96850200D03*
%TO.N,Net-(F1-Pad2)*%
X157734000Y-111760000D03*
X139380000Y-111940000D03*
%TO.N,/A0*%
X151579084Y-108685013D03*
%TO.N,/AUD_BCLK*%
X145600000Y-105250000D03*
%TO.N,/UART_CTS1*%
X153650000Y-106500000D03*
X145575000Y-103675000D03*
X137260000Y-100170000D03*
X137236200Y-106654600D03*
D26*
%TO.N,/G11-SWO*%
X145034000Y-85852000D03*
D27*
%TO.N,/G2*%
X146597346Y-110949912D03*
%TO.N,/SWDIO*%
X148869400Y-86537800D03*
X146227800Y-106908600D03*
%TO.N,/I2C_~{INT}*%
X151200000Y-101175000D03*
%TO.N,/AUD_IN-CAM_PCLK*%
X142080000Y-103581200D03*
%TO.N,/AUD_MCLK*%
X141250000Y-104075000D03*
%TO.N,/SPI_SCK1*%
X138734518Y-104504572D03*
%TO.N,/SWDCK*%
X147396200Y-86080600D03*
X148775000Y-107225000D03*
%TO.N,/CAN-RX*%
X148078000Y-106422000D03*
X148150000Y-111120000D03*
%TO.N,/~{BOOT}*%
X156825000Y-96775000D03*
%TO.N,/~{SPI_CS1}*%
X136036007Y-102664327D03*
%TO.N,/SPI_MISO*%
X141404896Y-111461056D03*
X140275000Y-94691200D03*
%TO.N,/USB_D-*%
X151964862Y-110933928D03*
X156747600Y-111472600D03*
%TO.N,/I2C_SDA1*%
X144190000Y-101660000D03*
X144450000Y-111140000D03*
%TO.N,/CAN-TX*%
X146990978Y-106045489D03*
X147140000Y-111260000D03*
%TO.N,/UART_RTS1*%
X140000000Y-100050000D03*
X138780000Y-103400000D03*
X143550000Y-101300000D03*
X154381200Y-104622600D03*
%TO.N,/UART_RX2*%
X144200000Y-106775000D03*
%TO.N,/A1*%
X150940000Y-108680000D03*
%TO.N,/UART_RX1*%
X138970000Y-103980000D03*
X147400000Y-103375000D03*
X152806400Y-106629200D03*
X140875000Y-100924745D03*
%TO.N,/BATT_VIN*%
X141478000Y-97282000D03*
X145620000Y-111000000D03*
%TO.N,/G3*%
X146150000Y-111390000D03*
%TO.N,/SPI_MOSI*%
X140830000Y-111450000D03*
X139769251Y-94964779D03*
%TO.N,/D1-CAM_TRIG*%
X148600000Y-103500000D03*
%TO.N,/UART_TX2*%
X145619700Y-106717880D03*
%TO.N,/AUD_OUT-CAM_MCLK*%
X141427200Y-103428800D03*
%TO.N,/USB_D+*%
X152000000Y-110360000D03*
X156845577Y-110906006D03*
%TO.N,/G0*%
X147330461Y-105045436D03*
%TO.N,/SPI_SCK*%
X141950000Y-107100000D03*
X143430000Y-110720000D03*
%TO.N,/AUD_LRCLK*%
X145338800Y-104724200D03*
%TO.N,/UART_TX1*%
X153873200Y-105079800D03*
X140156086Y-107492641D03*
%TO.N,/I2C_SCL1*%
X143925000Y-102350000D03*
X144280000Y-110400000D03*
%TO.N,/SD_CLK*%
X147130000Y-101430000D03*
%TO.N,/SD_DAT1*%
X139650000Y-107050000D03*
%TO.N,/SD_DAT0*%
X140340129Y-106895350D03*
%TO.N,/SD_DAT3*%
X148137000Y-99695000D03*
%TO.N,/SD_CMD*%
X148150000Y-101380000D03*
%TO.N,/SD_DAT2*%
X148610000Y-100520000D03*
%TO.N,/BT_HOST_WAKE*%
X131080000Y-104220000D03*
X135636000Y-93294200D03*
%TO.N,/BT_REG_ON*%
X133330000Y-104370000D03*
X134325000Y-93650000D03*
%TO.N,/WIFI_SDIO_DAT1*%
X152654000Y-103784400D03*
X144002357Y-107367930D03*
%TO.N,/WIFI_SDIO_DAT0*%
X154035200Y-103174800D03*
X143487134Y-107922573D03*
%TO.N,/WL_GPIO_0_HOST_WAKE*%
X155500000Y-97700000D03*
X157657800Y-100355400D03*
%TO.N,/TRACE_CLK*%
X148625000Y-92550000D03*
%TO.N,/TRACE_D3*%
X136575800Y-86029800D03*
%TO.N,/TRACE_D2*%
X137490200Y-86029800D03*
X146826172Y-92621509D03*
%TO.N,/TRACE_D1*%
X138760200Y-85979000D03*
X147375000Y-92450000D03*
%TO.N,/TRACE_D0*%
X139522200Y-85953600D03*
%TO.N,/BOOT0*%
X155400000Y-94825000D03*
%TO.N,/TRACE_CLK*%
X140436600Y-85852000D03*
%TD*%
D29*
%TO.N,/BT_PCM_IN*%
X134600000Y-95400000D02*
X132154992Y-95400000D01*
X132154992Y-95400000D02*
X128548302Y-99006690D01*
X128548302Y-99006690D02*
X128548302Y-102536502D01*
X128548302Y-102536502D02*
X129011801Y-103000001D01*
X129011801Y-103000001D02*
X129850002Y-103000001D01*
%TO.N,/BT_PCM_SYNC*%
X129025000Y-100625000D02*
X129025000Y-100794906D01*
X128766302Y-101053604D02*
X128766302Y-102132000D01*
X129025000Y-100794906D02*
X128766302Y-101053604D01*
X128766302Y-102132000D02*
X128984302Y-102350000D01*
X128984302Y-102350000D02*
X128984302Y-102456100D01*
X128984302Y-102456100D02*
X129128204Y-102600002D01*
X129128204Y-102600002D02*
X129850002Y-102600002D01*
%TO.N,/BT_PCM_OUT*%
X129225000Y-100900000D02*
X129225000Y-100903204D01*
X129225000Y-100903204D02*
X128984302Y-101143902D01*
X128984302Y-101143902D02*
X128984302Y-101990403D01*
X129193899Y-102200000D02*
X129850002Y-102200000D01*
X128984302Y-101990403D02*
X129193899Y-102200000D01*
%TO.N,/BT_PCM_SYNC*%
X130250000Y-99400000D02*
X134600000Y-99400000D01*
X129025000Y-100625000D02*
X130250000Y-99400000D01*
%TO.N,/BT_PCM_OUT*%
X134600000Y-100900000D02*
X129225000Y-100900000D01*
%TO.N,GND*%
X158875000Y-108000000D02*
X158875000Y-108275000D01*
X158875000Y-108275000D02*
X158165800Y-108984200D01*
X158165800Y-108984200D02*
X158165800Y-112681800D01*
X158165800Y-112681800D02*
X157747600Y-113100000D01*
D30*
X158875000Y-108000000D02*
X158344400Y-108000000D01*
X158344400Y-108000000D02*
X155819184Y-110525216D01*
D29*
%TO.N,/D0*%
X137079500Y-94547140D02*
X137079500Y-93920500D01*
X137033000Y-94593640D02*
X137079500Y-94547140D01*
X137033000Y-96334701D02*
X137033000Y-94593640D01*
X137275000Y-96609600D02*
X137275000Y-96576701D01*
X147900000Y-98000000D02*
X144397700Y-98000000D01*
X148325000Y-97575000D02*
X147900000Y-98000000D01*
X144047700Y-98350000D02*
X139015400Y-98350000D01*
X144397700Y-98000000D02*
X144047700Y-98350000D01*
X139015400Y-98350000D02*
X137275000Y-96609600D01*
X137275000Y-96576701D02*
X137033000Y-96334701D01*
X137079500Y-93920500D02*
X137275000Y-93725000D01*
%TO.N,Net-(J1-USB_VIN)*%
X154875000Y-110750000D02*
X154875000Y-110887367D01*
X155475000Y-111602036D02*
X155603213Y-111730249D01*
X154875000Y-110887367D02*
X155237633Y-111250000D01*
X155475000Y-111325000D02*
X155475000Y-111602036D01*
X155237633Y-111250000D02*
X155400000Y-111250000D01*
X155400000Y-111250000D02*
X155475000Y-111325000D01*
X155603213Y-111730249D02*
X155603213Y-112955613D01*
X155603213Y-112955613D02*
X155747600Y-113100000D01*
%TO.N,/UART_CTS1*%
X153854499Y-108386435D02*
X153854498Y-109363566D01*
X153717298Y-108010424D02*
X153717299Y-108249235D01*
X153673000Y-107346616D02*
X153710000Y-107383616D01*
X153717297Y-109657373D02*
X153710000Y-109664670D01*
X153710000Y-107383616D02*
X153710000Y-108003126D01*
X153673000Y-106964702D02*
X153673000Y-107346616D01*
X153650000Y-106500000D02*
X153600000Y-106550000D01*
X153717299Y-108249235D02*
X153854499Y-108386435D01*
X153854498Y-109363566D02*
X153717298Y-109500766D01*
X153717298Y-109500766D02*
X153717297Y-109657373D01*
X153710000Y-109664670D02*
X153710000Y-110947800D01*
X154381100Y-111618900D02*
X154381100Y-112966500D01*
X153636000Y-106927701D02*
X153673000Y-106964702D01*
X153710000Y-108003126D02*
X153717298Y-108010424D01*
X153636000Y-106766204D02*
X153636000Y-106927701D01*
X153600000Y-106730203D02*
X153636000Y-106766204D01*
X153600000Y-106550000D02*
X153600000Y-106730203D01*
X153710000Y-110947800D02*
X154381100Y-111618900D01*
X154381100Y-112966500D02*
X154247600Y-113100000D01*
X153707840Y-106500000D02*
X153650000Y-106500000D01*
%TO.N,/UART_TX1*%
X154000000Y-105100000D02*
X154000000Y-105275000D01*
X154000000Y-105275000D02*
X153075000Y-106200000D01*
X153075000Y-106200000D02*
X153075000Y-106311608D01*
X153075000Y-106311608D02*
X153220900Y-106457508D01*
X153220900Y-106457508D02*
X153220900Y-106659402D01*
X153455000Y-107055000D02*
X153455000Y-107650000D01*
X153220900Y-106659402D02*
X153418000Y-106856502D01*
X153418000Y-107018000D02*
X153455000Y-107055000D01*
X153418000Y-106856502D02*
X153418000Y-107018000D01*
%TO.N,/WL_GPIO_0_HOST_WAKE*%
X155500000Y-97700000D02*
X154231176Y-97700000D01*
X154231176Y-97700000D02*
X152178088Y-99753088D01*
X152178088Y-99753088D02*
X152178088Y-100855316D01*
X152178088Y-100855316D02*
X151125000Y-101908404D01*
X151125000Y-101908404D02*
X151125000Y-103175000D01*
X151125000Y-103175000D02*
X150900000Y-103400000D01*
X150900000Y-103400000D02*
X149950000Y-103400000D01*
%TO.N,/WIFI_SDIO_CMD*%
X151397000Y-102125000D02*
X151397000Y-103743000D01*
X151397000Y-103743000D02*
X151240000Y-103900000D01*
X154350000Y-98780000D02*
X153511800Y-98780000D01*
X153511800Y-98780000D02*
X152425000Y-99866800D01*
X152425000Y-99866800D02*
X152425000Y-101097000D01*
X152425000Y-101097000D02*
X151397000Y-102125000D01*
X151240000Y-103900000D02*
X149950000Y-103900000D01*
%TO.N,/WIFI_SDIO_CLK*%
X154350000Y-99579998D02*
X153511800Y-99579998D01*
X153511800Y-99579998D02*
X152700000Y-100391798D01*
X152700000Y-100391798D02*
X152700000Y-101325000D01*
X152700000Y-101325000D02*
X151615000Y-102410000D01*
X151615000Y-104534999D02*
X150749999Y-105400000D01*
X151615000Y-102410000D02*
X151615000Y-104534999D01*
X150749999Y-105400000D02*
X149950000Y-105400000D01*
%TO.N,/WIFI_SDIO_DAT3*%
X153025000Y-100866799D02*
X153025000Y-101350000D01*
X153511800Y-100379999D02*
X153025000Y-100866799D01*
X154350000Y-100379999D02*
X153511800Y-100379999D01*
X153025000Y-101350000D02*
X151875000Y-102500000D01*
%TO.N,/WIFI_SDIO_DAT1*%
X154350000Y-100779999D02*
X153628199Y-100779999D01*
X152688446Y-102150000D02*
X152688446Y-103661554D01*
X153628199Y-100779999D02*
X153300000Y-101108198D01*
X153300000Y-101108198D02*
X153300000Y-101538446D01*
X153300000Y-101538446D02*
X152688446Y-102150000D01*
X152688446Y-103661554D02*
X152600000Y-103750000D01*
%TO.N,/WIFI_SDIO_DAT3*%
X150749999Y-105900000D02*
X149950000Y-105900000D01*
X151875000Y-102500000D02*
X151875000Y-104774999D01*
X151875000Y-104774999D02*
X150749999Y-105900000D01*
%TO.N,/USB_D+*%
X156845577Y-110906006D02*
X156956206Y-110906006D01*
X156956206Y-110906006D02*
X157247600Y-111197400D01*
X157247600Y-111197400D02*
X157247600Y-113100000D01*
%TO.N,/USB_D-*%
X156747600Y-111472600D02*
X156747600Y-113100000D01*
%TO.N,/I2C_SCL*%
X150000000Y-99350000D02*
X149950000Y-99400000D01*
X151500000Y-100675000D02*
X151696872Y-100478128D01*
X151696872Y-100478128D02*
X151696872Y-100107480D01*
X150939392Y-99350000D02*
X150000000Y-99350000D01*
X151696872Y-100107480D02*
X150939392Y-99350000D01*
%TO.N,/I2C_~{INT}*%
X151200000Y-101175000D02*
X151050000Y-101025000D01*
X151050000Y-101025000D02*
X151050000Y-100550000D01*
X151050000Y-100550000D02*
X150952200Y-100452200D01*
X150952200Y-100452200D02*
X150952200Y-99949000D01*
X150952200Y-99949000D02*
X150828200Y-99825000D01*
X150828200Y-99825000D02*
X150025000Y-99825000D01*
X150025000Y-99825000D02*
X149950000Y-99900000D01*
%TO.N,/~{BOOT}*%
X155925000Y-104602800D02*
X154623872Y-105903928D01*
X155114100Y-112966500D02*
X155247600Y-113100000D01*
X155925000Y-102636098D02*
X155925000Y-104602800D01*
X155834298Y-102636098D02*
X155925000Y-102636098D01*
X155925000Y-98523900D02*
X155834298Y-98523900D01*
X154364498Y-108175186D02*
X154364498Y-109574814D01*
X154220000Y-109875920D02*
X154220000Y-110788878D01*
X154220000Y-110788878D02*
X154854100Y-111422977D01*
X155925000Y-97125000D02*
X155925000Y-98523900D01*
X155834298Y-98523900D02*
X155834298Y-102636098D01*
X154227297Y-109868623D02*
X154220000Y-109875920D01*
X156000000Y-97050000D02*
X155925000Y-97125000D01*
X156000000Y-96958600D02*
X156000000Y-97050000D01*
X156308600Y-96650000D02*
X156000000Y-96958600D01*
X156700000Y-96650000D02*
X156308600Y-96650000D01*
X154623872Y-107190992D02*
X154220000Y-107594864D01*
X154623872Y-105903928D02*
X154623872Y-107190992D01*
X154227299Y-108037987D02*
X154364498Y-108175186D01*
X156825000Y-96775000D02*
X156700000Y-96650000D01*
X154220000Y-107594864D02*
X154220000Y-107791877D01*
X154854100Y-111574876D02*
X154891099Y-111611875D01*
X154220000Y-107791877D02*
X154227297Y-107799174D01*
X154227297Y-107799174D02*
X154227299Y-108037987D01*
X154364498Y-109574814D02*
X154227297Y-109712015D01*
X154227297Y-109712015D02*
X154227297Y-109868623D01*
X154854100Y-111422977D02*
X154854100Y-111574876D01*
X154891099Y-111611875D02*
X154891099Y-112183500D01*
X154891099Y-112183500D02*
X155114100Y-112183500D01*
X155114100Y-112183500D02*
X155114100Y-112966500D01*
%TO.N,/~{RESET}*%
X148800000Y-96775000D02*
X148425000Y-96775000D01*
X144136060Y-97441500D02*
X142417800Y-95723240D01*
X142102860Y-94679500D02*
X141970500Y-94547140D01*
X148425000Y-96775000D02*
X147455000Y-97745000D01*
X144199825Y-97441501D02*
X144136060Y-97441500D01*
X142417800Y-95723240D02*
X142417800Y-94679500D01*
X147455000Y-97745000D02*
X144503324Y-97745000D01*
X144503324Y-97745000D02*
X144199825Y-97441501D01*
X142417800Y-94679500D02*
X142102860Y-94679500D01*
X141970500Y-94547140D02*
X141970500Y-93920500D01*
X141970500Y-93920500D02*
X141775000Y-93725000D01*
D30*
%TO.N,GND*%
X155819184Y-110525216D02*
X156050000Y-110756032D01*
X156087528Y-111562472D02*
X156007713Y-111642287D01*
X156050000Y-110756032D02*
X156050000Y-110784784D01*
X156050000Y-110784784D02*
X156091600Y-110826384D01*
X156091600Y-110826384D02*
X156091600Y-110891343D01*
X156091600Y-110891343D02*
X156137657Y-110937400D01*
X156137657Y-110937400D02*
X156049000Y-111026057D01*
X156049000Y-111523943D02*
X156087528Y-111562472D01*
X156049000Y-111026057D02*
X156049000Y-111523943D01*
D29*
%TO.N,/I2C_SDA*%
X151433576Y-99216424D02*
X151117151Y-98900000D01*
X151117151Y-98900000D02*
X149950000Y-98900000D01*
%TO.N,/I2C_SDA1*%
X149950000Y-97400000D02*
X149150001Y-97400000D01*
X149150001Y-97400000D02*
X148614400Y-97935602D01*
X148614400Y-97935602D02*
X148614400Y-98235600D01*
X144100000Y-101570000D02*
X144190000Y-101660000D01*
X148614400Y-98235600D02*
X147750000Y-99100000D01*
X147750000Y-99100000D02*
X146875000Y-99100000D01*
X144405000Y-101570000D02*
X144100000Y-101570000D01*
X146875000Y-99100000D02*
X144405000Y-101570000D01*
%TO.N,/I2C_SCL1*%
X149950000Y-97900000D02*
X149150001Y-97900000D01*
X149150001Y-97900000D02*
X148869400Y-98180601D01*
X148869400Y-98180601D02*
X148869400Y-98719792D01*
X148869400Y-98719792D02*
X148308692Y-99280500D01*
X145116616Y-101374202D02*
X145116616Y-101415784D01*
X147965308Y-99280500D02*
X147895808Y-99350000D01*
X145116616Y-101415784D02*
X144700708Y-101831692D01*
X147182400Y-99350000D02*
X145483016Y-101049384D01*
X145441434Y-101049384D02*
X145116616Y-101374202D01*
X148308692Y-99280500D02*
X147965308Y-99280500D01*
X143925000Y-102425000D02*
X143925000Y-102350000D01*
X147895808Y-99350000D02*
X147182400Y-99350000D01*
X145483016Y-101049384D02*
X145441434Y-101049384D01*
X144300500Y-102074500D02*
X143940000Y-102435000D01*
X144700708Y-101831692D02*
X144604500Y-101831692D01*
X144604500Y-101831692D02*
X144361692Y-102074500D01*
X144361692Y-102074500D02*
X144300500Y-102074500D01*
X143940000Y-102435000D02*
X143940000Y-102440000D01*
X143940000Y-102440000D02*
X143925000Y-102425000D01*
%TO.N,/USB_VIN*%
X139775000Y-93725000D02*
X139775000Y-92575000D01*
D31*
%TO.N,GND*%
X159175000Y-94575000D02*
X159200000Y-94600000D01*
X157425000Y-92700000D02*
X158525000Y-92700000D01*
X159175000Y-93725000D02*
X159175000Y-94575000D01*
X156400000Y-93725000D02*
X157425000Y-92700000D01*
X158525000Y-92700000D02*
X159175000Y-93350000D01*
X159175000Y-93350000D02*
X159175000Y-93725000D01*
D29*
X145475000Y-89650000D02*
X144925000Y-90200000D01*
X145575000Y-89650000D02*
X145475000Y-89650000D01*
D32*
%TO.N,/TRACE_CLK*%
X148625000Y-92550000D02*
X148625000Y-93375000D01*
X148625000Y-93375000D02*
X148275000Y-93725000D01*
%TO.N,+3.3V*%
X149474998Y-95170000D02*
X149704998Y-95400000D01*
X149704998Y-95400000D02*
X149950000Y-95400000D01*
D29*
%TO.N,/TRACE_D3*%
X146275000Y-92791268D02*
X146276376Y-92789892D01*
X146275000Y-93725000D02*
X146275000Y-92791268D01*
%TO.N,/TRACE_D2*%
X146775000Y-93725000D02*
X146775000Y-93025000D01*
X146775000Y-93025000D02*
X146826172Y-92973828D01*
X146826172Y-92973828D02*
X146826172Y-92851175D01*
%TO.N,/TRACE_D1*%
X147275000Y-92500000D02*
X147275000Y-93725000D01*
%TO.N,/TRACE_D0*%
X147775000Y-92606200D02*
X147775000Y-93725000D01*
X147981200Y-92400000D02*
X147775000Y-92606200D01*
X148050000Y-92400000D02*
X147981200Y-92400000D01*
%TO.N,/VBAT*%
X147900000Y-91350000D02*
X147036302Y-91350000D01*
X147036302Y-91350000D02*
X146917251Y-91469051D01*
X145779500Y-92324476D02*
X145650000Y-92453976D01*
X146917251Y-91469051D02*
X146429297Y-91469051D01*
X145650000Y-92453976D02*
X145650000Y-93600000D01*
X146429297Y-91469051D02*
X145779500Y-92118848D01*
X145779500Y-92118848D02*
X145779500Y-92324476D01*
X145650000Y-93600000D02*
X145775000Y-93725000D01*
%TO.N,/TRACE_CLK*%
X148275000Y-93725000D02*
X148350000Y-93650000D01*
%TO.N,GND*%
X145275000Y-94620000D02*
X145197500Y-94697500D01*
D32*
X145275000Y-94620000D02*
X145067000Y-94828000D01*
X145067000Y-94828000D02*
X144500000Y-94828000D01*
D29*
X145275000Y-93725000D02*
X145275000Y-94720966D01*
X145275000Y-94720966D02*
X144828274Y-95167692D01*
D32*
X145275000Y-93725000D02*
X145275000Y-94620000D01*
D29*
%TO.N,/AUD_BCLK*%
X140502676Y-102351876D02*
X142077476Y-102351876D01*
X138940624Y-100789824D02*
X140502676Y-102351876D01*
X138856000Y-98786000D02*
X138940624Y-98870624D01*
X138940624Y-98870624D02*
X138940624Y-100789824D01*
X138834804Y-98786000D02*
X138856000Y-98786000D01*
X142077476Y-102351876D02*
X142130300Y-102404700D01*
X144884702Y-104948617D02*
X145211085Y-105275000D01*
X137328804Y-97280000D02*
X138834804Y-98786000D01*
X142130300Y-102404700D02*
X142411692Y-102404700D01*
X136426192Y-97280000D02*
X137328804Y-97280000D01*
X142411692Y-102404700D02*
X142654500Y-102647508D01*
X136341692Y-97364500D02*
X136426192Y-97280000D01*
X144674217Y-104948617D02*
X144884702Y-104948617D01*
X135998308Y-97364500D02*
X136341692Y-97364500D01*
X134720000Y-97280000D02*
X135913808Y-97280000D01*
X145467471Y-105275000D02*
X145600000Y-105142471D01*
X135913808Y-97280000D02*
X135998308Y-97364500D01*
X145600000Y-105142471D02*
X145600000Y-105250000D01*
X134600000Y-97400000D02*
X134720000Y-97280000D01*
X142654500Y-102647508D02*
X142654500Y-102928900D01*
X142654500Y-102928900D02*
X144674217Y-104948617D01*
X145211085Y-105275000D02*
X145467471Y-105275000D01*
%TO.N,/UART_CTS1*%
X145575000Y-103675000D02*
X145940600Y-103675000D01*
X145940600Y-103675000D02*
X146380200Y-104114600D01*
X143274300Y-104612001D02*
X143349299Y-104687000D01*
X141487000Y-104612000D02*
X143274300Y-104612001D01*
X140785500Y-104267403D02*
X141057597Y-104539500D01*
X141057597Y-104539500D02*
X141414500Y-104539500D01*
X140785500Y-104006300D02*
X140785500Y-104267403D01*
X144964998Y-105664998D02*
X145025000Y-105725000D01*
X138734800Y-101955600D02*
X140785500Y-104006300D01*
X138176000Y-101955600D02*
X138734800Y-101955600D01*
X137666298Y-101445898D02*
X138176000Y-101955600D01*
X137666298Y-101090298D02*
X137666298Y-101445898D01*
X137200000Y-100624000D02*
X137666298Y-101090298D01*
X141414500Y-104539500D02*
X141487000Y-104612000D01*
X137200000Y-100230000D02*
X137200000Y-100624000D01*
X137260000Y-100170000D02*
X137200000Y-100230000D01*
X143349299Y-104687000D02*
X143750675Y-104687001D01*
X143989375Y-104750000D02*
X144904374Y-105664999D01*
X143750675Y-104687001D02*
X143813675Y-104750000D01*
X146380200Y-105226800D02*
X146380200Y-104114600D01*
X143813675Y-104750000D02*
X143989375Y-104750000D01*
X144904374Y-105664999D02*
X144964998Y-105664998D01*
X145025000Y-105725000D02*
X145882000Y-105725000D01*
X145882000Y-105725000D02*
X146380200Y-105226800D01*
%TO.N,/CAN-RX*%
X148078000Y-106422000D02*
X148539200Y-105960800D01*
X148539200Y-105960800D02*
X148539200Y-105510801D01*
X148539200Y-105510801D02*
X149150001Y-104900000D01*
X149150001Y-104900000D02*
X149950000Y-104900000D01*
%TO.N,/G0*%
X148082000Y-103378000D02*
X148082000Y-103124000D01*
X147333522Y-105045436D02*
X147548600Y-104830358D01*
X147548600Y-104830358D02*
X147548600Y-103911400D01*
X147330461Y-105045436D02*
X147333522Y-105045436D01*
X147548600Y-103911400D02*
X148082000Y-103378000D01*
X148082000Y-103124000D02*
X148806000Y-102400000D01*
X148806000Y-102400000D02*
X149950000Y-102400000D01*
%TO.N,/G1*%
X147494052Y-106422252D02*
X147494052Y-106600052D01*
X148603308Y-106810500D02*
X148946692Y-106810500D01*
X149933200Y-106883200D02*
X149950000Y-106900000D01*
X147494052Y-106600052D02*
X147777200Y-106883200D01*
X147777200Y-106883200D02*
X148530608Y-106883200D01*
X148946692Y-106810500D02*
X149019392Y-106883200D01*
X148530608Y-106883200D02*
X148603308Y-106810500D01*
X149019392Y-106883200D02*
X149933200Y-106883200D01*
%TO.N,/CAN-TX*%
X149950000Y-104400000D02*
X148961192Y-104400000D01*
X148961192Y-104400000D02*
X148846692Y-104514500D01*
X148846692Y-104514500D02*
X148503308Y-104514500D01*
X148503308Y-104514500D02*
X148499104Y-104510296D01*
X148499104Y-104510296D02*
X147357594Y-105651806D01*
X147357594Y-105651806D02*
X147357594Y-105860500D01*
X147357594Y-105860500D02*
X147118094Y-106100000D01*
X147118094Y-106100000D02*
X147100000Y-106100000D01*
%TO.N,/A0*%
X143259000Y-104905000D02*
X143184001Y-104830001D01*
X147352402Y-107137200D02*
X146195201Y-105980000D01*
X144735376Y-105980000D02*
X143660377Y-104905001D01*
X151552097Y-108712000D02*
X151552097Y-108602097D01*
X148550097Y-107657000D02*
X148030296Y-107137200D01*
X135945500Y-99901692D02*
X135945500Y-99900000D01*
X146195201Y-105980000D02*
X144735376Y-105980000D01*
X148600238Y-107657000D02*
X148550097Y-107657000D01*
X136188308Y-100144500D02*
X135945500Y-99901692D01*
X143660377Y-104905001D02*
X143259000Y-104905000D01*
X148030296Y-107137200D02*
X147352402Y-107137200D01*
X135945500Y-99900000D02*
X134600000Y-99900000D01*
X148718237Y-107775000D02*
X148600238Y-107657000D01*
X136188308Y-100425108D02*
X136188308Y-100144500D01*
X150725000Y-107775000D02*
X148718237Y-107775000D01*
X140567500Y-104245500D02*
X138633200Y-102311200D01*
X151552097Y-108602097D02*
X150725000Y-107775000D01*
X151579084Y-108685013D02*
X151552097Y-108712000D01*
X141324201Y-104757500D02*
X140967298Y-104757500D01*
X143184001Y-104830001D02*
X141396701Y-104830000D01*
X141396701Y-104830000D02*
X141324201Y-104757500D01*
X140967298Y-104757500D02*
X140567500Y-104357701D01*
X140567500Y-104357701D02*
X140567500Y-104245500D01*
X138633200Y-102311200D02*
X138074400Y-102311200D01*
X138074400Y-102311200D02*
X136188308Y-100425108D01*
%TO.N,/A1*%
X145948400Y-106235000D02*
X146141903Y-106235000D01*
X148279871Y-107893679D02*
X148528617Y-107893679D01*
X148627938Y-107993000D02*
X150293000Y-107993000D01*
X146141903Y-106235000D02*
X147342404Y-107435500D01*
X147342404Y-107435500D02*
X147821692Y-107435500D01*
X147821692Y-107435500D02*
X148279871Y-107893679D01*
X148528617Y-107893679D02*
X148627938Y-107993000D01*
X150293000Y-107993000D02*
X150975000Y-108675000D01*
X150975000Y-108675000D02*
X150975000Y-108750000D01*
X150975000Y-108750000D02*
X151025000Y-108800000D01*
D32*
%TO.N,GND*%
X155819184Y-110525216D02*
X155714016Y-110525216D01*
X155714016Y-110525216D02*
X155016200Y-109827400D01*
%TO.N,+3.3V*%
X137988802Y-95693400D02*
X137988802Y-95656400D01*
X138155002Y-95859600D02*
X137988802Y-95693400D01*
X137988802Y-95656400D02*
X137775000Y-95442598D01*
X137775000Y-95442598D02*
X137775000Y-93725000D01*
D29*
%TO.N,/CAN-RX*%
X148150000Y-111120000D02*
X147747600Y-111522400D01*
X147747600Y-111522400D02*
X147747600Y-113100000D01*
%TO.N,GND*%
X148077100Y-114046000D02*
X148194000Y-114046000D01*
X148194000Y-114046000D02*
X148247600Y-113992400D01*
X146747600Y-113100000D02*
X146747600Y-113952000D01*
X146747600Y-113952000D02*
X146775100Y-113979500D01*
X146960000Y-114046000D02*
X148077100Y-114046000D01*
X146775100Y-113979500D02*
X146893500Y-113979500D01*
X146893500Y-113979500D02*
X146960000Y-114046000D01*
X139247600Y-113100000D02*
X139247600Y-113883000D01*
X139247600Y-113883000D02*
X139389600Y-114025000D01*
X139389600Y-114025000D02*
X147055000Y-114025000D01*
X148247600Y-113992400D02*
X148247600Y-113100000D01*
X138610789Y-105880279D02*
X137421981Y-105880279D01*
X139103308Y-106076779D02*
X138934029Y-105907500D01*
X140921288Y-105961007D02*
X140740276Y-105780000D01*
X139446692Y-106076779D02*
X139103308Y-106076779D01*
X138934029Y-105907500D02*
X138638009Y-105907500D01*
X139689500Y-105833971D02*
X139446692Y-106076779D01*
X140740276Y-105780000D02*
X139689500Y-105780000D01*
X139689500Y-105780000D02*
X139689500Y-105833971D01*
X138638009Y-105907500D02*
X138610789Y-105880279D01*
X141101884Y-105961007D02*
X140921288Y-105961007D01*
X141101891Y-105961000D02*
X141101884Y-105961007D01*
X141724200Y-105961000D02*
X141101891Y-105961000D01*
X142341600Y-106578400D02*
X141724200Y-105961000D01*
X137421981Y-105880279D02*
X137141702Y-105600000D01*
X137141702Y-105600000D02*
X136375000Y-105600000D01*
%TO.N,/SPI_SCK1*%
X135226640Y-103900000D02*
X134600000Y-103900000D01*
X135601640Y-103525000D02*
X135226640Y-103900000D01*
X137695000Y-103525000D02*
X135601640Y-103525000D01*
X138616692Y-104446692D02*
X137695000Y-103525000D01*
X138676638Y-104446692D02*
X138616692Y-104446692D01*
X138734518Y-104504572D02*
X138676638Y-104446692D01*
%TO.N,/UART_RX1*%
X139799290Y-104530710D02*
X140867195Y-105598616D01*
X139248580Y-103980000D02*
X138970000Y-103980000D01*
%TO.N,/UART_RTS1*%
X138780000Y-103400000D02*
X138810000Y-103430000D01*
X140748360Y-107975000D02*
X140275000Y-108448360D01*
X138810000Y-103430000D02*
X139006877Y-103430000D01*
X139006877Y-103430000D02*
X141101878Y-105525000D01*
X141101878Y-105525000D02*
X142500000Y-105525000D01*
X142500000Y-105525000D02*
X143175000Y-106200000D01*
X143175000Y-106200000D02*
X143175000Y-106843886D01*
X143175000Y-106843886D02*
X142043885Y-107975000D01*
X142043885Y-107975000D02*
X140748360Y-107975000D01*
X140275000Y-108448360D02*
X140275000Y-109075000D01*
%TO.N,/SPI_CIPO1*%
X137475000Y-104400000D02*
X134600000Y-104400000D01*
X138040673Y-104965673D02*
X137475000Y-104400000D01*
X138590673Y-104965673D02*
X138040673Y-104965673D01*
X138800000Y-105175000D02*
X138590673Y-104965673D01*
%TO.N,/~{SPI_CS}*%
X144275000Y-109075000D02*
X144275000Y-109818808D01*
X144247600Y-112191799D02*
X144247600Y-113100000D01*
X144275000Y-109818808D02*
X143865500Y-110228308D01*
X143865500Y-110228308D02*
X143865500Y-110830010D01*
X143865500Y-110830010D02*
X143817500Y-110878010D01*
X143817500Y-110878010D02*
X143817500Y-111761699D01*
X143817500Y-111761699D02*
X144247600Y-112191799D01*
%TO.N,/I2C_SCL1*%
X144280000Y-110400000D02*
X144280000Y-110723808D01*
X144280000Y-110723808D02*
X144035500Y-110968308D01*
X144035500Y-110968308D02*
X144035500Y-111671400D01*
X144035500Y-111671400D02*
X144747600Y-112383500D01*
X144747600Y-112383500D02*
X144747600Y-113100000D01*
%TO.N,/I2C_SDA1*%
X144450000Y-111140000D02*
X145247600Y-111937600D01*
X145247600Y-111937600D02*
X145247600Y-113100000D01*
%TO.N,/G3*%
X144775000Y-109075000D02*
X144775000Y-109874999D01*
X144775000Y-109874999D02*
X145485501Y-110585500D01*
X145485501Y-110585500D02*
X145791692Y-110585500D01*
X145791692Y-110585500D02*
X146150000Y-110943808D01*
X146150000Y-110943808D02*
X146150000Y-111390000D01*
%TO.N,/G2*%
X145275000Y-109075000D02*
X145275000Y-109786702D01*
X145275000Y-109786702D02*
X145816928Y-110328630D01*
X145816928Y-110328630D02*
X146108630Y-110328630D01*
X146108630Y-110328630D02*
X146597346Y-110817346D01*
X146597346Y-110817346D02*
X146597346Y-110949912D01*
%TO.N,/CAN-TX*%
X147247600Y-111367600D02*
X147140000Y-111260000D01*
D31*
%TO.N,GND*%
X139170000Y-111414000D02*
X139162123Y-111414000D01*
X139220000Y-111160000D02*
X139220000Y-111250000D01*
X139220000Y-111250000D02*
X139170000Y-111300000D01*
X139162123Y-111414000D02*
X138854000Y-111722123D01*
X139170000Y-111300000D02*
X139170000Y-111414000D01*
X138854000Y-111722123D02*
X138854000Y-112157877D01*
X138854000Y-112157877D02*
X139162123Y-112466000D01*
X139162123Y-112466000D02*
X139247600Y-112466000D01*
X139247600Y-112466000D02*
X139247600Y-113100000D01*
D30*
X135864600Y-90121400D02*
X133528600Y-90121400D01*
X133528600Y-90121400D02*
X133325000Y-90325000D01*
X145575000Y-89650000D02*
X147925000Y-89650000D01*
X147925000Y-89650000D02*
X149625000Y-91350000D01*
X139039600Y-90150000D02*
X137544200Y-90150000D01*
X137544200Y-90150000D02*
X137541000Y-90146800D01*
X140550000Y-89650000D02*
X139970000Y-89650000D01*
X139970000Y-89650000D02*
X139470000Y-90150000D01*
X139470000Y-90150000D02*
X139039600Y-90150000D01*
X140550000Y-89650000D02*
X140550000Y-92040000D01*
X140550000Y-92040000D02*
X140610000Y-92100000D01*
D29*
%TO.N,/SPI_COPI1*%
X136750000Y-104900000D02*
X134600000Y-104900000D01*
X137512279Y-105662279D02*
X136750000Y-104900000D01*
X138701087Y-105662279D02*
X137512279Y-105662279D01*
X138728308Y-105689500D02*
X138701087Y-105662279D01*
X139071692Y-105689500D02*
X138728308Y-105689500D01*
X139275000Y-105662279D02*
X139098913Y-105662279D01*
X139098913Y-105662279D02*
X139071692Y-105689500D01*
%TO.N,/SD_DAT0*%
X140340129Y-106895350D02*
X140170350Y-106895350D01*
X139850000Y-106575000D02*
X138975001Y-106575000D01*
X140170350Y-106895350D02*
X139850000Y-106575000D01*
X138975001Y-106575000D02*
X137275000Y-108275001D01*
X137275000Y-108275001D02*
X137275000Y-109075000D01*
%TO.N,/SWDIO*%
X146227800Y-106908600D02*
X146200000Y-106936400D01*
X146200000Y-106936400D02*
X146200000Y-107025000D01*
X146200000Y-107025000D02*
X146225000Y-107050000D01*
X146225000Y-107050000D02*
X146267600Y-107050000D01*
X146267600Y-107050000D02*
X146775000Y-107557400D01*
X146775000Y-107557400D02*
X146775000Y-109075000D01*
%TO.N,/AUD_IN-CAM_PCLK*%
X137604624Y-98182000D02*
X135681999Y-98182000D01*
X142000000Y-103501200D02*
X142000000Y-103200000D01*
X142080000Y-103581200D02*
X142000000Y-103501200D01*
X135681999Y-98182000D02*
X135399999Y-97900000D01*
X135399999Y-97900000D02*
X134600000Y-97900000D01*
X142000000Y-103200000D02*
X141793500Y-102993500D01*
X138722624Y-100914326D02*
X138722624Y-99300000D01*
X138722624Y-99300000D02*
X137604624Y-98182000D01*
X141793500Y-102993500D02*
X140801798Y-102993500D01*
X140801798Y-102993500D02*
X138722624Y-100914326D01*
%TO.N,/AUD_OUT-CAM_MCLK*%
X141443500Y-103412500D02*
X141512500Y-103412500D01*
X141427200Y-103428800D02*
X141443500Y-103412500D01*
%TO.N,/BATT_VIN*%
X141478000Y-97282000D02*
X141376400Y-97180400D01*
X141376400Y-97180400D02*
X141376400Y-93826400D01*
X141376400Y-93826400D02*
X141275000Y-93725000D01*
D31*
%TO.N,GND*%
X139420600Y-95300800D02*
X139000078Y-94880278D01*
X139000078Y-94880278D02*
X139000078Y-94832600D01*
X139954000Y-97358200D02*
X139954000Y-95935800D01*
X139954000Y-95935800D02*
X139420600Y-95402400D01*
X139420600Y-95402400D02*
X139420600Y-95300800D01*
D32*
%TO.N,+3.3V*%
X139051695Y-95928337D02*
X139051695Y-95911693D01*
X138275000Y-95134998D02*
X138275000Y-93725000D01*
X139051695Y-95911693D02*
X138275000Y-95134998D01*
D29*
%TO.N,/SPI_MOSI*%
X140775000Y-94961192D02*
X140775000Y-93725000D01*
X140421692Y-95314500D02*
X140775000Y-94961192D01*
X139725400Y-95100400D02*
X139939500Y-95314500D01*
X139769251Y-94964779D02*
X139725400Y-95008630D01*
X139939500Y-95314500D02*
X140421692Y-95314500D01*
X139725400Y-95008630D02*
X139725400Y-95100400D01*
D31*
%TO.N,GND*%
X141808200Y-94970600D02*
X142113000Y-95275400D01*
X142113000Y-95275400D02*
X142113000Y-98044000D01*
X140639800Y-98044000D02*
X142113000Y-98044000D01*
X139954000Y-97358200D02*
X140639800Y-98044000D01*
D29*
%TO.N,/UART_RX1*%
X140875000Y-100924745D02*
X141550255Y-101600000D01*
X141550255Y-101600000D02*
X142538808Y-101600000D01*
X142538808Y-101600000D02*
X144088808Y-103150000D01*
X144088808Y-103150000D02*
X147050000Y-103150000D01*
X147050000Y-103150000D02*
X147237500Y-103337500D01*
%TO.N,/A1*%
X143013376Y-105300000D02*
X143153376Y-105160000D01*
X141900000Y-105300000D02*
X143013376Y-105300000D01*
X134600000Y-100400000D02*
X135730192Y-100400000D01*
X143153376Y-105160000D02*
X143554753Y-105160001D01*
X141648001Y-105048001D02*
X141900000Y-105300000D01*
X141306403Y-105048000D02*
X141648001Y-105048001D01*
X140349500Y-104447999D02*
X140876999Y-104975500D01*
X140349500Y-104383100D02*
X140349500Y-104447999D01*
X138630848Y-102664448D02*
X140349500Y-104383100D01*
X140876999Y-104975500D02*
X141233902Y-104975500D01*
X137994640Y-102664448D02*
X138630848Y-102664448D01*
X135730192Y-100400000D02*
X137994640Y-102664448D01*
X141233902Y-104975500D02*
X141306403Y-105048000D01*
X143554753Y-105160001D02*
X144629752Y-106235000D01*
X144629752Y-106235000D02*
X145948400Y-106235000D01*
%TO.N,/AUD_LRCLK*%
X139158624Y-100617124D02*
X140285500Y-101744000D01*
X138925102Y-98568000D02*
X138958000Y-98568000D01*
X137057000Y-96667000D02*
X137057000Y-96699899D01*
X139158624Y-98768624D02*
X139158624Y-100617124D01*
X135685271Y-96510000D02*
X136900000Y-96510000D01*
X135447140Y-96679500D02*
X135515771Y-96679500D01*
X136900000Y-96510000D02*
X137057000Y-96667000D01*
X137057000Y-96699899D02*
X138925102Y-98568000D01*
X135515771Y-96679500D02*
X135685271Y-96510000D01*
X135422140Y-96704500D02*
X135447140Y-96679500D01*
X134795500Y-96704500D02*
X135422140Y-96704500D01*
X138958000Y-98568000D02*
X139158624Y-98768624D01*
X134600000Y-96900000D02*
X134795500Y-96704500D01*
X140285500Y-101744000D02*
X140285500Y-101771692D01*
X140556000Y-102014500D02*
X140638064Y-102096564D01*
X144975000Y-104600000D02*
X145350000Y-104600000D01*
X140285500Y-101771692D02*
X140528308Y-102014500D01*
X140528308Y-102014500D02*
X140556000Y-102014500D01*
X140638064Y-102096564D02*
X142471564Y-102096564D01*
X142471564Y-102096564D02*
X144975000Y-104600000D01*
%TO.N,/AUD_OUT-CAM_MCLK*%
X134600000Y-98400000D02*
X137210000Y-98400000D01*
X137210000Y-98400000D02*
X138410000Y-99600000D01*
X138410000Y-99600000D02*
X138410000Y-100910000D01*
X140860518Y-103360518D02*
X141460518Y-103360518D01*
X138410000Y-100910000D02*
X140860518Y-103360518D01*
X141460518Y-103360518D02*
X141512500Y-103412500D01*
%TO.N,/AUD_MCLK*%
X134600000Y-98900000D02*
X135226640Y-98900000D01*
X136163808Y-99340000D02*
X136188308Y-99315500D01*
X135226640Y-98900000D02*
X135666640Y-99340000D01*
X135666640Y-99340000D02*
X136163808Y-99340000D01*
X136188308Y-99315500D02*
X136531692Y-99315500D01*
X136531692Y-99315500D02*
X136556192Y-99340000D01*
X136556192Y-99340000D02*
X137520000Y-99340000D01*
X137520000Y-99340000D02*
X138150000Y-99970000D01*
X138150000Y-99970000D02*
X138150000Y-101000000D01*
X138150000Y-101000000D02*
X141056090Y-103906090D01*
D31*
%TO.N,GND*%
X143425000Y-101900000D02*
X142252579Y-100727579D01*
X142252579Y-100727579D02*
X141351000Y-100727579D01*
X141351000Y-100727579D02*
X141072166Y-100448745D01*
X140451255Y-100448745D02*
X140425000Y-100475000D01*
D29*
%TO.N,/UART_RTS1*%
X143425000Y-101375000D02*
X142289000Y-100239000D01*
X142289000Y-100239000D02*
X141562564Y-100239000D01*
X141562564Y-100239000D02*
X141298564Y-99975000D01*
X141298564Y-99975000D02*
X140075000Y-99975000D01*
X140075000Y-99975000D02*
X140000000Y-100050000D01*
D31*
%TO.N,GND*%
X140425000Y-100475000D02*
X140399000Y-100501000D01*
X140399000Y-100501000D02*
X140399000Y-101299000D01*
X140399000Y-101299000D02*
X140700000Y-101600000D01*
D29*
X146725000Y-100550000D02*
X145671116Y-101603884D01*
X147590000Y-100550000D02*
X146725000Y-100550000D01*
D31*
X140425000Y-100475000D02*
X140374000Y-100526000D01*
X140374000Y-100526000D02*
X139802834Y-100526000D01*
X139802834Y-100526000D02*
X139524000Y-100247166D01*
X139524000Y-100247166D02*
X139524000Y-99852834D01*
X139524000Y-99852834D02*
X139802834Y-99574000D01*
X139802834Y-99574000D02*
X141681746Y-99574000D01*
X141681746Y-99574000D02*
X141792246Y-99684500D01*
X150291800Y-109448600D02*
X151681400Y-109448600D01*
X151681400Y-109448600D02*
X152030000Y-109100000D01*
D29*
X148937500Y-108610860D02*
X148700820Y-108374180D01*
D31*
X149775240Y-109448600D02*
X148700820Y-108374180D01*
X150291800Y-109448600D02*
X149775240Y-109448600D01*
X147775000Y-109075000D02*
X147775000Y-108398166D01*
X147775000Y-108398166D02*
X147909000Y-108264166D01*
X129675000Y-109100000D02*
X129675000Y-107600000D01*
X130420000Y-108380000D02*
X130395000Y-108380000D01*
X130395000Y-108380000D02*
X129675000Y-109100000D01*
X132423378Y-108544500D02*
X132258878Y-108380000D01*
X132258878Y-108380000D02*
X130420000Y-108380000D01*
X133292869Y-107675009D02*
X132423378Y-108544500D01*
X133292869Y-106998564D02*
X133292869Y-107675009D01*
X130420000Y-108380000D02*
X130420000Y-106490000D01*
X130420000Y-106490000D02*
X130370000Y-106440000D01*
X156400000Y-93725000D02*
X157300000Y-94625000D01*
X157300000Y-94625000D02*
X157300000Y-97500000D01*
X157300000Y-97500000D02*
X157325000Y-97525000D01*
X155400000Y-99091199D02*
X155400000Y-99774798D01*
X155400000Y-99774798D02*
X155194798Y-99980000D01*
X155194798Y-99980000D02*
X154350000Y-99980000D01*
X155400000Y-98575000D02*
X155400000Y-99091199D01*
X155400000Y-99091199D02*
X155311200Y-99179999D01*
X155311200Y-99179999D02*
X154350000Y-99179999D01*
D32*
X157988000Y-101092000D02*
X158419800Y-100660200D01*
X158419800Y-100660200D02*
X158419800Y-100169800D01*
X158425000Y-99484000D02*
X158001000Y-99060000D01*
X158419800Y-100169800D02*
X158425000Y-100164600D01*
X158425000Y-100164600D02*
X158425000Y-99484000D01*
X158001000Y-99060000D02*
X157734000Y-99060000D01*
D29*
%TO.N,/VBAT*%
X145796000Y-94996000D02*
X145775000Y-94975000D01*
X145775000Y-94975000D02*
X145775000Y-93725000D01*
%TO.N,GND*%
X156699998Y-99179999D02*
X157614001Y-99179999D01*
D30*
X156007713Y-111642287D02*
X156175425Y-111810000D01*
D29*
X149747600Y-111606400D02*
X149747600Y-113100000D01*
D32*
X132491500Y-95900000D02*
X132401000Y-95990500D01*
D29*
X150200000Y-89600000D02*
X150050000Y-89750000D01*
X149715000Y-113975000D02*
X149577100Y-113975000D01*
D32*
X149950000Y-95900000D02*
X151250000Y-95900000D01*
D29*
X149686400Y-111606400D02*
X149747600Y-111606400D01*
X147775000Y-108448360D02*
X147775000Y-109075000D01*
D32*
X151269230Y-95919230D02*
X153845499Y-95919230D01*
D29*
X157614001Y-99179999D02*
X157734000Y-99060000D01*
D31*
X153786000Y-103770000D02*
X154278798Y-103770000D01*
D29*
X148438319Y-108111679D02*
X148111681Y-108111679D01*
X139039600Y-90223000D02*
X139039600Y-89289600D01*
X157747600Y-113952000D02*
X157747600Y-113100000D01*
D31*
X154278798Y-103770000D02*
X155450000Y-102598798D01*
D32*
X157988000Y-101092000D02*
X157950000Y-101130000D01*
X144041348Y-94828000D02*
X144500000Y-94828000D01*
D29*
X131181904Y-103231904D02*
X131413807Y-103000001D01*
X131181904Y-103231904D02*
X131181904Y-102020859D01*
X156247600Y-113883000D02*
X156381100Y-114016500D01*
X149577100Y-113979500D02*
X148418100Y-113979500D01*
X156381100Y-114016500D02*
X157683100Y-114016500D01*
X149497100Y-111417100D02*
X149686400Y-111606400D01*
X157900002Y-101179998D02*
X157988000Y-101092000D01*
X131413807Y-103000001D02*
X132200000Y-103000001D01*
X148700820Y-108374180D02*
X148438319Y-108111679D01*
X148937500Y-108637500D02*
X148937500Y-108610860D01*
X129675000Y-107600000D02*
X129675000Y-106250000D01*
X149577100Y-113975000D02*
X149577100Y-113979500D01*
X139275000Y-94557678D02*
X139000078Y-94832600D01*
D32*
X143775000Y-94561652D02*
X144041348Y-94828000D01*
D29*
X131181904Y-102020859D02*
X130780018Y-101618973D01*
D32*
X157950000Y-101130000D02*
X157950000Y-106100000D01*
D29*
X148339600Y-113975000D02*
X148247600Y-113883000D01*
D31*
X155450000Y-102598798D02*
X155450000Y-101718800D01*
D32*
X134600000Y-95900000D02*
X132491500Y-95900000D01*
D31*
X153593800Y-103962200D02*
X153786000Y-103770000D01*
D29*
X145630000Y-89750000D02*
X145542000Y-89662000D01*
X132200000Y-102600002D02*
X132200000Y-103000001D01*
X148418100Y-113975000D02*
X148339600Y-113975000D01*
X156699998Y-101179998D02*
X157900002Y-101179998D01*
X152030000Y-109100000D02*
X151959800Y-109029800D01*
X133299200Y-106984800D02*
X131884000Y-108400000D01*
D32*
X156247600Y-111882174D02*
X156007713Y-111642287D01*
D29*
X156699998Y-99980000D02*
X156699998Y-99579998D01*
D31*
X155311200Y-101580000D02*
X154350000Y-101580000D01*
X154350000Y-101179998D02*
X154350000Y-101580000D01*
X155450000Y-101718800D02*
X155311200Y-101580000D01*
D29*
X156699998Y-98780000D02*
X156699998Y-99579998D01*
X130613808Y-103800000D02*
X131181904Y-103231904D01*
X140515000Y-91485000D02*
X140500000Y-91500000D01*
X137541000Y-90146800D02*
X137541000Y-89541000D01*
X129675000Y-106250000D02*
X129725000Y-106200000D01*
X156699998Y-101179998D02*
X156699998Y-101580000D01*
D32*
X145572000Y-95900000D02*
X149950000Y-95900000D01*
D29*
X129850002Y-103800000D02*
X130613808Y-103800000D01*
D32*
X151900000Y-95900000D02*
X152200000Y-96200000D01*
X144500000Y-94828000D02*
X145572000Y-95900000D01*
D29*
X131884000Y-108400000D02*
X130375000Y-108400000D01*
X140515000Y-89662000D02*
X140515000Y-91485000D01*
X129675000Y-109100000D02*
X130375000Y-108400000D01*
X137541000Y-89541000D02*
X137250000Y-89250000D01*
X156699998Y-100779999D02*
X156699998Y-101179998D01*
X129675000Y-107600000D02*
X129675000Y-107150000D01*
X148247600Y-113883000D02*
X148247600Y-113100000D01*
X148111681Y-108111679D02*
X147775000Y-108448360D01*
X151959800Y-109029800D02*
X151929800Y-109029800D01*
D32*
X156247600Y-113100000D02*
X156247600Y-111882174D01*
D29*
X139275000Y-93725000D02*
X139275000Y-94557678D01*
X150050000Y-89750000D02*
X145630000Y-89750000D01*
D32*
X151250000Y-95900000D02*
X151269230Y-95919230D01*
D29*
X139039600Y-89289600D02*
X139000000Y-89250000D01*
X149747600Y-113942400D02*
X149715000Y-113975000D01*
D32*
X151250000Y-95900000D02*
X151900000Y-95900000D01*
X143775000Y-93725000D02*
X143775000Y-94561652D01*
D29*
X134600000Y-106900000D02*
X133384000Y-106900000D01*
X129850002Y-104200002D02*
X129850002Y-103800000D01*
X133384000Y-106900000D02*
X133299200Y-106984800D01*
X148418100Y-113979500D02*
X148418100Y-113975000D01*
X157683100Y-114016500D02*
X157747600Y-113952000D01*
X156247600Y-113100000D02*
X156247600Y-113883000D01*
X143775000Y-93725000D02*
X143775000Y-94524999D01*
X149747600Y-113100000D02*
X149747600Y-113942400D01*
X129675000Y-107150000D02*
X130350000Y-106475000D01*
%TO.N,Net-(U1-PC14)*%
X144775000Y-91575000D02*
X144775000Y-93725000D01*
X144925000Y-91425000D02*
X144775000Y-91575000D01*
X143850000Y-90400000D02*
X144975000Y-91525000D01*
X143850000Y-89650000D02*
X143850000Y-90400000D01*
%TO.N,/~{RESET}*%
X139848000Y-91948000D02*
X139039600Y-91948000D01*
X141775000Y-93725000D02*
X141775000Y-92925001D01*
X136100000Y-87550000D02*
X136475000Y-87175000D01*
X140145000Y-87175000D02*
X142520000Y-84800000D01*
X140525000Y-92625000D02*
X139848000Y-91948000D01*
X137386222Y-91142800D02*
X136531100Y-90287678D01*
X138234400Y-91142800D02*
X137386222Y-91142800D01*
X136475000Y-87175000D02*
X140145000Y-87175000D01*
X136531100Y-90287678D02*
X136531100Y-89637122D01*
X141775000Y-93046034D02*
X141775000Y-93725000D01*
X139039600Y-91948000D02*
X138234400Y-91142800D01*
X142520000Y-84800000D02*
X142520000Y-83970000D01*
X141474999Y-92625000D02*
X140525000Y-92625000D01*
X141775000Y-92925001D02*
X141474999Y-92625000D01*
X136531100Y-89637122D02*
X136100000Y-89206022D01*
X136100000Y-89206022D02*
X136100000Y-87550000D01*
%TO.N,Net-(U1-PC15)*%
X141825000Y-91425000D02*
X142653966Y-91425000D01*
X142275000Y-91125000D02*
X141875000Y-91525000D01*
X144275000Y-92925001D02*
X144275000Y-93725000D01*
X142275000Y-89650000D02*
X142275000Y-91125000D01*
X142653966Y-91425000D02*
X144275000Y-93046034D01*
X144275000Y-93046034D02*
X144275000Y-93725000D01*
D30*
%TO.N,+3.3V*%
X132000001Y-104800000D02*
X132200000Y-104800000D01*
D32*
X134600000Y-107400000D02*
X136160000Y-107400000D01*
D29*
X148292600Y-109075000D02*
X148275000Y-109075000D01*
D30*
X131298281Y-105000000D02*
X131897434Y-105000000D01*
D32*
X131509500Y-109209500D02*
X131400000Y-109100000D01*
X156575000Y-108220000D02*
X156575000Y-108115000D01*
D29*
X156699998Y-102250000D02*
X156699998Y-102870002D01*
D32*
X138275000Y-92509400D02*
X138275000Y-93725000D01*
X137046600Y-92622000D02*
X136271000Y-91846400D01*
X137728000Y-92841348D02*
X137508652Y-92622000D01*
X138178600Y-92509400D02*
X137541000Y-91871800D01*
D29*
X156699998Y-102870002D02*
X156680000Y-102890000D01*
D32*
X143275000Y-95743932D02*
X143336234Y-95805166D01*
D30*
X131897434Y-105000000D02*
X131897434Y-104902567D01*
D32*
X133450000Y-109209500D02*
X134470000Y-108189500D01*
D31*
X135653000Y-94883000D02*
X134980000Y-94210000D01*
D30*
X156593200Y-106705400D02*
X156593200Y-108201800D01*
D29*
X148275000Y-109075000D02*
X148275000Y-109357000D01*
X147624501Y-107925501D02*
X147275000Y-108275001D01*
X132200000Y-104600001D02*
X132200000Y-104800000D01*
D32*
X156745000Y-105120000D02*
X156745000Y-102955000D01*
X137728000Y-93303400D02*
X137728000Y-92841348D01*
X138275000Y-92509400D02*
X138178600Y-92509400D01*
D29*
X149780000Y-79340000D02*
X148330000Y-79340000D01*
D30*
X155495700Y-108102400D02*
X156088100Y-107510000D01*
D31*
X134950000Y-94180000D02*
X134980000Y-94210000D01*
D32*
X137508652Y-92622000D02*
X137046600Y-92622000D01*
X143275000Y-93725000D02*
X143275000Y-95743932D01*
X156575000Y-108115000D02*
X155970000Y-107510000D01*
X137775000Y-93350400D02*
X137728000Y-93303400D01*
D29*
X156699998Y-101979999D02*
X156699998Y-102250000D01*
D30*
X131073637Y-105224644D02*
X131298281Y-105000000D01*
D29*
X156699998Y-102250000D02*
X156699998Y-102379998D01*
X148275000Y-109357000D02*
X148417400Y-109499400D01*
X148330000Y-79340000D02*
X147600000Y-80070000D01*
D30*
X156593200Y-108201800D02*
X156575000Y-108220000D01*
D31*
X135653000Y-96146999D02*
X135653000Y-94883000D01*
D29*
X132200000Y-104800000D02*
X132200000Y-105000000D01*
D32*
X137775000Y-93725000D02*
X137775000Y-93350400D01*
D31*
X133150000Y-94180000D02*
X134950000Y-94180000D01*
D32*
X134470000Y-108189500D02*
X134470000Y-107530000D01*
X156745000Y-102955000D02*
X156680000Y-102890000D01*
D31*
X134600000Y-96400000D02*
X135399999Y-96400000D01*
D30*
X155016200Y-108102400D02*
X155495700Y-108102400D01*
D32*
X136160000Y-107400000D02*
X136220000Y-107460000D01*
X134470000Y-107530000D02*
X134600000Y-107400000D01*
X136271000Y-91846400D02*
X135864600Y-91846400D01*
D29*
X147275000Y-108275001D02*
X147275000Y-109075000D01*
D32*
X133450000Y-109209500D02*
X131509500Y-109209500D01*
D30*
X131897434Y-104902567D02*
X132000001Y-104800000D01*
D31*
X135399999Y-96400000D02*
X135653000Y-96146999D01*
%TO.N,Net-(C10-Pad1)*%
X152859500Y-96940500D02*
X151290499Y-96940500D01*
X150749999Y-96400000D02*
X149950000Y-96400000D01*
X151290499Y-96940500D02*
X150749999Y-96400000D01*
X152950000Y-96850000D02*
X152859500Y-96940500D01*
D32*
%TO.N,Net-(C18-Pad1)*%
X131400000Y-107600000D02*
X132600000Y-106400000D01*
X132600000Y-106400000D02*
X134600000Y-106400000D01*
X132592500Y-106407500D02*
X131400000Y-107600000D01*
X132844155Y-106409155D02*
X134590845Y-106409155D01*
D29*
%TO.N,/G7*%
X141447140Y-110029500D02*
X141255439Y-110029500D01*
X141775000Y-109075000D02*
X141775000Y-109335000D01*
X140979097Y-110247500D02*
X140300500Y-110926097D01*
X141775000Y-109335000D02*
X141579500Y-109530500D01*
X141579500Y-109530500D02*
X141579500Y-109897140D01*
X141255439Y-110029500D02*
X141037438Y-110247500D01*
X141037438Y-110247500D02*
X140979097Y-110247500D01*
X140747600Y-112391000D02*
X140747600Y-113100000D01*
X141579500Y-109897140D02*
X141447140Y-110029500D01*
X140300500Y-110926097D02*
X140300500Y-111943900D01*
X140300500Y-111943900D02*
X140747600Y-112391000D01*
%TO.N,/UART_CTS1*%
X136775000Y-109075000D02*
X136811500Y-109038500D01*
X136811500Y-109038500D02*
X136811500Y-107079300D01*
X136811500Y-107079300D02*
X137287000Y-106603800D01*
D31*
%TO.N,/G11-SWO*%
X145034000Y-83996000D02*
X145060000Y-83970000D01*
X145034000Y-85852000D02*
X145034000Y-83996000D01*
D29*
%TO.N,/G6*%
X140082500Y-110835799D02*
X140082500Y-112934900D01*
X140947140Y-110029500D02*
X140888799Y-110029500D01*
X140082500Y-112934900D02*
X140247600Y-113100000D01*
X141079500Y-109897140D02*
X140947140Y-110029500D01*
X140888799Y-110029500D02*
X140082500Y-110835799D01*
X141275000Y-108396034D02*
X141275000Y-109075000D01*
X141079500Y-109700500D02*
X141079500Y-109897140D01*
X141275000Y-109505000D02*
X141079500Y-109700500D01*
X141275000Y-109075000D02*
X141275000Y-109505000D01*
%TO.N,/SWDIO*%
X152050000Y-109820000D02*
X151730000Y-109820000D01*
X152426396Y-110196396D02*
X152050000Y-109820000D01*
X152247600Y-112248000D02*
X152426396Y-112069204D01*
X148920200Y-86487000D02*
X148539200Y-86487000D01*
X151393173Y-110133401D02*
X151393172Y-110133400D01*
X148341640Y-110070000D02*
X147417199Y-110070000D01*
X147600000Y-85547800D02*
X147600000Y-83970000D01*
X152426396Y-112069204D02*
X152426396Y-110196396D01*
X148539200Y-86487000D02*
X147600000Y-85547800D01*
X151393172Y-110133400D02*
X148405040Y-110133400D01*
X147417199Y-110070000D02*
X147397199Y-110090000D01*
X146775000Y-109897876D02*
X146775000Y-109075000D01*
X151730000Y-109820000D02*
X151416600Y-110133400D01*
X146967124Y-110090000D02*
X146775000Y-109897876D01*
X148405040Y-110133400D02*
X148341640Y-110070000D01*
X152247600Y-113100000D02*
X152247600Y-112248000D01*
X147397199Y-110090000D02*
X146967124Y-110090000D01*
X151416600Y-110133400D02*
X151393173Y-110133401D01*
%TO.N,/AUD_MCLK*%
X141250000Y-104075000D02*
X141137162Y-103962162D01*
%TO.N,/SWDCK*%
X146685000Y-86080600D02*
X146330000Y-85725600D01*
X148793200Y-107137200D02*
X148775000Y-107155400D01*
X149056000Y-107400000D02*
X148793200Y-107137200D01*
X153089500Y-109046692D02*
X153089500Y-108703308D01*
X153089500Y-108703308D02*
X152952299Y-108566107D01*
X152025000Y-107400000D02*
X149950000Y-107400000D01*
X152747600Y-109545198D02*
X152952299Y-109340499D01*
X152952299Y-109340499D02*
X152952299Y-109183893D01*
X152952299Y-109183893D02*
X153089500Y-109046692D01*
X152952299Y-108566107D02*
X152952299Y-108327299D01*
X146330000Y-85725600D02*
X146330000Y-83970000D01*
X152747600Y-113100000D02*
X152747600Y-109545198D01*
X148775000Y-107155400D02*
X148775000Y-107225000D01*
X149950000Y-107400000D02*
X149056000Y-107400000D01*
X152952299Y-108327299D02*
X152025000Y-107400000D01*
X147345400Y-86080600D02*
X146685000Y-86080600D01*
%TO.N,/CAN-RX*%
X147650000Y-113002400D02*
X147747600Y-113100000D01*
%TO.N,/D0*%
X137275000Y-93028200D02*
X137275000Y-93725000D01*
%TO.N,/~{SPI_CS1}*%
X135300334Y-103400000D02*
X134600000Y-103400000D01*
X136036007Y-102664327D02*
X135300334Y-103400000D01*
%TO.N,/SPI_MISO*%
X140250000Y-94800000D02*
X140275000Y-94775000D01*
X141904000Y-111404400D02*
X142747600Y-112248000D01*
X140275000Y-94775000D02*
X140275000Y-93725000D01*
X140250000Y-94900000D02*
X140250000Y-94800000D01*
X141528800Y-111404400D02*
X141904000Y-111404400D01*
X142747600Y-112248000D02*
X142747600Y-113100000D01*
%TO.N,/G5*%
X139864500Y-112983100D02*
X139747600Y-113100000D01*
X140775000Y-109835000D02*
X139864500Y-110745500D01*
X140775000Y-109075000D02*
X140775000Y-109835000D01*
X139864500Y-110745500D02*
X139864500Y-112983100D01*
%TO.N,/USB_D-*%
X146565876Y-110410000D02*
X146222376Y-110066500D01*
X148224440Y-110569400D02*
X148181041Y-110526000D01*
X146087534Y-110066500D02*
X145775000Y-109753966D01*
X151212589Y-110569407D02*
X151212581Y-110569401D01*
X151408499Y-110606400D02*
X151371504Y-110569405D01*
X151720308Y-110802900D02*
X151523808Y-110606400D01*
X151371504Y-110569405D02*
X151212589Y-110569407D01*
X146222376Y-110066500D02*
X146087534Y-110066500D01*
X151836343Y-110802900D02*
X151720308Y-110802900D01*
X151523808Y-110606400D02*
X151408499Y-110606400D01*
X146618201Y-110410000D02*
X146565876Y-110410000D01*
X151850999Y-110817556D02*
X151836343Y-110802900D01*
X151212581Y-110569401D02*
X148224440Y-110569400D01*
X146646202Y-110438000D02*
X146618201Y-110410000D01*
X146698528Y-110438000D02*
X146646202Y-110438000D01*
X145775000Y-109753966D02*
X145775000Y-109075000D01*
X148181041Y-110526000D02*
X146786526Y-110526000D01*
X146786526Y-110526000D02*
X146698528Y-110438000D01*
%TO.N,/CAN-TX*%
X147106959Y-111107200D02*
X147200600Y-111107200D01*
%TO.N,/UART_RTS1*%
X153972297Y-109762999D02*
X153972297Y-109606391D01*
X154414500Y-104928308D02*
X154330400Y-104844208D01*
X154747600Y-113100000D02*
X154636100Y-112988500D01*
X153965000Y-110842176D02*
X153965000Y-109770296D01*
X153972297Y-109606391D02*
X154109498Y-109469190D01*
X154636100Y-112988500D02*
X154636100Y-111513276D01*
X154330400Y-104844208D02*
X154330400Y-104744600D01*
X153965000Y-107897501D02*
X153965000Y-107489240D01*
X153965000Y-109770296D02*
X153972297Y-109762999D01*
X154414500Y-105271692D02*
X154414500Y-104928308D01*
X154636100Y-111513276D02*
X153965000Y-110842176D01*
X154109499Y-108280811D02*
X153972299Y-108143611D01*
X153972298Y-107904799D02*
X153965000Y-107897501D01*
X153972299Y-108143611D02*
X153972298Y-107904799D01*
X153965000Y-107489240D02*
X154368872Y-107085368D01*
X140275000Y-109075000D02*
X140275000Y-108396034D01*
X154109498Y-109469190D02*
X154109499Y-108280811D01*
X154368872Y-107085368D02*
X154368872Y-106583248D01*
X154330400Y-105355792D02*
X154414500Y-105271692D01*
X154330400Y-104744600D02*
X154475000Y-104600000D01*
X154330400Y-106544776D02*
X154330400Y-105355792D01*
X154368872Y-106583248D02*
X154330400Y-106544776D01*
%TO.N,/UART_RX2*%
X143187808Y-107500000D02*
X142945000Y-107742808D01*
X142775000Y-107925000D02*
X142775000Y-109075000D01*
X142945000Y-107755000D02*
X142775000Y-107925000D01*
X143200000Y-107500000D02*
X143187808Y-107500000D01*
X143825000Y-106875000D02*
X143200000Y-107500000D01*
X142945000Y-107742808D02*
X142945000Y-107755000D01*
X144100000Y-106875000D02*
X143825000Y-106875000D01*
X144200000Y-106775000D02*
X144100000Y-106875000D01*
%TO.N,/A1*%
X146024988Y-106235000D02*
X145948400Y-106235000D01*
%TO.N,/UART_RX1*%
X147237500Y-103337500D02*
X147275000Y-103375000D01*
X140658062Y-107757000D02*
X140340062Y-108075000D01*
X153114100Y-112381500D02*
X153114100Y-113233500D01*
X138775000Y-108275001D02*
X138775000Y-109075000D01*
X140867195Y-105598616D02*
X140867195Y-105598621D01*
X141011579Y-105743000D02*
X141011586Y-105743003D01*
X153200000Y-106946800D02*
X153200000Y-108214376D01*
X152750000Y-106650000D02*
X152903200Y-106650000D01*
X142409702Y-105743000D02*
X142895851Y-106229149D01*
X152903200Y-106650000D02*
X153200000Y-106946800D01*
X142895851Y-106811149D02*
X141950000Y-107757000D01*
X140340062Y-108075000D02*
X138975001Y-108075000D01*
X138975001Y-108075000D02*
X138775000Y-108275001D01*
X141119944Y-105743000D02*
X142409702Y-105743000D01*
X141011586Y-105743003D02*
X141119944Y-105743000D01*
X153207298Y-108221674D02*
X153207299Y-108460483D01*
X153114100Y-113233500D02*
X153247600Y-113100000D01*
X147275000Y-103375000D02*
X147400000Y-103375000D01*
X147237500Y-103337500D02*
X147386904Y-103486904D01*
X153200000Y-108214376D02*
X153207298Y-108221674D01*
X153207299Y-109446123D02*
X153200000Y-109453422D01*
X142895851Y-106229149D02*
X142895851Y-106811149D01*
X141950000Y-107757000D02*
X140658062Y-107757000D01*
X153344499Y-108597683D02*
X153344500Y-109152316D01*
X153344500Y-109152316D02*
X153207299Y-109289517D01*
X153207299Y-109289517D02*
X153207299Y-109446123D01*
X153200000Y-109453422D02*
X153200000Y-112295600D01*
X153207299Y-108460483D02*
X153344499Y-108597683D01*
X140867195Y-105598621D02*
X141011579Y-105743000D01*
X153200000Y-112295600D02*
X153114100Y-112381500D01*
%TO.N,/BATT_VIN*%
X145620000Y-112972400D02*
X145620000Y-111000000D01*
X145747600Y-113100000D02*
X145620000Y-112972400D01*
%TO.N,/SPI_MOSI*%
X141180000Y-110940000D02*
X141940000Y-110940000D01*
X141940000Y-110940000D02*
X143247600Y-112247600D01*
X140830000Y-111450000D02*
X140830000Y-111290000D01*
X140830000Y-111290000D02*
X141180000Y-110940000D01*
X143247600Y-112247600D02*
X143247600Y-113100000D01*
%TO.N,/D1-CAM_TRIG*%
X149200000Y-102900000D02*
X149950000Y-102900000D01*
X148600000Y-103500000D02*
X149200000Y-102900000D01*
%TO.N,/UART_TX2*%
X142690000Y-107649376D02*
X142690000Y-107637184D01*
X142275000Y-109075000D02*
X142275000Y-108450000D01*
X144539453Y-106453000D02*
X145354820Y-106453000D01*
X142275000Y-109075000D02*
X142375000Y-108975000D01*
X143725000Y-106025000D02*
X144111453Y-106025000D01*
X143393000Y-106357000D02*
X143725000Y-106025000D01*
X142375000Y-108975000D02*
X142375000Y-108050000D01*
X143393000Y-106934184D02*
X143393000Y-106357000D01*
X142690000Y-107637184D02*
X143393000Y-106934184D01*
X145354820Y-106453000D02*
X145619700Y-106717880D01*
X142375000Y-108050000D02*
X142520000Y-107905000D01*
X144111453Y-106025000D02*
X144539453Y-106453000D01*
X142520000Y-107905000D02*
X142520000Y-107819376D01*
X145619700Y-106873397D02*
X145619700Y-106717880D01*
X142520000Y-107819376D02*
X142690000Y-107649376D01*
%TO.N,/AUD_OUT-CAM_MCLK*%
X141600000Y-103500000D02*
X141512500Y-103412500D01*
%TO.N,/USB_D+*%
X151498798Y-110388400D02*
X151461799Y-110351401D01*
X146876825Y-110308000D02*
X146788826Y-110220000D01*
X148314741Y-110351400D02*
X148271342Y-110308000D01*
X151302883Y-110351405D02*
X151302879Y-110351401D01*
X146736500Y-110220000D02*
X146275000Y-109758500D01*
X148271342Y-110308000D02*
X146876825Y-110308000D01*
X151892000Y-110388400D02*
X151498798Y-110388400D01*
X151461799Y-110351401D02*
X151302883Y-110351405D01*
X146275000Y-109758500D02*
X146275000Y-109075000D01*
X146788826Y-110220000D02*
X146736500Y-110220000D01*
X151302879Y-110351401D02*
X148314741Y-110351400D01*
%TO.N,/SPI_SCK*%
X143430000Y-111930400D02*
X143430000Y-110720000D01*
X143747600Y-113100000D02*
X143747600Y-112248000D01*
X143747600Y-112248000D02*
X143430000Y-111930400D01*
%TO.N,/UART_TX1*%
X153747600Y-112317000D02*
X153747600Y-113100000D01*
X138275000Y-108275001D02*
X138275000Y-109075000D01*
X138912501Y-107637501D02*
X138275000Y-108275001D01*
X153462299Y-108354859D02*
X153599499Y-108492059D01*
X153455000Y-107277992D02*
X153455000Y-108108751D01*
X153700000Y-112269400D02*
X153747600Y-112317000D01*
X153455000Y-108108751D02*
X153462298Y-108116049D01*
X140011226Y-107637501D02*
X140156086Y-107492641D01*
X140254881Y-107637501D02*
X138912501Y-107637501D01*
X153462298Y-108116049D02*
X153462299Y-108354859D01*
X153599499Y-109257941D02*
X153462298Y-109395142D01*
X153455000Y-111911224D02*
X153700000Y-112156224D01*
X153700000Y-112156224D02*
X153700000Y-112269400D01*
X153462298Y-109395142D02*
X153462298Y-109551748D01*
X153462298Y-109551748D02*
X153455000Y-109559046D01*
X153599499Y-108492059D02*
X153599499Y-109257941D01*
X138912501Y-107637501D02*
X140011226Y-107637501D01*
X153455000Y-109559046D02*
X153455000Y-111911224D01*
%TO.N,/SD_CLK*%
X147120000Y-101420000D02*
X147130000Y-101430000D01*
X147150000Y-101450000D02*
X147120000Y-101420000D01*
X147600000Y-101900000D02*
X149950000Y-101900000D01*
X147150000Y-101450000D02*
X147600000Y-101900000D01*
%TO.N,/SD_DAT1*%
X137775000Y-108356872D02*
X137775000Y-109075000D01*
X139081872Y-107050000D02*
X137775000Y-108356872D01*
X139650000Y-107050000D02*
X139081872Y-107050000D01*
%TO.N,/SD_DAT0*%
X140340129Y-106984871D02*
X140325000Y-107000000D01*
X140340129Y-106895350D02*
X140340129Y-106984871D01*
%TO.N,/SD_DAT3*%
X149950000Y-100400000D02*
X149150001Y-100400000D01*
X148970000Y-100219999D02*
X148970000Y-99830000D01*
X148835000Y-99695000D02*
X148137000Y-99695000D01*
X149150001Y-100400000D02*
X148970000Y-100219999D01*
X148970000Y-99830000D02*
X148835000Y-99695000D01*
%TO.N,/SD_CMD*%
X148725000Y-101400000D02*
X148650000Y-101475000D01*
X149950000Y-101400000D02*
X148725000Y-101400000D01*
X148245000Y-101475000D02*
X148150000Y-101380000D01*
X148650000Y-101475000D02*
X148245000Y-101475000D01*
%TO.N,/SD_DAT2*%
X148653000Y-100520000D02*
X148610000Y-100520000D01*
X148714057Y-100637743D02*
X148714057Y-100850000D01*
X148714057Y-100850000D02*
X148764057Y-100900000D01*
X148742400Y-100609400D02*
X148653000Y-100520000D01*
X148742400Y-100609400D02*
X148714057Y-100637743D01*
X148764057Y-100900000D02*
X149950000Y-100900000D01*
%TO.N,/WL_REG_ON*%
X129850002Y-104600001D02*
X129054201Y-104600001D01*
X135550000Y-109800000D02*
X136275000Y-109075000D01*
X129100000Y-109800000D02*
X135550000Y-109800000D01*
X128800000Y-109500000D02*
X129100000Y-109800000D01*
X128800000Y-104854202D02*
X128800000Y-109500000D01*
X129054201Y-104600001D02*
X128800000Y-104854202D01*
%TO.N,/BT_UART_TX*%
X134600000Y-101400000D02*
X132200002Y-101400000D01*
X132200002Y-101400000D02*
X132200000Y-101400002D01*
%TO.N,/BT_UART_RX*%
X133900001Y-101800001D02*
X132200000Y-101800001D01*
X134600000Y-101900000D02*
X134000000Y-101900000D01*
X134000000Y-101900000D02*
X133900001Y-101800001D01*
%TO.N,/BT_UART_RTS*%
X133800001Y-102400000D02*
X133600001Y-102200000D01*
X133600001Y-102200000D02*
X132200000Y-102200000D01*
X134600000Y-102400000D02*
X133800001Y-102400000D01*
%TO.N,/BT_DEV_WAKE*%
X130666146Y-105816144D02*
X129850002Y-105000000D01*
X133383857Y-105816144D02*
X130666146Y-105816144D01*
X134600000Y-105400000D02*
X133800001Y-105400000D01*
X133800001Y-105400000D02*
X133383857Y-105816144D01*
%TO.N,/BT_HOST_WAKE*%
X131280000Y-103800000D02*
X131280000Y-104020000D01*
X135636000Y-93218000D02*
X135768000Y-93218000D01*
X135768000Y-93218000D02*
X136275000Y-93725000D01*
X131280000Y-103800000D02*
X132200000Y-103800000D01*
X131280000Y-104020000D02*
X131080000Y-104220000D01*
%TO.N,/BT_UART_CTS*%
X132995800Y-103400001D02*
X132200000Y-103400001D01*
X134600000Y-102900000D02*
X133495801Y-102900000D01*
X133495801Y-102900000D02*
X132995800Y-103400001D01*
%TO.N,/BT_PCM_CLK*%
X139775000Y-109075000D02*
X139775000Y-110450000D01*
X138701300Y-110339250D02*
X138428550Y-110066500D01*
X136066500Y-110066500D02*
X136033000Y-110100000D01*
X139775000Y-110450000D02*
X139650000Y-110575000D01*
X128800000Y-104493578D02*
X128800000Y-103654202D01*
X139549100Y-110675900D02*
X138944108Y-110675900D01*
X138428550Y-110066500D02*
X136066500Y-110066500D01*
X138944108Y-110675900D02*
X138701300Y-110433092D01*
X128545001Y-104748577D02*
X128800000Y-104493578D01*
X139650000Y-110575000D02*
X139549100Y-110675900D01*
X129054201Y-103400001D02*
X129850002Y-103400001D01*
X128545001Y-109645001D02*
X128545001Y-104748577D01*
X128800000Y-103654202D02*
X129054201Y-103400001D01*
X138701300Y-110433092D02*
X138701300Y-110339250D01*
X136033000Y-110100000D02*
X129000000Y-110100000D01*
X129000000Y-110100000D02*
X128545001Y-109645001D01*
%TO.N,/BT_REG_ON*%
X135241500Y-92733500D02*
X136583499Y-92733500D01*
X133200002Y-104200002D02*
X132200000Y-104200002D01*
X136583499Y-92733500D02*
X136775000Y-92925001D01*
X133400000Y-104400000D02*
X133200002Y-104200002D01*
X134325000Y-93650000D02*
X135241500Y-92733500D01*
X136775000Y-92925001D02*
X136775000Y-93725000D01*
%TO.N,/WIFI_SDIO_DAT2*%
X153175000Y-102316799D02*
X153511800Y-101979999D01*
X149950000Y-106400000D02*
X151700000Y-106400000D01*
X153511800Y-101979999D02*
X154350000Y-101979999D01*
X153175000Y-104925000D02*
X153175000Y-102316799D01*
X151700000Y-106400000D02*
X153175000Y-104925000D01*
%TO.N,/WIFI_SDIO_DAT1*%
X143951634Y-107454243D02*
X143951634Y-108898366D01*
X143764000Y-109064000D02*
X143775000Y-109075000D01*
X143951634Y-108898366D02*
X143775000Y-109075000D01*
X144002357Y-107403520D02*
X143951634Y-107454243D01*
X144002357Y-107367930D02*
X144002357Y-107403520D01*
%TO.N,/WIFI_SDIO_DAT0*%
X154120000Y-103090000D02*
X154120000Y-102609998D01*
X154120000Y-102609998D02*
X154350000Y-102379998D01*
X143359500Y-107914500D02*
X143275000Y-107999000D01*
X143275000Y-107999000D02*
X143275000Y-109075000D01*
%TO.N,/WL_GPIO_0_HOST_WAKE*%
X157650000Y-100350000D02*
X156729997Y-100350000D01*
X156729997Y-100350000D02*
X156699998Y-100379999D01*
D30*
%TO.N,/TRACE_CLK*%
X141250000Y-83970000D02*
X141250000Y-84987800D01*
X141250000Y-84987800D02*
X140385800Y-85852000D01*
D29*
%TO.N,/TRACE_D3*%
X136170000Y-85670000D02*
X136500000Y-86000000D01*
X136170000Y-83970000D02*
X136170000Y-85670000D01*
%TO.N,/TRACE_D2*%
X137440000Y-85940000D02*
X137440000Y-83970000D01*
X137500000Y-86000000D02*
X137440000Y-85940000D01*
%TO.N,/TRACE_D1*%
X138710000Y-85960000D02*
X138750000Y-86000000D01*
X138710000Y-83970000D02*
X138710000Y-85960000D01*
%TO.N,/TRACE_D0*%
X139980000Y-83970000D02*
X139980000Y-85521200D01*
X139980000Y-85521200D02*
X139522200Y-85979000D01*
D31*
%TO.N,/BOOT0*%
X155400000Y-94825000D02*
X155400000Y-95146572D01*
X155265000Y-95281572D02*
X155265000Y-96085001D01*
X155265000Y-96085001D02*
X153325000Y-98025000D01*
D29*
X152250000Y-98400000D02*
X149950000Y-98400000D01*
D31*
X153325000Y-98025000D02*
X152200000Y-98025000D01*
X155400000Y-95146572D02*
X155265000Y-95281572D01*
X149955754Y-98394246D02*
X149950000Y-98400000D01*
D29*
%TO.N,unconnected-(J1-PWM1-Pad47)*%
X146381100Y-112966500D02*
X146247600Y-113100000D01*
%TO.N,Net-(D1-A)*%
X157950000Y-95600000D02*
X157950000Y-93775000D01*
%TO.N,Net-(U1-PE0)*%
X150854727Y-96900000D02*
X151219427Y-97264700D01*
X156125000Y-94963808D02*
X156125000Y-95600000D01*
X154985500Y-95969228D02*
X154985500Y-94653308D01*
X149950000Y-96900000D02*
X150854727Y-96900000D01*
X151219427Y-97264700D02*
X153690028Y-97264700D01*
X153690028Y-97264700D02*
X154985500Y-95969228D01*
X155228308Y-94410500D02*
X155571692Y-94410500D01*
X155571692Y-94410500D02*
X156125000Y-94963808D01*
X154985500Y-94653308D02*
X155228308Y-94410500D01*
%TO.N,unconnected-(U1-PD10-Pad57)*%
X139275000Y-109700000D02*
X139275000Y-109075000D01*
%TO.N,/SPI_SCK*%
X141950000Y-107100000D02*
X141144779Y-106294779D01*
X135226640Y-105900000D02*
X134600000Y-105900000D01*
X141144779Y-106294779D02*
X137462571Y-106294779D01*
X137462571Y-106294779D02*
X137322292Y-106154500D01*
X137322292Y-106154500D02*
X135481140Y-106154500D01*
X135481140Y-106154500D02*
X135226640Y-105900000D01*
D31*
%TO.N,GND*%
X141072166Y-100448745D02*
X140451255Y-100448745D01*
D29*
%TO.N,/CAN-TX*%
X147247600Y-113100000D02*
X147247600Y-111367600D01*
%TO.N,/UART_RX1*%
X139799290Y-104530710D02*
X139248580Y-103980000D01*
%TD*%
%TA.AperFunction,Conductor*%
%TO.N,GND*%
G36*
X150418777Y-111161085D02*
G01*
X150464532Y-111213889D01*
X150474476Y-111283047D01*
X150472629Y-111292994D01*
X150450600Y-111389504D01*
X150450600Y-111897957D01*
X150430915Y-111964996D01*
X150378111Y-112010751D01*
X150308953Y-112020695D01*
X150252289Y-111997224D01*
X150164689Y-111931647D01*
X150164686Y-111931645D01*
X150029979Y-111881403D01*
X150029972Y-111881401D01*
X149970444Y-111875000D01*
X149922600Y-111875000D01*
X149921875Y-111875724D01*
X149922141Y-111877038D01*
X149911313Y-111904817D01*
X149902915Y-111933419D01*
X149898763Y-111937016D01*
X149896767Y-111942138D01*
X149872636Y-111959655D01*
X149850111Y-111979174D01*
X149844672Y-111979955D01*
X149840226Y-111983184D01*
X149810462Y-111984874D01*
X149780953Y-111989118D01*
X149774501Y-111986917D01*
X149770469Y-111987147D01*
X149757591Y-111981151D01*
X149737584Y-111974329D01*
X149730656Y-111970413D01*
X149668804Y-111924111D01*
X149609806Y-111902105D01*
X149601288Y-111897291D01*
X149593198Y-111888960D01*
X149574623Y-111877023D01*
X149572600Y-111875000D01*
X149554668Y-111875000D01*
X149539576Y-111873240D01*
X149539512Y-111873840D01*
X149471254Y-111866500D01*
X149471238Y-111866500D01*
X149023962Y-111866500D01*
X149023957Y-111866500D01*
X149010853Y-111867909D01*
X148984347Y-111867909D01*
X148971242Y-111866500D01*
X148971238Y-111866500D01*
X148740189Y-111866500D01*
X148673150Y-111846815D01*
X148627395Y-111794011D01*
X148617451Y-111724853D01*
X148646476Y-111661297D01*
X148652508Y-111654819D01*
X148719742Y-111587584D01*
X148719747Y-111587579D01*
X148800019Y-111467442D01*
X148855312Y-111333954D01*
X148859221Y-111314299D01*
X148873761Y-111241208D01*
X148906146Y-111179297D01*
X148966862Y-111144723D01*
X148995378Y-111141400D01*
X150351738Y-111141400D01*
X150418777Y-111161085D01*
G37*
%TD.AperFunction*%
%TA.AperFunction,Conductor*%
G36*
X159391907Y-93991307D02*
G01*
X159423512Y-94053620D01*
X159425600Y-94076282D01*
X159425600Y-104198195D01*
X159405915Y-104265234D01*
X159353111Y-104310989D01*
X159283953Y-104320933D01*
X159236503Y-104303734D01*
X159083805Y-104209548D01*
X159083800Y-104209546D01*
X158920152Y-104155319D01*
X158819154Y-104145000D01*
X158720000Y-104145000D01*
X158720000Y-106101000D01*
X158700315Y-106168039D01*
X158647511Y-106213794D01*
X158596000Y-106225000D01*
X158568200Y-106225000D01*
X158568200Y-107740838D01*
X158550000Y-107802819D01*
X158550000Y-109194999D01*
X158649140Y-109194999D01*
X158649154Y-109194998D01*
X158750152Y-109184680D01*
X158913800Y-109130453D01*
X158913811Y-109130448D01*
X159060534Y-109039947D01*
X159060538Y-109039944D01*
X159182443Y-108918039D01*
X159196061Y-108895962D01*
X159248009Y-108849238D01*
X159316971Y-108838015D01*
X159381054Y-108865859D01*
X159419910Y-108923927D01*
X159425600Y-108961059D01*
X159425600Y-109755244D01*
X159424451Y-109772087D01*
X159411557Y-109866136D01*
X159405076Y-109892120D01*
X159373948Y-109976702D01*
X159362039Y-110000687D01*
X159313481Y-110076608D01*
X159296700Y-110097479D01*
X159232967Y-110161210D01*
X159212096Y-110177990D01*
X159136172Y-110226547D01*
X159112186Y-110238455D01*
X159027606Y-110269579D01*
X159001620Y-110276060D01*
X158905454Y-110289240D01*
X158892092Y-110290339D01*
X158864231Y-110291119D01*
X158854360Y-110293187D01*
X158833681Y-110294657D01*
X158713985Y-110329282D01*
X158713982Y-110329283D01*
X158658557Y-110359088D01*
X158604236Y-110388299D01*
X158604234Y-110388300D01*
X158604233Y-110388301D01*
X158509346Y-110469069D01*
X158433560Y-110567981D01*
X158433558Y-110567985D01*
X158380260Y-110680615D01*
X158351832Y-110801926D01*
X158351831Y-110801939D01*
X158351209Y-110833758D01*
X158350893Y-110849890D01*
X158350600Y-110850599D01*
X158350600Y-110864936D01*
X158350162Y-110888757D01*
X158349884Y-110903882D01*
X158350600Y-110908682D01*
X158350600Y-111057838D01*
X158330915Y-111124877D01*
X158278111Y-111170632D01*
X158208953Y-111180576D01*
X158157710Y-111160941D01*
X158104156Y-111125158D01*
X158081442Y-111109981D01*
X158067524Y-111104216D01*
X157947954Y-111054688D01*
X157947946Y-111054686D01*
X157864935Y-111038174D01*
X157803024Y-111005789D01*
X157781738Y-110978556D01*
X157780619Y-110976619D01*
X157780619Y-110976616D01*
X157705314Y-110846183D01*
X157568122Y-110708991D01*
X157541242Y-110668763D01*
X157495595Y-110558561D01*
X157415325Y-110438428D01*
X157415319Y-110438421D01*
X157313161Y-110336263D01*
X157313154Y-110336257D01*
X157193020Y-110255987D01*
X157059531Y-110200694D01*
X157059523Y-110200692D01*
X156917824Y-110172506D01*
X156917820Y-110172506D01*
X156773334Y-110172506D01*
X156773329Y-110172506D01*
X156631630Y-110200692D01*
X156631622Y-110200694D01*
X156498133Y-110255987D01*
X156498132Y-110255987D01*
X156377999Y-110336257D01*
X156377992Y-110336263D01*
X156275834Y-110438421D01*
X156275828Y-110438428D01*
X156195558Y-110558561D01*
X156195558Y-110558562D01*
X156140265Y-110692051D01*
X156140263Y-110692059D01*
X156112077Y-110833758D01*
X156112077Y-110853785D01*
X156105838Y-110875030D01*
X156104259Y-110897119D01*
X156096186Y-110907902D01*
X156092392Y-110920824D01*
X156075658Y-110935323D01*
X156062387Y-110953052D01*
X156049766Y-110957759D01*
X156039588Y-110966579D01*
X156017670Y-110969730D01*
X155996923Y-110977469D01*
X155983762Y-110974606D01*
X155970430Y-110976523D01*
X155950286Y-110967323D01*
X155928650Y-110962617D01*
X155910924Y-110949348D01*
X155906874Y-110947498D01*
X155900396Y-110941466D01*
X155779187Y-110820257D01*
X155745702Y-110758934D01*
X155750686Y-110689242D01*
X155779187Y-110644894D01*
X155836148Y-110587933D01*
X155926648Y-110441211D01*
X155926653Y-110441200D01*
X155980880Y-110277552D01*
X155991199Y-110176554D01*
X155991200Y-110176541D01*
X155991200Y-110077400D01*
X155192592Y-110077400D01*
X155184412Y-110075773D01*
X155179336Y-110076689D01*
X155145141Y-110067962D01*
X155092745Y-110046258D01*
X155038343Y-110002417D01*
X155016279Y-109936123D01*
X155016200Y-109931698D01*
X155016200Y-109701400D01*
X155035885Y-109634361D01*
X155088689Y-109588606D01*
X155140200Y-109577400D01*
X155991199Y-109577400D01*
X155991199Y-109478260D01*
X155991198Y-109478245D01*
X155980881Y-109377249D01*
X155972438Y-109351771D01*
X155970036Y-109281943D01*
X156005767Y-109221901D01*
X156068287Y-109190708D01*
X156115967Y-109194123D01*
X156116498Y-109191645D01*
X156123115Y-109193060D01*
X156123119Y-109193062D01*
X156225287Y-109203500D01*
X156924712Y-109203499D01*
X157026881Y-109193062D01*
X157192420Y-109138209D01*
X157254366Y-109100000D01*
X157340843Y-109046660D01*
X157340843Y-109046659D01*
X157340846Y-109046658D01*
X157355828Y-109031675D01*
X157417146Y-108998190D01*
X157486838Y-109003171D01*
X157531191Y-109031674D01*
X157539461Y-109039944D01*
X157539465Y-109039947D01*
X157686188Y-109130448D01*
X157686199Y-109130453D01*
X157849847Y-109184680D01*
X157950851Y-109194999D01*
X158050000Y-109194998D01*
X158050000Y-107184562D01*
X158068200Y-107122580D01*
X158068200Y-105724400D01*
X158087885Y-105657361D01*
X158140689Y-105611606D01*
X158192200Y-105600400D01*
X158220000Y-105600400D01*
X158220000Y-104144999D01*
X158120860Y-104145000D01*
X158120844Y-104145001D01*
X158019847Y-104155319D01*
X157856199Y-104209546D01*
X157856188Y-104209551D01*
X157709465Y-104300052D01*
X157709462Y-104300054D01*
X157701185Y-104308331D01*
X157700232Y-104308850D01*
X157699698Y-104309792D01*
X157669661Y-104325540D01*
X157639859Y-104341811D01*
X157638778Y-104341733D01*
X157637818Y-104342237D01*
X157604038Y-104339246D01*
X157570168Y-104336822D01*
X157568943Y-104336139D01*
X157568221Y-104336076D01*
X157564748Y-104333802D01*
X157537534Y-104318641D01*
X157531352Y-104313848D01*
X157510846Y-104293342D01*
X157481764Y-104275403D01*
X157476524Y-104271341D01*
X157459789Y-104248181D01*
X157440677Y-104226931D01*
X157438953Y-104219344D01*
X157435603Y-104214708D01*
X157434877Y-104201407D01*
X157428500Y-104173343D01*
X157428500Y-103442662D01*
X157448185Y-103375623D01*
X157449398Y-103373771D01*
X157453031Y-103368333D01*
X157485102Y-103320336D01*
X157553587Y-103155000D01*
X157575058Y-103047059D01*
X157579584Y-103024304D01*
X157611968Y-102962393D01*
X157650012Y-102937462D01*
X157649617Y-102936738D01*
X157657393Y-102932490D01*
X157657402Y-102932487D01*
X157774459Y-102844859D01*
X157862087Y-102727802D01*
X157913187Y-102590799D01*
X157918260Y-102543611D01*
X157919697Y-102530252D01*
X157919698Y-102530235D01*
X157919698Y-102229770D01*
X157919698Y-102229760D01*
X157915772Y-102193243D01*
X157915772Y-102166743D01*
X157919698Y-102130237D01*
X157919698Y-101829761D01*
X157919697Y-101829744D01*
X157912358Y-101761487D01*
X157913125Y-101761404D01*
X157911334Y-101732769D01*
X157911020Y-101732753D01*
X157911164Y-101730053D01*
X157911152Y-101729854D01*
X157911198Y-101729426D01*
X157911198Y-101430579D01*
X157911197Y-101430568D01*
X157907185Y-101393257D01*
X157907185Y-101366741D01*
X157911197Y-101329429D01*
X157911198Y-101329419D01*
X157911198Y-101127227D01*
X157930883Y-101060188D01*
X157983687Y-101014433D01*
X157987692Y-101012688D01*
X158005242Y-101005419D01*
X158125379Y-100925147D01*
X158227547Y-100822979D01*
X158293222Y-100724688D01*
X158307818Y-100702844D01*
X158307818Y-100702843D01*
X158307819Y-100702842D01*
X158363112Y-100569354D01*
X158391300Y-100427643D01*
X158391300Y-100283157D01*
X158363112Y-100141446D01*
X158307819Y-100007958D01*
X158307818Y-100007956D01*
X158307818Y-100007955D01*
X158227548Y-99887822D01*
X158227542Y-99887815D01*
X158125384Y-99785657D01*
X158125377Y-99785651D01*
X158005245Y-99705382D01*
X157987744Y-99698133D01*
X157973270Y-99686469D01*
X157956191Y-99679143D01*
X157946632Y-99665002D01*
X157933341Y-99654291D01*
X157927471Y-99636655D01*
X157917063Y-99621257D01*
X157912421Y-99591436D01*
X157911277Y-99587996D01*
X157911231Y-99586448D01*
X157906508Y-99382872D01*
X157907186Y-99380347D01*
X157907186Y-99366740D01*
X157911197Y-99329434D01*
X157911198Y-99329417D01*
X157911198Y-99030571D01*
X157911197Y-99030557D01*
X157907186Y-98993254D01*
X157907186Y-98966741D01*
X157911197Y-98929435D01*
X157911198Y-98929418D01*
X157911198Y-98630572D01*
X157911197Y-98630555D01*
X157904796Y-98571027D01*
X157904794Y-98571020D01*
X157854552Y-98436313D01*
X157854548Y-98436306D01*
X157768388Y-98321212D01*
X157768385Y-98321209D01*
X157653291Y-98235049D01*
X157653284Y-98235045D01*
X157518577Y-98184803D01*
X157518570Y-98184801D01*
X157459042Y-98178400D01*
X156621000Y-98178400D01*
X156553961Y-98158715D01*
X156508206Y-98105911D01*
X156497000Y-98054400D01*
X156497000Y-97608721D01*
X156516685Y-97541682D01*
X156569489Y-97495927D01*
X156638647Y-97485983D01*
X156645191Y-97487104D01*
X156689548Y-97495927D01*
X156752754Y-97508499D01*
X156752756Y-97508500D01*
X156752757Y-97508500D01*
X156897244Y-97508500D01*
X156897245Y-97508499D01*
X157038954Y-97480312D01*
X157172442Y-97425019D01*
X157172443Y-97425018D01*
X157172444Y-97425018D01*
X157278361Y-97354247D01*
X157292579Y-97344747D01*
X157394747Y-97242579D01*
X157447014Y-97164355D01*
X157475018Y-97122444D01*
X157475020Y-97122440D01*
X157517736Y-97019315D01*
X157527490Y-96995766D01*
X157571330Y-96941364D01*
X157637624Y-96919299D01*
X157668012Y-96921968D01*
X157673111Y-96923059D01*
X157673119Y-96923062D01*
X157775287Y-96933500D01*
X158374712Y-96933499D01*
X158476881Y-96923062D01*
X158642420Y-96868209D01*
X158790846Y-96776658D01*
X158914158Y-96653346D01*
X159005709Y-96504920D01*
X159060562Y-96339381D01*
X159071000Y-96237213D01*
X159070999Y-95662788D01*
X159060562Y-95560619D01*
X159005709Y-95395080D01*
X159005705Y-95395074D01*
X159005704Y-95395071D01*
X158914160Y-95246657D01*
X158914157Y-95246653D01*
X158790846Y-95123342D01*
X158790842Y-95123339D01*
X158642428Y-95031795D01*
X158642422Y-95031792D01*
X158642420Y-95031791D01*
X158606995Y-95020052D01*
X158586963Y-95006182D01*
X158564797Y-94996060D01*
X158558748Y-94986647D01*
X158549551Y-94980280D01*
X158540197Y-94957781D01*
X158527023Y-94937282D01*
X158524564Y-94920180D01*
X158522728Y-94915764D01*
X158522000Y-94902347D01*
X158522000Y-94809931D01*
X158541685Y-94742892D01*
X158594489Y-94697137D01*
X158606997Y-94692225D01*
X158646271Y-94679210D01*
X158754920Y-94643209D01*
X158903346Y-94551658D01*
X159026658Y-94428346D01*
X159118209Y-94279920D01*
X159173062Y-94114381D01*
X159178242Y-94063679D01*
X159204638Y-93998988D01*
X159261819Y-93958836D01*
X159331630Y-93955973D01*
X159391907Y-93991307D01*
G37*
%TD.AperFunction*%
%TA.AperFunction,Conductor*%
G36*
X150071747Y-108584685D02*
G01*
X150092389Y-108601319D01*
X150171104Y-108680034D01*
X150204589Y-108741357D01*
X150205562Y-108747532D01*
X150234686Y-108893946D01*
X150234688Y-108893954D01*
X150289981Y-109027443D01*
X150289981Y-109027444D01*
X150370251Y-109147577D01*
X150370257Y-109147584D01*
X150472415Y-109249742D01*
X150472422Y-109249748D01*
X150597623Y-109333404D01*
X150596314Y-109335361D01*
X150638711Y-109377019D01*
X150654162Y-109445159D01*
X150630321Y-109510835D01*
X150574758Y-109553197D01*
X150530405Y-109561400D01*
X149274900Y-109561400D01*
X149207861Y-109541715D01*
X149162106Y-109488911D01*
X149150900Y-109437400D01*
X149150900Y-109427156D01*
X149150899Y-109427152D01*
X149142735Y-109386111D01*
X149122712Y-109285446D01*
X149067419Y-109151958D01*
X149067418Y-109151956D01*
X149067418Y-109151955D01*
X148987148Y-109031822D01*
X148987142Y-109031815D01*
X148969819Y-109014492D01*
X148955115Y-108987564D01*
X148938523Y-108961746D01*
X148937631Y-108955545D01*
X148936334Y-108953169D01*
X148933500Y-108926811D01*
X148933500Y-108689000D01*
X148953185Y-108621961D01*
X149005989Y-108576206D01*
X149057500Y-108565000D01*
X150004708Y-108565000D01*
X150071747Y-108584685D01*
G37*
%TD.AperFunction*%
%TA.AperFunction,Conductor*%
G36*
X135572195Y-108103185D02*
G01*
X135617950Y-108155989D01*
X135628095Y-108223686D01*
X135616500Y-108311748D01*
X135616500Y-108873208D01*
X135596815Y-108940247D01*
X135580181Y-108960889D01*
X135349389Y-109191681D01*
X135288066Y-109225166D01*
X135261708Y-109228000D01*
X134697477Y-109228000D01*
X134630438Y-109208315D01*
X134584683Y-109155511D01*
X134574739Y-109086353D01*
X134603764Y-109022797D01*
X134609796Y-109016319D01*
X135000903Y-108625212D01*
X135000909Y-108625206D01*
X135007633Y-108615143D01*
X135075710Y-108513259D01*
X135094831Y-108467097D01*
X135104909Y-108442767D01*
X135104909Y-108442766D01*
X135127234Y-108388869D01*
X135153500Y-108256819D01*
X135153500Y-108207500D01*
X135156050Y-108198814D01*
X135154762Y-108189853D01*
X135165740Y-108165812D01*
X135173185Y-108140461D01*
X135180025Y-108134533D01*
X135183787Y-108126297D01*
X135206021Y-108112007D01*
X135225989Y-108094706D01*
X135236503Y-108092418D01*
X135242565Y-108088523D01*
X135277500Y-108083500D01*
X135505156Y-108083500D01*
X135572195Y-108103185D01*
G37*
%TD.AperFunction*%
%TA.AperFunction,Conductor*%
G36*
X129666849Y-105629785D02*
G01*
X129687491Y-105646419D01*
X130208432Y-106167360D01*
X130314930Y-106273858D01*
X130387955Y-106316019D01*
X130445358Y-106349161D01*
X130445359Y-106349161D01*
X130445362Y-106349163D01*
X130590841Y-106388144D01*
X130900326Y-106388144D01*
X130967365Y-106407829D01*
X131013120Y-106460633D01*
X131023064Y-106529791D01*
X130994039Y-106593347D01*
X130939330Y-106629850D01*
X130782582Y-106681790D01*
X130782571Y-106681795D01*
X130634157Y-106773339D01*
X130634152Y-106773343D01*
X130619168Y-106788327D01*
X130557844Y-106821811D01*
X130488153Y-106816825D01*
X130443808Y-106788325D01*
X130435538Y-106780055D01*
X130435534Y-106780052D01*
X130288811Y-106689551D01*
X130288800Y-106689546D01*
X130125152Y-106635319D01*
X130024154Y-106625000D01*
X129925000Y-106625000D01*
X129925000Y-108976000D01*
X129905315Y-109043039D01*
X129852511Y-109088794D01*
X129801000Y-109100000D01*
X129549000Y-109100000D01*
X129481961Y-109080315D01*
X129436206Y-109027511D01*
X129425000Y-108976000D01*
X129425000Y-106625000D01*
X129408319Y-106608319D01*
X129374834Y-106546996D01*
X129372000Y-106520638D01*
X129372000Y-105734100D01*
X129374550Y-105725414D01*
X129373262Y-105716453D01*
X129384240Y-105692412D01*
X129391685Y-105667061D01*
X129398525Y-105661133D01*
X129402287Y-105652897D01*
X129424521Y-105638607D01*
X129444489Y-105621306D01*
X129455003Y-105619018D01*
X129461065Y-105615123D01*
X129496000Y-105610100D01*
X129599810Y-105610100D01*
X129666849Y-105629785D01*
G37*
%TD.AperFunction*%
%TA.AperFunction,Conductor*%
G36*
X133242698Y-107112340D02*
G01*
X133288453Y-107165144D01*
X133298598Y-107232840D01*
X133291501Y-107286746D01*
X133291500Y-107286762D01*
X133291500Y-107513251D01*
X133306519Y-107627323D01*
X133306519Y-107627324D01*
X133363609Y-107765153D01*
X133365314Y-107769268D01*
X133458843Y-107891157D01*
X133540681Y-107953954D01*
X133550768Y-107967768D01*
X133564460Y-107978018D01*
X133570942Y-107995397D01*
X133581882Y-108010380D01*
X133582899Y-108027455D01*
X133588877Y-108043482D01*
X133584933Y-108061608D01*
X133586037Y-108080126D01*
X133577585Y-108095386D01*
X133574025Y-108111755D01*
X133552874Y-108140009D01*
X133426270Y-108266613D01*
X133364947Y-108300098D01*
X133362781Y-108300549D01*
X133185005Y-108335911D01*
X133184999Y-108335913D01*
X133019667Y-108404396D01*
X133019657Y-108404401D01*
X132868949Y-108505102D01*
X132802271Y-108525980D01*
X132800058Y-108526000D01*
X132438146Y-108526000D01*
X132428355Y-108523125D01*
X132418230Y-108524390D01*
X132395396Y-108513447D01*
X132371107Y-108506315D01*
X132362749Y-108497801D01*
X132355222Y-108494194D01*
X132332610Y-108467101D01*
X132300532Y-108415094D01*
X132282093Y-108347705D01*
X132300534Y-108284902D01*
X132311815Y-108266613D01*
X132380709Y-108154920D01*
X132435562Y-107989381D01*
X132446000Y-107887213D01*
X132445999Y-107571975D01*
X132465683Y-107504937D01*
X132482313Y-107484300D01*
X132837641Y-107128974D01*
X132898964Y-107095489D01*
X132925322Y-107092655D01*
X133175659Y-107092655D01*
X133242698Y-107112340D01*
G37*
%TD.AperFunction*%
%TA.AperFunction,Conductor*%
G36*
X144946489Y-107105415D02*
G01*
X144948767Y-107105129D01*
X144978370Y-107119292D01*
X145008451Y-107132386D01*
X145010495Y-107134662D01*
X145011795Y-107135284D01*
X145032033Y-107158639D01*
X145049953Y-107185459D01*
X145049956Y-107185463D01*
X145152115Y-107287622D01*
X145152122Y-107287628D01*
X145272256Y-107367898D01*
X145272257Y-107367898D01*
X145272258Y-107367899D01*
X145405746Y-107423192D01*
X145405756Y-107423194D01*
X145409957Y-107424469D01*
X145418406Y-107430006D01*
X145428361Y-107431701D01*
X145447134Y-107448835D01*
X145468394Y-107462769D01*
X145472506Y-107471992D01*
X145479968Y-107478802D01*
X145486498Y-107503370D01*
X145496849Y-107526582D01*
X145495800Y-107538364D01*
X145497917Y-107546327D01*
X145493053Y-107569232D01*
X145491995Y-107581121D01*
X145490448Y-107585927D01*
X145469688Y-107636046D01*
X145462199Y-107673693D01*
X145460011Y-107680492D01*
X145444221Y-107703720D01*
X145431205Y-107728604D01*
X145424846Y-107732224D01*
X145420733Y-107738276D01*
X145394896Y-107749279D01*
X145370489Y-107763177D01*
X145359162Y-107764496D01*
X145356450Y-107765652D01*
X145353524Y-107765153D01*
X145341974Y-107766500D01*
X145161756Y-107766500D01*
X145161750Y-107766500D01*
X145161745Y-107766501D01*
X145041185Y-107782373D01*
X145014949Y-107783026D01*
X145003766Y-107782116D01*
X145002324Y-107781519D01*
X144888244Y-107766500D01*
X144811744Y-107766500D01*
X144806727Y-107766092D01*
X144778620Y-107755295D01*
X144749739Y-107746815D01*
X144746344Y-107742897D01*
X144741503Y-107741038D01*
X144723691Y-107716754D01*
X144703984Y-107694011D01*
X144703246Y-107688880D01*
X144700179Y-107684699D01*
X144698323Y-107654645D01*
X144694040Y-107624853D01*
X144696035Y-107617578D01*
X144695874Y-107614962D01*
X144697601Y-107611870D01*
X144702216Y-107595050D01*
X144707667Y-107581888D01*
X144707669Y-107581884D01*
X144735857Y-107440173D01*
X144735857Y-107327831D01*
X144755542Y-107260792D01*
X144766209Y-107247557D01*
X144765882Y-107247289D01*
X144769744Y-107242582D01*
X144769744Y-107242581D01*
X144769747Y-107242579D01*
X144825831Y-107158641D01*
X144851012Y-107137597D01*
X144875417Y-107115676D01*
X144877681Y-107115308D01*
X144879442Y-107113838D01*
X144912004Y-107109747D01*
X144944387Y-107104500D01*
X144946489Y-107105415D01*
G37*
%TD.AperFunction*%
%TA.AperFunction,Conductor*%
G36*
X155316679Y-103006392D02*
G01*
X155350166Y-103067714D01*
X155353000Y-103094075D01*
X155353000Y-104314508D01*
X155344354Y-104343950D01*
X155337831Y-104373937D01*
X155334077Y-104378951D01*
X155333315Y-104381547D01*
X155316684Y-104402185D01*
X155296632Y-104422238D01*
X155283258Y-104435612D01*
X155221934Y-104469096D01*
X155152243Y-104464110D01*
X155096310Y-104422238D01*
X155081017Y-104395381D01*
X155031220Y-104275159D01*
X155031218Y-104275155D01*
X154950948Y-104155022D01*
X154950942Y-104155015D01*
X154848784Y-104052857D01*
X154848777Y-104052851D01*
X154728643Y-103972581D01*
X154595150Y-103917286D01*
X154589707Y-103915635D01*
X154531271Y-103877333D01*
X154502819Y-103813519D01*
X154513385Y-103744453D01*
X154538027Y-103709298D01*
X154604947Y-103642379D01*
X154685219Y-103522242D01*
X154740512Y-103388754D01*
X154768700Y-103247043D01*
X154768700Y-103114098D01*
X154788385Y-103047059D01*
X154841189Y-103001304D01*
X154892700Y-102990098D01*
X155109838Y-102990098D01*
X155109854Y-102990097D01*
X155170401Y-102983587D01*
X155185664Y-102977894D01*
X155255355Y-102972908D01*
X155316679Y-103006392D01*
G37*
%TD.AperFunction*%
%TA.AperFunction,Conductor*%
G36*
X136946853Y-102431840D02*
G01*
X136973176Y-102451914D01*
X137262581Y-102741319D01*
X137296066Y-102802642D01*
X137291082Y-102872334D01*
X137249210Y-102928267D01*
X137183746Y-102952684D01*
X137174900Y-102953000D01*
X136877551Y-102953000D01*
X136810512Y-102933315D01*
X136764757Y-102880511D01*
X136754813Y-102811353D01*
X136755934Y-102804809D01*
X136765815Y-102755130D01*
X136769507Y-102736570D01*
X136769507Y-102592084D01*
X136763878Y-102563786D01*
X136770104Y-102494197D01*
X136812966Y-102439019D01*
X136878856Y-102415773D01*
X136946853Y-102431840D01*
G37*
%TD.AperFunction*%
%TA.AperFunction,Conductor*%
G36*
X146305098Y-101100276D02*
G01*
X146338917Y-101102089D01*
X146339850Y-101102761D01*
X146340998Y-101102844D01*
X146368128Y-101123153D01*
X146395589Y-101142955D01*
X146396009Y-101144024D01*
X146396932Y-101144715D01*
X146408777Y-101176474D01*
X146421171Y-101207973D01*
X146421089Y-101209485D01*
X146421349Y-101210180D01*
X146419283Y-101243216D01*
X146396500Y-101357758D01*
X146396500Y-101502247D01*
X146424686Y-101643946D01*
X146424688Y-101643954D01*
X146479981Y-101777443D01*
X146479981Y-101777444D01*
X146560251Y-101897577D01*
X146560257Y-101897584D01*
X146662415Y-101999742D01*
X146662422Y-101999748D01*
X146782556Y-102080018D01*
X146782557Y-102080018D01*
X146782558Y-102080019D01*
X146916046Y-102135312D01*
X147016887Y-102155370D01*
X147078797Y-102187754D01*
X147080376Y-102189306D01*
X147248784Y-102357714D01*
X147252006Y-102359574D01*
X147254180Y-102361854D01*
X147255233Y-102362662D01*
X147255107Y-102362826D01*
X147300224Y-102410139D01*
X147313449Y-102478745D01*
X147287483Y-102543611D01*
X147230571Y-102584142D01*
X147160780Y-102587469D01*
X147157919Y-102586738D01*
X147125309Y-102578000D01*
X147125305Y-102578000D01*
X145014839Y-102578000D01*
X144947800Y-102558315D01*
X144902045Y-102505511D01*
X144892101Y-102436353D01*
X144921126Y-102372797D01*
X144952839Y-102346613D01*
X144966579Y-102338679D01*
X145051924Y-102289406D01*
X145158422Y-102182908D01*
X145574330Y-101767000D01*
X145601599Y-101719769D01*
X145622970Y-101682750D01*
X145642673Y-101657073D01*
X145724306Y-101575440D01*
X145749978Y-101555741D01*
X145834232Y-101507098D01*
X145940730Y-101400600D01*
X146209986Y-101131343D01*
X146239701Y-101115118D01*
X146269148Y-101098350D01*
X146270296Y-101098411D01*
X146271307Y-101097860D01*
X146305098Y-101100276D01*
G37*
%TD.AperFunction*%
%TA.AperFunction,Conductor*%
G36*
X146361747Y-98591685D02*
G01*
X146407502Y-98644489D01*
X146417446Y-98713647D01*
X146388421Y-98777203D01*
X146382389Y-98783681D01*
X144312263Y-100853806D01*
X144250940Y-100887291D01*
X144181248Y-100882307D01*
X144125315Y-100840435D01*
X144121492Y-100835032D01*
X144119747Y-100832421D01*
X144119745Y-100832419D01*
X144119743Y-100832416D01*
X144017584Y-100730257D01*
X144017577Y-100730251D01*
X143897443Y-100649981D01*
X143763954Y-100594688D01*
X143763946Y-100594686D01*
X143622247Y-100566500D01*
X143622243Y-100566500D01*
X143477757Y-100566500D01*
X143476792Y-100566500D01*
X143409753Y-100546815D01*
X143389111Y-100530181D01*
X142640219Y-99781288D01*
X142640216Y-99781286D01*
X142634529Y-99778002D01*
X142634524Y-99777997D01*
X142634523Y-99777999D01*
X142509784Y-99705981D01*
X142364305Y-99667000D01*
X142364303Y-99667000D01*
X141850856Y-99667000D01*
X141824252Y-99659188D01*
X141796889Y-99654641D01*
X141788526Y-99648697D01*
X141783817Y-99647315D01*
X141767623Y-99634914D01*
X141765346Y-99632852D01*
X141649780Y-99517286D01*
X141627968Y-99504693D01*
X141519348Y-99441981D01*
X141373869Y-99403000D01*
X141373867Y-99403000D01*
X140379395Y-99403000D01*
X140331943Y-99393561D01*
X140213954Y-99344688D01*
X140213946Y-99344686D01*
X140072247Y-99316500D01*
X140072243Y-99316500D01*
X139927757Y-99316500D01*
X139910131Y-99320006D01*
X139878814Y-99326235D01*
X139809222Y-99320006D01*
X139754045Y-99277143D01*
X139730802Y-99211253D01*
X139730624Y-99204617D01*
X139730624Y-99046000D01*
X139750309Y-98978961D01*
X139803113Y-98933206D01*
X139854624Y-98922000D01*
X144123002Y-98922000D01*
X144123005Y-98922000D01*
X144268484Y-98883019D01*
X144398916Y-98807714D01*
X144505414Y-98701216D01*
X144598311Y-98608319D01*
X144659634Y-98574834D01*
X144685992Y-98572000D01*
X146294708Y-98572000D01*
X146361747Y-98591685D01*
G37*
%TD.AperFunction*%
%TA.AperFunction,Conductor*%
G36*
X147435816Y-100008027D02*
G01*
X147491749Y-100049899D01*
X147495584Y-100055318D01*
X147567254Y-100162581D01*
X147669415Y-100264742D01*
X147669422Y-100264748D01*
X147789555Y-100345018D01*
X147789557Y-100345019D01*
X147795564Y-100347507D01*
X147799947Y-100349322D01*
X147814829Y-100361313D01*
X147832327Y-100368998D01*
X147841471Y-100382780D01*
X147854353Y-100393160D01*
X147860389Y-100411293D01*
X147870955Y-100427218D01*
X147875337Y-100456198D01*
X147876421Y-100459453D01*
X147876487Y-100462076D01*
X147876500Y-100462967D01*
X147876500Y-100592243D01*
X147878535Y-100602474D01*
X147878700Y-100613773D01*
X147872250Y-100636984D01*
X147870103Y-100660983D01*
X147863065Y-100670042D01*
X147859995Y-100681093D01*
X147842019Y-100697133D01*
X147827239Y-100716160D01*
X147809795Y-100725889D01*
X147807864Y-100727613D01*
X147806617Y-100727810D01*
X147802555Y-100729982D01*
X147682420Y-100810252D01*
X147681838Y-100810731D01*
X147681473Y-100810885D01*
X147677356Y-100813637D01*
X147676833Y-100812855D01*
X147617524Y-100838035D01*
X147548658Y-100826235D01*
X147534300Y-100817972D01*
X147477442Y-100779981D01*
X147477443Y-100779981D01*
X147477441Y-100779980D01*
X147343954Y-100724688D01*
X147343946Y-100724686D01*
X147202247Y-100696500D01*
X147202243Y-100696500D01*
X147057757Y-100696500D01*
X147027913Y-100702436D01*
X146943216Y-100719283D01*
X146873625Y-100713054D01*
X146818448Y-100670191D01*
X146795204Y-100604301D01*
X146811272Y-100536304D01*
X146831341Y-100509988D01*
X147304803Y-100036526D01*
X147366124Y-100003043D01*
X147435816Y-100008027D01*
G37*
%TD.AperFunction*%
%TA.AperFunction,Conductor*%
G36*
X133244364Y-99991685D02*
G01*
X133290119Y-100044489D01*
X133300264Y-100079815D01*
X133307373Y-100133815D01*
X133307373Y-100166185D01*
X133300264Y-100220185D01*
X133271998Y-100284081D01*
X133213674Y-100322553D01*
X133177325Y-100328000D01*
X130430292Y-100328000D01*
X130363253Y-100308315D01*
X130317498Y-100255511D01*
X130307554Y-100186353D01*
X130336579Y-100122797D01*
X130342611Y-100116319D01*
X130450611Y-100008319D01*
X130511934Y-99974834D01*
X130538292Y-99972000D01*
X133177325Y-99972000D01*
X133244364Y-99991685D01*
G37*
%TD.AperFunction*%
%TA.AperFunction,Conductor*%
G36*
X133252937Y-95991685D02*
G01*
X133298692Y-96044489D01*
X133308837Y-96079814D01*
X133313218Y-96113089D01*
X133306487Y-96164249D01*
X133308623Y-96164822D01*
X133306519Y-96172672D01*
X133291500Y-96286748D01*
X133291500Y-96513237D01*
X133291501Y-96513254D01*
X133307373Y-96633815D01*
X133307373Y-96666185D01*
X133291501Y-96786745D01*
X133291500Y-96786762D01*
X133291500Y-97013244D01*
X133307373Y-97133815D01*
X133307373Y-97166185D01*
X133291501Y-97286745D01*
X133291500Y-97286762D01*
X133291500Y-97513237D01*
X133291501Y-97513254D01*
X133307373Y-97633815D01*
X133307373Y-97666185D01*
X133291501Y-97786745D01*
X133291500Y-97786762D01*
X133291500Y-98013237D01*
X133291501Y-98013254D01*
X133307373Y-98133815D01*
X133307373Y-98166185D01*
X133291501Y-98286745D01*
X133291500Y-98286762D01*
X133291500Y-98513237D01*
X133291501Y-98513254D01*
X133307373Y-98633815D01*
X133307373Y-98666185D01*
X133300264Y-98720185D01*
X133271998Y-98784081D01*
X133213674Y-98822553D01*
X133177325Y-98828000D01*
X130174695Y-98828000D01*
X130029216Y-98866981D01*
X129921306Y-98929283D01*
X129914614Y-98933146D01*
X129898784Y-98942285D01*
X129898782Y-98942287D01*
X129331983Y-99509087D01*
X129312546Y-99519699D01*
X129295813Y-99534200D01*
X129282481Y-99536116D01*
X129270660Y-99542572D01*
X129248573Y-99540992D01*
X129226655Y-99544144D01*
X129214403Y-99538548D01*
X129200968Y-99537588D01*
X129183241Y-99524317D01*
X129163099Y-99515119D01*
X129155816Y-99503787D01*
X129145035Y-99495716D01*
X129137297Y-99474970D01*
X129125325Y-99456341D01*
X129122173Y-99434422D01*
X129120618Y-99430252D01*
X129120302Y-99421406D01*
X129120302Y-99294982D01*
X129139987Y-99227943D01*
X129156621Y-99207301D01*
X132355603Y-96008319D01*
X132416926Y-95974834D01*
X132443284Y-95972000D01*
X133185898Y-95972000D01*
X133252937Y-95991685D01*
G37*
%TD.AperFunction*%
%TA.AperFunction,Conductor*%
G36*
X135168648Y-89059297D02*
G01*
X135202903Y-89120193D01*
X135198797Y-89189942D01*
X135169760Y-89235757D01*
X135044652Y-89360865D01*
X134954151Y-89507588D01*
X134954146Y-89507599D01*
X134899919Y-89671247D01*
X134889600Y-89772245D01*
X134889600Y-89871400D01*
X135835100Y-89871400D01*
X135902139Y-89891085D01*
X135947894Y-89943889D01*
X135959100Y-89995400D01*
X135959100Y-90247400D01*
X135939415Y-90314439D01*
X135886611Y-90360194D01*
X135835100Y-90371400D01*
X134889601Y-90371400D01*
X134889601Y-90470554D01*
X134899919Y-90571552D01*
X134954146Y-90735200D01*
X134954151Y-90735211D01*
X135044652Y-90881934D01*
X135044655Y-90881938D01*
X135052925Y-90890208D01*
X135086410Y-90951531D01*
X135081426Y-91021223D01*
X135052927Y-91065568D01*
X135037943Y-91080552D01*
X135037939Y-91080557D01*
X134946395Y-91228971D01*
X134946390Y-91228982D01*
X134891538Y-91394517D01*
X134881100Y-91496679D01*
X134881100Y-92196105D01*
X134881102Y-92196128D01*
X134883348Y-92218117D01*
X134870577Y-92286809D01*
X134847671Y-92318397D01*
X134275375Y-92890693D01*
X134214052Y-92924178D01*
X134211886Y-92924629D01*
X134111051Y-92944686D01*
X134111045Y-92944688D01*
X133977556Y-92999981D01*
X133977555Y-92999981D01*
X133857422Y-93080251D01*
X133857415Y-93080257D01*
X133755255Y-93182417D01*
X133755250Y-93182423D01*
X133735894Y-93211392D01*
X133682282Y-93256196D01*
X133632793Y-93266500D01*
X133175294Y-93266500D01*
X133175278Y-93266501D01*
X133073117Y-93276938D01*
X132907582Y-93331790D01*
X132907571Y-93331795D01*
X132759157Y-93423339D01*
X132759152Y-93423343D01*
X132744168Y-93438327D01*
X132682844Y-93471811D01*
X132613153Y-93466825D01*
X132568808Y-93438325D01*
X132560538Y-93430055D01*
X132560534Y-93430052D01*
X132413811Y-93339551D01*
X132413800Y-93339546D01*
X132250152Y-93285319D01*
X132149154Y-93275000D01*
X132050000Y-93275000D01*
X132050000Y-94126000D01*
X132030315Y-94193039D01*
X131977511Y-94238794D01*
X131926000Y-94250000D01*
X131800000Y-94250000D01*
X131800000Y-94376000D01*
X131780315Y-94443039D01*
X131727511Y-94488794D01*
X131676000Y-94500000D01*
X130762501Y-94500000D01*
X130762501Y-94536654D01*
X130772819Y-94637652D01*
X130827046Y-94801300D01*
X130827051Y-94801311D01*
X130917552Y-94948034D01*
X130917555Y-94948038D01*
X131039461Y-95069944D01*
X131039465Y-95069947D01*
X131186188Y-95160448D01*
X131186199Y-95160453D01*
X131295368Y-95196628D01*
X131352813Y-95236400D01*
X131379636Y-95300916D01*
X131367321Y-95369692D01*
X131344045Y-95402015D01*
X128433532Y-98312528D01*
X128372209Y-98346013D01*
X128302517Y-98341029D01*
X128246584Y-98299157D01*
X128222167Y-98233693D01*
X128221851Y-98225192D01*
X128211055Y-94114381D01*
X128210658Y-93963345D01*
X130762500Y-93963345D01*
X130762500Y-94000000D01*
X131550000Y-94000000D01*
X131550000Y-93274999D01*
X131450860Y-93275000D01*
X131450844Y-93275001D01*
X131349847Y-93285319D01*
X131186199Y-93339546D01*
X131186188Y-93339551D01*
X131039465Y-93430052D01*
X131039461Y-93430055D01*
X130917555Y-93551961D01*
X130917552Y-93551965D01*
X130827051Y-93698688D01*
X130827046Y-93698699D01*
X130772819Y-93862347D01*
X130762500Y-93963345D01*
X128210658Y-93963345D01*
X128210651Y-93960522D01*
X128203920Y-91397684D01*
X128201324Y-90409355D01*
X128202226Y-90394100D01*
X128203291Y-90385319D01*
X128220401Y-90244259D01*
X128225434Y-90221292D01*
X128270395Y-90081318D01*
X128279681Y-90059707D01*
X128350274Y-89930761D01*
X128363483Y-89911285D01*
X128375462Y-89896800D01*
X128457172Y-89797996D01*
X128473813Y-89781376D01*
X128587227Y-89687825D01*
X128606708Y-89674650D01*
X128735747Y-89604219D01*
X128757377Y-89594958D01*
X128897399Y-89550177D01*
X128920378Y-89545171D01*
X129071081Y-89527086D01*
X129085190Y-89526207D01*
X133905306Y-89501589D01*
X133905999Y-89501857D01*
X133920317Y-89501512D01*
X133934602Y-89501440D01*
X133934603Y-89501439D01*
X133942441Y-89501400D01*
X133947143Y-89500868D01*
X134569804Y-89485906D01*
X134570092Y-89485900D01*
X134584218Y-89485900D01*
X134585077Y-89485543D01*
X134586018Y-89485521D01*
X134586026Y-89485517D01*
X134586028Y-89485517D01*
X134598930Y-89479805D01*
X134611967Y-89474406D01*
X134612625Y-89473746D01*
X134613486Y-89473366D01*
X134613490Y-89473360D01*
X134613493Y-89473360D01*
X134623234Y-89463138D01*
X134633206Y-89453167D01*
X134633560Y-89452309D01*
X134634211Y-89451627D01*
X134635614Y-89447994D01*
X134638760Y-89439848D01*
X134639864Y-89437091D01*
X134640601Y-89435311D01*
X134644700Y-89425418D01*
X134644700Y-89425410D01*
X134645041Y-89423697D01*
X134644864Y-89416338D01*
X134644735Y-89410978D01*
X134644700Y-89408002D01*
X134644700Y-89243384D01*
X134664385Y-89176345D01*
X134717189Y-89130590D01*
X134745907Y-89121497D01*
X134864786Y-89099276D01*
X135037285Y-89032448D01*
X135106907Y-89026587D01*
X135168648Y-89059297D01*
G37*
%TD.AperFunction*%
%TA.AperFunction,Conductor*%
G36*
X139696586Y-96622988D02*
G01*
X139706647Y-96621542D01*
X139729713Y-96632076D01*
X139754166Y-96638784D01*
X139760957Y-96646344D01*
X139770203Y-96650567D01*
X139783912Y-96671899D01*
X139800857Y-96690763D01*
X139803488Y-96702360D01*
X139807977Y-96709345D01*
X139813000Y-96744280D01*
X139813000Y-96827949D01*
X139847911Y-97003458D01*
X139847913Y-97003466D01*
X139916396Y-97168798D01*
X139916401Y-97168808D01*
X140015821Y-97317600D01*
X140015824Y-97317604D01*
X140142361Y-97444141D01*
X140142365Y-97444144D01*
X140291157Y-97543564D01*
X140293170Y-97544640D01*
X140294026Y-97545481D01*
X140296229Y-97546953D01*
X140295949Y-97547370D01*
X140343015Y-97593602D01*
X140358477Y-97661739D01*
X140334647Y-97727419D01*
X140279091Y-97769789D01*
X140234719Y-97778000D01*
X139303693Y-97778000D01*
X139236654Y-97758315D01*
X139216012Y-97741681D01*
X138819073Y-97344742D01*
X138400975Y-96926645D01*
X138385255Y-96897855D01*
X138368509Y-96869631D01*
X138368590Y-96867337D01*
X138367491Y-96865323D01*
X138369832Y-96832587D01*
X138371003Y-96799806D01*
X138372311Y-96797921D01*
X138372475Y-96795632D01*
X138392135Y-96769368D01*
X138410851Y-96742413D01*
X138413483Y-96740850D01*
X138414347Y-96739698D01*
X138441203Y-96724405D01*
X138482836Y-96707160D01*
X138552305Y-96699691D01*
X138599176Y-96718617D01*
X138621359Y-96733439D01*
X138786695Y-96801924D01*
X138917513Y-96827945D01*
X138962211Y-96836836D01*
X138962215Y-96836837D01*
X138962216Y-96836837D01*
X139141175Y-96836837D01*
X139141176Y-96836836D01*
X139316695Y-96801924D01*
X139482031Y-96733439D01*
X139620110Y-96641177D01*
X139629809Y-96638140D01*
X139637489Y-96631486D01*
X139662586Y-96627877D01*
X139686786Y-96620300D01*
X139696586Y-96622988D01*
G37*
%TD.AperFunction*%
%TA.AperFunction,Conductor*%
G36*
X142153603Y-96268419D02*
G01*
X142160081Y-96274451D01*
X143451949Y-97566319D01*
X143485434Y-97627642D01*
X143480450Y-97697334D01*
X143438578Y-97753267D01*
X143373114Y-97777684D01*
X143364268Y-97778000D01*
X142252064Y-97778000D01*
X142185025Y-97758315D01*
X142139270Y-97705511D01*
X142129326Y-97636353D01*
X142137503Y-97606548D01*
X142178115Y-97508500D01*
X142183312Y-97495954D01*
X142211500Y-97354243D01*
X142211500Y-97209757D01*
X142183312Y-97068046D01*
X142128019Y-96934558D01*
X142128018Y-96934556D01*
X142128018Y-96934555D01*
X142047748Y-96814422D01*
X142047742Y-96814415D01*
X141984719Y-96751392D01*
X141951234Y-96690069D01*
X141948400Y-96663711D01*
X141948400Y-96362132D01*
X141968085Y-96295093D01*
X142020889Y-96249338D01*
X142090047Y-96239394D01*
X142153603Y-96268419D01*
G37*
%TD.AperFunction*%
%TA.AperFunction,Conductor*%
G36*
X144547674Y-95018480D02*
G01*
X144547676Y-95018481D01*
X144648767Y-95031790D01*
X144661740Y-95033498D01*
X144661756Y-95033500D01*
X144661763Y-95033500D01*
X144888237Y-95033500D01*
X144888244Y-95033500D01*
X144936711Y-95027119D01*
X145005746Y-95037884D01*
X145058002Y-95084264D01*
X145067458Y-95102605D01*
X145103796Y-95190332D01*
X145103796Y-95190333D01*
X145184066Y-95310466D01*
X145184072Y-95310473D01*
X145286230Y-95412631D01*
X145286237Y-95412637D01*
X145406371Y-95492907D01*
X145406372Y-95492907D01*
X145406373Y-95492908D01*
X145539861Y-95548201D01*
X145627468Y-95565627D01*
X145681567Y-95576388D01*
X145681571Y-95576389D01*
X145681572Y-95576389D01*
X145826059Y-95576389D01*
X145831723Y-95575261D01*
X145868232Y-95568000D01*
X145871305Y-95568000D01*
X145880157Y-95565627D01*
X145967769Y-95548201D01*
X146009122Y-95531071D01*
X146016783Y-95529019D01*
X146023651Y-95525053D01*
X146101257Y-95492908D01*
X146221394Y-95412636D01*
X146323562Y-95310468D01*
X146366201Y-95246653D01*
X146403833Y-95190333D01*
X146403835Y-95190329D01*
X146436397Y-95111717D01*
X146442362Y-95097314D01*
X146486202Y-95042912D01*
X146552496Y-95020847D01*
X146573104Y-95021828D01*
X146648767Y-95031790D01*
X146661740Y-95033498D01*
X146661756Y-95033500D01*
X146661763Y-95033500D01*
X146888237Y-95033500D01*
X146888244Y-95033500D01*
X147002324Y-95018481D01*
X147002325Y-95018480D01*
X147008814Y-95017626D01*
X147041186Y-95017626D01*
X147047674Y-95018480D01*
X147047676Y-95018481D01*
X147148767Y-95031790D01*
X147161740Y-95033498D01*
X147161756Y-95033500D01*
X147161763Y-95033500D01*
X147388237Y-95033500D01*
X147388244Y-95033500D01*
X147502324Y-95018481D01*
X147502325Y-95018480D01*
X147508814Y-95017626D01*
X147541186Y-95017626D01*
X147547674Y-95018480D01*
X147547676Y-95018481D01*
X147648767Y-95031790D01*
X147661740Y-95033498D01*
X147661756Y-95033500D01*
X147661763Y-95033500D01*
X147888237Y-95033500D01*
X147888244Y-95033500D01*
X148002324Y-95018481D01*
X148002325Y-95018480D01*
X148008814Y-95017626D01*
X148041186Y-95017626D01*
X148047674Y-95018480D01*
X148047676Y-95018481D01*
X148148767Y-95031790D01*
X148161740Y-95033498D01*
X148161756Y-95033500D01*
X148161763Y-95033500D01*
X148388237Y-95033500D01*
X148388244Y-95033500D01*
X148426312Y-95028488D01*
X148495347Y-95039253D01*
X148547603Y-95085633D01*
X148566498Y-95151427D01*
X148566498Y-95259483D01*
X148601408Y-95434992D01*
X148601411Y-95435001D01*
X148638829Y-95525337D01*
X148646644Y-95552783D01*
X148646956Y-95554692D01*
X148656519Y-95627324D01*
X148660336Y-95636539D01*
X148662654Y-95650717D01*
X148660615Y-95667134D01*
X148663217Y-95686908D01*
X148654911Y-95749999D01*
X148658949Y-95754604D01*
X148676293Y-95760839D01*
X148706418Y-95769685D01*
X148709958Y-95772941D01*
X148712504Y-95773857D01*
X148737756Y-95798515D01*
X148757706Y-95824515D01*
X148782899Y-95889684D01*
X148768860Y-95958129D01*
X148757706Y-95975485D01*
X148737756Y-96001485D01*
X148681328Y-96042689D01*
X148639379Y-96050000D01*
X148637846Y-96050000D01*
X148617296Y-96063033D01*
X148607272Y-96065464D01*
X148586055Y-96069685D01*
X148586047Y-96069687D01*
X148452559Y-96124980D01*
X148343510Y-96197843D01*
X148306716Y-96214514D01*
X148204220Y-96241979D01*
X148204213Y-96241982D01*
X148073786Y-96317283D01*
X148073781Y-96317287D01*
X147254389Y-97136681D01*
X147193066Y-97170166D01*
X147166708Y-97173000D01*
X144791616Y-97173000D01*
X144762175Y-97164355D01*
X144732189Y-97157832D01*
X144727173Y-97154077D01*
X144724577Y-97153315D01*
X144703935Y-97136681D01*
X144580498Y-97013244D01*
X144551047Y-96983792D01*
X144551040Y-96983786D01*
X144484084Y-96945130D01*
X144484080Y-96945127D01*
X144448885Y-96924806D01*
X144414303Y-96904839D01*
X144388624Y-96885134D01*
X144051911Y-96548421D01*
X144018426Y-96487098D01*
X144023410Y-96417406D01*
X144039262Y-96389856D01*
X144038528Y-96389366D01*
X144141332Y-96235508D01*
X144141332Y-96235507D01*
X144141336Y-96235502D01*
X144209821Y-96070166D01*
X144244734Y-95894645D01*
X144244734Y-95715687D01*
X144209821Y-95540166D01*
X144141336Y-95374830D01*
X144141334Y-95374827D01*
X144141332Y-95374823D01*
X144041345Y-95225182D01*
X144020467Y-95158504D01*
X144038952Y-95091124D01*
X144090930Y-95044434D01*
X144157678Y-95033617D01*
X144157704Y-95033234D01*
X144159373Y-95033343D01*
X144159900Y-95033258D01*
X144160638Y-95033353D01*
X144160919Y-95033389D01*
X144161756Y-95033500D01*
X144161763Y-95033500D01*
X144388237Y-95033500D01*
X144388244Y-95033500D01*
X144502324Y-95018481D01*
X144502325Y-95018480D01*
X144508814Y-95017626D01*
X144541186Y-95017626D01*
X144547674Y-95018480D01*
G37*
%TD.AperFunction*%
%TA.AperFunction,Conductor*%
G36*
X154352918Y-95130442D02*
G01*
X154400459Y-95181644D01*
X154413500Y-95236998D01*
X154413500Y-95680935D01*
X154393815Y-95747974D01*
X154377181Y-95768616D01*
X153729365Y-96416431D01*
X153668042Y-96449916D01*
X153598350Y-96444932D01*
X153542417Y-96403060D01*
X153538596Y-96397661D01*
X153528547Y-96382621D01*
X153528546Y-96382620D01*
X153528544Y-96382617D01*
X153426384Y-96280457D01*
X153426377Y-96280451D01*
X153306244Y-96200181D01*
X153306238Y-96200178D01*
X153251545Y-96177523D01*
X153197142Y-96133682D01*
X153175078Y-96067387D01*
X153174999Y-96062963D01*
X153174999Y-95900860D01*
X153174998Y-95900845D01*
X153164681Y-95799849D01*
X153133536Y-95705862D01*
X153131134Y-95636033D01*
X153166865Y-95575991D01*
X153225553Y-95545547D01*
X153333593Y-95522671D01*
X153398928Y-95504251D01*
X153430901Y-95492907D01*
X153746995Y-95380755D01*
X153746996Y-95380754D01*
X153747023Y-95380745D01*
X153809357Y-95353868D01*
X154138119Y-95185526D01*
X154196361Y-95150663D01*
X154218921Y-95135044D01*
X154285242Y-95113071D01*
X154352918Y-95130442D01*
G37*
%TD.AperFunction*%
%TA.AperFunction,Conductor*%
G36*
X157297334Y-94498163D02*
G01*
X157353267Y-94540035D01*
X157377684Y-94605499D01*
X157378000Y-94614345D01*
X157378000Y-95053133D01*
X157369355Y-95082572D01*
X157362832Y-95112560D01*
X157359077Y-95117575D01*
X157358315Y-95120172D01*
X157341681Y-95140815D01*
X157250180Y-95232315D01*
X157188856Y-95265799D01*
X157119165Y-95260815D01*
X157074818Y-95232314D01*
X156965846Y-95123342D01*
X156965842Y-95123339D01*
X156817428Y-95031795D01*
X156817422Y-95031792D01*
X156817420Y-95031791D01*
X156781995Y-95020052D01*
X156724551Y-94980280D01*
X156698808Y-94923445D01*
X156697000Y-94912973D01*
X156697000Y-94888503D01*
X156685118Y-94844160D01*
X156684162Y-94838621D01*
X156687539Y-94809287D01*
X156688241Y-94779769D01*
X156691490Y-94774968D01*
X156692153Y-94769210D01*
X156710854Y-94746356D01*
X156727403Y-94721906D01*
X156732730Y-94719624D01*
X156736402Y-94715138D01*
X156764490Y-94706023D01*
X156791631Y-94694400D01*
X156793754Y-94694165D01*
X156837651Y-94689681D01*
X157001300Y-94635453D01*
X157001311Y-94635448D01*
X157148034Y-94544947D01*
X157148038Y-94544944D01*
X157166319Y-94526664D01*
X157227642Y-94493179D01*
X157297334Y-94498163D01*
G37*
%TD.AperFunction*%
%TA.AperFunction,Conductor*%
G36*
X158506811Y-92442001D02*
G01*
X158666652Y-92461197D01*
X158689667Y-92466214D01*
X158789219Y-92498078D01*
X158838974Y-92514003D01*
X158860624Y-92523281D01*
X158998200Y-92598443D01*
X159017704Y-92611648D01*
X159138583Y-92711470D01*
X159155240Y-92728128D01*
X159255060Y-92849009D01*
X159268265Y-92868513D01*
X159343427Y-93006094D01*
X159352701Y-93027735D01*
X159369512Y-93080257D01*
X159400489Y-93177045D01*
X159405506Y-93200060D01*
X159416201Y-93289133D01*
X159404649Y-93358042D01*
X159357676Y-93409765D01*
X159290196Y-93427882D01*
X159223633Y-93406641D01*
X159179121Y-93352785D01*
X159175656Y-93341892D01*
X159175192Y-93342046D01*
X159126700Y-93195705D01*
X159118209Y-93170080D01*
X159118205Y-93170074D01*
X159118204Y-93170071D01*
X159026660Y-93021657D01*
X159026657Y-93021653D01*
X158903346Y-92898342D01*
X158903342Y-92898339D01*
X158754928Y-92806795D01*
X158754922Y-92806792D01*
X158754920Y-92806791D01*
X158754917Y-92806790D01*
X158589382Y-92751938D01*
X158487214Y-92741500D01*
X157812794Y-92741500D01*
X157812778Y-92741501D01*
X157710617Y-92751938D01*
X157545082Y-92806790D01*
X157545071Y-92806795D01*
X157396657Y-92898339D01*
X157396653Y-92898342D01*
X157356669Y-92938326D01*
X157295346Y-92971811D01*
X157225654Y-92966825D01*
X157181308Y-92938325D01*
X157148038Y-92905055D01*
X157148034Y-92905052D01*
X157001311Y-92814551D01*
X157001300Y-92814546D01*
X156837652Y-92760319D01*
X156736654Y-92750000D01*
X156650000Y-92750000D01*
X156650000Y-93601000D01*
X156630315Y-93668039D01*
X156577511Y-93713794D01*
X156526000Y-93725000D01*
X156274000Y-93725000D01*
X156206961Y-93705315D01*
X156161206Y-93652511D01*
X156150000Y-93601000D01*
X156150000Y-92750000D01*
X156149999Y-92749999D01*
X156063360Y-92750000D01*
X156063343Y-92750001D01*
X155962348Y-92760319D01*
X155918875Y-92774724D01*
X155849047Y-92777124D01*
X155789005Y-92741392D01*
X155757814Y-92678871D01*
X155755873Y-92657017D01*
X155755873Y-92565117D01*
X155775558Y-92498078D01*
X155828362Y-92452323D01*
X155879873Y-92441117D01*
X158492027Y-92441117D01*
X158506811Y-92442001D01*
G37*
%TD.AperFunction*%
%TA.AperFunction,Conductor*%
G36*
X150537817Y-76955585D02*
G01*
X150583572Y-77008389D01*
X150594778Y-77059914D01*
X150594642Y-78297329D01*
X150574950Y-78364366D01*
X150522141Y-78410115D01*
X150452981Y-78420051D01*
X150405545Y-78402853D01*
X150334928Y-78359295D01*
X150334922Y-78359292D01*
X150334920Y-78359291D01*
X150300411Y-78347856D01*
X150169382Y-78304438D01*
X150067214Y-78294000D01*
X149492794Y-78294000D01*
X149492778Y-78294001D01*
X149390617Y-78304438D01*
X149225082Y-78359290D01*
X149225071Y-78359295D01*
X149076657Y-78450839D01*
X149076653Y-78450842D01*
X148953342Y-78574153D01*
X148953339Y-78574157D01*
X148870107Y-78709097D01*
X148862521Y-78715919D01*
X148858282Y-78725203D01*
X148836981Y-78738891D01*
X148818159Y-78755822D01*
X148806522Y-78758466D01*
X148799504Y-78762977D01*
X148764569Y-78768000D01*
X148632500Y-78768000D01*
X148565461Y-78748315D01*
X148519706Y-78695511D01*
X148508500Y-78644000D01*
X148508500Y-78510520D01*
X148508499Y-78510516D01*
X148496629Y-78450842D01*
X148473587Y-78335000D01*
X148405102Y-78169664D01*
X148405100Y-78169661D01*
X148405098Y-78169657D01*
X148305678Y-78020865D01*
X148305675Y-78020861D01*
X148179138Y-77894324D01*
X148179134Y-77894321D01*
X148030342Y-77794901D01*
X148030332Y-77794896D01*
X147865000Y-77726413D01*
X147864992Y-77726411D01*
X147689483Y-77691500D01*
X147689479Y-77691500D01*
X147510521Y-77691500D01*
X147510516Y-77691500D01*
X147335007Y-77726411D01*
X147334999Y-77726413D01*
X147169667Y-77794896D01*
X147169657Y-77794901D01*
X147020865Y-77894321D01*
X147020861Y-77894324D01*
X146894324Y-78020861D01*
X146894321Y-78020865D01*
X146794901Y-78169657D01*
X146794896Y-78169666D01*
X146759421Y-78255311D01*
X146743621Y-78293454D01*
X146699782Y-78347856D01*
X146633488Y-78369921D01*
X146629062Y-78370000D01*
X146580000Y-78370000D01*
X146580000Y-81770000D01*
X146747828Y-81770000D01*
X146747844Y-81769999D01*
X146807372Y-81763598D01*
X146807376Y-81763597D01*
X146909506Y-81725505D01*
X146979198Y-81720521D01*
X146996172Y-81725505D01*
X147070457Y-81753212D01*
X147115463Y-81769999D01*
X147120799Y-81771989D01*
X147148050Y-81774918D01*
X147181345Y-81778499D01*
X147181362Y-81778500D01*
X148018638Y-81778500D01*
X148018654Y-81778499D01*
X148045692Y-81775591D01*
X148079201Y-81771989D01*
X148084537Y-81769999D01*
X148101698Y-81763598D01*
X148216204Y-81720889D01*
X148333261Y-81633261D01*
X148420889Y-81516204D01*
X148458952Y-81414154D01*
X148805001Y-81414154D01*
X148815319Y-81515152D01*
X148869546Y-81678800D01*
X148869551Y-81678811D01*
X148960052Y-81825534D01*
X148960055Y-81825538D01*
X149081961Y-81947444D01*
X149081965Y-81947447D01*
X149228688Y-82037948D01*
X149228699Y-82037953D01*
X149392347Y-82092180D01*
X149493352Y-82102499D01*
X149530000Y-82102499D01*
X149530000Y-81315000D01*
X148805001Y-81315000D01*
X148805001Y-81414154D01*
X148458952Y-81414154D01*
X148471989Y-81379201D01*
X148475591Y-81345692D01*
X148478499Y-81318654D01*
X148478500Y-81318637D01*
X148478500Y-80051792D01*
X148498185Y-79984753D01*
X148514819Y-79964111D01*
X148530611Y-79948319D01*
X148591934Y-79914834D01*
X148618292Y-79912000D01*
X148764569Y-79912000D01*
X148831608Y-79931685D01*
X148870107Y-79970903D01*
X148953339Y-80105842D01*
X148953342Y-80105846D01*
X148968325Y-80120829D01*
X149001810Y-80182152D01*
X148996826Y-80251844D01*
X148968329Y-80296188D01*
X148960052Y-80304465D01*
X148869551Y-80451188D01*
X148869546Y-80451199D01*
X148815319Y-80614847D01*
X148805000Y-80715845D01*
X148805000Y-80815000D01*
X149656000Y-80815000D01*
X149723039Y-80834685D01*
X149768794Y-80887489D01*
X149780000Y-80939000D01*
X149780000Y-81065000D01*
X149906000Y-81065000D01*
X149973039Y-81084685D01*
X150018794Y-81137489D01*
X150030000Y-81189000D01*
X150030000Y-82102499D01*
X150066640Y-82102499D01*
X150066654Y-82102498D01*
X150167652Y-82092180D01*
X150331300Y-82037953D01*
X150331309Y-82037949D01*
X150405129Y-81992415D01*
X150472521Y-81973973D01*
X150539185Y-81994894D01*
X150583956Y-82048535D01*
X150594228Y-82097965D01*
X150593719Y-86776811D01*
X150574027Y-86843849D01*
X150521218Y-86889598D01*
X150491252Y-86898914D01*
X150376784Y-86919098D01*
X150191726Y-86986454D01*
X150191721Y-86986456D01*
X150021175Y-87084921D01*
X150021172Y-87084924D01*
X149870310Y-87211510D01*
X149743724Y-87362372D01*
X149743721Y-87362375D01*
X149645256Y-87532921D01*
X149645254Y-87532926D01*
X149577898Y-87717985D01*
X149543700Y-87911929D01*
X149543700Y-88108870D01*
X149577898Y-88302814D01*
X149645254Y-88487873D01*
X149645256Y-88487878D01*
X149743721Y-88658424D01*
X149743724Y-88658427D01*
X149870310Y-88809289D01*
X149949618Y-88875835D01*
X150010219Y-88926685D01*
X150021172Y-88935875D01*
X150021175Y-88935878D01*
X150125770Y-88996266D01*
X150191726Y-89034346D01*
X150376787Y-89101702D01*
X150491784Y-89121979D01*
X150521232Y-89136573D01*
X150551173Y-89150138D01*
X150552386Y-89152013D01*
X150554387Y-89153005D01*
X150571272Y-89181207D01*
X150589124Y-89208803D01*
X150589556Y-89211746D01*
X150590278Y-89212952D01*
X150594251Y-89243722D01*
X150594722Y-89400419D01*
X150594230Y-89406347D01*
X150594761Y-89425674D01*
X150594807Y-89428694D01*
X150594866Y-89447994D01*
X150595536Y-89453889D01*
X150623332Y-90465127D01*
X150605497Y-90532682D01*
X150553970Y-90579870D01*
X150485111Y-90591710D01*
X150420782Y-90564443D01*
X150411698Y-90556215D01*
X150385538Y-90530055D01*
X150385534Y-90530052D01*
X150238811Y-90439551D01*
X150238800Y-90439546D01*
X150075152Y-90385319D01*
X149974154Y-90375000D01*
X149875000Y-90375000D01*
X149875000Y-91226000D01*
X149855315Y-91293039D01*
X149802511Y-91338794D01*
X149751000Y-91350000D01*
X149499000Y-91350000D01*
X149431961Y-91330315D01*
X149386206Y-91277511D01*
X149375000Y-91226000D01*
X149375000Y-90374999D01*
X149275860Y-90375000D01*
X149275844Y-90375001D01*
X149174847Y-90385319D01*
X149011199Y-90439546D01*
X149011188Y-90439551D01*
X148864465Y-90530052D01*
X148856188Y-90538329D01*
X148794864Y-90571811D01*
X148725172Y-90566824D01*
X148680829Y-90538325D01*
X148665846Y-90523342D01*
X148665842Y-90523339D01*
X148517428Y-90431795D01*
X148517422Y-90431792D01*
X148517420Y-90431791D01*
X148489641Y-90422586D01*
X148351882Y-90376938D01*
X148249714Y-90366500D01*
X147550294Y-90366500D01*
X147550278Y-90366501D01*
X147448117Y-90376938D01*
X147282582Y-90431790D01*
X147282571Y-90431795D01*
X147134157Y-90523339D01*
X147010840Y-90646655D01*
X146949515Y-90746078D01*
X146897567Y-90792802D01*
X146895751Y-90793654D01*
X146886209Y-90798038D01*
X146815519Y-90816980D01*
X146700617Y-90883318D01*
X146695381Y-90885725D01*
X146674469Y-90888781D01*
X146643607Y-90897051D01*
X146353992Y-90897051D01*
X146286006Y-90915268D01*
X146284759Y-90915602D01*
X146270769Y-90915268D01*
X146257506Y-90919733D01*
X146236529Y-90914453D01*
X146214909Y-90913939D01*
X146203320Y-90906095D01*
X146189749Y-90902680D01*
X146174956Y-90886897D01*
X146157047Y-90874776D01*
X146150574Y-90860884D01*
X146141968Y-90851702D01*
X146134664Y-90826738D01*
X146130710Y-90818251D01*
X146129812Y-90813371D01*
X146122887Y-90745574D01*
X146110439Y-90708010D01*
X146108889Y-90699576D01*
X146111655Y-90673015D01*
X146110737Y-90646328D01*
X146115218Y-90638797D01*
X146116126Y-90630082D01*
X146132813Y-90609232D01*
X146146469Y-90586286D01*
X146155411Y-90580996D01*
X146159785Y-90575533D01*
X146171075Y-90571733D01*
X146182843Y-90564773D01*
X146182253Y-90563508D01*
X146188803Y-90560453D01*
X146335534Y-90469947D01*
X146335538Y-90469944D01*
X146457444Y-90348038D01*
X146457447Y-90348034D01*
X146547948Y-90201311D01*
X146547953Y-90201300D01*
X146602180Y-90037652D01*
X146612499Y-89936654D01*
X146612500Y-89936641D01*
X146612500Y-89900000D01*
X145699000Y-89900000D01*
X145631961Y-89880315D01*
X145586206Y-89827511D01*
X145575000Y-89776000D01*
X145575000Y-89524000D01*
X145594685Y-89456961D01*
X145647489Y-89411206D01*
X145699000Y-89400000D01*
X146612499Y-89400000D01*
X146612499Y-89363360D01*
X146612498Y-89363345D01*
X146602180Y-89262347D01*
X146547953Y-89098699D01*
X146547949Y-89098692D01*
X146546348Y-89096095D01*
X146545792Y-89094066D01*
X146544899Y-89092149D01*
X146545226Y-89091996D01*
X146527909Y-89028702D01*
X146548833Y-88962039D01*
X146602475Y-88917271D01*
X146651888Y-88907000D01*
X148060348Y-88907000D01*
X148060350Y-88907000D01*
X148227515Y-88871468D01*
X148383639Y-88801957D01*
X148521900Y-88701505D01*
X148522711Y-88700605D01*
X148636251Y-88574505D01*
X148636250Y-88574505D01*
X148636254Y-88574502D01*
X148721703Y-88426498D01*
X148774514Y-88263963D01*
X148792378Y-88094000D01*
X148774514Y-87924037D01*
X148721703Y-87761502D01*
X148721183Y-87760602D01*
X148675370Y-87681250D01*
X148636254Y-87613498D01*
X148636252Y-87613496D01*
X148636251Y-87613494D01*
X148521905Y-87486499D01*
X148521902Y-87486497D01*
X148521901Y-87486496D01*
X148521900Y-87486495D01*
X148445655Y-87431100D01*
X148413119Y-87407461D01*
X148392355Y-87380534D01*
X148372500Y-87380180D01*
X148360164Y-87375520D01*
X148359954Y-87375494D01*
X148359734Y-87375358D01*
X148359117Y-87375125D01*
X148227514Y-87316531D01*
X148095881Y-87288552D01*
X148060350Y-87281000D01*
X147989918Y-87281000D01*
X146272231Y-87281000D01*
X146247700Y-87281000D01*
X146162250Y-87281000D01*
X146132947Y-87287228D01*
X145995085Y-87316531D01*
X145995080Y-87316533D01*
X145838961Y-87386043D01*
X145838956Y-87386045D01*
X145700701Y-87486493D01*
X145700694Y-87486499D01*
X145586348Y-87613494D01*
X145586345Y-87613499D01*
X145500897Y-87761500D01*
X145448087Y-87924032D01*
X145448086Y-87924034D01*
X145430222Y-88094000D01*
X145448086Y-88263965D01*
X145448087Y-88263967D01*
X145500897Y-88426499D01*
X145536982Y-88489000D01*
X145553455Y-88556900D01*
X145530603Y-88622927D01*
X145475681Y-88666118D01*
X145429596Y-88675000D01*
X145225861Y-88675000D01*
X145225844Y-88675001D01*
X145124847Y-88685319D01*
X144961199Y-88739546D01*
X144961188Y-88739551D01*
X144814465Y-88830052D01*
X144806188Y-88838329D01*
X144744864Y-88871811D01*
X144675172Y-88866824D01*
X144630829Y-88838325D01*
X144615846Y-88823342D01*
X144615842Y-88823339D01*
X144467428Y-88731795D01*
X144467422Y-88731792D01*
X144467420Y-88731791D01*
X144459776Y-88729258D01*
X144301882Y-88676938D01*
X144199720Y-88666500D01*
X144199713Y-88666500D01*
X144175493Y-88666500D01*
X144108454Y-88646815D01*
X144062699Y-88594011D01*
X144052755Y-88524853D01*
X144068106Y-88480500D01*
X144080125Y-88459681D01*
X144099803Y-88425598D01*
X144152614Y-88263063D01*
X144170478Y-88093100D01*
X144152614Y-87923137D01*
X144099803Y-87760602D01*
X144092998Y-87748816D01*
X144081745Y-87729325D01*
X144014354Y-87612598D01*
X144014352Y-87612596D01*
X144014351Y-87612594D01*
X143900005Y-87485599D01*
X143899998Y-87485593D01*
X143761743Y-87385145D01*
X143761740Y-87385143D01*
X143761739Y-87385143D01*
X143692662Y-87354388D01*
X143605619Y-87315633D01*
X143605614Y-87315631D01*
X143473981Y-87287652D01*
X143438450Y-87280100D01*
X143368018Y-87280100D01*
X141650331Y-87280100D01*
X141625800Y-87280100D01*
X141540350Y-87280100D01*
X141511047Y-87286328D01*
X141373185Y-87315631D01*
X141373180Y-87315633D01*
X141217061Y-87385143D01*
X141217056Y-87385145D01*
X141078801Y-87485593D01*
X141078794Y-87485599D01*
X140964448Y-87612594D01*
X140964445Y-87612599D01*
X140878997Y-87760600D01*
X140826187Y-87923132D01*
X140826186Y-87923134D01*
X140808322Y-88093100D01*
X140826186Y-88263065D01*
X140826187Y-88263067D01*
X140878997Y-88425600D01*
X140878998Y-88425602D01*
X140915601Y-88489001D01*
X140932074Y-88556901D01*
X140909221Y-88622928D01*
X140854300Y-88666118D01*
X140808214Y-88675000D01*
X140800000Y-88675000D01*
X140800000Y-90514348D01*
X140784237Y-90569929D01*
X140785935Y-90570721D01*
X140782883Y-90577264D01*
X140727113Y-90745570D01*
X140727113Y-90745571D01*
X140716500Y-90849447D01*
X140716500Y-91708208D01*
X140696815Y-91775247D01*
X140644011Y-91821002D01*
X140574853Y-91830946D01*
X140511297Y-91801921D01*
X140504819Y-91795889D01*
X140199217Y-91490287D01*
X140199209Y-91490281D01*
X140131159Y-91450993D01*
X140131150Y-91450988D01*
X140128910Y-91449695D01*
X140068784Y-91414981D01*
X140055569Y-91411440D01*
X140043419Y-91405082D01*
X140027745Y-91389954D01*
X140009149Y-91378617D01*
X140000286Y-91363450D01*
X139993147Y-91356560D01*
X139991035Y-91347621D01*
X139983204Y-91334219D01*
X139957809Y-91257580D01*
X139957805Y-91257574D01*
X139957804Y-91257571D01*
X139866260Y-91109157D01*
X139866257Y-91109153D01*
X139851274Y-91094170D01*
X139817789Y-91032847D01*
X139822773Y-90963155D01*
X139851280Y-90918801D01*
X139859547Y-90910534D01*
X139950048Y-90763811D01*
X139950054Y-90763798D01*
X139971449Y-90699231D01*
X140011220Y-90641786D01*
X140075736Y-90614962D01*
X140101758Y-90614876D01*
X140200851Y-90624999D01*
X140300000Y-90624998D01*
X140300000Y-88674999D01*
X140200860Y-88675000D01*
X140200844Y-88675001D01*
X140099847Y-88685319D01*
X139936199Y-88739546D01*
X139936188Y-88739551D01*
X139789465Y-88830052D01*
X139789461Y-88830055D01*
X139667554Y-88951962D01*
X139590744Y-89076490D01*
X139538796Y-89123214D01*
X139469833Y-89134435D01*
X139446204Y-89129099D01*
X139427251Y-89122819D01*
X139326254Y-89112500D01*
X139201699Y-89112500D01*
X139134660Y-89092815D01*
X139088905Y-89040011D01*
X139078961Y-88970853D01*
X139107986Y-88907297D01*
X139155445Y-88875835D01*
X139154678Y-88874112D01*
X139206159Y-88851190D01*
X139316739Y-88801957D01*
X139455000Y-88701505D01*
X139455811Y-88700605D01*
X139569351Y-88574505D01*
X139569350Y-88574505D01*
X139569354Y-88574502D01*
X139654803Y-88426498D01*
X139707614Y-88263963D01*
X139725478Y-88094000D01*
X139707614Y-87924037D01*
X139702831Y-87909316D01*
X139700837Y-87839474D01*
X139736919Y-87779642D01*
X139799621Y-87748816D01*
X139820763Y-87747000D01*
X140220302Y-87747000D01*
X140220305Y-87747000D01*
X140365784Y-87708019D01*
X140496216Y-87632714D01*
X140602714Y-87526216D01*
X140661273Y-87467657D01*
X140661285Y-87467643D01*
X142414112Y-85714819D01*
X142475435Y-85681334D01*
X142501793Y-85678500D01*
X142938638Y-85678500D01*
X142938654Y-85678499D01*
X142965692Y-85675591D01*
X142999201Y-85671989D01*
X143111667Y-85630040D01*
X143138025Y-85628155D01*
X143163848Y-85622538D01*
X143176886Y-85625374D01*
X143181356Y-85625055D01*
X143198326Y-85630038D01*
X143310799Y-85671989D01*
X143338050Y-85674918D01*
X143371345Y-85678499D01*
X143371362Y-85678500D01*
X144001500Y-85678500D01*
X144068539Y-85698185D01*
X144114294Y-85750989D01*
X144125500Y-85802500D01*
X144125500Y-85941483D01*
X144160411Y-86116992D01*
X144160413Y-86117000D01*
X144228896Y-86282332D01*
X144228901Y-86282342D01*
X144328321Y-86431134D01*
X144328324Y-86431138D01*
X144454861Y-86557675D01*
X144454865Y-86557678D01*
X144603657Y-86657098D01*
X144603661Y-86657100D01*
X144603664Y-86657102D01*
X144769000Y-86725587D01*
X144900552Y-86751754D01*
X144944516Y-86760499D01*
X144944520Y-86760500D01*
X144944521Y-86760500D01*
X145123480Y-86760500D01*
X145123481Y-86760499D01*
X145299000Y-86725587D01*
X145464336Y-86657102D01*
X145613135Y-86557678D01*
X145739678Y-86431135D01*
X145839102Y-86282336D01*
X145839104Y-86282329D01*
X145841972Y-86276966D01*
X145843720Y-86277900D01*
X145881836Y-86230599D01*
X145948129Y-86208531D01*
X146015829Y-86225808D01*
X146040241Y-86244771D01*
X146227286Y-86431816D01*
X146333784Y-86538314D01*
X146403418Y-86578517D01*
X146464212Y-86613617D01*
X146464213Y-86613617D01*
X146464216Y-86613619D01*
X146609695Y-86652600D01*
X146894378Y-86652600D01*
X146961417Y-86672285D01*
X146963264Y-86673494D01*
X147048758Y-86730619D01*
X147182246Y-86785912D01*
X147323952Y-86814099D01*
X147323956Y-86814100D01*
X147323957Y-86814100D01*
X147468444Y-86814100D01*
X147468445Y-86814099D01*
X147610154Y-86785912D01*
X147743642Y-86730619D01*
X147797052Y-86694931D01*
X147863728Y-86674054D01*
X147931109Y-86692538D01*
X147953623Y-86710353D01*
X148081486Y-86838216D01*
X148187984Y-86944714D01*
X148289240Y-87003174D01*
X148294515Y-87006219D01*
X148312130Y-87018538D01*
X148316322Y-87022048D01*
X148401821Y-87107547D01*
X148484025Y-87162473D01*
X148489160Y-87166773D01*
X148503980Y-87188998D01*
X148527675Y-87190354D01*
X148533440Y-87192575D01*
X148655446Y-87243112D01*
X148797152Y-87271299D01*
X148797156Y-87271300D01*
X148797157Y-87271300D01*
X148941644Y-87271300D01*
X148941645Y-87271299D01*
X149083354Y-87243112D01*
X149216842Y-87187819D01*
X149216843Y-87187818D01*
X149216844Y-87187818D01*
X149311747Y-87124406D01*
X149336979Y-87107547D01*
X149439147Y-87005379D01*
X149479683Y-86944712D01*
X149519418Y-86885244D01*
X149519418Y-86885243D01*
X149519419Y-86885242D01*
X149574712Y-86751754D01*
X149602900Y-86610043D01*
X149602900Y-86465557D01*
X149574712Y-86323846D01*
X149519419Y-86190358D01*
X149519418Y-86190356D01*
X149519418Y-86190355D01*
X149439148Y-86070222D01*
X149439142Y-86070215D01*
X149336984Y-85968057D01*
X149336977Y-85968051D01*
X149216843Y-85887781D01*
X149083354Y-85832488D01*
X149083346Y-85832486D01*
X148941647Y-85804300D01*
X148941643Y-85804300D01*
X148797157Y-85804300D01*
X148797156Y-85804300D01*
X148752286Y-85813224D01*
X148682695Y-85806995D01*
X148640417Y-85779287D01*
X148435407Y-85574277D01*
X148401922Y-85512954D01*
X148406906Y-85443262D01*
X148417252Y-85424318D01*
X148416640Y-85423984D01*
X148420884Y-85416210D01*
X148420889Y-85416204D01*
X148471989Y-85279201D01*
X148475591Y-85245692D01*
X148478499Y-85218654D01*
X148478500Y-85218637D01*
X148478500Y-82721362D01*
X148478499Y-82721345D01*
X148475157Y-82690270D01*
X148471989Y-82660799D01*
X148420889Y-82523796D01*
X148333261Y-82406739D01*
X148216204Y-82319111D01*
X148191664Y-82309958D01*
X148079203Y-82268011D01*
X148018654Y-82261500D01*
X148018638Y-82261500D01*
X147181362Y-82261500D01*
X147181345Y-82261500D01*
X147120797Y-82268011D01*
X147120796Y-82268011D01*
X147008333Y-82309958D01*
X146938642Y-82314942D01*
X146921667Y-82309958D01*
X146809202Y-82268011D01*
X146748654Y-82261500D01*
X146748638Y-82261500D01*
X145911362Y-82261500D01*
X145911345Y-82261500D01*
X145850797Y-82268011D01*
X145850796Y-82268011D01*
X145738333Y-82309958D01*
X145668642Y-82314942D01*
X145651667Y-82309958D01*
X145539202Y-82268011D01*
X145478654Y-82261500D01*
X145478638Y-82261500D01*
X144641362Y-82261500D01*
X144641345Y-82261500D01*
X144580797Y-82268011D01*
X144580796Y-82268011D01*
X144468333Y-82309958D01*
X144398642Y-82314942D01*
X144381667Y-82309958D01*
X144269202Y-82268011D01*
X144208654Y-82261500D01*
X144208638Y-82261500D01*
X143371362Y-82261500D01*
X143371345Y-82261500D01*
X143310797Y-82268011D01*
X143310796Y-82268011D01*
X143198333Y-82309958D01*
X143128642Y-82314942D01*
X143111667Y-82309958D01*
X142999202Y-82268011D01*
X142938654Y-82261500D01*
X142938638Y-82261500D01*
X142101362Y-82261500D01*
X142101345Y-82261500D01*
X142040797Y-82268011D01*
X142040796Y-82268011D01*
X141928333Y-82309958D01*
X141858642Y-82314942D01*
X141841667Y-82309958D01*
X141729202Y-82268011D01*
X141668654Y-82261500D01*
X141668638Y-82261500D01*
X140831362Y-82261500D01*
X140831345Y-82261500D01*
X140770797Y-82268011D01*
X140770796Y-82268011D01*
X140658333Y-82309958D01*
X140588642Y-82314942D01*
X140571667Y-82309958D01*
X140459202Y-82268011D01*
X140398654Y-82261500D01*
X140398638Y-82261500D01*
X139561362Y-82261500D01*
X139561345Y-82261500D01*
X139500797Y-82268011D01*
X139500796Y-82268011D01*
X139388333Y-82309958D01*
X139318642Y-82314942D01*
X139301667Y-82309958D01*
X139189202Y-82268011D01*
X139128654Y-82261500D01*
X139128638Y-82261500D01*
X138291362Y-82261500D01*
X138291345Y-82261500D01*
X138230797Y-82268011D01*
X138230796Y-82268011D01*
X138118333Y-82309958D01*
X138048642Y-82314942D01*
X138031667Y-82309958D01*
X137919202Y-82268011D01*
X137858654Y-82261500D01*
X137858638Y-82261500D01*
X137021362Y-82261500D01*
X137021345Y-82261500D01*
X136960797Y-82268011D01*
X136960796Y-82268011D01*
X136848333Y-82309958D01*
X136778642Y-82314942D01*
X136761667Y-82309958D01*
X136649202Y-82268011D01*
X136588654Y-82261500D01*
X136588638Y-82261500D01*
X135751362Y-82261500D01*
X135751345Y-82261500D01*
X135690797Y-82268011D01*
X135690795Y-82268011D01*
X135553795Y-82319111D01*
X135436739Y-82406739D01*
X135349111Y-82523795D01*
X135298011Y-82660795D01*
X135298011Y-82660797D01*
X135291500Y-82721345D01*
X135291500Y-85218654D01*
X135298011Y-85279202D01*
X135298011Y-85279204D01*
X135349109Y-85416198D01*
X135349111Y-85416204D01*
X135436739Y-85533261D01*
X135534999Y-85606818D01*
X135548310Y-85616782D01*
X135590182Y-85672715D01*
X135598000Y-85716049D01*
X135598000Y-85745305D01*
X135636981Y-85890784D01*
X135704862Y-86008357D01*
X135712286Y-86021216D01*
X135829604Y-86138534D01*
X135831218Y-86140277D01*
X135845757Y-86169520D01*
X135861400Y-86198168D01*
X135861851Y-86200335D01*
X135870486Y-86243746D01*
X135870488Y-86243754D01*
X135925781Y-86377243D01*
X135925781Y-86377244D01*
X136006051Y-86497377D01*
X136006057Y-86497384D01*
X136087190Y-86578517D01*
X136120675Y-86639840D01*
X136115691Y-86709532D01*
X136087190Y-86753879D01*
X135748784Y-87092286D01*
X135642288Y-87198781D01*
X135642284Y-87198787D01*
X135572926Y-87318918D01*
X135522359Y-87367134D01*
X135453752Y-87380356D01*
X135388887Y-87354388D01*
X135371553Y-87336712D01*
X135371270Y-87336971D01*
X135367408Y-87332734D01*
X135220111Y-87198456D01*
X135220110Y-87198455D01*
X135119081Y-87135900D01*
X135050647Y-87093527D01*
X135050645Y-87093526D01*
X134950229Y-87054625D01*
X134864786Y-87021524D01*
X134745914Y-86999303D01*
X134683634Y-86967636D01*
X134648361Y-86907324D01*
X134644700Y-86877415D01*
X134644700Y-81317844D01*
X135300000Y-81317844D01*
X135306401Y-81377372D01*
X135306403Y-81377379D01*
X135356645Y-81512086D01*
X135356649Y-81512093D01*
X135442809Y-81627187D01*
X135442812Y-81627190D01*
X135557906Y-81713350D01*
X135557913Y-81713354D01*
X135692620Y-81763596D01*
X135692627Y-81763598D01*
X135752155Y-81769999D01*
X135752172Y-81770000D01*
X135920000Y-81770000D01*
X136420000Y-81770000D01*
X136587828Y-81770000D01*
X136587844Y-81769999D01*
X136647372Y-81763598D01*
X136647376Y-81763597D01*
X136761666Y-81720969D01*
X136831357Y-81715985D01*
X136848334Y-81720969D01*
X136962623Y-81763597D01*
X136962627Y-81763598D01*
X137022155Y-81769999D01*
X137022172Y-81770000D01*
X137190000Y-81770000D01*
X137690000Y-81770000D01*
X137857828Y-81770000D01*
X137857844Y-81769999D01*
X137917372Y-81763598D01*
X137917376Y-81763597D01*
X138031666Y-81720969D01*
X138101357Y-81715985D01*
X138118334Y-81720969D01*
X138232623Y-81763597D01*
X138232627Y-81763598D01*
X138292155Y-81769999D01*
X138292172Y-81770000D01*
X138460000Y-81770000D01*
X138460000Y-80320000D01*
X137690000Y-80320000D01*
X137690000Y-81770000D01*
X137190000Y-81770000D01*
X137190000Y-80320000D01*
X136420000Y-80320000D01*
X136420000Y-81770000D01*
X135920000Y-81770000D01*
X135920000Y-80320000D01*
X135300000Y-80320000D01*
X135300000Y-81317844D01*
X134644700Y-81317844D01*
X134644700Y-78822155D01*
X135300000Y-78822155D01*
X135300000Y-79820000D01*
X135920000Y-79820000D01*
X136420000Y-79820000D01*
X137190000Y-79820000D01*
X137690000Y-79820000D01*
X138460000Y-79820000D01*
X138460000Y-78370000D01*
X138960000Y-78370000D01*
X138960000Y-81770000D01*
X139127828Y-81770000D01*
X139127844Y-81769999D01*
X139187372Y-81763598D01*
X139187376Y-81763597D01*
X139289506Y-81725505D01*
X139359198Y-81720521D01*
X139376172Y-81725505D01*
X139450457Y-81753212D01*
X139495463Y-81769999D01*
X139500799Y-81771989D01*
X139528050Y-81774918D01*
X139561345Y-81778499D01*
X139561362Y-81778500D01*
X140398638Y-81778500D01*
X140398654Y-81778499D01*
X140425692Y-81775591D01*
X140459201Y-81771989D01*
X140464537Y-81769999D01*
X140481698Y-81763598D01*
X140571667Y-81730040D01*
X140641356Y-81725055D01*
X140658326Y-81730038D01*
X140748302Y-81763598D01*
X140765463Y-81769999D01*
X140770799Y-81771989D01*
X140798050Y-81774918D01*
X140831345Y-81778499D01*
X140831362Y-81778500D01*
X141668638Y-81778500D01*
X141668654Y-81778499D01*
X141695692Y-81775591D01*
X141729201Y-81771989D01*
X141734537Y-81769999D01*
X141751698Y-81763598D01*
X141841667Y-81730040D01*
X141911356Y-81725055D01*
X141928326Y-81730038D01*
X142018302Y-81763598D01*
X142035463Y-81769999D01*
X142040799Y-81771989D01*
X142068050Y-81774918D01*
X142101345Y-81778499D01*
X142101362Y-81778500D01*
X142938638Y-81778500D01*
X142938654Y-81778499D01*
X142965692Y-81775591D01*
X142999201Y-81771989D01*
X143004537Y-81769999D01*
X143021698Y-81763598D01*
X143111667Y-81730040D01*
X143181356Y-81725055D01*
X143198326Y-81730038D01*
X143288302Y-81763598D01*
X143305463Y-81769999D01*
X143310799Y-81771989D01*
X143338050Y-81774918D01*
X143371345Y-81778499D01*
X143371362Y-81778500D01*
X144208638Y-81778500D01*
X144208654Y-81778499D01*
X144235692Y-81775591D01*
X144269201Y-81771989D01*
X144274537Y-81769999D01*
X144319542Y-81753212D01*
X144393825Y-81725505D01*
X144463517Y-81720521D01*
X144480494Y-81725505D01*
X144582623Y-81763597D01*
X144582627Y-81763598D01*
X144642155Y-81769999D01*
X144642172Y-81770000D01*
X144810000Y-81770000D01*
X145310000Y-81770000D01*
X145477828Y-81770000D01*
X145477844Y-81769999D01*
X145537372Y-81763598D01*
X145537376Y-81763597D01*
X145651666Y-81720969D01*
X145721357Y-81715985D01*
X145738334Y-81720969D01*
X145852623Y-81763597D01*
X145852627Y-81763598D01*
X145912155Y-81769999D01*
X145912172Y-81770000D01*
X146080000Y-81770000D01*
X146080000Y-80320000D01*
X145310000Y-80320000D01*
X145310000Y-81770000D01*
X144810000Y-81770000D01*
X144810000Y-79820000D01*
X145310000Y-79820000D01*
X146080000Y-79820000D01*
X146080000Y-78370000D01*
X145912155Y-78370000D01*
X145852627Y-78376401D01*
X145852619Y-78376403D01*
X145738333Y-78419029D01*
X145668641Y-78424013D01*
X145651667Y-78419029D01*
X145537380Y-78376403D01*
X145537372Y-78376401D01*
X145477844Y-78370000D01*
X145310000Y-78370000D01*
X145310000Y-79820000D01*
X144810000Y-79820000D01*
X144810000Y-78370000D01*
X144642155Y-78370000D01*
X144582627Y-78376401D01*
X144582620Y-78376403D01*
X144480493Y-78414494D01*
X144410801Y-78419478D01*
X144393826Y-78414494D01*
X144269201Y-78368010D01*
X144208654Y-78361500D01*
X144208638Y-78361500D01*
X143371362Y-78361500D01*
X143371345Y-78361500D01*
X143310797Y-78368011D01*
X143310796Y-78368011D01*
X143198333Y-78409958D01*
X143128642Y-78414942D01*
X143111667Y-78409958D01*
X142999202Y-78368011D01*
X142938654Y-78361500D01*
X142938638Y-78361500D01*
X142101362Y-78361500D01*
X142101345Y-78361500D01*
X142040797Y-78368011D01*
X142040796Y-78368011D01*
X141928333Y-78409958D01*
X141858642Y-78414942D01*
X141841667Y-78409958D01*
X141729202Y-78368011D01*
X141668654Y-78361500D01*
X141668638Y-78361500D01*
X140831362Y-78361500D01*
X140831345Y-78361500D01*
X140770797Y-78368011D01*
X140770796Y-78368011D01*
X140658333Y-78409958D01*
X140588642Y-78414942D01*
X140571667Y-78409958D01*
X140459202Y-78368011D01*
X140398654Y-78361500D01*
X140398638Y-78361500D01*
X139561362Y-78361500D01*
X139561345Y-78361500D01*
X139500798Y-78368010D01*
X139376174Y-78414494D01*
X139306482Y-78419478D01*
X139289507Y-78414494D01*
X139187379Y-78376403D01*
X139187372Y-78376401D01*
X139127844Y-78370000D01*
X138960000Y-78370000D01*
X138460000Y-78370000D01*
X138292155Y-78370000D01*
X138232627Y-78376401D01*
X138232619Y-78376403D01*
X138118333Y-78419029D01*
X138048641Y-78424013D01*
X138031667Y-78419029D01*
X137917380Y-78376403D01*
X137917372Y-78376401D01*
X137857844Y-78370000D01*
X137690000Y-78370000D01*
X137690000Y-79820000D01*
X137190000Y-79820000D01*
X137190000Y-78370000D01*
X137022155Y-78370000D01*
X136962627Y-78376401D01*
X136962619Y-78376403D01*
X136848333Y-78419029D01*
X136778641Y-78424013D01*
X136761667Y-78419029D01*
X136647380Y-78376403D01*
X136647372Y-78376401D01*
X136587844Y-78370000D01*
X136420000Y-78370000D01*
X136420000Y-79820000D01*
X135920000Y-79820000D01*
X135920000Y-78370000D01*
X135752155Y-78370000D01*
X135692627Y-78376401D01*
X135692620Y-78376403D01*
X135557913Y-78426645D01*
X135557906Y-78426649D01*
X135442812Y-78512809D01*
X135442809Y-78512812D01*
X135356649Y-78627906D01*
X135356645Y-78627913D01*
X135306403Y-78762620D01*
X135306401Y-78762627D01*
X135300000Y-78822155D01*
X134644700Y-78822155D01*
X134644700Y-77059900D01*
X134664385Y-76992861D01*
X134717189Y-76947106D01*
X134768700Y-76935900D01*
X150470778Y-76935900D01*
X150537817Y-76955585D01*
G37*
%TD.AperFunction*%
%TA.AperFunction,Conductor*%
G36*
X138602336Y-89900000D02*
G01*
X138915600Y-89900000D01*
X138982639Y-89919685D01*
X139028394Y-89972489D01*
X139039600Y-90024000D01*
X139039600Y-90276000D01*
X139019915Y-90343039D01*
X138967111Y-90388794D01*
X138915600Y-90400000D01*
X137989162Y-90400000D01*
X137978264Y-90396800D01*
X137500514Y-90396800D01*
X137433475Y-90377115D01*
X137412833Y-90360481D01*
X137160833Y-90108481D01*
X137127348Y-90047158D01*
X137132332Y-89977466D01*
X137174204Y-89921533D01*
X137239668Y-89897116D01*
X137248514Y-89896800D01*
X138591438Y-89896800D01*
X138602336Y-89900000D01*
G37*
%TD.AperFunction*%
%TA.AperFunction,Conductor*%
G36*
X138601861Y-88926685D02*
G01*
X138647616Y-88979489D01*
X138657560Y-89048647D01*
X138628535Y-89112203D01*
X138573826Y-89148706D01*
X138488299Y-89177046D01*
X138488290Y-89177050D01*
X138357989Y-89257421D01*
X138290597Y-89275861D01*
X138227796Y-89257420D01*
X138092311Y-89173851D01*
X138092300Y-89173846D01*
X138016431Y-89148706D01*
X137958986Y-89108933D01*
X137932163Y-89044418D01*
X137944478Y-88975642D01*
X137992021Y-88924442D01*
X138055435Y-88907000D01*
X138534822Y-88907000D01*
X138601861Y-88926685D01*
G37*
%TD.AperFunction*%
%TD*%
M02*
