%TF.GenerationSoftware,KiCad,Pcbnew,9.0.2*%
%TF.CreationDate,2025-06-08T15:56:05+02:00*%
%TF.ProjectId,MicroMod_Processor_Board,4d696372-6f4d-46f6-945f-50726f636573,rev?*%
%TF.SameCoordinates,Original*%
%TF.FileFunction,Legend,Top*%
%TF.FilePolarity,Positive*%
%FSLAX46Y46*%
G04 Gerber Fmt 4.6, Leading zero omitted, Abs format (unit mm)*
G04 Created by KiCad (PCBNEW 9.0.2) date 2025-06-08 15:56:05*
%MOMM*%
%LPD*%
G01*
G04 APERTURE LIST*
G04 Aperture macros list*
%AMRoundRect*
0 Rectangle with rounded corners*
0 $1 Rounding radius*
0 $2 $3 $4 $5 $6 $7 $8 $9 X,Y pos of 4 corners*
0 Add a 4 corners polygon primitive as box body*
4,1,4,$2,$3,$4,$5,$6,$7,$8,$9,$2,$3,0*
0 Add four circle primitives for the rounded corners*
1,1,$1+$1,$2,$3*
1,1,$1+$1,$4,$5*
1,1,$1+$1,$6,$7*
1,1,$1+$1,$8,$9*
0 Add four rect primitives between the rounded corners*
20,1,$1+$1,$2,$3,$4,$5,0*
20,1,$1+$1,$4,$5,$6,$7,0*
20,1,$1+$1,$6,$7,$8,$9,0*
20,1,$1+$1,$8,$9,$2,$3,0*%
G04 Aperture macros list end*
%ADD10C,0.150000*%
%ADD11C,0.120000*%
%ADD12C,0.000000*%
%ADD13C,0.152400*%
%ADD14C,0.508000*%
%ADD15RoundRect,0.262500X0.275000X0.262500X-0.275000X0.262500X-0.275000X-0.262500X0.275000X-0.262500X0*%
%ADD16RoundRect,0.262500X0.262500X-0.275000X0.262500X0.275000X-0.262500X0.275000X-0.262500X-0.275000X0*%
%ADD17RoundRect,0.262500X-0.262500X0.325000X-0.262500X-0.325000X0.262500X-0.325000X0.262500X0.325000X0*%
%ADD18RoundRect,0.262500X0.325000X0.262500X-0.325000X0.262500X-0.325000X-0.262500X0.325000X-0.262500X0*%
%ADD19RoundRect,0.262500X-0.312500X-0.262500X0.312500X-0.262500X0.312500X0.262500X-0.312500X0.262500X0*%
%ADD20RoundRect,0.262500X0.262500X-0.325000X0.262500X0.325000X-0.262500X0.325000X-0.262500X-0.325000X0*%
%ADD21RoundRect,0.262500X-0.325000X-0.262500X0.325000X-0.262500X0.325000X0.262500X-0.325000X0.262500X0*%
%ADD22RoundRect,0.269231X-0.430769X-0.655769X0.430769X-0.655769X0.430769X0.655769X-0.430769X0.655769X0*%
%ADD23RoundRect,0.100000X-0.100000X0.750000X-0.100000X-0.750000X0.100000X-0.750000X0.100000X0.750000X0*%
%ADD24RoundRect,0.100000X-0.750000X0.100000X-0.750000X-0.100000X0.750000X-0.100000X0.750000X0.100000X0*%
%ADD25RoundRect,0.101600X0.175000X0.725000X-0.175000X0.725000X-0.175000X-0.725000X0.175000X-0.725000X0*%
%ADD26C,0.657200*%
%ADD27RoundRect,0.050000X0.711200X-0.101600X0.711200X0.101600X-0.711200X0.101600X-0.711200X-0.101600X0*%
%ADD28RoundRect,0.050000X-0.370000X1.200000X-0.370000X-1.200000X0.370000X-1.200000X0.370000X1.200000X0*%
G04 APERTURE END LIST*
D10*
X155766541Y-95314700D02*
X155873684Y-95350414D01*
X155873684Y-95350414D02*
X156052255Y-95350414D01*
X156052255Y-95350414D02*
X156123684Y-95314700D01*
X156123684Y-95314700D02*
X156159398Y-95278985D01*
X156159398Y-95278985D02*
X156195112Y-95207557D01*
X156195112Y-95207557D02*
X156195112Y-95136128D01*
X156195112Y-95136128D02*
X156159398Y-95064700D01*
X156159398Y-95064700D02*
X156123684Y-95028985D01*
X156123684Y-95028985D02*
X156052255Y-94993271D01*
X156052255Y-94993271D02*
X155909398Y-94957557D01*
X155909398Y-94957557D02*
X155837969Y-94921842D01*
X155837969Y-94921842D02*
X155802255Y-94886128D01*
X155802255Y-94886128D02*
X155766541Y-94814700D01*
X155766541Y-94814700D02*
X155766541Y-94743271D01*
X155766541Y-94743271D02*
X155802255Y-94671842D01*
X155802255Y-94671842D02*
X155837969Y-94636128D01*
X155837969Y-94636128D02*
X155909398Y-94600414D01*
X155909398Y-94600414D02*
X156087969Y-94600414D01*
X156087969Y-94600414D02*
X156195112Y-94636128D01*
X156409398Y-94600414D02*
X156837970Y-94600414D01*
X156623684Y-95350414D02*
X156623684Y-94600414D01*
X157052256Y-95136128D02*
X157409399Y-95136128D01*
X156980827Y-95350414D02*
X157230827Y-94600414D01*
X157230827Y-94600414D02*
X157480827Y-95350414D01*
X157623684Y-94600414D02*
X158052256Y-94600414D01*
X157837970Y-95350414D02*
X157837970Y-94600414D01*
X158583333Y-97829819D02*
X158250000Y-97353628D01*
X158011905Y-97829819D02*
X158011905Y-96829819D01*
X158011905Y-96829819D02*
X158392857Y-96829819D01*
X158392857Y-96829819D02*
X158488095Y-96877438D01*
X158488095Y-96877438D02*
X158535714Y-96925057D01*
X158535714Y-96925057D02*
X158583333Y-97020295D01*
X158583333Y-97020295D02*
X158583333Y-97163152D01*
X158583333Y-97163152D02*
X158535714Y-97258390D01*
X158535714Y-97258390D02*
X158488095Y-97306009D01*
X158488095Y-97306009D02*
X158392857Y-97353628D01*
X158392857Y-97353628D02*
X158011905Y-97353628D01*
X159440476Y-97163152D02*
X159440476Y-97829819D01*
X159202381Y-96782200D02*
X158964286Y-97496485D01*
X158964286Y-97496485D02*
X159583333Y-97496485D01*
X154129819Y-96466666D02*
X153653628Y-96799999D01*
X154129819Y-97038094D02*
X153129819Y-97038094D01*
X153129819Y-97038094D02*
X153129819Y-96657142D01*
X153129819Y-96657142D02*
X153177438Y-96561904D01*
X153177438Y-96561904D02*
X153225057Y-96514285D01*
X153225057Y-96514285D02*
X153320295Y-96466666D01*
X153320295Y-96466666D02*
X153463152Y-96466666D01*
X153463152Y-96466666D02*
X153558390Y-96514285D01*
X153558390Y-96514285D02*
X153606009Y-96561904D01*
X153606009Y-96561904D02*
X153653628Y-96657142D01*
X153653628Y-96657142D02*
X153653628Y-97038094D01*
X153225057Y-96085713D02*
X153177438Y-96038094D01*
X153177438Y-96038094D02*
X153129819Y-95942856D01*
X153129819Y-95942856D02*
X153129819Y-95704761D01*
X153129819Y-95704761D02*
X153177438Y-95609523D01*
X153177438Y-95609523D02*
X153225057Y-95561904D01*
X153225057Y-95561904D02*
X153320295Y-95514285D01*
X153320295Y-95514285D02*
X153415533Y-95514285D01*
X153415533Y-95514285D02*
X153558390Y-95561904D01*
X153558390Y-95561904D02*
X154129819Y-96133332D01*
X154129819Y-96133332D02*
X154129819Y-95514285D01*
X150159580Y-84091666D02*
X150207200Y-84139285D01*
X150207200Y-84139285D02*
X150254819Y-84282142D01*
X150254819Y-84282142D02*
X150254819Y-84377380D01*
X150254819Y-84377380D02*
X150207200Y-84520237D01*
X150207200Y-84520237D02*
X150111961Y-84615475D01*
X150111961Y-84615475D02*
X150016723Y-84663094D01*
X150016723Y-84663094D02*
X149826247Y-84710713D01*
X149826247Y-84710713D02*
X149683390Y-84710713D01*
X149683390Y-84710713D02*
X149492914Y-84663094D01*
X149492914Y-84663094D02*
X149397676Y-84615475D01*
X149397676Y-84615475D02*
X149302438Y-84520237D01*
X149302438Y-84520237D02*
X149254819Y-84377380D01*
X149254819Y-84377380D02*
X149254819Y-84282142D01*
X149254819Y-84282142D02*
X149302438Y-84139285D01*
X149302438Y-84139285D02*
X149350057Y-84091666D01*
X149588152Y-83234523D02*
X150254819Y-83234523D01*
X149207200Y-83472618D02*
X149921485Y-83710713D01*
X149921485Y-83710713D02*
X149921485Y-83091666D01*
X133032142Y-108609580D02*
X132984523Y-108657200D01*
X132984523Y-108657200D02*
X132841666Y-108704819D01*
X132841666Y-108704819D02*
X132746428Y-108704819D01*
X132746428Y-108704819D02*
X132603571Y-108657200D01*
X132603571Y-108657200D02*
X132508333Y-108561961D01*
X132508333Y-108561961D02*
X132460714Y-108466723D01*
X132460714Y-108466723D02*
X132413095Y-108276247D01*
X132413095Y-108276247D02*
X132413095Y-108133390D01*
X132413095Y-108133390D02*
X132460714Y-107942914D01*
X132460714Y-107942914D02*
X132508333Y-107847676D01*
X132508333Y-107847676D02*
X132603571Y-107752438D01*
X132603571Y-107752438D02*
X132746428Y-107704819D01*
X132746428Y-107704819D02*
X132841666Y-107704819D01*
X132841666Y-107704819D02*
X132984523Y-107752438D01*
X132984523Y-107752438D02*
X133032142Y-107800057D01*
X133984523Y-108704819D02*
X133413095Y-108704819D01*
X133698809Y-108704819D02*
X133698809Y-107704819D01*
X133698809Y-107704819D02*
X133603571Y-107847676D01*
X133603571Y-107847676D02*
X133508333Y-107942914D01*
X133508333Y-107942914D02*
X133413095Y-107990533D01*
X134555952Y-108133390D02*
X134460714Y-108085771D01*
X134460714Y-108085771D02*
X134413095Y-108038152D01*
X134413095Y-108038152D02*
X134365476Y-107942914D01*
X134365476Y-107942914D02*
X134365476Y-107895295D01*
X134365476Y-107895295D02*
X134413095Y-107800057D01*
X134413095Y-107800057D02*
X134460714Y-107752438D01*
X134460714Y-107752438D02*
X134555952Y-107704819D01*
X134555952Y-107704819D02*
X134746428Y-107704819D01*
X134746428Y-107704819D02*
X134841666Y-107752438D01*
X134841666Y-107752438D02*
X134889285Y-107800057D01*
X134889285Y-107800057D02*
X134936904Y-107895295D01*
X134936904Y-107895295D02*
X134936904Y-107942914D01*
X134936904Y-107942914D02*
X134889285Y-108038152D01*
X134889285Y-108038152D02*
X134841666Y-108085771D01*
X134841666Y-108085771D02*
X134746428Y-108133390D01*
X134746428Y-108133390D02*
X134555952Y-108133390D01*
X134555952Y-108133390D02*
X134460714Y-108181009D01*
X134460714Y-108181009D02*
X134413095Y-108228628D01*
X134413095Y-108228628D02*
X134365476Y-108323866D01*
X134365476Y-108323866D02*
X134365476Y-108514342D01*
X134365476Y-108514342D02*
X134413095Y-108609580D01*
X134413095Y-108609580D02*
X134460714Y-108657200D01*
X134460714Y-108657200D02*
X134555952Y-108704819D01*
X134555952Y-108704819D02*
X134746428Y-108704819D01*
X134746428Y-108704819D02*
X134841666Y-108657200D01*
X134841666Y-108657200D02*
X134889285Y-108609580D01*
X134889285Y-108609580D02*
X134936904Y-108514342D01*
X134936904Y-108514342D02*
X134936904Y-108323866D01*
X134936904Y-108323866D02*
X134889285Y-108228628D01*
X134889285Y-108228628D02*
X134841666Y-108181009D01*
X134841666Y-108181009D02*
X134746428Y-108133390D01*
X153836905Y-95854819D02*
X153836905Y-94854819D01*
X153836905Y-94854819D02*
X154075000Y-94854819D01*
X154075000Y-94854819D02*
X154217857Y-94902438D01*
X154217857Y-94902438D02*
X154313095Y-94997676D01*
X154313095Y-94997676D02*
X154360714Y-95092914D01*
X154360714Y-95092914D02*
X154408333Y-95283390D01*
X154408333Y-95283390D02*
X154408333Y-95426247D01*
X154408333Y-95426247D02*
X154360714Y-95616723D01*
X154360714Y-95616723D02*
X154313095Y-95711961D01*
X154313095Y-95711961D02*
X154217857Y-95807200D01*
X154217857Y-95807200D02*
X154075000Y-95854819D01*
X154075000Y-95854819D02*
X153836905Y-95854819D01*
X155360714Y-95854819D02*
X154789286Y-95854819D01*
X155075000Y-95854819D02*
X155075000Y-94854819D01*
X155075000Y-94854819D02*
X154979762Y-94997676D01*
X154979762Y-94997676D02*
X154884524Y-95092914D01*
X154884524Y-95092914D02*
X154789286Y-95140533D01*
X153945780Y-109131566D02*
X153993400Y-109179185D01*
X153993400Y-109179185D02*
X154041019Y-109322042D01*
X154041019Y-109322042D02*
X154041019Y-109417280D01*
X154041019Y-109417280D02*
X153993400Y-109560137D01*
X153993400Y-109560137D02*
X153898161Y-109655375D01*
X153898161Y-109655375D02*
X153802923Y-109702994D01*
X153802923Y-109702994D02*
X153612447Y-109750613D01*
X153612447Y-109750613D02*
X153469590Y-109750613D01*
X153469590Y-109750613D02*
X153279114Y-109702994D01*
X153279114Y-109702994D02*
X153183876Y-109655375D01*
X153183876Y-109655375D02*
X153088638Y-109560137D01*
X153088638Y-109560137D02*
X153041019Y-109417280D01*
X153041019Y-109417280D02*
X153041019Y-109322042D01*
X153041019Y-109322042D02*
X153088638Y-109179185D01*
X153088638Y-109179185D02*
X153136257Y-109131566D01*
X153469590Y-108560137D02*
X153421971Y-108655375D01*
X153421971Y-108655375D02*
X153374352Y-108702994D01*
X153374352Y-108702994D02*
X153279114Y-108750613D01*
X153279114Y-108750613D02*
X153231495Y-108750613D01*
X153231495Y-108750613D02*
X153136257Y-108702994D01*
X153136257Y-108702994D02*
X153088638Y-108655375D01*
X153088638Y-108655375D02*
X153041019Y-108560137D01*
X153041019Y-108560137D02*
X153041019Y-108369661D01*
X153041019Y-108369661D02*
X153088638Y-108274423D01*
X153088638Y-108274423D02*
X153136257Y-108226804D01*
X153136257Y-108226804D02*
X153231495Y-108179185D01*
X153231495Y-108179185D02*
X153279114Y-108179185D01*
X153279114Y-108179185D02*
X153374352Y-108226804D01*
X153374352Y-108226804D02*
X153421971Y-108274423D01*
X153421971Y-108274423D02*
X153469590Y-108369661D01*
X153469590Y-108369661D02*
X153469590Y-108560137D01*
X153469590Y-108560137D02*
X153517209Y-108655375D01*
X153517209Y-108655375D02*
X153564828Y-108702994D01*
X153564828Y-108702994D02*
X153660066Y-108750613D01*
X153660066Y-108750613D02*
X153850542Y-108750613D01*
X153850542Y-108750613D02*
X153945780Y-108702994D01*
X153945780Y-108702994D02*
X153993400Y-108655375D01*
X153993400Y-108655375D02*
X154041019Y-108560137D01*
X154041019Y-108560137D02*
X154041019Y-108369661D01*
X154041019Y-108369661D02*
X153993400Y-108274423D01*
X153993400Y-108274423D02*
X153945780Y-108226804D01*
X153945780Y-108226804D02*
X153850542Y-108179185D01*
X153850542Y-108179185D02*
X153660066Y-108179185D01*
X153660066Y-108179185D02*
X153564828Y-108226804D01*
X153564828Y-108226804D02*
X153517209Y-108274423D01*
X153517209Y-108274423D02*
X153469590Y-108369661D01*
X128932142Y-94629580D02*
X128884523Y-94677200D01*
X128884523Y-94677200D02*
X128741666Y-94724819D01*
X128741666Y-94724819D02*
X128646428Y-94724819D01*
X128646428Y-94724819D02*
X128503571Y-94677200D01*
X128503571Y-94677200D02*
X128408333Y-94581961D01*
X128408333Y-94581961D02*
X128360714Y-94486723D01*
X128360714Y-94486723D02*
X128313095Y-94296247D01*
X128313095Y-94296247D02*
X128313095Y-94153390D01*
X128313095Y-94153390D02*
X128360714Y-93962914D01*
X128360714Y-93962914D02*
X128408333Y-93867676D01*
X128408333Y-93867676D02*
X128503571Y-93772438D01*
X128503571Y-93772438D02*
X128646428Y-93724819D01*
X128646428Y-93724819D02*
X128741666Y-93724819D01*
X128741666Y-93724819D02*
X128884523Y-93772438D01*
X128884523Y-93772438D02*
X128932142Y-93820057D01*
X129884523Y-94724819D02*
X129313095Y-94724819D01*
X129598809Y-94724819D02*
X129598809Y-93724819D01*
X129598809Y-93724819D02*
X129503571Y-93867676D01*
X129503571Y-93867676D02*
X129408333Y-93962914D01*
X129408333Y-93962914D02*
X129313095Y-94010533D01*
X130789285Y-93724819D02*
X130313095Y-93724819D01*
X130313095Y-93724819D02*
X130265476Y-94201009D01*
X130265476Y-94201009D02*
X130313095Y-94153390D01*
X130313095Y-94153390D02*
X130408333Y-94105771D01*
X130408333Y-94105771D02*
X130646428Y-94105771D01*
X130646428Y-94105771D02*
X130741666Y-94153390D01*
X130741666Y-94153390D02*
X130789285Y-94201009D01*
X130789285Y-94201009D02*
X130836904Y-94296247D01*
X130836904Y-94296247D02*
X130836904Y-94534342D01*
X130836904Y-94534342D02*
X130789285Y-94629580D01*
X130789285Y-94629580D02*
X130741666Y-94677200D01*
X130741666Y-94677200D02*
X130646428Y-94724819D01*
X130646428Y-94724819D02*
X130408333Y-94724819D01*
X130408333Y-94724819D02*
X130313095Y-94677200D01*
X130313095Y-94677200D02*
X130265476Y-94629580D01*
X153807142Y-105534580D02*
X153759523Y-105582200D01*
X153759523Y-105582200D02*
X153616666Y-105629819D01*
X153616666Y-105629819D02*
X153521428Y-105629819D01*
X153521428Y-105629819D02*
X153378571Y-105582200D01*
X153378571Y-105582200D02*
X153283333Y-105486961D01*
X153283333Y-105486961D02*
X153235714Y-105391723D01*
X153235714Y-105391723D02*
X153188095Y-105201247D01*
X153188095Y-105201247D02*
X153188095Y-105058390D01*
X153188095Y-105058390D02*
X153235714Y-104867914D01*
X153235714Y-104867914D02*
X153283333Y-104772676D01*
X153283333Y-104772676D02*
X153378571Y-104677438D01*
X153378571Y-104677438D02*
X153521428Y-104629819D01*
X153521428Y-104629819D02*
X153616666Y-104629819D01*
X153616666Y-104629819D02*
X153759523Y-104677438D01*
X153759523Y-104677438D02*
X153807142Y-104725057D01*
X154759523Y-105629819D02*
X154188095Y-105629819D01*
X154473809Y-105629819D02*
X154473809Y-104629819D01*
X154473809Y-104629819D02*
X154378571Y-104772676D01*
X154378571Y-104772676D02*
X154283333Y-104867914D01*
X154283333Y-104867914D02*
X154188095Y-104915533D01*
X155140476Y-104725057D02*
X155188095Y-104677438D01*
X155188095Y-104677438D02*
X155283333Y-104629819D01*
X155283333Y-104629819D02*
X155521428Y-104629819D01*
X155521428Y-104629819D02*
X155616666Y-104677438D01*
X155616666Y-104677438D02*
X155664285Y-104725057D01*
X155664285Y-104725057D02*
X155711904Y-104820295D01*
X155711904Y-104820295D02*
X155711904Y-104915533D01*
X155711904Y-104915533D02*
X155664285Y-105058390D01*
X155664285Y-105058390D02*
X155092857Y-105629819D01*
X155092857Y-105629819D02*
X155711904Y-105629819D01*
X133057142Y-109634580D02*
X133009523Y-109682200D01*
X133009523Y-109682200D02*
X132866666Y-109729819D01*
X132866666Y-109729819D02*
X132771428Y-109729819D01*
X132771428Y-109729819D02*
X132628571Y-109682200D01*
X132628571Y-109682200D02*
X132533333Y-109586961D01*
X132533333Y-109586961D02*
X132485714Y-109491723D01*
X132485714Y-109491723D02*
X132438095Y-109301247D01*
X132438095Y-109301247D02*
X132438095Y-109158390D01*
X132438095Y-109158390D02*
X132485714Y-108967914D01*
X132485714Y-108967914D02*
X132533333Y-108872676D01*
X132533333Y-108872676D02*
X132628571Y-108777438D01*
X132628571Y-108777438D02*
X132771428Y-108729819D01*
X132771428Y-108729819D02*
X132866666Y-108729819D01*
X132866666Y-108729819D02*
X133009523Y-108777438D01*
X133009523Y-108777438D02*
X133057142Y-108825057D01*
X134009523Y-109729819D02*
X133438095Y-109729819D01*
X133723809Y-109729819D02*
X133723809Y-108729819D01*
X133723809Y-108729819D02*
X133628571Y-108872676D01*
X133628571Y-108872676D02*
X133533333Y-108967914D01*
X133533333Y-108967914D02*
X133438095Y-109015533D01*
X134342857Y-108729819D02*
X135009523Y-108729819D01*
X135009523Y-108729819D02*
X134580952Y-109729819D01*
X146173809Y-92003628D02*
X146173809Y-92479819D01*
X145840476Y-91479819D02*
X146173809Y-92003628D01*
X146173809Y-92003628D02*
X146507142Y-91479819D01*
X147364285Y-92479819D02*
X146792857Y-92479819D01*
X147078571Y-92479819D02*
X147078571Y-91479819D01*
X147078571Y-91479819D02*
X146983333Y-91622676D01*
X146983333Y-91622676D02*
X146888095Y-91717914D01*
X146888095Y-91717914D02*
X146792857Y-91765533D01*
X157458333Y-110059580D02*
X157410714Y-110107200D01*
X157410714Y-110107200D02*
X157267857Y-110154819D01*
X157267857Y-110154819D02*
X157172619Y-110154819D01*
X157172619Y-110154819D02*
X157029762Y-110107200D01*
X157029762Y-110107200D02*
X156934524Y-110011961D01*
X156934524Y-110011961D02*
X156886905Y-109916723D01*
X156886905Y-109916723D02*
X156839286Y-109726247D01*
X156839286Y-109726247D02*
X156839286Y-109583390D01*
X156839286Y-109583390D02*
X156886905Y-109392914D01*
X156886905Y-109392914D02*
X156934524Y-109297676D01*
X156934524Y-109297676D02*
X157029762Y-109202438D01*
X157029762Y-109202438D02*
X157172619Y-109154819D01*
X157172619Y-109154819D02*
X157267857Y-109154819D01*
X157267857Y-109154819D02*
X157410714Y-109202438D01*
X157410714Y-109202438D02*
X157458333Y-109250057D01*
X158363095Y-109154819D02*
X157886905Y-109154819D01*
X157886905Y-109154819D02*
X157839286Y-109631009D01*
X157839286Y-109631009D02*
X157886905Y-109583390D01*
X157886905Y-109583390D02*
X157982143Y-109535771D01*
X157982143Y-109535771D02*
X158220238Y-109535771D01*
X158220238Y-109535771D02*
X158315476Y-109583390D01*
X158315476Y-109583390D02*
X158363095Y-109631009D01*
X158363095Y-109631009D02*
X158410714Y-109726247D01*
X158410714Y-109726247D02*
X158410714Y-109964342D01*
X158410714Y-109964342D02*
X158363095Y-110059580D01*
X158363095Y-110059580D02*
X158315476Y-110107200D01*
X158315476Y-110107200D02*
X158220238Y-110154819D01*
X158220238Y-110154819D02*
X157982143Y-110154819D01*
X157982143Y-110154819D02*
X157886905Y-110107200D01*
X157886905Y-110107200D02*
X157839286Y-110059580D01*
X149333333Y-89959580D02*
X149285714Y-90007200D01*
X149285714Y-90007200D02*
X149142857Y-90054819D01*
X149142857Y-90054819D02*
X149047619Y-90054819D01*
X149047619Y-90054819D02*
X148904762Y-90007200D01*
X148904762Y-90007200D02*
X148809524Y-89911961D01*
X148809524Y-89911961D02*
X148761905Y-89816723D01*
X148761905Y-89816723D02*
X148714286Y-89626247D01*
X148714286Y-89626247D02*
X148714286Y-89483390D01*
X148714286Y-89483390D02*
X148761905Y-89292914D01*
X148761905Y-89292914D02*
X148809524Y-89197676D01*
X148809524Y-89197676D02*
X148904762Y-89102438D01*
X148904762Y-89102438D02*
X149047619Y-89054819D01*
X149047619Y-89054819D02*
X149142857Y-89054819D01*
X149142857Y-89054819D02*
X149285714Y-89102438D01*
X149285714Y-89102438D02*
X149333333Y-89150057D01*
X149714286Y-89150057D02*
X149761905Y-89102438D01*
X149761905Y-89102438D02*
X149857143Y-89054819D01*
X149857143Y-89054819D02*
X150095238Y-89054819D01*
X150095238Y-89054819D02*
X150190476Y-89102438D01*
X150190476Y-89102438D02*
X150238095Y-89150057D01*
X150238095Y-89150057D02*
X150285714Y-89245295D01*
X150285714Y-89245295D02*
X150285714Y-89340533D01*
X150285714Y-89340533D02*
X150238095Y-89483390D01*
X150238095Y-89483390D02*
X149666667Y-90054819D01*
X149666667Y-90054819D02*
X150285714Y-90054819D01*
X147358333Y-89984580D02*
X147310714Y-90032200D01*
X147310714Y-90032200D02*
X147167857Y-90079819D01*
X147167857Y-90079819D02*
X147072619Y-90079819D01*
X147072619Y-90079819D02*
X146929762Y-90032200D01*
X146929762Y-90032200D02*
X146834524Y-89936961D01*
X146834524Y-89936961D02*
X146786905Y-89841723D01*
X146786905Y-89841723D02*
X146739286Y-89651247D01*
X146739286Y-89651247D02*
X146739286Y-89508390D01*
X146739286Y-89508390D02*
X146786905Y-89317914D01*
X146786905Y-89317914D02*
X146834524Y-89222676D01*
X146834524Y-89222676D02*
X146929762Y-89127438D01*
X146929762Y-89127438D02*
X147072619Y-89079819D01*
X147072619Y-89079819D02*
X147167857Y-89079819D01*
X147167857Y-89079819D02*
X147310714Y-89127438D01*
X147310714Y-89127438D02*
X147358333Y-89175057D01*
X147691667Y-89079819D02*
X148310714Y-89079819D01*
X148310714Y-89079819D02*
X147977381Y-89460771D01*
X147977381Y-89460771D02*
X148120238Y-89460771D01*
X148120238Y-89460771D02*
X148215476Y-89508390D01*
X148215476Y-89508390D02*
X148263095Y-89556009D01*
X148263095Y-89556009D02*
X148310714Y-89651247D01*
X148310714Y-89651247D02*
X148310714Y-89889342D01*
X148310714Y-89889342D02*
X148263095Y-89984580D01*
X148263095Y-89984580D02*
X148215476Y-90032200D01*
X148215476Y-90032200D02*
X148120238Y-90079819D01*
X148120238Y-90079819D02*
X147834524Y-90079819D01*
X147834524Y-90079819D02*
X147739286Y-90032200D01*
X147739286Y-90032200D02*
X147691667Y-89984580D01*
X154658333Y-107034580D02*
X154610714Y-107082200D01*
X154610714Y-107082200D02*
X154467857Y-107129819D01*
X154467857Y-107129819D02*
X154372619Y-107129819D01*
X154372619Y-107129819D02*
X154229762Y-107082200D01*
X154229762Y-107082200D02*
X154134524Y-106986961D01*
X154134524Y-106986961D02*
X154086905Y-106891723D01*
X154086905Y-106891723D02*
X154039286Y-106701247D01*
X154039286Y-106701247D02*
X154039286Y-106558390D01*
X154039286Y-106558390D02*
X154086905Y-106367914D01*
X154086905Y-106367914D02*
X154134524Y-106272676D01*
X154134524Y-106272676D02*
X154229762Y-106177438D01*
X154229762Y-106177438D02*
X154372619Y-106129819D01*
X154372619Y-106129819D02*
X154467857Y-106129819D01*
X154467857Y-106129819D02*
X154610714Y-106177438D01*
X154610714Y-106177438D02*
X154658333Y-106225057D01*
X155515476Y-106129819D02*
X155325000Y-106129819D01*
X155325000Y-106129819D02*
X155229762Y-106177438D01*
X155229762Y-106177438D02*
X155182143Y-106225057D01*
X155182143Y-106225057D02*
X155086905Y-106367914D01*
X155086905Y-106367914D02*
X155039286Y-106558390D01*
X155039286Y-106558390D02*
X155039286Y-106939342D01*
X155039286Y-106939342D02*
X155086905Y-107034580D01*
X155086905Y-107034580D02*
X155134524Y-107082200D01*
X155134524Y-107082200D02*
X155229762Y-107129819D01*
X155229762Y-107129819D02*
X155420238Y-107129819D01*
X155420238Y-107129819D02*
X155515476Y-107082200D01*
X155515476Y-107082200D02*
X155563095Y-107034580D01*
X155563095Y-107034580D02*
X155610714Y-106939342D01*
X155610714Y-106939342D02*
X155610714Y-106701247D01*
X155610714Y-106701247D02*
X155563095Y-106606009D01*
X155563095Y-106606009D02*
X155515476Y-106558390D01*
X155515476Y-106558390D02*
X155420238Y-106510771D01*
X155420238Y-106510771D02*
X155229762Y-106510771D01*
X155229762Y-106510771D02*
X155134524Y-106558390D01*
X155134524Y-106558390D02*
X155086905Y-106606009D01*
X155086905Y-106606009D02*
X155039286Y-106701247D01*
X152084819Y-101943333D02*
X152799104Y-101943333D01*
X152799104Y-101943333D02*
X152941961Y-101990952D01*
X152941961Y-101990952D02*
X153037200Y-102086190D01*
X153037200Y-102086190D02*
X153084819Y-102229047D01*
X153084819Y-102229047D02*
X153084819Y-102324285D01*
X152418152Y-101038571D02*
X153084819Y-101038571D01*
X152037200Y-101276666D02*
X152751485Y-101514761D01*
X152751485Y-101514761D02*
X152751485Y-100895714D01*
X140884580Y-91693666D02*
X140932200Y-91741285D01*
X140932200Y-91741285D02*
X140979819Y-91884142D01*
X140979819Y-91884142D02*
X140979819Y-91979380D01*
X140979819Y-91979380D02*
X140932200Y-92122237D01*
X140932200Y-92122237D02*
X140836961Y-92217475D01*
X140836961Y-92217475D02*
X140741723Y-92265094D01*
X140741723Y-92265094D02*
X140551247Y-92312713D01*
X140551247Y-92312713D02*
X140408390Y-92312713D01*
X140408390Y-92312713D02*
X140217914Y-92265094D01*
X140217914Y-92265094D02*
X140122676Y-92217475D01*
X140122676Y-92217475D02*
X140027438Y-92122237D01*
X140027438Y-92122237D02*
X139979819Y-91979380D01*
X139979819Y-91979380D02*
X139979819Y-91884142D01*
X139979819Y-91884142D02*
X140027438Y-91741285D01*
X140027438Y-91741285D02*
X140075057Y-91693666D01*
X140979819Y-91217475D02*
X140979819Y-91026999D01*
X140979819Y-91026999D02*
X140932200Y-90931761D01*
X140932200Y-90931761D02*
X140884580Y-90884142D01*
X140884580Y-90884142D02*
X140741723Y-90788904D01*
X140741723Y-90788904D02*
X140551247Y-90741285D01*
X140551247Y-90741285D02*
X140170295Y-90741285D01*
X140170295Y-90741285D02*
X140075057Y-90788904D01*
X140075057Y-90788904D02*
X140027438Y-90836523D01*
X140027438Y-90836523D02*
X139979819Y-90931761D01*
X139979819Y-90931761D02*
X139979819Y-91122237D01*
X139979819Y-91122237D02*
X140027438Y-91217475D01*
X140027438Y-91217475D02*
X140075057Y-91265094D01*
X140075057Y-91265094D02*
X140170295Y-91312713D01*
X140170295Y-91312713D02*
X140408390Y-91312713D01*
X140408390Y-91312713D02*
X140503628Y-91265094D01*
X140503628Y-91265094D02*
X140551247Y-91217475D01*
X140551247Y-91217475D02*
X140598866Y-91122237D01*
X140598866Y-91122237D02*
X140598866Y-90931761D01*
X140598866Y-90931761D02*
X140551247Y-90836523D01*
X140551247Y-90836523D02*
X140503628Y-90788904D01*
X140503628Y-90788904D02*
X140408390Y-90741285D01*
X133684580Y-91741666D02*
X133732200Y-91789285D01*
X133732200Y-91789285D02*
X133779819Y-91932142D01*
X133779819Y-91932142D02*
X133779819Y-92027380D01*
X133779819Y-92027380D02*
X133732200Y-92170237D01*
X133732200Y-92170237D02*
X133636961Y-92265475D01*
X133636961Y-92265475D02*
X133541723Y-92313094D01*
X133541723Y-92313094D02*
X133351247Y-92360713D01*
X133351247Y-92360713D02*
X133208390Y-92360713D01*
X133208390Y-92360713D02*
X133017914Y-92313094D01*
X133017914Y-92313094D02*
X132922676Y-92265475D01*
X132922676Y-92265475D02*
X132827438Y-92170237D01*
X132827438Y-92170237D02*
X132779819Y-92027380D01*
X132779819Y-92027380D02*
X132779819Y-91932142D01*
X132779819Y-91932142D02*
X132827438Y-91789285D01*
X132827438Y-91789285D02*
X132875057Y-91741666D01*
X132779819Y-91408332D02*
X132779819Y-90741666D01*
X132779819Y-90741666D02*
X133779819Y-91170237D01*
X135059580Y-91867857D02*
X135107200Y-91915476D01*
X135107200Y-91915476D02*
X135154819Y-92058333D01*
X135154819Y-92058333D02*
X135154819Y-92153571D01*
X135154819Y-92153571D02*
X135107200Y-92296428D01*
X135107200Y-92296428D02*
X135011961Y-92391666D01*
X135011961Y-92391666D02*
X134916723Y-92439285D01*
X134916723Y-92439285D02*
X134726247Y-92486904D01*
X134726247Y-92486904D02*
X134583390Y-92486904D01*
X134583390Y-92486904D02*
X134392914Y-92439285D01*
X134392914Y-92439285D02*
X134297676Y-92391666D01*
X134297676Y-92391666D02*
X134202438Y-92296428D01*
X134202438Y-92296428D02*
X134154819Y-92153571D01*
X134154819Y-92153571D02*
X134154819Y-92058333D01*
X134154819Y-92058333D02*
X134202438Y-91915476D01*
X134202438Y-91915476D02*
X134250057Y-91867857D01*
X135154819Y-90915476D02*
X135154819Y-91486904D01*
X135154819Y-91201190D02*
X134154819Y-91201190D01*
X134154819Y-91201190D02*
X134297676Y-91296428D01*
X134297676Y-91296428D02*
X134392914Y-91391666D01*
X134392914Y-91391666D02*
X134440533Y-91486904D01*
X134488152Y-90058333D02*
X135154819Y-90058333D01*
X134107200Y-90296428D02*
X134821485Y-90534523D01*
X134821485Y-90534523D02*
X134821485Y-89915476D01*
X130479820Y-99093333D02*
X131194105Y-99093333D01*
X131194105Y-99093333D02*
X131336962Y-99140952D01*
X131336962Y-99140952D02*
X131432201Y-99236190D01*
X131432201Y-99236190D02*
X131479820Y-99379047D01*
X131479820Y-99379047D02*
X131479820Y-99474285D01*
X130479820Y-98712380D02*
X130479820Y-98093333D01*
X130479820Y-98093333D02*
X130860772Y-98426666D01*
X130860772Y-98426666D02*
X130860772Y-98283809D01*
X130860772Y-98283809D02*
X130908391Y-98188571D01*
X130908391Y-98188571D02*
X130956010Y-98140952D01*
X130956010Y-98140952D02*
X131051248Y-98093333D01*
X131051248Y-98093333D02*
X131289343Y-98093333D01*
X131289343Y-98093333D02*
X131384581Y-98140952D01*
X131384581Y-98140952D02*
X131432201Y-98188571D01*
X131432201Y-98188571D02*
X131479820Y-98283809D01*
X131479820Y-98283809D02*
X131479820Y-98569523D01*
X131479820Y-98569523D02*
X131432201Y-98664761D01*
X131432201Y-98664761D02*
X131384581Y-98712380D01*
X149133333Y-93009580D02*
X149085714Y-93057200D01*
X149085714Y-93057200D02*
X148942857Y-93104819D01*
X148942857Y-93104819D02*
X148847619Y-93104819D01*
X148847619Y-93104819D02*
X148704762Y-93057200D01*
X148704762Y-93057200D02*
X148609524Y-92961961D01*
X148609524Y-92961961D02*
X148561905Y-92866723D01*
X148561905Y-92866723D02*
X148514286Y-92676247D01*
X148514286Y-92676247D02*
X148514286Y-92533390D01*
X148514286Y-92533390D02*
X148561905Y-92342914D01*
X148561905Y-92342914D02*
X148609524Y-92247676D01*
X148609524Y-92247676D02*
X148704762Y-92152438D01*
X148704762Y-92152438D02*
X148847619Y-92104819D01*
X148847619Y-92104819D02*
X148942857Y-92104819D01*
X148942857Y-92104819D02*
X149085714Y-92152438D01*
X149085714Y-92152438D02*
X149133333Y-92200057D01*
X150085714Y-93104819D02*
X149514286Y-93104819D01*
X149800000Y-93104819D02*
X149800000Y-92104819D01*
X149800000Y-92104819D02*
X149704762Y-92247676D01*
X149704762Y-92247676D02*
X149609524Y-92342914D01*
X149609524Y-92342914D02*
X149514286Y-92390533D01*
X142891666Y-85929819D02*
X142891666Y-86644104D01*
X142891666Y-86644104D02*
X142844047Y-86786961D01*
X142844047Y-86786961D02*
X142748809Y-86882200D01*
X142748809Y-86882200D02*
X142605952Y-86929819D01*
X142605952Y-86929819D02*
X142510714Y-86929819D01*
X143844047Y-85929819D02*
X143367857Y-85929819D01*
X143367857Y-85929819D02*
X143320238Y-86406009D01*
X143320238Y-86406009D02*
X143367857Y-86358390D01*
X143367857Y-86358390D02*
X143463095Y-86310771D01*
X143463095Y-86310771D02*
X143701190Y-86310771D01*
X143701190Y-86310771D02*
X143796428Y-86358390D01*
X143796428Y-86358390D02*
X143844047Y-86406009D01*
X143844047Y-86406009D02*
X143891666Y-86501247D01*
X143891666Y-86501247D02*
X143891666Y-86739342D01*
X143891666Y-86739342D02*
X143844047Y-86834580D01*
X143844047Y-86834580D02*
X143796428Y-86882200D01*
X143796428Y-86882200D02*
X143701190Y-86929819D01*
X143701190Y-86929819D02*
X143463095Y-86929819D01*
X143463095Y-86929819D02*
X143367857Y-86882200D01*
X143367857Y-86882200D02*
X143320238Y-86834580D01*
D11*
%TO.C,R4*%
X157417224Y-96472500D02*
X156907776Y-96472500D01*
X157417224Y-95427500D02*
X156907776Y-95427500D01*
D12*
%TO.C,LOGO3*%
G36*
X131032000Y-90573500D02*
G01*
X131194664Y-90625583D01*
X131346500Y-90703800D01*
X131723500Y-90396400D01*
X131982000Y-90654900D01*
X131674600Y-91031900D01*
X131804900Y-91346400D01*
X132288800Y-91395600D01*
X132288800Y-91761200D01*
X131804900Y-91810400D01*
X131674600Y-92124900D01*
X131982000Y-92501900D01*
X131723500Y-92760400D01*
X131346500Y-92453000D01*
X131194700Y-92531200D01*
X130979400Y-92011500D01*
X131102405Y-91936559D01*
X131196846Y-91827806D01*
X131253806Y-91695511D01*
X131267906Y-91552166D01*
X131237814Y-91411309D01*
X131166372Y-91286239D01*
X131060326Y-91188767D01*
X130929691Y-91128098D01*
X130786801Y-91109961D01*
X130645151Y-91136067D01*
X130518115Y-91203953D01*
X130417691Y-91307207D01*
X130353361Y-91436079D01*
X130331200Y-91578400D01*
X130468500Y-91909893D01*
X130620601Y-92011500D01*
X130620600Y-92011500D01*
X130405300Y-92531200D01*
X130327779Y-92495247D01*
X130253500Y-92453000D01*
X129876500Y-92760400D01*
X129618000Y-92501900D01*
X129925400Y-92124900D01*
X129795100Y-91810400D01*
X129311200Y-91761200D01*
X129311200Y-91395600D01*
X129795100Y-91346400D01*
X129925400Y-91031900D01*
X129618000Y-90654900D01*
X129876500Y-90396400D01*
X130253500Y-90703800D01*
X130568000Y-90573500D01*
X130617200Y-90089600D01*
X130982800Y-90089600D01*
X131032000Y-90573500D01*
G37*
D11*
%TO.C,R2*%
X151677500Y-97367224D02*
X151677500Y-96857776D01*
X152722500Y-97367224D02*
X152722500Y-96857776D01*
%TO.C,C4*%
X149270000Y-80056233D02*
X149270000Y-80348767D01*
X150290000Y-80056233D02*
X150290000Y-80348767D01*
%TO.C,C18*%
X130683767Y-107090000D02*
X130391233Y-107090000D01*
X130683767Y-108110000D02*
X130391233Y-108110000D01*
%TO.C,D1*%
X155615000Y-92990000D02*
X155615000Y-94460000D01*
X155615000Y-94460000D02*
X158075000Y-94460000D01*
X158075000Y-92990000D02*
X155615000Y-92990000D01*
%TO.C,C8*%
X154506200Y-109111167D02*
X154506200Y-108818633D01*
X155526200Y-109111167D02*
X155526200Y-108818633D01*
%TO.C,C15*%
X132516233Y-93740000D02*
X132808767Y-93740000D01*
X132516233Y-94760000D02*
X132808767Y-94760000D01*
%TO.C,C12*%
X157753767Y-104610000D02*
X157461233Y-104610000D01*
X157753767Y-105630000D02*
X157461233Y-105630000D01*
%TO.C,C17*%
X130391233Y-108590000D02*
X130683767Y-108590000D01*
X130391233Y-109610000D02*
X130683767Y-109610000D01*
%TO.C,Y1*%
X142697936Y-90615000D02*
X144152064Y-90615000D01*
X142697936Y-92435000D02*
X144152064Y-92435000D01*
%TO.C,C5*%
X157291233Y-107710000D02*
X157583767Y-107710000D01*
X157291233Y-108730000D02*
X157583767Y-108730000D01*
%TO.C,U1*%
X135165000Y-94290000D02*
X135865000Y-94290000D01*
X135165000Y-94990000D02*
X135165000Y-94290000D01*
X135165000Y-107810000D02*
X135165000Y-108510000D01*
X135165000Y-108510000D02*
X135865000Y-108510000D01*
X149385000Y-94290000D02*
X148685000Y-94290000D01*
X149385000Y-94990000D02*
X149385000Y-94290000D01*
X149385000Y-107810000D02*
X149385000Y-108510000D01*
X149385000Y-108510000D02*
X148685000Y-108510000D01*
X149155000Y-94002500D02*
X148685000Y-93662500D01*
X149155000Y-93322500D01*
X149155000Y-94002500D01*
G36*
X149155000Y-94002500D02*
G01*
X148685000Y-93662500D01*
X149155000Y-93322500D01*
X149155000Y-94002500D01*
G37*
%TO.C,C2*%
X144566233Y-89140000D02*
X144858767Y-89140000D01*
X144566233Y-90160000D02*
X144858767Y-90160000D01*
%TO.C,C3*%
X141558767Y-89140000D02*
X141266233Y-89140000D01*
X141558767Y-90160000D02*
X141266233Y-90160000D01*
%TO.C,C6*%
X157309433Y-106195400D02*
X157601967Y-106195400D01*
X157309433Y-107215400D02*
X157601967Y-107215400D01*
D13*
%TO.C,J4*%
X153924799Y-97150999D02*
X153924799Y-98345660D01*
X153924799Y-102814338D02*
X153924799Y-104008999D01*
X153924799Y-104008999D02*
X157125199Y-104008999D01*
X157125199Y-97150999D02*
X153924799Y-97150999D01*
X157125199Y-98345660D02*
X157125199Y-97150999D01*
X157125199Y-104008999D02*
X157125199Y-102814338D01*
D14*
X157080999Y-105786999D02*
G75*
G02*
X156318999Y-105786999I-381000J0D01*
G01*
X156318999Y-105786999D02*
G75*
G02*
X157080999Y-105786999I381000J0D01*
G01*
D11*
%TO.C,C9*%
X138529600Y-91158767D02*
X138529600Y-90866233D01*
X139549600Y-91158767D02*
X139549600Y-90866233D01*
%TO.C,C7*%
X135354600Y-90837633D02*
X135354600Y-91130167D01*
X136374600Y-90837633D02*
X136374600Y-91130167D01*
%TO.C,C14*%
X137031000Y-90863033D02*
X137031000Y-91155567D01*
X138051000Y-90863033D02*
X138051000Y-91155567D01*
D13*
%TO.C,J3*%
X129424801Y-99771001D02*
X129424801Y-100965662D01*
X129424801Y-105434340D02*
X129424801Y-106629001D01*
X129424801Y-106629001D02*
X132625201Y-106629001D01*
X132625201Y-99771001D02*
X129424801Y-99771001D01*
X132625201Y-100965662D02*
X132625201Y-99771001D01*
X132625201Y-106629001D02*
X132625201Y-105434340D01*
D14*
X132581001Y-108407001D02*
G75*
G02*
X131819001Y-108407001I-381000J0D01*
G01*
X131819001Y-108407001D02*
G75*
G02*
X132581001Y-108407001I381000J0D01*
G01*
D11*
%TO.C,C1*%
X148616233Y-90840000D02*
X148908767Y-90840000D01*
X148616233Y-91860000D02*
X148908767Y-91860000D01*
%TO.C,J5*%
X135425000Y-80205000D02*
X135425000Y-83835000D01*
X135490000Y-80205000D02*
X135425000Y-80205000D01*
X135490000Y-83835000D02*
X135425000Y-83835000D01*
X148280000Y-78930000D02*
X148280000Y-80205000D01*
X148345000Y-80205000D02*
X148280000Y-80205000D01*
X148345000Y-80205000D02*
X148345000Y-83835000D01*
X148345000Y-83835000D02*
X148280000Y-83835000D01*
%TD*%
%LPC*%
D12*
%TO.C,J1*%
G36*
X150774186Y-92678884D02*
G01*
X150853138Y-92973535D01*
X150982056Y-93250000D01*
X151157022Y-93499878D01*
X151372722Y-93715578D01*
X151622600Y-93890544D01*
X151899065Y-94019462D01*
X152193716Y-94098414D01*
X152497600Y-94125000D01*
X152801484Y-94098414D01*
X153096135Y-94019462D01*
X153372600Y-93890544D01*
X153622478Y-93715578D01*
X153838178Y-93499878D01*
X154013144Y-93250000D01*
X154142062Y-92973535D01*
X154247600Y-92375000D01*
X155247600Y-92375000D01*
X155224073Y-92733947D01*
X155153896Y-93086752D01*
X155038269Y-93427379D01*
X154879170Y-93750000D01*
X154679322Y-94049094D01*
X154442144Y-94319544D01*
X154171694Y-94556722D01*
X153872600Y-94756570D01*
X153549979Y-94915669D01*
X153209352Y-95031296D01*
X152497600Y-95125000D01*
X152138653Y-95101473D01*
X151785848Y-95031296D01*
X151445221Y-94915669D01*
X151122600Y-94756570D01*
X150823506Y-94556722D01*
X150553056Y-94319544D01*
X150315878Y-94049094D01*
X150116030Y-93750000D01*
X149956931Y-93427379D01*
X149841304Y-93086752D01*
X149771127Y-92733947D01*
X149747600Y-92375000D01*
X150747600Y-92375000D01*
X150774186Y-92678884D01*
G37*
%TD*%
D15*
%TO.C,R4*%
X156250000Y-95950000D03*
X158075000Y-95950000D03*
%TD*%
D16*
%TO.C,R2*%
X152200000Y-98025000D03*
X152200000Y-96200000D03*
%TD*%
D17*
%TO.C,C4*%
X149780000Y-79340000D03*
X149780000Y-81065000D03*
%TD*%
D18*
%TO.C,C18*%
X131400000Y-107600000D03*
X129675000Y-107600000D03*
%TD*%
D19*
%TO.C,D1*%
X156400000Y-93725000D03*
X158150000Y-93725000D03*
%TD*%
D20*
%TO.C,C8*%
X155016200Y-109827400D03*
X155016200Y-108102400D03*
%TD*%
D21*
%TO.C,C15*%
X131800000Y-94250000D03*
X133525000Y-94250000D03*
%TD*%
D18*
%TO.C,C12*%
X158470000Y-105120000D03*
X156745000Y-105120000D03*
%TD*%
D21*
%TO.C,C17*%
X129675000Y-109100000D03*
X131400000Y-109100000D03*
%TD*%
D22*
%TO.C,Y1*%
X141875000Y-91525000D03*
X144975000Y-91525000D03*
%TD*%
D21*
%TO.C,C5*%
X156575000Y-108220000D03*
X158300000Y-108220000D03*
%TD*%
D23*
%TO.C,U1*%
X148275000Y-93725000D03*
X147775000Y-93725000D03*
X147275000Y-93725000D03*
X146775000Y-93725000D03*
X146275000Y-93725000D03*
X145775000Y-93725000D03*
X145275000Y-93725000D03*
X144775000Y-93725000D03*
X144275000Y-93725000D03*
X143775000Y-93725000D03*
X143275000Y-93725000D03*
X142775000Y-93725000D03*
X142275000Y-93725000D03*
X141775000Y-93725000D03*
X141275000Y-93725000D03*
X140775000Y-93725000D03*
X140275000Y-93725000D03*
X139775000Y-93725000D03*
X139275000Y-93725000D03*
X138775000Y-93725000D03*
X138275000Y-93725000D03*
X137775000Y-93725000D03*
X137275000Y-93725000D03*
X136775000Y-93725000D03*
X136275000Y-93725000D03*
D24*
X134600000Y-95400000D03*
X134600000Y-95900000D03*
X134600000Y-96400000D03*
X134600000Y-96900000D03*
X134600000Y-97400000D03*
X134600000Y-97900000D03*
X134600000Y-98400000D03*
X134600000Y-98900000D03*
X134600000Y-99400000D03*
X134600000Y-99900000D03*
X134600000Y-100400000D03*
X134600000Y-100900000D03*
X134600000Y-101400000D03*
X134600000Y-101900000D03*
X134600000Y-102400000D03*
X134600000Y-102900000D03*
X134600000Y-103400000D03*
X134600000Y-103900000D03*
X134600000Y-104400000D03*
X134600000Y-104900000D03*
X134600000Y-105400000D03*
X134600000Y-105900000D03*
X134600000Y-106400000D03*
X134600000Y-106900000D03*
X134600000Y-107400000D03*
D23*
X136275000Y-109075000D03*
X136775000Y-109075000D03*
X137275000Y-109075000D03*
X137775000Y-109075000D03*
X138275000Y-109075000D03*
X138775000Y-109075000D03*
X139275000Y-109075000D03*
X139775000Y-109075000D03*
X140275000Y-109075000D03*
X140775000Y-109075000D03*
X141275000Y-109075000D03*
X141775000Y-109075000D03*
X142275000Y-109075000D03*
X142775000Y-109075000D03*
X143275000Y-109075000D03*
X143775000Y-109075000D03*
X144275000Y-109075000D03*
X144775000Y-109075000D03*
X145275000Y-109075000D03*
X145775000Y-109075000D03*
X146275000Y-109075000D03*
X146775000Y-109075000D03*
X147275000Y-109075000D03*
X147775000Y-109075000D03*
X148275000Y-109075000D03*
D24*
X149950000Y-107400000D03*
X149950000Y-106900000D03*
X149950000Y-106400000D03*
X149950000Y-105900000D03*
X149950000Y-105400000D03*
X149950000Y-104900000D03*
X149950000Y-104400000D03*
X149950000Y-103900000D03*
X149950000Y-103400000D03*
X149950000Y-102900000D03*
X149950000Y-102400000D03*
X149950000Y-101900000D03*
X149950000Y-101400000D03*
X149950000Y-100900000D03*
X149950000Y-100400000D03*
X149950000Y-99900000D03*
X149950000Y-99400000D03*
X149950000Y-98900000D03*
X149950000Y-98400000D03*
X149950000Y-97900000D03*
X149950000Y-97400000D03*
X149950000Y-96900000D03*
X149950000Y-96400000D03*
X149950000Y-95900000D03*
X149950000Y-95400000D03*
%TD*%
D21*
%TO.C,C2*%
X143850000Y-89650000D03*
X145575000Y-89650000D03*
%TD*%
D25*
%TO.C,J1*%
X157747600Y-113100000D03*
X157247600Y-113100000D03*
X156747600Y-113100000D03*
X156247600Y-113100000D03*
X155747600Y-113100000D03*
X155247600Y-113100000D03*
X154747600Y-113100000D03*
X154247600Y-113100000D03*
X153747600Y-113100000D03*
X153247600Y-113100000D03*
X152747600Y-113100000D03*
X152247600Y-113100000D03*
X149747600Y-113100000D03*
X149247600Y-113100000D03*
X148747600Y-113100000D03*
X148247600Y-113100000D03*
X147747600Y-113100000D03*
X147247600Y-113100000D03*
X146747600Y-113100000D03*
X146247600Y-113100000D03*
X145747600Y-113100000D03*
X145247600Y-113100000D03*
X144747600Y-113100000D03*
X144247600Y-113100000D03*
X143747600Y-113100000D03*
X143247600Y-113100000D03*
X142747600Y-113100000D03*
X142247600Y-113100000D03*
X141747600Y-113100000D03*
X141247600Y-113100000D03*
X140747600Y-113100000D03*
X140247600Y-113100000D03*
X139747600Y-113100000D03*
X139247600Y-113100000D03*
D26*
X150397600Y-93375000D03*
X152497600Y-94675000D03*
X154597600Y-93375000D03*
%TD*%
D18*
%TO.C,C3*%
X142275000Y-89650000D03*
X140550000Y-89650000D03*
%TD*%
D21*
%TO.C,C6*%
X156593200Y-106705400D03*
X158318200Y-106705400D03*
%TD*%
D27*
%TO.C,J4*%
X156699998Y-102379998D03*
X156699998Y-101979999D03*
X156699998Y-101580000D03*
X156699998Y-101179998D03*
X156699998Y-100779999D03*
X156699998Y-100379999D03*
X156699998Y-99980000D03*
X156699998Y-99579998D03*
X156699998Y-99179999D03*
X156699998Y-98780000D03*
X154350000Y-102379998D03*
X154350000Y-101979999D03*
X154350000Y-101580000D03*
X154350000Y-101179998D03*
X154350000Y-100779999D03*
X154350000Y-100379999D03*
X154350000Y-99980000D03*
X154350000Y-99579998D03*
X154350000Y-99179999D03*
X154350000Y-98780000D03*
%TD*%
D20*
%TO.C,C9*%
X139039600Y-91875000D03*
X139039600Y-90150000D03*
%TD*%
D17*
%TO.C,C7*%
X135864600Y-90121400D03*
X135864600Y-91846400D03*
%TD*%
%TO.C,C14*%
X137541000Y-90146800D03*
X137541000Y-91871800D03*
%TD*%
D27*
%TO.C,J3*%
X132200000Y-105000000D03*
X132200000Y-104600001D03*
X132200000Y-104200002D03*
X132200000Y-103800000D03*
X132200000Y-103400001D03*
X132200000Y-103000001D03*
X132200000Y-102600002D03*
X132200000Y-102200000D03*
X132200000Y-101800001D03*
X132200000Y-101400002D03*
X129850002Y-105000000D03*
X129850002Y-104600001D03*
X129850002Y-104200002D03*
X129850002Y-103800000D03*
X129850002Y-103400001D03*
X129850002Y-103000001D03*
X129850002Y-102600002D03*
X129850002Y-102200000D03*
X129850002Y-101800001D03*
X129850002Y-101400002D03*
%TD*%
D21*
%TO.C,C1*%
X147900000Y-91350000D03*
X149625000Y-91350000D03*
%TD*%
D28*
%TO.C,J5*%
X147600000Y-80070000D03*
X147600000Y-83970000D03*
X146330000Y-80070000D03*
X146330000Y-83970000D03*
X145060000Y-80070000D03*
X145060000Y-83970000D03*
X143790000Y-80070000D03*
X143790000Y-83970000D03*
X142520000Y-80070000D03*
X142520000Y-83970000D03*
X141250000Y-80070000D03*
X141250000Y-83970000D03*
X139980000Y-80070000D03*
X139980000Y-83970000D03*
X138710000Y-80070000D03*
X138710000Y-83970000D03*
X137440000Y-80070000D03*
X137440000Y-83970000D03*
X136170000Y-80070000D03*
X136170000Y-83970000D03*
%TD*%
%LPD*%
M02*
