M48
; DRILL file {KiCad 9.0.2} date 2025-06-08T15:56:05+0200
; FORMAT={-:-/ absolute / inch / decimal}
; #@! TF.CreationDate,2025-06-08T15:56:05+02:00
; #@! TF.GenerationSoftware,Kicad,Pcbnew,9.0.2
; #@! TF.FileFunction,Plated,1,4,PTH
FMAT,2
INCH
; #@! TA.AperFunction,Plated,PTH,ComponentDrill
T1C0.0079
; #@! TA.AperFunction,Plated,PTH,ViaDrill
T2C0.0118
; #@! TA.AperFunction,Plated,PTH,ViaDrill
T3C0.0157
%
G90
G05
T1
X5.9212Y-3.6762
X6.0038Y-3.7274
X6.0865Y-3.6762
T2
X5.1087Y-4.1807
X5.1327Y-4.1906
X5.1346Y-4.2669
X5.1606Y-4.1031
X5.189Y-3.8346
X5.1929Y-3.8671
X5.2146Y-3.8543
X5.2156Y-3.8169
X5.2184Y-3.88
X5.2478Y-4.2125
X5.2492Y-4.1091
X5.2884Y-3.687
X5.34Y-3.673
X5.3557Y-4.0419
X5.36Y-3.9921
X5.361Y-3.8169
X5.3612Y-4.0935
X5.3681Y-3.8925
X5.3685Y-3.9264
X5.375Y-3.5817
X5.377Y-3.387
X5.3909Y-3.8465
X5.403Y-3.514
X5.403Y-4.199
X5.4039Y-3.9437
X5.41Y-4.049
X5.4104Y-4.1329
X5.413Y-3.387
X5.4439Y-3.5148
X5.462Y-4.1144
X5.463Y-3.385
X5.4638Y-4.0709
X5.4646Y-4.1407
X5.4705Y-4.4606
X5.4713Y-4.0937
X5.473Y-3.512
X5.477Y-4.341
X5.4811Y-4.3764
X5.4833Y-4.1599
X5.4874Y-4.4071
X5.493Y-3.384
X5.498Y-4.2146
X5.5027Y-3.7388
X5.503Y-3.6447
X5.51Y-3.833
X5.5118Y-3.939
X5.5169Y-4.1646
X5.518Y-4.232
X5.5226Y-3.728
X5.5252Y-4.2085
X5.5285Y-3.9557
X5.529Y-3.38
X5.532Y-3.603
X5.5358Y-3.626
X5.5394Y-4.0
X5.5445Y-4.3878
X5.546Y-3.761
X5.5463Y-3.9734
X5.561Y-4.0974
X5.5671Y-4.3882
X5.568Y-4.072
X5.57Y-3.83
X5.583Y-3.739
X5.5886Y-4.2165
X5.5937Y-4.078
X5.6Y-4.048
X5.604Y-4.196
X5.6467Y-4.0118
X5.6469Y-4.3591
X5.6491Y-4.2489
X5.6516Y-3.9882
X5.657Y-3.926
X5.6663Y-4.0295
X5.6694Y-4.2271
X5.6768Y-4.0024
X5.6772Y-4.2037
X5.6803Y-4.3465
X5.687Y-4.3756
X5.6899Y-4.2407
X5.692Y-3.926
X5.7057Y-3.5512
X5.7164Y-3.7282
X5.722Y-4.123
X5.7313Y-4.0817
X5.7323Y-4.1437
X5.7331Y-4.2015
X5.7331Y-4.3701
X5.7383Y-3.734
X5.745Y-4.113
X5.7539Y-4.3854
X5.7549Y-4.2461
X5.757Y-4.209
X5.7589Y-3.6531
X5.7715Y-4.3681
X5.7806Y-3.6465
X5.781Y-4.124
X5.787Y-4.175
X5.7925Y-3.9933
X5.7929Y-4.3803
X5.8004Y-4.1356
X5.8022Y-3.6398
X5.803Y-3.389
X5.8031Y-4.0699
X5.8069Y-4.1899
X5.8106Y-3.9587
X5.813Y-3.5197
X5.813Y-4.2461
X5.818Y-4.168
X5.8287Y-3.6378
X5.8298Y-4.1898
X5.8322Y-3.925
X5.8327Y-3.9913
X5.8327Y-4.3748
X5.8396Y-3.8415
X5.8415Y-3.5187
X5.8432Y-4.311
X5.8435Y-3.5502
X5.8504Y-4.0748
X5.8508Y-3.9575
X5.8514Y-3.6437
X5.8533Y-4.0984
X5.8573Y-4.2215
X5.8583Y-3.81
X5.861Y-3.407
X5.8803Y-4.3811
X5.8907Y-3.5965
X5.9134Y-3.5522
X5.916Y-3.527
X5.917Y-4.309
X5.9425Y-4.2787
X5.9528Y-3.9833
X5.962Y-3.9062
X5.9646Y-3.9636
X5.9677Y-4.2789
X5.9829Y-4.3675
X5.9843Y-4.3449
X5.9854Y-4.2953
X6.01Y-4.086
X6.016Y-4.198
X6.022Y-3.813
X6.047Y-4.093
X6.0492Y-4.1929
X6.058Y-4.137
X6.0644Y-4.062
X6.078Y-4.119
X6.0974Y-4.3602
X6.116Y-3.813
X6.1181Y-3.7333
X6.1181Y-3.8809
X6.122Y-3.8465
X6.1712Y-4.3887
X6.1742Y-3.81
X6.175Y-4.3664
X6.207Y-3.951
X6.21Y-4.4
X6.218Y-4.178
X6.219Y-3.982
X6.2234Y-4.4272
X6.2234Y-4.4469
X6.248Y-3.8504
X6.252Y-3.9833
X6.252Y-4.0266
X6.252Y-4.0669
X6.2549Y-4.252
X6.2608Y-3.9124
T3
X5.0827Y-3.5925
X5.0896Y-3.7638
X5.109Y-3.671
X5.1122Y-3.8031
X5.122Y-3.874
X5.1299Y-3.9478
X5.1348Y-3.7618
X5.1488Y-4.0007
X5.1496Y-3.6054
X5.1604Y-4.1427
X5.2126Y-3.7792
X5.2135Y-4.2734
X5.2303Y-3.6585
X5.248Y-3.6014
X5.249Y-3.5561
X5.2539Y-4.2996
X5.3142Y-3.7091
X5.315Y-4.2963
X5.363Y-4.2307
X5.3691Y-4.1575
X5.4392Y-3.774
X5.4724Y-3.7336
X5.4745Y-3.7767
X5.5402Y-3.8086
X5.5824Y-3.9246
X5.6432Y-3.7719
X5.71Y-3.38
X5.7283Y-3.8189
X5.7351Y-4.0002
X5.811Y-3.0945
X5.8848Y-3.7469
X5.895Y-4.3012
X6.0569Y-3.7763
X6.1452Y-4.2327
X6.1685Y-4.0508
M30
