%TF.GenerationSoftware,KiCad,Pcbnew,9.0.2*%
%TF.CreationDate,2025-06-08T15:56:05+02:00*%
%TF.ProjectId,MicroMod_Processor_Board,4d696372-6f4d-46f6-945f-50726f636573,rev?*%
%TF.SameCoordinates,Original*%
%TF.FileFunction,Copper,L2,Inr*%
%TF.FilePolarity,Positive*%
%FSLAX46Y46*%
G04 Gerber Fmt 4.6, Leading zero omitted, Abs format (unit mm)*
G04 Created by KiCad (PCBNEW 9.0.2) date 2025-06-08 15:56:05*
%MOMM*%
%LPD*%
G01*
G04 APERTURE LIST*
%TA.AperFunction,EtchedComponent*%
%ADD10C,0.101600*%
%TD*%
%TA.AperFunction,EtchedComponent*%
%ADD11C,0.000000*%
%TD*%
%TA.AperFunction,ComponentPad*%
%ADD12C,0.454000*%
%TD*%
%TA.AperFunction,ViaPad*%
%ADD13C,0.800000*%
%TD*%
%TA.AperFunction,ViaPad*%
%ADD14C,0.450000*%
%TD*%
%TA.AperFunction,ViaPad*%
%ADD15C,0.400000*%
%TD*%
%TA.AperFunction,Conductor*%
%ADD16C,0.127000*%
%TD*%
%TA.AperFunction,Conductor*%
%ADD17C,0.350000*%
%TD*%
%TA.AperFunction,Conductor*%
%ADD18C,1.000000*%
%TD*%
%TA.AperFunction,Conductor*%
%ADD19C,0.250000*%
%TD*%
%TA.AperFunction,Conductor*%
%ADD20C,0.500000*%
%TD*%
G04 APERTURE END LIST*
D10*
%TO.C,J1*%
X150397600Y-93375000D02*
X149497600Y-93375000D01*
X150397600Y-93375000D02*
X150397600Y-94475000D01*
X152497600Y-94675000D02*
X152497600Y-95375000D01*
X154597600Y-93375000D02*
X154597600Y-94475000D01*
X154597600Y-93375000D02*
X155497600Y-93375000D01*
D11*
%TA.AperFunction,EtchedComponent*%
G36*
X150669047Y-93191787D02*
G01*
X150794637Y-93453983D01*
X150959697Y-93693304D01*
X151160163Y-93903858D01*
X151391099Y-94080460D01*
X151646818Y-94218761D01*
X151921024Y-94315356D01*
X152206965Y-94367867D01*
X152497600Y-94375000D01*
X153074176Y-94315356D01*
X153348382Y-94218761D01*
X153604101Y-94080460D01*
X153835037Y-93903858D01*
X154035503Y-93693304D01*
X154200563Y-93453983D01*
X154326153Y-93191787D01*
X154409180Y-92913173D01*
X154447600Y-92625000D01*
X155247600Y-92625000D01*
X155078288Y-93343830D01*
X154923384Y-93679928D01*
X154725059Y-93992377D01*
X154486853Y-94275599D01*
X154213018Y-94524540D01*
X153908442Y-94734756D01*
X153578562Y-94902494D01*
X153229266Y-95024760D01*
X152866788Y-95099373D01*
X152497599Y-95124999D01*
X151767977Y-95020308D01*
X151419882Y-94896802D01*
X151091120Y-94728461D01*
X150787435Y-94518226D01*
X150514134Y-94269770D01*
X150275993Y-93987437D01*
X150077173Y-93676158D01*
X149921150Y-93341374D01*
X149810648Y-92988936D01*
X149747600Y-92625001D01*
X149747600Y-92625000D01*
X150547600Y-92625000D01*
X150669047Y-93191787D01*
G37*
%TD.AperFunction*%
%TD*%
D12*
%TO.N,GND*%
%TO.C,J1*%
X150397600Y-93375000D03*
X152497600Y-94675000D03*
X154597600Y-93375000D03*
%TD*%
D13*
%TO.N,GND*%
X130300000Y-100275000D03*
D14*
%TO.N,/I2C_SDA*%
X151433576Y-99216424D03*
%TO.N,/I2C_SCL*%
X151500000Y-100675000D03*
%TO.N,/D0*%
X148325000Y-97575000D03*
%TO.N,/USB_VIN*%
X139775000Y-92575000D03*
%TO.N,Net-(J1-USB_VIN)*%
X154875000Y-110750000D03*
%TO.N,GND*%
X144925000Y-90200000D03*
%TO.N,/TRACE_D3*%
X146276376Y-92789892D03*
%TO.N,/TRACE_D0*%
X148050000Y-92400000D03*
D15*
%TO.N,GND*%
X145197500Y-94697500D03*
D14*
X145923000Y-104470200D03*
X147777200Y-105867200D03*
%TO.N,/G1*%
X147494052Y-106422252D03*
%TO.N,GND*%
X140130000Y-105780000D03*
%TO.N,/SPI_CIPO1*%
X138800000Y-105175000D03*
%TO.N,GND*%
X140610000Y-92100000D03*
X149625000Y-91350000D03*
X150200000Y-90225000D03*
X148425000Y-90175000D03*
X148375000Y-89375000D03*
X147650000Y-89400000D03*
X136525000Y-90975000D03*
X138275000Y-89275000D03*
X131900000Y-98225000D03*
X131800000Y-97400000D03*
X132546612Y-98551329D03*
X132450000Y-97900000D03*
X132475000Y-96950000D03*
X138950000Y-113300000D03*
X158075000Y-112450000D03*
X158075000Y-112950000D03*
X158800000Y-103300000D03*
X158800000Y-102275000D03*
X158800000Y-101175000D03*
X159025000Y-99375000D03*
X158700000Y-97800000D03*
X148675000Y-104100000D03*
%TO.N,/SPI_COPI1*%
X139275000Y-105662279D03*
%TO.N,GND*%
X137425000Y-104975000D03*
X136175000Y-103975000D03*
X137414000Y-102844600D03*
X142341600Y-106578400D03*
X146837400Y-104749600D03*
X142240000Y-102819200D03*
X140868400Y-95529400D03*
D13*
%TO.N,+3.3V*%
X139051695Y-95928337D03*
D14*
%TO.N,GND*%
X141808200Y-94970600D03*
X139954000Y-97358200D03*
X143687800Y-99720400D03*
X144576800Y-99720400D03*
X136930000Y-97700000D03*
X136170000Y-96950000D03*
X136350000Y-98870000D03*
X136360000Y-99730000D03*
D13*
X136375000Y-105600000D03*
X135000000Y-109125000D03*
X130100000Y-98400000D03*
X129850000Y-96600000D03*
X129275000Y-95600000D03*
X130425000Y-95550000D03*
X130800000Y-91578400D03*
X133325000Y-90325000D03*
X129100000Y-91250000D03*
X133300000Y-91475000D03*
X132850000Y-92925000D03*
D14*
X143425000Y-101900000D03*
X140700000Y-101600000D03*
D13*
X145671116Y-101603884D03*
D14*
X140425000Y-100475000D03*
D13*
X149733000Y-109250000D03*
X132423378Y-108544500D03*
D14*
%TO.N,/VBAT*%
X139115800Y-110261400D03*
X145753815Y-94842889D03*
%TO.N,GND*%
X147590000Y-100550000D03*
X130420000Y-108380000D03*
X152030000Y-109100000D03*
X157937200Y-106121200D03*
D13*
X132401000Y-95990500D03*
D14*
X149360000Y-111280000D03*
X150266400Y-89585800D03*
X158875000Y-108000000D03*
X133292869Y-106998564D03*
X139014200Y-89204800D03*
X157962600Y-101142800D03*
D13*
X139000078Y-94832600D03*
D14*
X139220000Y-111160000D03*
D13*
X129768600Y-93243400D03*
D14*
X153593800Y-103962200D03*
D13*
X130780018Y-101618973D03*
D14*
X137236200Y-89255600D03*
X150291800Y-109448600D03*
X136144000Y-101400000D03*
X130370000Y-106440000D03*
D13*
X145500000Y-97000000D03*
D14*
X129760000Y-106190000D03*
X144522242Y-107714842D03*
X140512800Y-91516200D03*
D13*
X153845499Y-95919230D03*
D14*
X155400000Y-98575000D03*
X155346400Y-96850200D03*
D13*
X141792246Y-99684500D03*
D14*
%TO.N,/~{RESET}*%
X148800000Y-96775000D03*
D13*
%TO.N,+3.3V*%
X149474998Y-95170000D03*
X156088100Y-107510000D03*
X138155002Y-95859600D03*
X143336234Y-95805166D03*
X136220000Y-107460000D03*
X133450000Y-109209500D03*
X156680000Y-102890000D03*
X131073637Y-105224644D03*
X147600000Y-78600000D03*
X134980000Y-94210000D03*
D14*
X148417400Y-109499400D03*
X146175000Y-107850000D03*
X147650000Y-107850000D03*
D13*
X140721500Y-96738466D03*
D14*
%TO.N,Net-(C10-Pad1)*%
X152958800Y-96850200D03*
%TO.N,Net-(F1-Pad2)*%
X157734000Y-111760000D03*
X139380000Y-111940000D03*
%TO.N,/A0*%
X151579084Y-108685013D03*
%TO.N,/AUD_BCLK*%
X145600000Y-105250000D03*
%TO.N,/UART_CTS1*%
X153650000Y-106500000D03*
X145575000Y-103675000D03*
X137260000Y-100170000D03*
X137236200Y-106654600D03*
D13*
%TO.N,/G11-SWO*%
X145034000Y-85852000D03*
D14*
%TO.N,/G2*%
X146597346Y-110949912D03*
%TO.N,/SWDIO*%
X148869400Y-86537800D03*
X146227800Y-106908600D03*
%TO.N,/I2C_~{INT}*%
X151200000Y-101175000D03*
%TO.N,/AUD_IN-CAM_PCLK*%
X142080000Y-103581200D03*
%TO.N,/AUD_MCLK*%
X141250000Y-104075000D03*
%TO.N,/SPI_SCK1*%
X138734518Y-104504572D03*
%TO.N,/SWDCK*%
X147396200Y-86080600D03*
X148775000Y-107225000D03*
%TO.N,/CAN-RX*%
X148078000Y-106422000D03*
X148150000Y-111120000D03*
%TO.N,/~{BOOT}*%
X156825000Y-96775000D03*
%TO.N,/~{SPI_CS1}*%
X136036007Y-102664327D03*
%TO.N,/SPI_MISO*%
X141404896Y-111461056D03*
X140275000Y-94691200D03*
%TO.N,/USB_D-*%
X151964862Y-110933928D03*
X156747600Y-111472600D03*
%TO.N,/I2C_SDA1*%
X144190000Y-101660000D03*
X144450000Y-111140000D03*
%TO.N,/CAN-TX*%
X146990978Y-106045489D03*
X147140000Y-111260000D03*
%TO.N,/UART_RTS1*%
X140000000Y-100050000D03*
X138780000Y-103400000D03*
X143550000Y-101300000D03*
X154381200Y-104622600D03*
%TO.N,/UART_RX2*%
X144200000Y-106775000D03*
%TO.N,/A1*%
X150940000Y-108680000D03*
%TO.N,/UART_RX1*%
X138970000Y-103980000D03*
X147400000Y-103375000D03*
X152806400Y-106629200D03*
X140875000Y-100924745D03*
%TO.N,/BATT_VIN*%
X141478000Y-97282000D03*
X145620000Y-111000000D03*
%TO.N,/G3*%
X146150000Y-111390000D03*
%TO.N,/SPI_MOSI*%
X140830000Y-111450000D03*
X139769251Y-94964779D03*
%TO.N,/D1-CAM_TRIG*%
X148600000Y-103500000D03*
%TO.N,/UART_TX2*%
X145619700Y-106717880D03*
%TO.N,/AUD_OUT-CAM_MCLK*%
X141427200Y-103428800D03*
%TO.N,/USB_D+*%
X152000000Y-110360000D03*
X156845577Y-110906006D03*
%TO.N,/G0*%
X147330461Y-105045436D03*
%TO.N,/SPI_SCK*%
X141950000Y-107100000D03*
X143430000Y-110720000D03*
%TO.N,/AUD_LRCLK*%
X145338800Y-104724200D03*
%TO.N,/UART_TX1*%
X153873200Y-105079800D03*
X140156086Y-107492641D03*
%TO.N,/I2C_SCL1*%
X143925000Y-102350000D03*
X144280000Y-110400000D03*
%TO.N,/SD_CLK*%
X147130000Y-101430000D03*
%TO.N,/SD_DAT1*%
X139650000Y-107050000D03*
%TO.N,/SD_DAT0*%
X140340129Y-106895350D03*
%TO.N,/SD_DAT3*%
X148137000Y-99695000D03*
%TO.N,/SD_CMD*%
X148150000Y-101380000D03*
%TO.N,/SD_DAT2*%
X148610000Y-100520000D03*
%TO.N,/BT_HOST_WAKE*%
X131080000Y-104220000D03*
X135636000Y-93294200D03*
%TO.N,/BT_REG_ON*%
X133330000Y-104370000D03*
X134325000Y-93650000D03*
%TO.N,/WIFI_SDIO_DAT1*%
X152654000Y-103784400D03*
X144002357Y-107367930D03*
%TO.N,/WIFI_SDIO_DAT0*%
X154035200Y-103174800D03*
X143487134Y-107922573D03*
%TO.N,/WL_GPIO_0_HOST_WAKE*%
X155500000Y-97700000D03*
X157657800Y-100355400D03*
%TO.N,/TRACE_CLK*%
X148625000Y-92550000D03*
%TO.N,/TRACE_D3*%
X136575800Y-86029800D03*
%TO.N,/TRACE_D2*%
X137490200Y-86029800D03*
X146826172Y-92621509D03*
%TO.N,/TRACE_D1*%
X138760200Y-85979000D03*
X147375000Y-92450000D03*
%TO.N,/TRACE_D0*%
X139522200Y-85953600D03*
%TO.N,/BOOT0*%
X155400000Y-94825000D03*
%TO.N,/TRACE_CLK*%
X140436600Y-85852000D03*
%TD*%
D16*
%TO.N,GND*%
X147125000Y-93950000D02*
X147125000Y-94175000D01*
X147125000Y-94175000D02*
X146724000Y-94576000D01*
X146724000Y-94576000D02*
X146724000Y-94876000D01*
X146724000Y-94876000D02*
X146307000Y-95293000D01*
X145799538Y-90424538D02*
X145675000Y-90300000D01*
X146307000Y-95293000D02*
X145530760Y-95293000D01*
X145277815Y-95040055D02*
X145277815Y-94645723D01*
X145277815Y-94645723D02*
X145799538Y-94124000D01*
X145530760Y-95293000D02*
X145277815Y-95040055D01*
X145799538Y-94124000D02*
X145799538Y-90424538D01*
X145675000Y-90300000D02*
X145025000Y-90300000D01*
X145025000Y-90300000D02*
X144925000Y-90200000D01*
D17*
X147350000Y-93950000D02*
X147125000Y-93950000D01*
X147700000Y-93600000D02*
X147350000Y-93950000D01*
X147125000Y-93950000D02*
X145902827Y-93950000D01*
X145902827Y-93950000D02*
X145197500Y-94655327D01*
X145197500Y-94655327D02*
X145197500Y-94697500D01*
X149625000Y-91350000D02*
X149625000Y-92371418D01*
X149625000Y-92371418D02*
X149481600Y-92514818D01*
X149481600Y-92514818D02*
X149481600Y-92918400D01*
X149481600Y-92918400D02*
X148500000Y-93900000D01*
X148500000Y-93900000D02*
X148000000Y-93900000D01*
X148000000Y-93900000D02*
X147700000Y-93600000D01*
D18*
%TO.N,+3.3V*%
X149474998Y-95170000D02*
X149055000Y-95170000D01*
X149055000Y-95170000D02*
X148125000Y-96100000D01*
X148125000Y-96100000D02*
X146001486Y-96100000D01*
X145089514Y-96009000D02*
X144998514Y-96100000D01*
X146001486Y-96100000D02*
X145910486Y-96009000D01*
X145910486Y-96009000D02*
X145089514Y-96009000D01*
X144998514Y-96100000D02*
X143631068Y-96100000D01*
X143631068Y-96100000D02*
X143336234Y-95805166D01*
D19*
%TO.N,GND*%
X145197500Y-94697500D02*
X145771000Y-94124000D01*
D16*
X140868400Y-95529400D02*
X139696878Y-95529400D01*
X139696878Y-95529400D02*
X139000078Y-94832600D01*
X149479000Y-100800000D02*
X149479000Y-101828600D01*
X148912600Y-101387400D02*
X149353800Y-101828600D01*
X149479000Y-100800000D02*
X149479000Y-100821000D01*
X149479000Y-100821000D02*
X148912600Y-101387400D01*
X147590000Y-100550000D02*
X147974500Y-100934500D01*
X147974500Y-100934500D02*
X148459700Y-100934500D01*
X148459700Y-100934500D02*
X148912600Y-101387400D01*
X149353800Y-101828600D02*
X149479000Y-101828600D01*
X147590000Y-100550000D02*
X147950000Y-100550000D01*
X147950000Y-100550000D02*
X149092800Y-99407200D01*
X149092800Y-99407200D02*
X149292800Y-99407200D01*
X147433000Y-98933000D02*
X147433000Y-100393000D01*
X147433000Y-100393000D02*
X147590000Y-100550000D01*
X148818600Y-98933000D02*
X149292800Y-99407200D01*
X141122400Y-109257600D02*
X139790000Y-110590000D01*
X139790000Y-110590000D02*
X139790000Y-110990000D01*
X142800000Y-112500000D02*
X140200000Y-112500000D01*
X139790000Y-110990000D02*
X140200000Y-111400000D01*
X140200000Y-111400000D02*
X140200000Y-112500000D01*
X147600000Y-110400000D02*
X147700000Y-110400000D01*
X147628451Y-107171549D02*
X145700000Y-109100000D01*
X145700000Y-109100000D02*
X145700000Y-110300000D01*
X145700000Y-110300000D02*
X145800000Y-110400000D01*
X145800000Y-110400000D02*
X147700000Y-110400000D01*
X138950000Y-113300000D02*
X138950000Y-112500000D01*
X144522242Y-107714842D02*
X143844500Y-108392584D01*
X143844500Y-108392584D02*
X143844500Y-111455500D01*
X143844500Y-111455500D02*
X142800000Y-112500000D01*
X140200000Y-112500000D02*
X138950000Y-112500000D01*
X148100000Y-112200000D02*
X145300000Y-112200000D01*
X145300000Y-112200000D02*
X144864500Y-111764500D01*
X144864500Y-108057100D02*
X144522242Y-107714842D01*
X144864500Y-111764500D02*
X144864500Y-108057100D01*
X148100000Y-112200000D02*
X147900000Y-112200000D01*
D17*
%TO.N,/BATT_VIN*%
X145275000Y-110277723D02*
X145275000Y-110655000D01*
X145275000Y-110655000D02*
X145620000Y-111000000D01*
D16*
%TO.N,GND*%
X149360000Y-111280000D02*
X148440000Y-112200000D01*
X148440000Y-112200000D02*
X148100000Y-112200000D01*
X147900000Y-112200000D02*
X147600000Y-111900000D01*
X147600000Y-111900000D02*
X147600000Y-110400000D01*
X147700000Y-110400000D02*
X148583000Y-110400000D01*
X148583000Y-110400000D02*
X149733000Y-109250000D01*
X138950000Y-112500000D02*
X138950000Y-111430000D01*
X138950000Y-111430000D02*
X139220000Y-111160000D01*
X133990600Y-110134400D02*
X132715000Y-110134400D01*
X135000000Y-109125000D02*
X133990600Y-110134400D01*
X132715000Y-110134400D02*
X132423378Y-109842778D01*
X132423378Y-109842778D02*
X132423378Y-108544500D01*
X139636400Y-106273600D02*
X138480800Y-106273600D01*
X140130000Y-105780000D02*
X139636400Y-106273600D01*
X138480800Y-106273600D02*
X137807200Y-105600000D01*
X137807200Y-105600000D02*
X136375000Y-105600000D01*
X140130000Y-105780000D02*
X140527200Y-105780000D01*
X141274800Y-106527600D02*
X141122400Y-106680000D01*
X140527200Y-105780000D02*
X141274800Y-106527600D01*
X139790000Y-110590000D02*
X139220000Y-111160000D01*
X141122400Y-106680000D02*
X141122400Y-109257600D01*
X142240000Y-102819200D02*
X142494500Y-103073700D01*
X142494500Y-103073700D02*
X142494500Y-103752892D01*
X142494500Y-103752892D02*
X140467392Y-105780000D01*
X140467392Y-105780000D02*
X140130000Y-105780000D01*
D17*
%TO.N,/BATT_VIN*%
X142875000Y-98675000D02*
X142675000Y-98475000D01*
X142875000Y-104600000D02*
X142875000Y-98675000D01*
X145061496Y-106461496D02*
X143200000Y-104600000D01*
X142675000Y-98475000D02*
X142650000Y-98475000D01*
X142650000Y-98475000D02*
X141478000Y-97303000D01*
X143200000Y-104600000D02*
X142875000Y-104600000D01*
X145043700Y-106479292D02*
X145061496Y-106461496D01*
X145275000Y-107187768D02*
X145043700Y-106956468D01*
X145275000Y-110277723D02*
X145275000Y-107187768D01*
X145043700Y-106956468D02*
X145043700Y-106479292D01*
X141478000Y-97303000D02*
X141478000Y-97282000D01*
D16*
%TO.N,GND*%
X146964400Y-104622600D02*
X146964400Y-104241600D01*
X146837400Y-104749600D02*
X146964400Y-104622600D01*
X146964400Y-104241600D02*
X148533400Y-104241600D01*
X148533400Y-104241600D02*
X148675000Y-104100000D01*
X149292800Y-99407200D02*
X149479000Y-99593400D01*
X145500000Y-97000000D02*
X147433000Y-98933000D01*
X147433000Y-98933000D02*
X148818600Y-98933000D01*
X149479000Y-99593400D02*
X149479000Y-100800000D01*
X149479000Y-101828600D02*
X152298400Y-104648000D01*
X152298400Y-104648000D02*
X152908000Y-104648000D01*
X152908000Y-104648000D02*
X153593800Y-103962200D01*
X145923000Y-106031414D02*
X146100800Y-106031414D01*
D20*
X145923000Y-104470200D02*
X146201000Y-104748200D01*
X146201000Y-104748200D02*
X146201000Y-105753414D01*
X146201000Y-105753414D02*
X146100800Y-105853614D01*
X146100800Y-105853614D02*
X146100800Y-106031414D01*
X145923000Y-104470200D02*
X146037300Y-104584500D01*
X146037300Y-104584500D02*
X146672300Y-104584500D01*
X146672300Y-104584500D02*
X146806877Y-104719077D01*
D16*
X147628451Y-107171549D02*
X147952351Y-107495449D01*
X147777200Y-105867200D02*
X148109392Y-105867200D01*
X148109392Y-105867200D02*
X148492500Y-106250308D01*
X148492500Y-106250308D02*
X148492500Y-106904500D01*
X148492500Y-106904500D02*
X147952351Y-107444649D01*
X147952351Y-107444649D02*
X147952351Y-107495449D01*
X147777200Y-105867200D02*
X147523200Y-105613200D01*
X147523200Y-105613200D02*
X146320000Y-105613200D01*
X147777200Y-105867200D02*
X148031200Y-105613200D01*
X148031200Y-105613200D02*
X148031200Y-104743800D01*
X148031200Y-104743800D02*
X148675000Y-104100000D01*
D17*
%TO.N,+3.3V*%
X139051695Y-95928337D02*
X138223739Y-95928337D01*
X138223739Y-95928337D02*
X138155002Y-95859600D01*
D18*
X139051695Y-95928337D02*
X139068339Y-95928337D01*
X139068339Y-95928337D02*
X139647202Y-96507200D01*
X139647202Y-96507200D02*
X140306496Y-96507200D01*
X141125504Y-96431000D02*
X141830496Y-96431000D01*
X141830496Y-96431000D02*
X141905748Y-96506252D01*
X141905748Y-96506252D02*
X142552000Y-95860000D01*
X140306496Y-96507200D02*
X140537762Y-96738466D01*
X140537762Y-96738466D02*
X140818038Y-96738466D01*
X140818038Y-96738466D02*
X141125504Y-96431000D01*
X143281400Y-95860000D02*
X143336234Y-95805166D01*
X142552000Y-95860000D02*
X143281400Y-95860000D01*
D16*
%TO.N,GND*%
X147952351Y-107495449D02*
X149905503Y-109448600D01*
X144664500Y-106539500D02*
X144425000Y-106300000D01*
X144664500Y-107572584D02*
X144664500Y-106539500D01*
X144522242Y-107714842D02*
X144664500Y-107572584D01*
X144425000Y-106300000D02*
X143550000Y-106300000D01*
X149905503Y-109448600D02*
X150400000Y-109448600D01*
X145752000Y-104440808D02*
X145509192Y-104198000D01*
X145509192Y-104198000D02*
X145165808Y-104198000D01*
X146780000Y-100550000D02*
X146320000Y-101010000D01*
X145165808Y-104198000D02*
X144923000Y-104440808D01*
X146100800Y-106031414D02*
X146320000Y-106031414D01*
X145752000Y-104470200D02*
X145752000Y-104440808D01*
X146320000Y-106031414D02*
X146320000Y-106315000D01*
X144340000Y-104710000D02*
X145661414Y-106031414D01*
X146320000Y-106315000D02*
X146761200Y-106756200D01*
X144579800Y-104470200D02*
X144340000Y-104710000D01*
X146761200Y-106756200D02*
X147213102Y-106756200D01*
X147213102Y-106756200D02*
X147628451Y-107171549D01*
X144923000Y-104470200D02*
X144579800Y-104470200D01*
X144923000Y-104440808D02*
X144923000Y-104470200D01*
X145661414Y-106031414D02*
X145923000Y-106031414D01*
X145989800Y-104470200D02*
X145752000Y-104470200D01*
X146320000Y-104140000D02*
X145989800Y-104470200D01*
X146320000Y-101010000D02*
X146320000Y-104140000D01*
X147590000Y-100550000D02*
X146780000Y-100550000D01*
%TD*%
%TA.AperFunction,Conductor*%
%TO.N,GND*%
G36*
X150537817Y-76955585D02*
G01*
X150583572Y-77008389D01*
X150594778Y-77059914D01*
X150593719Y-86776812D01*
X150574027Y-86843849D01*
X150521218Y-86889598D01*
X150491252Y-86898914D01*
X150376784Y-86919098D01*
X150191726Y-86986454D01*
X150191721Y-86986456D01*
X150021175Y-87084921D01*
X150021172Y-87084924D01*
X149870310Y-87211510D01*
X149743724Y-87362372D01*
X149743721Y-87362375D01*
X149645256Y-87532921D01*
X149645254Y-87532926D01*
X149577898Y-87717985D01*
X149543700Y-87911929D01*
X149543700Y-88108870D01*
X149577898Y-88302814D01*
X149607202Y-88383325D01*
X149631681Y-88450583D01*
X149645254Y-88487873D01*
X149645256Y-88487878D01*
X149743721Y-88658424D01*
X149743724Y-88658427D01*
X149870310Y-88809289D01*
X149979351Y-88900784D01*
X149986759Y-88907000D01*
X150021172Y-88935875D01*
X150021175Y-88935878D01*
X150125770Y-88996266D01*
X150191726Y-89034346D01*
X150376787Y-89101702D01*
X150491784Y-89121979D01*
X150521232Y-89136573D01*
X150551173Y-89150138D01*
X150552386Y-89152013D01*
X150554387Y-89153005D01*
X150571272Y-89181207D01*
X150589124Y-89208803D01*
X150589556Y-89211746D01*
X150590278Y-89212952D01*
X150594251Y-89243722D01*
X150594722Y-89400419D01*
X150594230Y-89406347D01*
X150594761Y-89425674D01*
X150594807Y-89428694D01*
X150594866Y-89447994D01*
X150595536Y-89453889D01*
X150665084Y-91984093D01*
X150647249Y-92051648D01*
X150595722Y-92098836D01*
X150541131Y-92111500D01*
X149747597Y-92111500D01*
X149674522Y-92116726D01*
X149674516Y-92116727D01*
X149534286Y-92157902D01*
X149534285Y-92157903D01*
X149434502Y-92222030D01*
X149367462Y-92241715D01*
X149300423Y-92222030D01*
X149264360Y-92186606D01*
X149194747Y-92082421D01*
X149194745Y-92082419D01*
X149194743Y-92082416D01*
X149092584Y-91980257D01*
X149092577Y-91980251D01*
X148972443Y-91899981D01*
X148838954Y-91844688D01*
X148838946Y-91844686D01*
X148697247Y-91816500D01*
X148697243Y-91816500D01*
X148552757Y-91816500D01*
X148552753Y-91816500D01*
X148548302Y-91816938D01*
X148479657Y-91803914D01*
X148467268Y-91796637D01*
X148436026Y-91775762D01*
X148397442Y-91749981D01*
X148316612Y-91716500D01*
X148263954Y-91694688D01*
X148263946Y-91694686D01*
X148122247Y-91666500D01*
X148122243Y-91666500D01*
X147977757Y-91666500D01*
X147977752Y-91666500D01*
X147836053Y-91694686D01*
X147836041Y-91694689D01*
X147699596Y-91751206D01*
X147630127Y-91758675D01*
X147604694Y-91751207D01*
X147588958Y-91744689D01*
X147588946Y-91744686D01*
X147447247Y-91716500D01*
X147447243Y-91716500D01*
X147302757Y-91716500D01*
X147302752Y-91716500D01*
X147161053Y-91744686D01*
X147161045Y-91744688D01*
X147027556Y-91799981D01*
X147027555Y-91799981D01*
X146927089Y-91867111D01*
X146860412Y-91887989D01*
X146858199Y-91888009D01*
X146753924Y-91888009D01*
X146612225Y-91916195D01*
X146612217Y-91916197D01*
X146478731Y-91971489D01*
X146382939Y-92035495D01*
X146316262Y-92056372D01*
X146314049Y-92056392D01*
X146204128Y-92056392D01*
X146062429Y-92084578D01*
X146062421Y-92084580D01*
X145928932Y-92139873D01*
X145928931Y-92139873D01*
X145808798Y-92220143D01*
X145808791Y-92220149D01*
X145706633Y-92322307D01*
X145706627Y-92322314D01*
X145626357Y-92442447D01*
X145626357Y-92442448D01*
X145571064Y-92575937D01*
X145571062Y-92575945D01*
X145542876Y-92717644D01*
X145542876Y-92862139D01*
X145571062Y-93003838D01*
X145571064Y-93003846D01*
X145626357Y-93137335D01*
X145626357Y-93137336D01*
X145706627Y-93257469D01*
X145706633Y-93257476D01*
X145808791Y-93359634D01*
X145808798Y-93359640D01*
X145928932Y-93439910D01*
X145928933Y-93439910D01*
X145928934Y-93439911D01*
X146062422Y-93495204D01*
X146189639Y-93520509D01*
X146204128Y-93523391D01*
X146204132Y-93523392D01*
X146204133Y-93523392D01*
X146348620Y-93523392D01*
X146348621Y-93523391D01*
X146490330Y-93495204D01*
X146623818Y-93439911D01*
X146703537Y-93386645D01*
X146719610Y-93375906D01*
X146786288Y-93355029D01*
X146788500Y-93355009D01*
X146898416Y-93355009D01*
X146898417Y-93355008D01*
X147040126Y-93326821D01*
X147173614Y-93271528D01*
X147173615Y-93271527D01*
X147173616Y-93271527D01*
X147274083Y-93204398D01*
X147340760Y-93183520D01*
X147342973Y-93183500D01*
X147447244Y-93183500D01*
X147447245Y-93183499D01*
X147588954Y-93155312D01*
X147722442Y-93100019D01*
X147722441Y-93100019D01*
X147725402Y-93098793D01*
X147794871Y-93091324D01*
X147820307Y-93098793D01*
X147836041Y-93105310D01*
X147836046Y-93105312D01*
X147975555Y-93133062D01*
X147977752Y-93133499D01*
X147977756Y-93133500D01*
X147977757Y-93133500D01*
X148122238Y-93133500D01*
X148122243Y-93133500D01*
X148122247Y-93133499D01*
X148126684Y-93133062D01*
X148195330Y-93146080D01*
X148207732Y-93153363D01*
X148277551Y-93200015D01*
X148277560Y-93200020D01*
X148307799Y-93212545D01*
X148411046Y-93255312D01*
X148492565Y-93271527D01*
X148552752Y-93283499D01*
X148552756Y-93283500D01*
X148552757Y-93283500D01*
X148697244Y-93283500D01*
X148697244Y-93283499D01*
X148790108Y-93265028D01*
X148859700Y-93271255D01*
X148914877Y-93314118D01*
X148938122Y-93380008D01*
X148938300Y-93386645D01*
X148938300Y-93448633D01*
X148958332Y-93523391D01*
X148976417Y-93590885D01*
X149005722Y-93641642D01*
X149050049Y-93718418D01*
X149154182Y-93822551D01*
X149225880Y-93863946D01*
X149281714Y-93896182D01*
X149281715Y-93896182D01*
X149281718Y-93896184D01*
X149362112Y-93917725D01*
X149421771Y-93954090D01*
X149452300Y-94016938D01*
X149444005Y-94086313D01*
X149399520Y-94140191D01*
X149332967Y-94161465D01*
X149330017Y-94161500D01*
X148955666Y-94161500D01*
X148760838Y-94200254D01*
X148760830Y-94200256D01*
X148713776Y-94219747D01*
X148577300Y-94276276D01*
X148577286Y-94276284D01*
X148412123Y-94386642D01*
X148412115Y-94386648D01*
X147743585Y-95055181D01*
X147682262Y-95088666D01*
X147655904Y-95091500D01*
X146603328Y-95091500D01*
X146536289Y-95071815D01*
X146490534Y-95019011D01*
X146480590Y-94949853D01*
X146481710Y-94943310D01*
X146487315Y-94915132D01*
X146487315Y-94770646D01*
X146459127Y-94628935D01*
X146403834Y-94495447D01*
X146403833Y-94495445D01*
X146403833Y-94495444D01*
X146323563Y-94375311D01*
X146323557Y-94375304D01*
X146221399Y-94273146D01*
X146221392Y-94273140D01*
X146101258Y-94192870D01*
X145967769Y-94137577D01*
X145967761Y-94137575D01*
X145826062Y-94109389D01*
X145826058Y-94109389D01*
X145681572Y-94109389D01*
X145681567Y-94109389D01*
X145539868Y-94137575D01*
X145539860Y-94137577D01*
X145406371Y-94192870D01*
X145406370Y-94192870D01*
X145286237Y-94273140D01*
X145286230Y-94273146D01*
X145184072Y-94375304D01*
X145184066Y-94375311D01*
X145103796Y-94495444D01*
X145103796Y-94495445D01*
X145048503Y-94628934D01*
X145048501Y-94628942D01*
X145020315Y-94770641D01*
X145020315Y-94892742D01*
X145011372Y-94923197D01*
X145004070Y-94954101D01*
X145001597Y-94956487D01*
X145000630Y-94959781D01*
X144976647Y-94980562D01*
X144953791Y-95002617D01*
X144949411Y-95004161D01*
X144947826Y-95005536D01*
X144920507Y-95014359D01*
X144829782Y-95032405D01*
X144806576Y-95037022D01*
X144802813Y-95037770D01*
X144795346Y-95039255D01*
X144795344Y-95039256D01*
X144754390Y-95056220D01*
X144705071Y-95076649D01*
X144692005Y-95082061D01*
X144644552Y-95091500D01*
X144100164Y-95091500D01*
X144033125Y-95071815D01*
X144012482Y-95055180D01*
X143979118Y-95021815D01*
X143979114Y-95021812D01*
X143813944Y-94911448D01*
X143813935Y-94911443D01*
X143630402Y-94835422D01*
X143630394Y-94835420D01*
X143435566Y-94796666D01*
X143435563Y-94796666D01*
X143236905Y-94796666D01*
X143236902Y-94796666D01*
X143042073Y-94835420D01*
X143042069Y-94835421D01*
X143042067Y-94835421D01*
X143042066Y-94835422D01*
X143026036Y-94842061D01*
X142978586Y-94851500D01*
X142452666Y-94851500D01*
X142259844Y-94889854D01*
X142259845Y-94889855D01*
X142257838Y-94890254D01*
X142257828Y-94890257D01*
X142074298Y-94966277D01*
X142074289Y-94966282D01*
X141909119Y-95076646D01*
X141909115Y-95076649D01*
X141599585Y-95386181D01*
X141538262Y-95419666D01*
X141511904Y-95422500D01*
X141026170Y-95422500D01*
X140871413Y-95453283D01*
X140801821Y-95447056D01*
X140746644Y-95404192D01*
X140723400Y-95338303D01*
X140739468Y-95270306D01*
X140759537Y-95243988D01*
X140844747Y-95158779D01*
X140913969Y-95055180D01*
X140925018Y-95038644D01*
X140925018Y-95038643D01*
X140925019Y-95038642D01*
X140980312Y-94905154D01*
X141008500Y-94763443D01*
X141008500Y-94618957D01*
X140980312Y-94477246D01*
X140925019Y-94343758D01*
X140925018Y-94343756D01*
X140925018Y-94343755D01*
X140844748Y-94223622D01*
X140844742Y-94223615D01*
X140742584Y-94121457D01*
X140742577Y-94121451D01*
X140622443Y-94041181D01*
X140488954Y-93985888D01*
X140488946Y-93985886D01*
X140347247Y-93957700D01*
X140347243Y-93957700D01*
X140202757Y-93957700D01*
X140202752Y-93957700D01*
X140061053Y-93985886D01*
X140061045Y-93985888D01*
X139927556Y-94041181D01*
X139927555Y-94041181D01*
X139807422Y-94121451D01*
X139724337Y-94204536D01*
X139663013Y-94238020D01*
X139660848Y-94238471D01*
X139555302Y-94259465D01*
X139555296Y-94259467D01*
X139421807Y-94314760D01*
X139421806Y-94314760D01*
X139301673Y-94395030D01*
X139301666Y-94395036D01*
X139199508Y-94497194D01*
X139199502Y-94497201D01*
X139119232Y-94617334D01*
X139119232Y-94617335D01*
X139063939Y-94750824D01*
X139063937Y-94750830D01*
X139049695Y-94822430D01*
X139017310Y-94884341D01*
X138956594Y-94918915D01*
X138952270Y-94919855D01*
X138757531Y-94958591D01*
X138757521Y-94958594D01*
X138603116Y-95022551D01*
X138533647Y-95030020D01*
X138508211Y-95022551D01*
X138506429Y-95021813D01*
X138420002Y-94986013D01*
X138419994Y-94986011D01*
X138244485Y-94951100D01*
X138244481Y-94951100D01*
X138065523Y-94951100D01*
X138065518Y-94951100D01*
X137890009Y-94986011D01*
X137890001Y-94986013D01*
X137724669Y-95054496D01*
X137724659Y-95054501D01*
X137575867Y-95153921D01*
X137575863Y-95153924D01*
X137449326Y-95280461D01*
X137449323Y-95280465D01*
X137349903Y-95429257D01*
X137349898Y-95429267D01*
X137281415Y-95594599D01*
X137281413Y-95594607D01*
X137246502Y-95770116D01*
X137246502Y-95949083D01*
X137281413Y-96124592D01*
X137281415Y-96124600D01*
X137349898Y-96289932D01*
X137349903Y-96289942D01*
X137449323Y-96438734D01*
X137449326Y-96438738D01*
X137575863Y-96565275D01*
X137575867Y-96565278D01*
X137724659Y-96664698D01*
X137724663Y-96664700D01*
X137724666Y-96664702D01*
X137890002Y-96733187D01*
X138065518Y-96768099D01*
X138065522Y-96768100D01*
X138065523Y-96768100D01*
X138244482Y-96768100D01*
X138244482Y-96768099D01*
X138377479Y-96741645D01*
X138447068Y-96747872D01*
X138489349Y-96775581D01*
X139004317Y-97290550D01*
X139004321Y-97290553D01*
X139169498Y-97400922D01*
X139273847Y-97444144D01*
X139353033Y-97476944D01*
X139504658Y-97507104D01*
X139547868Y-97515699D01*
X139547872Y-97515700D01*
X139547873Y-97515700D01*
X139848107Y-97515700D01*
X139915146Y-97535385D01*
X139916994Y-97536595D01*
X140060059Y-97632188D01*
X140167571Y-97676720D01*
X140243593Y-97708210D01*
X140438428Y-97746965D01*
X140438432Y-97746966D01*
X140438433Y-97746966D01*
X140438434Y-97746966D01*
X140637091Y-97746966D01*
X140718709Y-97746966D01*
X140854278Y-97746966D01*
X140921317Y-97766651D01*
X140941954Y-97783280D01*
X141010421Y-97851747D01*
X141010422Y-97851748D01*
X141130547Y-97932012D01*
X141130549Y-97932013D01*
X141130558Y-97932019D01*
X141130567Y-97932022D01*
X141135484Y-97934651D01*
X141164716Y-97956331D01*
X142155181Y-98946796D01*
X142188666Y-99008119D01*
X142191500Y-99034477D01*
X142191500Y-102723700D01*
X142190574Y-102726850D01*
X142191338Y-102730046D01*
X142180795Y-102760153D01*
X142171815Y-102790739D01*
X142169333Y-102792888D01*
X142168248Y-102795990D01*
X142143098Y-102815621D01*
X142119011Y-102836494D01*
X142114990Y-102837563D01*
X142113172Y-102838983D01*
X142100725Y-102841358D01*
X142078843Y-102847180D01*
X142073182Y-102847700D01*
X142007757Y-102847700D01*
X141951611Y-102858867D01*
X141945129Y-102859463D01*
X141916968Y-102853930D01*
X141888383Y-102851372D01*
X141879023Y-102846475D01*
X141876570Y-102845994D01*
X141874737Y-102844234D01*
X141864896Y-102839086D01*
X141851080Y-102829854D01*
X141774642Y-102778781D01*
X141744993Y-102766500D01*
X141641154Y-102723488D01*
X141641146Y-102723486D01*
X141499447Y-102695300D01*
X141499443Y-102695300D01*
X141354957Y-102695300D01*
X141354952Y-102695300D01*
X141213253Y-102723486D01*
X141213245Y-102723488D01*
X141079756Y-102778781D01*
X141079755Y-102778781D01*
X140959622Y-102859051D01*
X140959615Y-102859057D01*
X140857457Y-102961215D01*
X140857451Y-102961222D01*
X140777181Y-103081355D01*
X140777181Y-103081356D01*
X140721888Y-103214845D01*
X140721886Y-103214853D01*
X140693700Y-103356552D01*
X140693700Y-103501041D01*
X140696901Y-103517135D01*
X140690672Y-103586726D01*
X140678386Y-103610215D01*
X140599980Y-103727559D01*
X140544688Y-103861045D01*
X140544686Y-103861053D01*
X140516500Y-104002752D01*
X140516500Y-104147247D01*
X140544686Y-104288946D01*
X140544688Y-104288954D01*
X140599981Y-104422443D01*
X140599981Y-104422444D01*
X140680251Y-104542577D01*
X140680257Y-104542584D01*
X140782415Y-104644742D01*
X140782422Y-104644748D01*
X140902556Y-104725018D01*
X140902557Y-104725018D01*
X140902558Y-104725019D01*
X141036046Y-104780312D01*
X141167009Y-104806362D01*
X141177752Y-104808499D01*
X141177756Y-104808500D01*
X141177757Y-104808500D01*
X141322244Y-104808500D01*
X141322245Y-104808499D01*
X141463954Y-104780312D01*
X141597442Y-104725019D01*
X141597443Y-104725018D01*
X141597444Y-104725018D01*
X141683797Y-104667319D01*
X141717579Y-104644747D01*
X141819747Y-104542579D01*
X141900019Y-104422442D01*
X141910145Y-104397993D01*
X141912940Y-104391248D01*
X141925482Y-104375683D01*
X141933788Y-104357497D01*
X141946958Y-104349032D01*
X141956781Y-104336844D01*
X141975748Y-104330531D01*
X141992566Y-104319723D01*
X142020126Y-104315760D01*
X142023075Y-104314779D01*
X142027501Y-104314700D01*
X142067500Y-104314700D01*
X142134539Y-104334385D01*
X142180294Y-104387189D01*
X142191500Y-104438700D01*
X142191500Y-104532681D01*
X142191500Y-104667319D01*
X142191500Y-104667321D01*
X142191499Y-104667321D01*
X142217765Y-104799363D01*
X142217767Y-104799371D01*
X142269290Y-104923759D01*
X142269291Y-104923762D01*
X142344090Y-105035705D01*
X142344093Y-105035709D01*
X142439290Y-105130906D01*
X142439294Y-105130909D01*
X142551237Y-105205708D01*
X142551239Y-105205708D01*
X142551241Y-105205710D01*
X142675630Y-105257233D01*
X142686434Y-105259382D01*
X142807678Y-105283500D01*
X142807681Y-105283500D01*
X142865523Y-105283500D01*
X142932562Y-105303185D01*
X142953204Y-105319819D01*
X143697848Y-106064463D01*
X143731333Y-106125786D01*
X143726349Y-106195478D01*
X143697848Y-106239825D01*
X143630257Y-106307415D01*
X143630251Y-106307422D01*
X143549981Y-106427555D01*
X143549981Y-106427556D01*
X143494688Y-106561045D01*
X143494686Y-106561053D01*
X143466500Y-106702752D01*
X143466500Y-106815098D01*
X143446815Y-106882137D01*
X143436152Y-106895368D01*
X143436479Y-106895636D01*
X143432608Y-106900353D01*
X143352338Y-107020485D01*
X143352338Y-107020486D01*
X143297045Y-107153975D01*
X143295541Y-107158934D01*
X143257240Y-107217370D01*
X143224335Y-107237493D01*
X143139690Y-107272554D01*
X143139689Y-107272554D01*
X143019556Y-107352824D01*
X143019549Y-107352830D01*
X142917391Y-107454988D01*
X142917385Y-107454995D01*
X142837115Y-107575128D01*
X142837115Y-107575129D01*
X142781822Y-107708618D01*
X142781820Y-107708626D01*
X142753634Y-107850325D01*
X142753634Y-107994820D01*
X142781820Y-108136519D01*
X142781822Y-108136527D01*
X142837115Y-108270016D01*
X142837115Y-108270017D01*
X142917385Y-108390150D01*
X142917391Y-108390157D01*
X143019549Y-108492315D01*
X143019556Y-108492321D01*
X143139690Y-108572591D01*
X143139691Y-108572591D01*
X143139692Y-108572592D01*
X143273180Y-108627885D01*
X143414886Y-108656072D01*
X143414890Y-108656073D01*
X143414891Y-108656073D01*
X143559378Y-108656073D01*
X143559379Y-108656072D01*
X143701088Y-108627885D01*
X143834576Y-108572592D01*
X143834577Y-108572591D01*
X143834578Y-108572591D01*
X143894644Y-108532456D01*
X143954713Y-108492320D01*
X144056881Y-108390152D01*
X144105369Y-108317584D01*
X144137152Y-108270017D01*
X144137152Y-108270016D01*
X144137153Y-108270015D01*
X144192446Y-108136527D01*
X144192448Y-108136513D01*
X144193946Y-108131580D01*
X144211365Y-108104997D01*
X144227368Y-108077514D01*
X144230859Y-108075249D01*
X144232242Y-108073140D01*
X144256193Y-108057148D01*
X144260597Y-108054897D01*
X144349799Y-108017949D01*
X144404634Y-107981309D01*
X144411085Y-107978014D01*
X144438578Y-107972819D01*
X144465286Y-107964457D01*
X144472445Y-107966421D01*
X144479740Y-107965043D01*
X144505678Y-107975537D01*
X144532667Y-107982941D01*
X144537628Y-107988464D01*
X144544509Y-107991248D01*
X144560655Y-108014100D01*
X144579357Y-108034920D01*
X144581244Y-108043239D01*
X144584828Y-108048311D01*
X144585412Y-108061608D01*
X144591500Y-108088437D01*
X144591500Y-109562996D01*
X144571815Y-109630035D01*
X144519011Y-109675790D01*
X144449853Y-109685734D01*
X144443310Y-109684614D01*
X144388029Y-109673618D01*
X144352243Y-109666500D01*
X144207757Y-109666500D01*
X144207752Y-109666500D01*
X144066053Y-109694686D01*
X144066045Y-109694688D01*
X143932556Y-109749981D01*
X143932555Y-109749981D01*
X143812422Y-109830251D01*
X143812415Y-109830257D01*
X143710254Y-109932418D01*
X143699983Y-109947790D01*
X143646369Y-109992593D01*
X143577043Y-110001298D01*
X143572693Y-110000513D01*
X143528185Y-109991660D01*
X143502243Y-109986500D01*
X143357757Y-109986500D01*
X143357752Y-109986500D01*
X143216053Y-110014686D01*
X143216045Y-110014688D01*
X143082556Y-110069981D01*
X143082555Y-110069981D01*
X142962422Y-110150251D01*
X142962415Y-110150257D01*
X142860257Y-110252415D01*
X142860251Y-110252422D01*
X142779981Y-110372555D01*
X142779981Y-110372556D01*
X142724688Y-110506045D01*
X142724686Y-110506053D01*
X142696500Y-110647752D01*
X142696500Y-110792247D01*
X142724686Y-110933946D01*
X142724688Y-110933954D01*
X142779981Y-111067443D01*
X142779981Y-111067444D01*
X142860251Y-111187577D01*
X142860257Y-111187584D01*
X142962415Y-111289742D01*
X142962422Y-111289748D01*
X143082556Y-111370018D01*
X143082557Y-111370018D01*
X143082558Y-111370019D01*
X143216046Y-111425312D01*
X143343173Y-111450599D01*
X143357752Y-111453499D01*
X143357756Y-111453500D01*
X143357757Y-111453500D01*
X143502244Y-111453500D01*
X143502245Y-111453499D01*
X143643954Y-111425312D01*
X143643964Y-111425307D01*
X143649785Y-111423543D01*
X143650418Y-111425630D01*
X143710101Y-111419192D01*
X143772591Y-111450444D01*
X143797487Y-111482776D01*
X143799984Y-111487447D01*
X143880251Y-111607577D01*
X143880257Y-111607584D01*
X143982415Y-111709742D01*
X143982422Y-111709748D01*
X144102556Y-111790018D01*
X144102557Y-111790018D01*
X144102558Y-111790019D01*
X144236046Y-111845312D01*
X144348885Y-111867757D01*
X144377752Y-111873499D01*
X144377756Y-111873500D01*
X144377757Y-111873500D01*
X144522244Y-111873500D01*
X144522245Y-111873499D01*
X144663954Y-111845312D01*
X144797442Y-111790019D01*
X144797443Y-111790018D01*
X144797444Y-111790018D01*
X144890891Y-111727579D01*
X144917579Y-111709747D01*
X145019747Y-111607579D01*
X145019748Y-111607576D01*
X145023608Y-111603717D01*
X145084931Y-111570231D01*
X145154623Y-111575215D01*
X145180180Y-111588295D01*
X145272556Y-111650018D01*
X145272557Y-111650018D01*
X145272558Y-111650019D01*
X145406046Y-111705312D01*
X145439243Y-111711915D01*
X145501153Y-111744298D01*
X145518152Y-111764637D01*
X145577527Y-111853499D01*
X145580256Y-111857583D01*
X145682415Y-111959742D01*
X145682422Y-111959748D01*
X145802556Y-112040018D01*
X145802557Y-112040018D01*
X145802558Y-112040019D01*
X145936046Y-112095312D01*
X146073323Y-112122618D01*
X146077752Y-112123499D01*
X146077756Y-112123500D01*
X146077757Y-112123500D01*
X146222244Y-112123500D01*
X146222245Y-112123499D01*
X146363954Y-112095312D01*
X146497442Y-112040019D01*
X146617579Y-111959747D01*
X146645905Y-111931420D01*
X146707227Y-111897935D01*
X146776919Y-111902919D01*
X146792036Y-111909741D01*
X146792551Y-111910016D01*
X146792557Y-111910018D01*
X146792558Y-111910019D01*
X146926046Y-111965312D01*
X147067752Y-111993499D01*
X147067756Y-111993500D01*
X147067757Y-111993500D01*
X147212244Y-111993500D01*
X147212245Y-111993499D01*
X147353954Y-111965312D01*
X147487442Y-111910019D01*
X147487443Y-111910018D01*
X147487444Y-111910018D01*
X147565925Y-111857579D01*
X147607579Y-111829747D01*
X147649522Y-111787804D01*
X147710845Y-111754318D01*
X147780536Y-111759302D01*
X147796904Y-111767680D01*
X147797188Y-111767149D01*
X147802556Y-111770018D01*
X147802557Y-111770018D01*
X147802558Y-111770019D01*
X147936046Y-111825312D01*
X148077752Y-111853499D01*
X148077756Y-111853500D01*
X148077757Y-111853500D01*
X148222244Y-111853500D01*
X148222245Y-111853499D01*
X148363954Y-111825312D01*
X148497442Y-111770019D01*
X148497443Y-111770018D01*
X148497444Y-111770018D01*
X148565733Y-111724389D01*
X148617579Y-111689747D01*
X148719747Y-111587579D01*
X148789290Y-111483499D01*
X148800018Y-111467444D01*
X148800018Y-111467443D01*
X148800019Y-111467442D01*
X148855312Y-111333954D01*
X148883500Y-111192243D01*
X148883500Y-111047757D01*
X148855312Y-110906046D01*
X148800019Y-110772558D01*
X148800018Y-110772556D01*
X148800018Y-110772555D01*
X148719748Y-110652422D01*
X148719742Y-110652415D01*
X148617584Y-110550257D01*
X148617577Y-110550251D01*
X148497443Y-110469981D01*
X148485893Y-110465197D01*
X148431490Y-110421356D01*
X148409425Y-110355062D01*
X148426704Y-110287362D01*
X148477842Y-110239752D01*
X148509155Y-110229019D01*
X148536241Y-110223630D01*
X148631354Y-110204712D01*
X148764842Y-110149419D01*
X148764843Y-110149418D01*
X148764844Y-110149418D01*
X148864116Y-110083087D01*
X148884979Y-110069147D01*
X148987147Y-109966979D01*
X149036964Y-109892422D01*
X149067418Y-109846844D01*
X149067418Y-109846843D01*
X149067419Y-109846842D01*
X149122712Y-109713354D01*
X149150900Y-109571643D01*
X149150900Y-109427157D01*
X149122712Y-109285446D01*
X149067419Y-109151958D01*
X149067418Y-109151956D01*
X149067418Y-109151955D01*
X148987148Y-109031822D01*
X148987142Y-109031815D01*
X148884984Y-108929657D01*
X148884977Y-108929651D01*
X148764843Y-108849381D01*
X148631354Y-108794088D01*
X148631346Y-108794086D01*
X148489647Y-108765900D01*
X148489643Y-108765900D01*
X148345157Y-108765900D01*
X148345152Y-108765900D01*
X148203453Y-108794086D01*
X148203445Y-108794088D01*
X148069956Y-108849381D01*
X148069955Y-108849381D01*
X147949822Y-108929651D01*
X147949815Y-108929657D01*
X147847657Y-109031815D01*
X147847651Y-109031822D01*
X147767381Y-109151955D01*
X147767381Y-109151956D01*
X147712088Y-109285445D01*
X147712086Y-109285453D01*
X147683900Y-109427152D01*
X147683900Y-109571647D01*
X147712086Y-109713346D01*
X147712088Y-109713354D01*
X147767381Y-109846843D01*
X147767381Y-109846844D01*
X147847651Y-109966977D01*
X147847657Y-109966984D01*
X147949815Y-110069142D01*
X147949822Y-110069148D01*
X148069956Y-110149418D01*
X148069957Y-110149418D01*
X148069958Y-110149419D01*
X148071981Y-110150257D01*
X148081503Y-110154201D01*
X148135907Y-110198040D01*
X148157974Y-110264334D01*
X148140696Y-110332034D01*
X148089560Y-110379645D01*
X148058245Y-110390380D01*
X147936051Y-110414686D01*
X147936045Y-110414688D01*
X147802556Y-110469981D01*
X147802555Y-110469981D01*
X147682422Y-110550251D01*
X147682414Y-110550257D01*
X147640475Y-110592197D01*
X147579152Y-110625681D01*
X147509460Y-110620696D01*
X147493095Y-110612321D01*
X147492812Y-110612851D01*
X147487443Y-110609981D01*
X147353954Y-110554688D01*
X147353946Y-110554686D01*
X147244582Y-110532932D01*
X147182671Y-110500547D01*
X147171207Y-110486828D01*
X147170953Y-110487037D01*
X147167088Y-110482327D01*
X147064930Y-110380169D01*
X147064923Y-110380163D01*
X146944789Y-110299893D01*
X146811300Y-110244600D01*
X146811292Y-110244598D01*
X146669593Y-110216412D01*
X146669589Y-110216412D01*
X146525103Y-110216412D01*
X146525098Y-110216412D01*
X146383399Y-110244598D01*
X146383391Y-110244600D01*
X146249905Y-110299892D01*
X146151390Y-110365717D01*
X146084712Y-110386594D01*
X146017332Y-110368109D01*
X145970643Y-110316130D01*
X145958500Y-110262614D01*
X145958500Y-108705900D01*
X145978185Y-108638861D01*
X146014087Y-108607752D01*
X150206500Y-108607752D01*
X150206500Y-108752247D01*
X150234686Y-108893946D01*
X150234688Y-108893954D01*
X150289981Y-109027443D01*
X150289981Y-109027444D01*
X150370251Y-109147577D01*
X150370257Y-109147584D01*
X150472415Y-109249742D01*
X150472422Y-109249748D01*
X150592556Y-109330018D01*
X150592557Y-109330018D01*
X150592558Y-109330019D01*
X150726046Y-109385312D01*
X150867752Y-109413499D01*
X150867756Y-109413500D01*
X150867757Y-109413500D01*
X151012244Y-109413500D01*
X151012245Y-109413499D01*
X151153954Y-109385312D01*
X151206037Y-109363737D01*
X151275504Y-109356268D01*
X151300934Y-109363734D01*
X151365130Y-109390325D01*
X151481634Y-109413499D01*
X151506836Y-109418512D01*
X151506840Y-109418513D01*
X151506841Y-109418513D01*
X151651328Y-109418513D01*
X151651329Y-109418512D01*
X151793038Y-109390325D01*
X151926526Y-109335032D01*
X151926527Y-109335031D01*
X151926528Y-109335031D01*
X152000727Y-109285453D01*
X152046663Y-109254760D01*
X152148831Y-109152592D01*
X152229103Y-109032455D01*
X152284396Y-108898967D01*
X152312584Y-108757256D01*
X152312584Y-108612770D01*
X152284396Y-108471059D01*
X152229103Y-108337571D01*
X152229102Y-108337569D01*
X152229102Y-108337568D01*
X152148832Y-108217435D01*
X152148826Y-108217428D01*
X152046668Y-108115270D01*
X152046661Y-108115264D01*
X151926527Y-108034994D01*
X151793038Y-107979701D01*
X151793030Y-107979699D01*
X151651331Y-107951513D01*
X151651327Y-107951513D01*
X151506841Y-107951513D01*
X151506836Y-107951513D01*
X151365137Y-107979698D01*
X151365128Y-107979701D01*
X151313045Y-108001275D01*
X151243575Y-108008744D01*
X151218141Y-108001275D01*
X151153955Y-107974688D01*
X151153946Y-107974685D01*
X151012247Y-107946500D01*
X151012243Y-107946500D01*
X150867757Y-107946500D01*
X150867752Y-107946500D01*
X150726053Y-107974686D01*
X150726045Y-107974688D01*
X150592556Y-108029981D01*
X150592555Y-108029981D01*
X150472422Y-108110251D01*
X150472415Y-108110257D01*
X150370257Y-108212415D01*
X150370251Y-108212422D01*
X150289981Y-108332555D01*
X150289981Y-108332556D01*
X150234688Y-108466045D01*
X150234686Y-108466053D01*
X150206500Y-108607752D01*
X146014087Y-108607752D01*
X146030989Y-108593106D01*
X146096618Y-108583669D01*
X146096694Y-108582903D01*
X146099812Y-108583210D01*
X146100147Y-108583162D01*
X146101260Y-108583352D01*
X146102756Y-108583500D01*
X146102757Y-108583500D01*
X146247244Y-108583500D01*
X146247245Y-108583499D01*
X146388954Y-108555312D01*
X146522442Y-108500019D01*
X146522443Y-108500018D01*
X146522444Y-108500018D01*
X146582510Y-108459883D01*
X146642579Y-108419747D01*
X146744747Y-108317579D01*
X146809398Y-108220819D01*
X146863009Y-108176015D01*
X146932334Y-108167308D01*
X146995362Y-108197462D01*
X147015599Y-108220816D01*
X147078598Y-108315102D01*
X147080256Y-108317583D01*
X147182415Y-108419742D01*
X147182422Y-108419748D01*
X147302556Y-108500018D01*
X147302557Y-108500018D01*
X147302558Y-108500019D01*
X147436046Y-108555312D01*
X147522914Y-108572591D01*
X147577752Y-108583499D01*
X147577756Y-108583500D01*
X147577757Y-108583500D01*
X147722244Y-108583500D01*
X147722245Y-108583499D01*
X147863954Y-108555312D01*
X147997442Y-108500019D01*
X148117579Y-108419747D01*
X148219747Y-108317579D01*
X148290010Y-108212422D01*
X148300018Y-108197444D01*
X148300018Y-108197443D01*
X148300019Y-108197442D01*
X148355312Y-108063954D01*
X148366055Y-108009943D01*
X148398439Y-107948035D01*
X148459154Y-107913460D01*
X148528924Y-107917199D01*
X148535122Y-107919574D01*
X148561046Y-107930312D01*
X148667631Y-107951513D01*
X148702752Y-107958499D01*
X148702756Y-107958500D01*
X148702757Y-107958500D01*
X148847244Y-107958500D01*
X148847245Y-107958499D01*
X148988954Y-107930312D01*
X149122442Y-107875019D01*
X149122443Y-107875018D01*
X149122444Y-107875018D01*
X149225019Y-107806480D01*
X149242579Y-107794747D01*
X149344747Y-107692579D01*
X149406954Y-107599479D01*
X149425018Y-107572444D01*
X149425018Y-107572443D01*
X149425019Y-107572442D01*
X149480312Y-107438954D01*
X149483980Y-107420516D01*
X155179600Y-107420516D01*
X155179600Y-107599483D01*
X155214511Y-107774992D01*
X155214513Y-107775000D01*
X155282996Y-107940332D01*
X155283001Y-107940342D01*
X155382421Y-108089134D01*
X155382424Y-108089138D01*
X155508961Y-108215675D01*
X155508965Y-108215678D01*
X155657757Y-108315098D01*
X155657761Y-108315100D01*
X155657764Y-108315102D01*
X155823100Y-108383587D01*
X155998616Y-108418499D01*
X155998620Y-108418500D01*
X155998621Y-108418500D01*
X156177580Y-108418500D01*
X156177581Y-108418499D01*
X156353100Y-108383587D01*
X156518436Y-108315102D01*
X156667235Y-108215678D01*
X156793778Y-108089135D01*
X156893202Y-107940336D01*
X156961687Y-107775000D01*
X156996600Y-107599479D01*
X156996600Y-107420521D01*
X156961687Y-107245000D01*
X156893202Y-107079664D01*
X156893200Y-107079661D01*
X156893198Y-107079657D01*
X156793778Y-106930865D01*
X156793775Y-106930861D01*
X156667238Y-106804324D01*
X156667234Y-106804321D01*
X156518442Y-106704901D01*
X156518432Y-106704896D01*
X156353100Y-106636413D01*
X156353092Y-106636411D01*
X156177583Y-106601500D01*
X156177579Y-106601500D01*
X155998621Y-106601500D01*
X155998616Y-106601500D01*
X155823107Y-106636411D01*
X155823099Y-106636413D01*
X155657767Y-106704896D01*
X155657757Y-106704901D01*
X155508965Y-106804321D01*
X155508961Y-106804324D01*
X155382424Y-106930861D01*
X155382421Y-106930865D01*
X155283001Y-107079657D01*
X155282996Y-107079667D01*
X155214513Y-107244999D01*
X155214511Y-107245007D01*
X155179600Y-107420516D01*
X149483980Y-107420516D01*
X149508500Y-107297243D01*
X149508500Y-107152757D01*
X149480312Y-107011046D01*
X149425019Y-106877558D01*
X149425018Y-106877556D01*
X149425018Y-106877555D01*
X149344748Y-106757422D01*
X149344742Y-106757415D01*
X149242584Y-106655257D01*
X149242577Y-106655251D01*
X149122443Y-106574981D01*
X148988954Y-106519688D01*
X148988949Y-106519687D01*
X148911307Y-106504242D01*
X148849397Y-106471856D01*
X148814823Y-106411140D01*
X148811500Y-106382625D01*
X148811500Y-106349756D01*
X148811499Y-106349752D01*
X148803078Y-106307415D01*
X148783312Y-106208046D01*
X148728019Y-106074558D01*
X148728018Y-106074556D01*
X148728018Y-106074555D01*
X148647748Y-105954422D01*
X148647742Y-105954415D01*
X148545584Y-105852257D01*
X148545577Y-105852251D01*
X148425443Y-105771981D01*
X148291954Y-105716688D01*
X148291946Y-105716686D01*
X148150247Y-105688500D01*
X148150243Y-105688500D01*
X148014940Y-105688500D01*
X147947901Y-105668815D01*
X147902146Y-105616011D01*
X147892202Y-105546853D01*
X147911836Y-105495611D01*
X147980480Y-105392878D01*
X148035773Y-105259390D01*
X148063961Y-105117679D01*
X148063961Y-104973193D01*
X148035773Y-104831482D01*
X147980480Y-104697994D01*
X147980479Y-104697992D01*
X147980479Y-104697991D01*
X147900209Y-104577858D01*
X147900203Y-104577851D01*
X147798045Y-104475693D01*
X147798038Y-104475687D01*
X147677904Y-104395417D01*
X147544415Y-104340124D01*
X147544407Y-104340122D01*
X147537515Y-104338751D01*
X147475604Y-104306366D01*
X147441030Y-104245651D01*
X147444769Y-104175881D01*
X147485636Y-104119209D01*
X147537515Y-104095517D01*
X147570915Y-104088873D01*
X147613954Y-104080312D01*
X147747442Y-104025019D01*
X147747443Y-104025018D01*
X147747444Y-104025018D01*
X147867093Y-103945072D01*
X147933770Y-103924194D01*
X148001150Y-103942679D01*
X148025366Y-103963850D01*
X148025945Y-103963272D01*
X148132415Y-104069742D01*
X148132422Y-104069748D01*
X148252556Y-104150018D01*
X148252557Y-104150018D01*
X148252558Y-104150019D01*
X148386046Y-104205312D01*
X148527752Y-104233499D01*
X148527756Y-104233500D01*
X148527757Y-104233500D01*
X148672244Y-104233500D01*
X148672245Y-104233499D01*
X148813954Y-104205312D01*
X148947442Y-104150019D01*
X148947443Y-104150018D01*
X148947444Y-104150018D01*
X149029011Y-104095517D01*
X149067579Y-104069747D01*
X149169747Y-103967579D01*
X149213288Y-103902415D01*
X149250018Y-103847444D01*
X149250018Y-103847443D01*
X149250019Y-103847442D01*
X149305312Y-103713954D01*
X149305670Y-103712152D01*
X151920500Y-103712152D01*
X151920500Y-103856647D01*
X151948686Y-103998346D01*
X151948688Y-103998354D01*
X152003981Y-104131843D01*
X152003981Y-104131844D01*
X152084251Y-104251977D01*
X152084257Y-104251984D01*
X152186415Y-104354142D01*
X152186422Y-104354148D01*
X152306556Y-104434418D01*
X152306557Y-104434418D01*
X152306558Y-104434419D01*
X152440046Y-104489712D01*
X152581752Y-104517899D01*
X152581756Y-104517900D01*
X152581757Y-104517900D01*
X152726244Y-104517900D01*
X152726245Y-104517899D01*
X152867954Y-104489712D01*
X153001442Y-104434419D01*
X153001443Y-104434418D01*
X153001444Y-104434418D01*
X153066053Y-104391248D01*
X153121579Y-104354147D01*
X153223747Y-104251979D01*
X153263883Y-104191910D01*
X153304018Y-104131844D01*
X153304018Y-104131843D01*
X153304019Y-104131842D01*
X153359312Y-103998354D01*
X153387500Y-103856643D01*
X153387500Y-103856181D01*
X153387568Y-103855947D01*
X153388097Y-103850582D01*
X153389114Y-103850682D01*
X153407185Y-103789142D01*
X153459989Y-103743387D01*
X153529147Y-103733443D01*
X153580389Y-103753078D01*
X153687758Y-103824819D01*
X153821246Y-103880112D01*
X153821248Y-103880112D01*
X153826685Y-103881762D01*
X153885123Y-103920060D01*
X153913579Y-103983873D01*
X153903017Y-104052940D01*
X153878370Y-104088103D01*
X153811451Y-104155022D01*
X153731181Y-104275155D01*
X153716067Y-104311643D01*
X153672224Y-104366045D01*
X153648960Y-104378748D01*
X153525756Y-104429781D01*
X153525755Y-104429781D01*
X153405622Y-104510051D01*
X153405615Y-104510057D01*
X153303457Y-104612215D01*
X153303451Y-104612222D01*
X153223181Y-104732355D01*
X153223181Y-104732356D01*
X153167888Y-104865845D01*
X153167886Y-104865853D01*
X153139700Y-105007552D01*
X153139700Y-105152047D01*
X153167886Y-105293746D01*
X153167888Y-105293754D01*
X153223181Y-105427243D01*
X153223181Y-105427244D01*
X153303451Y-105547377D01*
X153303457Y-105547384D01*
X153385937Y-105629864D01*
X153419422Y-105691187D01*
X153414438Y-105760879D01*
X153372566Y-105816812D01*
X153361563Y-105824167D01*
X153353914Y-105828708D01*
X153302558Y-105849981D01*
X153182421Y-105930253D01*
X153181730Y-105930943D01*
X153175806Y-105934461D01*
X153145028Y-105942326D01*
X153114711Y-105951819D01*
X153110792Y-105951075D01*
X153108112Y-105951761D01*
X153099757Y-105948983D01*
X153065050Y-105942401D01*
X153020354Y-105923888D01*
X153020347Y-105923886D01*
X153020346Y-105923886D01*
X153020346Y-105923885D01*
X152878647Y-105895700D01*
X152878643Y-105895700D01*
X152734157Y-105895700D01*
X152734152Y-105895700D01*
X152592453Y-105923886D01*
X152592445Y-105923888D01*
X152458956Y-105979181D01*
X152458955Y-105979181D01*
X152338822Y-106059451D01*
X152338815Y-106059457D01*
X152236657Y-106161615D01*
X152236651Y-106161622D01*
X152156381Y-106281755D01*
X152156381Y-106281756D01*
X152101088Y-106415245D01*
X152101086Y-106415253D01*
X152072900Y-106556952D01*
X152072900Y-106701447D01*
X152101086Y-106843146D01*
X152101088Y-106843154D01*
X152156381Y-106976643D01*
X152156381Y-106976644D01*
X152236651Y-107096777D01*
X152236657Y-107096784D01*
X152338815Y-107198942D01*
X152338822Y-107198948D01*
X152458956Y-107279218D01*
X152458957Y-107279218D01*
X152458958Y-107279219D01*
X152592446Y-107334512D01*
X152720136Y-107359911D01*
X152734152Y-107362699D01*
X152734156Y-107362700D01*
X152734157Y-107362700D01*
X152878644Y-107362700D01*
X152878645Y-107362699D01*
X153020354Y-107334512D01*
X153153842Y-107279219D01*
X153273979Y-107198947D01*
X153274766Y-107198159D01*
X153281087Y-107194446D01*
X153311641Y-107186787D01*
X153341687Y-107177380D01*
X153345950Y-107178188D01*
X153348861Y-107177459D01*
X153357520Y-107180382D01*
X153391350Y-107186798D01*
X153436046Y-107205312D01*
X153577752Y-107233499D01*
X153577756Y-107233500D01*
X153577757Y-107233500D01*
X153722244Y-107233500D01*
X153722245Y-107233499D01*
X153863954Y-107205312D01*
X153997442Y-107150019D01*
X153997443Y-107150018D01*
X153997444Y-107150018D01*
X154102747Y-107079657D01*
X154117579Y-107069747D01*
X154219747Y-106967579D01*
X154277687Y-106880865D01*
X154300018Y-106847444D01*
X154300018Y-106847443D01*
X154300019Y-106847442D01*
X154355312Y-106713954D01*
X154383500Y-106572243D01*
X154383500Y-106427757D01*
X154355312Y-106286046D01*
X154300019Y-106152558D01*
X154300018Y-106152556D01*
X154300018Y-106152555D01*
X154219748Y-106032422D01*
X154219742Y-106032415D01*
X154137262Y-105949935D01*
X154103777Y-105888612D01*
X154108761Y-105818920D01*
X154150633Y-105762987D01*
X154177491Y-105747693D01*
X154220640Y-105729820D01*
X154220644Y-105729818D01*
X154311942Y-105668815D01*
X154340779Y-105649547D01*
X154442947Y-105547379D01*
X154523219Y-105427242D01*
X154538331Y-105390756D01*
X154582170Y-105336357D01*
X154605433Y-105323654D01*
X154728642Y-105272619D01*
X154728644Y-105272618D01*
X154788710Y-105232483D01*
X154848779Y-105192347D01*
X154950947Y-105090179D01*
X155029114Y-104973193D01*
X155031218Y-104970044D01*
X155031218Y-104970043D01*
X155031219Y-104970042D01*
X155086512Y-104836554D01*
X155114700Y-104694843D01*
X155114700Y-104550357D01*
X155086512Y-104408646D01*
X155031219Y-104275158D01*
X155031218Y-104275156D01*
X155031218Y-104275155D01*
X154950948Y-104155022D01*
X154950942Y-104155015D01*
X154848784Y-104052857D01*
X154848777Y-104052851D01*
X154728643Y-103972581D01*
X154595150Y-103917286D01*
X154589707Y-103915635D01*
X154531271Y-103877333D01*
X154502819Y-103813519D01*
X154513385Y-103744453D01*
X154538027Y-103709298D01*
X154604947Y-103642379D01*
X154685219Y-103522242D01*
X154740512Y-103388754D01*
X154768700Y-103247043D01*
X154768700Y-103102557D01*
X154740512Y-102960846D01*
X154685219Y-102827358D01*
X154678688Y-102817584D01*
X154667284Y-102800516D01*
X155771500Y-102800516D01*
X155771500Y-102979483D01*
X155806411Y-103154992D01*
X155806413Y-103155000D01*
X155874896Y-103320332D01*
X155874901Y-103320342D01*
X155974321Y-103469134D01*
X155974324Y-103469138D01*
X156100861Y-103595675D01*
X156100865Y-103595678D01*
X156249657Y-103695098D01*
X156249661Y-103695100D01*
X156249664Y-103695102D01*
X156415000Y-103763587D01*
X156543475Y-103789142D01*
X156590516Y-103798499D01*
X156590520Y-103798500D01*
X156590521Y-103798500D01*
X156769480Y-103798500D01*
X156769481Y-103798499D01*
X156945000Y-103763587D01*
X157110336Y-103695102D01*
X157259135Y-103595678D01*
X157385678Y-103469135D01*
X157485102Y-103320336D01*
X157553587Y-103155000D01*
X157588500Y-102979479D01*
X157588500Y-102800521D01*
X157553587Y-102625000D01*
X157485102Y-102459664D01*
X157485100Y-102459661D01*
X157485098Y-102459657D01*
X157385678Y-102310865D01*
X157385675Y-102310861D01*
X157259138Y-102184324D01*
X157259134Y-102184321D01*
X157110342Y-102084901D01*
X157110332Y-102084896D01*
X156945000Y-102016413D01*
X156944992Y-102016411D01*
X156769483Y-101981500D01*
X156769479Y-101981500D01*
X156590521Y-101981500D01*
X156590516Y-101981500D01*
X156415007Y-102016411D01*
X156414999Y-102016413D01*
X156249667Y-102084896D01*
X156249657Y-102084901D01*
X156100865Y-102184321D01*
X156100861Y-102184324D01*
X155974324Y-102310861D01*
X155974321Y-102310865D01*
X155874901Y-102459657D01*
X155874896Y-102459667D01*
X155806413Y-102624999D01*
X155806411Y-102625007D01*
X155771500Y-102800516D01*
X154667284Y-102800516D01*
X154604948Y-102707222D01*
X154604942Y-102707215D01*
X154502784Y-102605057D01*
X154502777Y-102605051D01*
X154382643Y-102524781D01*
X154249154Y-102469488D01*
X154249146Y-102469486D01*
X154107447Y-102441300D01*
X154107443Y-102441300D01*
X153962957Y-102441300D01*
X153962952Y-102441300D01*
X153821253Y-102469486D01*
X153821245Y-102469488D01*
X153687756Y-102524781D01*
X153687755Y-102524781D01*
X153567622Y-102605051D01*
X153567615Y-102605057D01*
X153465457Y-102707215D01*
X153465451Y-102707222D01*
X153385181Y-102827355D01*
X153385181Y-102827356D01*
X153329888Y-102960845D01*
X153329886Y-102960853D01*
X153301700Y-103102552D01*
X153301700Y-103103018D01*
X153301631Y-103103251D01*
X153301103Y-103108618D01*
X153300085Y-103108517D01*
X153282015Y-103170057D01*
X153229211Y-103215812D01*
X153160053Y-103225756D01*
X153108810Y-103206121D01*
X153063824Y-103176063D01*
X153001442Y-103134381D01*
X152940225Y-103109024D01*
X152867954Y-103079088D01*
X152867946Y-103079086D01*
X152726247Y-103050900D01*
X152726243Y-103050900D01*
X152581757Y-103050900D01*
X152581752Y-103050900D01*
X152440053Y-103079086D01*
X152440045Y-103079088D01*
X152306556Y-103134381D01*
X152306555Y-103134381D01*
X152186422Y-103214651D01*
X152186415Y-103214657D01*
X152084257Y-103316815D01*
X152084251Y-103316822D01*
X152003981Y-103436955D01*
X152003981Y-103436956D01*
X151948688Y-103570445D01*
X151948686Y-103570453D01*
X151920500Y-103712152D01*
X149305670Y-103712152D01*
X149309063Y-103695098D01*
X149311694Y-103681873D01*
X149311694Y-103681872D01*
X149327431Y-103602752D01*
X149333500Y-103572243D01*
X149333500Y-103427757D01*
X149305312Y-103286046D01*
X149250019Y-103152558D01*
X149250018Y-103152556D01*
X149250018Y-103152555D01*
X149169748Y-103032422D01*
X149169742Y-103032415D01*
X149067584Y-102930257D01*
X149067577Y-102930251D01*
X148947443Y-102849981D01*
X148813954Y-102794688D01*
X148813946Y-102794686D01*
X148672247Y-102766500D01*
X148672243Y-102766500D01*
X148527757Y-102766500D01*
X148527752Y-102766500D01*
X148386053Y-102794686D01*
X148386045Y-102794688D01*
X148252559Y-102849980D01*
X148132906Y-102929929D01*
X148066228Y-102950806D01*
X147998848Y-102932321D01*
X147974635Y-102911147D01*
X147974055Y-102911728D01*
X147867584Y-102805257D01*
X147867577Y-102805251D01*
X147747443Y-102724981D01*
X147613954Y-102669688D01*
X147613946Y-102669686D01*
X147472247Y-102641500D01*
X147472243Y-102641500D01*
X147327757Y-102641500D01*
X147327752Y-102641500D01*
X147186053Y-102669686D01*
X147186045Y-102669688D01*
X147052556Y-102724981D01*
X147052555Y-102724981D01*
X146932422Y-102805251D01*
X146932415Y-102805257D01*
X146830257Y-102907415D01*
X146830251Y-102907422D01*
X146749981Y-103027555D01*
X146749981Y-103027556D01*
X146694688Y-103161045D01*
X146694686Y-103161053D01*
X146666500Y-103302752D01*
X146666500Y-103447247D01*
X146694686Y-103588946D01*
X146694688Y-103588954D01*
X146749981Y-103722443D01*
X146749981Y-103722444D01*
X146830251Y-103842577D01*
X146830257Y-103842584D01*
X146932415Y-103944742D01*
X146932422Y-103944748D01*
X147052556Y-104025018D01*
X147052557Y-104025018D01*
X147052558Y-104025019D01*
X147186044Y-104080311D01*
X147186046Y-104080312D01*
X147192940Y-104081683D01*
X147254851Y-104114064D01*
X147289429Y-104174777D01*
X147285693Y-104244547D01*
X147244830Y-104301221D01*
X147192947Y-104324918D01*
X147116511Y-104340122D01*
X147116506Y-104340124D01*
X146983017Y-104395417D01*
X146983016Y-104395417D01*
X146862883Y-104475687D01*
X146862876Y-104475693D01*
X146760718Y-104577851D01*
X146760712Y-104577858D01*
X146680442Y-104697991D01*
X146680442Y-104697992D01*
X146625149Y-104831481D01*
X146625147Y-104831489D01*
X146596961Y-104973188D01*
X146596961Y-105117683D01*
X146625147Y-105259382D01*
X146625149Y-105259389D01*
X146634339Y-105281577D01*
X146637729Y-105313122D01*
X146642816Y-105344434D01*
X146641436Y-105347607D01*
X146641806Y-105351047D01*
X146627605Y-105379415D01*
X146614955Y-105408509D01*
X146611477Y-105411633D01*
X146610531Y-105413525D01*
X146588707Y-105432104D01*
X146588671Y-105432127D01*
X146588669Y-105432130D01*
X146587584Y-105432854D01*
X146585305Y-105434378D01*
X146523399Y-105475742D01*
X146523291Y-105475849D01*
X146518120Y-105479308D01*
X146490284Y-105488035D01*
X146463414Y-105499414D01*
X146457334Y-105498366D01*
X146451451Y-105500211D01*
X146423318Y-105492504D01*
X146394559Y-105487549D01*
X146390011Y-105483381D01*
X146384064Y-105481752D01*
X146364561Y-105460056D01*
X146343049Y-105440342D01*
X146341476Y-105434378D01*
X146337354Y-105429792D01*
X146332676Y-105400994D01*
X146325238Y-105372780D01*
X146326406Y-105362399D01*
X146326151Y-105360826D01*
X146326735Y-105359482D01*
X146327573Y-105352040D01*
X146333500Y-105322243D01*
X146333500Y-105177757D01*
X146305312Y-105036046D01*
X146250019Y-104902558D01*
X146250018Y-104902556D01*
X146250018Y-104902555D01*
X146169748Y-104782422D01*
X146169747Y-104782421D01*
X146152178Y-104764852D01*
X146107094Y-104719768D01*
X146073611Y-104658448D01*
X146073160Y-104656280D01*
X146058991Y-104585049D01*
X146044112Y-104510246D01*
X145996587Y-104395513D01*
X145989119Y-104326046D01*
X146020394Y-104263567D01*
X146037916Y-104248657D01*
X146037875Y-104248607D01*
X146040686Y-104246299D01*
X146042264Y-104244956D01*
X146042579Y-104244747D01*
X146144747Y-104142579D01*
X146215296Y-104036994D01*
X146225018Y-104022444D01*
X146225018Y-104022443D01*
X146225019Y-104022442D01*
X146280312Y-103888954D01*
X146308500Y-103747243D01*
X146308500Y-103602757D01*
X146280312Y-103461046D01*
X146225019Y-103327558D01*
X146225018Y-103327556D01*
X146225018Y-103327555D01*
X146144748Y-103207422D01*
X146144742Y-103207415D01*
X146042584Y-103105257D01*
X146042577Y-103105251D01*
X145922443Y-103024981D01*
X145788954Y-102969688D01*
X145788946Y-102969686D01*
X145647247Y-102941500D01*
X145647243Y-102941500D01*
X145502757Y-102941500D01*
X145502752Y-102941500D01*
X145361053Y-102969686D01*
X145361045Y-102969688D01*
X145227556Y-103024981D01*
X145227555Y-103024981D01*
X145107422Y-103105251D01*
X145107415Y-103105257D01*
X145005257Y-103207415D01*
X145005251Y-103207422D01*
X144924981Y-103327555D01*
X144924981Y-103327556D01*
X144869688Y-103461045D01*
X144869686Y-103461053D01*
X144841500Y-103602752D01*
X144841500Y-103747247D01*
X144869686Y-103888946D01*
X144869689Y-103888958D01*
X144917210Y-104003684D01*
X144924679Y-104073153D01*
X144893404Y-104135632D01*
X144875889Y-104150540D01*
X144875929Y-104150589D01*
X144873216Y-104152815D01*
X144871560Y-104154225D01*
X144871228Y-104154446D01*
X144871217Y-104154455D01*
X144769057Y-104256615D01*
X144769051Y-104256622D01*
X144688781Y-104376755D01*
X144688781Y-104376756D01*
X144633488Y-104510245D01*
X144633486Y-104510253D01*
X144605300Y-104651952D01*
X144605300Y-104739323D01*
X144585615Y-104806362D01*
X144532811Y-104852117D01*
X144463653Y-104862061D01*
X144400097Y-104833036D01*
X144393619Y-104827004D01*
X143635708Y-104069093D01*
X143635699Y-104069085D01*
X143625089Y-104061996D01*
X143625086Y-104061994D01*
X143625085Y-104061994D01*
X143613606Y-104054324D01*
X143568803Y-104000712D01*
X143558500Y-103951224D01*
X143558500Y-103176063D01*
X143578185Y-103109024D01*
X143630989Y-103063269D01*
X143700147Y-103053325D01*
X143706691Y-103054446D01*
X143788638Y-103070746D01*
X143852754Y-103083499D01*
X143852756Y-103083500D01*
X143852757Y-103083500D01*
X143997244Y-103083500D01*
X143997245Y-103083499D01*
X144138954Y-103055312D01*
X144272442Y-103000019D01*
X144272443Y-103000018D01*
X144272444Y-103000018D01*
X144373609Y-102932422D01*
X144392579Y-102919747D01*
X144494747Y-102817579D01*
X144553234Y-102730046D01*
X144575018Y-102697444D01*
X144575018Y-102697443D01*
X144575019Y-102697442D01*
X144630312Y-102563954D01*
X144658500Y-102422243D01*
X144658500Y-102280189D01*
X144678185Y-102213150D01*
X144694819Y-102192508D01*
X144759742Y-102127584D01*
X144759747Y-102127579D01*
X144824934Y-102030019D01*
X144840018Y-102007444D01*
X144840018Y-102007443D01*
X144840019Y-102007442D01*
X144895312Y-101873954D01*
X144923500Y-101732243D01*
X144923500Y-101587757D01*
X144895312Y-101446046D01*
X144895310Y-101446041D01*
X144875874Y-101399117D01*
X144858739Y-101357752D01*
X146396500Y-101357752D01*
X146396500Y-101502247D01*
X146424686Y-101643946D01*
X146424688Y-101643954D01*
X146479981Y-101777443D01*
X146479981Y-101777444D01*
X146560251Y-101897577D01*
X146560257Y-101897584D01*
X146662415Y-101999742D01*
X146662422Y-101999748D01*
X146782556Y-102080018D01*
X146782557Y-102080018D01*
X146782558Y-102080019D01*
X146916046Y-102135312D01*
X147057752Y-102163499D01*
X147057756Y-102163500D01*
X147057757Y-102163500D01*
X147202244Y-102163500D01*
X147202245Y-102163499D01*
X147343954Y-102135312D01*
X147477442Y-102080019D01*
X147477443Y-102080018D01*
X147477444Y-102080018D01*
X147572639Y-102016411D01*
X147597579Y-101999747D01*
X147597592Y-101999733D01*
X147598141Y-101999284D01*
X147598501Y-101999130D01*
X147602644Y-101996363D01*
X147603168Y-101997148D01*
X147662449Y-101971967D01*
X147731318Y-101983753D01*
X147745695Y-101992024D01*
X147802558Y-102030019D01*
X147936046Y-102085312D01*
X148077752Y-102113499D01*
X148077756Y-102113500D01*
X148077757Y-102113500D01*
X148222244Y-102113500D01*
X148222245Y-102113499D01*
X148363954Y-102085312D01*
X148497442Y-102030019D01*
X148497443Y-102030018D01*
X148497444Y-102030018D01*
X148603711Y-101959013D01*
X148617579Y-101949747D01*
X148719747Y-101847579D01*
X148766610Y-101777443D01*
X148800018Y-101727444D01*
X148800018Y-101727443D01*
X148800019Y-101727442D01*
X148855312Y-101593954D01*
X148883500Y-101452243D01*
X148883500Y-101307757D01*
X148883500Y-101307754D01*
X148882903Y-101301692D01*
X148884300Y-101301554D01*
X148889897Y-101239016D01*
X148932761Y-101183839D01*
X148952145Y-101173029D01*
X148952071Y-101172889D01*
X148957428Y-101170024D01*
X148957442Y-101170019D01*
X149058115Y-101102752D01*
X150466500Y-101102752D01*
X150466500Y-101247247D01*
X150494686Y-101388946D01*
X150494688Y-101388954D01*
X150549981Y-101522443D01*
X150549981Y-101522444D01*
X150630251Y-101642577D01*
X150630257Y-101642584D01*
X150732415Y-101744742D01*
X150732422Y-101744748D01*
X150852556Y-101825018D01*
X150852557Y-101825018D01*
X150852558Y-101825019D01*
X150986046Y-101880312D01*
X151127752Y-101908499D01*
X151127756Y-101908500D01*
X151127757Y-101908500D01*
X151272244Y-101908500D01*
X151272245Y-101908499D01*
X151413954Y-101880312D01*
X151547442Y-101825019D01*
X151547443Y-101825018D01*
X151547444Y-101825018D01*
X151618647Y-101777442D01*
X151667579Y-101744747D01*
X151769747Y-101642579D01*
X151850019Y-101522442D01*
X151905312Y-101388954D01*
X151918828Y-101320999D01*
X151951212Y-101259091D01*
X151963229Y-101249053D01*
X151962868Y-101248613D01*
X151967571Y-101244751D01*
X151967579Y-101244747D01*
X152069747Y-101142579D01*
X152109883Y-101082510D01*
X152150018Y-101022444D01*
X152150018Y-101022443D01*
X152150019Y-101022442D01*
X152205312Y-100888954D01*
X152233500Y-100747243D01*
X152233500Y-100602757D01*
X152205312Y-100461046D01*
X152150019Y-100327558D01*
X152150018Y-100327556D01*
X152150018Y-100327555D01*
X152120349Y-100283152D01*
X156924300Y-100283152D01*
X156924300Y-100427647D01*
X156952486Y-100569346D01*
X156952488Y-100569354D01*
X157007781Y-100702843D01*
X157007781Y-100702844D01*
X157088051Y-100822977D01*
X157088057Y-100822984D01*
X157190215Y-100925142D01*
X157190222Y-100925148D01*
X157310356Y-101005418D01*
X157310357Y-101005418D01*
X157310358Y-101005419D01*
X157443846Y-101060712D01*
X157553674Y-101082558D01*
X157585552Y-101088899D01*
X157585556Y-101088900D01*
X157585557Y-101088900D01*
X157730044Y-101088900D01*
X157730045Y-101088899D01*
X157871754Y-101060712D01*
X158005242Y-101005419D01*
X158005243Y-101005418D01*
X158005244Y-101005418D01*
X158123354Y-100926500D01*
X158125379Y-100925147D01*
X158227547Y-100822979D01*
X158278152Y-100747243D01*
X158307818Y-100702844D01*
X158307818Y-100702843D01*
X158307819Y-100702842D01*
X158363112Y-100569354D01*
X158391300Y-100427643D01*
X158391300Y-100283157D01*
X158363112Y-100141446D01*
X158307819Y-100007958D01*
X158307818Y-100007956D01*
X158307818Y-100007955D01*
X158227548Y-99887822D01*
X158227542Y-99887815D01*
X158125384Y-99785657D01*
X158125377Y-99785651D01*
X158005243Y-99705381D01*
X157871754Y-99650088D01*
X157871746Y-99650086D01*
X157730047Y-99621900D01*
X157730043Y-99621900D01*
X157585557Y-99621900D01*
X157585552Y-99621900D01*
X157443853Y-99650086D01*
X157443845Y-99650088D01*
X157310356Y-99705381D01*
X157310355Y-99705381D01*
X157190222Y-99785651D01*
X157190215Y-99785657D01*
X157088057Y-99887815D01*
X157088051Y-99887822D01*
X157007781Y-100007955D01*
X157007781Y-100007956D01*
X156952488Y-100141445D01*
X156952486Y-100141453D01*
X156924300Y-100283152D01*
X152120349Y-100283152D01*
X152069748Y-100207422D01*
X152069742Y-100207415D01*
X151967584Y-100105257D01*
X151967577Y-100105251D01*
X151849899Y-100026622D01*
X151805093Y-99973010D01*
X151796386Y-99903685D01*
X151826540Y-99840658D01*
X151849894Y-99820421D01*
X151901155Y-99786171D01*
X152003323Y-99684003D01*
X152059284Y-99600251D01*
X152083594Y-99563868D01*
X152083594Y-99563867D01*
X152083595Y-99563866D01*
X152138888Y-99430378D01*
X152167076Y-99288667D01*
X152167076Y-99144181D01*
X152138888Y-99002470D01*
X152083595Y-98868982D01*
X152083594Y-98868980D01*
X152083594Y-98868979D01*
X152003324Y-98748846D01*
X152003318Y-98748839D01*
X151901160Y-98646681D01*
X151901153Y-98646675D01*
X151781019Y-98566405D01*
X151647530Y-98511112D01*
X151647522Y-98511110D01*
X151505823Y-98482924D01*
X151505819Y-98482924D01*
X151361333Y-98482924D01*
X151361328Y-98482924D01*
X151219629Y-98511110D01*
X151219621Y-98511112D01*
X151086132Y-98566405D01*
X151086131Y-98566405D01*
X150965998Y-98646675D01*
X150965991Y-98646681D01*
X150863833Y-98748839D01*
X150863827Y-98748846D01*
X150783557Y-98868979D01*
X150783557Y-98868980D01*
X150728264Y-99002469D01*
X150728262Y-99002477D01*
X150700076Y-99144176D01*
X150700076Y-99288671D01*
X150728262Y-99430370D01*
X150728264Y-99430378D01*
X150783557Y-99563867D01*
X150783557Y-99563868D01*
X150863827Y-99684001D01*
X150863833Y-99684008D01*
X150965992Y-99786167D01*
X150965995Y-99786169D01*
X150965997Y-99786171D01*
X151083677Y-99864801D01*
X151128482Y-99918412D01*
X151137189Y-99987737D01*
X151107035Y-100050765D01*
X151083677Y-100071005D01*
X151032418Y-100105254D01*
X150930257Y-100207415D01*
X150930251Y-100207422D01*
X150849981Y-100327555D01*
X150849981Y-100327556D01*
X150794688Y-100461045D01*
X150794686Y-100461051D01*
X150781170Y-100529000D01*
X150748784Y-100590911D01*
X150736767Y-100600961D01*
X150737123Y-100601395D01*
X150732414Y-100605259D01*
X150630257Y-100707415D01*
X150630251Y-100707422D01*
X150549981Y-100827555D01*
X150549981Y-100827556D01*
X150494688Y-100961045D01*
X150494686Y-100961053D01*
X150466500Y-101102752D01*
X149058115Y-101102752D01*
X149077579Y-101089747D01*
X149106615Y-101060711D01*
X149158343Y-101008984D01*
X149179742Y-100987584D01*
X149179747Y-100987579D01*
X149221466Y-100925142D01*
X149260018Y-100867444D01*
X149260018Y-100867443D01*
X149260019Y-100867442D01*
X149315312Y-100733954D01*
X149343500Y-100592243D01*
X149343500Y-100447757D01*
X149315312Y-100306046D01*
X149260019Y-100172558D01*
X149260018Y-100172556D01*
X149260018Y-100172555D01*
X149179748Y-100052422D01*
X149179742Y-100052415D01*
X149077584Y-99950257D01*
X149077577Y-99950251D01*
X148957444Y-99869981D01*
X148957436Y-99869977D01*
X148947041Y-99865671D01*
X148892640Y-99821827D01*
X148870579Y-99755532D01*
X148870500Y-99751113D01*
X148870500Y-99622756D01*
X148870499Y-99622752D01*
X148858786Y-99563866D01*
X148842312Y-99481046D01*
X148787019Y-99347558D01*
X148787018Y-99347556D01*
X148787018Y-99347555D01*
X148706748Y-99227422D01*
X148706742Y-99227415D01*
X148604584Y-99125257D01*
X148604577Y-99125251D01*
X148484443Y-99044981D01*
X148350954Y-98989688D01*
X148350946Y-98989686D01*
X148209247Y-98961500D01*
X148209243Y-98961500D01*
X148064757Y-98961500D01*
X148064752Y-98961500D01*
X147923053Y-98989686D01*
X147923045Y-98989688D01*
X147789556Y-99044981D01*
X147789555Y-99044981D01*
X147669422Y-99125251D01*
X147669415Y-99125257D01*
X147567257Y-99227415D01*
X147567251Y-99227422D01*
X147486981Y-99347555D01*
X147486981Y-99347556D01*
X147431688Y-99481045D01*
X147431686Y-99481053D01*
X147403500Y-99622752D01*
X147403500Y-99767247D01*
X147431686Y-99908946D01*
X147431688Y-99908954D01*
X147486981Y-100042443D01*
X147486981Y-100042444D01*
X147567251Y-100162577D01*
X147567257Y-100162584D01*
X147669415Y-100264742D01*
X147669422Y-100264748D01*
X147789555Y-100345018D01*
X147789557Y-100345019D01*
X147795564Y-100347507D01*
X147799947Y-100349322D01*
X147814829Y-100361313D01*
X147832327Y-100368998D01*
X147841471Y-100382780D01*
X147854353Y-100393160D01*
X147860389Y-100411293D01*
X147870955Y-100427218D01*
X147875337Y-100456198D01*
X147876421Y-100459453D01*
X147876487Y-100462076D01*
X147876500Y-100462967D01*
X147876500Y-100592243D01*
X147878535Y-100602474D01*
X147878700Y-100613773D01*
X147872250Y-100636984D01*
X147870103Y-100660983D01*
X147863065Y-100670042D01*
X147859995Y-100681093D01*
X147842019Y-100697133D01*
X147827239Y-100716160D01*
X147809795Y-100725889D01*
X147807864Y-100727613D01*
X147806617Y-100727810D01*
X147802555Y-100729982D01*
X147682420Y-100810252D01*
X147681838Y-100810731D01*
X147681473Y-100810885D01*
X147677356Y-100813637D01*
X147676833Y-100812855D01*
X147617524Y-100838035D01*
X147548658Y-100826235D01*
X147534300Y-100817972D01*
X147482709Y-100783500D01*
X147477441Y-100779980D01*
X147343954Y-100724688D01*
X147343946Y-100724686D01*
X147202247Y-100696500D01*
X147202243Y-100696500D01*
X147057757Y-100696500D01*
X147057752Y-100696500D01*
X146916053Y-100724686D01*
X146916045Y-100724688D01*
X146782556Y-100779981D01*
X146782555Y-100779981D01*
X146662422Y-100860251D01*
X146662415Y-100860257D01*
X146560257Y-100962415D01*
X146560251Y-100962422D01*
X146479981Y-101082555D01*
X146479981Y-101082556D01*
X146424688Y-101216045D01*
X146424686Y-101216053D01*
X146396500Y-101357752D01*
X144858739Y-101357752D01*
X144840018Y-101312556D01*
X144840018Y-101312555D01*
X144759748Y-101192422D01*
X144759742Y-101192415D01*
X144657584Y-101090257D01*
X144657577Y-101090251D01*
X144537443Y-101009981D01*
X144403954Y-100954688D01*
X144403946Y-100954686D01*
X144262247Y-100926500D01*
X144262243Y-100926500D01*
X144248888Y-100926500D01*
X144181849Y-100906815D01*
X144145786Y-100871391D01*
X144119745Y-100832418D01*
X144017584Y-100730257D01*
X144017577Y-100730251D01*
X143897443Y-100649981D01*
X143763954Y-100594688D01*
X143763948Y-100594686D01*
X143658308Y-100573673D01*
X143596397Y-100541288D01*
X143561823Y-100480572D01*
X143558500Y-100452056D01*
X143558500Y-98607680D01*
X143558499Y-98607679D01*
X143548603Y-98557924D01*
X143532234Y-98475631D01*
X143502051Y-98402765D01*
X143480710Y-98351241D01*
X143405909Y-98239294D01*
X143310706Y-98144091D01*
X143214057Y-98047442D01*
X143110709Y-97944093D01*
X143110708Y-97944092D01*
X143092639Y-97932019D01*
X143078306Y-97922442D01*
X143045511Y-97900529D01*
X143026726Y-97885111D01*
X142577605Y-97435990D01*
X142544120Y-97374667D01*
X142549104Y-97304975D01*
X142577603Y-97260630D01*
X142896263Y-96941971D01*
X142957586Y-96908486D01*
X143027278Y-96913470D01*
X143052835Y-96926550D01*
X143153357Y-96993717D01*
X143153366Y-96993722D01*
X143194942Y-97010943D01*
X143336899Y-97069744D01*
X143526516Y-97107461D01*
X143531734Y-97108499D01*
X143531738Y-97108500D01*
X143531739Y-97108500D01*
X145097844Y-97108500D01*
X145097845Y-97108499D01*
X145292683Y-97069744D01*
X145396023Y-97026938D01*
X145404200Y-97025312D01*
X145408541Y-97022523D01*
X145443476Y-97017500D01*
X145556524Y-97017500D01*
X145603976Y-97026938D01*
X145707317Y-97069744D01*
X145896934Y-97107461D01*
X145902152Y-97108499D01*
X145902156Y-97108500D01*
X145902157Y-97108500D01*
X147538717Y-97108500D01*
X147605756Y-97128185D01*
X147651511Y-97180989D01*
X147661455Y-97250147D01*
X147653278Y-97279953D01*
X147619688Y-97361045D01*
X147619686Y-97361053D01*
X147591500Y-97502752D01*
X147591500Y-97647247D01*
X147619686Y-97788946D01*
X147619688Y-97788954D01*
X147674981Y-97922442D01*
X147674981Y-97922443D01*
X147755251Y-98042577D01*
X147755257Y-98042584D01*
X147857415Y-98144742D01*
X147857422Y-98144748D01*
X147977556Y-98225018D01*
X147977557Y-98225018D01*
X147977558Y-98225019D01*
X148111046Y-98280312D01*
X148252752Y-98308499D01*
X148252756Y-98308500D01*
X148252757Y-98308500D01*
X148397244Y-98308500D01*
X148397245Y-98308499D01*
X148538954Y-98280312D01*
X148672442Y-98225019D01*
X148672443Y-98225018D01*
X148672444Y-98225018D01*
X148732510Y-98184883D01*
X148792579Y-98144747D01*
X148894747Y-98042579D01*
X148921625Y-98002352D01*
X148975019Y-97922443D01*
X148975019Y-97922442D01*
X148984094Y-97900532D01*
X149030312Y-97788954D01*
X149058500Y-97647243D01*
X149058500Y-97627752D01*
X154766500Y-97627752D01*
X154766500Y-97772247D01*
X154794686Y-97913946D01*
X154794688Y-97913954D01*
X154849981Y-98047443D01*
X154849981Y-98047444D01*
X154930251Y-98167577D01*
X154930257Y-98167584D01*
X155032415Y-98269742D01*
X155032422Y-98269748D01*
X155152556Y-98350018D01*
X155152557Y-98350018D01*
X155152558Y-98350019D01*
X155286046Y-98405312D01*
X155427752Y-98433499D01*
X155427756Y-98433500D01*
X155427757Y-98433500D01*
X155572244Y-98433500D01*
X155572245Y-98433499D01*
X155713954Y-98405312D01*
X155847442Y-98350019D01*
X155847443Y-98350018D01*
X155847444Y-98350018D01*
X155909582Y-98308499D01*
X155967579Y-98269747D01*
X156069747Y-98167579D01*
X156150019Y-98047442D01*
X156205312Y-97913954D01*
X156233500Y-97772243D01*
X156233500Y-97627757D01*
X156211211Y-97515700D01*
X156207985Y-97499483D01*
X156214212Y-97429892D01*
X156257075Y-97374714D01*
X156322965Y-97351470D01*
X156390962Y-97367538D01*
X156398483Y-97372183D01*
X156477558Y-97425019D01*
X156611046Y-97480312D01*
X156723860Y-97502752D01*
X156752752Y-97508499D01*
X156752756Y-97508500D01*
X156752757Y-97508500D01*
X156897244Y-97508500D01*
X156897245Y-97508499D01*
X157038954Y-97480312D01*
X157172442Y-97425019D01*
X157172443Y-97425018D01*
X157172444Y-97425018D01*
X157247800Y-97374667D01*
X157292579Y-97344747D01*
X157394747Y-97242579D01*
X157435900Y-97180989D01*
X157475018Y-97122444D01*
X157475018Y-97122443D01*
X157475019Y-97122442D01*
X157530312Y-96988954D01*
X157558500Y-96847243D01*
X157558500Y-96702757D01*
X157530312Y-96561046D01*
X157475019Y-96427558D01*
X157475018Y-96427556D01*
X157475018Y-96427555D01*
X157394748Y-96307422D01*
X157394742Y-96307415D01*
X157292584Y-96205257D01*
X157292577Y-96205251D01*
X157172443Y-96124981D01*
X157038954Y-96069688D01*
X157038946Y-96069686D01*
X156897247Y-96041500D01*
X156897243Y-96041500D01*
X156752757Y-96041500D01*
X156752752Y-96041500D01*
X156611053Y-96069686D01*
X156611045Y-96069688D01*
X156477556Y-96124981D01*
X156477555Y-96124981D01*
X156357422Y-96205251D01*
X156357415Y-96205257D01*
X156255257Y-96307415D01*
X156255251Y-96307422D01*
X156174981Y-96427555D01*
X156174981Y-96427556D01*
X156119688Y-96561045D01*
X156119686Y-96561053D01*
X156091500Y-96702752D01*
X156091500Y-96847247D01*
X156117014Y-96975516D01*
X156110787Y-97045108D01*
X156067923Y-97100285D01*
X156002033Y-97123529D01*
X155934037Y-97107461D01*
X155926507Y-97102810D01*
X155877021Y-97069745D01*
X155847442Y-97049981D01*
X155713954Y-96994688D01*
X155713946Y-96994686D01*
X155572247Y-96966500D01*
X155572243Y-96966500D01*
X155427757Y-96966500D01*
X155427752Y-96966500D01*
X155286053Y-96994686D01*
X155286045Y-96994688D01*
X155152556Y-97049981D01*
X155152555Y-97049981D01*
X155032422Y-97130251D01*
X155032415Y-97130257D01*
X154930257Y-97232415D01*
X154930251Y-97232422D01*
X154849981Y-97352555D01*
X154849981Y-97352556D01*
X154794688Y-97486045D01*
X154794686Y-97486053D01*
X154766500Y-97627752D01*
X149058500Y-97627752D01*
X149058500Y-97544713D01*
X149078185Y-97477674D01*
X149130989Y-97431919D01*
X149135001Y-97430172D01*
X149147442Y-97425019D01*
X149267579Y-97344747D01*
X149369747Y-97242579D01*
X149410900Y-97180989D01*
X149450018Y-97122444D01*
X149450018Y-97122443D01*
X149450019Y-97122442D01*
X149505312Y-96988954D01*
X149533500Y-96847243D01*
X149533500Y-96777952D01*
X152225300Y-96777952D01*
X152225300Y-96922447D01*
X152253486Y-97064146D01*
X152253488Y-97064154D01*
X152308781Y-97197643D01*
X152308781Y-97197644D01*
X152389051Y-97317777D01*
X152389057Y-97317784D01*
X152491215Y-97419942D01*
X152491222Y-97419948D01*
X152611356Y-97500218D01*
X152611357Y-97500218D01*
X152611358Y-97500219D01*
X152744846Y-97555512D01*
X152886552Y-97583699D01*
X152886556Y-97583700D01*
X152886557Y-97583700D01*
X153031044Y-97583700D01*
X153031045Y-97583699D01*
X153172754Y-97555512D01*
X153268870Y-97515699D01*
X153289621Y-97507104D01*
X153295239Y-97504776D01*
X153306242Y-97500219D01*
X153306243Y-97500218D01*
X153306244Y-97500218D01*
X153390168Y-97444142D01*
X153426379Y-97419947D01*
X153528547Y-97317779D01*
X153578790Y-97242584D01*
X153608818Y-97197644D01*
X153608818Y-97197643D01*
X153608819Y-97197642D01*
X153664112Y-97064154D01*
X153692300Y-96922443D01*
X153692300Y-96777957D01*
X153664112Y-96636246D01*
X153608819Y-96502758D01*
X153608818Y-96502756D01*
X153608818Y-96502755D01*
X153528548Y-96382622D01*
X153528542Y-96382615D01*
X153426384Y-96280457D01*
X153426377Y-96280451D01*
X153306243Y-96200181D01*
X153172754Y-96144888D01*
X153172746Y-96144886D01*
X153031047Y-96116700D01*
X153031043Y-96116700D01*
X152886557Y-96116700D01*
X152886552Y-96116700D01*
X152744853Y-96144886D01*
X152744845Y-96144888D01*
X152611356Y-96200181D01*
X152611355Y-96200181D01*
X152491222Y-96280451D01*
X152491215Y-96280457D01*
X152389057Y-96382615D01*
X152389051Y-96382622D01*
X152308781Y-96502755D01*
X152308781Y-96502756D01*
X152253488Y-96636245D01*
X152253486Y-96636253D01*
X152225300Y-96777952D01*
X149533500Y-96777952D01*
X149533500Y-96702757D01*
X149505312Y-96561046D01*
X149450019Y-96427558D01*
X149450017Y-96427555D01*
X149415896Y-96376488D01*
X149406409Y-96346191D01*
X149395312Y-96316420D01*
X149396040Y-96313075D01*
X149395018Y-96309811D01*
X149403417Y-96279192D01*
X149410177Y-96248150D01*
X149412949Y-96244447D01*
X149413503Y-96242431D01*
X149431331Y-96219903D01*
X149433010Y-96218224D01*
X149436434Y-96214802D01*
X149497764Y-96181329D01*
X149524098Y-96178500D01*
X149574328Y-96178500D01*
X149574329Y-96178499D01*
X149769167Y-96139744D01*
X149952702Y-96063721D01*
X150117879Y-95953353D01*
X150258351Y-95812881D01*
X150368719Y-95647704D01*
X150444742Y-95464169D01*
X150483498Y-95269329D01*
X150483498Y-95169014D01*
X150503183Y-95101975D01*
X150555987Y-95056220D01*
X150625145Y-95046276D01*
X150678076Y-95067060D01*
X150798839Y-95150662D01*
X150798856Y-95150672D01*
X150798865Y-95150678D01*
X150812399Y-95158779D01*
X150857082Y-95185526D01*
X151185844Y-95353867D01*
X151248177Y-95380744D01*
X151248194Y-95380750D01*
X151248204Y-95380754D01*
X151596263Y-95504247D01*
X151596264Y-95504247D01*
X151596272Y-95504250D01*
X151695043Y-95528602D01*
X151902980Y-95558437D01*
X151966542Y-95587444D01*
X151992753Y-95619179D01*
X152050049Y-95718418D01*
X152154182Y-95822551D01*
X152243826Y-95874307D01*
X152281714Y-95896182D01*
X152281715Y-95896182D01*
X152281718Y-95896184D01*
X152423967Y-95934300D01*
X152423970Y-95934300D01*
X152571230Y-95934300D01*
X152571233Y-95934300D01*
X152713482Y-95896184D01*
X152841018Y-95822551D01*
X152945151Y-95718418D01*
X152989977Y-95640775D01*
X153040542Y-95592560D01*
X153072357Y-95581323D01*
X153332795Y-95527715D01*
X153398916Y-95509426D01*
X153748212Y-95387160D01*
X153811307Y-95360219D01*
X154141187Y-95192481D01*
X154200127Y-95157370D01*
X154371968Y-95038765D01*
X154438322Y-95016886D01*
X154455274Y-95017489D01*
X154465028Y-95018507D01*
X154523967Y-95034300D01*
X154616357Y-95034300D01*
X154622777Y-95034970D01*
X154649366Y-95045887D01*
X154676945Y-95053985D01*
X154681282Y-95058990D01*
X154687411Y-95061507D01*
X154703879Y-95085068D01*
X154722700Y-95106789D01*
X154724467Y-95110847D01*
X154749981Y-95172443D01*
X154749981Y-95172444D01*
X154830251Y-95292577D01*
X154830257Y-95292584D01*
X154932415Y-95394742D01*
X154932422Y-95394748D01*
X155052556Y-95475018D01*
X155052557Y-95475018D01*
X155052558Y-95475019D01*
X155186046Y-95530312D01*
X155327440Y-95558437D01*
X155327752Y-95558499D01*
X155327756Y-95558500D01*
X155327757Y-95558500D01*
X155472244Y-95558500D01*
X155472245Y-95558499D01*
X155613954Y-95530312D01*
X155747442Y-95475019D01*
X155747443Y-95475018D01*
X155747444Y-95475018D01*
X155811289Y-95432358D01*
X155867579Y-95394747D01*
X155969747Y-95292579D01*
X156050019Y-95172442D01*
X156105312Y-95038954D01*
X156133500Y-94897243D01*
X156133500Y-94752757D01*
X156105312Y-94611046D01*
X156050019Y-94477558D01*
X156050018Y-94477556D01*
X156050018Y-94477555D01*
X155969748Y-94357422D01*
X155969742Y-94357415D01*
X155867584Y-94255257D01*
X155867577Y-94255251D01*
X155747443Y-94174981D01*
X155662892Y-94139959D01*
X155608489Y-94096118D01*
X155586424Y-94029824D01*
X155603703Y-93962124D01*
X155654841Y-93914514D01*
X155678246Y-93905625D01*
X155713482Y-93896184D01*
X155841018Y-93822551D01*
X155945151Y-93718418D01*
X156018784Y-93590882D01*
X156056900Y-93448633D01*
X156056900Y-93301367D01*
X156018784Y-93159118D01*
X156015461Y-93153363D01*
X155979643Y-93091324D01*
X155945151Y-93031582D01*
X155841018Y-92927449D01*
X155841017Y-92927448D01*
X155841014Y-92927446D01*
X155800156Y-92903857D01*
X155751940Y-92853290D01*
X155738518Y-92787002D01*
X155739252Y-92777410D01*
X155747422Y-92742727D01*
X155755873Y-92698079D01*
X155755873Y-92560376D01*
X155756235Y-92555649D01*
X155766998Y-92527229D01*
X155775558Y-92498078D01*
X155779249Y-92494878D01*
X155780981Y-92490308D01*
X155805404Y-92472215D01*
X155828362Y-92452323D01*
X155833878Y-92451122D01*
X155837124Y-92448719D01*
X155848362Y-92447971D01*
X155879873Y-92441117D01*
X158492027Y-92441117D01*
X158506811Y-92442001D01*
X158666652Y-92461197D01*
X158689667Y-92466214D01*
X158803822Y-92502752D01*
X158838974Y-92514003D01*
X158860624Y-92523281D01*
X158998200Y-92598443D01*
X159017703Y-92611647D01*
X159060807Y-92647243D01*
X159138583Y-92711470D01*
X159155240Y-92728128D01*
X159255060Y-92849009D01*
X159268265Y-92868513D01*
X159343427Y-93006094D01*
X159352701Y-93027735D01*
X159369512Y-93080257D01*
X159400489Y-93177045D01*
X159405506Y-93200061D01*
X159420726Y-93326820D01*
X159424666Y-93359640D01*
X159424716Y-93360052D01*
X159425600Y-93374834D01*
X159425600Y-109755244D01*
X159424451Y-109772087D01*
X159411557Y-109866136D01*
X159405076Y-109892120D01*
X159373948Y-109976702D01*
X159362039Y-110000687D01*
X159313481Y-110076608D01*
X159296700Y-110097479D01*
X159232967Y-110161210D01*
X159212096Y-110177990D01*
X159136172Y-110226547D01*
X159112186Y-110238455D01*
X159027606Y-110269579D01*
X159001620Y-110276060D01*
X158905454Y-110289240D01*
X158892092Y-110290339D01*
X158864231Y-110291119D01*
X158854360Y-110293187D01*
X158833681Y-110294657D01*
X158713985Y-110329282D01*
X158713982Y-110329283D01*
X158666044Y-110355062D01*
X158604236Y-110388299D01*
X158604234Y-110388300D01*
X158604233Y-110388301D01*
X158509346Y-110469069D01*
X158433560Y-110567981D01*
X158433558Y-110567985D01*
X158380260Y-110680615D01*
X158351832Y-110801926D01*
X158351831Y-110801939D01*
X158351209Y-110833758D01*
X158350893Y-110849890D01*
X158350600Y-110850599D01*
X158350600Y-110864936D01*
X158350176Y-110888007D01*
X158349884Y-110903882D01*
X158350600Y-110908682D01*
X158350600Y-111057838D01*
X158330915Y-111124877D01*
X158278111Y-111170632D01*
X158208953Y-111180576D01*
X158157710Y-111160941D01*
X158151829Y-111157011D01*
X158081442Y-111109981D01*
X158063521Y-111102558D01*
X157947954Y-111054688D01*
X157947946Y-111054686D01*
X157806247Y-111026500D01*
X157806243Y-111026500D01*
X157703077Y-111026500D01*
X157636038Y-111006815D01*
X157590283Y-110954011D01*
X157579077Y-110902500D01*
X157579077Y-110833762D01*
X157579076Y-110833758D01*
X157576786Y-110822244D01*
X157550889Y-110692052D01*
X157495596Y-110558564D01*
X157495595Y-110558562D01*
X157495595Y-110558561D01*
X157415325Y-110438428D01*
X157415319Y-110438421D01*
X157313161Y-110336263D01*
X157313154Y-110336257D01*
X157193020Y-110255987D01*
X157059531Y-110200694D01*
X157059523Y-110200692D01*
X156917824Y-110172506D01*
X156917820Y-110172506D01*
X156773334Y-110172506D01*
X156773329Y-110172506D01*
X156631630Y-110200692D01*
X156631622Y-110200694D01*
X156498133Y-110255987D01*
X156498132Y-110255987D01*
X156377999Y-110336257D01*
X156377992Y-110336263D01*
X156275834Y-110438421D01*
X156275828Y-110438428D01*
X156195558Y-110558561D01*
X156195558Y-110558562D01*
X156140265Y-110692051D01*
X156140263Y-110692059D01*
X156112077Y-110833758D01*
X156112077Y-110978249D01*
X156121249Y-111024365D01*
X156115020Y-111093957D01*
X156102738Y-111117437D01*
X156097587Y-111125146D01*
X156097580Y-111125159D01*
X156042288Y-111258645D01*
X156042286Y-111258653D01*
X156014100Y-111400352D01*
X156014100Y-111544847D01*
X156042286Y-111686546D01*
X156042288Y-111686554D01*
X156097581Y-111820043D01*
X156097581Y-111820044D01*
X156177851Y-111940177D01*
X156177857Y-111940184D01*
X156280015Y-112042342D01*
X156280022Y-112042348D01*
X156400156Y-112122618D01*
X156400157Y-112122618D01*
X156400158Y-112122619D01*
X156533646Y-112177912D01*
X156675352Y-112206099D01*
X156675356Y-112206100D01*
X156675357Y-112206100D01*
X156819844Y-112206100D01*
X156819845Y-112206099D01*
X156961554Y-112177912D01*
X157000301Y-112161861D01*
X157069770Y-112154392D01*
X157132249Y-112185666D01*
X157150856Y-112207529D01*
X157164255Y-112227582D01*
X157266415Y-112329742D01*
X157266422Y-112329748D01*
X157386556Y-112410018D01*
X157386557Y-112410018D01*
X157386558Y-112410019D01*
X157520046Y-112465312D01*
X157661752Y-112493499D01*
X157661756Y-112493500D01*
X157661757Y-112493500D01*
X157806244Y-112493500D01*
X157806245Y-112493499D01*
X157947954Y-112465312D01*
X158081442Y-112410019D01*
X158157710Y-112359058D01*
X158224387Y-112338181D01*
X158291767Y-112356666D01*
X158338457Y-112408644D01*
X158350600Y-112462161D01*
X158350600Y-114166117D01*
X158330915Y-114233156D01*
X158278111Y-114278911D01*
X158226600Y-114290117D01*
X151925600Y-114290117D01*
X151858561Y-114270432D01*
X151812806Y-114217628D01*
X151801600Y-114166117D01*
X151801600Y-111791428D01*
X151821285Y-111724389D01*
X151874089Y-111678634D01*
X151925600Y-111667428D01*
X152037106Y-111667428D01*
X152037107Y-111667427D01*
X152178816Y-111639240D01*
X152312304Y-111583947D01*
X152312305Y-111583946D01*
X152312306Y-111583946D01*
X152388099Y-111533303D01*
X152432441Y-111503675D01*
X152534609Y-111401507D01*
X152607497Y-111292421D01*
X152614880Y-111281372D01*
X152614880Y-111281371D01*
X152614881Y-111281370D01*
X152670174Y-111147882D01*
X152698362Y-111006171D01*
X152698362Y-110861685D01*
X152670174Y-110719974D01*
X152670173Y-110719971D01*
X152669289Y-110715527D01*
X152670974Y-110696689D01*
X152667617Y-110678078D01*
X152667700Y-110677752D01*
X154141500Y-110677752D01*
X154141500Y-110822247D01*
X154169686Y-110963946D01*
X154169688Y-110963954D01*
X154224981Y-111097443D01*
X154224981Y-111097444D01*
X154305251Y-111217577D01*
X154305257Y-111217584D01*
X154407415Y-111319742D01*
X154407422Y-111319748D01*
X154527556Y-111400018D01*
X154527557Y-111400018D01*
X154527558Y-111400019D01*
X154661046Y-111455312D01*
X154799117Y-111482776D01*
X154802752Y-111483499D01*
X154802756Y-111483500D01*
X154802757Y-111483500D01*
X154947244Y-111483500D01*
X154947245Y-111483499D01*
X155088954Y-111455312D01*
X155222442Y-111400019D01*
X155222443Y-111400018D01*
X155222444Y-111400018D01*
X155324673Y-111331711D01*
X155342579Y-111319747D01*
X155444747Y-111217579D01*
X155484883Y-111157510D01*
X155525018Y-111097444D01*
X155525018Y-111097443D01*
X155525019Y-111097442D01*
X155580312Y-110963954D01*
X155608500Y-110822243D01*
X155608500Y-110677757D01*
X155580312Y-110536046D01*
X155525019Y-110402558D01*
X155525018Y-110402556D01*
X155525018Y-110402555D01*
X155444748Y-110282422D01*
X155444742Y-110282415D01*
X155342584Y-110180257D01*
X155342577Y-110180251D01*
X155222443Y-110099981D01*
X155088954Y-110044688D01*
X155088946Y-110044686D01*
X154947247Y-110016500D01*
X154947243Y-110016500D01*
X154802757Y-110016500D01*
X154802752Y-110016500D01*
X154661053Y-110044686D01*
X154661045Y-110044688D01*
X154527556Y-110099981D01*
X154527555Y-110099981D01*
X154407422Y-110180251D01*
X154407415Y-110180257D01*
X154305257Y-110282415D01*
X154305251Y-110282422D01*
X154224981Y-110402555D01*
X154224981Y-110402556D01*
X154169688Y-110536045D01*
X154169686Y-110536053D01*
X154141500Y-110677752D01*
X152667700Y-110677752D01*
X152675351Y-110647777D01*
X152675516Y-110645935D01*
X152676298Y-110643997D01*
X152705312Y-110573954D01*
X152733500Y-110432243D01*
X152733500Y-110287757D01*
X152705312Y-110146046D01*
X152650019Y-110012558D01*
X152650018Y-110012556D01*
X152650018Y-110012555D01*
X152569748Y-109892422D01*
X152569742Y-109892415D01*
X152467584Y-109790257D01*
X152467577Y-109790251D01*
X152347443Y-109709981D01*
X152213954Y-109654688D01*
X152213946Y-109654686D01*
X152072247Y-109626500D01*
X152072243Y-109626500D01*
X151927757Y-109626500D01*
X151927752Y-109626500D01*
X151786053Y-109654686D01*
X151786045Y-109654688D01*
X151652556Y-109709981D01*
X151652555Y-109709981D01*
X151532422Y-109790251D01*
X151532415Y-109790257D01*
X151430257Y-109892415D01*
X151430251Y-109892422D01*
X151349981Y-110012555D01*
X151349981Y-110012556D01*
X151294688Y-110146045D01*
X151294686Y-110146053D01*
X151266500Y-110287752D01*
X151266500Y-110432246D01*
X151295572Y-110578399D01*
X151293886Y-110597232D01*
X151297245Y-110615844D01*
X151289509Y-110646154D01*
X151289345Y-110647990D01*
X151288538Y-110649987D01*
X151262201Y-110713571D01*
X151218363Y-110767972D01*
X151152069Y-110790038D01*
X151147642Y-110790117D01*
X151049987Y-110790117D01*
X150901580Y-110823991D01*
X150764442Y-110890033D01*
X150764437Y-110890036D01*
X150645427Y-110984944D01*
X150550519Y-111103954D01*
X150550516Y-111103959D01*
X150484474Y-111241097D01*
X150450600Y-111389504D01*
X150450600Y-114166117D01*
X150430915Y-114233156D01*
X150378111Y-114278911D01*
X150326600Y-114290117D01*
X138775600Y-114290117D01*
X138708561Y-114270432D01*
X138662806Y-114217628D01*
X138651600Y-114166117D01*
X138651600Y-112548289D01*
X138671285Y-112481250D01*
X138724089Y-112435495D01*
X138793247Y-112425551D01*
X138856803Y-112454576D01*
X138863281Y-112460608D01*
X138912415Y-112509742D01*
X138912422Y-112509748D01*
X139032556Y-112590018D01*
X139032557Y-112590018D01*
X139032558Y-112590019D01*
X139166046Y-112645312D01*
X139307752Y-112673499D01*
X139307756Y-112673500D01*
X139307757Y-112673500D01*
X139452244Y-112673500D01*
X139452245Y-112673499D01*
X139593954Y-112645312D01*
X139727442Y-112590019D01*
X139727443Y-112590018D01*
X139727444Y-112590018D01*
X139789896Y-112548289D01*
X139847579Y-112509747D01*
X139949747Y-112407579D01*
X140030019Y-112287442D01*
X140085312Y-112153954D01*
X140108295Y-112038409D01*
X140140679Y-111976499D01*
X140201395Y-111941925D01*
X140271164Y-111945664D01*
X140317593Y-111974920D01*
X140362415Y-112019742D01*
X140362422Y-112019748D01*
X140482556Y-112100018D01*
X140482557Y-112100018D01*
X140482558Y-112100019D01*
X140616046Y-112155312D01*
X140757752Y-112183499D01*
X140757756Y-112183500D01*
X140757757Y-112183500D01*
X140902244Y-112183500D01*
X140902245Y-112183499D01*
X141043954Y-112155312D01*
X141056645Y-112150054D01*
X141126114Y-112142583D01*
X141151554Y-112150052D01*
X141190942Y-112166368D01*
X141277066Y-112183499D01*
X141332648Y-112194555D01*
X141332652Y-112194556D01*
X141332653Y-112194556D01*
X141477140Y-112194556D01*
X141477141Y-112194555D01*
X141618850Y-112166368D01*
X141752338Y-112111075D01*
X141752339Y-112111074D01*
X141752340Y-112111074D01*
X141858682Y-112040019D01*
X141872475Y-112030803D01*
X141974643Y-111928635D01*
X142032452Y-111842117D01*
X142054914Y-111808500D01*
X142054914Y-111808499D01*
X142054915Y-111808498D01*
X142110208Y-111675010D01*
X142138396Y-111533299D01*
X142138396Y-111388813D01*
X142110208Y-111247102D01*
X142054915Y-111113614D01*
X142054914Y-111113612D01*
X142054914Y-111113611D01*
X141974644Y-110993478D01*
X141974638Y-110993471D01*
X141872480Y-110891313D01*
X141872473Y-110891307D01*
X141752339Y-110811037D01*
X141618850Y-110755744D01*
X141618842Y-110755742D01*
X141477143Y-110727556D01*
X141477139Y-110727556D01*
X141332653Y-110727556D01*
X141332648Y-110727556D01*
X141190949Y-110755741D01*
X141190937Y-110755745D01*
X141178241Y-110761004D01*
X141108771Y-110768470D01*
X141083343Y-110761003D01*
X141061660Y-110752022D01*
X141043954Y-110744688D01*
X141043950Y-110744687D01*
X141043946Y-110744686D01*
X140902247Y-110716500D01*
X140902243Y-110716500D01*
X140757757Y-110716500D01*
X140757752Y-110716500D01*
X140616053Y-110744686D01*
X140616045Y-110744688D01*
X140482556Y-110799981D01*
X140482555Y-110799981D01*
X140362422Y-110880251D01*
X140362415Y-110880257D01*
X140260257Y-110982415D01*
X140260251Y-110982422D01*
X140179981Y-111102555D01*
X140179981Y-111102556D01*
X140124688Y-111236045D01*
X140124686Y-111236051D01*
X140101704Y-111351590D01*
X140069319Y-111413501D01*
X140008603Y-111448075D01*
X139938834Y-111444335D01*
X139892406Y-111415079D01*
X139847584Y-111370257D01*
X139847577Y-111370251D01*
X139727443Y-111289981D01*
X139593954Y-111234688D01*
X139593946Y-111234686D01*
X139452247Y-111206500D01*
X139452243Y-111206500D01*
X139374244Y-111206500D01*
X139307205Y-111186815D01*
X139261450Y-111134011D01*
X139251506Y-111064853D01*
X139280531Y-111001297D01*
X139326791Y-110967939D01*
X139329752Y-110966712D01*
X139329754Y-110966712D01*
X139463242Y-110911419D01*
X139463243Y-110911418D01*
X139463244Y-110911418D01*
X139530900Y-110866212D01*
X139583379Y-110831147D01*
X139685547Y-110728979D01*
X139738290Y-110650042D01*
X139765818Y-110608844D01*
X139765818Y-110608843D01*
X139765819Y-110608842D01*
X139821112Y-110475354D01*
X139849300Y-110333643D01*
X139849300Y-110189157D01*
X139821112Y-110047446D01*
X139765819Y-109913958D01*
X139765818Y-109913956D01*
X139765818Y-109913955D01*
X139685548Y-109793822D01*
X139685542Y-109793815D01*
X139583384Y-109691657D01*
X139583377Y-109691651D01*
X139463243Y-109611381D01*
X139329754Y-109556088D01*
X139329746Y-109556086D01*
X139188047Y-109527900D01*
X139188043Y-109527900D01*
X139043557Y-109527900D01*
X139043552Y-109527900D01*
X138901853Y-109556086D01*
X138901845Y-109556088D01*
X138768356Y-109611381D01*
X138768355Y-109611381D01*
X138648222Y-109691651D01*
X138648215Y-109691657D01*
X138546057Y-109793815D01*
X138546051Y-109793822D01*
X138465781Y-109913955D01*
X138465781Y-109913956D01*
X138410488Y-110047445D01*
X138410486Y-110047453D01*
X138382300Y-110189152D01*
X138382300Y-110192440D01*
X138381813Y-110194097D01*
X138381703Y-110195218D01*
X138381490Y-110195197D01*
X138376296Y-110212884D01*
X138375072Y-110234156D01*
X138366649Y-110245738D01*
X138362615Y-110259479D01*
X138346513Y-110273431D01*
X138333982Y-110290665D01*
X138320633Y-110295855D01*
X138309811Y-110305234D01*
X138288721Y-110308266D01*
X138268863Y-110315989D01*
X138249056Y-110313969D01*
X138240653Y-110315178D01*
X138233627Y-110313961D01*
X138228262Y-110312871D01*
X138168964Y-110295272D01*
X138123971Y-110291696D01*
X138117180Y-110290318D01*
X138115613Y-110290017D01*
X138109201Y-110290061D01*
X138098526Y-110289673D01*
X138090918Y-110289067D01*
X138082643Y-110288408D01*
X138082642Y-110288408D01*
X138079176Y-110288132D01*
X138060569Y-110290388D01*
X133768913Y-110319314D01*
X133701742Y-110300082D01*
X133655632Y-110247588D01*
X133645223Y-110178498D01*
X133673819Y-110114748D01*
X133720621Y-110080758D01*
X133875754Y-110016500D01*
X133880329Y-110014605D01*
X133880329Y-110014604D01*
X133880336Y-110014602D01*
X134029135Y-109915178D01*
X134155678Y-109788635D01*
X134255102Y-109639836D01*
X134323587Y-109474500D01*
X134358500Y-109298979D01*
X134358500Y-109120021D01*
X134323587Y-108944500D01*
X134255102Y-108779164D01*
X134255100Y-108779161D01*
X134255098Y-108779157D01*
X134155678Y-108630365D01*
X134155675Y-108630361D01*
X134029138Y-108503824D01*
X134029134Y-108503821D01*
X133880342Y-108404401D01*
X133880332Y-108404396D01*
X133715000Y-108335913D01*
X133714992Y-108335911D01*
X133539483Y-108301000D01*
X133539479Y-108301000D01*
X133360521Y-108301000D01*
X133360516Y-108301000D01*
X133185007Y-108335911D01*
X133184999Y-108335913D01*
X133019667Y-108404396D01*
X133019657Y-108404401D01*
X132870865Y-108503821D01*
X132870861Y-108503824D01*
X132744324Y-108630361D01*
X132744321Y-108630365D01*
X132644901Y-108779157D01*
X132644896Y-108779167D01*
X132576413Y-108944499D01*
X132576411Y-108944507D01*
X132541500Y-109120016D01*
X132541500Y-109298983D01*
X132576411Y-109474492D01*
X132576413Y-109474500D01*
X132644896Y-109639832D01*
X132644901Y-109639842D01*
X132744321Y-109788634D01*
X132744324Y-109788638D01*
X132870861Y-109915175D01*
X132870865Y-109915178D01*
X133019657Y-110014598D01*
X133019661Y-110014600D01*
X133019664Y-110014602D01*
X133098953Y-110047445D01*
X133189560Y-110084976D01*
X133198009Y-110091784D01*
X133208442Y-110094772D01*
X133224737Y-110113324D01*
X133243963Y-110128817D01*
X133247389Y-110139113D01*
X133254552Y-110147267D01*
X133258230Y-110171683D01*
X133266028Y-110195111D01*
X133263344Y-110205625D01*
X133264961Y-110216357D01*
X133254855Y-110238885D01*
X133248749Y-110262811D01*
X133240806Y-110270205D01*
X133236365Y-110280107D01*
X133215682Y-110293596D01*
X133197611Y-110310421D01*
X133185391Y-110313351D01*
X133177842Y-110318276D01*
X133142942Y-110323534D01*
X133000556Y-110324493D01*
X132999284Y-110324495D01*
X128375663Y-110308194D01*
X128308693Y-110288273D01*
X128263125Y-110235308D01*
X128252100Y-110184195D01*
X128252100Y-109768784D01*
X128252169Y-109768078D01*
X128252100Y-109741509D01*
X128252100Y-109741500D01*
X128252100Y-109726599D01*
X128252060Y-109726503D01*
X128245872Y-107370516D01*
X135311500Y-107370516D01*
X135311500Y-107549483D01*
X135346411Y-107724992D01*
X135346413Y-107725000D01*
X135414896Y-107890332D01*
X135414901Y-107890342D01*
X135514321Y-108039134D01*
X135514324Y-108039138D01*
X135640861Y-108165675D01*
X135640865Y-108165678D01*
X135789657Y-108265098D01*
X135789661Y-108265100D01*
X135789664Y-108265102D01*
X135955000Y-108333587D01*
X136130516Y-108368499D01*
X136130520Y-108368500D01*
X136130521Y-108368500D01*
X136309480Y-108368500D01*
X136309481Y-108368499D01*
X136485000Y-108333587D01*
X136650336Y-108265102D01*
X136799135Y-108165678D01*
X136925678Y-108039135D01*
X137025102Y-107890336D01*
X137093587Y-107725000D01*
X137128500Y-107549479D01*
X137128500Y-107512100D01*
X137148185Y-107445061D01*
X137200989Y-107399306D01*
X137252500Y-107388100D01*
X137308444Y-107388100D01*
X137308445Y-107388099D01*
X137450154Y-107359912D01*
X137583642Y-107304619D01*
X137583643Y-107304618D01*
X137583644Y-107304618D01*
X137644514Y-107263946D01*
X137703779Y-107224347D01*
X137805947Y-107122179D01*
X137867763Y-107029664D01*
X137886218Y-107002044D01*
X137886218Y-107002043D01*
X137886219Y-107002042D01*
X137941512Y-106868554D01*
X137969700Y-106726843D01*
X137969700Y-106582357D01*
X137941512Y-106440646D01*
X137886219Y-106307158D01*
X137886218Y-106307156D01*
X137886218Y-106307155D01*
X137805948Y-106187022D01*
X137805942Y-106187015D01*
X137703784Y-106084857D01*
X137703777Y-106084851D01*
X137583643Y-106004581D01*
X137450154Y-105949288D01*
X137450146Y-105949286D01*
X137308447Y-105921100D01*
X137308443Y-105921100D01*
X137163957Y-105921100D01*
X137163952Y-105921100D01*
X137022253Y-105949286D01*
X137022245Y-105949288D01*
X136888756Y-106004581D01*
X136888755Y-106004581D01*
X136768622Y-106084851D01*
X136768615Y-106084857D01*
X136666457Y-106187015D01*
X136666451Y-106187022D01*
X136586181Y-106307155D01*
X136586181Y-106307156D01*
X136530888Y-106440645D01*
X136530887Y-106440647D01*
X136525440Y-106468031D01*
X136493053Y-106529941D01*
X136432336Y-106564513D01*
X136379633Y-106565454D01*
X136333613Y-106556300D01*
X136309479Y-106551500D01*
X136130521Y-106551500D01*
X136130516Y-106551500D01*
X135955007Y-106586411D01*
X135954999Y-106586413D01*
X135789667Y-106654896D01*
X135789657Y-106654901D01*
X135640865Y-106754321D01*
X135640861Y-106754324D01*
X135514324Y-106880861D01*
X135514321Y-106880865D01*
X135414901Y-107029657D01*
X135414896Y-107029667D01*
X135346413Y-107194999D01*
X135346411Y-107195007D01*
X135311500Y-107370516D01*
X128245872Y-107370516D01*
X128240001Y-105135160D01*
X130165137Y-105135160D01*
X130165137Y-105314127D01*
X130200048Y-105489636D01*
X130200050Y-105489644D01*
X130268533Y-105654976D01*
X130268538Y-105654986D01*
X130367958Y-105803778D01*
X130367961Y-105803782D01*
X130494498Y-105930319D01*
X130494502Y-105930322D01*
X130643294Y-106029742D01*
X130643298Y-106029744D01*
X130643301Y-106029746D01*
X130808637Y-106098231D01*
X130947167Y-106125786D01*
X130984153Y-106133143D01*
X130984157Y-106133144D01*
X130984158Y-106133144D01*
X131163117Y-106133144D01*
X131163118Y-106133143D01*
X131338637Y-106098231D01*
X131503973Y-106029746D01*
X131652772Y-105930322D01*
X131779315Y-105803779D01*
X131878739Y-105654980D01*
X131947224Y-105489644D01*
X131982137Y-105314123D01*
X131982137Y-105135165D01*
X131947224Y-104959644D01*
X131878739Y-104794308D01*
X131878737Y-104794305D01*
X131878735Y-104794301D01*
X131779315Y-104645509D01*
X131775450Y-104640799D01*
X131776614Y-104639843D01*
X131746694Y-104585049D01*
X131751678Y-104515357D01*
X131753278Y-104511288D01*
X131785312Y-104433954D01*
X131812404Y-104297752D01*
X132596500Y-104297752D01*
X132596500Y-104442247D01*
X132624686Y-104583946D01*
X132624688Y-104583954D01*
X132679981Y-104717443D01*
X132679981Y-104717444D01*
X132760251Y-104837577D01*
X132760257Y-104837584D01*
X132862415Y-104939742D01*
X132862422Y-104939748D01*
X132982556Y-105020018D01*
X132982557Y-105020018D01*
X132982558Y-105020019D01*
X133116046Y-105075312D01*
X133253997Y-105102752D01*
X133257752Y-105103499D01*
X133257756Y-105103500D01*
X133257757Y-105103500D01*
X133402244Y-105103500D01*
X133402245Y-105103499D01*
X133543954Y-105075312D01*
X133677442Y-105020019D01*
X133677443Y-105020018D01*
X133677444Y-105020018D01*
X133767790Y-104959651D01*
X133797579Y-104939747D01*
X133899747Y-104837579D01*
X133948341Y-104764852D01*
X133980018Y-104717444D01*
X133980018Y-104717443D01*
X133980019Y-104717442D01*
X134035312Y-104583954D01*
X134063500Y-104442243D01*
X134063500Y-104432324D01*
X138001018Y-104432324D01*
X138001018Y-104576819D01*
X138029204Y-104718518D01*
X138029206Y-104718526D01*
X138084499Y-104852015D01*
X138087369Y-104857384D01*
X138085151Y-104858569D01*
X138102724Y-104914772D01*
X138095126Y-104954819D01*
X138096455Y-104955223D01*
X138094685Y-104961053D01*
X138066500Y-105102752D01*
X138066500Y-105247247D01*
X138094686Y-105388946D01*
X138094688Y-105388954D01*
X138149981Y-105522443D01*
X138149981Y-105522444D01*
X138230251Y-105642577D01*
X138230257Y-105642584D01*
X138332415Y-105744742D01*
X138332422Y-105744748D01*
X138452556Y-105825018D01*
X138520886Y-105853322D01*
X138575290Y-105897163D01*
X138587994Y-105920429D01*
X138624982Y-106009724D01*
X138705251Y-106129856D01*
X138705257Y-106129863D01*
X138807415Y-106232021D01*
X138807422Y-106232027D01*
X138927555Y-106312297D01*
X138927559Y-106312299D01*
X139055081Y-106365120D01*
X139109485Y-106408961D01*
X139131550Y-106475255D01*
X139114271Y-106542954D01*
X139095313Y-106567360D01*
X139080253Y-106582419D01*
X139080251Y-106582422D01*
X138999981Y-106702555D01*
X138999981Y-106702556D01*
X138944688Y-106836045D01*
X138944686Y-106836053D01*
X138916500Y-106977752D01*
X138916500Y-107122247D01*
X138944686Y-107263946D01*
X138944688Y-107263954D01*
X138999981Y-107397443D01*
X138999981Y-107397444D01*
X139080251Y-107517577D01*
X139080257Y-107517584D01*
X139182415Y-107619742D01*
X139182422Y-107619748D01*
X139302555Y-107700018D01*
X139302559Y-107700020D01*
X139398847Y-107739903D01*
X139423265Y-107750018D01*
X139430728Y-107753109D01*
X139485132Y-107796950D01*
X139497835Y-107820213D01*
X139506065Y-107840080D01*
X139506067Y-107840085D01*
X139586337Y-107960218D01*
X139586343Y-107960225D01*
X139688501Y-108062383D01*
X139688508Y-108062389D01*
X139808642Y-108142659D01*
X139808643Y-108142659D01*
X139808644Y-108142660D01*
X139942132Y-108197953D01*
X140083838Y-108226140D01*
X140083842Y-108226141D01*
X140083843Y-108226141D01*
X140228330Y-108226141D01*
X140228331Y-108226140D01*
X140370040Y-108197953D01*
X140503528Y-108142660D01*
X140503529Y-108142659D01*
X140503530Y-108142659D01*
X140604417Y-108075249D01*
X140623665Y-108062388D01*
X140725833Y-107960220D01*
X140782762Y-107875019D01*
X140806104Y-107840085D01*
X140806104Y-107840084D01*
X140806105Y-107840083D01*
X140861398Y-107706595D01*
X140889586Y-107564884D01*
X140889586Y-107430910D01*
X140894402Y-107414142D01*
X140894204Y-107397383D01*
X140907531Y-107368432D01*
X140908486Y-107365108D01*
X140909807Y-107362997D01*
X140909876Y-107362929D01*
X140990148Y-107242792D01*
X141000081Y-107218811D01*
X141005576Y-107210035D01*
X141024268Y-107193447D01*
X141039951Y-107173984D01*
X141049952Y-107170654D01*
X141057836Y-107163659D01*
X141082529Y-107159810D01*
X141106244Y-107151916D01*
X141116457Y-107154522D01*
X141126872Y-107152899D01*
X141149728Y-107163012D01*
X141173944Y-107169192D01*
X141181126Y-107176905D01*
X141190766Y-107181171D01*
X141204526Y-107202036D01*
X141221557Y-107220327D01*
X141226935Y-107236016D01*
X141229232Y-107239499D01*
X141229271Y-107242830D01*
X141232293Y-107251645D01*
X141244686Y-107313948D01*
X141244688Y-107313954D01*
X141299981Y-107447443D01*
X141299981Y-107447444D01*
X141380251Y-107567577D01*
X141380257Y-107567584D01*
X141482415Y-107669742D01*
X141482422Y-107669748D01*
X141602556Y-107750018D01*
X141602557Y-107750018D01*
X141602558Y-107750019D01*
X141736046Y-107805312D01*
X141877752Y-107833499D01*
X141877756Y-107833500D01*
X141877757Y-107833500D01*
X142022244Y-107833500D01*
X142022245Y-107833499D01*
X142163954Y-107805312D01*
X142297442Y-107750019D01*
X142297443Y-107750018D01*
X142297444Y-107750018D01*
X142372275Y-107700018D01*
X142417579Y-107669747D01*
X142519747Y-107567579D01*
X142563192Y-107502558D01*
X142600018Y-107447444D01*
X142600018Y-107447443D01*
X142600019Y-107447442D01*
X142655312Y-107313954D01*
X142683500Y-107172243D01*
X142683500Y-107027757D01*
X142655312Y-106886046D01*
X142600019Y-106752558D01*
X142600018Y-106752556D01*
X142600018Y-106752555D01*
X142519748Y-106632422D01*
X142519742Y-106632415D01*
X142417584Y-106530257D01*
X142417577Y-106530251D01*
X142297443Y-106449981D01*
X142163954Y-106394688D01*
X142163946Y-106394686D01*
X142022247Y-106366500D01*
X142022243Y-106366500D01*
X141877757Y-106366500D01*
X141877752Y-106366500D01*
X141736053Y-106394686D01*
X141736045Y-106394688D01*
X141602556Y-106449981D01*
X141602555Y-106449981D01*
X141482422Y-106530251D01*
X141482415Y-106530257D01*
X141380257Y-106632415D01*
X141380251Y-106632422D01*
X141299982Y-106752554D01*
X141294013Y-106766966D01*
X141250171Y-106821369D01*
X141183877Y-106843433D01*
X141116177Y-106826153D01*
X141068568Y-106775015D01*
X141057835Y-106743703D01*
X141049429Y-106701447D01*
X141045441Y-106681396D01*
X140990148Y-106547908D01*
X140990147Y-106547906D01*
X140990147Y-106547905D01*
X140909877Y-106427772D01*
X140909871Y-106427765D01*
X140807713Y-106325607D01*
X140807706Y-106325601D01*
X140687572Y-106245331D01*
X140554083Y-106190038D01*
X140554075Y-106190036D01*
X140412376Y-106161850D01*
X140412372Y-106161850D01*
X140267886Y-106161850D01*
X140267881Y-106161850D01*
X140126182Y-106190036D01*
X140126174Y-106190038D01*
X140059106Y-106217819D01*
X139989636Y-106225288D01*
X139927157Y-106194013D01*
X139891505Y-106133924D01*
X139893999Y-106064099D01*
X139908551Y-106034367D01*
X139909851Y-106032422D01*
X139925019Y-106009721D01*
X139980312Y-105876233D01*
X140008500Y-105734522D01*
X140008500Y-105590036D01*
X139980312Y-105448325D01*
X139925019Y-105314837D01*
X139925018Y-105314835D01*
X139925018Y-105314834D01*
X139844748Y-105194701D01*
X139844742Y-105194694D01*
X139742584Y-105092536D01*
X139742577Y-105092530D01*
X139622445Y-105012261D01*
X139588923Y-104998376D01*
X139554110Y-104983955D01*
X139530797Y-104965168D01*
X139505992Y-104948401D01*
X139502226Y-104942143D01*
X139499708Y-104940114D01*
X139487605Y-104918274D01*
X139487316Y-104917601D01*
X139450019Y-104827558D01*
X139446322Y-104822025D01*
X139441815Y-104811517D01*
X139438955Y-104787721D01*
X139431795Y-104764852D01*
X139434496Y-104750608D01*
X139433480Y-104742147D01*
X139437784Y-104733272D01*
X139439398Y-104724762D01*
X139438061Y-104724357D01*
X139439825Y-104718536D01*
X139439830Y-104718526D01*
X139468018Y-104576815D01*
X139468018Y-104570670D01*
X139487703Y-104503631D01*
X139504338Y-104482988D01*
X139511639Y-104475687D01*
X139539747Y-104447579D01*
X139605593Y-104349032D01*
X139620018Y-104327444D01*
X139620018Y-104327443D01*
X139620019Y-104327442D01*
X139675312Y-104193954D01*
X139703500Y-104052243D01*
X139703500Y-103907757D01*
X139675312Y-103766046D01*
X139620019Y-103632558D01*
X139620018Y-103632556D01*
X139620018Y-103632555D01*
X139536363Y-103507356D01*
X139538034Y-103506239D01*
X139514332Y-103450410D01*
X139513500Y-103436071D01*
X139513500Y-103327756D01*
X139513499Y-103327752D01*
X139511325Y-103316821D01*
X139485312Y-103186046D01*
X139430019Y-103052558D01*
X139430018Y-103052556D01*
X139430018Y-103052555D01*
X139349748Y-102932422D01*
X139349742Y-102932415D01*
X139247584Y-102830257D01*
X139247577Y-102830251D01*
X139127443Y-102749981D01*
X138993954Y-102694688D01*
X138993946Y-102694686D01*
X138852247Y-102666500D01*
X138852243Y-102666500D01*
X138707757Y-102666500D01*
X138707752Y-102666500D01*
X138566053Y-102694686D01*
X138566045Y-102694688D01*
X138432556Y-102749981D01*
X138432555Y-102749981D01*
X138312422Y-102830251D01*
X138312415Y-102830257D01*
X138210257Y-102932415D01*
X138210251Y-102932422D01*
X138129981Y-103052555D01*
X138129981Y-103052556D01*
X138074688Y-103186045D01*
X138074686Y-103186053D01*
X138046500Y-103327752D01*
X138046500Y-103472247D01*
X138074686Y-103613946D01*
X138074688Y-103613954D01*
X138129981Y-103747443D01*
X138203356Y-103857257D01*
X138224234Y-103923934D01*
X138205749Y-103991314D01*
X138187935Y-104013828D01*
X138164775Y-104036987D01*
X138164769Y-104036994D01*
X138084499Y-104157127D01*
X138084499Y-104157128D01*
X138029206Y-104290617D01*
X138029204Y-104290625D01*
X138001018Y-104432324D01*
X134063500Y-104432324D01*
X134063500Y-104297757D01*
X134035312Y-104156046D01*
X133980019Y-104022558D01*
X133980018Y-104022556D01*
X133980018Y-104022555D01*
X133899748Y-103902422D01*
X133899742Y-103902415D01*
X133797584Y-103800257D01*
X133797577Y-103800251D01*
X133677443Y-103719981D01*
X133543954Y-103664688D01*
X133543946Y-103664686D01*
X133402247Y-103636500D01*
X133402243Y-103636500D01*
X133257757Y-103636500D01*
X133257752Y-103636500D01*
X133116053Y-103664686D01*
X133116045Y-103664688D01*
X132982556Y-103719981D01*
X132982555Y-103719981D01*
X132862422Y-103800251D01*
X132862415Y-103800257D01*
X132760257Y-103902415D01*
X132760251Y-103902422D01*
X132679981Y-104022555D01*
X132679981Y-104022556D01*
X132624688Y-104156045D01*
X132624686Y-104156053D01*
X132596500Y-104297752D01*
X131812404Y-104297752D01*
X131813500Y-104292243D01*
X131813500Y-104147757D01*
X131785312Y-104006046D01*
X131730019Y-103872558D01*
X131730018Y-103872556D01*
X131730018Y-103872555D01*
X131649748Y-103752422D01*
X131649742Y-103752415D01*
X131547584Y-103650257D01*
X131547577Y-103650251D01*
X131427443Y-103569981D01*
X131293954Y-103514688D01*
X131293946Y-103514686D01*
X131152247Y-103486500D01*
X131152243Y-103486500D01*
X131007757Y-103486500D01*
X131007752Y-103486500D01*
X130866053Y-103514686D01*
X130866045Y-103514688D01*
X130732556Y-103569981D01*
X130732555Y-103569981D01*
X130612422Y-103650251D01*
X130612415Y-103650257D01*
X130510257Y-103752415D01*
X130510251Y-103752422D01*
X130429981Y-103872555D01*
X130429981Y-103872556D01*
X130374688Y-104006045D01*
X130374686Y-104006053D01*
X130346500Y-104147752D01*
X130346500Y-104292247D01*
X130374686Y-104433946D01*
X130374688Y-104433954D01*
X130402973Y-104502240D01*
X130410442Y-104571710D01*
X130379167Y-104634189D01*
X130376097Y-104637371D01*
X130367956Y-104645512D01*
X130268538Y-104794301D01*
X130268533Y-104794311D01*
X130200050Y-104959643D01*
X130200048Y-104959651D01*
X130165137Y-105135160D01*
X128240001Y-105135160D01*
X128233322Y-102592079D01*
X135302507Y-102592079D01*
X135302507Y-102736574D01*
X135330693Y-102878273D01*
X135330695Y-102878281D01*
X135385988Y-103011770D01*
X135385988Y-103011771D01*
X135466258Y-103131904D01*
X135466264Y-103131911D01*
X135568422Y-103234069D01*
X135568429Y-103234075D01*
X135688563Y-103314345D01*
X135688564Y-103314345D01*
X135688565Y-103314346D01*
X135822053Y-103369639D01*
X135918111Y-103388746D01*
X135963759Y-103397826D01*
X135963763Y-103397827D01*
X135963764Y-103397827D01*
X136108251Y-103397827D01*
X136108252Y-103397826D01*
X136249961Y-103369639D01*
X136383449Y-103314346D01*
X136383450Y-103314345D01*
X136383451Y-103314345D01*
X136484170Y-103247047D01*
X136503586Y-103234074D01*
X136605754Y-103131906D01*
X136656933Y-103055311D01*
X136686025Y-103011771D01*
X136686025Y-103011770D01*
X136686026Y-103011769D01*
X136741319Y-102878281D01*
X136769507Y-102736570D01*
X136769507Y-102592084D01*
X136741319Y-102450373D01*
X136686026Y-102316885D01*
X136686025Y-102316883D01*
X136686025Y-102316882D01*
X136605755Y-102196749D01*
X136605749Y-102196742D01*
X136503591Y-102094584D01*
X136503584Y-102094578D01*
X136383450Y-102014308D01*
X136249961Y-101959015D01*
X136249953Y-101959013D01*
X136108254Y-101930827D01*
X136108250Y-101930827D01*
X135963764Y-101930827D01*
X135963759Y-101930827D01*
X135822060Y-101959013D01*
X135822052Y-101959015D01*
X135688563Y-102014308D01*
X135688562Y-102014308D01*
X135568429Y-102094578D01*
X135568422Y-102094584D01*
X135466264Y-102196742D01*
X135466258Y-102196749D01*
X135385988Y-102316882D01*
X135385988Y-102316883D01*
X135330695Y-102450372D01*
X135330693Y-102450380D01*
X135302507Y-102592079D01*
X128233322Y-102592079D01*
X128226771Y-100097752D01*
X136526500Y-100097752D01*
X136526500Y-100242247D01*
X136554686Y-100383946D01*
X136554688Y-100383954D01*
X136609981Y-100517443D01*
X136609981Y-100517444D01*
X136690251Y-100637577D01*
X136690257Y-100637584D01*
X136792415Y-100739742D01*
X136792422Y-100739748D01*
X136912556Y-100820018D01*
X136912557Y-100820018D01*
X136912558Y-100820019D01*
X137046046Y-100875312D01*
X137187752Y-100903499D01*
X137187756Y-100903500D01*
X137187757Y-100903500D01*
X137332244Y-100903500D01*
X137332245Y-100903499D01*
X137473954Y-100875312D01*
X137607442Y-100820019D01*
X137607443Y-100820018D01*
X137607444Y-100820018D01*
X137687820Y-100766313D01*
X137727579Y-100739747D01*
X137829747Y-100637579D01*
X137894086Y-100541288D01*
X137910018Y-100517444D01*
X137910018Y-100517443D01*
X137910019Y-100517442D01*
X137965312Y-100383954D01*
X137993500Y-100242243D01*
X137993500Y-100097757D01*
X137982497Y-100042442D01*
X137973231Y-99995856D01*
X137969629Y-99977752D01*
X139266500Y-99977752D01*
X139266500Y-100122247D01*
X139294686Y-100263946D01*
X139294688Y-100263954D01*
X139349981Y-100397443D01*
X139349981Y-100397444D01*
X139430251Y-100517577D01*
X139430257Y-100517584D01*
X139532415Y-100619742D01*
X139532422Y-100619748D01*
X139652556Y-100700018D01*
X139652557Y-100700018D01*
X139652558Y-100700019D01*
X139786046Y-100755312D01*
X139910061Y-100779980D01*
X139927752Y-100783499D01*
X139927756Y-100783500D01*
X140017500Y-100783500D01*
X140084539Y-100803185D01*
X140130294Y-100855989D01*
X140141500Y-100907500D01*
X140141500Y-100996992D01*
X140169686Y-101138691D01*
X140169688Y-101138699D01*
X140224981Y-101272188D01*
X140224981Y-101272189D01*
X140305251Y-101392322D01*
X140305257Y-101392329D01*
X140407415Y-101494487D01*
X140407422Y-101494493D01*
X140527556Y-101574763D01*
X140527557Y-101574763D01*
X140527558Y-101574764D01*
X140661046Y-101630057D01*
X140802752Y-101658244D01*
X140802756Y-101658245D01*
X140802757Y-101658245D01*
X140947244Y-101658245D01*
X140947245Y-101658244D01*
X141088954Y-101630057D01*
X141222442Y-101574764D01*
X141222443Y-101574763D01*
X141222444Y-101574763D01*
X141300748Y-101522442D01*
X141342579Y-101494492D01*
X141444747Y-101392324D01*
X141525019Y-101272187D01*
X141580312Y-101138699D01*
X141608500Y-100996988D01*
X141608500Y-100852502D01*
X141580312Y-100710791D01*
X141525019Y-100577303D01*
X141525018Y-100577301D01*
X141525018Y-100577300D01*
X141444748Y-100457167D01*
X141444742Y-100457160D01*
X141342584Y-100355002D01*
X141342577Y-100354996D01*
X141222443Y-100274726D01*
X141088954Y-100219433D01*
X141088946Y-100219431D01*
X140947247Y-100191245D01*
X140947243Y-100191245D01*
X140857500Y-100191245D01*
X140790461Y-100171560D01*
X140744706Y-100118756D01*
X140733500Y-100067245D01*
X140733500Y-99977756D01*
X140733499Y-99977752D01*
X140722357Y-99921736D01*
X140705312Y-99836046D01*
X140650019Y-99702558D01*
X140650018Y-99702556D01*
X140650018Y-99702555D01*
X140569748Y-99582422D01*
X140569742Y-99582415D01*
X140467584Y-99480257D01*
X140467577Y-99480251D01*
X140347443Y-99399981D01*
X140213954Y-99344688D01*
X140213946Y-99344686D01*
X140072247Y-99316500D01*
X140072243Y-99316500D01*
X139927757Y-99316500D01*
X139927752Y-99316500D01*
X139786053Y-99344686D01*
X139786045Y-99344688D01*
X139652556Y-99399981D01*
X139652555Y-99399981D01*
X139532422Y-99480251D01*
X139532415Y-99480257D01*
X139430257Y-99582415D01*
X139430251Y-99582422D01*
X139349981Y-99702555D01*
X139349981Y-99702556D01*
X139294688Y-99836045D01*
X139294686Y-99836053D01*
X139266500Y-99977752D01*
X137969629Y-99977752D01*
X137968686Y-99973010D01*
X137965312Y-99956046D01*
X137910019Y-99822558D01*
X137910018Y-99822556D01*
X137910018Y-99822555D01*
X137829748Y-99702422D01*
X137829742Y-99702415D01*
X137727584Y-99600257D01*
X137727577Y-99600251D01*
X137607443Y-99519981D01*
X137473954Y-99464688D01*
X137473946Y-99464686D01*
X137332247Y-99436500D01*
X137332243Y-99436500D01*
X137187757Y-99436500D01*
X137187752Y-99436500D01*
X137046053Y-99464686D01*
X137046045Y-99464688D01*
X136912556Y-99519981D01*
X136912555Y-99519981D01*
X136792422Y-99600251D01*
X136792415Y-99600257D01*
X136690257Y-99702415D01*
X136690251Y-99702422D01*
X136609981Y-99822555D01*
X136609981Y-99822556D01*
X136554688Y-99956045D01*
X136554686Y-99956053D01*
X136526500Y-100097752D01*
X128226771Y-100097752D01*
X128209646Y-93577752D01*
X133591500Y-93577752D01*
X133591500Y-93722247D01*
X133619686Y-93863946D01*
X133619688Y-93863954D01*
X133674981Y-93997443D01*
X133674981Y-93997444D01*
X133755251Y-94117577D01*
X133755257Y-94117584D01*
X133857415Y-94219742D01*
X133857421Y-94219747D01*
X133977547Y-94300012D01*
X133977550Y-94300013D01*
X133977558Y-94300019D01*
X133977564Y-94300021D01*
X133977565Y-94300022D01*
X134018817Y-94317109D01*
X134073221Y-94360950D01*
X134092982Y-94407479D01*
X134106411Y-94474992D01*
X134106413Y-94475000D01*
X134174896Y-94640332D01*
X134174901Y-94640342D01*
X134274321Y-94789134D01*
X134274324Y-94789138D01*
X134400861Y-94915675D01*
X134400865Y-94915678D01*
X134549657Y-95015098D01*
X134549661Y-95015100D01*
X134549664Y-95015102D01*
X134715000Y-95083587D01*
X134890516Y-95118499D01*
X134890520Y-95118500D01*
X134890521Y-95118500D01*
X135069480Y-95118500D01*
X135069481Y-95118499D01*
X135245000Y-95083587D01*
X135410336Y-95015102D01*
X135559135Y-94915678D01*
X135685678Y-94789135D01*
X135785102Y-94640336D01*
X135853587Y-94475000D01*
X135888500Y-94299479D01*
X135888500Y-94120521D01*
X135887914Y-94117577D01*
X135883181Y-94093782D01*
X135889408Y-94024190D01*
X135932270Y-93969012D01*
X135957344Y-93955029D01*
X135983442Y-93944219D01*
X135983443Y-93944218D01*
X135983444Y-93944218D01*
X136055335Y-93896182D01*
X136103579Y-93863947D01*
X136205747Y-93761779D01*
X136286019Y-93641642D01*
X136341312Y-93508154D01*
X136369500Y-93366443D01*
X136369500Y-93221957D01*
X136341312Y-93080246D01*
X136286019Y-92946758D01*
X136286018Y-92946756D01*
X136286018Y-92946755D01*
X136205748Y-92826622D01*
X136205742Y-92826615D01*
X136103584Y-92724457D01*
X136103577Y-92724451D01*
X135983443Y-92644181D01*
X135903882Y-92611226D01*
X135849954Y-92588888D01*
X135849946Y-92588886D01*
X135708247Y-92560700D01*
X135708243Y-92560700D01*
X135563757Y-92560700D01*
X135563752Y-92560700D01*
X135422053Y-92588886D01*
X135422045Y-92588888D01*
X135288556Y-92644181D01*
X135288555Y-92644181D01*
X135168422Y-92724451D01*
X135168415Y-92724457D01*
X135066257Y-92826615D01*
X135066251Y-92826622D01*
X134985982Y-92946754D01*
X134958568Y-93012937D01*
X134914726Y-93067340D01*
X134848431Y-93089404D01*
X134780732Y-93072124D01*
X134775117Y-93068585D01*
X134672443Y-92999981D01*
X134538954Y-92944688D01*
X134538946Y-92944686D01*
X134397247Y-92916500D01*
X134397243Y-92916500D01*
X134252757Y-92916500D01*
X134252752Y-92916500D01*
X134111053Y-92944686D01*
X134111045Y-92944688D01*
X133977556Y-92999981D01*
X133977555Y-92999981D01*
X133857422Y-93080251D01*
X133857415Y-93080257D01*
X133755257Y-93182415D01*
X133755251Y-93182422D01*
X133674981Y-93302555D01*
X133674981Y-93302556D01*
X133619688Y-93436045D01*
X133619686Y-93436053D01*
X133591500Y-93577752D01*
X128209646Y-93577752D01*
X128206822Y-92502752D01*
X139041500Y-92502752D01*
X139041500Y-92647247D01*
X139069686Y-92788946D01*
X139069688Y-92788954D01*
X139124981Y-92922443D01*
X139124981Y-92922444D01*
X139205251Y-93042577D01*
X139205257Y-93042584D01*
X139307415Y-93144742D01*
X139307422Y-93144748D01*
X139427556Y-93225018D01*
X139427557Y-93225018D01*
X139427558Y-93225019D01*
X139561046Y-93280312D01*
X139702752Y-93308499D01*
X139702756Y-93308500D01*
X139702757Y-93308500D01*
X139847244Y-93308500D01*
X139847245Y-93308499D01*
X139988954Y-93280312D01*
X140122442Y-93225019D01*
X140122443Y-93225018D01*
X140122444Y-93225018D01*
X140221077Y-93159114D01*
X140242579Y-93144747D01*
X140344747Y-93042579D01*
X140408774Y-92946755D01*
X140425018Y-92922444D01*
X140425018Y-92922443D01*
X140425019Y-92922442D01*
X140480312Y-92788954D01*
X140508500Y-92647243D01*
X140508500Y-92502757D01*
X140480312Y-92361046D01*
X140425019Y-92227558D01*
X140425018Y-92227556D01*
X140425018Y-92227555D01*
X140344748Y-92107422D01*
X140344742Y-92107415D01*
X140242584Y-92005257D01*
X140242577Y-92005251D01*
X140122443Y-91924981D01*
X139988954Y-91869688D01*
X139988946Y-91869686D01*
X139847247Y-91841500D01*
X139847243Y-91841500D01*
X139702757Y-91841500D01*
X139702752Y-91841500D01*
X139561053Y-91869686D01*
X139561045Y-91869688D01*
X139427556Y-91924981D01*
X139427555Y-91924981D01*
X139307422Y-92005251D01*
X139307415Y-92005257D01*
X139205257Y-92107415D01*
X139205251Y-92107422D01*
X139124981Y-92227555D01*
X139124981Y-92227556D01*
X139069688Y-92361045D01*
X139069686Y-92361053D01*
X139041500Y-92502752D01*
X128206822Y-92502752D01*
X128201324Y-90409355D01*
X128202226Y-90394100D01*
X128220401Y-90244259D01*
X128225434Y-90221292D01*
X128270395Y-90081318D01*
X128279681Y-90059707D01*
X128350274Y-89930761D01*
X128363483Y-89911285D01*
X128457172Y-89797996D01*
X128473813Y-89781376D01*
X128587227Y-89687825D01*
X128606708Y-89674650D01*
X128735747Y-89604219D01*
X128757377Y-89594958D01*
X128897399Y-89550177D01*
X128920378Y-89545171D01*
X129071081Y-89527086D01*
X129085190Y-89526207D01*
X133905306Y-89501589D01*
X133905999Y-89501857D01*
X133920317Y-89501512D01*
X133934602Y-89501440D01*
X133934603Y-89501439D01*
X133942441Y-89501400D01*
X133947143Y-89500868D01*
X134569804Y-89485906D01*
X134570092Y-89485900D01*
X134584218Y-89485900D01*
X134585077Y-89485543D01*
X134586018Y-89485521D01*
X134586026Y-89485517D01*
X134586028Y-89485517D01*
X134598930Y-89479805D01*
X134611967Y-89474406D01*
X134612625Y-89473746D01*
X134613486Y-89473366D01*
X134613490Y-89473360D01*
X134613493Y-89473360D01*
X134623234Y-89463138D01*
X134633206Y-89453167D01*
X134633560Y-89452309D01*
X134634211Y-89451627D01*
X134635614Y-89447994D01*
X134638760Y-89439848D01*
X134639864Y-89437091D01*
X134640601Y-89435311D01*
X134644700Y-89425418D01*
X134644700Y-89425410D01*
X134645041Y-89423697D01*
X134644736Y-89410982D01*
X134644700Y-89408002D01*
X134644700Y-89243384D01*
X134664385Y-89176345D01*
X134717189Y-89130590D01*
X134745907Y-89121497D01*
X134864786Y-89099276D01*
X135050646Y-89027273D01*
X135220110Y-88922345D01*
X135353156Y-88801057D01*
X135367407Y-88788066D01*
X135391623Y-88756000D01*
X135487526Y-88629004D01*
X135576371Y-88450580D01*
X135630917Y-88258869D01*
X135646194Y-88094001D01*
X135646194Y-88094000D01*
X136363322Y-88094000D01*
X136381186Y-88263965D01*
X136381187Y-88263967D01*
X136433997Y-88426499D01*
X136447902Y-88450583D01*
X136518926Y-88573602D01*
X136519445Y-88574500D01*
X136519448Y-88574505D01*
X136633794Y-88701500D01*
X136633801Y-88701506D01*
X136772056Y-88801954D01*
X136772057Y-88801954D01*
X136772061Y-88801957D01*
X136899385Y-88858645D01*
X136928180Y-88871466D01*
X136928185Y-88871468D01*
X137095350Y-88907000D01*
X137095351Y-88907000D01*
X138993448Y-88907000D01*
X138993450Y-88907000D01*
X139160615Y-88871468D01*
X139316739Y-88801957D01*
X139455000Y-88701505D01*
X139455810Y-88700606D01*
X139569351Y-88574505D01*
X139569350Y-88574505D01*
X139569354Y-88574502D01*
X139654803Y-88426498D01*
X139707614Y-88263963D01*
X139725478Y-88094000D01*
X139725383Y-88093100D01*
X140808322Y-88093100D01*
X140826186Y-88263065D01*
X140826187Y-88263067D01*
X140878997Y-88425599D01*
X140964445Y-88573600D01*
X140964448Y-88573605D01*
X141078794Y-88700600D01*
X141078801Y-88700606D01*
X141217056Y-88801054D01*
X141217057Y-88801054D01*
X141217061Y-88801057D01*
X141344385Y-88857745D01*
X141373180Y-88870566D01*
X141373185Y-88870568D01*
X141540350Y-88906100D01*
X141540351Y-88906100D01*
X143438448Y-88906100D01*
X143438450Y-88906100D01*
X143605615Y-88870568D01*
X143761739Y-88801057D01*
X143900000Y-88700605D01*
X144014354Y-88573602D01*
X144099803Y-88425598D01*
X144152614Y-88263063D01*
X144170383Y-88094000D01*
X145430222Y-88094000D01*
X145448086Y-88263965D01*
X145448087Y-88263967D01*
X145500897Y-88426499D01*
X145514802Y-88450583D01*
X145585826Y-88573602D01*
X145586345Y-88574500D01*
X145586348Y-88574505D01*
X145700694Y-88701500D01*
X145700701Y-88701506D01*
X145838956Y-88801954D01*
X145838957Y-88801954D01*
X145838961Y-88801957D01*
X145966285Y-88858645D01*
X145995080Y-88871466D01*
X145995085Y-88871468D01*
X146162250Y-88907000D01*
X146162251Y-88907000D01*
X148060348Y-88907000D01*
X148060350Y-88907000D01*
X148227515Y-88871468D01*
X148383639Y-88801957D01*
X148521900Y-88701505D01*
X148522710Y-88700606D01*
X148636251Y-88574505D01*
X148636250Y-88574505D01*
X148636254Y-88574502D01*
X148721703Y-88426498D01*
X148774514Y-88263963D01*
X148792378Y-88094000D01*
X148774514Y-87924037D01*
X148721703Y-87761502D01*
X148721183Y-87760602D01*
X148675370Y-87681250D01*
X148636254Y-87613498D01*
X148636252Y-87613496D01*
X148636251Y-87613494D01*
X148521905Y-87486499D01*
X148521902Y-87486497D01*
X148521901Y-87486496D01*
X148521900Y-87486495D01*
X148383639Y-87386043D01*
X148352540Y-87372196D01*
X148352537Y-87372195D01*
X148227514Y-87316531D01*
X148095881Y-87288552D01*
X148060350Y-87281000D01*
X147989918Y-87281000D01*
X146272231Y-87281000D01*
X146247700Y-87281000D01*
X146162250Y-87281000D01*
X146132947Y-87287228D01*
X145995085Y-87316531D01*
X145995080Y-87316533D01*
X145838961Y-87386043D01*
X145838956Y-87386045D01*
X145700701Y-87486493D01*
X145700694Y-87486499D01*
X145586348Y-87613494D01*
X145586345Y-87613499D01*
X145500897Y-87761500D01*
X145448087Y-87924032D01*
X145448086Y-87924034D01*
X145430222Y-88094000D01*
X144170383Y-88094000D01*
X144170478Y-88093100D01*
X144152614Y-87923137D01*
X144099803Y-87760602D01*
X144014354Y-87612598D01*
X144014352Y-87612596D01*
X144014351Y-87612594D01*
X143900005Y-87485599D01*
X143899998Y-87485593D01*
X143761743Y-87385145D01*
X143761740Y-87385143D01*
X143761739Y-87385143D01*
X143705049Y-87359903D01*
X143605619Y-87315633D01*
X143605614Y-87315631D01*
X143473981Y-87287652D01*
X143438450Y-87280100D01*
X143368018Y-87280100D01*
X141650331Y-87280100D01*
X141625800Y-87280100D01*
X141540350Y-87280100D01*
X141511047Y-87286328D01*
X141373185Y-87315631D01*
X141373180Y-87315633D01*
X141217061Y-87385143D01*
X141217056Y-87385145D01*
X141078801Y-87485593D01*
X141078794Y-87485599D01*
X140964448Y-87612594D01*
X140964445Y-87612599D01*
X140878997Y-87760600D01*
X140826187Y-87923132D01*
X140826186Y-87923134D01*
X140808322Y-88093100D01*
X139725383Y-88093100D01*
X139707614Y-87924037D01*
X139654803Y-87761502D01*
X139654283Y-87760602D01*
X139608470Y-87681250D01*
X139569354Y-87613498D01*
X139569352Y-87613496D01*
X139569351Y-87613494D01*
X139455005Y-87486499D01*
X139454998Y-87486493D01*
X139316743Y-87386045D01*
X139316740Y-87386043D01*
X139316739Y-87386043D01*
X139260049Y-87360803D01*
X139160619Y-87316533D01*
X139160614Y-87316531D01*
X139028981Y-87288552D01*
X138993450Y-87281000D01*
X138923018Y-87281000D01*
X137205331Y-87281000D01*
X137180800Y-87281000D01*
X137095350Y-87281000D01*
X137066047Y-87287228D01*
X136928185Y-87316531D01*
X136928180Y-87316533D01*
X136772061Y-87386043D01*
X136772056Y-87386045D01*
X136633801Y-87486493D01*
X136633794Y-87486499D01*
X136519448Y-87613494D01*
X136519445Y-87613499D01*
X136433997Y-87761500D01*
X136381187Y-87924032D01*
X136381186Y-87924034D01*
X136363322Y-88094000D01*
X135646194Y-88094000D01*
X135647857Y-88076060D01*
X135649308Y-88060400D01*
X135649308Y-88060399D01*
X135636672Y-87924034D01*
X135630917Y-87861931D01*
X135576371Y-87670220D01*
X135529220Y-87575528D01*
X135487529Y-87491801D01*
X135487524Y-87491793D01*
X135367407Y-87332733D01*
X135220111Y-87198456D01*
X135220110Y-87198455D01*
X135119081Y-87135900D01*
X135050647Y-87093527D01*
X135050645Y-87093526D01*
X134950229Y-87054625D01*
X134864786Y-87021524D01*
X134745914Y-86999303D01*
X134683634Y-86967636D01*
X134648361Y-86907324D01*
X134644700Y-86877415D01*
X134644700Y-85957552D01*
X135842300Y-85957552D01*
X135842300Y-86102047D01*
X135870486Y-86243746D01*
X135870488Y-86243754D01*
X135925781Y-86377243D01*
X135925781Y-86377244D01*
X136006051Y-86497377D01*
X136006057Y-86497384D01*
X136108215Y-86599542D01*
X136108222Y-86599548D01*
X136228356Y-86679818D01*
X136228357Y-86679818D01*
X136228358Y-86679819D01*
X136361846Y-86735112D01*
X136503552Y-86763299D01*
X136503556Y-86763300D01*
X136503557Y-86763300D01*
X136648044Y-86763300D01*
X136648045Y-86763299D01*
X136789754Y-86735112D01*
X136923242Y-86679819D01*
X136964109Y-86652512D01*
X137030784Y-86631634D01*
X137098165Y-86650117D01*
X137101859Y-86652491D01*
X137142540Y-86679673D01*
X137142755Y-86679817D01*
X137142760Y-86679820D01*
X137153605Y-86684312D01*
X137276246Y-86735112D01*
X137417952Y-86763299D01*
X137417956Y-86763300D01*
X137417957Y-86763300D01*
X137562444Y-86763300D01*
X137562445Y-86763299D01*
X137704154Y-86735112D01*
X137837642Y-86679819D01*
X137837643Y-86679818D01*
X137837644Y-86679818D01*
X137909757Y-86631634D01*
X137957779Y-86599547D01*
X138010084Y-86547242D01*
X138062919Y-86494408D01*
X138124242Y-86460923D01*
X138193934Y-86465907D01*
X138238281Y-86494408D01*
X138292615Y-86548742D01*
X138292622Y-86548748D01*
X138412756Y-86629018D01*
X138412757Y-86629018D01*
X138412758Y-86629019D01*
X138546246Y-86684312D01*
X138687952Y-86712499D01*
X138687956Y-86712500D01*
X138687957Y-86712500D01*
X138832444Y-86712500D01*
X138832445Y-86712499D01*
X138974154Y-86684312D01*
X139107642Y-86629019D01*
X139107656Y-86629009D01*
X139111981Y-86626698D01*
X139180383Y-86612449D01*
X139217899Y-86621488D01*
X139308246Y-86658912D01*
X139413343Y-86679817D01*
X139449952Y-86687099D01*
X139449956Y-86687100D01*
X139449957Y-86687100D01*
X139594444Y-86687100D01*
X139594445Y-86687099D01*
X139736154Y-86658912D01*
X139869642Y-86603619D01*
X139989779Y-86523347D01*
X139989782Y-86523343D01*
X139992404Y-86521592D01*
X140059082Y-86500714D01*
X140108745Y-86510132D01*
X140222646Y-86557312D01*
X140364352Y-86585499D01*
X140364356Y-86585500D01*
X140364357Y-86585500D01*
X140508844Y-86585500D01*
X140508845Y-86585499D01*
X140650554Y-86557312D01*
X140784042Y-86502019D01*
X140784043Y-86502018D01*
X140784044Y-86502018D01*
X140890124Y-86431138D01*
X140904179Y-86421747D01*
X141006347Y-86319579D01*
X141086619Y-86199442D01*
X141141912Y-86065954D01*
X141170100Y-85924243D01*
X141170100Y-85779757D01*
X141166671Y-85762516D01*
X144125500Y-85762516D01*
X144125500Y-85941483D01*
X144160411Y-86116992D01*
X144160413Y-86117000D01*
X144228896Y-86282332D01*
X144228901Y-86282342D01*
X144328321Y-86431134D01*
X144328324Y-86431138D01*
X144454861Y-86557675D01*
X144454865Y-86557678D01*
X144603657Y-86657098D01*
X144603661Y-86657100D01*
X144603664Y-86657102D01*
X144769000Y-86725587D01*
X144900552Y-86751754D01*
X144944516Y-86760499D01*
X144944520Y-86760500D01*
X144944521Y-86760500D01*
X145123480Y-86760500D01*
X145123481Y-86760499D01*
X145299000Y-86725587D01*
X145464336Y-86657102D01*
X145613135Y-86557678D01*
X145739678Y-86431135D01*
X145839102Y-86282336D01*
X145907587Y-86117000D01*
X145929198Y-86008352D01*
X146662700Y-86008352D01*
X146662700Y-86152847D01*
X146690886Y-86294546D01*
X146690888Y-86294554D01*
X146746181Y-86428043D01*
X146746181Y-86428044D01*
X146826451Y-86548177D01*
X146826457Y-86548184D01*
X146928615Y-86650342D01*
X146928622Y-86650348D01*
X147048756Y-86730618D01*
X147048757Y-86730618D01*
X147048758Y-86730619D01*
X147182246Y-86785912D01*
X147323952Y-86814099D01*
X147323956Y-86814100D01*
X147323957Y-86814100D01*
X147468444Y-86814100D01*
X147468445Y-86814099D01*
X147610154Y-86785912D01*
X147743642Y-86730619D01*
X147743643Y-86730618D01*
X147743644Y-86730618D01*
X147850962Y-86658911D01*
X147863779Y-86650347D01*
X147933400Y-86580725D01*
X147994721Y-86547242D01*
X148064413Y-86552226D01*
X148120347Y-86594097D01*
X148142697Y-86644217D01*
X148164086Y-86751746D01*
X148164088Y-86751754D01*
X148219381Y-86885243D01*
X148219381Y-86885244D01*
X148299651Y-87005377D01*
X148299657Y-87005384D01*
X148401816Y-87107543D01*
X148401819Y-87107545D01*
X148401821Y-87107547D01*
X148521958Y-87187819D01*
X148655446Y-87243112D01*
X148797152Y-87271299D01*
X148797156Y-87271300D01*
X148797157Y-87271300D01*
X148941644Y-87271300D01*
X148941645Y-87271299D01*
X149083354Y-87243112D01*
X149216842Y-87187819D01*
X149216843Y-87187818D01*
X149216844Y-87187818D01*
X149311747Y-87124406D01*
X149336979Y-87107547D01*
X149439147Y-87005379D01*
X149479283Y-86945310D01*
X149519418Y-86885244D01*
X149519418Y-86885243D01*
X149519419Y-86885242D01*
X149574712Y-86751754D01*
X149602900Y-86610043D01*
X149602900Y-86465557D01*
X149574712Y-86323846D01*
X149519419Y-86190358D01*
X149519418Y-86190356D01*
X149519418Y-86190355D01*
X149439148Y-86070222D01*
X149439142Y-86070215D01*
X149336984Y-85968057D01*
X149336977Y-85968051D01*
X149216843Y-85887781D01*
X149083354Y-85832488D01*
X149083346Y-85832486D01*
X148941647Y-85804300D01*
X148941643Y-85804300D01*
X148797157Y-85804300D01*
X148797152Y-85804300D01*
X148655453Y-85832486D01*
X148655445Y-85832488D01*
X148521956Y-85887781D01*
X148521955Y-85887781D01*
X148401822Y-85968051D01*
X148332200Y-86037673D01*
X148270876Y-86071157D01*
X148201185Y-86066172D01*
X148145251Y-86024301D01*
X148122902Y-85974184D01*
X148101512Y-85866646D01*
X148046219Y-85733158D01*
X148046218Y-85733156D01*
X148046218Y-85733155D01*
X147965948Y-85613022D01*
X147965942Y-85613015D01*
X147863784Y-85510857D01*
X147863777Y-85510851D01*
X147743643Y-85430581D01*
X147610154Y-85375288D01*
X147610146Y-85375286D01*
X147468447Y-85347100D01*
X147468443Y-85347100D01*
X147323957Y-85347100D01*
X147323952Y-85347100D01*
X147182253Y-85375286D01*
X147182245Y-85375288D01*
X147048756Y-85430581D01*
X147048755Y-85430581D01*
X146928622Y-85510851D01*
X146928615Y-85510857D01*
X146826457Y-85613015D01*
X146826451Y-85613022D01*
X146746181Y-85733155D01*
X146746181Y-85733156D01*
X146690888Y-85866645D01*
X146690886Y-85866653D01*
X146662700Y-86008352D01*
X145929198Y-86008352D01*
X145942500Y-85941479D01*
X145942500Y-85762521D01*
X145907587Y-85587000D01*
X145839102Y-85421664D01*
X145839100Y-85421661D01*
X145839098Y-85421657D01*
X145739678Y-85272865D01*
X145739675Y-85272861D01*
X145613138Y-85146324D01*
X145613134Y-85146321D01*
X145464342Y-85046901D01*
X145464332Y-85046896D01*
X145299000Y-84978413D01*
X145298992Y-84978411D01*
X145123483Y-84943500D01*
X145123479Y-84943500D01*
X144944521Y-84943500D01*
X144944516Y-84943500D01*
X144769007Y-84978411D01*
X144768999Y-84978413D01*
X144603667Y-85046896D01*
X144603657Y-85046901D01*
X144454865Y-85146321D01*
X144454861Y-85146324D01*
X144328324Y-85272861D01*
X144328321Y-85272865D01*
X144228901Y-85421657D01*
X144228896Y-85421667D01*
X144160413Y-85586999D01*
X144160411Y-85587007D01*
X144125500Y-85762516D01*
X141166671Y-85762516D01*
X141141912Y-85638046D01*
X141086619Y-85504558D01*
X141086618Y-85504556D01*
X141086618Y-85504555D01*
X141006348Y-85384422D01*
X141006342Y-85384415D01*
X140904184Y-85282257D01*
X140904177Y-85282251D01*
X140784043Y-85201981D01*
X140650554Y-85146688D01*
X140650546Y-85146686D01*
X140508847Y-85118500D01*
X140508843Y-85118500D01*
X140364357Y-85118500D01*
X140364352Y-85118500D01*
X140222653Y-85146686D01*
X140222645Y-85146688D01*
X140089159Y-85201980D01*
X139966394Y-85284008D01*
X139899716Y-85304885D01*
X139850051Y-85295466D01*
X139736154Y-85248288D01*
X139736146Y-85248286D01*
X139594447Y-85220100D01*
X139594443Y-85220100D01*
X139449957Y-85220100D01*
X139449952Y-85220100D01*
X139308253Y-85248286D01*
X139308245Y-85248288D01*
X139174750Y-85303584D01*
X139170399Y-85305910D01*
X139101996Y-85320149D01*
X139064500Y-85311110D01*
X138974158Y-85273689D01*
X138974146Y-85273686D01*
X138832447Y-85245500D01*
X138832443Y-85245500D01*
X138687957Y-85245500D01*
X138687952Y-85245500D01*
X138546253Y-85273686D01*
X138546245Y-85273688D01*
X138412756Y-85328981D01*
X138412755Y-85328981D01*
X138292622Y-85409251D01*
X138292615Y-85409257D01*
X138187481Y-85514392D01*
X138126158Y-85547877D01*
X138056466Y-85542893D01*
X138012119Y-85514392D01*
X137957784Y-85460057D01*
X137957777Y-85460051D01*
X137837643Y-85379781D01*
X137704154Y-85324488D01*
X137704146Y-85324486D01*
X137562447Y-85296300D01*
X137562443Y-85296300D01*
X137417957Y-85296300D01*
X137417952Y-85296300D01*
X137276253Y-85324486D01*
X137276245Y-85324488D01*
X137142758Y-85379780D01*
X137101888Y-85407088D01*
X137035211Y-85427964D01*
X136967831Y-85409478D01*
X136964112Y-85407088D01*
X136923241Y-85379780D01*
X136789754Y-85324488D01*
X136789746Y-85324486D01*
X136648047Y-85296300D01*
X136648043Y-85296300D01*
X136503557Y-85296300D01*
X136503552Y-85296300D01*
X136361853Y-85324486D01*
X136361845Y-85324488D01*
X136228356Y-85379781D01*
X136228355Y-85379781D01*
X136108222Y-85460051D01*
X136108215Y-85460057D01*
X136006057Y-85562215D01*
X136006051Y-85562222D01*
X135925781Y-85682355D01*
X135925781Y-85682356D01*
X135870488Y-85815845D01*
X135870486Y-85815853D01*
X135842300Y-85957552D01*
X134644700Y-85957552D01*
X134644700Y-78510516D01*
X146691500Y-78510516D01*
X146691500Y-78689483D01*
X146726411Y-78864992D01*
X146726413Y-78865000D01*
X146794896Y-79030332D01*
X146794901Y-79030342D01*
X146894321Y-79179134D01*
X146894324Y-79179138D01*
X147020861Y-79305675D01*
X147020865Y-79305678D01*
X147169657Y-79405098D01*
X147169661Y-79405100D01*
X147169664Y-79405102D01*
X147335000Y-79473587D01*
X147510516Y-79508499D01*
X147510520Y-79508500D01*
X147510521Y-79508500D01*
X147689480Y-79508500D01*
X147689481Y-79508499D01*
X147865000Y-79473587D01*
X148030336Y-79405102D01*
X148179135Y-79305678D01*
X148305678Y-79179135D01*
X148405102Y-79030336D01*
X148473587Y-78865000D01*
X148508500Y-78689479D01*
X148508500Y-78510521D01*
X148473587Y-78335000D01*
X148405102Y-78169664D01*
X148405100Y-78169661D01*
X148405098Y-78169657D01*
X148305678Y-78020865D01*
X148305675Y-78020861D01*
X148179138Y-77894324D01*
X148179134Y-77894321D01*
X148030342Y-77794901D01*
X148030332Y-77794896D01*
X147865000Y-77726413D01*
X147864992Y-77726411D01*
X147689483Y-77691500D01*
X147689479Y-77691500D01*
X147510521Y-77691500D01*
X147510516Y-77691500D01*
X147335007Y-77726411D01*
X147334999Y-77726413D01*
X147169667Y-77794896D01*
X147169657Y-77794901D01*
X147020865Y-77894321D01*
X147020861Y-77894324D01*
X146894324Y-78020861D01*
X146894321Y-78020865D01*
X146794901Y-78169657D01*
X146794896Y-78169667D01*
X146726413Y-78334999D01*
X146726411Y-78335007D01*
X146691500Y-78510516D01*
X134644700Y-78510516D01*
X134644700Y-77059900D01*
X134664385Y-76992861D01*
X134717189Y-76947106D01*
X134768700Y-76935900D01*
X150470778Y-76935900D01*
X150537817Y-76955585D01*
G37*
%TD.AperFunction*%
%TA.AperFunction,Conductor*%
G36*
X138823046Y-110934072D02*
G01*
X138901846Y-110966712D01*
X138993505Y-110984944D01*
X139043552Y-110994899D01*
X139043556Y-110994900D01*
X139121556Y-110994900D01*
X139188595Y-111014585D01*
X139234350Y-111067389D01*
X139244294Y-111136547D01*
X139215269Y-111200103D01*
X139169009Y-111233461D01*
X139166047Y-111234687D01*
X139166046Y-111234688D01*
X139136079Y-111247101D01*
X139032556Y-111289981D01*
X139032555Y-111289981D01*
X138912422Y-111370251D01*
X138912415Y-111370257D01*
X138863281Y-111419392D01*
X138801958Y-111452877D01*
X138732266Y-111447893D01*
X138676333Y-111406021D01*
X138651916Y-111340557D01*
X138651600Y-111331711D01*
X138651600Y-111048635D01*
X138671285Y-110981596D01*
X138724089Y-110935841D01*
X138793247Y-110925897D01*
X138823046Y-110934072D01*
G37*
%TD.AperFunction*%
%TD*%
M02*
