%TF.GenerationSoftware,KiCad,Pcbnew,9.0.2*%
%TF.CreationDate,2025-07-04T12:48:37+02:00*%
%TF.ProjectId,MicroMod_Processor_Board,4d696372-6f4d-46f6-945f-50726f636573,rev?*%
%TF.SameCoordinates,Original*%
%TF.FileFunction,Copper,L2,Inr*%
%TF.FilePolarity,Positive*%
%FSLAX46Y46*%
G04 Gerber Fmt 4.6, Leading zero omitted, Abs format (unit mm)*
G04 Created by KiCad (PCBNEW 9.0.2) date 2025-07-04 12:48:37*
%MOMM*%
%LPD*%
G01*
G04 APERTURE LIST*
%TA.AperFunction,EtchedComponent*%
%ADD10C,0.101600*%
%TD*%
%TA.AperFunction,EtchedComponent*%
%ADD11C,0.000000*%
%TD*%
%TA.AperFunction,ComponentPad*%
%ADD12C,0.454000*%
%TD*%
%TA.AperFunction,ViaPad*%
%ADD13C,0.450000*%
%TD*%
%TA.AperFunction,ViaPad*%
%ADD14C,0.400000*%
%TD*%
%TA.AperFunction,ViaPad*%
%ADD15C,0.800000*%
%TD*%
%TA.AperFunction,Conductor*%
%ADD16C,1.000000*%
%TD*%
%TA.AperFunction,Conductor*%
%ADD17C,0.127000*%
%TD*%
%TA.AperFunction,Conductor*%
%ADD18C,0.350000*%
%TD*%
%TA.AperFunction,Conductor*%
%ADD19C,0.500000*%
%TD*%
%TA.AperFunction,Conductor*%
%ADD20C,0.250000*%
%TD*%
G04 APERTURE END LIST*
D10*
%TO.C,J1*%
X150397600Y-93375000D02*
X149497600Y-93375000D01*
X150397600Y-93375000D02*
X150397600Y-94475000D01*
X152497600Y-94675000D02*
X152497600Y-95375000D01*
X154597600Y-93375000D02*
X154597600Y-94475000D01*
X154597600Y-93375000D02*
X155497600Y-93375000D01*
D11*
%TA.AperFunction,EtchedComponent*%
G36*
X150669047Y-93191787D02*
G01*
X150794637Y-93453983D01*
X150959697Y-93693304D01*
X151160163Y-93903858D01*
X151391099Y-94080460D01*
X151646818Y-94218761D01*
X151921024Y-94315356D01*
X152206965Y-94367867D01*
X152497600Y-94375000D01*
X153074176Y-94315356D01*
X153348382Y-94218761D01*
X153604101Y-94080460D01*
X153835037Y-93903858D01*
X154035503Y-93693304D01*
X154200563Y-93453983D01*
X154326153Y-93191787D01*
X154409180Y-92913173D01*
X154447600Y-92625000D01*
X155247600Y-92625000D01*
X155078288Y-93343830D01*
X154923384Y-93679928D01*
X154725059Y-93992377D01*
X154486853Y-94275599D01*
X154213018Y-94524540D01*
X153908442Y-94734756D01*
X153578562Y-94902494D01*
X153229266Y-95024760D01*
X152866788Y-95099373D01*
X152497599Y-95124999D01*
X151767977Y-95020308D01*
X151419882Y-94896802D01*
X151091120Y-94728461D01*
X150787435Y-94518226D01*
X150514134Y-94269770D01*
X150275993Y-93987437D01*
X150077173Y-93676158D01*
X149921150Y-93341374D01*
X149810648Y-92988936D01*
X149747600Y-92625001D01*
X149747600Y-92625000D01*
X150547600Y-92625000D01*
X150669047Y-93191787D01*
G37*
%TD.AperFunction*%
%TD*%
D12*
%TO.N,GND*%
%TO.C,J1*%
X150397600Y-93375000D03*
X152497600Y-94675000D03*
X154597600Y-93375000D03*
%TD*%
D13*
%TO.N,/PWM0*%
X147087942Y-104524079D03*
X140350000Y-107750000D03*
%TO.N,/SD_DAT0*%
X140118000Y-106500000D03*
D14*
%TO.N,GND*%
X152050000Y-105200000D03*
D15*
%TO.N,+3.3V*%
X148537184Y-95335000D03*
D13*
%TO.N,/VBAT*%
X139115800Y-110261400D03*
X145753815Y-94842889D03*
%TO.N,GND*%
X138275000Y-89275000D03*
X139982448Y-105317552D03*
X143425000Y-101900000D03*
X145923000Y-104470200D03*
X147590000Y-100550000D03*
X140868400Y-95529400D03*
D14*
X145197500Y-94697500D03*
D15*
X130100000Y-98400000D03*
D13*
X142341600Y-106328672D03*
D15*
X133325000Y-90325000D03*
D13*
X130420000Y-108380000D03*
X152030000Y-109100000D03*
X144576800Y-99720400D03*
X138950000Y-113300000D03*
X140610000Y-92100000D03*
D15*
X130300000Y-100275000D03*
D13*
X132475000Y-96950000D03*
X157937200Y-106121200D03*
D15*
X132401000Y-95990500D03*
D13*
X149360000Y-111280000D03*
D15*
X135000000Y-109125000D03*
D13*
X149625000Y-91350000D03*
X150266400Y-89585800D03*
X159025000Y-99375000D03*
D15*
X133300000Y-91475000D03*
D13*
X140425000Y-100475000D03*
X158875000Y-108000000D03*
D15*
X129275000Y-95600000D03*
D13*
X133292869Y-106998564D03*
X139014200Y-89204800D03*
X143687800Y-99720400D03*
X136930000Y-97700000D03*
X157962600Y-101142800D03*
X147650000Y-89400000D03*
D15*
X139000078Y-94832600D03*
D13*
X142240000Y-102819200D03*
X139220000Y-111160000D03*
D15*
X130800000Y-91578400D03*
D13*
X158700000Y-97800000D03*
X148375000Y-89375000D03*
X132450000Y-97900000D03*
X144925000Y-90200000D03*
X150200000Y-90225000D03*
D15*
X145671116Y-101603884D03*
D13*
X141808200Y-94970600D03*
X136350000Y-98870000D03*
X131800000Y-97400000D03*
D15*
X129768600Y-93243400D03*
D13*
X158800000Y-102275000D03*
X153593800Y-103962200D03*
D15*
X130780018Y-101618973D03*
D13*
X137236200Y-89255600D03*
D15*
X129850000Y-96600000D03*
D13*
X139954000Y-97358200D03*
D15*
X129100000Y-91250000D03*
D13*
X150291800Y-109448600D03*
X132546612Y-98551329D03*
X136144000Y-101400000D03*
X130370000Y-106440000D03*
D15*
X145500000Y-97000000D03*
D13*
X146775000Y-105486200D03*
X129760000Y-106190000D03*
X131900000Y-98225000D03*
X144522242Y-107714842D03*
X158800000Y-103300000D03*
X136525000Y-90975000D03*
X158075000Y-112450000D03*
X140700000Y-101600000D03*
X137425000Y-104975000D03*
D15*
X149733000Y-109250000D03*
D13*
X140512800Y-91516200D03*
D15*
X132423378Y-108544500D03*
X153845499Y-95919230D03*
X132850000Y-92925000D03*
D13*
X148800000Y-103750000D03*
X136360000Y-99730000D03*
D15*
X130425000Y-95550000D03*
D13*
X158075000Y-112950000D03*
X147777200Y-105867200D03*
X148425000Y-90175000D03*
X158800000Y-101175000D03*
X155400000Y-98575000D03*
X155346400Y-96850200D03*
X136170000Y-96950000D03*
X137414000Y-102844600D03*
D15*
X136375000Y-105600000D03*
X141920000Y-99880000D03*
D13*
X136175000Y-103975000D03*
%TO.N,/~{RESET}*%
X148500000Y-96580000D03*
D15*
%TO.N,+3.3V*%
X139051695Y-95928337D03*
X156088100Y-107510000D03*
X138155002Y-95859600D03*
X143336234Y-95805166D03*
X136220000Y-107460000D03*
X133450000Y-109209500D03*
X156680000Y-102890000D03*
X131073637Y-105224644D03*
X147600000Y-78600000D03*
X134980000Y-94210000D03*
D13*
X148417400Y-109499400D03*
X146175000Y-107850000D03*
X147650000Y-107850000D03*
D15*
X140721500Y-96738466D03*
D13*
%TO.N,Net-(C10-Pad1)*%
X152958800Y-96850200D03*
%TO.N,Net-(F1-Pad2)*%
X157734000Y-111760000D03*
X139380000Y-111940000D03*
%TO.N,/A0*%
X151579084Y-108685013D03*
%TO.N,/AUD_BCLK*%
X145600000Y-105250000D03*
%TO.N,/SPI_COPI1*%
X139150000Y-105550000D03*
%TO.N,/UART_CTS1*%
X153650000Y-106500000D03*
X145862500Y-103387500D03*
X137260000Y-100170000D03*
X137236200Y-106654600D03*
D15*
%TO.N,/G11-SWO*%
X145034000Y-85852000D03*
D13*
%TO.N,/G2*%
X146597346Y-110949912D03*
%TO.N,/SWDIO*%
X148869400Y-86537800D03*
X146064127Y-106701694D03*
%TO.N,/I2C_~{INT}*%
X151200000Y-101175000D03*
%TO.N,/AUD_IN-CAM_PCLK*%
X142080000Y-103581200D03*
%TO.N,/AUD_MCLK*%
X141250000Y-104075000D03*
%TO.N,/SPI_SCK1*%
X139100000Y-104550000D03*
%TO.N,/SWDCK*%
X147396200Y-86080600D03*
X148750000Y-107275000D03*
%TO.N,/CAN-RX*%
X148068418Y-106449297D03*
X148150000Y-111120000D03*
%TO.N,/D0*%
X148325000Y-97575000D03*
%TO.N,/~{BOOT}*%
X156825000Y-96775000D03*
%TO.N,/~{SPI_CS1}*%
X136036007Y-102664327D03*
%TO.N,/SPI_MISO*%
X141404896Y-111461056D03*
X140275000Y-94691200D03*
%TO.N,/USB_D-*%
X151964862Y-110933928D03*
X156747600Y-111472600D03*
%TO.N,/I2C_SDA1*%
X144190000Y-101660000D03*
X144450000Y-111140000D03*
%TO.N,/I2C_SCL*%
X151500000Y-100675000D03*
%TO.N,/CAN-TX*%
X146990978Y-106045489D03*
X147140000Y-111260000D03*
%TO.N,/I2C_SDA*%
X151433576Y-99216424D03*
%TO.N,/SPI_CIPO1*%
X138731892Y-104991729D03*
%TO.N,/UART_RTS1*%
X140000000Y-100050000D03*
X138780000Y-103400000D03*
X143550000Y-101300000D03*
X154381200Y-104622600D03*
%TO.N,/UART_RX2*%
X144154870Y-106987112D03*
%TO.N,/A1*%
X150940000Y-108680000D03*
%TO.N,/UART_RX1*%
X138970000Y-103980000D03*
X147525000Y-103025000D03*
X152806400Y-106629200D03*
X140875000Y-100924745D03*
%TO.N,/BATT_VIN*%
X141478000Y-97282000D03*
X145620000Y-111000000D03*
%TO.N,/G3*%
X146150000Y-111390000D03*
%TO.N,/SPI_MOSI*%
X140830000Y-111450000D03*
X139769251Y-94964779D03*
%TO.N,/D1-CAM_TRIG*%
X148850000Y-102950000D03*
%TO.N,/UART_TX2*%
X145493216Y-106633222D03*
%TO.N,/G1*%
X147494052Y-106422252D03*
%TO.N,/AUD_OUT-CAM_MCLK*%
X141427200Y-103428800D03*
%TO.N,/USB_D+*%
X152000000Y-110360000D03*
X156845577Y-110906006D03*
%TO.N,/G0*%
X147330461Y-105045436D03*
%TO.N,/SPI_SCK*%
X141950000Y-106750000D03*
X143430000Y-110720000D03*
%TO.N,/AUD_LRCLK*%
X145338800Y-104724200D03*
%TO.N,/UART_TX1*%
X153873200Y-105079800D03*
X139870828Y-107019163D03*
%TO.N,/I2C_SCL1*%
X143925000Y-102350000D03*
X144280000Y-110400000D03*
%TO.N,/SD_CLK*%
X147130000Y-101430000D03*
%TO.N,/SD_DAT1*%
X139300000Y-106950000D03*
%TO.N,/SD_DAT3*%
X148137000Y-99695000D03*
%TO.N,/SD_CMD*%
X148150000Y-101380000D03*
%TO.N,/SD_DAT2*%
X148610000Y-100520000D03*
%TO.N,/BT_HOST_WAKE*%
X131080000Y-104220000D03*
X135636000Y-93294200D03*
%TO.N,/BT_REG_ON*%
X133330000Y-104370000D03*
X134325000Y-93650000D03*
%TO.N,/WIFI_SDIO_DAT1*%
X152654000Y-103784400D03*
X143951634Y-107525000D03*
%TO.N,/WIFI_SDIO_DAT0*%
X154035200Y-103174800D03*
X143487134Y-107922573D03*
%TO.N,/WL_GPIO_0_HOST_WAKE*%
X155500000Y-97700000D03*
X157657800Y-100355400D03*
%TO.N,/TRACE_CLK*%
X148625000Y-92550000D03*
X140436600Y-85852000D03*
%TO.N,/TRACE_D3*%
X146276376Y-92789892D03*
X136575800Y-86029800D03*
%TO.N,/TRACE_D2*%
X137490200Y-86029800D03*
X146826172Y-92621509D03*
%TO.N,/TRACE_D1*%
X138760200Y-85979000D03*
X147375000Y-92450000D03*
%TO.N,/TRACE_D0*%
X139522200Y-85953600D03*
X148050000Y-92400000D03*
%TO.N,/BOOT0*%
X155400000Y-94825000D03*
%TO.N,/USB_VIN*%
X139775000Y-92575000D03*
%TO.N,Net-(J1-USB_VIN)*%
X154875000Y-110750000D03*
%TD*%
D16*
%TO.N,+3.3V*%
X148537184Y-95335000D02*
X148382184Y-95490000D01*
X146001486Y-96100000D02*
X145910486Y-96009000D01*
X148382184Y-95490000D02*
X147980000Y-95490000D01*
X143631068Y-96100000D02*
X143336234Y-95805166D01*
X147980000Y-95490000D02*
X147370000Y-96100000D01*
X145910486Y-96009000D02*
X145089514Y-96009000D01*
X147370000Y-96100000D02*
X146001486Y-96100000D01*
X145089514Y-96009000D02*
X144998514Y-96100000D01*
X144998514Y-96100000D02*
X143631068Y-96100000D01*
D17*
%TO.N,GND*%
X148800000Y-103750000D02*
X146710000Y-103750000D01*
X146710000Y-103750000D02*
X146320000Y-104140000D01*
D18*
%TO.N,/BATT_VIN*%
X145194000Y-107920616D02*
X145048242Y-107774858D01*
X145048242Y-107496965D02*
X144944000Y-107392723D01*
X145620000Y-111000000D02*
X145194000Y-110574000D01*
X142675000Y-98475000D02*
X142650000Y-98475000D01*
X145194000Y-110574000D02*
X145194000Y-107920616D01*
X142875000Y-104850000D02*
X142875000Y-98675000D01*
X142875000Y-98675000D02*
X142675000Y-98475000D01*
X144944000Y-107392723D02*
X144944000Y-106675000D01*
X144944000Y-106675000D02*
X143544000Y-105275000D01*
X145048242Y-107774858D02*
X145048242Y-107496965D01*
X143544000Y-105275000D02*
X143300000Y-105275000D01*
X142650000Y-98475000D02*
X141478000Y-97303000D01*
X143300000Y-105275000D02*
X142875000Y-104850000D01*
X141478000Y-97303000D02*
X141478000Y-97282000D01*
D17*
%TO.N,GND*%
X144128950Y-106375000D02*
X143350000Y-106375000D01*
X144569370Y-106815420D02*
X144128950Y-106375000D01*
X144569370Y-107667714D02*
X144569370Y-106815420D01*
X144522242Y-107714842D02*
X144569370Y-107667714D01*
X146950000Y-105311200D02*
X146950000Y-105251167D01*
X146775000Y-105486200D02*
X146950000Y-105311200D01*
X146950000Y-105251167D02*
X146915961Y-105217128D01*
X148125000Y-104650000D02*
X148675000Y-104100000D01*
D19*
X145923000Y-104470200D02*
X146037300Y-104584500D01*
X146201000Y-104912200D02*
X146775000Y-105486200D01*
X146037300Y-104584500D02*
X146037300Y-104661300D01*
X146037300Y-104661300D02*
X146201000Y-104825000D01*
X146201000Y-104825000D02*
X146201000Y-104912200D01*
D17*
X148800000Y-103750000D02*
X148675000Y-103875000D01*
X148675000Y-103875000D02*
X148675000Y-104100000D01*
X148031200Y-105613200D02*
X147777200Y-105867200D01*
X148675000Y-104100000D02*
X148031200Y-104743800D01*
X148031200Y-104743800D02*
X148031200Y-105613200D01*
X138480800Y-106273600D02*
X137807200Y-105600000D01*
X142494500Y-103752892D02*
X142494500Y-103073700D01*
X140444896Y-105780000D02*
X140527200Y-105780000D01*
X140527200Y-105780000D02*
X141274800Y-106527600D01*
X141122400Y-106680000D02*
X141122400Y-109257600D01*
X141122400Y-109257600D02*
X139790000Y-110590000D01*
X141274800Y-106527600D02*
X141122400Y-106680000D01*
X139982448Y-105317552D02*
X139982448Y-105927552D01*
X139982448Y-105317552D02*
X140444896Y-105780000D01*
X139982448Y-105927552D02*
X139636400Y-106273600D01*
X139636400Y-106273600D02*
X138480800Y-106273600D01*
X137807200Y-105600000D02*
X136375000Y-105600000D01*
X140444896Y-105780000D02*
X140467392Y-105780000D01*
X140467392Y-105780000D02*
X142494500Y-103752892D01*
X142494500Y-103073700D02*
X142240000Y-102819200D01*
X146320000Y-101010000D02*
X146320000Y-104140000D01*
X148492500Y-106250308D02*
X148492500Y-106904500D01*
X149092800Y-99407200D02*
X149292800Y-99407200D01*
X147628451Y-107171549D02*
X145700000Y-109100000D01*
D20*
X145197500Y-94697500D02*
X145771000Y-94124000D01*
D18*
X145902827Y-93950000D02*
X145197500Y-94655327D01*
D17*
X147950000Y-100550000D02*
X149092800Y-99407200D01*
X138950000Y-111430000D02*
X139220000Y-111160000D01*
X145923000Y-106031414D02*
X146100800Y-106031414D01*
X147433000Y-100393000D02*
X147590000Y-100550000D01*
X147125000Y-93950000D02*
X147125000Y-94175000D01*
D19*
X146100800Y-105853614D02*
X146100800Y-106031414D01*
D17*
X135000000Y-109125000D02*
X133990600Y-110134400D01*
X149479000Y-100821000D02*
X148912600Y-101387400D01*
X145530760Y-95293000D02*
X145277815Y-95040055D01*
X147600000Y-110400000D02*
X147700000Y-110400000D01*
X147628451Y-107171549D02*
X147952351Y-107495449D01*
X146780000Y-100550000D02*
X146320000Y-101010000D01*
X147433000Y-98933000D02*
X147433000Y-100393000D01*
X148100000Y-112200000D02*
X145300000Y-112200000D01*
X148492500Y-106904500D02*
X147952351Y-107444649D01*
X147213102Y-106756200D02*
X147628451Y-107171549D01*
X148100000Y-112200000D02*
X147900000Y-112200000D01*
X147590000Y-100550000D02*
X147974500Y-100934500D01*
X147900000Y-112200000D02*
X147600000Y-111900000D01*
X138950000Y-113300000D02*
X138950000Y-112500000D01*
X145799538Y-94124000D02*
X145799538Y-90424538D01*
X144923000Y-104470200D02*
X144579800Y-104470200D01*
X147777200Y-105867200D02*
X147523200Y-105613200D01*
X145500000Y-97000000D02*
X147433000Y-98933000D01*
X147952351Y-107495449D02*
X149905503Y-109448600D01*
X146320000Y-104140000D02*
X145989800Y-104470200D01*
X145752000Y-104470200D02*
X145752000Y-104440808D01*
X139790000Y-110590000D02*
X139220000Y-111160000D01*
X144579800Y-104470200D02*
X144340000Y-104710000D01*
X145165808Y-104198000D02*
X144923000Y-104440808D01*
X149479000Y-100800000D02*
X149479000Y-101828600D01*
X148459700Y-100934500D02*
X148912600Y-101387400D01*
X145025000Y-90300000D02*
X144925000Y-90200000D01*
X147974500Y-100934500D02*
X148459700Y-100934500D01*
X152908000Y-104648000D02*
X153593800Y-103962200D01*
X149479000Y-100800000D02*
X149479000Y-100821000D01*
X145799538Y-90424538D02*
X145675000Y-90300000D01*
X132423378Y-109842778D02*
X132423378Y-108544500D01*
X144340000Y-104710000D02*
X145661414Y-106031414D01*
D18*
X148500000Y-93900000D02*
X148000000Y-93900000D01*
D17*
X143844500Y-111455500D02*
X142800000Y-112500000D01*
X148440000Y-112200000D02*
X148100000Y-112200000D01*
D18*
X148000000Y-93900000D02*
X147700000Y-93600000D01*
D17*
X147433000Y-98933000D02*
X148818600Y-98933000D01*
X145277815Y-94645723D02*
X145799538Y-94124000D01*
D18*
X149625000Y-92371418D02*
X149481600Y-92514818D01*
D17*
X132715000Y-110134400D02*
X132423378Y-109842778D01*
X145661414Y-106031414D02*
X145923000Y-106031414D01*
X145700000Y-110300000D02*
X145800000Y-110400000D01*
X139790000Y-110590000D02*
X139790000Y-110990000D01*
X147590000Y-100550000D02*
X147950000Y-100550000D01*
D18*
X147350000Y-93950000D02*
X147125000Y-93950000D01*
D17*
X145700000Y-109100000D02*
X145700000Y-110300000D01*
X148109392Y-105867200D02*
X148492500Y-106250308D01*
X147700000Y-110400000D02*
X148583000Y-110400000D01*
D18*
X149481600Y-92514818D02*
X149481600Y-92918400D01*
D17*
X146100800Y-106031414D02*
X146320000Y-106031414D01*
X148818600Y-98933000D02*
X149292800Y-99407200D01*
X139696878Y-95529400D02*
X139000078Y-94832600D01*
X145300000Y-112200000D02*
X144864500Y-111764500D01*
X149479000Y-101828600D02*
X152298400Y-104648000D01*
X146724000Y-94576000D02*
X146724000Y-94876000D01*
X146320000Y-106031414D02*
X146320000Y-106315000D01*
X147590000Y-100550000D02*
X146780000Y-100550000D01*
X144923000Y-104440808D02*
X144923000Y-104470200D01*
X145509192Y-104198000D02*
X145165808Y-104198000D01*
X148583000Y-110400000D02*
X149733000Y-109250000D01*
X138950000Y-112500000D02*
X138950000Y-111430000D01*
X140868400Y-95529400D02*
X139696878Y-95529400D01*
D18*
X145197500Y-94655327D02*
X145197500Y-94697500D01*
D19*
X146201000Y-105753414D02*
X146100800Y-105853614D01*
D17*
X143844500Y-108392584D02*
X143844500Y-111455500D01*
X142800000Y-112500000D02*
X140200000Y-112500000D01*
X147125000Y-94175000D02*
X146724000Y-94576000D01*
X147600000Y-111900000D02*
X147600000Y-110400000D01*
X146307000Y-95293000D02*
X145530760Y-95293000D01*
X149353800Y-101828600D02*
X149479000Y-101828600D01*
D18*
X147125000Y-93950000D02*
X145902827Y-93950000D01*
D17*
X148912600Y-101387400D02*
X149353800Y-101828600D01*
X147777200Y-105867200D02*
X148109392Y-105867200D01*
D18*
X149481600Y-92918400D02*
X148500000Y-93900000D01*
D17*
X146761200Y-106756200D02*
X147213102Y-106756200D01*
X144864500Y-108057100D02*
X144522242Y-107714842D01*
X145675000Y-90300000D02*
X145025000Y-90300000D01*
X145800000Y-110400000D02*
X147700000Y-110400000D01*
X149479000Y-99593400D02*
X149479000Y-100800000D01*
D19*
X146201000Y-104748200D02*
X146201000Y-105753414D01*
D17*
X149360000Y-111280000D02*
X148440000Y-112200000D01*
X152298400Y-104648000D02*
X152908000Y-104648000D01*
X145277815Y-95040055D02*
X145277815Y-94645723D01*
X140200000Y-111400000D02*
X140200000Y-112500000D01*
X146724000Y-94876000D02*
X146307000Y-95293000D01*
X133990600Y-110134400D02*
X132715000Y-110134400D01*
X149292800Y-99407200D02*
X149479000Y-99593400D01*
X139790000Y-110990000D02*
X140200000Y-111400000D01*
X145989800Y-104470200D02*
X145752000Y-104470200D01*
X144864500Y-111764500D02*
X144864500Y-108057100D01*
X149905503Y-109448600D02*
X150400000Y-109448600D01*
D18*
X147700000Y-93600000D02*
X147350000Y-93950000D01*
D17*
X145752000Y-104440808D02*
X145509192Y-104198000D01*
X146320000Y-106315000D02*
X146761200Y-106756200D01*
D19*
X145923000Y-104470200D02*
X146201000Y-104748200D01*
D17*
X140200000Y-112500000D02*
X138950000Y-112500000D01*
X144522242Y-107714842D02*
X143844500Y-108392584D01*
X147952351Y-107444649D02*
X147952351Y-107495449D01*
X147523200Y-105613200D02*
X146320000Y-105613200D01*
D18*
X149625000Y-91350000D02*
X149625000Y-92371418D01*
D16*
%TO.N,+3.3V*%
X143281400Y-95860000D02*
X143336234Y-95805166D01*
X140537762Y-96738466D02*
X140818038Y-96738466D01*
X139068339Y-95928337D02*
X139647202Y-96507200D01*
X142552000Y-95860000D02*
X143281400Y-95860000D01*
X141125504Y-96431000D02*
X141830496Y-96431000D01*
X139647202Y-96507200D02*
X140306496Y-96507200D01*
X140306496Y-96507200D02*
X140537762Y-96738466D01*
X141830496Y-96431000D02*
X141905748Y-96506252D01*
D18*
X139051695Y-95928337D02*
X138223739Y-95928337D01*
X138223739Y-95928337D02*
X138155002Y-95859600D01*
D16*
X141905748Y-96506252D02*
X142552000Y-95860000D01*
X139051695Y-95928337D02*
X139068339Y-95928337D01*
X140818038Y-96738466D02*
X141125504Y-96431000D01*
%TD*%
%TA.AperFunction,Conductor*%
%TO.N,GND*%
G36*
X150537817Y-76955585D02*
G01*
X150583572Y-77008389D01*
X150594778Y-77059914D01*
X150593719Y-86776812D01*
X150574027Y-86843849D01*
X150521218Y-86889598D01*
X150491252Y-86898914D01*
X150376784Y-86919098D01*
X150191726Y-86986454D01*
X150191721Y-86986456D01*
X150021175Y-87084921D01*
X150021172Y-87084924D01*
X149870310Y-87211510D01*
X149743724Y-87362372D01*
X149743721Y-87362375D01*
X149645256Y-87532921D01*
X149645254Y-87532926D01*
X149577898Y-87717985D01*
X149543700Y-87911929D01*
X149543700Y-88108870D01*
X149577898Y-88302814D01*
X149607202Y-88383325D01*
X149631681Y-88450583D01*
X149645254Y-88487873D01*
X149645256Y-88487878D01*
X149743721Y-88658424D01*
X149743724Y-88658427D01*
X149870310Y-88809289D01*
X149979351Y-88900784D01*
X149986759Y-88907000D01*
X150021172Y-88935875D01*
X150021175Y-88935878D01*
X150125770Y-88996266D01*
X150191726Y-89034346D01*
X150376787Y-89101702D01*
X150491784Y-89121979D01*
X150521232Y-89136573D01*
X150551173Y-89150138D01*
X150552386Y-89152013D01*
X150554387Y-89153005D01*
X150571272Y-89181207D01*
X150589124Y-89208803D01*
X150589556Y-89211746D01*
X150590278Y-89212952D01*
X150594251Y-89243722D01*
X150594722Y-89400419D01*
X150594230Y-89406347D01*
X150594761Y-89425674D01*
X150594807Y-89428694D01*
X150594866Y-89447994D01*
X150595536Y-89453889D01*
X150672176Y-92242093D01*
X150654341Y-92309648D01*
X150602814Y-92356836D01*
X150548223Y-92369500D01*
X149747597Y-92369500D01*
X149649828Y-92388947D01*
X149649821Y-92388950D01*
X149566934Y-92444333D01*
X149566933Y-92444334D01*
X149511550Y-92527221D01*
X149511547Y-92527228D01*
X149492100Y-92624995D01*
X149492100Y-92625001D01*
X149495850Y-92668618D01*
X149541894Y-92934400D01*
X149533942Y-93003815D01*
X149489723Y-93057912D01*
X149451809Y-93075340D01*
X149381307Y-93094231D01*
X149381302Y-93094233D01*
X149312598Y-93133899D01*
X149312595Y-93133901D01*
X149256501Y-93189995D01*
X149256499Y-93189998D01*
X149216833Y-93258702D01*
X149213938Y-93269506D01*
X149196300Y-93335333D01*
X149196300Y-93414667D01*
X149216833Y-93491297D01*
X149256500Y-93560003D01*
X149312597Y-93616100D01*
X149381303Y-93655767D01*
X149457933Y-93676300D01*
X149652648Y-93676300D01*
X149693931Y-93683374D01*
X149770166Y-93710290D01*
X149791584Y-93725743D01*
X149814985Y-93737984D01*
X149821812Y-93747552D01*
X149826827Y-93751171D01*
X149829813Y-93758767D01*
X149841274Y-93774830D01*
X149845588Y-93784086D01*
X149851564Y-93794967D01*
X149861843Y-93813683D01*
X149861847Y-93813689D01*
X149861848Y-93813691D01*
X149874523Y-93833536D01*
X150060661Y-94124960D01*
X150060665Y-94124966D01*
X150060668Y-94124970D01*
X150072161Y-94140584D01*
X150096051Y-94206241D01*
X150096300Y-94214093D01*
X150096300Y-94514667D01*
X150116833Y-94591297D01*
X150156500Y-94660003D01*
X150212597Y-94716100D01*
X150281303Y-94755767D01*
X150357933Y-94776300D01*
X150357935Y-94776300D01*
X150437264Y-94776300D01*
X150437267Y-94776300D01*
X150513897Y-94755767D01*
X150537372Y-94742213D01*
X150605270Y-94725739D01*
X150669952Y-94747645D01*
X150945691Y-94938534D01*
X150956550Y-94945034D01*
X150974678Y-94955885D01*
X151303438Y-95124225D01*
X151334419Y-95137584D01*
X151334433Y-95137589D01*
X151334447Y-95137595D01*
X151682542Y-95261101D01*
X151731688Y-95273218D01*
X152094474Y-95325273D01*
X152158038Y-95354280D01*
X152195829Y-95413047D01*
X152196627Y-95415887D01*
X152216833Y-95491297D01*
X152256500Y-95560003D01*
X152312597Y-95616100D01*
X152381303Y-95655767D01*
X152457933Y-95676300D01*
X152457935Y-95676300D01*
X152537264Y-95676300D01*
X152537267Y-95676300D01*
X152613897Y-95655767D01*
X152682603Y-95616100D01*
X152738700Y-95560003D01*
X152778367Y-95491297D01*
X152791119Y-95443704D01*
X152827482Y-95384046D01*
X152890329Y-95353516D01*
X152893993Y-95352956D01*
X152918301Y-95349626D01*
X153280779Y-95275013D01*
X153313678Y-95265913D01*
X153662974Y-95143647D01*
X153694368Y-95130242D01*
X153694377Y-95130237D01*
X153694385Y-95130234D01*
X154024238Y-94962509D01*
X154024248Y-94962504D01*
X154053574Y-94945034D01*
X154333189Y-94752045D01*
X154399540Y-94730167D01*
X154465620Y-94746712D01*
X154481303Y-94755767D01*
X154557933Y-94776300D01*
X154557935Y-94776300D01*
X154637264Y-94776300D01*
X154637267Y-94776300D01*
X154713897Y-94755767D01*
X154738499Y-94741562D01*
X154806399Y-94725089D01*
X154872426Y-94747941D01*
X154915617Y-94802862D01*
X154924500Y-94848949D01*
X154924500Y-94887601D01*
X154956905Y-95008536D01*
X155019505Y-95116964D01*
X155108036Y-95205495D01*
X155216464Y-95268095D01*
X155337399Y-95300500D01*
X155337401Y-95300500D01*
X155462599Y-95300500D01*
X155462601Y-95300500D01*
X155583536Y-95268095D01*
X155691964Y-95205495D01*
X155780495Y-95116964D01*
X155843095Y-95008536D01*
X155875500Y-94887601D01*
X155875500Y-94762399D01*
X155843095Y-94641464D01*
X155780495Y-94533036D01*
X155691964Y-94444505D01*
X155583536Y-94381905D01*
X155583537Y-94381905D01*
X155529362Y-94367389D01*
X155462601Y-94349500D01*
X155337399Y-94349500D01*
X155270638Y-94367389D01*
X155216463Y-94381905D01*
X155108037Y-94444504D01*
X155101591Y-94449451D01*
X155100194Y-94447631D01*
X155091144Y-94452572D01*
X155074411Y-94467073D01*
X155061079Y-94468989D01*
X155049258Y-94475445D01*
X155027171Y-94473865D01*
X155005253Y-94477017D01*
X154993001Y-94471421D01*
X154979566Y-94470461D01*
X154961839Y-94457190D01*
X154941697Y-94447992D01*
X154934414Y-94436660D01*
X154923633Y-94428589D01*
X154915895Y-94407843D01*
X154903923Y-94389214D01*
X154900771Y-94367295D01*
X154899216Y-94363125D01*
X154898900Y-94354279D01*
X154898900Y-94227009D01*
X154918585Y-94159970D01*
X154922862Y-94153740D01*
X154940773Y-94129300D01*
X155139098Y-93816851D01*
X155155425Y-93786873D01*
X155161462Y-93773773D01*
X155207396Y-93721128D01*
X155230992Y-93709398D01*
X155299462Y-93684026D01*
X155319278Y-93682651D01*
X155338125Y-93676379D01*
X155342548Y-93676300D01*
X155537264Y-93676300D01*
X155537267Y-93676300D01*
X155613897Y-93655767D01*
X155682603Y-93616100D01*
X155738700Y-93560003D01*
X155778367Y-93491297D01*
X155798900Y-93414667D01*
X155798900Y-93335333D01*
X155778367Y-93258703D01*
X155738700Y-93189997D01*
X155682603Y-93133900D01*
X155613897Y-93094233D01*
X155537267Y-93073700D01*
X155537265Y-93073700D01*
X155529416Y-93071597D01*
X155530267Y-93068419D01*
X155480381Y-93046303D01*
X155441955Y-92987949D01*
X155439839Y-92923264D01*
X155440810Y-92919143D01*
X155496295Y-92683577D01*
X155503100Y-92625000D01*
X155500001Y-92609418D01*
X155496001Y-92589308D01*
X155502228Y-92519716D01*
X155545092Y-92464539D01*
X155610982Y-92441295D01*
X155617618Y-92441117D01*
X158492027Y-92441117D01*
X158506811Y-92442001D01*
X158666652Y-92461197D01*
X158689667Y-92466214D01*
X158833965Y-92512400D01*
X158838974Y-92514003D01*
X158860624Y-92523281D01*
X158998200Y-92598443D01*
X159017703Y-92611647D01*
X159109034Y-92687069D01*
X159138583Y-92711470D01*
X159155240Y-92728128D01*
X159255060Y-92849009D01*
X159268265Y-92868513D01*
X159343427Y-93006094D01*
X159352703Y-93027738D01*
X159400489Y-93177045D01*
X159405506Y-93200061D01*
X159424716Y-93360052D01*
X159425600Y-93374834D01*
X159425600Y-109755244D01*
X159424451Y-109772087D01*
X159411557Y-109866136D01*
X159405076Y-109892120D01*
X159373948Y-109976702D01*
X159362039Y-110000687D01*
X159313481Y-110076608D01*
X159296700Y-110097479D01*
X159232967Y-110161210D01*
X159212096Y-110177990D01*
X159136172Y-110226547D01*
X159112186Y-110238455D01*
X159027606Y-110269579D01*
X159001620Y-110276060D01*
X158905454Y-110289240D01*
X158892092Y-110290339D01*
X158864231Y-110291119D01*
X158854360Y-110293187D01*
X158833681Y-110294657D01*
X158713985Y-110329282D01*
X158713982Y-110329283D01*
X158650145Y-110363611D01*
X158604236Y-110388299D01*
X158604234Y-110388300D01*
X158604233Y-110388301D01*
X158509346Y-110469069D01*
X158433560Y-110567981D01*
X158433558Y-110567985D01*
X158380260Y-110680615D01*
X158351832Y-110801926D01*
X158351831Y-110801939D01*
X158351184Y-110835035D01*
X158350893Y-110849890D01*
X158350600Y-110850599D01*
X158350600Y-110864936D01*
X158350332Y-110879504D01*
X158349884Y-110903882D01*
X158350600Y-110908682D01*
X158350600Y-111414207D01*
X158330915Y-111481246D01*
X158278111Y-111527001D01*
X158208953Y-111536945D01*
X158145397Y-111507920D01*
X158119213Y-111476207D01*
X158114497Y-111468039D01*
X158114493Y-111468034D01*
X158025965Y-111379506D01*
X158025964Y-111379505D01*
X157917536Y-111316905D01*
X157917537Y-111316905D01*
X157867643Y-111303536D01*
X157796601Y-111284500D01*
X157671399Y-111284500D01*
X157600357Y-111303536D01*
X157550463Y-111316905D01*
X157442037Y-111379504D01*
X157414789Y-111406752D01*
X157409461Y-111409660D01*
X157406060Y-111414687D01*
X157379155Y-111426208D01*
X157353465Y-111440236D01*
X157347410Y-111439802D01*
X157341832Y-111442192D01*
X157312970Y-111437338D01*
X157283774Y-111435250D01*
X157278914Y-111431612D01*
X157272930Y-111430606D01*
X157251272Y-111410919D01*
X157227841Y-111393378D01*
X157224571Y-111386647D01*
X157221229Y-111383609D01*
X157207335Y-111351164D01*
X157197490Y-111314423D01*
X157197450Y-111314273D01*
X157199111Y-111244426D01*
X157222743Y-111205663D01*
X157221123Y-111204420D01*
X157226071Y-111197971D01*
X157226072Y-111197970D01*
X157288672Y-111089542D01*
X157321077Y-110968607D01*
X157321077Y-110843405D01*
X157288672Y-110722470D01*
X157226072Y-110614042D01*
X157137541Y-110525511D01*
X157029113Y-110462911D01*
X157029114Y-110462911D01*
X156969166Y-110446848D01*
X156908178Y-110430506D01*
X156782976Y-110430506D01*
X156721988Y-110446848D01*
X156662040Y-110462911D01*
X156553614Y-110525510D01*
X156553611Y-110525512D01*
X156465083Y-110614040D01*
X156465081Y-110614043D01*
X156402482Y-110722469D01*
X156391954Y-110761760D01*
X156370077Y-110843405D01*
X156370077Y-110968607D01*
X156394470Y-111059640D01*
X156395727Y-111064331D01*
X156394064Y-111134181D01*
X156370439Y-111172948D01*
X156372053Y-111174186D01*
X156367108Y-111180629D01*
X156304505Y-111289063D01*
X156297710Y-111314421D01*
X156272100Y-111409999D01*
X156272100Y-111535201D01*
X156304505Y-111656136D01*
X156367105Y-111764564D01*
X156455636Y-111853095D01*
X156564064Y-111915695D01*
X156684999Y-111948100D01*
X156685001Y-111948100D01*
X156810199Y-111948100D01*
X156810201Y-111948100D01*
X156931136Y-111915695D01*
X157039564Y-111853095D01*
X157066811Y-111825847D01*
X157128130Y-111792364D01*
X157197822Y-111797348D01*
X157253756Y-111839218D01*
X157274264Y-111881435D01*
X157290903Y-111943531D01*
X157290905Y-111943536D01*
X157353505Y-112051964D01*
X157442036Y-112140495D01*
X157550464Y-112203095D01*
X157671399Y-112235500D01*
X157671401Y-112235500D01*
X157796599Y-112235500D01*
X157796601Y-112235500D01*
X157917536Y-112203095D01*
X158025964Y-112140495D01*
X158114495Y-112051964D01*
X158119211Y-112043794D01*
X158169777Y-111995578D01*
X158238384Y-111982353D01*
X158303249Y-112008320D01*
X158343779Y-112065233D01*
X158350600Y-112105792D01*
X158350600Y-114166117D01*
X158330915Y-114233156D01*
X158278111Y-114278911D01*
X158226600Y-114290117D01*
X151925600Y-114290117D01*
X151858561Y-114270432D01*
X151812806Y-114217628D01*
X151801600Y-114166117D01*
X151801600Y-111533428D01*
X151821285Y-111466389D01*
X151874089Y-111420634D01*
X151925600Y-111409428D01*
X152027461Y-111409428D01*
X152027463Y-111409428D01*
X152148398Y-111377023D01*
X152256826Y-111314423D01*
X152345357Y-111225892D01*
X152407957Y-111117464D01*
X152440362Y-110996529D01*
X152440362Y-110871327D01*
X152407957Y-110750392D01*
X152402691Y-110741270D01*
X152401615Y-110739407D01*
X152388991Y-110687399D01*
X154399500Y-110687399D01*
X154399500Y-110812601D01*
X154431905Y-110933536D01*
X154494505Y-111041964D01*
X154583036Y-111130495D01*
X154691464Y-111193095D01*
X154812399Y-111225500D01*
X154812401Y-111225500D01*
X154937599Y-111225500D01*
X154937601Y-111225500D01*
X155058536Y-111193095D01*
X155166964Y-111130495D01*
X155255495Y-111041964D01*
X155318095Y-110933536D01*
X155350500Y-110812601D01*
X155350500Y-110687399D01*
X155318095Y-110566464D01*
X155255495Y-110458036D01*
X155166964Y-110369505D01*
X155058536Y-110306905D01*
X155058537Y-110306905D01*
X155012827Y-110294657D01*
X154937601Y-110274500D01*
X154812399Y-110274500D01*
X154737173Y-110294657D01*
X154691463Y-110306905D01*
X154583037Y-110369504D01*
X154583034Y-110369506D01*
X154494506Y-110458034D01*
X154494504Y-110458037D01*
X154431905Y-110566463D01*
X154431113Y-110569418D01*
X154399500Y-110687399D01*
X152388991Y-110687399D01*
X152385134Y-110671509D01*
X152401604Y-110615399D01*
X152443095Y-110543536D01*
X152475500Y-110422601D01*
X152475500Y-110297399D01*
X152443095Y-110176464D01*
X152380495Y-110068036D01*
X152291964Y-109979505D01*
X152183536Y-109916905D01*
X152183537Y-109916905D01*
X152143224Y-109906103D01*
X152062601Y-109884500D01*
X151937399Y-109884500D01*
X151856775Y-109906103D01*
X151816463Y-109916905D01*
X151708037Y-109979504D01*
X151708034Y-109979506D01*
X151619506Y-110068034D01*
X151619504Y-110068037D01*
X151556905Y-110176463D01*
X151556905Y-110176464D01*
X151524500Y-110297399D01*
X151524500Y-110422601D01*
X151538701Y-110475600D01*
X151556905Y-110543537D01*
X151556906Y-110543538D01*
X151563254Y-110554533D01*
X151565746Y-110564805D01*
X151572077Y-110573274D01*
X151573841Y-110598174D01*
X151579727Y-110622434D01*
X151576399Y-110634270D01*
X151577016Y-110642969D01*
X151565823Y-110671893D01*
X151564661Y-110676030D01*
X151563973Y-110677286D01*
X151521767Y-110750392D01*
X151519627Y-110758377D01*
X151512494Y-110771421D01*
X151497854Y-110786041D01*
X151487080Y-110803705D01*
X151473632Y-110810232D01*
X151463057Y-110820794D01*
X151442839Y-110825178D01*
X151424224Y-110834214D01*
X151409380Y-110832434D01*
X151394774Y-110835602D01*
X151375395Y-110828360D01*
X151357230Y-110826182D01*
X151357192Y-110826291D01*
X151356699Y-110826118D01*
X151354851Y-110825897D01*
X151350799Y-110824054D01*
X151350620Y-110823991D01*
X151202212Y-110790117D01*
X151202211Y-110790117D01*
X151049989Y-110790117D01*
X151049987Y-110790117D01*
X150901580Y-110823991D01*
X150764442Y-110890033D01*
X150764437Y-110890036D01*
X150645427Y-110984944D01*
X150550519Y-111103954D01*
X150550516Y-111103959D01*
X150484474Y-111241097D01*
X150450600Y-111389504D01*
X150450600Y-114166117D01*
X150430915Y-114233156D01*
X150378111Y-114278911D01*
X150326600Y-114290117D01*
X138775600Y-114290117D01*
X138708561Y-114270432D01*
X138662806Y-114217628D01*
X138651600Y-114166117D01*
X138651600Y-111877399D01*
X138904500Y-111877399D01*
X138904500Y-112002601D01*
X138936905Y-112123536D01*
X138999505Y-112231964D01*
X139088036Y-112320495D01*
X139196464Y-112383095D01*
X139317399Y-112415500D01*
X139317401Y-112415500D01*
X139442599Y-112415500D01*
X139442601Y-112415500D01*
X139563536Y-112383095D01*
X139671964Y-112320495D01*
X139760495Y-112231964D01*
X139823095Y-112123536D01*
X139855500Y-112002601D01*
X139855500Y-111877399D01*
X139823095Y-111756464D01*
X139760495Y-111648036D01*
X139671964Y-111559505D01*
X139563536Y-111496905D01*
X139442601Y-111464500D01*
X139317399Y-111464500D01*
X139236775Y-111486103D01*
X139196463Y-111496905D01*
X139088037Y-111559504D01*
X139088034Y-111559506D01*
X138999506Y-111648034D01*
X138999504Y-111648037D01*
X138936905Y-111756463D01*
X138934734Y-111764565D01*
X138904500Y-111877399D01*
X138651600Y-111877399D01*
X138651600Y-111387399D01*
X140354500Y-111387399D01*
X140354500Y-111512601D01*
X140386905Y-111633536D01*
X140449505Y-111741964D01*
X140538036Y-111830495D01*
X140646464Y-111893095D01*
X140767399Y-111925500D01*
X140767401Y-111925500D01*
X140892599Y-111925500D01*
X140892601Y-111925500D01*
X141013536Y-111893095D01*
X141045870Y-111874426D01*
X141113769Y-111857952D01*
X141169870Y-111874423D01*
X141221360Y-111904151D01*
X141342295Y-111936556D01*
X141342297Y-111936556D01*
X141467495Y-111936556D01*
X141467497Y-111936556D01*
X141588432Y-111904151D01*
X141696860Y-111841551D01*
X141785391Y-111753020D01*
X141847991Y-111644592D01*
X141880396Y-111523657D01*
X141880396Y-111398455D01*
X141847991Y-111277520D01*
X141785391Y-111169092D01*
X141696860Y-111080561D01*
X141588432Y-111017961D01*
X141588433Y-111017961D01*
X141547171Y-111006905D01*
X141467497Y-110985556D01*
X141342295Y-110985556D01*
X141281827Y-111001758D01*
X141221358Y-111017961D01*
X141221357Y-111017962D01*
X141189019Y-111036632D01*
X141121119Y-111053102D01*
X141065023Y-111036630D01*
X141013542Y-111006908D01*
X141013537Y-111006905D01*
X140973224Y-110996103D01*
X140892601Y-110974500D01*
X140767399Y-110974500D01*
X140686775Y-110996103D01*
X140646463Y-111006905D01*
X140538037Y-111069504D01*
X140538034Y-111069506D01*
X140449506Y-111158034D01*
X140449504Y-111158037D01*
X140386905Y-111266463D01*
X140380849Y-111289064D01*
X140354500Y-111387399D01*
X138651600Y-111387399D01*
X138651600Y-110908114D01*
X138652627Y-110900978D01*
X138652261Y-110888007D01*
X138652262Y-110888007D01*
X138651647Y-110866212D01*
X138651600Y-110864517D01*
X138651600Y-110850599D01*
X138651187Y-110849603D01*
X138649837Y-110801446D01*
X138644751Y-110780413D01*
X138648127Y-110710626D01*
X138688697Y-110653742D01*
X138753581Y-110627822D01*
X138822178Y-110641095D01*
X138827274Y-110643880D01*
X138932264Y-110704495D01*
X139053199Y-110736900D01*
X139053201Y-110736900D01*
X139178399Y-110736900D01*
X139178401Y-110736900D01*
X139299336Y-110704495D01*
X139407764Y-110641895D01*
X139496295Y-110553364D01*
X139558895Y-110444936D01*
X139591300Y-110324001D01*
X139591300Y-110198799D01*
X139558895Y-110077864D01*
X139496295Y-109969436D01*
X139407764Y-109880905D01*
X139299336Y-109818305D01*
X139299337Y-109818305D01*
X139259024Y-109807503D01*
X139178401Y-109785900D01*
X139053199Y-109785900D01*
X138972575Y-109807503D01*
X138932263Y-109818305D01*
X138823837Y-109880904D01*
X138823834Y-109880906D01*
X138735306Y-109969434D01*
X138735304Y-109969437D01*
X138672705Y-110077863D01*
X138672705Y-110077864D01*
X138647821Y-110170733D01*
X138640300Y-110198800D01*
X138640300Y-110328594D01*
X138620615Y-110395633D01*
X138567811Y-110441388D01*
X138498653Y-110451332D01*
X138435801Y-110422912D01*
X138421190Y-110410442D01*
X138397038Y-110389828D01*
X138397035Y-110389826D01*
X138397033Y-110389825D01*
X138304377Y-110339506D01*
X138287960Y-110330590D01*
X138287957Y-110330589D01*
X138287957Y-110330588D01*
X138168961Y-110295271D01*
X138131456Y-110292291D01*
X138131450Y-110292291D01*
X138118709Y-110291277D01*
X138115609Y-110290018D01*
X138103858Y-110290096D01*
X138098540Y-110289674D01*
X138098538Y-110289673D01*
X138098526Y-110289673D01*
X138090918Y-110289067D01*
X138082643Y-110288408D01*
X138082642Y-110288408D01*
X138079176Y-110288132D01*
X138060569Y-110290388D01*
X133000557Y-110324493D01*
X132999284Y-110324495D01*
X128375663Y-110308194D01*
X128308693Y-110288273D01*
X128263125Y-110235308D01*
X128252100Y-110184195D01*
X128252100Y-109756531D01*
X128252139Y-109756437D01*
X128252100Y-109741588D01*
X128252100Y-109726599D01*
X128252100Y-109715005D01*
X128252027Y-109714295D01*
X128250870Y-109273571D01*
X132799499Y-109273571D01*
X132824497Y-109399238D01*
X132824499Y-109399244D01*
X132873533Y-109517624D01*
X132873538Y-109517633D01*
X132944723Y-109624168D01*
X132944726Y-109624172D01*
X133035327Y-109714773D01*
X133035331Y-109714776D01*
X133141866Y-109785961D01*
X133141875Y-109785966D01*
X133168692Y-109797074D01*
X133260256Y-109835001D01*
X133260260Y-109835001D01*
X133260261Y-109835002D01*
X133385928Y-109860000D01*
X133385931Y-109860000D01*
X133514071Y-109860000D01*
X133599607Y-109842985D01*
X133639744Y-109835001D01*
X133758127Y-109785965D01*
X133864669Y-109714776D01*
X133955276Y-109624169D01*
X134026465Y-109517627D01*
X134075501Y-109399244D01*
X134100500Y-109273569D01*
X134100500Y-109145431D01*
X134100500Y-109145428D01*
X134075502Y-109019761D01*
X134075501Y-109019760D01*
X134075501Y-109019756D01*
X134026465Y-108901373D01*
X134026464Y-108901372D01*
X134026461Y-108901366D01*
X133955276Y-108794831D01*
X133955273Y-108794827D01*
X133864672Y-108704226D01*
X133864668Y-108704223D01*
X133758133Y-108633038D01*
X133758124Y-108633033D01*
X133639744Y-108583999D01*
X133639738Y-108583997D01*
X133514071Y-108559000D01*
X133514069Y-108559000D01*
X133385931Y-108559000D01*
X133385929Y-108559000D01*
X133260261Y-108583997D01*
X133260255Y-108583999D01*
X133141875Y-108633033D01*
X133141866Y-108633038D01*
X133035331Y-108704223D01*
X133035327Y-108704226D01*
X132944726Y-108794827D01*
X132944723Y-108794831D01*
X132873538Y-108901366D01*
X132873533Y-108901375D01*
X132824499Y-109019755D01*
X132824497Y-109019761D01*
X132799500Y-109145428D01*
X132799500Y-109145431D01*
X132799500Y-109273569D01*
X132799500Y-109273571D01*
X132799499Y-109273571D01*
X128250870Y-109273571D01*
X128246275Y-107524071D01*
X135569499Y-107524071D01*
X135594497Y-107649738D01*
X135594499Y-107649744D01*
X135643533Y-107768124D01*
X135643538Y-107768133D01*
X135714723Y-107874668D01*
X135714726Y-107874672D01*
X135805327Y-107965273D01*
X135805331Y-107965276D01*
X135911866Y-108036461D01*
X135911872Y-108036464D01*
X135911873Y-108036465D01*
X136030256Y-108085501D01*
X136030260Y-108085501D01*
X136030261Y-108085502D01*
X136155928Y-108110500D01*
X136155931Y-108110500D01*
X136284071Y-108110500D01*
X136368615Y-108093682D01*
X136409744Y-108085501D01*
X136528127Y-108036465D01*
X136634669Y-107965276D01*
X136725276Y-107874669D01*
X136796465Y-107768127D01*
X136845501Y-107649744D01*
X136854837Y-107602812D01*
X136870500Y-107524071D01*
X136870500Y-107395928D01*
X136845502Y-107270261D01*
X136845501Y-107270260D01*
X136845501Y-107270256D01*
X136826234Y-107223743D01*
X136818766Y-107154274D01*
X136850041Y-107091795D01*
X136910130Y-107056143D01*
X136979955Y-107058637D01*
X137002795Y-107068903D01*
X137052664Y-107097695D01*
X137173599Y-107130100D01*
X137173601Y-107130100D01*
X137298799Y-107130100D01*
X137298801Y-107130100D01*
X137419736Y-107097695D01*
X137528164Y-107035095D01*
X137616695Y-106946564D01*
X137650853Y-106887399D01*
X138824500Y-106887399D01*
X138824500Y-107012601D01*
X138856905Y-107133536D01*
X138919505Y-107241964D01*
X139008036Y-107330495D01*
X139116464Y-107393095D01*
X139237399Y-107425500D01*
X139237401Y-107425500D01*
X139362600Y-107425500D01*
X139362601Y-107425500D01*
X139483536Y-107393095D01*
X139483537Y-107393094D01*
X139491267Y-107391023D01*
X139561117Y-107392685D01*
X139585361Y-107403409D01*
X139687292Y-107462258D01*
X139798471Y-107492049D01*
X139858130Y-107528414D01*
X139888659Y-107591261D01*
X139886151Y-107643916D01*
X139879993Y-107666899D01*
X139874500Y-107687399D01*
X139874500Y-107812601D01*
X139906905Y-107933536D01*
X139969505Y-108041964D01*
X140058036Y-108130495D01*
X140166464Y-108193095D01*
X140287399Y-108225500D01*
X140287401Y-108225500D01*
X140412599Y-108225500D01*
X140412601Y-108225500D01*
X140533536Y-108193095D01*
X140641964Y-108130495D01*
X140730495Y-108041964D01*
X140793095Y-107933536D01*
X140825500Y-107812601D01*
X140825500Y-107687399D01*
X140793095Y-107566464D01*
X140730495Y-107458036D01*
X140641964Y-107369505D01*
X140533536Y-107306905D01*
X140533531Y-107306903D01*
X140422356Y-107277113D01*
X140362696Y-107240748D01*
X140332168Y-107177901D01*
X140330998Y-107145707D01*
X140331976Y-107135324D01*
X140346328Y-107081764D01*
X140346328Y-106982999D01*
X140346875Y-106977194D01*
X140357747Y-106949937D01*
X140366013Y-106921787D01*
X140370793Y-106917228D01*
X140372761Y-106912297D01*
X140385520Y-106903186D01*
X140403779Y-106885776D01*
X140403520Y-106885439D01*
X140406662Y-106883028D01*
X140408328Y-106881438D01*
X140409964Y-106880495D01*
X140498495Y-106791964D01*
X140558865Y-106687399D01*
X141474500Y-106687399D01*
X141474500Y-106812601D01*
X141506905Y-106933536D01*
X141569505Y-107041964D01*
X141658036Y-107130495D01*
X141766464Y-107193095D01*
X141887399Y-107225500D01*
X141887401Y-107225500D01*
X142012599Y-107225500D01*
X142012601Y-107225500D01*
X142133536Y-107193095D01*
X142241964Y-107130495D01*
X142330495Y-107041964D01*
X142393095Y-106933536D01*
X142425500Y-106812601D01*
X142425500Y-106687399D01*
X142393095Y-106566464D01*
X142330495Y-106458036D01*
X142241964Y-106369505D01*
X142133536Y-106306905D01*
X142133537Y-106306905D01*
X142075567Y-106291372D01*
X142012601Y-106274500D01*
X141887399Y-106274500D01*
X141824433Y-106291372D01*
X141766463Y-106306905D01*
X141658037Y-106369504D01*
X141658034Y-106369506D01*
X141569506Y-106458034D01*
X141569504Y-106458037D01*
X141506905Y-106566463D01*
X141495626Y-106608557D01*
X141474500Y-106687399D01*
X140558865Y-106687399D01*
X140561095Y-106683536D01*
X140593500Y-106562601D01*
X140593500Y-106437399D01*
X140561095Y-106316464D01*
X140498495Y-106208036D01*
X140409964Y-106119505D01*
X140301536Y-106056905D01*
X140301537Y-106056905D01*
X140261224Y-106046103D01*
X140180601Y-106024500D01*
X140055399Y-106024500D01*
X139974775Y-106046103D01*
X139934463Y-106056905D01*
X139826037Y-106119504D01*
X139826034Y-106119506D01*
X139737506Y-106208034D01*
X139737504Y-106208037D01*
X139674905Y-106316463D01*
X139674903Y-106316468D01*
X139646450Y-106422653D01*
X139610085Y-106482313D01*
X139547237Y-106512841D01*
X139492038Y-106506572D01*
X139491386Y-106509009D01*
X139483537Y-106506906D01*
X139483536Y-106506905D01*
X139362601Y-106474500D01*
X139237399Y-106474500D01*
X139184838Y-106488584D01*
X139116463Y-106506905D01*
X139008037Y-106569504D01*
X139008034Y-106569506D01*
X138919506Y-106658034D01*
X138919504Y-106658037D01*
X138856905Y-106766463D01*
X138845373Y-106809500D01*
X138824500Y-106887399D01*
X137650853Y-106887399D01*
X137679295Y-106838136D01*
X137711700Y-106717201D01*
X137711700Y-106591999D01*
X137679295Y-106471064D01*
X137616695Y-106362636D01*
X137528164Y-106274105D01*
X137419736Y-106211505D01*
X137419737Y-106211505D01*
X137379424Y-106200703D01*
X137298801Y-106179100D01*
X137173599Y-106179100D01*
X137092975Y-106200703D01*
X137052663Y-106211505D01*
X136944237Y-106274104D01*
X136944234Y-106274106D01*
X136855706Y-106362634D01*
X136855704Y-106362637D01*
X136793105Y-106471063D01*
X136783590Y-106506572D01*
X136760700Y-106591999D01*
X136760700Y-106717201D01*
X136780439Y-106790865D01*
X136778776Y-106860715D01*
X136739614Y-106918577D01*
X136675386Y-106946082D01*
X136606483Y-106934496D01*
X136591774Y-106926061D01*
X136528138Y-106883541D01*
X136528124Y-106883533D01*
X136409744Y-106834499D01*
X136409738Y-106834497D01*
X136284071Y-106809500D01*
X136284069Y-106809500D01*
X136155931Y-106809500D01*
X136155929Y-106809500D01*
X136030261Y-106834497D01*
X136030255Y-106834499D01*
X135911875Y-106883533D01*
X135911866Y-106883538D01*
X135805331Y-106954723D01*
X135805327Y-106954726D01*
X135714726Y-107045327D01*
X135714723Y-107045331D01*
X135643538Y-107151866D01*
X135643533Y-107151875D01*
X135594499Y-107270255D01*
X135594497Y-107270261D01*
X135569500Y-107395928D01*
X135569500Y-107395931D01*
X135569500Y-107524069D01*
X135569500Y-107524071D01*
X135569499Y-107524071D01*
X128246275Y-107524071D01*
X128240404Y-105288715D01*
X130423136Y-105288715D01*
X130448134Y-105414382D01*
X130448136Y-105414388D01*
X130497170Y-105532768D01*
X130497175Y-105532777D01*
X130568360Y-105639312D01*
X130568363Y-105639316D01*
X130658964Y-105729917D01*
X130658968Y-105729920D01*
X130765503Y-105801105D01*
X130765509Y-105801108D01*
X130765510Y-105801109D01*
X130883893Y-105850145D01*
X130883897Y-105850145D01*
X130883898Y-105850146D01*
X131009565Y-105875144D01*
X131009568Y-105875144D01*
X131137708Y-105875144D01*
X131222252Y-105858326D01*
X131263381Y-105850145D01*
X131381764Y-105801109D01*
X131488306Y-105729920D01*
X131578913Y-105639313D01*
X131650102Y-105532771D01*
X131699138Y-105414388D01*
X131714453Y-105337398D01*
X131724137Y-105288715D01*
X131724137Y-105160572D01*
X131699139Y-105034905D01*
X131699138Y-105034904D01*
X131699138Y-105034900D01*
X131655326Y-104929128D01*
X138256392Y-104929128D01*
X138256392Y-105054330D01*
X138288797Y-105175265D01*
X138351397Y-105283693D01*
X138439928Y-105372224D01*
X138548356Y-105434824D01*
X138582593Y-105443998D01*
X138642253Y-105480361D01*
X138672783Y-105543208D01*
X138674500Y-105563772D01*
X138674500Y-105612601D01*
X138706905Y-105733536D01*
X138769505Y-105841964D01*
X138858036Y-105930495D01*
X138966464Y-105993095D01*
X139087399Y-106025500D01*
X139087401Y-106025500D01*
X139212599Y-106025500D01*
X139212601Y-106025500D01*
X139333536Y-105993095D01*
X139441964Y-105930495D01*
X139530495Y-105841964D01*
X139593095Y-105733536D01*
X139625500Y-105612601D01*
X139625500Y-105487399D01*
X139593095Y-105366464D01*
X139530495Y-105258036D01*
X139441964Y-105169505D01*
X139441963Y-105169504D01*
X139441960Y-105169502D01*
X139395975Y-105142953D01*
X139347760Y-105092386D01*
X139334536Y-105023779D01*
X139360504Y-104958914D01*
X139386343Y-104936527D01*
X139385513Y-104935445D01*
X139391957Y-104930498D01*
X139391964Y-104930495D01*
X139480495Y-104841964D01*
X139543095Y-104733536D01*
X139575500Y-104612601D01*
X139575500Y-104487399D01*
X139543095Y-104366464D01*
X139480495Y-104258036D01*
X139457991Y-104235532D01*
X139424506Y-104174209D01*
X139425896Y-104115759D01*
X139445500Y-104042601D01*
X139445500Y-103917399D01*
X139413095Y-103796464D01*
X139350495Y-103688036D01*
X139278557Y-103616098D01*
X139245072Y-103554775D01*
X139246464Y-103496321D01*
X139247505Y-103492436D01*
X139255500Y-103462601D01*
X139255500Y-103337399D01*
X139223095Y-103216464D01*
X139160495Y-103108036D01*
X139071964Y-103019505D01*
X138963536Y-102956905D01*
X138963537Y-102956905D01*
X138916886Y-102944405D01*
X138842601Y-102924500D01*
X138717399Y-102924500D01*
X138643114Y-102944405D01*
X138596463Y-102956905D01*
X138488037Y-103019504D01*
X138488034Y-103019506D01*
X138399506Y-103108034D01*
X138399504Y-103108037D01*
X138336905Y-103216463D01*
X138336905Y-103216464D01*
X138304500Y-103337399D01*
X138304500Y-103462601D01*
X138329337Y-103555293D01*
X138336905Y-103583536D01*
X138399503Y-103691962D01*
X138471443Y-103763902D01*
X138504927Y-103825226D01*
X138503536Y-103883675D01*
X138494500Y-103917397D01*
X138494500Y-103917399D01*
X138494500Y-104042601D01*
X138526905Y-104163536D01*
X138581752Y-104258536D01*
X138589504Y-104271962D01*
X138589506Y-104271965D01*
X138612008Y-104294467D01*
X138617760Y-104305002D01*
X138627017Y-104312645D01*
X138634195Y-104335099D01*
X138645493Y-104355790D01*
X138645168Y-104369426D01*
X138648292Y-104379197D01*
X138644102Y-104414241D01*
X138631242Y-104462236D01*
X138594877Y-104521897D01*
X138555082Y-104543635D01*
X138555865Y-104545524D01*
X138548355Y-104548634D01*
X138439929Y-104611233D01*
X138439926Y-104611235D01*
X138351398Y-104699763D01*
X138351396Y-104699766D01*
X138288797Y-104808192D01*
X138286693Y-104816044D01*
X138256392Y-104929128D01*
X131655326Y-104929128D01*
X131650102Y-104916517D01*
X131650101Y-104916516D01*
X131650098Y-104916510D01*
X131578913Y-104809975D01*
X131578910Y-104809971D01*
X131488310Y-104719371D01*
X131488303Y-104719366D01*
X131472934Y-104709096D01*
X131428130Y-104655487D01*
X131419421Y-104586162D01*
X131449575Y-104523134D01*
X131454110Y-104518348D01*
X131460495Y-104511964D01*
X131523095Y-104403536D01*
X131548855Y-104307399D01*
X132854500Y-104307399D01*
X132854500Y-104432601D01*
X132886905Y-104553536D01*
X132949505Y-104661964D01*
X133038036Y-104750495D01*
X133146464Y-104813095D01*
X133267399Y-104845500D01*
X133267401Y-104845500D01*
X133392599Y-104845500D01*
X133392601Y-104845500D01*
X133513536Y-104813095D01*
X133621964Y-104750495D01*
X133710495Y-104661964D01*
X133773095Y-104553536D01*
X133805500Y-104432601D01*
X133805500Y-104307399D01*
X133773095Y-104186464D01*
X133710495Y-104078036D01*
X133621964Y-103989505D01*
X133513536Y-103926905D01*
X133513537Y-103926905D01*
X133473224Y-103916103D01*
X133392601Y-103894500D01*
X133267399Y-103894500D01*
X133186775Y-103916103D01*
X133146463Y-103926905D01*
X133038037Y-103989504D01*
X133038034Y-103989506D01*
X132949506Y-104078034D01*
X132949504Y-104078037D01*
X132886905Y-104186463D01*
X132870702Y-104246931D01*
X132854500Y-104307399D01*
X131548855Y-104307399D01*
X131555500Y-104282601D01*
X131555500Y-104157399D01*
X131523095Y-104036464D01*
X131460495Y-103928036D01*
X131371964Y-103839505D01*
X131263536Y-103776905D01*
X131263537Y-103776905D01*
X131215009Y-103763902D01*
X131142601Y-103744500D01*
X131017399Y-103744500D01*
X130944991Y-103763902D01*
X130896463Y-103776905D01*
X130788037Y-103839504D01*
X130788034Y-103839506D01*
X130699506Y-103928034D01*
X130699504Y-103928037D01*
X130636905Y-104036463D01*
X130633659Y-104048579D01*
X130604500Y-104157399D01*
X130604500Y-104282601D01*
X130627106Y-104366965D01*
X130636905Y-104403536D01*
X130699504Y-104511962D01*
X130699506Y-104511965D01*
X130700757Y-104513216D01*
X130701474Y-104514530D01*
X130704451Y-104518409D01*
X130703846Y-104518873D01*
X130734242Y-104574539D01*
X130729258Y-104644231D01*
X130687386Y-104700164D01*
X130681970Y-104703997D01*
X130658969Y-104719366D01*
X130658964Y-104719370D01*
X130568363Y-104809971D01*
X130568360Y-104809975D01*
X130497175Y-104916510D01*
X130497170Y-104916519D01*
X130448136Y-105034899D01*
X130448134Y-105034905D01*
X130423137Y-105160572D01*
X130423137Y-105160575D01*
X130423137Y-105288713D01*
X130423137Y-105288715D01*
X130423136Y-105288715D01*
X128240404Y-105288715D01*
X128233347Y-102601726D01*
X135560507Y-102601726D01*
X135560507Y-102726928D01*
X135592912Y-102847863D01*
X135655512Y-102956291D01*
X135744043Y-103044822D01*
X135852471Y-103107422D01*
X135973406Y-103139827D01*
X135973408Y-103139827D01*
X136098606Y-103139827D01*
X136098608Y-103139827D01*
X136219543Y-103107422D01*
X136327971Y-103044822D01*
X136416502Y-102956291D01*
X136479102Y-102847863D01*
X136511507Y-102726928D01*
X136511507Y-102601726D01*
X136479102Y-102480791D01*
X136416502Y-102372363D01*
X136327971Y-102283832D01*
X136219543Y-102221232D01*
X136219544Y-102221232D01*
X136179231Y-102210430D01*
X136098608Y-102188827D01*
X135973406Y-102188827D01*
X135892782Y-102210430D01*
X135852470Y-102221232D01*
X135744044Y-102283831D01*
X135744041Y-102283833D01*
X135655513Y-102372361D01*
X135655511Y-102372364D01*
X135592912Y-102480790D01*
X135592912Y-102480791D01*
X135560507Y-102601726D01*
X128233347Y-102601726D01*
X128228778Y-100862144D01*
X140399500Y-100862144D01*
X140399500Y-100987346D01*
X140431905Y-101108281D01*
X140494505Y-101216709D01*
X140583036Y-101305240D01*
X140691464Y-101367840D01*
X140812399Y-101400245D01*
X140812401Y-101400245D01*
X140937599Y-101400245D01*
X140937601Y-101400245D01*
X141058536Y-101367840D01*
X141166964Y-101305240D01*
X141255495Y-101216709D01*
X141318095Y-101108281D01*
X141350500Y-100987346D01*
X141350500Y-100862144D01*
X141318095Y-100741209D01*
X141255495Y-100632781D01*
X141166964Y-100544250D01*
X141058536Y-100481650D01*
X141058537Y-100481650D01*
X141018224Y-100470848D01*
X140937601Y-100449245D01*
X140812399Y-100449245D01*
X140731775Y-100470848D01*
X140691463Y-100481650D01*
X140583037Y-100544249D01*
X140583034Y-100544251D01*
X140494506Y-100632779D01*
X140494504Y-100632782D01*
X140431905Y-100741208D01*
X140431905Y-100741209D01*
X140399500Y-100862144D01*
X128228778Y-100862144D01*
X128226796Y-100107399D01*
X136784500Y-100107399D01*
X136784500Y-100232601D01*
X136816905Y-100353536D01*
X136879505Y-100461964D01*
X136968036Y-100550495D01*
X137076464Y-100613095D01*
X137197399Y-100645500D01*
X137197401Y-100645500D01*
X137322599Y-100645500D01*
X137322601Y-100645500D01*
X137443536Y-100613095D01*
X137551964Y-100550495D01*
X137640495Y-100461964D01*
X137703095Y-100353536D01*
X137735500Y-100232601D01*
X137735500Y-100107399D01*
X137703346Y-99987399D01*
X139524500Y-99987399D01*
X139524500Y-100112601D01*
X139556905Y-100233536D01*
X139619505Y-100341964D01*
X139708036Y-100430495D01*
X139816464Y-100493095D01*
X139937399Y-100525500D01*
X139937401Y-100525500D01*
X140062599Y-100525500D01*
X140062601Y-100525500D01*
X140183536Y-100493095D01*
X140291964Y-100430495D01*
X140380495Y-100341964D01*
X140443095Y-100233536D01*
X140475500Y-100112601D01*
X140475500Y-99987399D01*
X140443095Y-99866464D01*
X140380495Y-99758036D01*
X140291964Y-99669505D01*
X140183536Y-99606905D01*
X140183537Y-99606905D01*
X140143224Y-99596103D01*
X140062601Y-99574500D01*
X139937399Y-99574500D01*
X139856775Y-99596103D01*
X139816463Y-99606905D01*
X139708037Y-99669504D01*
X139708034Y-99669506D01*
X139619506Y-99758034D01*
X139619504Y-99758037D01*
X139556905Y-99866463D01*
X139544622Y-99912305D01*
X139524500Y-99987399D01*
X137703346Y-99987399D01*
X137703095Y-99986464D01*
X137640495Y-99878036D01*
X137551964Y-99789505D01*
X137443536Y-99726905D01*
X137443537Y-99726905D01*
X137403224Y-99716103D01*
X137322601Y-99694500D01*
X137197399Y-99694500D01*
X137116775Y-99716103D01*
X137076463Y-99726905D01*
X136968037Y-99789504D01*
X136968034Y-99789506D01*
X136879506Y-99878034D01*
X136879504Y-99878037D01*
X136816905Y-99986463D01*
X136816654Y-99987399D01*
X136784500Y-100107399D01*
X128226796Y-100107399D01*
X128215807Y-95923671D01*
X137504501Y-95923671D01*
X137529499Y-96049338D01*
X137529501Y-96049344D01*
X137578535Y-96167724D01*
X137578540Y-96167733D01*
X137649725Y-96274268D01*
X137649728Y-96274272D01*
X137740329Y-96364873D01*
X137740333Y-96364876D01*
X137846868Y-96436061D01*
X137846874Y-96436064D01*
X137846875Y-96436065D01*
X137965258Y-96485101D01*
X137965262Y-96485101D01*
X137965263Y-96485102D01*
X138090930Y-96510100D01*
X138090933Y-96510100D01*
X138219073Y-96510100D01*
X138303617Y-96493282D01*
X138344746Y-96485101D01*
X138411279Y-96457541D01*
X138424663Y-96456102D01*
X138436703Y-96450075D01*
X138458726Y-96452440D01*
X138480747Y-96450073D01*
X138494300Y-96456261D01*
X138506173Y-96457537D01*
X138525775Y-96470634D01*
X138536528Y-96475544D01*
X138541710Y-96479719D01*
X138573279Y-96511288D01*
X138617884Y-96541092D01*
X138622186Y-96544558D01*
X138623423Y-96546340D01*
X138632070Y-96553436D01*
X139168780Y-97090147D01*
X139168783Y-97090150D01*
X139168786Y-97090152D01*
X139231275Y-97131905D01*
X139291707Y-97172284D01*
X139428289Y-97228858D01*
X139428293Y-97228858D01*
X139428294Y-97228859D01*
X139573281Y-97257700D01*
X139573284Y-97257700D01*
X139573285Y-97257700D01*
X139721119Y-97257700D01*
X139944267Y-97257700D01*
X139969913Y-97265230D01*
X139996356Y-97269171D01*
X140005810Y-97275771D01*
X140011306Y-97277385D01*
X140025949Y-97288404D01*
X140029033Y-97291104D01*
X140059347Y-97321418D01*
X140070825Y-97329087D01*
X140182267Y-97403550D01*
X140182269Y-97403551D01*
X140182273Y-97403553D01*
X140222977Y-97420413D01*
X140222978Y-97420413D01*
X140318850Y-97460125D01*
X140435003Y-97483229D01*
X140454230Y-97487053D01*
X140463843Y-97488966D01*
X140463844Y-97488966D01*
X140891956Y-97488966D01*
X140945161Y-97478382D01*
X141014751Y-97484608D01*
X141069929Y-97527470D01*
X141076740Y-97537999D01*
X141097502Y-97573960D01*
X141097504Y-97573963D01*
X141097505Y-97573964D01*
X141186036Y-97662495D01*
X141289514Y-97722237D01*
X141315196Y-97741944D01*
X142309513Y-98736260D01*
X142309515Y-98736263D01*
X142388737Y-98815485D01*
X142400226Y-98822118D01*
X142410883Y-98832237D01*
X142421337Y-98850258D01*
X142435714Y-98865335D01*
X142439760Y-98882014D01*
X142445944Y-98892673D01*
X142445375Y-98905156D01*
X142449500Y-98922158D01*
X142449500Y-103030697D01*
X142429815Y-103097736D01*
X142377011Y-103143491D01*
X142307853Y-103153435D01*
X142271234Y-103140761D01*
X142271046Y-103141216D01*
X142263537Y-103138105D01*
X142223224Y-103127303D01*
X142142601Y-103105700D01*
X142017399Y-103105700D01*
X141896605Y-103138066D01*
X141826757Y-103136404D01*
X141776832Y-103105973D01*
X141719165Y-103048306D01*
X141719164Y-103048305D01*
X141610736Y-102985705D01*
X141610737Y-102985705D01*
X141570424Y-102974903D01*
X141489801Y-102953300D01*
X141364599Y-102953300D01*
X141283975Y-102974903D01*
X141243663Y-102985705D01*
X141135237Y-103048304D01*
X141135234Y-103048306D01*
X141046706Y-103136834D01*
X141046704Y-103136837D01*
X140984105Y-103245263D01*
X140984105Y-103245264D01*
X140951700Y-103366199D01*
X140951700Y-103491401D01*
X140968820Y-103555293D01*
X140977431Y-103587428D01*
X140975768Y-103657278D01*
X140945338Y-103707203D01*
X140869503Y-103783037D01*
X140806905Y-103891463D01*
X140799955Y-103917400D01*
X140774500Y-104012399D01*
X140774500Y-104137601D01*
X140806905Y-104258536D01*
X140869505Y-104366964D01*
X140958036Y-104455495D01*
X141066464Y-104518095D01*
X141187399Y-104550500D01*
X141187401Y-104550500D01*
X141312599Y-104550500D01*
X141312601Y-104550500D01*
X141433536Y-104518095D01*
X141541964Y-104455495D01*
X141630495Y-104366964D01*
X141693095Y-104258536D01*
X141725500Y-104137601D01*
X141725500Y-104137598D01*
X141726561Y-104129542D01*
X141728229Y-104129761D01*
X141745185Y-104072019D01*
X141797989Y-104026264D01*
X141867147Y-104016320D01*
X141888609Y-104022208D01*
X141888614Y-104022191D01*
X141896462Y-104024293D01*
X141896464Y-104024295D01*
X142017399Y-104056700D01*
X142017401Y-104056700D01*
X142142599Y-104056700D01*
X142142601Y-104056700D01*
X142263536Y-104024295D01*
X142263539Y-104024292D01*
X142271046Y-104021184D01*
X142271536Y-104022367D01*
X142331389Y-104007842D01*
X142397418Y-104030688D01*
X142440614Y-104085606D01*
X142449500Y-104131702D01*
X142449500Y-104793982D01*
X142449500Y-104906018D01*
X142477421Y-105010219D01*
X142478497Y-105014236D01*
X142478498Y-105014239D01*
X142479610Y-105016165D01*
X142534515Y-105111263D01*
X143038737Y-105615485D01*
X143135763Y-105671503D01*
X143243982Y-105700500D01*
X143316390Y-105700500D01*
X143383429Y-105720185D01*
X143404071Y-105736819D01*
X144009769Y-106342517D01*
X144043254Y-106403840D01*
X144038270Y-106473532D01*
X143996398Y-106529465D01*
X143978275Y-106539786D01*
X143978372Y-106539954D01*
X143862907Y-106606616D01*
X143862904Y-106606618D01*
X143774376Y-106695146D01*
X143774374Y-106695149D01*
X143711775Y-106803575D01*
X143702457Y-106838352D01*
X143680268Y-106921162D01*
X143679370Y-106924512D01*
X143679370Y-107049715D01*
X143680124Y-107055443D01*
X143669358Y-107124478D01*
X143644867Y-107159308D01*
X143571137Y-107233037D01*
X143508539Y-107341463D01*
X143508538Y-107341465D01*
X143503078Y-107361843D01*
X143466711Y-107421502D01*
X143415398Y-107449520D01*
X143367867Y-107462257D01*
X143303597Y-107479478D01*
X143195171Y-107542077D01*
X143195168Y-107542079D01*
X143106640Y-107630607D01*
X143106638Y-107630610D01*
X143044039Y-107739036D01*
X143034033Y-107776380D01*
X143011634Y-107859972D01*
X143011634Y-107985174D01*
X143044039Y-108106109D01*
X143106639Y-108214537D01*
X143195170Y-108303068D01*
X143303598Y-108365668D01*
X143424533Y-108398073D01*
X143424535Y-108398073D01*
X143549733Y-108398073D01*
X143549735Y-108398073D01*
X143670670Y-108365668D01*
X143779098Y-108303068D01*
X143867629Y-108214537D01*
X143930229Y-108106109D01*
X143935688Y-108085732D01*
X143972052Y-108026073D01*
X144023365Y-107998053D01*
X144135170Y-107968095D01*
X144243598Y-107905495D01*
X144332129Y-107816964D01*
X144391354Y-107714380D01*
X144441921Y-107666165D01*
X144510528Y-107652941D01*
X144575393Y-107678909D01*
X144615922Y-107735823D01*
X144622742Y-107776380D01*
X144622742Y-107830876D01*
X144651739Y-107939095D01*
X144707757Y-108036121D01*
X144707759Y-108036123D01*
X144732181Y-108060545D01*
X144765666Y-108121868D01*
X144768500Y-108148226D01*
X144768500Y-109918865D01*
X144748815Y-109985904D01*
X144696011Y-110031659D01*
X144626853Y-110041603D01*
X144579987Y-110021863D01*
X144579003Y-110023569D01*
X144463536Y-109956905D01*
X144463537Y-109956905D01*
X144409754Y-109942494D01*
X144342601Y-109924500D01*
X144217399Y-109924500D01*
X144150246Y-109942494D01*
X144096463Y-109956905D01*
X143988037Y-110019504D01*
X143988034Y-110019506D01*
X143899506Y-110108034D01*
X143899504Y-110108037D01*
X143836905Y-110216463D01*
X143836902Y-110216471D01*
X143834777Y-110224402D01*
X143798410Y-110284061D01*
X143735562Y-110314588D01*
X143666187Y-110306290D01*
X143653005Y-110299692D01*
X143613536Y-110276905D01*
X143613537Y-110276905D01*
X143573224Y-110266103D01*
X143492601Y-110244500D01*
X143367399Y-110244500D01*
X143286775Y-110266103D01*
X143246463Y-110276905D01*
X143138037Y-110339504D01*
X143138034Y-110339506D01*
X143049506Y-110428034D01*
X143049504Y-110428037D01*
X142986905Y-110536463D01*
X142981564Y-110556395D01*
X142954500Y-110657399D01*
X142954500Y-110782601D01*
X142986905Y-110903536D01*
X143049505Y-111011964D01*
X143138036Y-111100495D01*
X143246464Y-111163095D01*
X143367399Y-111195500D01*
X143367401Y-111195500D01*
X143492599Y-111195500D01*
X143492601Y-111195500D01*
X143613536Y-111163095D01*
X143721964Y-111100495D01*
X143762819Y-111059640D01*
X143824142Y-111026155D01*
X143893834Y-111031139D01*
X143949767Y-111073011D01*
X143974184Y-111138475D01*
X143974500Y-111147321D01*
X143974500Y-111202601D01*
X144006905Y-111323536D01*
X144069505Y-111431964D01*
X144158036Y-111520495D01*
X144266464Y-111583095D01*
X144387399Y-111615500D01*
X144387401Y-111615500D01*
X144512599Y-111615500D01*
X144512601Y-111615500D01*
X144633536Y-111583095D01*
X144741964Y-111520495D01*
X144830495Y-111431964D01*
X144893095Y-111323536D01*
X144925500Y-111202601D01*
X144925500Y-111202598D01*
X144926561Y-111194542D01*
X144928951Y-111194856D01*
X144931738Y-111185364D01*
X144933318Y-111163276D01*
X144941390Y-111152492D01*
X144945185Y-111139571D01*
X144961918Y-111125071D01*
X144975190Y-111107343D01*
X144987810Y-111102635D01*
X144997989Y-111093816D01*
X145019906Y-111090664D01*
X145040654Y-111082926D01*
X145053814Y-111085788D01*
X145067147Y-111083872D01*
X145087290Y-111093071D01*
X145108927Y-111097778D01*
X145126652Y-111111046D01*
X145130703Y-111112897D01*
X145137181Y-111118929D01*
X145144302Y-111126050D01*
X145173280Y-111176241D01*
X145173795Y-111176028D01*
X145175413Y-111179934D01*
X145176395Y-111181635D01*
X145176903Y-111183532D01*
X145176906Y-111183539D01*
X145239502Y-111291960D01*
X145239504Y-111291963D01*
X145239505Y-111291964D01*
X145328036Y-111380495D01*
X145436464Y-111443095D01*
X145557399Y-111475500D01*
X145585488Y-111475500D01*
X145652527Y-111495185D01*
X145698282Y-111547989D01*
X145705260Y-111567400D01*
X145706905Y-111573536D01*
X145769505Y-111681964D01*
X145858036Y-111770495D01*
X145966464Y-111833095D01*
X146087399Y-111865500D01*
X146087401Y-111865500D01*
X146212599Y-111865500D01*
X146212601Y-111865500D01*
X146333536Y-111833095D01*
X146441964Y-111770495D01*
X146530495Y-111681964D01*
X146581101Y-111594309D01*
X146631666Y-111546094D01*
X146700273Y-111532870D01*
X146765138Y-111558837D01*
X146776169Y-111568628D01*
X146848036Y-111640495D01*
X146956464Y-111703095D01*
X147077399Y-111735500D01*
X147077401Y-111735500D01*
X147202599Y-111735500D01*
X147202601Y-111735500D01*
X147323536Y-111703095D01*
X147431964Y-111640495D01*
X147520495Y-111551964D01*
X147582082Y-111445289D01*
X147632648Y-111397075D01*
X147701255Y-111383851D01*
X147766120Y-111409819D01*
X147777150Y-111419609D01*
X147858036Y-111500495D01*
X147966464Y-111563095D01*
X148087399Y-111595500D01*
X148087401Y-111595500D01*
X148212599Y-111595500D01*
X148212601Y-111595500D01*
X148333536Y-111563095D01*
X148441964Y-111500495D01*
X148530495Y-111411964D01*
X148593095Y-111303536D01*
X148625500Y-111182601D01*
X148625500Y-111057399D01*
X148593095Y-110936464D01*
X148530495Y-110828036D01*
X148441964Y-110739505D01*
X148333536Y-110676905D01*
X148333537Y-110676905D01*
X148293224Y-110666103D01*
X148212601Y-110644500D01*
X148087399Y-110644500D01*
X148006775Y-110666103D01*
X147966463Y-110676905D01*
X147858037Y-110739504D01*
X147858034Y-110739506D01*
X147769506Y-110828034D01*
X147769502Y-110828039D01*
X147707917Y-110934709D01*
X147657350Y-110982925D01*
X147588743Y-110996148D01*
X147523878Y-110970180D01*
X147512849Y-110960390D01*
X147431965Y-110879506D01*
X147431964Y-110879505D01*
X147323536Y-110816905D01*
X147323537Y-110816905D01*
X147267683Y-110801939D01*
X147202601Y-110784500D01*
X147122496Y-110784500D01*
X147055457Y-110764815D01*
X147015108Y-110722498D01*
X147015091Y-110722469D01*
X146988786Y-110676905D01*
X146977843Y-110657951D01*
X146977839Y-110657946D01*
X146889311Y-110569418D01*
X146889310Y-110569417D01*
X146780882Y-110506817D01*
X146780883Y-110506817D01*
X146740570Y-110496015D01*
X146659947Y-110474412D01*
X146534745Y-110474412D01*
X146454121Y-110496015D01*
X146413809Y-110506817D01*
X146305383Y-110569416D01*
X146305380Y-110569418D01*
X146216850Y-110657948D01*
X146200125Y-110686918D01*
X146149557Y-110735133D01*
X146080950Y-110748355D01*
X146016086Y-110722387D01*
X146005057Y-110712598D01*
X145911965Y-110619506D01*
X145911960Y-110619502D01*
X145803539Y-110556906D01*
X145803532Y-110556903D01*
X145801635Y-110556395D01*
X145799934Y-110555413D01*
X145796028Y-110553795D01*
X145796241Y-110553280D01*
X145787749Y-110548377D01*
X145774304Y-110545453D01*
X145746050Y-110524302D01*
X145655819Y-110434071D01*
X145622334Y-110372748D01*
X145619500Y-110346390D01*
X145619500Y-109436799D01*
X147941900Y-109436799D01*
X147941900Y-109562001D01*
X147974305Y-109682936D01*
X148036905Y-109791364D01*
X148125436Y-109879895D01*
X148233864Y-109942495D01*
X148354799Y-109974900D01*
X148354801Y-109974900D01*
X148479999Y-109974900D01*
X148480001Y-109974900D01*
X148600936Y-109942495D01*
X148709364Y-109879895D01*
X148797895Y-109791364D01*
X148860495Y-109682936D01*
X148892900Y-109562001D01*
X148892900Y-109436799D01*
X148860495Y-109315864D01*
X148797895Y-109207436D01*
X148709364Y-109118905D01*
X148600936Y-109056305D01*
X148600937Y-109056305D01*
X148560624Y-109045503D01*
X148480001Y-109023900D01*
X148354799Y-109023900D01*
X148274175Y-109045503D01*
X148233863Y-109056305D01*
X148125437Y-109118904D01*
X148125434Y-109118906D01*
X148036906Y-109207434D01*
X148036904Y-109207437D01*
X147974305Y-109315863D01*
X147974305Y-109315864D01*
X147941900Y-109436799D01*
X145619500Y-109436799D01*
X145619500Y-108617399D01*
X150464500Y-108617399D01*
X150464500Y-108742601D01*
X150496905Y-108863536D01*
X150559505Y-108971964D01*
X150648036Y-109060495D01*
X150756464Y-109123095D01*
X150877399Y-109155500D01*
X150877401Y-109155500D01*
X151002599Y-109155500D01*
X151002601Y-109155500D01*
X151123536Y-109123095D01*
X151193203Y-109082872D01*
X151261100Y-109066401D01*
X151317198Y-109082873D01*
X151395548Y-109128108D01*
X151516483Y-109160513D01*
X151516485Y-109160513D01*
X151641683Y-109160513D01*
X151641685Y-109160513D01*
X151762620Y-109128108D01*
X151871048Y-109065508D01*
X151959579Y-108976977D01*
X152022179Y-108868549D01*
X152054584Y-108747614D01*
X152054584Y-108622412D01*
X152022179Y-108501477D01*
X151959579Y-108393049D01*
X151871048Y-108304518D01*
X151762620Y-108241918D01*
X151762621Y-108241918D01*
X151722308Y-108231116D01*
X151641685Y-108209513D01*
X151516483Y-108209513D01*
X151435859Y-108231116D01*
X151395547Y-108241918D01*
X151325882Y-108282139D01*
X151257982Y-108298610D01*
X151201884Y-108282138D01*
X151123542Y-108236908D01*
X151123537Y-108236905D01*
X151080973Y-108225500D01*
X151002601Y-108204500D01*
X150877399Y-108204500D01*
X150799027Y-108225500D01*
X150756463Y-108236905D01*
X150648037Y-108299504D01*
X150648034Y-108299506D01*
X150559506Y-108388034D01*
X150559504Y-108388037D01*
X150496905Y-108496463D01*
X150496905Y-108496464D01*
X150464500Y-108617399D01*
X145619500Y-108617399D01*
X145619500Y-108266321D01*
X145639185Y-108199282D01*
X145691989Y-108153527D01*
X145761147Y-108143583D01*
X145824703Y-108172608D01*
X145831181Y-108178640D01*
X145883036Y-108230495D01*
X145991464Y-108293095D01*
X146112399Y-108325500D01*
X146112401Y-108325500D01*
X146237599Y-108325500D01*
X146237601Y-108325500D01*
X146358536Y-108293095D01*
X146466964Y-108230495D01*
X146555495Y-108141964D01*
X146618095Y-108033536D01*
X146650500Y-107912601D01*
X146650500Y-107787399D01*
X147174500Y-107787399D01*
X147174500Y-107912601D01*
X147206905Y-108033536D01*
X147269505Y-108141964D01*
X147358036Y-108230495D01*
X147466464Y-108293095D01*
X147587399Y-108325500D01*
X147587401Y-108325500D01*
X147712599Y-108325500D01*
X147712601Y-108325500D01*
X147833536Y-108293095D01*
X147941964Y-108230495D01*
X148030495Y-108141964D01*
X148093095Y-108033536D01*
X148125500Y-107912601D01*
X148125500Y-107787399D01*
X148093095Y-107666464D01*
X148030495Y-107558036D01*
X147941964Y-107469505D01*
X147833536Y-107406905D01*
X147833537Y-107406905D01*
X147781997Y-107393095D01*
X147712601Y-107374500D01*
X147587399Y-107374500D01*
X147518003Y-107393095D01*
X147466463Y-107406905D01*
X147358037Y-107469504D01*
X147358034Y-107469506D01*
X147269506Y-107558034D01*
X147269504Y-107558037D01*
X147206905Y-107666463D01*
X147195632Y-107708536D01*
X147174500Y-107787399D01*
X146650500Y-107787399D01*
X146618095Y-107666464D01*
X146555495Y-107558036D01*
X146466964Y-107469505D01*
X146358536Y-107406905D01*
X146358531Y-107406903D01*
X146259814Y-107380451D01*
X146200154Y-107344086D01*
X146169626Y-107281238D01*
X146177921Y-107211863D01*
X146222407Y-107157986D01*
X146244468Y-107146111D01*
X146247653Y-107144791D01*
X146247663Y-107144789D01*
X146356091Y-107082189D01*
X146444622Y-106993658D01*
X146507222Y-106885230D01*
X146539627Y-106764295D01*
X146539627Y-106639093D01*
X146520384Y-106567278D01*
X146522047Y-106497432D01*
X146561209Y-106439569D01*
X146625437Y-106412064D01*
X146694339Y-106423650D01*
X146702154Y-106427797D01*
X146807442Y-106488584D01*
X146928377Y-106520989D01*
X146933087Y-106520989D01*
X147000126Y-106540674D01*
X147045881Y-106593478D01*
X147047638Y-106598367D01*
X147047848Y-106598281D01*
X147050957Y-106605788D01*
X147113557Y-106714216D01*
X147202088Y-106802747D01*
X147310516Y-106865347D01*
X147431451Y-106897752D01*
X147431453Y-106897752D01*
X147556651Y-106897752D01*
X147556653Y-106897752D01*
X147677588Y-106865347D01*
X147695809Y-106854827D01*
X147763709Y-106838352D01*
X147819811Y-106854824D01*
X147838036Y-106865346D01*
X147884882Y-106892392D01*
X148005817Y-106924797D01*
X148005819Y-106924797D01*
X148131018Y-106924797D01*
X148131019Y-106924797D01*
X148163767Y-106916022D01*
X148233617Y-106917683D01*
X148291480Y-106956845D01*
X148318985Y-107021073D01*
X148308516Y-107083332D01*
X148310016Y-107083954D01*
X148306905Y-107091462D01*
X148292692Y-107144505D01*
X148274500Y-107212399D01*
X148274500Y-107337601D01*
X148306905Y-107458536D01*
X148369505Y-107566964D01*
X148458036Y-107655495D01*
X148566464Y-107718095D01*
X148687399Y-107750500D01*
X148687401Y-107750500D01*
X148812599Y-107750500D01*
X148812601Y-107750500D01*
X148933536Y-107718095D01*
X149041964Y-107655495D01*
X149123388Y-107574071D01*
X155437599Y-107574071D01*
X155462597Y-107699738D01*
X155462599Y-107699744D01*
X155511633Y-107818124D01*
X155511638Y-107818133D01*
X155582823Y-107924668D01*
X155582826Y-107924672D01*
X155673427Y-108015273D01*
X155673431Y-108015276D01*
X155779966Y-108086461D01*
X155779972Y-108086464D01*
X155779973Y-108086465D01*
X155898356Y-108135501D01*
X155898360Y-108135501D01*
X155898361Y-108135502D01*
X156024028Y-108160500D01*
X156024031Y-108160500D01*
X156152171Y-108160500D01*
X156245363Y-108141962D01*
X156277844Y-108135501D01*
X156396227Y-108086465D01*
X156502769Y-108015276D01*
X156593376Y-107924669D01*
X156664565Y-107818127D01*
X156713601Y-107699744D01*
X156732883Y-107602812D01*
X156738600Y-107574071D01*
X156738600Y-107445928D01*
X156713602Y-107320261D01*
X156713601Y-107320260D01*
X156713601Y-107320256D01*
X156670215Y-107215513D01*
X156664566Y-107201875D01*
X156664561Y-107201866D01*
X156593376Y-107095331D01*
X156593373Y-107095327D01*
X156502772Y-107004726D01*
X156502768Y-107004723D01*
X156396233Y-106933538D01*
X156396224Y-106933533D01*
X156277844Y-106884499D01*
X156277838Y-106884497D01*
X156152171Y-106859500D01*
X156152169Y-106859500D01*
X156024031Y-106859500D01*
X156024029Y-106859500D01*
X155898361Y-106884497D01*
X155898355Y-106884499D01*
X155779975Y-106933533D01*
X155779966Y-106933538D01*
X155673431Y-107004723D01*
X155673427Y-107004726D01*
X155582826Y-107095327D01*
X155582823Y-107095331D01*
X155511638Y-107201866D01*
X155511633Y-107201875D01*
X155462599Y-107320255D01*
X155462597Y-107320261D01*
X155437600Y-107445928D01*
X155437600Y-107445931D01*
X155437600Y-107574069D01*
X155437600Y-107574071D01*
X155437599Y-107574071D01*
X149123388Y-107574071D01*
X149130495Y-107566964D01*
X149193095Y-107458536D01*
X149225500Y-107337601D01*
X149225500Y-107212399D01*
X149193095Y-107091464D01*
X149130495Y-106983036D01*
X149041964Y-106894505D01*
X148933536Y-106831905D01*
X148933537Y-106831905D01*
X148893224Y-106821103D01*
X148812601Y-106799500D01*
X148687399Y-106799500D01*
X148687395Y-106799500D01*
X148654647Y-106808275D01*
X148584797Y-106806611D01*
X148526935Y-106767448D01*
X148499432Y-106703219D01*
X148503352Y-106654344D01*
X148507547Y-106639701D01*
X148511513Y-106632833D01*
X148529261Y-106566599D01*
X152330900Y-106566599D01*
X152330900Y-106691801D01*
X152363305Y-106812736D01*
X152425905Y-106921164D01*
X152514436Y-107009695D01*
X152622864Y-107072295D01*
X152743799Y-107104700D01*
X152743801Y-107104700D01*
X152868999Y-107104700D01*
X152869001Y-107104700D01*
X152989936Y-107072295D01*
X153098364Y-107009695D01*
X153186895Y-106921164D01*
X153186898Y-106921157D01*
X153191845Y-106914713D01*
X153193579Y-106916044D01*
X153235839Y-106875737D01*
X153304444Y-106862503D01*
X153354676Y-106878555D01*
X153358035Y-106880494D01*
X153358036Y-106880495D01*
X153466464Y-106943095D01*
X153587399Y-106975500D01*
X153587401Y-106975500D01*
X153712599Y-106975500D01*
X153712601Y-106975500D01*
X153833536Y-106943095D01*
X153941964Y-106880495D01*
X154030495Y-106791964D01*
X154093095Y-106683536D01*
X154125500Y-106562601D01*
X154125500Y-106437399D01*
X154093095Y-106316464D01*
X154030495Y-106208036D01*
X153941964Y-106119505D01*
X153833536Y-106056905D01*
X153833537Y-106056905D01*
X153793224Y-106046103D01*
X153712601Y-106024500D01*
X153587399Y-106024500D01*
X153506775Y-106046103D01*
X153466463Y-106056905D01*
X153358037Y-106119504D01*
X153358034Y-106119506D01*
X153269506Y-106208034D01*
X153264555Y-106214487D01*
X153262824Y-106213158D01*
X153220530Y-106253478D01*
X153151921Y-106266693D01*
X153101723Y-106250644D01*
X152989936Y-106186105D01*
X152989937Y-106186105D01*
X152949624Y-106175303D01*
X152869001Y-106153700D01*
X152743799Y-106153700D01*
X152663175Y-106175303D01*
X152622863Y-106186105D01*
X152514437Y-106248704D01*
X152514434Y-106248706D01*
X152425906Y-106337234D01*
X152425904Y-106337237D01*
X152363305Y-106445663D01*
X152356499Y-106471063D01*
X152330900Y-106566599D01*
X148529261Y-106566599D01*
X148543918Y-106511898D01*
X148543918Y-106386696D01*
X148511513Y-106265761D01*
X148448913Y-106157333D01*
X148360382Y-106068802D01*
X148251954Y-106006202D01*
X148251955Y-106006202D01*
X148203035Y-105993094D01*
X148131019Y-105973797D01*
X148005817Y-105973797D01*
X147945349Y-105989999D01*
X147884880Y-106006202D01*
X147884875Y-106006205D01*
X147866653Y-106016725D01*
X147798753Y-106033195D01*
X147742659Y-106016724D01*
X147677592Y-105979159D01*
X147677589Y-105979157D01*
X147637276Y-105968355D01*
X147556653Y-105946752D01*
X147556651Y-105946752D01*
X147551943Y-105946752D01*
X147484904Y-105927067D01*
X147448041Y-105890430D01*
X147437274Y-105873900D01*
X147434073Y-105861953D01*
X147371473Y-105753525D01*
X147335311Y-105717363D01*
X147328245Y-105706515D01*
X147321769Y-105684952D01*
X147310981Y-105665195D01*
X147311914Y-105652137D01*
X147308149Y-105639598D01*
X147314359Y-105617958D01*
X147315965Y-105595503D01*
X147323810Y-105585022D01*
X147327422Y-105572439D01*
X147344345Y-105557591D01*
X147357837Y-105539570D01*
X147373636Y-105531895D01*
X147379944Y-105526361D01*
X147387300Y-105525257D01*
X147400049Y-105519063D01*
X147513997Y-105488531D01*
X147622425Y-105425931D01*
X147710956Y-105337400D01*
X147773556Y-105228972D01*
X147805961Y-105108037D01*
X147805961Y-105017199D01*
X153397700Y-105017199D01*
X153397700Y-105142401D01*
X153430105Y-105263336D01*
X153492705Y-105371764D01*
X153581236Y-105460295D01*
X153689664Y-105522895D01*
X153810599Y-105555300D01*
X153810601Y-105555300D01*
X153935799Y-105555300D01*
X153935801Y-105555300D01*
X154056736Y-105522895D01*
X154165164Y-105460295D01*
X154253695Y-105371764D01*
X154316295Y-105263336D01*
X154336083Y-105189485D01*
X154372447Y-105129828D01*
X154435294Y-105099299D01*
X154439678Y-105098642D01*
X154443794Y-105098100D01*
X154443801Y-105098100D01*
X154564736Y-105065695D01*
X154673164Y-105003095D01*
X154761695Y-104914564D01*
X154824295Y-104806136D01*
X154856700Y-104685201D01*
X154856700Y-104559999D01*
X154824295Y-104439064D01*
X154761695Y-104330636D01*
X154673164Y-104242105D01*
X154564736Y-104179505D01*
X154564737Y-104179505D01*
X154524424Y-104168703D01*
X154443801Y-104147100D01*
X154318599Y-104147100D01*
X154237975Y-104168703D01*
X154197663Y-104179505D01*
X154089237Y-104242104D01*
X154089234Y-104242106D01*
X154000706Y-104330634D01*
X154000704Y-104330637D01*
X153938105Y-104439063D01*
X153938103Y-104439068D01*
X153918316Y-104512912D01*
X153881950Y-104572572D01*
X153819103Y-104603100D01*
X153814733Y-104603755D01*
X153810606Y-104604298D01*
X153689663Y-104636705D01*
X153581237Y-104699304D01*
X153581234Y-104699306D01*
X153492706Y-104787834D01*
X153492704Y-104787837D01*
X153430105Y-104896263D01*
X153421299Y-104929128D01*
X153397700Y-105017199D01*
X147805961Y-105017199D01*
X147805961Y-104982835D01*
X147773556Y-104861900D01*
X147710956Y-104753472D01*
X147622425Y-104664941D01*
X147622422Y-104664939D01*
X147615976Y-104659993D01*
X147617350Y-104658201D01*
X147577217Y-104616097D01*
X147563442Y-104559295D01*
X147563442Y-104461479D01*
X147557436Y-104439064D01*
X147531037Y-104340543D01*
X147468437Y-104232115D01*
X147379906Y-104143584D01*
X147271478Y-104080984D01*
X147271479Y-104080984D01*
X147231166Y-104070182D01*
X147150543Y-104048579D01*
X147025341Y-104048579D01*
X146944717Y-104070182D01*
X146904405Y-104080984D01*
X146795979Y-104143583D01*
X146795976Y-104143585D01*
X146707448Y-104232113D01*
X146707446Y-104232116D01*
X146644847Y-104340542D01*
X146628644Y-104401010D01*
X146612442Y-104461478D01*
X146612442Y-104586680D01*
X146644847Y-104707615D01*
X146707447Y-104816043D01*
X146795978Y-104904574D01*
X146795980Y-104904575D01*
X146802429Y-104909524D01*
X146801050Y-104911320D01*
X146841171Y-104953388D01*
X146854961Y-105010219D01*
X146854961Y-105108037D01*
X146876227Y-105187400D01*
X146887366Y-105228972D01*
X146949965Y-105337398D01*
X146949967Y-105337401D01*
X146976972Y-105364406D01*
X147010457Y-105425729D01*
X147005473Y-105495421D01*
X146963601Y-105551354D01*
X146921386Y-105571861D01*
X146807446Y-105602392D01*
X146807441Y-105602394D01*
X146699015Y-105664993D01*
X146699012Y-105664995D01*
X146610484Y-105753523D01*
X146610482Y-105753526D01*
X146547883Y-105861952D01*
X146515478Y-105982889D01*
X146515478Y-106108090D01*
X146534720Y-106179902D01*
X146533057Y-106249751D01*
X146493894Y-106307614D01*
X146429666Y-106335118D01*
X146360764Y-106323532D01*
X146352946Y-106319383D01*
X146247663Y-106258599D01*
X146247664Y-106258599D01*
X146207351Y-106247797D01*
X146126728Y-106226194D01*
X146001526Y-106226194D01*
X145880591Y-106258599D01*
X145880589Y-106258600D01*
X145872741Y-106260703D01*
X145871868Y-106257447D01*
X145817891Y-106263208D01*
X145778002Y-106248583D01*
X145752088Y-106233622D01*
X145676752Y-106190127D01*
X145676753Y-106190127D01*
X145635599Y-106179100D01*
X145555817Y-106157722D01*
X145430615Y-106157722D01*
X145350833Y-106179100D01*
X145309679Y-106190127D01*
X145234343Y-106233622D01*
X145166442Y-106250093D01*
X145100416Y-106227241D01*
X145084663Y-106213915D01*
X143805265Y-104934517D01*
X143805263Y-104934515D01*
X143708237Y-104878497D01*
X143600018Y-104849500D01*
X143600017Y-104849500D01*
X143527610Y-104849500D01*
X143498169Y-104840855D01*
X143468183Y-104834332D01*
X143463167Y-104830577D01*
X143460571Y-104829815D01*
X143439929Y-104813181D01*
X143336819Y-104710071D01*
X143310351Y-104661599D01*
X144863300Y-104661599D01*
X144863300Y-104786801D01*
X144895705Y-104907736D01*
X144958305Y-105016164D01*
X145046836Y-105104695D01*
X145046837Y-105104696D01*
X145046839Y-105104697D01*
X145062496Y-105113736D01*
X145110714Y-105164301D01*
X145124500Y-105221125D01*
X145124500Y-105312601D01*
X145156905Y-105433536D01*
X145219505Y-105541964D01*
X145308036Y-105630495D01*
X145416464Y-105693095D01*
X145537399Y-105725500D01*
X145537401Y-105725500D01*
X145662599Y-105725500D01*
X145662601Y-105725500D01*
X145783536Y-105693095D01*
X145891964Y-105630495D01*
X145980495Y-105541964D01*
X146043095Y-105433536D01*
X146075500Y-105312601D01*
X146075500Y-105187399D01*
X146043095Y-105066464D01*
X145980495Y-104958036D01*
X145891964Y-104869505D01*
X145891963Y-104869504D01*
X145891960Y-104869502D01*
X145876300Y-104860461D01*
X145828084Y-104809894D01*
X145814300Y-104753074D01*
X145814300Y-104661600D01*
X145814300Y-104661599D01*
X145781895Y-104540664D01*
X145719295Y-104432236D01*
X145630764Y-104343705D01*
X145522336Y-104281105D01*
X145522337Y-104281105D01*
X145482024Y-104270303D01*
X145401401Y-104248700D01*
X145276199Y-104248700D01*
X145195575Y-104270303D01*
X145155263Y-104281105D01*
X145046837Y-104343704D01*
X145046834Y-104343706D01*
X144958306Y-104432234D01*
X144958304Y-104432237D01*
X144895705Y-104540663D01*
X144893569Y-104548634D01*
X144863300Y-104661599D01*
X143310351Y-104661599D01*
X143303334Y-104648748D01*
X143300500Y-104622390D01*
X143300500Y-103324899D01*
X145387000Y-103324899D01*
X145387000Y-103450101D01*
X145419405Y-103571036D01*
X145482005Y-103679464D01*
X145570536Y-103767995D01*
X145678964Y-103830595D01*
X145799899Y-103863000D01*
X145799901Y-103863000D01*
X145925099Y-103863000D01*
X145925101Y-103863000D01*
X146046036Y-103830595D01*
X146154464Y-103767995D01*
X146200660Y-103721799D01*
X152178500Y-103721799D01*
X152178500Y-103847001D01*
X152210905Y-103967936D01*
X152273505Y-104076364D01*
X152362036Y-104164895D01*
X152470464Y-104227495D01*
X152591399Y-104259900D01*
X152591401Y-104259900D01*
X152716599Y-104259900D01*
X152716601Y-104259900D01*
X152837536Y-104227495D01*
X152945964Y-104164895D01*
X153034495Y-104076364D01*
X153097095Y-103967936D01*
X153129500Y-103847001D01*
X153129500Y-103721799D01*
X153097095Y-103600864D01*
X153034495Y-103492436D01*
X152945964Y-103403905D01*
X152837536Y-103341305D01*
X152837537Y-103341305D01*
X152797186Y-103330493D01*
X152716601Y-103308900D01*
X152591399Y-103308900D01*
X152510814Y-103330493D01*
X152470463Y-103341305D01*
X152362037Y-103403904D01*
X152362034Y-103403906D01*
X152273506Y-103492434D01*
X152273504Y-103492437D01*
X152210905Y-103600863D01*
X152195789Y-103657278D01*
X152178500Y-103721799D01*
X146200660Y-103721799D01*
X146242995Y-103679464D01*
X146305595Y-103571036D01*
X146338000Y-103450101D01*
X146338000Y-103324899D01*
X146305595Y-103203964D01*
X146242995Y-103095536D01*
X146154464Y-103007005D01*
X146077203Y-102962399D01*
X147049500Y-102962399D01*
X147049500Y-103087601D01*
X147081905Y-103208536D01*
X147144505Y-103316964D01*
X147233036Y-103405495D01*
X147341464Y-103468095D01*
X147462399Y-103500500D01*
X147462401Y-103500500D01*
X147587599Y-103500500D01*
X147587601Y-103500500D01*
X147708536Y-103468095D01*
X147816964Y-103405495D01*
X147905495Y-103316964D01*
X147968095Y-103208536D01*
X148000500Y-103087601D01*
X148000500Y-102962399D01*
X147980403Y-102887399D01*
X148374500Y-102887399D01*
X148374500Y-103012601D01*
X148406905Y-103133536D01*
X148469505Y-103241964D01*
X148558036Y-103330495D01*
X148666464Y-103393095D01*
X148787399Y-103425500D01*
X148787401Y-103425500D01*
X148912599Y-103425500D01*
X148912601Y-103425500D01*
X149033536Y-103393095D01*
X149141964Y-103330495D01*
X149230495Y-103241964D01*
X149293095Y-103133536D01*
X149298812Y-103112199D01*
X153559700Y-103112199D01*
X153559700Y-103237401D01*
X153592105Y-103358336D01*
X153654705Y-103466764D01*
X153743236Y-103555295D01*
X153851664Y-103617895D01*
X153972599Y-103650300D01*
X153972601Y-103650300D01*
X154097799Y-103650300D01*
X154097801Y-103650300D01*
X154218736Y-103617895D01*
X154327164Y-103555295D01*
X154415695Y-103466764D01*
X154478295Y-103358336D01*
X154510700Y-103237401D01*
X154510700Y-103112199D01*
X154478295Y-102991264D01*
X154456822Y-102954071D01*
X156029499Y-102954071D01*
X156054497Y-103079738D01*
X156054499Y-103079744D01*
X156103533Y-103198124D01*
X156103538Y-103198133D01*
X156174723Y-103304668D01*
X156174726Y-103304672D01*
X156265327Y-103395273D01*
X156265331Y-103395276D01*
X156371866Y-103466461D01*
X156371875Y-103466466D01*
X156375808Y-103468095D01*
X156490256Y-103515501D01*
X156490260Y-103515501D01*
X156490261Y-103515502D01*
X156615928Y-103540500D01*
X156615931Y-103540500D01*
X156744071Y-103540500D01*
X156828615Y-103523682D01*
X156869744Y-103515501D01*
X156988127Y-103466465D01*
X157094669Y-103395276D01*
X157185276Y-103304669D01*
X157256465Y-103198127D01*
X157305501Y-103079744D01*
X157315257Y-103030697D01*
X157330500Y-102954071D01*
X157330500Y-102825928D01*
X157305502Y-102700261D01*
X157305501Y-102700260D01*
X157305501Y-102700256D01*
X157256465Y-102581873D01*
X157256464Y-102581872D01*
X157256461Y-102581866D01*
X157185276Y-102475331D01*
X157185273Y-102475327D01*
X157094672Y-102384726D01*
X157094668Y-102384723D01*
X156988133Y-102313538D01*
X156988124Y-102313533D01*
X156869744Y-102264499D01*
X156869738Y-102264497D01*
X156744071Y-102239500D01*
X156744069Y-102239500D01*
X156615931Y-102239500D01*
X156615929Y-102239500D01*
X156490261Y-102264497D01*
X156490255Y-102264499D01*
X156371875Y-102313533D01*
X156371866Y-102313538D01*
X156265331Y-102384723D01*
X156265327Y-102384726D01*
X156174726Y-102475327D01*
X156174723Y-102475331D01*
X156103538Y-102581866D01*
X156103533Y-102581875D01*
X156054499Y-102700255D01*
X156054497Y-102700261D01*
X156029500Y-102825928D01*
X156029500Y-102825931D01*
X156029500Y-102954069D01*
X156029500Y-102954071D01*
X156029499Y-102954071D01*
X154456822Y-102954071D01*
X154415695Y-102882836D01*
X154327164Y-102794305D01*
X154218736Y-102731705D01*
X154218737Y-102731705D01*
X154178424Y-102720903D01*
X154097801Y-102699300D01*
X153972599Y-102699300D01*
X153891975Y-102720903D01*
X153851663Y-102731705D01*
X153743237Y-102794304D01*
X153743234Y-102794306D01*
X153654706Y-102882834D01*
X153654704Y-102882837D01*
X153592105Y-102991263D01*
X153586387Y-103012603D01*
X153559700Y-103112199D01*
X149298812Y-103112199D01*
X149325500Y-103012601D01*
X149325500Y-102887399D01*
X149293095Y-102766464D01*
X149230495Y-102658036D01*
X149141964Y-102569505D01*
X149033536Y-102506905D01*
X149033537Y-102506905D01*
X148993224Y-102496103D01*
X148912601Y-102474500D01*
X148787399Y-102474500D01*
X148706775Y-102496103D01*
X148666463Y-102506905D01*
X148558037Y-102569504D01*
X148558034Y-102569506D01*
X148469506Y-102658034D01*
X148469504Y-102658037D01*
X148406905Y-102766463D01*
X148391086Y-102825500D01*
X148374500Y-102887399D01*
X147980403Y-102887399D01*
X147968095Y-102841464D01*
X147905495Y-102733036D01*
X147816964Y-102644505D01*
X147708536Y-102581905D01*
X147708537Y-102581905D01*
X147662259Y-102569505D01*
X147587601Y-102549500D01*
X147462399Y-102549500D01*
X147387741Y-102569505D01*
X147341463Y-102581905D01*
X147233037Y-102644504D01*
X147233034Y-102644506D01*
X147144506Y-102733034D01*
X147144504Y-102733037D01*
X147081905Y-102841463D01*
X147069596Y-102887400D01*
X147049500Y-102962399D01*
X146077203Y-102962399D01*
X146046036Y-102944405D01*
X146046037Y-102944405D01*
X146005724Y-102933603D01*
X145925101Y-102912000D01*
X145799899Y-102912000D01*
X145719275Y-102933603D01*
X145678963Y-102944405D01*
X145570537Y-103007004D01*
X145570534Y-103007006D01*
X145482006Y-103095534D01*
X145482004Y-103095537D01*
X145419405Y-103203963D01*
X145403202Y-103264431D01*
X145387000Y-103324899D01*
X143300500Y-103324899D01*
X143300500Y-102682109D01*
X143320185Y-102615070D01*
X143372989Y-102569315D01*
X143442147Y-102559371D01*
X143505703Y-102588396D01*
X143531888Y-102620110D01*
X143544503Y-102641962D01*
X143544505Y-102641964D01*
X143633036Y-102730495D01*
X143741464Y-102793095D01*
X143862399Y-102825500D01*
X143862401Y-102825500D01*
X143987599Y-102825500D01*
X143987601Y-102825500D01*
X144108536Y-102793095D01*
X144216964Y-102730495D01*
X144305495Y-102641964D01*
X144368095Y-102533536D01*
X144400500Y-102412601D01*
X144400500Y-102287399D01*
X144378745Y-102206209D01*
X144380408Y-102136362D01*
X144419570Y-102078500D01*
X144436517Y-102066733D01*
X144481964Y-102040495D01*
X144570495Y-101951964D01*
X144633095Y-101843536D01*
X144665500Y-101722601D01*
X144665500Y-101597399D01*
X144633095Y-101476464D01*
X144570495Y-101368036D01*
X144569858Y-101367399D01*
X146654500Y-101367399D01*
X146654500Y-101492601D01*
X146686905Y-101613536D01*
X146749505Y-101721964D01*
X146838036Y-101810495D01*
X146946464Y-101873095D01*
X147067399Y-101905500D01*
X147067401Y-101905500D01*
X147192599Y-101905500D01*
X147192601Y-101905500D01*
X147313536Y-101873095D01*
X147421964Y-101810495D01*
X147510495Y-101721964D01*
X147547045Y-101658655D01*
X147597611Y-101610439D01*
X147666218Y-101597215D01*
X147731083Y-101623182D01*
X147761820Y-101658654D01*
X147769502Y-101671960D01*
X147769504Y-101671962D01*
X147769505Y-101671964D01*
X147858036Y-101760495D01*
X147966464Y-101823095D01*
X148087399Y-101855500D01*
X148087401Y-101855500D01*
X148212599Y-101855500D01*
X148212601Y-101855500D01*
X148333536Y-101823095D01*
X148441964Y-101760495D01*
X148530495Y-101671964D01*
X148593095Y-101563536D01*
X148625500Y-101442601D01*
X148625500Y-101317399D01*
X148593095Y-101196464D01*
X148583670Y-101180140D01*
X148577586Y-101155062D01*
X148567746Y-101131198D01*
X148569482Y-101121660D01*
X148567235Y-101112399D01*
X150724500Y-101112399D01*
X150724500Y-101237601D01*
X150756905Y-101358536D01*
X150819505Y-101466964D01*
X150908036Y-101555495D01*
X151016464Y-101618095D01*
X151137399Y-101650500D01*
X151137401Y-101650500D01*
X151262599Y-101650500D01*
X151262601Y-101650500D01*
X151383536Y-101618095D01*
X151491964Y-101555495D01*
X151580495Y-101466964D01*
X151643095Y-101358536D01*
X151675500Y-101237601D01*
X151675500Y-101194326D01*
X151695185Y-101127287D01*
X151737502Y-101086938D01*
X151791964Y-101055495D01*
X151880495Y-100966964D01*
X151943095Y-100858536D01*
X151975500Y-100737601D01*
X151975500Y-100612399D01*
X151943095Y-100491464D01*
X151880495Y-100383036D01*
X151791964Y-100294505D01*
X151789009Y-100292799D01*
X157182300Y-100292799D01*
X157182300Y-100418001D01*
X157214705Y-100538936D01*
X157277305Y-100647364D01*
X157365836Y-100735895D01*
X157474264Y-100798495D01*
X157595199Y-100830900D01*
X157595201Y-100830900D01*
X157720399Y-100830900D01*
X157720401Y-100830900D01*
X157841336Y-100798495D01*
X157949764Y-100735895D01*
X158038295Y-100647364D01*
X158100895Y-100538936D01*
X158133300Y-100418001D01*
X158133300Y-100292799D01*
X158100895Y-100171864D01*
X158038295Y-100063436D01*
X157949764Y-99974905D01*
X157841336Y-99912305D01*
X157841337Y-99912305D01*
X157801024Y-99901503D01*
X157720401Y-99879900D01*
X157595199Y-99879900D01*
X157514575Y-99901503D01*
X157474263Y-99912305D01*
X157365837Y-99974904D01*
X157365834Y-99974906D01*
X157277306Y-100063434D01*
X157277304Y-100063437D01*
X157214705Y-100171863D01*
X157207758Y-100197790D01*
X157182300Y-100292799D01*
X151789009Y-100292799D01*
X151683536Y-100231905D01*
X151683537Y-100231905D01*
X151643224Y-100221103D01*
X151562601Y-100199500D01*
X151437399Y-100199500D01*
X151356775Y-100221103D01*
X151316463Y-100231905D01*
X151208037Y-100294504D01*
X151208034Y-100294506D01*
X151119506Y-100383034D01*
X151119504Y-100383037D01*
X151056905Y-100491463D01*
X151041088Y-100550493D01*
X151032485Y-100582601D01*
X151024500Y-100612400D01*
X151024500Y-100655673D01*
X151004815Y-100722712D01*
X150962500Y-100763060D01*
X150908039Y-100794502D01*
X150908034Y-100794506D01*
X150819506Y-100883034D01*
X150819504Y-100883037D01*
X150756905Y-100991463D01*
X150754750Y-100999505D01*
X150724500Y-101112399D01*
X148567235Y-101112399D01*
X148567197Y-101112241D01*
X148575638Y-101087850D01*
X148580262Y-101062458D01*
X148586878Y-101055373D01*
X148590049Y-101046214D01*
X148610334Y-101030260D01*
X148627954Y-101011397D01*
X148639303Y-101007479D01*
X148644970Y-101003023D01*
X148660583Y-100997943D01*
X148670218Y-100995500D01*
X148672601Y-100995500D01*
X148793536Y-100963095D01*
X148901964Y-100900495D01*
X148990495Y-100811964D01*
X149053095Y-100703536D01*
X149085500Y-100582601D01*
X149085500Y-100457399D01*
X149053095Y-100336464D01*
X148990495Y-100228036D01*
X148901964Y-100139505D01*
X148793536Y-100076905D01*
X148793537Y-100076905D01*
X148743262Y-100063434D01*
X148672601Y-100044500D01*
X148672600Y-100044500D01*
X148664751Y-100042397D01*
X148665618Y-100039161D01*
X148615919Y-100017118D01*
X148577503Y-99958757D01*
X148576739Y-99888891D01*
X148579296Y-99881513D01*
X148580092Y-99878540D01*
X148580095Y-99878536D01*
X148612500Y-99757601D01*
X148612500Y-99632399D01*
X148580095Y-99511464D01*
X148517495Y-99403036D01*
X148428964Y-99314505D01*
X148322575Y-99253082D01*
X148322574Y-99253081D01*
X148320540Y-99251907D01*
X148320537Y-99251905D01*
X148280224Y-99241103D01*
X148199601Y-99219500D01*
X148074399Y-99219500D01*
X147993775Y-99241103D01*
X147953463Y-99251905D01*
X147845037Y-99314504D01*
X147845034Y-99314506D01*
X147756506Y-99403034D01*
X147756504Y-99403037D01*
X147693905Y-99511463D01*
X147693905Y-99511464D01*
X147661500Y-99632399D01*
X147661500Y-99757601D01*
X147693905Y-99878536D01*
X147756505Y-99986964D01*
X147845036Y-100075495D01*
X147953464Y-100138095D01*
X148074399Y-100170500D01*
X148074401Y-100170500D01*
X148082249Y-100172603D01*
X148081376Y-100175859D01*
X148130973Y-100197790D01*
X148169455Y-100256108D01*
X148170298Y-100325973D01*
X148167717Y-100333432D01*
X148147141Y-100410219D01*
X148134500Y-100457399D01*
X148134500Y-100582601D01*
X148151854Y-100647365D01*
X148166905Y-100703537D01*
X148166906Y-100703538D01*
X148176329Y-100719859D01*
X148192802Y-100787759D01*
X148169949Y-100853786D01*
X148115028Y-100896977D01*
X148095187Y-100902168D01*
X148095249Y-100902397D01*
X148087400Y-100904500D01*
X148087399Y-100904500D01*
X148031401Y-100919505D01*
X147966463Y-100936905D01*
X147858037Y-100999504D01*
X147858034Y-100999506D01*
X147769506Y-101088034D01*
X147769502Y-101088039D01*
X147732953Y-101151345D01*
X147682386Y-101199561D01*
X147613779Y-101212784D01*
X147548914Y-101186815D01*
X147518178Y-101151344D01*
X147510495Y-101138036D01*
X147421965Y-101049506D01*
X147421964Y-101049505D01*
X147313536Y-100986905D01*
X147313537Y-100986905D01*
X147273224Y-100976103D01*
X147192601Y-100954500D01*
X147067399Y-100954500D01*
X146986775Y-100976103D01*
X146946463Y-100986905D01*
X146838037Y-101049504D01*
X146838034Y-101049506D01*
X146749506Y-101138034D01*
X146749504Y-101138037D01*
X146686905Y-101246463D01*
X146678051Y-101279506D01*
X146654500Y-101367399D01*
X144569858Y-101367399D01*
X144481964Y-101279505D01*
X144373536Y-101216905D01*
X144373537Y-101216905D01*
X144297250Y-101196464D01*
X144252601Y-101184500D01*
X144127399Y-101184500D01*
X144127397Y-101184500D01*
X144121095Y-101185330D01*
X144052060Y-101174562D01*
X143999805Y-101128181D01*
X143997339Y-101123396D01*
X143997158Y-101123502D01*
X143993095Y-101116464D01*
X143930495Y-101008036D01*
X143841964Y-100919505D01*
X143733536Y-100856905D01*
X143733537Y-100856905D01*
X143693224Y-100846103D01*
X143612601Y-100824500D01*
X143487399Y-100824500D01*
X143487396Y-100824500D01*
X143456592Y-100832754D01*
X143386742Y-100831091D01*
X143328880Y-100791927D01*
X143301377Y-100727698D01*
X143300500Y-100712979D01*
X143300500Y-99153823D01*
X150958076Y-99153823D01*
X150958076Y-99279025D01*
X150990481Y-99399960D01*
X151053081Y-99508388D01*
X151141612Y-99596919D01*
X151250040Y-99659519D01*
X151370975Y-99691924D01*
X151370977Y-99691924D01*
X151496175Y-99691924D01*
X151496177Y-99691924D01*
X151617112Y-99659519D01*
X151725540Y-99596919D01*
X151814071Y-99508388D01*
X151876671Y-99399960D01*
X151909076Y-99279025D01*
X151909076Y-99153823D01*
X151876671Y-99032888D01*
X151814071Y-98924460D01*
X151725540Y-98835929D01*
X151617112Y-98773329D01*
X151617113Y-98773329D01*
X151576800Y-98762527D01*
X151496177Y-98740924D01*
X151370975Y-98740924D01*
X151290351Y-98762527D01*
X151250039Y-98773329D01*
X151141613Y-98835928D01*
X151141610Y-98835930D01*
X151053082Y-98924458D01*
X151053080Y-98924461D01*
X150990481Y-99032887D01*
X150990481Y-99032888D01*
X150958076Y-99153823D01*
X143300500Y-99153823D01*
X143300500Y-98618984D01*
X143300500Y-98618982D01*
X143271503Y-98510763D01*
X143215485Y-98413737D01*
X143136263Y-98334515D01*
X142936263Y-98134515D01*
X142891247Y-98108525D01*
X142865566Y-98088819D01*
X142171029Y-97394282D01*
X142137544Y-97332959D01*
X142142528Y-97263267D01*
X142184400Y-97207334D01*
X142211258Y-97192040D01*
X142261242Y-97171336D01*
X142384164Y-97089204D01*
X142826548Y-96646818D01*
X142853475Y-96632115D01*
X142879294Y-96615523D01*
X142885494Y-96614631D01*
X142887871Y-96613334D01*
X142914229Y-96610500D01*
X143028839Y-96610500D01*
X143095878Y-96630185D01*
X143116521Y-96646820D01*
X143152648Y-96682948D01*
X143152652Y-96682951D01*
X143275566Y-96765080D01*
X143275579Y-96765087D01*
X143412150Y-96821656D01*
X143412155Y-96821658D01*
X143412159Y-96821658D01*
X143412160Y-96821659D01*
X143557147Y-96850500D01*
X143557150Y-96850500D01*
X145072434Y-96850500D01*
X145169976Y-96831096D01*
X145217427Y-96821658D01*
X145257355Y-96805119D01*
X145344704Y-96768939D01*
X145352880Y-96767312D01*
X145357221Y-96764523D01*
X145392156Y-96759500D01*
X145607844Y-96759500D01*
X145655296Y-96768939D01*
X145782568Y-96821656D01*
X145782573Y-96821658D01*
X145782577Y-96821658D01*
X145782578Y-96821659D01*
X145927565Y-96850500D01*
X145927568Y-96850500D01*
X147443920Y-96850500D01*
X147541462Y-96831096D01*
X147588913Y-96821658D01*
X147725495Y-96765084D01*
X147777017Y-96730658D01*
X147848416Y-96682952D01*
X147852176Y-96679191D01*
X147861574Y-96672758D01*
X147889875Y-96663544D01*
X147917268Y-96651911D01*
X147922736Y-96652847D01*
X147928012Y-96651130D01*
X147956797Y-96658678D01*
X147986135Y-96663702D01*
X147990229Y-96667446D01*
X147995596Y-96668854D01*
X148015734Y-96690770D01*
X148037695Y-96710854D01*
X148040732Y-96717977D01*
X148042870Y-96720303D01*
X148043656Y-96724832D01*
X148051397Y-96742982D01*
X148056903Y-96763531D01*
X148056905Y-96763536D01*
X148119504Y-96871962D01*
X148119506Y-96871965D01*
X148178518Y-96930977D01*
X148212003Y-96992300D01*
X148207019Y-97061992D01*
X148165147Y-97117925D01*
X148148312Y-97127513D01*
X148148502Y-97127842D01*
X148033037Y-97194504D01*
X148033034Y-97194506D01*
X147944506Y-97283034D01*
X147944504Y-97283037D01*
X147881905Y-97391463D01*
X147877465Y-97408034D01*
X147849500Y-97512399D01*
X147849500Y-97637601D01*
X147881905Y-97758536D01*
X147944505Y-97866964D01*
X148033036Y-97955495D01*
X148141464Y-98018095D01*
X148262399Y-98050500D01*
X148262401Y-98050500D01*
X148387599Y-98050500D01*
X148387601Y-98050500D01*
X148508536Y-98018095D01*
X148616964Y-97955495D01*
X148705495Y-97866964D01*
X148768095Y-97758536D01*
X148800500Y-97637601D01*
X148800500Y-97637399D01*
X155024500Y-97637399D01*
X155024500Y-97762601D01*
X155056905Y-97883536D01*
X155119505Y-97991964D01*
X155208036Y-98080495D01*
X155316464Y-98143095D01*
X155437399Y-98175500D01*
X155437401Y-98175500D01*
X155562599Y-98175500D01*
X155562601Y-98175500D01*
X155683536Y-98143095D01*
X155791964Y-98080495D01*
X155880495Y-97991964D01*
X155943095Y-97883536D01*
X155975500Y-97762601D01*
X155975500Y-97637399D01*
X155943095Y-97516464D01*
X155880495Y-97408036D01*
X155791964Y-97319505D01*
X155683536Y-97256905D01*
X155683537Y-97256905D01*
X155643224Y-97246103D01*
X155562601Y-97224500D01*
X155437399Y-97224500D01*
X155356775Y-97246103D01*
X155316463Y-97256905D01*
X155208037Y-97319504D01*
X155208034Y-97319506D01*
X155119506Y-97408034D01*
X155119504Y-97408037D01*
X155056905Y-97516463D01*
X155041499Y-97573960D01*
X155024500Y-97637399D01*
X148800500Y-97637399D01*
X148800500Y-97512399D01*
X148768095Y-97391464D01*
X148705495Y-97283036D01*
X148646481Y-97224022D01*
X148612996Y-97162699D01*
X148617980Y-97093007D01*
X148659852Y-97037074D01*
X148676688Y-97027487D01*
X148676498Y-97027158D01*
X148683534Y-97023095D01*
X148683536Y-97023095D01*
X148791964Y-96960495D01*
X148880495Y-96871964D01*
X148929202Y-96787599D01*
X152483300Y-96787599D01*
X152483300Y-96912801D01*
X152515705Y-97033736D01*
X152578305Y-97142164D01*
X152666836Y-97230695D01*
X152775264Y-97293295D01*
X152896199Y-97325700D01*
X152896201Y-97325700D01*
X153021399Y-97325700D01*
X153021401Y-97325700D01*
X153142336Y-97293295D01*
X153250764Y-97230695D01*
X153339295Y-97142164D01*
X153401895Y-97033736D01*
X153434300Y-96912801D01*
X153434300Y-96787599D01*
X153414150Y-96712399D01*
X156349500Y-96712399D01*
X156349500Y-96837601D01*
X156381905Y-96958536D01*
X156444505Y-97066964D01*
X156533036Y-97155495D01*
X156641464Y-97218095D01*
X156762399Y-97250500D01*
X156762401Y-97250500D01*
X156887599Y-97250500D01*
X156887601Y-97250500D01*
X157008536Y-97218095D01*
X157116964Y-97155495D01*
X157205495Y-97066964D01*
X157268095Y-96958536D01*
X157300500Y-96837601D01*
X157300500Y-96712399D01*
X157268095Y-96591464D01*
X157205495Y-96483036D01*
X157116964Y-96394505D01*
X157008536Y-96331905D01*
X157008537Y-96331905D01*
X156968224Y-96321103D01*
X156887601Y-96299500D01*
X156762399Y-96299500D01*
X156681775Y-96321103D01*
X156641463Y-96331905D01*
X156533037Y-96394504D01*
X156533034Y-96394506D01*
X156444506Y-96483034D01*
X156444504Y-96483037D01*
X156381905Y-96591463D01*
X156371012Y-96632115D01*
X156349500Y-96712399D01*
X153414150Y-96712399D01*
X153401895Y-96666664D01*
X153339295Y-96558236D01*
X153250764Y-96469705D01*
X153142336Y-96407105D01*
X153142337Y-96407105D01*
X153095309Y-96394504D01*
X153021401Y-96374700D01*
X152896199Y-96374700D01*
X152822291Y-96394504D01*
X152775263Y-96407105D01*
X152666837Y-96469704D01*
X152666834Y-96469706D01*
X152578306Y-96558234D01*
X152578304Y-96558237D01*
X152515705Y-96666663D01*
X152509246Y-96690770D01*
X152483300Y-96787599D01*
X148929202Y-96787599D01*
X148943095Y-96763536D01*
X148975500Y-96642601D01*
X148975500Y-96517399D01*
X148943095Y-96396464D01*
X148880495Y-96288036D01*
X148850134Y-96257675D01*
X148816649Y-96196352D01*
X148821633Y-96126660D01*
X148856660Y-96077628D01*
X148856292Y-96077260D01*
X148858506Y-96075045D01*
X148859157Y-96074135D01*
X148860587Y-96072960D01*
X148860600Y-96072952D01*
X149120135Y-95813416D01*
X149202268Y-95690494D01*
X149258842Y-95553913D01*
X149271298Y-95491295D01*
X149287684Y-95408919D01*
X149287684Y-95261080D01*
X149258843Y-95116093D01*
X149258842Y-95116092D01*
X149258842Y-95116088D01*
X149256113Y-95109500D01*
X149202269Y-94979507D01*
X149202267Y-94979504D01*
X149120136Y-94856585D01*
X149120130Y-94856578D01*
X149015605Y-94752053D01*
X149015598Y-94752047D01*
X148892679Y-94669916D01*
X148892676Y-94669914D01*
X148756100Y-94613343D01*
X148756090Y-94613340D01*
X148611103Y-94584500D01*
X148611101Y-94584500D01*
X148463267Y-94584500D01*
X148463265Y-94584500D01*
X148318276Y-94613340D01*
X148318270Y-94613342D01*
X148181691Y-94669915D01*
X148108824Y-94718603D01*
X148042146Y-94739480D01*
X148039934Y-94739500D01*
X147906080Y-94739500D01*
X147761092Y-94768340D01*
X147761082Y-94768343D01*
X147624511Y-94824912D01*
X147624498Y-94824919D01*
X147501584Y-94907048D01*
X147501580Y-94907051D01*
X147095451Y-95313181D01*
X147034128Y-95346666D01*
X147007770Y-95349500D01*
X146304128Y-95349500D01*
X146295949Y-95347873D01*
X146290873Y-95348789D01*
X146256675Y-95340061D01*
X146192945Y-95313663D01*
X146138542Y-95269822D01*
X146116477Y-95203528D01*
X146133011Y-95137102D01*
X146134308Y-95134854D01*
X146134310Y-95134853D01*
X146196910Y-95026425D01*
X146229315Y-94905490D01*
X146229315Y-94780288D01*
X146196910Y-94659353D01*
X146134310Y-94550925D01*
X146045779Y-94462394D01*
X145937351Y-94399794D01*
X145937352Y-94399794D01*
X145897039Y-94388992D01*
X145816416Y-94367389D01*
X145691214Y-94367389D01*
X145610590Y-94388992D01*
X145570278Y-94399794D01*
X145461852Y-94462393D01*
X145461849Y-94462395D01*
X145373321Y-94550923D01*
X145373319Y-94550926D01*
X145310720Y-94659352D01*
X145296186Y-94713595D01*
X145278315Y-94780288D01*
X145278315Y-94905490D01*
X145298147Y-94979504D01*
X145310720Y-95026426D01*
X145310723Y-95026431D01*
X145337321Y-95072501D01*
X145353794Y-95140401D01*
X145330941Y-95206428D01*
X145276020Y-95249618D01*
X145229934Y-95258500D01*
X145015594Y-95258500D01*
X144901527Y-95281190D01*
X144901524Y-95281190D01*
X144891751Y-95283135D01*
X144870601Y-95287342D01*
X144741261Y-95340915D01*
X144739174Y-95341694D01*
X144732849Y-95342144D01*
X144695872Y-95349500D01*
X143993298Y-95349500D01*
X143926259Y-95329815D01*
X143905621Y-95313185D01*
X143814650Y-95222214D01*
X143691728Y-95140082D01*
X143691726Y-95140081D01*
X143691724Y-95140080D01*
X143555146Y-95083508D01*
X143555140Y-95083506D01*
X143410153Y-95054666D01*
X143410151Y-95054666D01*
X143262317Y-95054666D01*
X143262315Y-95054666D01*
X143117327Y-95083506D01*
X143117321Y-95083508D01*
X143077360Y-95100061D01*
X143029907Y-95109500D01*
X142478080Y-95109500D01*
X142333092Y-95138340D01*
X142333082Y-95138343D01*
X142196511Y-95194912D01*
X142196498Y-95194919D01*
X142073584Y-95277048D01*
X142073580Y-95277051D01*
X141706451Y-95644181D01*
X141645128Y-95677666D01*
X141618770Y-95680500D01*
X141051585Y-95680500D01*
X141030147Y-95684764D01*
X141030140Y-95684765D01*
X141025374Y-95685714D01*
X140906592Y-95709341D01*
X140835973Y-95738593D01*
X140829206Y-95741395D01*
X140829202Y-95741397D01*
X140770011Y-95765914D01*
X140770008Y-95765916D01*
X140747848Y-95780723D01*
X140725687Y-95795531D01*
X140725681Y-95795534D01*
X140725681Y-95795535D01*
X140713376Y-95803756D01*
X140646698Y-95824630D01*
X140597040Y-95815212D01*
X140569382Y-95803756D01*
X140525409Y-95785542D01*
X140525405Y-95785541D01*
X140525402Y-95785540D01*
X140380416Y-95756700D01*
X140380414Y-95756700D01*
X140009432Y-95756700D01*
X139979991Y-95748055D01*
X139950005Y-95741532D01*
X139944989Y-95737777D01*
X139942393Y-95737015D01*
X139921751Y-95720381D01*
X139833711Y-95632341D01*
X139800226Y-95571018D01*
X139805210Y-95501326D01*
X139847082Y-95445393D01*
X139889295Y-95424886D01*
X139952787Y-95407874D01*
X140061215Y-95345274D01*
X140149746Y-95256743D01*
X140165936Y-95228699D01*
X140216502Y-95180485D01*
X140273323Y-95166700D01*
X140337599Y-95166700D01*
X140337601Y-95166700D01*
X140458536Y-95134295D01*
X140566964Y-95071695D01*
X140655495Y-94983164D01*
X140718095Y-94874736D01*
X140750500Y-94753801D01*
X140750500Y-94628599D01*
X140718095Y-94507664D01*
X140655495Y-94399236D01*
X140566964Y-94310705D01*
X140458536Y-94248105D01*
X140458537Y-94248105D01*
X140418224Y-94237303D01*
X140337601Y-94215700D01*
X140212399Y-94215700D01*
X140131775Y-94237303D01*
X140091463Y-94248105D01*
X139983037Y-94310704D01*
X139983034Y-94310706D01*
X139894506Y-94399234D01*
X139894502Y-94399239D01*
X139878314Y-94427279D01*
X139827747Y-94475495D01*
X139770927Y-94489279D01*
X139706650Y-94489279D01*
X139626026Y-94510882D01*
X139585714Y-94521684D01*
X139477288Y-94584283D01*
X139477285Y-94584285D01*
X139388757Y-94672813D01*
X139388755Y-94672816D01*
X139326156Y-94781242D01*
X139326156Y-94781243D01*
X139297658Y-94887599D01*
X139293751Y-94902179D01*
X139293751Y-95027379D01*
X139294812Y-95035437D01*
X139293011Y-95035674D01*
X139291592Y-95095370D01*
X139252431Y-95153234D01*
X139188204Y-95180740D01*
X139149295Y-95179236D01*
X139142259Y-95177837D01*
X139142257Y-95177837D01*
X138977777Y-95177837D01*
X138977775Y-95177837D01*
X138832787Y-95206677D01*
X138832777Y-95206680D01*
X138696206Y-95263249D01*
X138696193Y-95263256D01*
X138633677Y-95305029D01*
X138566999Y-95325907D01*
X138499619Y-95307423D01*
X138495895Y-95305029D01*
X138463126Y-95283133D01*
X138344746Y-95234099D01*
X138344740Y-95234097D01*
X138219073Y-95209100D01*
X138219071Y-95209100D01*
X138090933Y-95209100D01*
X138090931Y-95209100D01*
X137965263Y-95234097D01*
X137965257Y-95234099D01*
X137846877Y-95283133D01*
X137846873Y-95283136D01*
X137740333Y-95354323D01*
X137740329Y-95354326D01*
X137649728Y-95444927D01*
X137649725Y-95444931D01*
X137578540Y-95551466D01*
X137578535Y-95551475D01*
X137529501Y-95669855D01*
X137529499Y-95669861D01*
X137504502Y-95795528D01*
X137504502Y-95795531D01*
X137504502Y-95923669D01*
X137504502Y-95923671D01*
X137504501Y-95923671D01*
X128215807Y-95923671D01*
X128209671Y-93587399D01*
X133849500Y-93587399D01*
X133849500Y-93712601D01*
X133881905Y-93833536D01*
X133944505Y-93941964D01*
X134033036Y-94030495D01*
X134141464Y-94093095D01*
X134237596Y-94118854D01*
X134297254Y-94155217D01*
X134327783Y-94218064D01*
X134329500Y-94238627D01*
X134329500Y-94274069D01*
X134329500Y-94274071D01*
X134329499Y-94274071D01*
X134354497Y-94399738D01*
X134354499Y-94399744D01*
X134403533Y-94518124D01*
X134403538Y-94518133D01*
X134474723Y-94624668D01*
X134474726Y-94624672D01*
X134565327Y-94715273D01*
X134565331Y-94715276D01*
X134671866Y-94786461D01*
X134671872Y-94786464D01*
X134671873Y-94786465D01*
X134790256Y-94835501D01*
X134790260Y-94835501D01*
X134790261Y-94835502D01*
X134915928Y-94860500D01*
X134915931Y-94860500D01*
X135044071Y-94860500D01*
X135128615Y-94843682D01*
X135169744Y-94835501D01*
X135288127Y-94786465D01*
X135394669Y-94715276D01*
X135485276Y-94624669D01*
X135556465Y-94518127D01*
X135605501Y-94399744D01*
X135623212Y-94310706D01*
X135630500Y-94274071D01*
X135630500Y-94145928D01*
X135605502Y-94020261D01*
X135605501Y-94020260D01*
X135605501Y-94020256D01*
X135572734Y-93941151D01*
X135565266Y-93871684D01*
X135596541Y-93809204D01*
X135656630Y-93773552D01*
X135687296Y-93769700D01*
X135698599Y-93769700D01*
X135698601Y-93769700D01*
X135819536Y-93737295D01*
X135927964Y-93674695D01*
X136016495Y-93586164D01*
X136079095Y-93477736D01*
X136111500Y-93356801D01*
X136111500Y-93231599D01*
X136079095Y-93110664D01*
X136016495Y-93002236D01*
X135927964Y-92913705D01*
X135819536Y-92851105D01*
X135819537Y-92851105D01*
X135770860Y-92838062D01*
X135698601Y-92818700D01*
X135573399Y-92818700D01*
X135501140Y-92838062D01*
X135452463Y-92851105D01*
X135344037Y-92913704D01*
X135344034Y-92913706D01*
X135255506Y-93002234D01*
X135255504Y-93002237D01*
X135192905Y-93110663D01*
X135176903Y-93170385D01*
X135160500Y-93231599D01*
X135160500Y-93356801D01*
X135173071Y-93403714D01*
X135172498Y-93427751D01*
X135176300Y-93451491D01*
X135171682Y-93462046D01*
X135171408Y-93473564D01*
X135157932Y-93493473D01*
X135148295Y-93515503D01*
X135138702Y-93521886D01*
X135132246Y-93531426D01*
X135110147Y-93540889D01*
X135090128Y-93554212D01*
X135075562Y-93555700D01*
X135068018Y-93558931D01*
X135055278Y-93559792D01*
X135046261Y-93559936D01*
X135044069Y-93559500D01*
X134915931Y-93559500D01*
X134902157Y-93562239D01*
X134890940Y-93562419D01*
X134867631Y-93555977D01*
X134843549Y-93553821D01*
X134834564Y-93546840D01*
X134823594Y-93543809D01*
X134807466Y-93525786D01*
X134788375Y-93510954D01*
X134781802Y-93497108D01*
X134777001Y-93491743D01*
X134775853Y-93484576D01*
X134769183Y-93470525D01*
X134768095Y-93466464D01*
X134705495Y-93358036D01*
X134616964Y-93269505D01*
X134508536Y-93206905D01*
X134508537Y-93206905D01*
X134445439Y-93189998D01*
X134387601Y-93174500D01*
X134262399Y-93174500D01*
X134204561Y-93189998D01*
X134141463Y-93206905D01*
X134033037Y-93269504D01*
X134033034Y-93269506D01*
X133944506Y-93358034D01*
X133944504Y-93358037D01*
X133881905Y-93466463D01*
X133877052Y-93484576D01*
X133849500Y-93587399D01*
X128209671Y-93587399D01*
X128206848Y-92512399D01*
X139299500Y-92512399D01*
X139299500Y-92637601D01*
X139331905Y-92758536D01*
X139394505Y-92866964D01*
X139483036Y-92955495D01*
X139591464Y-93018095D01*
X139712399Y-93050500D01*
X139712401Y-93050500D01*
X139837599Y-93050500D01*
X139837601Y-93050500D01*
X139958536Y-93018095D01*
X140066964Y-92955495D01*
X140155495Y-92866964D01*
X140218095Y-92758536D01*
X140226467Y-92727291D01*
X145800876Y-92727291D01*
X145800876Y-92852493D01*
X145833281Y-92973428D01*
X145895881Y-93081856D01*
X145984412Y-93170387D01*
X146092840Y-93232987D01*
X146213775Y-93265392D01*
X146213777Y-93265392D01*
X146338975Y-93265392D01*
X146338977Y-93265392D01*
X146459912Y-93232987D01*
X146568340Y-93170387D01*
X146616846Y-93121881D01*
X146678169Y-93088396D01*
X146736622Y-93089788D01*
X146745456Y-93092155D01*
X146763571Y-93097009D01*
X146763572Y-93097009D01*
X146888771Y-93097009D01*
X146888773Y-93097009D01*
X147009708Y-93064604D01*
X147118136Y-93002004D01*
X147168903Y-92951236D01*
X147230224Y-92917752D01*
X147288674Y-92919142D01*
X147312399Y-92925500D01*
X147312402Y-92925500D01*
X147437599Y-92925500D01*
X147437601Y-92925500D01*
X147558536Y-92893095D01*
X147666964Y-92830495D01*
X147666970Y-92830488D01*
X147673409Y-92825549D01*
X147674733Y-92827274D01*
X147726023Y-92799260D01*
X147795715Y-92804234D01*
X147814396Y-92813034D01*
X147866464Y-92843095D01*
X147987399Y-92875500D01*
X147987401Y-92875500D01*
X148112599Y-92875500D01*
X148112601Y-92875500D01*
X148173928Y-92859067D01*
X148243777Y-92860730D01*
X148293702Y-92891161D01*
X148333036Y-92930495D01*
X148441464Y-92993095D01*
X148562399Y-93025500D01*
X148562401Y-93025500D01*
X148687599Y-93025500D01*
X148687601Y-93025500D01*
X148808536Y-92993095D01*
X148916964Y-92930495D01*
X149005495Y-92841964D01*
X149068095Y-92733536D01*
X149100500Y-92612601D01*
X149100500Y-92487399D01*
X149068095Y-92366464D01*
X149005495Y-92258036D01*
X148916964Y-92169505D01*
X148808536Y-92106905D01*
X148808537Y-92106905D01*
X148748925Y-92090932D01*
X148687601Y-92074500D01*
X148562399Y-92074500D01*
X148562396Y-92074500D01*
X148501070Y-92090932D01*
X148431220Y-92089269D01*
X148381297Y-92058838D01*
X148341965Y-92019506D01*
X148341964Y-92019505D01*
X148233536Y-91956905D01*
X148233537Y-91956905D01*
X148193224Y-91946103D01*
X148112601Y-91924500D01*
X147987399Y-91924500D01*
X147906775Y-91946103D01*
X147866463Y-91956905D01*
X147758037Y-92019504D01*
X147751591Y-92024451D01*
X147750269Y-92022729D01*
X147698942Y-92050747D01*
X147629251Y-92045753D01*
X147610602Y-92036965D01*
X147558536Y-92006905D01*
X147558537Y-92006905D01*
X147518224Y-91996103D01*
X147437601Y-91974500D01*
X147312399Y-91974500D01*
X147231775Y-91996103D01*
X147191463Y-92006905D01*
X147083037Y-92069504D01*
X147032267Y-92120273D01*
X146970943Y-92153757D01*
X146912495Y-92152365D01*
X146888774Y-92146009D01*
X146888773Y-92146009D01*
X146763571Y-92146009D01*
X146682947Y-92167612D01*
X146642635Y-92178414D01*
X146534209Y-92241013D01*
X146485700Y-92289521D01*
X146424376Y-92323005D01*
X146365928Y-92321613D01*
X146338979Y-92314392D01*
X146338977Y-92314392D01*
X146213775Y-92314392D01*
X146133151Y-92335995D01*
X146092839Y-92346797D01*
X145984413Y-92409396D01*
X145984410Y-92409398D01*
X145895882Y-92497926D01*
X145895880Y-92497929D01*
X145833281Y-92606355D01*
X145828286Y-92624997D01*
X145800876Y-92727291D01*
X140226467Y-92727291D01*
X140250500Y-92637601D01*
X140250500Y-92512399D01*
X140218095Y-92391464D01*
X140155495Y-92283036D01*
X140066964Y-92194505D01*
X139958536Y-92131905D01*
X139958537Y-92131905D01*
X139918224Y-92121103D01*
X139837601Y-92099500D01*
X139712399Y-92099500D01*
X139631775Y-92121103D01*
X139591463Y-92131905D01*
X139483037Y-92194504D01*
X139483034Y-92194506D01*
X139394506Y-92283034D01*
X139394504Y-92283037D01*
X139331905Y-92391463D01*
X139318600Y-92441117D01*
X139299500Y-92512399D01*
X128206848Y-92512399D01*
X128201324Y-90409355D01*
X128202226Y-90394100D01*
X128220401Y-90244259D01*
X128225434Y-90221292D01*
X128270395Y-90081318D01*
X128279681Y-90059707D01*
X128350274Y-89930761D01*
X128363483Y-89911285D01*
X128457172Y-89797996D01*
X128473813Y-89781376D01*
X128587227Y-89687825D01*
X128606708Y-89674650D01*
X128735747Y-89604219D01*
X128757377Y-89594958D01*
X128897399Y-89550177D01*
X128920378Y-89545171D01*
X129071081Y-89527086D01*
X129085190Y-89526207D01*
X133905306Y-89501589D01*
X133905999Y-89501857D01*
X133920317Y-89501512D01*
X133934602Y-89501440D01*
X133934603Y-89501439D01*
X133942441Y-89501400D01*
X133947143Y-89500868D01*
X134569804Y-89485906D01*
X134570092Y-89485900D01*
X134584218Y-89485900D01*
X134585077Y-89485543D01*
X134586018Y-89485521D01*
X134586026Y-89485517D01*
X134586028Y-89485517D01*
X134598930Y-89479805D01*
X134611967Y-89474406D01*
X134612625Y-89473746D01*
X134613486Y-89473366D01*
X134613490Y-89473360D01*
X134613493Y-89473360D01*
X134623234Y-89463138D01*
X134633206Y-89453167D01*
X134633560Y-89452309D01*
X134634211Y-89451627D01*
X134635614Y-89447994D01*
X134638760Y-89439848D01*
X134639864Y-89437091D01*
X134640601Y-89435311D01*
X134644700Y-89425418D01*
X134644700Y-89425410D01*
X134645041Y-89423697D01*
X134644736Y-89410982D01*
X134644700Y-89408002D01*
X134644700Y-89243384D01*
X134664385Y-89176345D01*
X134717189Y-89130590D01*
X134745907Y-89121497D01*
X134864786Y-89099276D01*
X135050646Y-89027273D01*
X135220110Y-88922345D01*
X135353156Y-88801057D01*
X135367407Y-88788066D01*
X135391623Y-88756000D01*
X135487526Y-88629004D01*
X135576371Y-88450580D01*
X135630917Y-88258869D01*
X135646194Y-88094001D01*
X135646194Y-88094000D01*
X136363322Y-88094000D01*
X136381186Y-88263965D01*
X136381187Y-88263967D01*
X136433997Y-88426499D01*
X136447902Y-88450583D01*
X136518926Y-88573602D01*
X136519445Y-88574500D01*
X136519448Y-88574505D01*
X136633794Y-88701500D01*
X136633801Y-88701506D01*
X136772056Y-88801954D01*
X136772057Y-88801954D01*
X136772061Y-88801957D01*
X136899385Y-88858645D01*
X136928180Y-88871466D01*
X136928185Y-88871468D01*
X137095350Y-88907000D01*
X137095351Y-88907000D01*
X138993448Y-88907000D01*
X138993450Y-88907000D01*
X139160615Y-88871468D01*
X139316739Y-88801957D01*
X139455000Y-88701505D01*
X139455810Y-88700606D01*
X139569351Y-88574505D01*
X139569350Y-88574505D01*
X139569354Y-88574502D01*
X139654803Y-88426498D01*
X139707614Y-88263963D01*
X139725478Y-88094000D01*
X139725383Y-88093100D01*
X140808322Y-88093100D01*
X140826186Y-88263065D01*
X140826187Y-88263067D01*
X140878997Y-88425599D01*
X140964445Y-88573600D01*
X140964448Y-88573605D01*
X141078794Y-88700600D01*
X141078801Y-88700606D01*
X141217056Y-88801054D01*
X141217057Y-88801054D01*
X141217061Y-88801057D01*
X141344385Y-88857745D01*
X141373180Y-88870566D01*
X141373185Y-88870568D01*
X141540350Y-88906100D01*
X141540351Y-88906100D01*
X143438448Y-88906100D01*
X143438450Y-88906100D01*
X143605615Y-88870568D01*
X143761739Y-88801057D01*
X143900000Y-88700605D01*
X144014354Y-88573602D01*
X144099803Y-88425598D01*
X144152614Y-88263063D01*
X144170383Y-88094000D01*
X145430222Y-88094000D01*
X145448086Y-88263965D01*
X145448087Y-88263967D01*
X145500897Y-88426499D01*
X145514802Y-88450583D01*
X145585826Y-88573602D01*
X145586345Y-88574500D01*
X145586348Y-88574505D01*
X145700694Y-88701500D01*
X145700701Y-88701506D01*
X145838956Y-88801954D01*
X145838957Y-88801954D01*
X145838961Y-88801957D01*
X145966285Y-88858645D01*
X145995080Y-88871466D01*
X145995085Y-88871468D01*
X146162250Y-88907000D01*
X146162251Y-88907000D01*
X148060348Y-88907000D01*
X148060350Y-88907000D01*
X148227515Y-88871468D01*
X148383639Y-88801957D01*
X148521900Y-88701505D01*
X148522710Y-88700606D01*
X148636251Y-88574505D01*
X148636250Y-88574505D01*
X148636254Y-88574502D01*
X148721703Y-88426498D01*
X148774514Y-88263963D01*
X148792378Y-88094000D01*
X148774514Y-87924037D01*
X148721703Y-87761502D01*
X148721183Y-87760602D01*
X148675370Y-87681250D01*
X148636254Y-87613498D01*
X148636252Y-87613496D01*
X148636251Y-87613494D01*
X148521905Y-87486499D01*
X148521898Y-87486493D01*
X148383643Y-87386045D01*
X148383640Y-87386043D01*
X148383639Y-87386043D01*
X148326949Y-87360803D01*
X148227519Y-87316533D01*
X148227514Y-87316531D01*
X148095881Y-87288552D01*
X148060350Y-87281000D01*
X147989918Y-87281000D01*
X146272231Y-87281000D01*
X146247700Y-87281000D01*
X146162250Y-87281000D01*
X146132947Y-87287228D01*
X145995085Y-87316531D01*
X145995080Y-87316533D01*
X145838961Y-87386043D01*
X145838956Y-87386045D01*
X145700701Y-87486493D01*
X145700694Y-87486499D01*
X145586348Y-87613494D01*
X145586345Y-87613499D01*
X145500897Y-87761500D01*
X145448087Y-87924032D01*
X145448086Y-87924034D01*
X145430222Y-88094000D01*
X144170383Y-88094000D01*
X144170478Y-88093100D01*
X144152614Y-87923137D01*
X144099803Y-87760602D01*
X144014354Y-87612598D01*
X144014352Y-87612596D01*
X144014351Y-87612594D01*
X143900005Y-87485599D01*
X143899998Y-87485593D01*
X143761743Y-87385145D01*
X143761740Y-87385143D01*
X143761739Y-87385143D01*
X143705049Y-87359903D01*
X143605619Y-87315633D01*
X143605614Y-87315631D01*
X143473981Y-87287652D01*
X143438450Y-87280100D01*
X143368018Y-87280100D01*
X141650331Y-87280100D01*
X141625800Y-87280100D01*
X141540350Y-87280100D01*
X141511047Y-87286328D01*
X141373185Y-87315631D01*
X141373180Y-87315633D01*
X141217061Y-87385143D01*
X141217056Y-87385145D01*
X141078801Y-87485593D01*
X141078794Y-87485599D01*
X140964448Y-87612594D01*
X140964445Y-87612599D01*
X140878997Y-87760600D01*
X140826187Y-87923132D01*
X140826186Y-87923134D01*
X140808322Y-88093100D01*
X139725383Y-88093100D01*
X139707614Y-87924037D01*
X139654803Y-87761502D01*
X139654283Y-87760602D01*
X139608470Y-87681250D01*
X139569354Y-87613498D01*
X139569352Y-87613496D01*
X139569351Y-87613494D01*
X139455005Y-87486499D01*
X139454998Y-87486493D01*
X139316743Y-87386045D01*
X139316740Y-87386043D01*
X139316739Y-87386043D01*
X139260049Y-87360803D01*
X139160619Y-87316533D01*
X139160614Y-87316531D01*
X139028981Y-87288552D01*
X138993450Y-87281000D01*
X138923018Y-87281000D01*
X137205331Y-87281000D01*
X137180800Y-87281000D01*
X137095350Y-87281000D01*
X137066047Y-87287228D01*
X136928185Y-87316531D01*
X136928180Y-87316533D01*
X136772061Y-87386043D01*
X136772056Y-87386045D01*
X136633801Y-87486493D01*
X136633794Y-87486499D01*
X136519448Y-87613494D01*
X136519445Y-87613499D01*
X136433997Y-87761500D01*
X136381187Y-87924032D01*
X136381186Y-87924034D01*
X136363322Y-88094000D01*
X135646194Y-88094000D01*
X135647857Y-88076060D01*
X135649308Y-88060400D01*
X135649308Y-88060399D01*
X135636672Y-87924034D01*
X135630917Y-87861931D01*
X135576371Y-87670220D01*
X135529220Y-87575528D01*
X135487529Y-87491801D01*
X135487524Y-87491793D01*
X135367407Y-87332733D01*
X135220111Y-87198456D01*
X135220110Y-87198455D01*
X135119081Y-87135900D01*
X135050647Y-87093527D01*
X135050645Y-87093526D01*
X134950229Y-87054625D01*
X134864786Y-87021524D01*
X134745914Y-86999303D01*
X134683634Y-86967636D01*
X134648361Y-86907324D01*
X134644700Y-86877415D01*
X134644700Y-85967199D01*
X136100300Y-85967199D01*
X136100300Y-86092401D01*
X136132705Y-86213336D01*
X136195305Y-86321764D01*
X136283836Y-86410295D01*
X136392264Y-86472895D01*
X136513199Y-86505300D01*
X136513201Y-86505300D01*
X136638399Y-86505300D01*
X136638401Y-86505300D01*
X136759336Y-86472895D01*
X136867764Y-86410295D01*
X136945319Y-86332740D01*
X137006642Y-86299255D01*
X137076334Y-86304239D01*
X137120681Y-86332740D01*
X137198236Y-86410295D01*
X137306664Y-86472895D01*
X137427599Y-86505300D01*
X137427601Y-86505300D01*
X137552799Y-86505300D01*
X137552801Y-86505300D01*
X137673736Y-86472895D01*
X137782164Y-86410295D01*
X137870695Y-86321764D01*
X137933295Y-86213336D01*
X137965700Y-86092401D01*
X137965700Y-85967199D01*
X137952088Y-85916399D01*
X138284700Y-85916399D01*
X138284700Y-86041601D01*
X138317105Y-86162536D01*
X138379705Y-86270964D01*
X138468236Y-86359495D01*
X138576664Y-86422095D01*
X138697599Y-86454500D01*
X138697601Y-86454500D01*
X138822799Y-86454500D01*
X138822801Y-86454500D01*
X138943736Y-86422095D01*
X139052164Y-86359495D01*
X139066955Y-86344703D01*
X139128275Y-86311218D01*
X139197967Y-86316201D01*
X139223135Y-86330138D01*
X139223197Y-86330031D01*
X139229208Y-86333501D01*
X139230121Y-86334007D01*
X139230234Y-86334093D01*
X139230236Y-86334095D01*
X139338664Y-86396695D01*
X139459599Y-86429100D01*
X139459601Y-86429100D01*
X139584799Y-86429100D01*
X139584801Y-86429100D01*
X139705736Y-86396695D01*
X139814164Y-86334095D01*
X139902695Y-86245564D01*
X139915234Y-86223844D01*
X139965799Y-86175629D01*
X140034406Y-86162404D01*
X140099271Y-86188370D01*
X140110303Y-86198162D01*
X140144636Y-86232495D01*
X140253064Y-86295095D01*
X140373999Y-86327500D01*
X140374001Y-86327500D01*
X140499199Y-86327500D01*
X140499201Y-86327500D01*
X140620136Y-86295095D01*
X140728564Y-86232495D01*
X140817095Y-86143964D01*
X140879695Y-86035536D01*
X140911706Y-85916071D01*
X144383499Y-85916071D01*
X144408497Y-86041738D01*
X144408499Y-86041744D01*
X144457533Y-86160124D01*
X144457538Y-86160133D01*
X144528723Y-86266668D01*
X144528726Y-86266672D01*
X144619327Y-86357273D01*
X144619331Y-86357276D01*
X144725866Y-86428461D01*
X144725872Y-86428464D01*
X144725873Y-86428465D01*
X144844256Y-86477501D01*
X144844260Y-86477501D01*
X144844261Y-86477502D01*
X144969928Y-86502500D01*
X144969931Y-86502500D01*
X145098071Y-86502500D01*
X145182615Y-86485682D01*
X145223744Y-86477501D01*
X145342127Y-86428465D01*
X145448669Y-86357276D01*
X145539276Y-86266669D01*
X145610465Y-86160127D01*
X145659501Y-86041744D01*
X145664224Y-86017999D01*
X146920700Y-86017999D01*
X146920700Y-86143201D01*
X146953105Y-86264136D01*
X147015705Y-86372564D01*
X147104236Y-86461095D01*
X147212664Y-86523695D01*
X147333599Y-86556100D01*
X147333601Y-86556100D01*
X147458799Y-86556100D01*
X147458801Y-86556100D01*
X147579736Y-86523695D01*
X147663735Y-86475199D01*
X148393900Y-86475199D01*
X148393900Y-86600401D01*
X148426305Y-86721336D01*
X148488905Y-86829764D01*
X148577436Y-86918295D01*
X148685864Y-86980895D01*
X148806799Y-87013300D01*
X148806801Y-87013300D01*
X148931999Y-87013300D01*
X148932001Y-87013300D01*
X149052936Y-86980895D01*
X149161364Y-86918295D01*
X149249895Y-86829764D01*
X149312495Y-86721336D01*
X149344900Y-86600401D01*
X149344900Y-86475199D01*
X149312495Y-86354264D01*
X149249895Y-86245836D01*
X149161364Y-86157305D01*
X149052936Y-86094705D01*
X149052937Y-86094705D01*
X149012624Y-86083903D01*
X148932001Y-86062300D01*
X148806799Y-86062300D01*
X148726175Y-86083903D01*
X148685863Y-86094705D01*
X148577437Y-86157304D01*
X148577434Y-86157306D01*
X148488906Y-86245834D01*
X148488904Y-86245837D01*
X148426305Y-86354263D01*
X148424903Y-86359495D01*
X148393900Y-86475199D01*
X147663735Y-86475199D01*
X147688164Y-86461095D01*
X147776695Y-86372564D01*
X147839295Y-86264136D01*
X147871700Y-86143201D01*
X147871700Y-86017999D01*
X147839295Y-85897064D01*
X147776695Y-85788636D01*
X147688164Y-85700105D01*
X147579736Y-85637505D01*
X147579737Y-85637505D01*
X147519565Y-85621382D01*
X147458801Y-85605100D01*
X147333599Y-85605100D01*
X147272835Y-85621382D01*
X147212663Y-85637505D01*
X147104237Y-85700104D01*
X147104234Y-85700106D01*
X147015706Y-85788634D01*
X147015704Y-85788637D01*
X146953105Y-85897063D01*
X146948012Y-85916071D01*
X146920700Y-86017999D01*
X145664224Y-86017999D01*
X145670654Y-85985679D01*
X145684500Y-85916071D01*
X145684500Y-85787928D01*
X145659502Y-85662261D01*
X145659501Y-85662260D01*
X145659501Y-85662256D01*
X145610465Y-85543873D01*
X145610464Y-85543872D01*
X145610461Y-85543866D01*
X145539276Y-85437331D01*
X145539273Y-85437327D01*
X145448672Y-85346726D01*
X145448668Y-85346723D01*
X145342133Y-85275538D01*
X145342124Y-85275533D01*
X145223744Y-85226499D01*
X145223738Y-85226497D01*
X145098071Y-85201500D01*
X145098069Y-85201500D01*
X144969931Y-85201500D01*
X144969929Y-85201500D01*
X144844261Y-85226497D01*
X144844255Y-85226499D01*
X144725875Y-85275533D01*
X144725866Y-85275538D01*
X144619331Y-85346723D01*
X144619327Y-85346726D01*
X144528726Y-85437327D01*
X144528723Y-85437331D01*
X144457538Y-85543866D01*
X144457533Y-85543875D01*
X144408499Y-85662255D01*
X144408497Y-85662261D01*
X144383500Y-85787928D01*
X144383500Y-85787931D01*
X144383500Y-85916069D01*
X144383500Y-85916071D01*
X144383499Y-85916071D01*
X140911706Y-85916071D01*
X140912100Y-85914601D01*
X140912100Y-85789399D01*
X140879695Y-85668464D01*
X140817095Y-85560036D01*
X140728564Y-85471505D01*
X140620136Y-85408905D01*
X140620137Y-85408905D01*
X140579824Y-85398103D01*
X140499201Y-85376500D01*
X140373999Y-85376500D01*
X140293375Y-85398103D01*
X140253063Y-85408905D01*
X140144637Y-85471504D01*
X140144634Y-85471506D01*
X140056106Y-85560034D01*
X140056102Y-85560039D01*
X140043563Y-85581758D01*
X139992995Y-85629972D01*
X139924388Y-85643194D01*
X139859524Y-85617225D01*
X139848496Y-85607437D01*
X139814165Y-85573106D01*
X139814164Y-85573105D01*
X139705736Y-85510505D01*
X139705737Y-85510505D01*
X139665424Y-85499703D01*
X139584801Y-85478100D01*
X139459599Y-85478100D01*
X139378975Y-85499703D01*
X139338663Y-85510505D01*
X139230237Y-85573104D01*
X139230233Y-85573107D01*
X139215442Y-85587898D01*
X139154118Y-85621382D01*
X139084427Y-85616396D01*
X139059264Y-85602461D01*
X139059203Y-85602569D01*
X139053187Y-85599095D01*
X139052281Y-85598594D01*
X139052168Y-85598507D01*
X138943736Y-85535905D01*
X138943737Y-85535905D01*
X138903424Y-85525103D01*
X138822801Y-85503500D01*
X138697599Y-85503500D01*
X138616975Y-85525103D01*
X138576663Y-85535905D01*
X138468237Y-85598504D01*
X138468234Y-85598506D01*
X138379706Y-85687034D01*
X138379704Y-85687037D01*
X138317105Y-85795463D01*
X138317105Y-85795464D01*
X138284700Y-85916399D01*
X137952088Y-85916399D01*
X137933295Y-85846264D01*
X137870695Y-85737836D01*
X137782164Y-85649305D01*
X137673736Y-85586705D01*
X137673737Y-85586705D01*
X137622988Y-85573107D01*
X137552801Y-85554300D01*
X137427599Y-85554300D01*
X137357412Y-85573107D01*
X137306663Y-85586705D01*
X137198237Y-85649304D01*
X137198234Y-85649306D01*
X137120681Y-85726860D01*
X137059358Y-85760345D01*
X136989666Y-85755361D01*
X136945319Y-85726860D01*
X136867765Y-85649306D01*
X136867764Y-85649305D01*
X136759336Y-85586705D01*
X136759337Y-85586705D01*
X136708588Y-85573107D01*
X136638401Y-85554300D01*
X136513199Y-85554300D01*
X136443012Y-85573107D01*
X136392263Y-85586705D01*
X136283837Y-85649304D01*
X136283834Y-85649306D01*
X136195306Y-85737834D01*
X136195304Y-85737837D01*
X136132705Y-85846263D01*
X136132705Y-85846264D01*
X136100300Y-85967199D01*
X134644700Y-85967199D01*
X134644700Y-78664071D01*
X146949499Y-78664071D01*
X146974497Y-78789738D01*
X146974499Y-78789744D01*
X147023533Y-78908124D01*
X147023538Y-78908133D01*
X147094723Y-79014668D01*
X147094726Y-79014672D01*
X147185327Y-79105273D01*
X147185331Y-79105276D01*
X147291866Y-79176461D01*
X147291872Y-79176464D01*
X147291873Y-79176465D01*
X147410256Y-79225501D01*
X147410260Y-79225501D01*
X147410261Y-79225502D01*
X147535928Y-79250500D01*
X147535931Y-79250500D01*
X147664071Y-79250500D01*
X147748615Y-79233682D01*
X147789744Y-79225501D01*
X147908127Y-79176465D01*
X148014669Y-79105276D01*
X148105276Y-79014669D01*
X148176465Y-78908127D01*
X148225501Y-78789744D01*
X148250500Y-78664069D01*
X148250500Y-78535931D01*
X148250500Y-78535928D01*
X148225502Y-78410261D01*
X148225501Y-78410260D01*
X148225501Y-78410256D01*
X148176465Y-78291873D01*
X148176464Y-78291872D01*
X148176461Y-78291866D01*
X148105276Y-78185331D01*
X148105273Y-78185327D01*
X148014672Y-78094726D01*
X148014668Y-78094723D01*
X147908133Y-78023538D01*
X147908124Y-78023533D01*
X147789744Y-77974499D01*
X147789738Y-77974497D01*
X147664071Y-77949500D01*
X147664069Y-77949500D01*
X147535931Y-77949500D01*
X147535929Y-77949500D01*
X147410261Y-77974497D01*
X147410255Y-77974499D01*
X147291875Y-78023533D01*
X147291866Y-78023538D01*
X147185331Y-78094723D01*
X147185327Y-78094726D01*
X147094726Y-78185327D01*
X147094723Y-78185331D01*
X147023538Y-78291866D01*
X147023533Y-78291875D01*
X146974499Y-78410255D01*
X146974497Y-78410261D01*
X146949500Y-78535928D01*
X146949500Y-78535931D01*
X146949500Y-78664069D01*
X146949500Y-78664071D01*
X146949499Y-78664071D01*
X134644700Y-78664071D01*
X134644700Y-77059900D01*
X134664385Y-76992861D01*
X134717189Y-76947106D01*
X134768700Y-76935900D01*
X150470778Y-76935900D01*
X150537817Y-76955585D01*
G37*
%TD.AperFunction*%
%TD*%
M02*
