%TF.GenerationSoftware,KiCad,Pcbnew,9.0.2*%
%TF.CreationDate,2025-06-08T15:56:05+02:00*%
%TF.ProjectId,MicroMod_Processor_Board,4d696372-6f4d-46f6-945f-50726f636573,rev?*%
%TF.SameCoordinates,Original*%
%TF.FileFunction,Soldermask,Bot*%
%TF.FilePolarity,Negative*%
%FSLAX46Y46*%
G04 Gerber Fmt 4.6, Leading zero omitted, Abs format (unit mm)*
G04 Created by KiCad (PCBNEW 9.0.2) date 2025-06-08 15:56:05*
%MOMM*%
%LPD*%
G01*
G04 APERTURE LIST*
G04 Aperture macros list*
%AMRoundRect*
0 Rectangle with rounded corners*
0 $1 Rounding radius*
0 $2 $3 $4 $5 $6 $7 $8 $9 X,Y pos of 4 corners*
0 Add a 4 corners polygon primitive as box body*
4,1,4,$2,$3,$4,$5,$6,$7,$8,$9,$2,$3,0*
0 Add four circle primitives for the rounded corners*
1,1,$1+$1,$2,$3*
1,1,$1+$1,$4,$5*
1,1,$1+$1,$6,$7*
1,1,$1+$1,$8,$9*
0 Add four rect primitives between the rounded corners*
20,1,$1+$1,$2,$3,$4,$5,0*
20,1,$1+$1,$4,$5,$6,$7,0*
20,1,$1+$1,$6,$7,$8,$9,0*
20,1,$1+$1,$8,$9,$2,$3,0*%
G04 Aperture macros list end*
%ADD10C,0.000000*%
%ADD11RoundRect,0.262500X-0.262500X0.275000X-0.262500X-0.275000X0.262500X-0.275000X0.262500X0.275000X0*%
%ADD12RoundRect,0.101600X-0.175000X-0.975000X0.175000X-0.975000X0.175000X0.975000X-0.175000X0.975000X0*%
%ADD13C,0.657200*%
%ADD14RoundRect,0.262500X0.325000X0.262500X-0.325000X0.262500X-0.325000X-0.262500X0.325000X-0.262500X0*%
%ADD15RoundRect,0.270833X-0.379167X-0.479167X0.379167X-0.479167X0.379167X0.479167X-0.379167X0.479167X0*%
%ADD16RoundRect,0.262500X0.262500X-0.275000X0.262500X0.275000X-0.262500X0.275000X-0.262500X-0.275000X0*%
%ADD17RoundRect,0.262500X-0.325000X-0.262500X0.325000X-0.262500X0.325000X0.262500X-0.325000X0.262500X0*%
%ADD18RoundRect,0.175000X-0.612500X-0.175000X0.612500X-0.175000X0.612500X0.175000X-0.612500X0.175000X0*%
%ADD19RoundRect,0.050000X0.400000X0.750000X-0.400000X0.750000X-0.400000X-0.750000X0.400000X-0.750000X0*%
%ADD20RoundRect,0.050000X0.725000X1.000000X-0.725000X1.000000X-0.725000X-1.000000X0.725000X-1.000000X0*%
G04 APERTURE END LIST*
D10*
%TO.C,J1*%
G36*
X150774186Y-92678884D02*
G01*
X150853138Y-92973535D01*
X150982056Y-93250000D01*
X151157022Y-93499878D01*
X151372722Y-93715578D01*
X151622600Y-93890544D01*
X151899065Y-94019462D01*
X152193716Y-94098414D01*
X152497600Y-94125000D01*
X152801484Y-94098414D01*
X153096135Y-94019462D01*
X153372600Y-93890544D01*
X153622478Y-93715578D01*
X153838178Y-93499878D01*
X154013144Y-93250000D01*
X154142062Y-92973535D01*
X154221014Y-92678884D01*
X154247600Y-92375000D01*
X155247600Y-92375000D01*
X155153896Y-93086752D01*
X155038269Y-93427379D01*
X154879170Y-93750000D01*
X154679322Y-94049094D01*
X154442144Y-94319544D01*
X154171694Y-94556722D01*
X153872600Y-94756570D01*
X153549979Y-94915669D01*
X153209352Y-95031296D01*
X152856547Y-95101473D01*
X152497600Y-95125000D01*
X152138653Y-95101473D01*
X151785848Y-95031296D01*
X151445221Y-94915669D01*
X151122600Y-94756570D01*
X150823506Y-94556722D01*
X150553056Y-94319544D01*
X150315878Y-94049094D01*
X150116030Y-93750000D01*
X149956931Y-93427379D01*
X149841304Y-93086752D01*
X149771127Y-92733947D01*
X149747600Y-92375000D01*
X150747600Y-92375000D01*
X150774186Y-92678884D01*
G37*
%TD*%
D11*
%TO.C,R5*%
X154700000Y-108350000D03*
X154700000Y-110175000D03*
%TD*%
D12*
%TO.C,J1*%
X157497600Y-112850000D03*
X156997600Y-112850000D03*
X156497600Y-112850000D03*
X155997600Y-112850000D03*
X155497600Y-112850000D03*
X154997600Y-112850000D03*
X154497600Y-112850000D03*
X153997600Y-112850000D03*
X153497600Y-112850000D03*
X152997600Y-112850000D03*
X152497600Y-112850000D03*
X149997600Y-112850000D03*
X149497600Y-112850000D03*
X148997600Y-112850000D03*
X148497600Y-112850000D03*
X147997600Y-112850000D03*
X147497600Y-112850000D03*
X146997600Y-112850000D03*
X146497600Y-112850000D03*
X145997600Y-112850000D03*
X145497600Y-112850000D03*
X144997600Y-112850000D03*
X144497600Y-112850000D03*
X143997600Y-112850000D03*
X143497600Y-112850000D03*
X142997600Y-112850000D03*
X142497600Y-112850000D03*
X141997600Y-112850000D03*
X141497600Y-112850000D03*
X140997600Y-112850000D03*
X140497600Y-112850000D03*
X139997600Y-112850000D03*
X139497600Y-112850000D03*
D13*
X150397600Y-93375000D03*
X152497600Y-94675000D03*
X154597600Y-93375000D03*
%TD*%
D14*
%TO.C,C13*%
X154506000Y-95885000D03*
X152781000Y-95885000D03*
%TD*%
D15*
%TO.C,F1*%
X156300000Y-109300000D03*
X158300000Y-109300000D03*
%TD*%
D16*
%TO.C,R1*%
X157900000Y-98825000D03*
X157900000Y-97000000D03*
%TD*%
D17*
%TO.C,C10*%
X152757800Y-97358200D03*
X154482800Y-97358200D03*
%TD*%
D18*
%TO.C,Q1*%
X156350000Y-95400000D03*
X156350000Y-93500000D03*
X158225000Y-94450000D03*
%TD*%
D17*
%TO.C,C11*%
X144297400Y-109245400D03*
X146022400Y-109245400D03*
%TD*%
D16*
%TO.C,R3*%
X153050000Y-101350000D03*
X153050000Y-99525000D03*
%TD*%
D19*
%TO.C,J2*%
X147015000Y-98460000D03*
X145915000Y-98460000D03*
X144815000Y-98460000D03*
X143715000Y-98460000D03*
X142615000Y-98460000D03*
X141515000Y-98460000D03*
X140415000Y-98460000D03*
X139315000Y-98460000D03*
D20*
X150690000Y-104160000D03*
X150690000Y-95860000D03*
X136940000Y-104160000D03*
X136940000Y-95860000D03*
%TD*%
D14*
%TO.C,C16*%
X149733000Y-109250000D03*
X148008000Y-109250000D03*
%TD*%
M02*
