%TF.GenerationSoftware,KiCad,Pcbnew,9.0.2*%
%TF.CreationDate,2025-06-08T15:56:05+02:00*%
%TF.ProjectId,MicroMod_Processor_Board,4d696372-6f4d-46f6-945f-50726f636573,rev?*%
%TF.SameCoordinates,Original*%
%TF.FileFunction,Copper,L4,Bot*%
%TF.FilePolarity,Positive*%
%FSLAX46Y46*%
G04 Gerber Fmt 4.6, Leading zero omitted, Abs format (unit mm)*
G04 Created by KiCad (PCBNEW 9.0.2) date 2025-06-08 15:56:05*
%MOMM*%
%LPD*%
G01*
G04 APERTURE LIST*
G04 Aperture macros list*
%AMRoundRect*
0 Rectangle with rounded corners*
0 $1 Rounding radius*
0 $2 $3 $4 $5 $6 $7 $8 $9 X,Y pos of 4 corners*
0 Add a 4 corners polygon primitive as box body*
4,1,4,$2,$3,$4,$5,$6,$7,$8,$9,$2,$3,0*
0 Add four circle primitives for the rounded corners*
1,1,$1+$1,$2,$3*
1,1,$1+$1,$4,$5*
1,1,$1+$1,$6,$7*
1,1,$1+$1,$8,$9*
0 Add four rect primitives between the rounded corners*
20,1,$1+$1,$2,$3,$4,$5,0*
20,1,$1+$1,$4,$5,$6,$7,0*
20,1,$1+$1,$6,$7,$8,$9,0*
20,1,$1+$1,$8,$9,$2,$3,0*%
G04 Aperture macros list end*
%TA.AperFunction,SMDPad,CuDef*%
%ADD10RoundRect,0.237500X-0.237500X0.250000X-0.237500X-0.250000X0.237500X-0.250000X0.237500X0.250000X0*%
%TD*%
%TA.AperFunction,SMDPad,CuDef*%
%ADD11R,0.350000X1.950000*%
%TD*%
%TA.AperFunction,ComponentPad*%
%ADD12C,0.454000*%
%TD*%
%TA.AperFunction,SMDPad,CuDef*%
%ADD13RoundRect,0.237500X0.300000X0.237500X-0.300000X0.237500X-0.300000X-0.237500X0.300000X-0.237500X0*%
%TD*%
%TA.AperFunction,SMDPad,CuDef*%
%ADD14RoundRect,0.250000X-0.350000X-0.450000X0.350000X-0.450000X0.350000X0.450000X-0.350000X0.450000X0*%
%TD*%
%TA.AperFunction,SMDPad,CuDef*%
%ADD15RoundRect,0.237500X0.237500X-0.250000X0.237500X0.250000X-0.237500X0.250000X-0.237500X-0.250000X0*%
%TD*%
%TA.AperFunction,SMDPad,CuDef*%
%ADD16RoundRect,0.237500X-0.300000X-0.237500X0.300000X-0.237500X0.300000X0.237500X-0.300000X0.237500X0*%
%TD*%
%TA.AperFunction,SMDPad,CuDef*%
%ADD17RoundRect,0.150000X-0.587500X-0.150000X0.587500X-0.150000X0.587500X0.150000X-0.587500X0.150000X0*%
%TD*%
%TA.AperFunction,SMDPad,CuDef*%
%ADD18R,0.800000X1.500000*%
%TD*%
%TA.AperFunction,SMDPad,CuDef*%
%ADD19R,1.450000X2.000000*%
%TD*%
%TA.AperFunction,ViaPad*%
%ADD20C,0.800000*%
%TD*%
%TA.AperFunction,ViaPad*%
%ADD21C,0.450000*%
%TD*%
%TA.AperFunction,ViaPad*%
%ADD22C,0.400000*%
%TD*%
%TA.AperFunction,Conductor*%
%ADD23C,0.350000*%
%TD*%
%TA.AperFunction,Conductor*%
%ADD24C,0.127000*%
%TD*%
%TA.AperFunction,Conductor*%
%ADD25C,0.250000*%
%TD*%
%TA.AperFunction,Conductor*%
%ADD26C,0.500000*%
%TD*%
%TA.AperFunction,Conductor*%
%ADD27C,1.000000*%
%TD*%
G04 APERTURE END LIST*
D10*
%TO.P,R5,1*%
%TO.N,/USB_VIN*%
X154700000Y-108350000D03*
%TO.P,R5,2*%
%TO.N,Net-(J1-USB_VIN)*%
X154700000Y-110175000D03*
%TD*%
D11*
%TO.P,J1,2,3.3V*%
%TO.N,Net-(F1-Pad2)*%
X157497600Y-112850000D03*
%TO.P,J1,4,3.3V_EN*%
%TO.N,unconnected-(J1-3.3V_EN-Pad4)*%
X156997600Y-112850000D03*
%TO.P,J1,6,~{RESET}*%
%TO.N,/~{RESET}*%
X156497600Y-112850000D03*
%TO.P,J1,8,G11*%
%TO.N,/G11-SWO*%
X155997600Y-112850000D03*
%TO.P,J1,10,D0*%
%TO.N,/D0*%
X155497600Y-112850000D03*
%TO.P,J1,12,I2C_SDA*%
%TO.N,/I2C_SDA*%
X154997600Y-112850000D03*
%TO.P,J1,14,I2C_SCL*%
%TO.N,/I2C_SCL*%
X154497600Y-112850000D03*
%TO.P,J1,16,I2C_~{INT}*%
%TO.N,/I2C_~{INT}*%
X153997600Y-112850000D03*
%TO.P,J1,18,D1/CAM_TRIG*%
%TO.N,/D1-CAM_TRIG*%
X153497600Y-112850000D03*
%TO.P,J1,20,RX2*%
%TO.N,/UART_RX2*%
X152997600Y-112850000D03*
%TO.P,J1,22,TX2*%
%TO.N,/UART_TX2*%
X152497600Y-112850000D03*
%TO.P,J1,32,PWM0*%
%TO.N,unconnected-(J1-PWM0-Pad32)*%
X149997600Y-112850000D03*
%TO.P,J1,34,A0*%
%TO.N,/A0*%
X149497600Y-112850000D03*
%TO.P,J1,36,GND*%
%TO.N,GND*%
X148997600Y-112850000D03*
%TO.P,J1,38,A1*%
%TO.N,/A1*%
X148497600Y-112850000D03*
%TO.P,J1,40,G0/BUS0*%
%TO.N,/G0*%
X147997600Y-112850000D03*
%TO.P,J1,42,G1/BUS1*%
%TO.N,/G1*%
X147497600Y-112850000D03*
%TO.P,J1,44,G2/BUS2*%
%TO.N,/G2*%
X146997600Y-112850000D03*
%TO.P,J1,46,G3/BUS3*%
%TO.N,/G3*%
X146497600Y-112850000D03*
%TO.P,J1,48,G4/BUS4*%
%TO.N,unconnected-(J1-G4{slash}BUS4-Pad48)*%
X145997600Y-112850000D03*
%TO.P,J1,50,AUD_BCLK*%
%TO.N,/AUD_BCLK*%
X145497600Y-112850000D03*
%TO.P,J1,52,AUD_LRCLK*%
%TO.N,/AUD_LRCLK*%
X144997600Y-112850000D03*
%TO.P,J1,54,AUD_IN/CAM_PCLK*%
%TO.N,/AUD_IN-CAM_PCLK*%
X144497600Y-112850000D03*
%TO.P,J1,56,AUD_OUT/CAM_MCLK*%
%TO.N,/AUD_OUT-CAM_MCLK*%
X143997600Y-112850000D03*
%TO.P,J1,58,AUD_MCLK*%
%TO.N,/AUD_MCLK*%
X143497600Y-112850000D03*
%TO.P,J1,60,SPI_SCK1/SDIO_CLK*%
%TO.N,/SPI_SCK1*%
X142997600Y-112850000D03*
%TO.P,J1,62,SPI_SDO1/SDIO_CMD*%
%TO.N,/SPI_COPI1*%
X142497600Y-112850000D03*
%TO.P,J1,64,SPI_SDI1/SDIO_DATA0*%
%TO.N,/SPI_CIPO1*%
X141997600Y-112850000D03*
%TO.P,J1,66,SDIO_DATA1*%
%TO.N,unconnected-(J1-SDIO_DATA1-Pad66)*%
X141497600Y-112850000D03*
%TO.P,J1,68,SDIO_DATA2*%
%TO.N,unconnected-(J1-SDIO_DATA2-Pad68)*%
X140997600Y-112850000D03*
%TO.P,J1,70,SPI_~{CS1}/SDIO_DATA3*%
%TO.N,/~{SPI_CS1}*%
X140497600Y-112850000D03*
%TO.P,J1,72,RTC_3V*%
%TO.N,/VBAT*%
X139997600Y-112850000D03*
%TO.P,J1,74,3.3V*%
%TO.N,Net-(F1-Pad2)*%
X139497600Y-112850000D03*
D12*
%TO.P,J1,GND1,GND*%
%TO.N,GND*%
X150397600Y-93375000D03*
%TO.P,J1,GND2,GND*%
X152497600Y-94675000D03*
%TO.P,J1,GND3,GND*%
X154597600Y-93375000D03*
%TD*%
D13*
%TO.P,C13,1*%
%TO.N,GND*%
X154506000Y-95885000D03*
%TO.P,C13,2*%
%TO.N,+3.3V*%
X152781000Y-95885000D03*
%TD*%
D14*
%TO.P,F1,1*%
%TO.N,+3.3V*%
X156300000Y-109300000D03*
%TO.P,F1,2*%
%TO.N,Net-(F1-Pad2)*%
X158300000Y-109300000D03*
%TD*%
D15*
%TO.P,R1,1*%
%TO.N,+3.3V*%
X157900000Y-98825000D03*
%TO.P,R1,2*%
%TO.N,/~{BOOT}*%
X157900000Y-97000000D03*
%TD*%
D16*
%TO.P,C10,1*%
%TO.N,Net-(C10-Pad1)*%
X152757800Y-97358200D03*
%TO.P,C10,2*%
%TO.N,GND*%
X154482800Y-97358200D03*
%TD*%
D17*
%TO.P,Q1,1,G*%
%TO.N,/~{BOOT}*%
X156350000Y-95400000D03*
%TO.P,Q1,2,S*%
%TO.N,+3.3V*%
X156350000Y-93500000D03*
%TO.P,Q1,3,D*%
%TO.N,/BOOT0*%
X158225000Y-94450000D03*
%TD*%
D16*
%TO.P,C11,1*%
%TO.N,GND*%
X144297400Y-109245400D03*
%TO.P,C11,2*%
%TO.N,+3.3V*%
X146022400Y-109245400D03*
%TD*%
D15*
%TO.P,R3,1*%
%TO.N,/SD_DAT3*%
X153050000Y-101350000D03*
%TO.P,R3,2*%
%TO.N,/G11-SWO*%
X153050000Y-99525000D03*
%TD*%
D18*
%TO.P,J2,1,DAT2*%
%TO.N,/SD_DAT2*%
X147015000Y-98460000D03*
%TO.P,J2,2,DAT3/CD*%
%TO.N,/SD_DAT3*%
X145915000Y-98460000D03*
%TO.P,J2,3,CMD*%
%TO.N,/SD_CMD*%
X144815000Y-98460000D03*
%TO.P,J2,4,VDD*%
%TO.N,+3.3V*%
X143715000Y-98460000D03*
%TO.P,J2,5,CLK*%
%TO.N,/SD_CLK*%
X142615000Y-98460000D03*
%TO.P,J2,6,VSS*%
%TO.N,GND*%
X141515000Y-98460000D03*
%TO.P,J2,7,DAT0*%
%TO.N,/SD_DAT0*%
X140415000Y-98460000D03*
%TO.P,J2,8,DAT1*%
%TO.N,/SD_DAT1*%
X139315000Y-98460000D03*
D19*
%TO.P,J2,9,SHIELD*%
%TO.N,GND*%
X150690000Y-104160000D03*
X150690000Y-95860000D03*
X136940000Y-104160000D03*
X136940000Y-95860000D03*
%TD*%
D13*
%TO.P,C16,1*%
%TO.N,GND*%
X149733000Y-109250000D03*
%TO.P,C16,2*%
%TO.N,+3.3V*%
X148008000Y-109250000D03*
%TD*%
D20*
%TO.N,GND*%
X130300000Y-100275000D03*
D21*
%TO.N,/I2C_SDA*%
X151433576Y-99216424D03*
%TO.N,/I2C_SCL*%
X151500000Y-100675000D03*
%TO.N,/D0*%
X148325000Y-97575000D03*
%TO.N,/USB_VIN*%
X139775000Y-92575000D03*
%TO.N,Net-(J1-USB_VIN)*%
X154875000Y-110750000D03*
%TO.N,GND*%
X144925000Y-90200000D03*
%TO.N,/TRACE_D3*%
X146276376Y-92789892D03*
%TO.N,/TRACE_D0*%
X148050000Y-92400000D03*
D22*
%TO.N,GND*%
X145197500Y-94697500D03*
D21*
X145923000Y-104470200D03*
X147777200Y-105867200D03*
%TO.N,/G1*%
X147494052Y-106422252D03*
%TO.N,GND*%
X140130000Y-105780000D03*
%TO.N,/SPI_CIPO1*%
X138800000Y-105175000D03*
%TO.N,GND*%
X140610000Y-92100000D03*
X149625000Y-91350000D03*
X150200000Y-90225000D03*
X148425000Y-90175000D03*
X148375000Y-89375000D03*
X147650000Y-89400000D03*
X136525000Y-90975000D03*
X138275000Y-89275000D03*
X131900000Y-98225000D03*
X131800000Y-97400000D03*
X132546612Y-98551329D03*
X132450000Y-97900000D03*
X132475000Y-96950000D03*
X138950000Y-113300000D03*
X158075000Y-112450000D03*
X158075000Y-112950000D03*
X158800000Y-103300000D03*
X158800000Y-102275000D03*
X158800000Y-101175000D03*
X159025000Y-99375000D03*
X158700000Y-97800000D03*
X148675000Y-104100000D03*
%TO.N,/SPI_COPI1*%
X139275000Y-105662279D03*
%TO.N,GND*%
X137425000Y-104975000D03*
X136175000Y-103975000D03*
X137414000Y-102844600D03*
X142341600Y-106578400D03*
X146837400Y-104749600D03*
X142240000Y-102819200D03*
X140868400Y-95529400D03*
D20*
%TO.N,+3.3V*%
X139051695Y-95928337D03*
D21*
%TO.N,GND*%
X141808200Y-94970600D03*
X139954000Y-97358200D03*
X143687800Y-99720400D03*
X144576800Y-99720400D03*
X136930000Y-97700000D03*
X136170000Y-96950000D03*
X136350000Y-98870000D03*
X136360000Y-99730000D03*
D20*
X136375000Y-105600000D03*
X135000000Y-109125000D03*
X130100000Y-98400000D03*
X129850000Y-96600000D03*
X129275000Y-95600000D03*
X130425000Y-95550000D03*
X130800000Y-91578400D03*
X133325000Y-90325000D03*
X129100000Y-91250000D03*
X133300000Y-91475000D03*
X132850000Y-92925000D03*
D21*
X143425000Y-101900000D03*
X140700000Y-101600000D03*
D20*
X145671116Y-101603884D03*
D21*
X140425000Y-100475000D03*
D20*
X149733000Y-109250000D03*
X132423378Y-108544500D03*
D21*
%TO.N,/VBAT*%
X139115800Y-110261400D03*
X145753815Y-94842889D03*
%TO.N,GND*%
X147590000Y-100550000D03*
X130420000Y-108380000D03*
X152030000Y-109100000D03*
X157937200Y-106121200D03*
D20*
X132401000Y-95990500D03*
D21*
X149360000Y-111280000D03*
X150266400Y-89585800D03*
X158875000Y-108000000D03*
X133292869Y-106998564D03*
X139014200Y-89204800D03*
X157962600Y-101142800D03*
D20*
X139000078Y-94832600D03*
D21*
X139220000Y-111160000D03*
D20*
X129768600Y-93243400D03*
D21*
X153593800Y-103962200D03*
D20*
X130780018Y-101618973D03*
D21*
X137236200Y-89255600D03*
X150291800Y-109448600D03*
X136144000Y-101400000D03*
X130370000Y-106440000D03*
D20*
X145500000Y-97000000D03*
D21*
X129760000Y-106190000D03*
X144522242Y-107714842D03*
X140512800Y-91516200D03*
D20*
X153845499Y-95919230D03*
D21*
X155400000Y-98575000D03*
X155346400Y-96850200D03*
D20*
X141792246Y-99684500D03*
D21*
%TO.N,/~{RESET}*%
X148800000Y-96775000D03*
D20*
%TO.N,+3.3V*%
X149474998Y-95170000D03*
X156088100Y-107510000D03*
X138155002Y-95859600D03*
X143336234Y-95805166D03*
X136220000Y-107460000D03*
X133450000Y-109209500D03*
X156680000Y-102890000D03*
X131073637Y-105224644D03*
X147600000Y-78600000D03*
X134980000Y-94210000D03*
D21*
X148417400Y-109499400D03*
X146175000Y-107850000D03*
X147650000Y-107850000D03*
D20*
X140721500Y-96738466D03*
D21*
%TO.N,Net-(C10-Pad1)*%
X152958800Y-96850200D03*
%TO.N,Net-(F1-Pad2)*%
X157734000Y-111760000D03*
X139380000Y-111940000D03*
%TO.N,/A0*%
X151579084Y-108685013D03*
%TO.N,/AUD_BCLK*%
X145600000Y-105250000D03*
%TO.N,/UART_CTS1*%
X153650000Y-106500000D03*
X145575000Y-103675000D03*
X137260000Y-100170000D03*
X137236200Y-106654600D03*
D20*
%TO.N,/G11-SWO*%
X145034000Y-85852000D03*
D21*
%TO.N,/G2*%
X146597346Y-110949912D03*
%TO.N,/SWDIO*%
X148869400Y-86537800D03*
X146227800Y-106908600D03*
%TO.N,/I2C_~{INT}*%
X151200000Y-101175000D03*
%TO.N,/AUD_IN-CAM_PCLK*%
X142080000Y-103581200D03*
%TO.N,/AUD_MCLK*%
X141250000Y-104075000D03*
%TO.N,/SPI_SCK1*%
X138734518Y-104504572D03*
%TO.N,/SWDCK*%
X147396200Y-86080600D03*
X148775000Y-107225000D03*
%TO.N,/CAN-RX*%
X148078000Y-106422000D03*
X148150000Y-111120000D03*
%TO.N,/~{BOOT}*%
X156825000Y-96775000D03*
%TO.N,/~{SPI_CS1}*%
X136036007Y-102664327D03*
%TO.N,/SPI_MISO*%
X141404896Y-111461056D03*
X140275000Y-94691200D03*
%TO.N,/USB_D-*%
X151964862Y-110933928D03*
X156747600Y-111472600D03*
%TO.N,/I2C_SDA1*%
X144190000Y-101660000D03*
X144450000Y-111140000D03*
%TO.N,/CAN-TX*%
X146990978Y-106045489D03*
X147140000Y-111260000D03*
%TO.N,/UART_RTS1*%
X140000000Y-100050000D03*
X138780000Y-103400000D03*
X143550000Y-101300000D03*
X154381200Y-104622600D03*
%TO.N,/UART_RX2*%
X144200000Y-106775000D03*
%TO.N,/A1*%
X150940000Y-108680000D03*
%TO.N,/UART_RX1*%
X138970000Y-103980000D03*
X147400000Y-103375000D03*
X152806400Y-106629200D03*
X140875000Y-100924745D03*
%TO.N,/BATT_VIN*%
X141478000Y-97282000D03*
X145620000Y-111000000D03*
%TO.N,/G3*%
X146150000Y-111390000D03*
%TO.N,/SPI_MOSI*%
X140830000Y-111450000D03*
X139769251Y-94964779D03*
%TO.N,/D1-CAM_TRIG*%
X148600000Y-103500000D03*
%TO.N,/UART_TX2*%
X145619700Y-106717880D03*
%TO.N,/AUD_OUT-CAM_MCLK*%
X141427200Y-103428800D03*
%TO.N,/USB_D+*%
X152000000Y-110360000D03*
X156845577Y-110906006D03*
%TO.N,/G0*%
X147330461Y-105045436D03*
%TO.N,/SPI_SCK*%
X141950000Y-107100000D03*
X143430000Y-110720000D03*
%TO.N,/AUD_LRCLK*%
X145338800Y-104724200D03*
%TO.N,/UART_TX1*%
X153873200Y-105079800D03*
X140156086Y-107492641D03*
%TO.N,/I2C_SCL1*%
X143925000Y-102350000D03*
X144280000Y-110400000D03*
%TO.N,/SD_CLK*%
X147130000Y-101430000D03*
%TO.N,/SD_DAT1*%
X139650000Y-107050000D03*
%TO.N,/SD_DAT0*%
X140340129Y-106895350D03*
%TO.N,/SD_DAT3*%
X148137000Y-99695000D03*
%TO.N,/SD_CMD*%
X148150000Y-101380000D03*
%TO.N,/SD_DAT2*%
X148610000Y-100520000D03*
%TO.N,/BT_HOST_WAKE*%
X131080000Y-104220000D03*
X135636000Y-93294200D03*
%TO.N,/BT_REG_ON*%
X133330000Y-104370000D03*
X134325000Y-93650000D03*
%TO.N,/WIFI_SDIO_DAT1*%
X152654000Y-103784400D03*
X144002357Y-107367930D03*
%TO.N,/WIFI_SDIO_DAT0*%
X154035200Y-103174800D03*
X143487134Y-107922573D03*
%TO.N,/WL_GPIO_0_HOST_WAKE*%
X155500000Y-97700000D03*
X157657800Y-100355400D03*
%TO.N,/TRACE_CLK*%
X148625000Y-92550000D03*
%TO.N,/TRACE_D3*%
X136575800Y-86029800D03*
%TO.N,/TRACE_D2*%
X137490200Y-86029800D03*
X146826172Y-92621509D03*
%TO.N,/TRACE_D1*%
X138760200Y-85979000D03*
X147375000Y-92450000D03*
%TO.N,/TRACE_D0*%
X139522200Y-85953600D03*
%TO.N,/BOOT0*%
X155400000Y-94825000D03*
%TO.N,/TRACE_CLK*%
X140436600Y-85852000D03*
%TD*%
D23*
%TO.N,GND*%
X158875000Y-108000000D02*
X159025000Y-107850000D01*
X159025000Y-107850000D02*
X159025000Y-107175000D01*
X159025000Y-107175000D02*
X157950000Y-106100000D01*
D24*
%TO.N,/D1-CAM_TRIG*%
X153786192Y-106950000D02*
X153775000Y-106950000D01*
X154100000Y-106636192D02*
X153786192Y-106950000D01*
X149687500Y-104462500D02*
X149687500Y-105187500D01*
X153826754Y-105976754D02*
X154100000Y-106250000D01*
X153644728Y-105976754D02*
X153826754Y-105976754D01*
X153621482Y-106000000D02*
X153644728Y-105976754D01*
X152050000Y-106000000D02*
X153621482Y-106000000D01*
X151733700Y-106316300D02*
X152050000Y-106000000D01*
X150816300Y-106316300D02*
X151733700Y-106316300D01*
X149687500Y-105187500D02*
X150816300Y-106316300D01*
X154100000Y-106250000D02*
X154100000Y-106636192D01*
X148725000Y-103500000D02*
X149687500Y-104462500D01*
X148600000Y-103500000D02*
X148725000Y-103500000D01*
X153775000Y-106950000D02*
X153300000Y-107425000D01*
X153300000Y-107425000D02*
X153300000Y-111550400D01*
X153300000Y-111550400D02*
X153497600Y-111748000D01*
X153497600Y-111748000D02*
X153497600Y-112850000D01*
%TO.N,/I2C_~{INT}*%
X153518000Y-111275000D02*
X153997600Y-111754600D01*
X153997600Y-111754600D02*
X153997600Y-112850000D01*
%TO.N,/USB_VIN*%
X151645950Y-98801924D02*
X151950000Y-99105974D01*
X149716321Y-98821724D02*
X149736121Y-98801924D01*
X145112000Y-95112000D02*
X148779149Y-98779149D01*
X144412000Y-95112000D02*
X145112000Y-95112000D01*
X149013426Y-98821724D02*
X149716314Y-98821726D01*
X156411000Y-103405182D02*
X156411000Y-105405596D01*
X149716314Y-98821726D02*
X149716321Y-98821724D01*
X148970851Y-98779149D02*
X149013426Y-98821724D01*
X148779149Y-98779149D02*
X148970851Y-98779149D01*
X151950000Y-99105974D02*
X151950000Y-99781753D01*
X140200000Y-93000000D02*
X142300000Y-93000000D01*
X142300000Y-93000000D02*
X144412000Y-95112000D01*
X149736121Y-98801924D02*
X151645950Y-98801924D01*
X139775000Y-92575000D02*
X140200000Y-93000000D01*
X156411000Y-105405596D02*
X155233999Y-106582597D01*
X151950000Y-99781753D02*
X152586248Y-100418000D01*
X152586248Y-100418000D02*
X154892478Y-100418000D01*
X154892478Y-100418000D02*
X155697396Y-101222918D01*
X155697396Y-101222918D02*
X155697396Y-101739810D01*
X155697396Y-101739810D02*
X155998202Y-102040616D01*
X155998202Y-102040616D02*
X156025000Y-102040616D01*
X156025000Y-102040616D02*
X156025000Y-103019182D01*
X156025000Y-103019182D02*
X156411000Y-103405182D01*
X155233999Y-106582597D02*
X155233999Y-107516001D01*
X155233999Y-107516001D02*
X154875000Y-107875000D01*
%TO.N,/D0*%
X155534600Y-107115400D02*
X155534600Y-107279318D01*
X155533600Y-107280318D02*
X155533600Y-107612923D01*
X156909682Y-103444500D02*
X156850000Y-103444500D01*
X155534600Y-107279318D02*
X155533600Y-107280318D01*
X157234500Y-103119682D02*
X156909682Y-103444500D01*
X157234500Y-102660318D02*
X157234500Y-103119682D01*
X154982776Y-100200000D02*
X155915396Y-101132620D01*
X155514500Y-112833100D02*
X155497600Y-112850000D01*
X157200000Y-102625818D02*
X157234500Y-102660318D01*
X152168000Y-99691454D02*
X152676546Y-100200000D01*
X157200000Y-102250000D02*
X157200000Y-102625818D01*
X156194995Y-101244995D02*
X157200000Y-102250000D01*
X156080096Y-101244995D02*
X156194995Y-101244995D01*
X156850000Y-105800000D02*
X155534600Y-107115400D01*
X155967722Y-101132620D02*
X156080096Y-101244995D01*
X149103724Y-98603724D02*
X149626022Y-98603724D01*
X155514500Y-107632023D02*
X155514500Y-112833100D01*
X152676546Y-100200000D02*
X154982776Y-100200000D01*
X148325000Y-97825000D02*
X149103724Y-98603724D01*
X155915396Y-101132620D02*
X155967722Y-101132620D01*
X149626022Y-98603724D02*
X149645823Y-98583924D01*
X151736248Y-98583924D02*
X152168000Y-99015676D01*
X152168000Y-99015676D02*
X152168000Y-99691454D01*
X149645823Y-98583924D02*
X151736248Y-98583924D01*
X155533600Y-107612923D02*
X155514500Y-107632023D01*
X156850000Y-103444500D02*
X156850000Y-105800000D01*
X148325000Y-97575000D02*
X148325000Y-97825000D01*
%TO.N,/G11-SWO*%
X149400000Y-91900000D02*
X146745001Y-89245001D01*
X152985622Y-99525000D02*
X151826544Y-98365922D01*
X146850000Y-95975000D02*
X146800000Y-95975000D01*
X148900000Y-93250000D02*
X149400000Y-92750000D01*
X147850000Y-96975000D02*
X146850000Y-95975000D01*
X148341702Y-96975000D02*
X147850000Y-96975000D01*
X146800000Y-95975000D02*
X146800000Y-93825000D01*
X149732624Y-98365922D02*
X148341702Y-96975000D01*
X146745001Y-89245001D02*
X145470001Y-89245001D01*
X147375000Y-93250000D02*
X148900000Y-93250000D01*
X151826544Y-98365922D02*
X149732624Y-98365922D01*
X149400000Y-92750000D02*
X149400000Y-91900000D01*
X146800000Y-93825000D02*
X147375000Y-93250000D01*
X153050000Y-99525000D02*
X152985622Y-99525000D01*
X145470001Y-89245001D02*
X145034000Y-88809000D01*
X145034000Y-88809000D02*
X145034000Y-85852000D01*
%TO.N,/I2C_SDA*%
X155517495Y-102511125D02*
X155517495Y-102511129D01*
X155517500Y-102947290D02*
X155517500Y-102976958D01*
X153954000Y-110854000D02*
X154820500Y-111720500D01*
X155442807Y-102436441D02*
X155517495Y-102511125D01*
X153954000Y-107746000D02*
X153954000Y-110854000D01*
X154762698Y-100708000D02*
X155442807Y-101388109D01*
X154997600Y-111897600D02*
X154997600Y-112850000D01*
X152132500Y-100482500D02*
X152358000Y-100708000D01*
X155918000Y-105590299D02*
X154825000Y-106683299D01*
X155517503Y-102511137D02*
X155517503Y-102691733D01*
X151433576Y-99783576D02*
X151692500Y-100042500D01*
X155517500Y-102691736D02*
X155517502Y-102947288D01*
X152132500Y-100413010D02*
X152132500Y-100482500D01*
X152358000Y-100708000D02*
X154762698Y-100708000D01*
X151761990Y-100042500D02*
X152132500Y-100413010D01*
X155918000Y-103377458D02*
X155918000Y-105590299D01*
X155517495Y-102511129D02*
X155517503Y-102511137D01*
X155442807Y-101388109D02*
X155442807Y-102436441D01*
X154825000Y-106683299D02*
X154825000Y-106833597D01*
X151692500Y-100042500D02*
X151761990Y-100042500D01*
X151433576Y-99216424D02*
X151433576Y-99783576D01*
X155517503Y-102691733D02*
X155517500Y-102691736D01*
X154820500Y-111720500D02*
X154827100Y-111720500D01*
X155517502Y-102947288D02*
X155517500Y-102947290D01*
X155517500Y-102976958D02*
X155918000Y-103377458D01*
X154825000Y-106833597D02*
X154845701Y-106854298D01*
X154845701Y-106854298D02*
X153954000Y-107746000D01*
X154827100Y-111720500D02*
X154827100Y-111727100D01*
X154827100Y-111727100D02*
X154997600Y-111897600D01*
%TO.N,/I2C_SCL*%
X155299499Y-102601435D02*
X155299498Y-102645746D01*
X155299502Y-102856990D02*
X155299500Y-102856992D01*
X155224807Y-102526743D02*
X155299497Y-102601429D01*
X152042227Y-101414525D02*
X152619702Y-101992000D01*
X154768761Y-101768954D02*
X155224807Y-102225000D01*
X152619702Y-101992000D02*
X153456454Y-101992000D01*
X154552745Y-106647255D02*
X154552745Y-106822255D01*
X154552745Y-106822255D02*
X153736000Y-107639000D01*
X152042227Y-101292227D02*
X152042227Y-101414525D01*
X155299497Y-102601429D02*
X155299499Y-102601435D01*
X155224807Y-102225000D02*
X155224807Y-102526743D01*
X153456454Y-101992000D02*
X153679500Y-101768954D01*
X151564320Y-100814320D02*
X152042227Y-101292227D01*
X153736000Y-111086000D02*
X154497600Y-111847600D01*
X153679500Y-101768954D02*
X154768761Y-101768954D01*
X151564320Y-100610680D02*
X151564320Y-100814320D01*
X155578500Y-103346256D02*
X155700000Y-103467756D01*
X151500000Y-100675000D02*
X151564320Y-100610680D01*
X155492456Y-103346256D02*
X155578500Y-103346256D01*
X155299498Y-102645746D02*
X155299500Y-102645748D01*
X155299499Y-103153299D02*
X155492456Y-103346256D01*
X155299500Y-102645748D02*
X155299502Y-102856990D01*
X155299500Y-102856992D02*
X155299499Y-103153299D01*
X155700000Y-103467756D02*
X155700000Y-105500000D01*
X155700000Y-105500000D02*
X154552745Y-106647255D01*
X153736000Y-107639000D02*
X153736000Y-111086000D01*
X154497600Y-111847600D02*
X154497600Y-112850000D01*
%TO.N,/I2C_~{INT}*%
X154334745Y-106709745D02*
X154334745Y-106398121D01*
X154334745Y-106398121D02*
X154318000Y-106381376D01*
X153518000Y-107515298D02*
X153518000Y-111275000D01*
X153716649Y-107316649D02*
X153518000Y-107515298D01*
X153727841Y-107316649D02*
X153716649Y-107316649D01*
X154334745Y-106709745D02*
X153727841Y-107316649D01*
X155400000Y-105299376D02*
X154318000Y-106381376D01*
X155400000Y-103650000D02*
X155400000Y-105299376D01*
X155044499Y-103294499D02*
X155400000Y-103650000D01*
X155044499Y-102707059D02*
X155044499Y-103294499D01*
X154862440Y-102525000D02*
X155044499Y-102707059D01*
%TO.N,/UART_CTS1*%
X150833300Y-107145300D02*
X152425000Y-107145300D01*
X153650000Y-106500000D02*
X153004700Y-107145300D01*
X153004700Y-107145300D02*
X152425000Y-107145300D01*
X145600000Y-103600000D02*
X146913808Y-103600000D01*
X147421600Y-103835200D02*
X147487804Y-103901404D01*
X148413010Y-104732500D02*
X148420500Y-104732500D01*
X153650000Y-106650963D02*
X153816420Y-106484543D01*
X148420500Y-104732500D02*
X150833300Y-107145300D01*
X148042500Y-104361991D02*
X148413010Y-104732500D01*
X147589404Y-103901404D02*
X148042500Y-104354500D01*
X147487804Y-103901404D02*
X147589404Y-103901404D01*
X148042500Y-104354500D02*
X148042500Y-104361991D01*
X147149008Y-103835200D02*
X147421600Y-103835200D01*
X146913808Y-103600000D02*
X147149008Y-103835200D01*
%TO.N,/~{RESET}*%
X156392293Y-100808995D02*
X156260693Y-100808995D01*
X157750000Y-102166701D02*
X156392293Y-100808995D01*
X157750000Y-105722208D02*
X157750000Y-102166701D01*
X157525000Y-109850000D02*
X157525000Y-106295193D01*
X157522700Y-105949508D02*
X157750000Y-105722208D01*
X156525000Y-110450000D02*
X156925000Y-110450000D01*
X157522700Y-106292892D02*
X157522700Y-105949508D01*
X156333100Y-110641900D02*
X156525000Y-110450000D01*
X156925000Y-110450000D02*
X157525000Y-109850000D01*
X149734301Y-98059301D02*
X148800000Y-97125000D01*
X156333100Y-111644292D02*
X156333100Y-110641900D01*
X156497600Y-111808792D02*
X156333100Y-111644292D01*
X157525000Y-106295193D02*
X157522700Y-106292892D01*
X156497600Y-112850000D02*
X156497600Y-111808792D01*
X156260693Y-100808995D02*
X153510999Y-98059301D01*
X153510999Y-98059301D02*
X149734301Y-98059301D01*
X148800000Y-97125000D02*
X148800000Y-96775000D01*
%TO.N,/G11-SWO*%
X155997600Y-112850000D02*
X155997600Y-110502400D01*
X155997600Y-110502400D02*
X156268000Y-110232000D01*
X157307000Y-109759702D02*
X157307000Y-106385491D01*
X156268000Y-110232000D02*
X156834702Y-110232000D01*
X156834702Y-110232000D02*
X157307000Y-109759702D01*
X157304700Y-106383190D02*
X157304700Y-105859210D01*
X157307000Y-106385491D02*
X157304700Y-106383190D01*
X154668400Y-99525000D02*
X153050000Y-99525000D01*
X157304700Y-105859210D02*
X157532000Y-105631909D01*
X156301995Y-101026995D02*
X156170395Y-101026995D01*
X157532000Y-105631909D02*
X157532000Y-102257000D01*
X157532000Y-102257000D02*
X156301995Y-101026995D01*
X156170395Y-101026995D02*
X154668400Y-99525000D01*
%TO.N,/SD_DAT3*%
X153050000Y-101350000D02*
X152625000Y-101350000D01*
X152625000Y-101350000D02*
X151914500Y-100639500D01*
X151671692Y-100260500D02*
X149526404Y-100260500D01*
X149526404Y-100260500D02*
X148880952Y-100905952D01*
X151914500Y-100639500D02*
X151914500Y-100503308D01*
X151914500Y-100503308D02*
X151671692Y-100260500D01*
%TO.N,/I2C_~{INT}*%
X153031124Y-102300000D02*
X153177924Y-102446800D01*
X151200000Y-101175000D02*
X151425000Y-101175000D01*
X154014202Y-102202500D02*
X154047826Y-102168876D01*
X152550000Y-102300000D02*
X153031124Y-102300000D01*
X151425000Y-101175000D02*
X152550000Y-102300000D01*
X154047826Y-102168876D02*
X154453991Y-102168876D01*
X153177924Y-102446800D02*
X153508086Y-102446800D01*
X153508086Y-102446800D02*
X153752385Y-102202501D01*
X153752385Y-102202501D02*
X154014202Y-102202500D01*
X154453991Y-102168876D02*
X154810114Y-102525000D01*
D23*
%TO.N,Net-(F1-Pad2)*%
X158300000Y-109300000D02*
X158300000Y-110264434D01*
X158300000Y-110264434D02*
X157679300Y-110885134D01*
X157679300Y-110885134D02*
X157679300Y-111447918D01*
X157679300Y-111447918D02*
X157734000Y-111502618D01*
X157734000Y-111502618D02*
X157734000Y-111760000D01*
D24*
%TO.N,/SD_DAT3*%
X148880952Y-100905952D02*
X148802403Y-100984500D01*
X152628600Y-101320600D02*
X152608000Y-101300000D01*
X148802403Y-100984500D02*
X148417597Y-100984500D01*
X148417597Y-100984500D02*
X148145500Y-100712403D01*
X148145500Y-100712403D02*
X148145500Y-100705500D01*
X148137000Y-100697000D02*
X148137000Y-99695000D01*
X148145500Y-100705500D02*
X148137000Y-100697000D01*
D23*
%TO.N,GND*%
X155346400Y-96850200D02*
X155346400Y-96725400D01*
X155346400Y-96725400D02*
X154506000Y-95885000D01*
X154482800Y-97358200D02*
X154838400Y-97358200D01*
X154838400Y-97358200D02*
X155346400Y-96850200D01*
X155400000Y-98575000D02*
X154482800Y-97657800D01*
X154482800Y-97657800D02*
X154482800Y-97358200D01*
%TO.N,+3.3V*%
X152781000Y-95885000D02*
X151718000Y-96948000D01*
X151718000Y-96948000D02*
X151718000Y-97163000D01*
X151718000Y-97163000D02*
X151370400Y-97510600D01*
X149450000Y-96999000D02*
X149450000Y-95194998D01*
X151370400Y-97510600D02*
X149961600Y-97510600D01*
X149961600Y-97510600D02*
X149450000Y-96999000D01*
X149450000Y-95194998D02*
X149474998Y-95170000D01*
D24*
%TO.N,/TRACE_D3*%
X141066000Y-86750000D02*
X141156000Y-86750000D01*
X141156000Y-86750000D02*
X141375000Y-86750000D01*
X138615500Y-86813500D02*
X138615500Y-86750000D01*
X137901000Y-86623000D02*
G75*
G02*
X137964500Y-86686500I0J-63500D01*
G01*
X140568500Y-86750000D02*
X140568500Y-86813500D01*
X138615500Y-86750000D02*
X138615500Y-86686500D01*
X138462000Y-86877000D02*
X138552000Y-86877000D01*
X140351500Y-86813500D02*
X140351500Y-86750000D01*
X138398500Y-86750000D02*
X138398500Y-86813500D01*
X140722000Y-86877000D02*
G75*
G03*
X140785500Y-86813500I0J63500D01*
G01*
X139700500Y-86813500D02*
G75*
G03*
X139764000Y-86877000I63500J0D01*
G01*
X138398500Y-86686500D02*
X138398500Y-86750000D01*
X140351500Y-86686500D02*
G75*
G02*
X140415000Y-86623000I63500J0D01*
G01*
X138615500Y-86686500D02*
G75*
G02*
X138679000Y-86623000I63500J0D01*
G01*
X138398500Y-86813500D02*
G75*
G03*
X138462000Y-86877000I63500J0D01*
G01*
X138245000Y-86623000D02*
X138335000Y-86623000D01*
X138181500Y-86813500D02*
X138181500Y-86750000D01*
X137747500Y-86750000D02*
X137747500Y-86686500D01*
X137200693Y-86700693D02*
X137250000Y-86750000D01*
X137747500Y-86813500D02*
X137747500Y-86750000D01*
X137530500Y-86686500D02*
X137530500Y-86750000D01*
X138552000Y-86877000D02*
G75*
G03*
X138615500Y-86813500I0J63500D01*
G01*
X138181500Y-86750000D02*
X138181500Y-86686500D01*
X137377000Y-86623000D02*
X137467000Y-86623000D01*
X136500000Y-86000000D02*
X137200693Y-86700693D01*
X141002500Y-86686500D02*
G75*
G03*
X141066000Y-86750000I63500J0D01*
G01*
X140939000Y-86623000D02*
G75*
G02*
X141002500Y-86686500I0J-63500D01*
G01*
X137811000Y-86623000D02*
X137901000Y-86623000D01*
X138832500Y-86813500D02*
G75*
G03*
X138896000Y-86877000I63500J0D01*
G01*
X140785500Y-86686500D02*
G75*
G02*
X140849000Y-86623000I63500J0D01*
G01*
X139483500Y-86813500D02*
X139483500Y-86750000D01*
X138832500Y-86686500D02*
X138832500Y-86750000D01*
X138832500Y-86750000D02*
X138832500Y-86813500D01*
X138986000Y-86877000D02*
G75*
G03*
X139049500Y-86813500I0J63500D01*
G01*
X140568500Y-86813500D02*
G75*
G03*
X140632000Y-86877000I63500J0D01*
G01*
X137594000Y-86877000D02*
X137684000Y-86877000D01*
X138181500Y-86686500D02*
G75*
G02*
X138245000Y-86623000I63500J0D01*
G01*
X138118000Y-86877000D02*
G75*
G03*
X138181500Y-86813500I0J63500D01*
G01*
X140505000Y-86623000D02*
G75*
G02*
X140568500Y-86686500I0J-63500D01*
G01*
X137530500Y-86813500D02*
G75*
G03*
X137594000Y-86877000I63500J0D01*
G01*
X137684000Y-86877000D02*
G75*
G03*
X137747500Y-86813500I0J63500D01*
G01*
X140288000Y-86877000D02*
G75*
G03*
X140351500Y-86813500I0J63500D01*
G01*
X137747500Y-86686500D02*
G75*
G02*
X137811000Y-86623000I63500J0D01*
G01*
X138679000Y-86623000D02*
X138769000Y-86623000D01*
X139049500Y-86686500D02*
G75*
G02*
X139113000Y-86623000I63500J0D01*
G01*
X137313500Y-86686500D02*
G75*
G02*
X137377000Y-86623000I63500J0D01*
G01*
X140134500Y-86813500D02*
G75*
G03*
X140198000Y-86877000I63500J0D01*
G01*
X137250000Y-86750000D02*
G75*
G03*
X137313500Y-86686500I0J63500D01*
G01*
X137467000Y-86623000D02*
G75*
G02*
X137530500Y-86686500I0J-63500D01*
G01*
X138335000Y-86623000D02*
G75*
G02*
X138398500Y-86686500I0J-63500D01*
G01*
X139917500Y-86750000D02*
X139917500Y-86686500D01*
X137964500Y-86813500D02*
G75*
G03*
X138028000Y-86877000I63500J0D01*
G01*
X137964500Y-86686500D02*
X137964500Y-86750000D01*
X139917500Y-86686500D02*
G75*
G02*
X139981000Y-86623000I63500J0D01*
G01*
X140415000Y-86623000D02*
X140505000Y-86623000D01*
X138769000Y-86623000D02*
G75*
G02*
X138832500Y-86686500I0J-63500D01*
G01*
X139637000Y-86623000D02*
G75*
G02*
X139700500Y-86686500I0J-63500D01*
G01*
X139203000Y-86623000D02*
G75*
G02*
X139266500Y-86686500I0J-63500D01*
G01*
X139420000Y-86877000D02*
G75*
G03*
X139483500Y-86813500I0J63500D01*
G01*
X137964500Y-86750000D02*
X137964500Y-86813500D01*
X139854000Y-86877000D02*
G75*
G03*
X139917500Y-86813500I0J63500D01*
G01*
X139547000Y-86623000D02*
X139637000Y-86623000D01*
X139266500Y-86813500D02*
G75*
G03*
X139330000Y-86877000I63500J0D01*
G01*
X139483500Y-86686500D02*
G75*
G02*
X139547000Y-86623000I63500J0D01*
G01*
X138028000Y-86877000D02*
X138118000Y-86877000D01*
X137530500Y-86750000D02*
X137530500Y-86813500D01*
X140071000Y-86623000D02*
G75*
G02*
X140134500Y-86686500I0J-63500D01*
G01*
X138896000Y-86877000D02*
X138986000Y-86877000D01*
X140198000Y-86877000D02*
X140288000Y-86877000D01*
X139049500Y-86813500D02*
X139049500Y-86750000D01*
X139049500Y-86750000D02*
X139049500Y-86686500D01*
X139113000Y-86623000D02*
X139203000Y-86623000D01*
X139266500Y-86686500D02*
X139266500Y-86750000D01*
X139266500Y-86750000D02*
X139266500Y-86813500D01*
X139330000Y-86877000D02*
X139420000Y-86877000D01*
X139483500Y-86750000D02*
X139483500Y-86686500D01*
X139700500Y-86686500D02*
X139700500Y-86750000D01*
X139700500Y-86750000D02*
X139700500Y-86813500D01*
X139764000Y-86877000D02*
X139854000Y-86877000D01*
X139917500Y-86813500D02*
X139917500Y-86750000D01*
X139981000Y-86623000D02*
X140071000Y-86623000D01*
X140134500Y-86686500D02*
X140134500Y-86750000D01*
X140134500Y-86750000D02*
X140134500Y-86813500D01*
X140351500Y-86750000D02*
X140351500Y-86686500D01*
X140568500Y-86686500D02*
X140568500Y-86750000D01*
X140632000Y-86877000D02*
X140722000Y-86877000D01*
X140849000Y-86623000D02*
X140939000Y-86623000D01*
X140785500Y-86813500D02*
X140785500Y-86750000D01*
X140785500Y-86750000D02*
X140785500Y-86686500D01*
X143425000Y-86750000D02*
G75*
G03*
X143235000Y-86940000I0J-190000D01*
G01*
X144875000Y-88975000D02*
X144779001Y-88879001D01*
X141805000Y-86750000D02*
X141565000Y-86750000D01*
X142185000Y-86370000D02*
G75*
G03*
X141995000Y-86560000I0J-190000D01*
G01*
X142615000Y-86560000D02*
G75*
G03*
X142425000Y-86370000I-190000J0D01*
G01*
X142615000Y-86750000D02*
X142615000Y-86560000D01*
X141995000Y-86560000D02*
G75*
G02*
X141805000Y-86750000I-190000J0D01*
G01*
X142425000Y-86370000D02*
X142185000Y-86370000D01*
X144000000Y-86750000D02*
X143425000Y-86750000D01*
X141565000Y-86750000D02*
X141375000Y-86750000D01*
X142805000Y-87130000D02*
G75*
G02*
X142615000Y-86940000I0J190000D01*
G01*
X143235000Y-86940000D02*
G75*
G02*
X143045000Y-87130000I-190000J0D01*
G01*
X144779001Y-87529001D02*
X144000000Y-86750000D01*
X142615000Y-86940000D02*
X142615000Y-86750000D01*
X144779001Y-88879001D02*
X144779001Y-87529001D01*
X143045000Y-87130000D02*
X142805000Y-87130000D01*
X146276376Y-92789892D02*
X146300000Y-92766268D01*
X145475000Y-89575000D02*
X144875000Y-88975000D01*
X146300000Y-92766268D02*
X146300000Y-89950000D01*
X146300000Y-89950000D02*
X145925000Y-89575000D01*
X145925000Y-89575000D02*
X145475000Y-89575000D01*
X144875000Y-88975000D02*
X145400000Y-89500000D01*
%TO.N,GND*%
X144522242Y-107714842D02*
X144614500Y-107622584D01*
X144614500Y-107622584D02*
X144614500Y-104862308D01*
X144614500Y-104862308D02*
X145167108Y-104309700D01*
X145167108Y-104309700D02*
X145762500Y-104309700D01*
X145762500Y-104309700D02*
X145923000Y-104470200D01*
%TO.N,/UART_RX2*%
X147397505Y-104119404D02*
X147499106Y-104119404D01*
X147824500Y-104444798D02*
X147824500Y-104452289D01*
X147058710Y-104053200D02*
X147331302Y-104053200D01*
X146866110Y-103860600D02*
X147058710Y-104053200D01*
X150934400Y-107475000D02*
X151535624Y-107475000D01*
X147331302Y-104053200D02*
X147397505Y-104119404D01*
X145332597Y-104089500D02*
X145746692Y-104089500D01*
X145893903Y-104013000D02*
X146046303Y-103860600D01*
X145823192Y-104013000D02*
X145893903Y-104013000D01*
X145746692Y-104089500D02*
X145823192Y-104013000D01*
X146046303Y-103860600D02*
X146866110Y-103860600D01*
X152997600Y-108936976D02*
X152997600Y-112850000D01*
X145205297Y-103962200D02*
X145332597Y-104089500D01*
X144830800Y-103962200D02*
X145205297Y-103962200D01*
X144200000Y-104593000D02*
X144830800Y-103962200D01*
X148330202Y-104950500D02*
X150743002Y-107363300D01*
X144200000Y-106775000D02*
X144200000Y-104593000D01*
X147499106Y-104119404D02*
X147824500Y-104444798D01*
X147824500Y-104452289D02*
X148322712Y-104950500D01*
X148322712Y-104950500D02*
X148330202Y-104950500D01*
X150743002Y-107363300D02*
X150822700Y-107363300D01*
X150822700Y-107363300D02*
X150934400Y-107475000D01*
X151535624Y-107475000D02*
X152997600Y-108936976D01*
%TO.N,/AUD_LRCLK*%
X145338800Y-104611200D02*
X145338800Y-104724200D01*
X144850000Y-107100000D02*
X145100000Y-107350000D01*
X145100000Y-110625510D02*
X144987500Y-110738010D01*
X145350000Y-104600000D02*
X145338800Y-104611200D01*
X145338800Y-104724200D02*
X145225800Y-104724200D01*
X145225800Y-104724200D02*
X144850000Y-105100000D01*
X144850000Y-105100000D02*
X144850000Y-107100000D01*
X144987500Y-110738010D02*
X144987500Y-112839900D01*
X145100000Y-107350000D02*
X145100000Y-110625510D01*
X144987500Y-112839900D02*
X144997600Y-112850000D01*
%TO.N,/UART_TX2*%
X147304904Y-104335100D02*
X146665708Y-104335100D01*
X147408808Y-104337404D02*
X147307207Y-104337404D01*
X147606500Y-104535096D02*
X147408808Y-104337404D01*
X150808400Y-107730000D02*
X150659700Y-107581300D01*
X146227800Y-105372200D02*
X145566481Y-106033519D01*
X148239905Y-105168501D02*
X148232413Y-105168500D01*
X150652704Y-107581300D02*
X148239905Y-105168501D01*
X147307207Y-104337404D02*
X147304904Y-104335100D01*
X146665708Y-104335100D02*
X146227800Y-104773008D01*
X150659700Y-107581300D02*
X150652704Y-107581300D01*
X148232413Y-105168500D02*
X147606500Y-104542589D01*
X151277600Y-107730000D02*
X150808400Y-107730000D01*
X152497600Y-108950000D02*
X151277600Y-107730000D01*
X147606500Y-104542589D02*
X147606500Y-104535096D01*
X152497600Y-112850000D02*
X152497600Y-108950000D01*
X146227800Y-104773008D02*
X146227800Y-105372200D01*
X145566481Y-106033519D02*
X145566481Y-106664661D01*
X145566481Y-106664661D02*
X145619700Y-106717880D01*
%TO.N,GND*%
X147802600Y-105765600D02*
X147802600Y-105841800D01*
X147802600Y-105841800D02*
X147777200Y-105867200D01*
X148007792Y-105765600D02*
X147802600Y-105765600D01*
X149733000Y-109250000D02*
X149733000Y-107490808D01*
X147802600Y-105765600D02*
X147297281Y-105765600D01*
X149733000Y-107490808D02*
X148007792Y-105765600D01*
X147297281Y-105765600D02*
X146837400Y-105305719D01*
X146837400Y-105305719D02*
X146837400Y-104749600D01*
%TO.N,/G0*%
X148564500Y-111324100D02*
X147997600Y-111891000D01*
X148564500Y-111095500D02*
X148564500Y-111324100D01*
X149080000Y-110580000D02*
X148564500Y-111095500D01*
X150706300Y-109620292D02*
X149746592Y-110580000D01*
X150706300Y-109276908D02*
X150706300Y-109620292D01*
X150425000Y-107778400D02*
X150425000Y-108995608D01*
X148005800Y-105359200D02*
X150425000Y-107778400D01*
X149746592Y-110580000D02*
X149080000Y-110580000D01*
X150425000Y-108995608D02*
X150706300Y-109276908D01*
X147644225Y-105359200D02*
X148005800Y-105359200D01*
X147330461Y-105045436D02*
X147644225Y-105359200D01*
X147997600Y-111891000D02*
X147997600Y-112012400D01*
%TO.N,/CAN-TX*%
X146990978Y-106045489D02*
X146990978Y-106090978D01*
X146990978Y-106090978D02*
X147050000Y-106150000D01*
%TO.N,/UART_RX1*%
X147386904Y-103486904D02*
X147581304Y-103486904D01*
X147581304Y-103486904D02*
X148260500Y-104166100D01*
X152669200Y-106730800D02*
X152750000Y-106650000D01*
X148260500Y-104166100D02*
X148260500Y-104271692D01*
X148260500Y-104271692D02*
X148503308Y-104514500D01*
X148503308Y-104514500D02*
X148608900Y-104514500D01*
X148608900Y-104514500D02*
X150825200Y-106730800D01*
X150825200Y-106730800D02*
X152669200Y-106730800D01*
D23*
%TO.N,GND*%
X149733000Y-109250000D02*
X150093200Y-109250000D01*
X150093200Y-109250000D02*
X150291800Y-109448600D01*
X144297400Y-109245400D02*
X144297400Y-107939684D01*
X144297400Y-107939684D02*
X144522242Y-107714842D01*
%TO.N,+3.3V*%
X148417400Y-109499400D02*
X148417400Y-108617400D01*
X148417400Y-108617400D02*
X147650000Y-107850000D01*
X146175000Y-107850000D02*
X146175000Y-109092800D01*
X146175000Y-109092800D02*
X146022400Y-109245400D01*
D24*
%TO.N,/G1*%
X147555830Y-106360474D02*
X146930000Y-106986303D01*
X147668100Y-111411900D02*
X147497600Y-111582400D01*
X146930000Y-106986303D02*
X146930000Y-108641597D01*
X146930000Y-108641597D02*
X147061155Y-108772752D01*
X147061155Y-108772752D02*
X147061155Y-110422878D01*
X147061155Y-110422878D02*
X147668100Y-111029824D01*
X147668100Y-111029824D02*
X147668100Y-111411900D01*
X147497600Y-111582400D02*
X147497600Y-112850000D01*
D23*
%TO.N,GND*%
X140700000Y-101600000D02*
X140515000Y-101785000D01*
D24*
X140425000Y-100475000D02*
X141108404Y-100475000D01*
X141108404Y-100475000D02*
X141289500Y-100656096D01*
X141289500Y-100656096D02*
X141289500Y-101096437D01*
X141289500Y-101096437D02*
X140600937Y-101785000D01*
X140600937Y-101785000D02*
X140515000Y-101785000D01*
%TO.N,/SD_DAT1*%
X140122129Y-106459074D02*
X140122129Y-106467871D01*
X140122129Y-106467871D02*
X139785500Y-106804500D01*
X140564500Y-105104500D02*
X140564500Y-106016703D01*
X140100000Y-104640000D02*
X140564500Y-105104500D01*
X140100000Y-102902244D02*
X140100000Y-104640000D01*
X139785500Y-106804500D02*
X139785500Y-107021692D01*
X140564500Y-106016703D02*
X140122129Y-106459074D01*
X141872000Y-101130244D02*
X140100000Y-102902244D01*
X140343202Y-99401500D02*
X141872000Y-100930298D01*
X139823500Y-99401500D02*
X140343202Y-99401500D01*
X141872000Y-100930298D02*
X141872000Y-101130244D01*
X139823500Y-99318500D02*
X139823500Y-99401500D01*
X139315000Y-98810000D02*
X139823500Y-99318500D01*
X139660000Y-107160000D02*
X139660000Y-107189013D01*
X139315000Y-98460000D02*
X139315000Y-98810000D01*
X139785500Y-107021692D02*
X139791904Y-107028096D01*
X139791904Y-107028096D02*
X139660000Y-107160000D01*
%TO.N,/SD_DAT0*%
X140415000Y-98460000D02*
X140415000Y-99165000D01*
X140415000Y-99165000D02*
X142090000Y-100840000D01*
X142090000Y-100840000D02*
X142090000Y-101272868D01*
X140880000Y-106009501D02*
X140340129Y-106549372D01*
X142090000Y-101272868D02*
X140340000Y-103022868D01*
X140340000Y-103022868D02*
X140340000Y-104460000D01*
X140340000Y-104460000D02*
X140880000Y-105000000D01*
X140880000Y-105000000D02*
X140880000Y-106009501D01*
X140340129Y-106549372D02*
X140340129Y-106895350D01*
%TO.N,/UART_TX1*%
X141182501Y-106050000D02*
X140804629Y-106427872D01*
X152918040Y-102664800D02*
X152782940Y-102529700D01*
X140640000Y-103083492D02*
X140640000Y-104340000D01*
X142716400Y-101530000D02*
X142193492Y-101530000D01*
X143611600Y-100634800D02*
X142716400Y-101530000D01*
X145484800Y-100634800D02*
X143611600Y-100634800D01*
X151519452Y-101900000D02*
X146750000Y-101900000D01*
X151604453Y-101985001D02*
X151519452Y-101900000D01*
X154561192Y-105100000D02*
X154889500Y-104771692D01*
X151911073Y-101985001D02*
X151604453Y-101985001D01*
X154104500Y-102420500D02*
X153842683Y-102420501D01*
X146750000Y-101900000D02*
X145484800Y-100634800D01*
X152782940Y-102529700D02*
X152455772Y-102529700D01*
X140640000Y-104340000D02*
X141182501Y-104882501D01*
X153598384Y-102664800D02*
X152918040Y-102664800D01*
X154630568Y-104169376D02*
X154405000Y-104169376D01*
X154789499Y-102812683D02*
X154363692Y-102386876D01*
X154138124Y-102386876D02*
X154104500Y-102420500D01*
X152455772Y-102529700D02*
X151911073Y-101985001D01*
X154889500Y-104428308D02*
X154630568Y-104169376D01*
X154000000Y-105100000D02*
X154561192Y-105100000D01*
X154363692Y-102386876D02*
X154138124Y-102386876D01*
X154889500Y-104771692D02*
X154889500Y-104428308D01*
X142193492Y-101530000D02*
X140640000Y-103083492D01*
X154405000Y-103805624D02*
X154789500Y-103421124D01*
X154405000Y-104169376D02*
X154405000Y-103805624D01*
X141182501Y-104882501D02*
X141182501Y-106050000D01*
X154789500Y-103421124D02*
X154789499Y-102812683D01*
X140804629Y-107087753D02*
X140399741Y-107492641D01*
X153842683Y-102420501D02*
X153598384Y-102664800D01*
X140804629Y-106427872D02*
X140804629Y-107087753D01*
X140399741Y-107492641D02*
X140156086Y-107492641D01*
%TO.N,/SPI_SCK1*%
X141470002Y-110115303D02*
X142316001Y-110961304D01*
X139690000Y-105870000D02*
X139225000Y-106335000D01*
X139689500Y-105490587D02*
X139689500Y-105870000D01*
X139225000Y-106335000D02*
X139225000Y-107244998D01*
X142997600Y-111890997D02*
X142997600Y-112850000D01*
X139689500Y-105870000D02*
X139690000Y-105870000D01*
X138734518Y-104504572D02*
X138734518Y-104535605D01*
X139214500Y-105015587D02*
X139689500Y-105490587D01*
X142316000Y-111209397D02*
X142997600Y-111890997D01*
X138971692Y-104760500D02*
X139214500Y-105003308D01*
X139225000Y-107244998D02*
X141470002Y-109490000D01*
X138959413Y-104760500D02*
X138971692Y-104760500D01*
X141470002Y-109490000D02*
X141470002Y-110115303D01*
X139214500Y-105003308D02*
X139214500Y-105015587D01*
X142316001Y-110961304D02*
X142316000Y-111209397D01*
X138734518Y-104535605D02*
X138959413Y-104760500D01*
D23*
%TO.N,GND*%
X139701000Y-104570000D02*
X139701000Y-104839000D01*
X139701000Y-104570000D02*
X139701000Y-105036103D01*
X139701000Y-105036103D02*
X140130000Y-105465103D01*
X140130000Y-105465103D02*
X140130000Y-105780000D01*
D24*
X140110000Y-105311395D02*
X140110000Y-105640000D01*
X139680000Y-104860000D02*
X139680000Y-104881395D01*
%TO.N,/SPI_MISO*%
X138111500Y-107496499D02*
X140255001Y-109640000D01*
X138111500Y-105938500D02*
X138111500Y-107496499D01*
X138280000Y-105770000D02*
X138111500Y-105938500D01*
X138280000Y-105648299D02*
X138280000Y-105770000D01*
X140255001Y-109640000D02*
X140255001Y-109877521D01*
X138293000Y-105635298D02*
X138280000Y-105648299D01*
X138330000Y-102452252D02*
X138293000Y-102489252D01*
X140255001Y-109877521D02*
X141404055Y-111026571D01*
X138329999Y-97940001D02*
X138330000Y-102452252D01*
X140230000Y-94920000D02*
X140230000Y-96040000D01*
X138293000Y-102489252D02*
X138293000Y-105635298D01*
X140230000Y-96040000D02*
X138329999Y-97940001D01*
X140250000Y-94900000D02*
X140230000Y-94920000D01*
X141404055Y-111026571D02*
X141528800Y-111151321D01*
X141528800Y-111151321D02*
X141528800Y-111404400D01*
%TO.N,/SPI_MOSI*%
X140830000Y-111450000D02*
X140830000Y-111081109D01*
X137871148Y-107689479D02*
X137871148Y-105748852D01*
X140830000Y-111081109D02*
X139981669Y-110232778D01*
X139981669Y-110232778D02*
X139981669Y-109800000D01*
X139981669Y-109800000D02*
X137871148Y-107689479D01*
X137871148Y-105748852D02*
X138075000Y-105545000D01*
X138075000Y-105545000D02*
X138075000Y-102235624D01*
X139787500Y-96038800D02*
X139787500Y-95159700D01*
X138075000Y-102235624D02*
X137770000Y-101930624D01*
X137770000Y-101930624D02*
X137770000Y-98056300D01*
X137770000Y-98056300D02*
X139787500Y-96038800D01*
X139769251Y-95141451D02*
X139769251Y-94964779D01*
X139787500Y-95159700D02*
X139769251Y-95141451D01*
%TO.N,/UART_RX1*%
X140875000Y-100924745D02*
X140146655Y-100924745D01*
X140146655Y-100924745D02*
X139280000Y-101791400D01*
X139280000Y-103781192D02*
X139280000Y-103970000D01*
X139280000Y-101791400D02*
X139280000Y-103418808D01*
X139280000Y-103418808D02*
X139289500Y-103428308D01*
X139289500Y-103428308D02*
X139289500Y-103771692D01*
X139289500Y-103771692D02*
X139280000Y-103781192D01*
X139225000Y-104025000D02*
X139125000Y-104025000D01*
X139280000Y-103970000D02*
X139225000Y-104025000D01*
%TO.N,/UART_RTS1*%
X138780000Y-103400000D02*
X138875000Y-103305000D01*
X138875000Y-103305000D02*
X138875000Y-101350000D01*
X138875000Y-101350000D02*
X139950000Y-100275000D01*
%TO.N,/SPI_CIPO1*%
X138460000Y-107389998D02*
X140865001Y-109794999D01*
X138460000Y-105940000D02*
X138460000Y-107389998D01*
X138859400Y-105540600D02*
X138460000Y-105940000D01*
X138800000Y-105256200D02*
X138859400Y-105315600D01*
X140865001Y-110126899D02*
X141433744Y-110695644D01*
X140865001Y-109794999D02*
X140865001Y-110126899D01*
X138859400Y-105315600D02*
X138859400Y-105540600D01*
X138800000Y-105175000D02*
X138800000Y-105256200D01*
X141433744Y-110695644D02*
X141433749Y-110695646D01*
X141433749Y-110695646D02*
X141880000Y-111141900D01*
X141880000Y-111141900D02*
X141880000Y-112732400D01*
X141880000Y-112732400D02*
X141997600Y-112850000D01*
D23*
%TO.N,GND*%
X139701000Y-102599000D02*
X139701000Y-104570000D01*
X140515000Y-101785000D02*
X139701000Y-102599000D01*
D24*
%TO.N,/SPI_COPI1*%
X139275000Y-105662279D02*
X139237721Y-105662279D01*
X139237721Y-105662279D02*
X138790000Y-106110000D01*
X138790000Y-106110000D02*
X138790000Y-107213504D01*
X138790000Y-107213504D02*
X141003248Y-109426752D01*
X141003248Y-109426752D02*
X141011755Y-109426752D01*
X141011755Y-109426752D02*
X141215003Y-109630000D01*
X141215003Y-109630000D02*
X141215003Y-110168602D01*
X141215003Y-110168602D02*
X142098001Y-111051602D01*
X142098001Y-111051602D02*
X142098000Y-111348400D01*
X142098000Y-111348400D02*
X142497600Y-111748000D01*
X142497600Y-111748000D02*
X142497600Y-112850000D01*
%TO.N,/BT_HOST_WAKE*%
X131080000Y-104220000D02*
X131080000Y-103920000D01*
X131080000Y-103920000D02*
X131485500Y-103514500D01*
X131485500Y-103514500D02*
X131485500Y-98410000D01*
X131485500Y-98410000D02*
X131000000Y-97924500D01*
X131000000Y-97924500D02*
X131000000Y-96388808D01*
X131000000Y-96388808D02*
X134170808Y-93218000D01*
X134170808Y-93218000D02*
X135636000Y-93218000D01*
%TO.N,GND*%
X136940000Y-102599200D02*
X136630400Y-102289600D01*
X136144000Y-101400000D02*
X136144000Y-101803200D01*
X136144000Y-101803200D02*
X136630400Y-102289600D01*
%TO.N,/~{SPI_CS1}*%
X136036007Y-102664327D02*
X135712200Y-102988134D01*
X135712200Y-102988134D02*
X135712200Y-106115692D01*
X135712200Y-106115692D02*
X139575000Y-109978492D01*
X139575000Y-109978492D02*
X139575000Y-110412302D01*
X139575000Y-110412302D02*
X140415500Y-111252802D01*
X140415500Y-111252802D02*
X140415500Y-112767900D01*
X140415500Y-112767900D02*
X140497600Y-112850000D01*
%TO.N,/AUD_IN-CAM_PCLK*%
X144497600Y-112850000D02*
X144497600Y-111891000D01*
X144497600Y-111891000D02*
X143766600Y-111160000D01*
X143766600Y-111160000D02*
X143283808Y-111160000D01*
X143283808Y-111160000D02*
X142970001Y-110846193D01*
X142970001Y-110846193D02*
X142970001Y-110690410D01*
%TO.N,/A0*%
X151579084Y-108685013D02*
X151579084Y-109647108D01*
X151579084Y-109647108D02*
X149497600Y-111728592D01*
X149497600Y-111728592D02*
X149497600Y-112850000D01*
%TO.N,/I2C_SDA1*%
X143290000Y-108431192D02*
X143290000Y-109614320D01*
X144510500Y-109930500D02*
X144694500Y-110114500D01*
X142860499Y-107447059D02*
X142860500Y-108001692D01*
X142805000Y-107391560D02*
X142860499Y-107447059D01*
X144339500Y-102835500D02*
X142950000Y-104225000D01*
X144339500Y-101809500D02*
X144339500Y-102835500D01*
X142805000Y-107016816D02*
X142805000Y-107391560D01*
X142994499Y-106827318D02*
X142805000Y-107016816D01*
X142950000Y-106047586D02*
X142994499Y-106092086D01*
X143290000Y-109614320D02*
X143606180Y-109930500D01*
X144694500Y-110114500D02*
X144694500Y-110895500D01*
X142860500Y-108001692D02*
X143290000Y-108431192D01*
X142950000Y-104225000D02*
X142950000Y-106047586D01*
X142994499Y-106092086D02*
X142994499Y-106827318D01*
X144190000Y-101660000D02*
X144339500Y-101809500D01*
X143606180Y-109930500D02*
X144510500Y-109930500D01*
X144694500Y-110895500D02*
X144450000Y-111140000D01*
%TO.N,/I2C_SCL1*%
X144280000Y-110400000D02*
X144068032Y-110400000D01*
X142990000Y-109820000D02*
X142990000Y-108491816D01*
X142605501Y-108107317D02*
X142605500Y-107552684D01*
X144068032Y-110400000D02*
X143816532Y-110148500D01*
X143816532Y-110148500D02*
X143318500Y-110148500D01*
X142990000Y-108491816D02*
X142605501Y-108107317D01*
X143318500Y-110148500D02*
X142990000Y-109820000D01*
%TO.N,/SPI_SCK*%
X143430000Y-110720000D02*
X142678780Y-109968780D01*
X142678780Y-109968780D02*
X142678780Y-108541220D01*
%TO.N,/AUD_BCLK*%
X145600000Y-105250000D02*
X145205200Y-105644800D01*
X145205200Y-105644800D02*
X145205200Y-106964999D01*
X145205200Y-106964999D02*
X145553446Y-107313246D01*
X145553446Y-107313246D02*
X145553446Y-108615900D01*
X145553446Y-108615900D02*
X145330400Y-108838946D01*
X145330400Y-108838946D02*
X145330400Y-110703408D01*
X145330400Y-110703408D02*
X145205500Y-110828308D01*
X145205500Y-110828308D02*
X145205500Y-111242402D01*
X145205500Y-111242402D02*
X145497600Y-111534502D01*
X145497600Y-111534502D02*
X145497600Y-112850000D01*
%TO.N,/G2*%
X146997600Y-112850000D02*
X146997600Y-111703792D01*
X146997600Y-111703792D02*
X146597346Y-111303538D01*
X146597346Y-111303538D02*
X146597346Y-110949912D01*
D25*
%TO.N,GND*%
X142420500Y-103913866D02*
X142556000Y-103778366D01*
X142556000Y-103778366D02*
X142556000Y-103135200D01*
X142556000Y-103135200D02*
X142240000Y-102819200D01*
D24*
%TO.N,/I2C_SCL1*%
X143925000Y-102350000D02*
X143962500Y-102387500D01*
X142700000Y-104200000D02*
X142700000Y-104725000D01*
X143962500Y-102387500D02*
X143962500Y-102904202D01*
X143962500Y-102904202D02*
X142732000Y-104134702D01*
X142732000Y-104134702D02*
X142732000Y-104168000D01*
X142732000Y-104168000D02*
X142700000Y-104200000D01*
D25*
%TO.N,GND*%
X142420500Y-106249772D02*
X142420500Y-103913866D01*
X142341600Y-106328672D02*
X142420500Y-106249772D01*
X142341600Y-106578400D02*
X142341600Y-106328672D01*
D24*
%TO.N,/I2C_SCL1*%
X142700000Y-106105885D02*
X142700000Y-105200000D01*
X142602325Y-107497184D02*
X142587000Y-107481858D01*
X142587000Y-107481858D02*
X142587000Y-106926518D01*
X142587000Y-106926518D02*
X142776499Y-106737019D01*
X142776499Y-106737019D02*
X142776499Y-106182384D01*
X142776499Y-106182384D02*
X142700000Y-106105885D01*
%TO.N,/AUD_IN-CAM_PCLK*%
X141775968Y-107999032D02*
X142235001Y-108458064D01*
X141723642Y-107999032D02*
X141775968Y-107999032D01*
X141468899Y-107744289D02*
X141723642Y-107999032D01*
X142235001Y-108458064D02*
X142235001Y-109955408D01*
X142079998Y-106195002D02*
X141468899Y-106806101D01*
X142235001Y-109955408D02*
X142970001Y-110690410D01*
X141468899Y-106806101D02*
X141468899Y-107744289D01*
X142079998Y-103581202D02*
X142079998Y-106195002D01*
X142080000Y-103581200D02*
X142079998Y-103581202D01*
D23*
%TO.N,+3.3V*%
X140721500Y-96738466D02*
X140738758Y-96738466D01*
X140738758Y-96738466D02*
X140756292Y-96756000D01*
X140756292Y-96756000D02*
X141845316Y-96756000D01*
X141845316Y-96756000D02*
X142267316Y-97178000D01*
X143089000Y-97178000D02*
X143715000Y-97804000D01*
X143715000Y-97804000D02*
X143715000Y-98460000D01*
X142267316Y-97178000D02*
X143089000Y-97178000D01*
D24*
%TO.N,/UART_RTS1*%
X151805449Y-102240001D02*
X152350148Y-102784700D01*
X144280500Y-101155500D02*
X145365001Y-102240001D01*
X143928308Y-101155500D02*
X144280500Y-101155500D01*
X154150000Y-104275000D02*
X154475000Y-104600000D01*
X152677316Y-102784700D02*
X152812416Y-102919800D01*
X143783808Y-101300000D02*
X143928308Y-101155500D01*
X143550000Y-101300000D02*
X143783808Y-101300000D01*
X145365001Y-102240001D02*
X151805449Y-102240001D01*
X152350148Y-102784700D02*
X152677316Y-102784700D01*
X152812416Y-102919800D02*
X153705500Y-102919800D01*
X153705500Y-102918308D02*
X153948308Y-102675500D01*
X153705500Y-102919800D02*
X153705500Y-102918308D01*
X154534500Y-103315500D02*
X154150000Y-103700000D01*
X153948308Y-102675500D02*
X154291692Y-102675500D01*
X154291692Y-102675500D02*
X154534500Y-102918308D01*
X154534500Y-102918308D02*
X154534500Y-103315500D01*
X154150000Y-103700000D02*
X154150000Y-104275000D01*
%TO.N,/~{BOOT}*%
X156700000Y-96650000D02*
X156670200Y-96650000D01*
X156825000Y-96775000D02*
X156700000Y-96650000D01*
X156670200Y-96650000D02*
X156000000Y-95979800D01*
X156000000Y-95750000D02*
X156350000Y-95400000D01*
X156000000Y-95979800D02*
X156000000Y-95750000D01*
%TO.N,/VBAT*%
X139997600Y-111143200D02*
X139997600Y-112850000D01*
X139115800Y-110261400D02*
X139997600Y-111143200D01*
X139864100Y-112716500D02*
X139997600Y-112850000D01*
%TO.N,GND*%
X149733000Y-109250000D02*
X150201400Y-109250000D01*
X149136100Y-111417100D02*
X148997600Y-111555600D01*
D26*
X150690000Y-104160000D02*
X151305000Y-104775000D01*
D24*
X154506000Y-96106000D02*
X155300000Y-96900000D01*
X150690000Y-95860000D02*
X151875000Y-94675000D01*
D23*
X141515000Y-98460000D02*
X141515000Y-99407254D01*
D24*
X150201400Y-109250000D02*
X150400000Y-109448600D01*
D26*
X152781000Y-104775000D02*
X153593800Y-103962200D01*
D24*
X150690000Y-93667400D02*
X150397600Y-93375000D01*
D26*
X151305000Y-104775000D02*
X152781000Y-104775000D01*
D24*
X136940000Y-104160000D02*
X136940000Y-102599200D01*
X154841800Y-97358200D02*
X155300000Y-96900000D01*
X154482800Y-97358200D02*
X154841800Y-97358200D01*
X150690000Y-95860000D02*
X150690000Y-93667400D01*
X151875000Y-94675000D02*
X152497600Y-94675000D01*
X154506000Y-95885000D02*
X154506000Y-96106000D01*
X148997600Y-111555600D02*
X148997600Y-112850000D01*
D23*
X141515000Y-99407254D02*
X141792246Y-99684500D01*
D26*
%TO.N,+3.3V*%
X156300000Y-107721900D02*
X156088100Y-107510000D01*
D25*
X153644600Y-95021400D02*
X154828600Y-95021400D01*
X154828600Y-95021400D02*
X154828600Y-94521400D01*
D24*
X148168000Y-109250000D02*
X148417400Y-109499400D01*
X148336000Y-108879000D02*
X147965000Y-109250000D01*
D25*
X157900000Y-98825000D02*
X157900000Y-98552966D01*
X155850000Y-93500000D02*
X156350000Y-93500000D01*
X152781000Y-95885000D02*
X153644600Y-95021400D01*
D27*
X156300000Y-109300000D02*
X156300000Y-109025000D01*
D25*
X154828600Y-94521400D02*
X155850000Y-93500000D01*
D27*
X156189100Y-108914100D02*
X156189100Y-107540952D01*
X156300000Y-109025000D02*
X156189100Y-108914100D01*
D26*
X156300000Y-109300000D02*
X156300000Y-107721900D01*
D24*
X148008000Y-109250000D02*
X148168000Y-109250000D01*
D25*
X155259500Y-95912466D02*
X155259500Y-95452300D01*
X157900000Y-98552966D02*
X155259500Y-95912466D01*
X155259500Y-95452300D02*
X154828600Y-95021400D01*
D23*
%TO.N,Net-(F1-Pad2)*%
X157497600Y-111996400D02*
X157734000Y-111760000D01*
D24*
X139497600Y-112157600D02*
X139497600Y-112850000D01*
D23*
X157497600Y-112850000D02*
X157497600Y-111996400D01*
D24*
X139380000Y-111940000D02*
X139380000Y-112040000D01*
X139380000Y-112040000D02*
X139497600Y-112157600D01*
%TO.N,/AUD_BCLK*%
X145630000Y-112717600D02*
X145497600Y-112850000D01*
X145497600Y-112850000D02*
X145364100Y-112716500D01*
%TO.N,/UART_CTS1*%
X137287000Y-106603800D02*
X137287000Y-105921000D01*
X137856500Y-102700000D02*
X137200000Y-102043500D01*
X137287000Y-106603800D02*
X137236200Y-106654600D01*
X137200000Y-102043500D02*
X137200000Y-100300000D01*
X137287000Y-105921000D02*
X137856500Y-105351500D01*
X137856500Y-105351500D02*
X137856500Y-102700000D01*
%TO.N,/AUD_MCLK*%
X140925000Y-107869312D02*
X140925000Y-107600000D01*
X142534001Y-110871006D02*
X141725001Y-110062004D01*
X143497600Y-111748000D02*
X143434850Y-111685250D01*
X141725001Y-110062004D02*
X141725001Y-108669313D01*
X142534000Y-111119099D02*
X142534001Y-110871006D01*
X143434850Y-111685250D02*
X143100149Y-111685250D01*
X141493000Y-106047799D02*
X141493000Y-104318000D01*
X143497600Y-112850000D02*
X143497600Y-111748000D01*
X141425000Y-104250000D02*
X141250000Y-104075000D01*
X141725001Y-108669313D02*
X140925000Y-107869312D01*
X141493000Y-104318000D02*
X141250000Y-104075000D01*
X140925000Y-107600000D02*
X141032899Y-107492101D01*
X141032899Y-107492101D02*
X141032899Y-106507900D01*
X141032899Y-106507900D02*
X141493000Y-106047799D01*
X143100149Y-111685250D02*
X142534000Y-111119099D01*
%TO.N,/CAN-RX*%
X147387301Y-106837301D02*
X147694599Y-106837301D01*
X147980400Y-111033825D02*
X147279155Y-110332580D01*
X147148000Y-107076602D02*
X147387301Y-106837301D01*
X147279155Y-108682454D02*
X147148000Y-108551299D01*
X147148000Y-107650000D02*
X147148000Y-107076602D01*
X147980400Y-111099600D02*
X147980400Y-111033825D01*
X147970330Y-106529670D02*
X148200000Y-106300000D01*
X147279155Y-110332580D02*
X147279155Y-108682454D01*
X147694599Y-106837301D02*
X147986280Y-106545620D01*
X147148000Y-108551299D02*
X147148000Y-107650000D01*
%TO.N,/~{BOOT}*%
X157900000Y-96950000D02*
X157900000Y-97000000D01*
X156350000Y-95400000D02*
X157900000Y-96950000D01*
%TO.N,/~{SPI_CS1}*%
X136036007Y-102664327D02*
X135987167Y-102713167D01*
%TO.N,/I2C_SDA1*%
X144190000Y-101660000D02*
X144100000Y-101570000D01*
%TO.N,/CAN-TX*%
X146751400Y-109667178D02*
X146751400Y-108823622D01*
X146675000Y-108747222D02*
X146675000Y-106525000D01*
X147140000Y-111140241D02*
X147106959Y-111107200D01*
X146843155Y-110513176D02*
X146843155Y-109758933D01*
X147290000Y-110960021D02*
X146843155Y-110513176D01*
X147140000Y-111260000D02*
X147290000Y-111110000D01*
X147100000Y-106100000D02*
X147050000Y-106150000D01*
X146751400Y-108823622D02*
X146675000Y-108747222D01*
X147140000Y-111260000D02*
X147140000Y-111140241D01*
X147290000Y-111110000D02*
X147290000Y-110960021D01*
X146675000Y-106525000D02*
X147050000Y-106150000D01*
X146843155Y-109758933D02*
X146751400Y-109667178D01*
%TO.N,/A1*%
X150062176Y-110740000D02*
X150009851Y-110740000D01*
X151079200Y-109722976D02*
X150062176Y-110740000D01*
X151079200Y-108828679D02*
X151079200Y-109722976D01*
X149951850Y-110798000D02*
X149447600Y-110798000D01*
X150009851Y-110740000D02*
X149951850Y-110798000D01*
X148895500Y-111350100D02*
X148497600Y-111748000D01*
X148497600Y-111748000D02*
X148497600Y-112850000D01*
X149430100Y-110815500D02*
X149167597Y-110815500D01*
X149167597Y-110815500D02*
X148895500Y-111087597D01*
X149447600Y-110798000D02*
X149430100Y-110815500D01*
X148895500Y-111087597D02*
X148895500Y-111350100D01*
%TO.N,/G3*%
X146150000Y-111569438D02*
X146497600Y-111917038D01*
X146497600Y-111917038D02*
X146497600Y-112850000D01*
X146150000Y-111390000D02*
X146150000Y-111569438D01*
%TO.N,/AUD_OUT-CAM_MCLK*%
X141980001Y-108563688D02*
X141250899Y-107834587D01*
X142752001Y-110780708D02*
X141980001Y-110008706D01*
X143997600Y-112850000D02*
X143997600Y-111748000D01*
X142752001Y-111028801D02*
X142752001Y-110780708D01*
X141824999Y-106103185D02*
X141825000Y-103925000D01*
X141250899Y-106677285D02*
X141824999Y-106103185D01*
X143716850Y-111467250D02*
X143190448Y-111467250D01*
X143997600Y-111748000D02*
X143716850Y-111467250D01*
X141980001Y-110008706D02*
X141980001Y-108563688D01*
X141600000Y-103700000D02*
X141600000Y-103500000D01*
X143190448Y-111467250D02*
X142752001Y-111028801D01*
X141825000Y-103925000D02*
X141600000Y-103700000D01*
X141250899Y-107834587D02*
X141250899Y-106677285D01*
%TO.N,/SPI_SCK*%
X141975000Y-107100000D02*
X141950000Y-107100000D01*
X141950000Y-107812440D02*
X141950000Y-107100000D01*
X142678780Y-108541220D02*
X141950000Y-107812440D01*
%TO.N,/UART_TX1*%
X154600000Y-105100000D02*
X154909500Y-104790500D01*
%TO.N,/SD_CLK*%
X145928400Y-100228400D02*
X143205200Y-100228400D01*
X147150000Y-101450000D02*
X145928400Y-100228400D01*
X142615000Y-99638200D02*
X142615000Y-98460000D01*
X143205200Y-100228400D02*
X142615000Y-99638200D01*
%TO.N,/SD_DAT3*%
X148137000Y-99525000D02*
X146630000Y-99525000D01*
X145915000Y-98810000D02*
X145915000Y-98460000D01*
X145915000Y-98460000D02*
X145915000Y-98110000D01*
X148137000Y-99695000D02*
X148137000Y-99525000D01*
X146630000Y-99525000D02*
X145915000Y-98810000D01*
%TO.N,/SD_CMD*%
X145504068Y-99582068D02*
X144815000Y-98893000D01*
X147185500Y-100965500D02*
X145802068Y-99582068D01*
X148150000Y-101380000D02*
X147736902Y-101380000D01*
X145802068Y-99582068D02*
X145504068Y-99582068D01*
X144815000Y-98893000D02*
X144815000Y-98460000D01*
X147322403Y-100965500D02*
X147185500Y-100965500D01*
X147463451Y-101106549D02*
X147322403Y-100965500D01*
X147736902Y-101380000D02*
X147463451Y-101106549D01*
%TO.N,/SD_DAT2*%
X147679710Y-98460000D02*
X147015000Y-98460000D01*
X148742400Y-100609400D02*
X148742400Y-100280731D01*
X148890000Y-99608299D02*
X147958202Y-98676500D01*
X148742400Y-100280731D02*
X148873131Y-100150000D01*
X148880000Y-99950000D02*
X148890000Y-99940000D01*
X148873131Y-100150000D02*
X148880000Y-100150000D01*
X147896209Y-98676500D02*
X147679710Y-98460000D01*
X147958202Y-98676500D02*
X147896209Y-98676500D01*
X148890000Y-99940000D02*
X148890000Y-99608299D01*
X148880000Y-100150000D02*
X148880000Y-99950000D01*
%TO.N,/BT_REG_ON*%
X133400000Y-94575000D02*
X134325000Y-93650000D01*
X133400000Y-104400000D02*
X133400000Y-94575000D01*
%TO.N,/WIFI_SDIO_DAT1*%
X152298400Y-103454200D02*
X152304200Y-103454200D01*
X151594200Y-102750000D02*
X152298400Y-103454200D01*
X143700000Y-104400000D02*
X145350000Y-102750000D01*
X143743981Y-107443981D02*
X143700000Y-107400000D01*
X143700000Y-107400000D02*
X143700000Y-104400000D01*
X143926306Y-107443981D02*
X143743981Y-107443981D01*
X144002357Y-107367930D02*
X143926306Y-107443981D01*
X152304200Y-103454200D02*
X152600000Y-103750000D01*
X145350000Y-102750000D02*
X151594200Y-102750000D01*
%TO.N,/WIFI_SDIO_DAT0*%
X143275000Y-107830000D02*
X143275000Y-104464376D01*
X143275000Y-107830000D02*
X143367573Y-107922573D01*
X143275000Y-104464376D02*
X145244376Y-102495000D01*
X151699825Y-102495001D02*
X152244524Y-103039700D01*
X152706792Y-103174800D02*
X154035200Y-103174800D01*
X154120000Y-103090000D02*
X154096000Y-103090000D01*
X143367573Y-107922573D02*
X143487134Y-107922573D01*
X152571692Y-103039700D02*
X152706792Y-103174800D01*
X145244376Y-102495000D02*
X151699825Y-102495001D01*
X152244524Y-103039700D02*
X152571692Y-103039700D01*
X154035200Y-103174800D02*
X154120000Y-103090000D01*
%TO.N,/WL_GPIO_0_HOST_WAKE*%
X157650000Y-100000000D02*
X157650000Y-100350000D01*
X155500000Y-97700000D02*
X155500000Y-97850000D01*
X155500000Y-97850000D02*
X157650000Y-100000000D01*
%TO.N,/BOOT0*%
X155923214Y-94825000D02*
X156048214Y-94700000D01*
X155400000Y-94825000D02*
X155923214Y-94825000D01*
X158225000Y-94450000D02*
X156298214Y-94450000D01*
X156298214Y-94450000D02*
X156048214Y-94700000D01*
%TO.N,unconnected-(J1-PWM0-Pad32)*%
X149864100Y-112716500D02*
X149997600Y-112850000D01*
X149864100Y-111930000D02*
X149864100Y-112716500D01*
%TO.N,unconnected-(J1-G4{slash}BUS4-Pad48)*%
X145889500Y-112741900D02*
X145997600Y-112850000D01*
%TO.N,/I2C_SCL1*%
X142700000Y-104725000D02*
X142700000Y-105200000D01*
%TD*%
%TA.AperFunction,Conductor*%
%TO.N,GND*%
G36*
X138823046Y-110934072D02*
G01*
X138901846Y-110966712D01*
X139002687Y-110986770D01*
X139019444Y-110995535D01*
X139037922Y-110999555D01*
X139062956Y-111018295D01*
X139064597Y-111019154D01*
X139066176Y-111020706D01*
X139115511Y-111070041D01*
X139148996Y-111131364D01*
X139144012Y-111201056D01*
X139102140Y-111256989D01*
X139075284Y-111272283D01*
X139032554Y-111289982D01*
X138912422Y-111370251D01*
X138912415Y-111370257D01*
X138863281Y-111419392D01*
X138801958Y-111452877D01*
X138732266Y-111447893D01*
X138676333Y-111406021D01*
X138651916Y-111340557D01*
X138651600Y-111331711D01*
X138651600Y-111048635D01*
X138671285Y-110981596D01*
X138724089Y-110935841D01*
X138793247Y-110925897D01*
X138823046Y-110934072D01*
G37*
%TD.AperFunction*%
%TA.AperFunction,Conductor*%
G36*
X150537817Y-76955585D02*
G01*
X150583572Y-77008389D01*
X150594778Y-77059914D01*
X150593719Y-86776812D01*
X150574027Y-86843849D01*
X150521218Y-86889598D01*
X150491252Y-86898914D01*
X150376784Y-86919098D01*
X150191726Y-86986454D01*
X150191721Y-86986456D01*
X150021175Y-87084921D01*
X150021172Y-87084924D01*
X149870310Y-87211510D01*
X149743724Y-87362372D01*
X149743721Y-87362375D01*
X149645256Y-87532921D01*
X149645254Y-87532926D01*
X149577898Y-87717985D01*
X149543700Y-87911929D01*
X149543700Y-88108870D01*
X149577898Y-88302814D01*
X149607202Y-88383325D01*
X149631681Y-88450583D01*
X149645254Y-88487873D01*
X149645256Y-88487878D01*
X149743721Y-88658424D01*
X149743724Y-88658427D01*
X149870310Y-88809289D01*
X149979351Y-88900784D01*
X150016235Y-88931733D01*
X150021172Y-88935875D01*
X150021175Y-88935878D01*
X150125770Y-88996266D01*
X150191726Y-89034346D01*
X150376787Y-89101702D01*
X150491784Y-89121979D01*
X150521232Y-89136573D01*
X150551173Y-89150138D01*
X150552386Y-89152013D01*
X150554387Y-89153005D01*
X150571272Y-89181207D01*
X150589124Y-89208803D01*
X150589556Y-89211746D01*
X150590278Y-89212952D01*
X150594251Y-89243722D01*
X150594722Y-89400419D01*
X150594230Y-89406347D01*
X150594761Y-89425674D01*
X150594807Y-89428694D01*
X150594866Y-89447994D01*
X150595536Y-89453889D01*
X150675446Y-92361053D01*
X150675600Y-92366659D01*
X150675600Y-92496179D01*
X150680217Y-92528293D01*
X150680420Y-92535389D01*
X150673268Y-92562597D01*
X150669264Y-92590443D01*
X150664505Y-92595934D01*
X150662658Y-92602963D01*
X150641931Y-92621985D01*
X150623508Y-92643246D01*
X150616534Y-92645293D01*
X150611181Y-92650207D01*
X150583460Y-92655004D01*
X150556469Y-92662929D01*
X150544487Y-92661748D01*
X150542335Y-92662121D01*
X150540531Y-92661358D01*
X150532280Y-92660546D01*
X150469207Y-92648000D01*
X150325992Y-92648000D01*
X150185549Y-92675936D01*
X150185541Y-92675938D01*
X150143451Y-92693372D01*
X150073981Y-92700839D01*
X150011503Y-92669563D01*
X149975851Y-92609474D01*
X149972000Y-92578810D01*
X149972000Y-91824697D01*
X149971999Y-91824693D01*
X149971812Y-91823996D01*
X149965378Y-91799981D01*
X149933020Y-91679217D01*
X149932799Y-91678835D01*
X149911398Y-91641767D01*
X149857714Y-91548784D01*
X147427611Y-89118681D01*
X147394126Y-89057358D01*
X147399110Y-88987666D01*
X147440982Y-88931733D01*
X147506446Y-88907316D01*
X147515292Y-88907000D01*
X148060348Y-88907000D01*
X148060350Y-88907000D01*
X148227515Y-88871468D01*
X148383639Y-88801957D01*
X148521900Y-88701505D01*
X148522710Y-88700606D01*
X148636251Y-88574505D01*
X148636250Y-88574505D01*
X148636254Y-88574502D01*
X148721703Y-88426498D01*
X148774514Y-88263963D01*
X148792378Y-88094000D01*
X148774514Y-87924037D01*
X148721703Y-87761502D01*
X148721183Y-87760602D01*
X148675370Y-87681250D01*
X148636254Y-87613498D01*
X148636252Y-87613496D01*
X148636251Y-87613494D01*
X148521905Y-87486499D01*
X148521902Y-87486497D01*
X148521901Y-87486496D01*
X148521900Y-87486495D01*
X148383639Y-87386043D01*
X148352540Y-87372196D01*
X148352537Y-87372195D01*
X148227514Y-87316531D01*
X148084080Y-87286044D01*
X148060350Y-87281000D01*
X147989918Y-87281000D01*
X146272231Y-87281000D01*
X146247700Y-87281000D01*
X146162250Y-87281000D01*
X146138520Y-87286044D01*
X145995085Y-87316531D01*
X145995080Y-87316533D01*
X145838961Y-87386043D01*
X145838956Y-87386045D01*
X145802885Y-87412253D01*
X145737079Y-87435733D01*
X145669025Y-87419907D01*
X145620330Y-87369801D01*
X145606000Y-87311935D01*
X145606000Y-86616176D01*
X145625685Y-86549137D01*
X145642319Y-86528495D01*
X145739675Y-86431138D01*
X145739678Y-86431135D01*
X145839102Y-86282336D01*
X145907587Y-86117000D01*
X145929198Y-86008352D01*
X146662700Y-86008352D01*
X146662700Y-86152847D01*
X146690886Y-86294546D01*
X146690888Y-86294554D01*
X146746181Y-86428043D01*
X146746181Y-86428044D01*
X146826451Y-86548177D01*
X146826457Y-86548184D01*
X146928615Y-86650342D01*
X146928622Y-86650348D01*
X147048756Y-86730618D01*
X147048757Y-86730618D01*
X147048758Y-86730619D01*
X147182246Y-86785912D01*
X147323952Y-86814099D01*
X147323956Y-86814100D01*
X147323957Y-86814100D01*
X147468444Y-86814100D01*
X147468445Y-86814099D01*
X147610154Y-86785912D01*
X147743642Y-86730619D01*
X147743643Y-86730618D01*
X147743644Y-86730618D01*
X147819672Y-86679818D01*
X147863779Y-86650347D01*
X147933400Y-86580725D01*
X147994721Y-86547242D01*
X148064413Y-86552226D01*
X148120347Y-86594097D01*
X148142697Y-86644217D01*
X148164086Y-86751746D01*
X148164088Y-86751754D01*
X148219381Y-86885243D01*
X148219381Y-86885244D01*
X148299651Y-87005377D01*
X148299657Y-87005384D01*
X148401816Y-87107543D01*
X148401819Y-87107545D01*
X148401821Y-87107547D01*
X148521958Y-87187819D01*
X148655446Y-87243112D01*
X148797152Y-87271299D01*
X148797156Y-87271300D01*
X148797157Y-87271300D01*
X148941644Y-87271300D01*
X148941645Y-87271299D01*
X149083354Y-87243112D01*
X149216842Y-87187819D01*
X149216843Y-87187818D01*
X149216844Y-87187818D01*
X149311747Y-87124406D01*
X149336979Y-87107547D01*
X149439147Y-87005379D01*
X149479283Y-86945310D01*
X149519418Y-86885244D01*
X149519418Y-86885243D01*
X149519419Y-86885242D01*
X149574712Y-86751754D01*
X149602900Y-86610043D01*
X149602900Y-86465557D01*
X149574712Y-86323846D01*
X149519419Y-86190358D01*
X149519418Y-86190356D01*
X149519418Y-86190355D01*
X149439148Y-86070222D01*
X149439142Y-86070215D01*
X149336984Y-85968057D01*
X149336977Y-85968051D01*
X149216843Y-85887781D01*
X149083354Y-85832488D01*
X149083346Y-85832486D01*
X148941647Y-85804300D01*
X148941643Y-85804300D01*
X148797157Y-85804300D01*
X148797152Y-85804300D01*
X148655453Y-85832486D01*
X148655445Y-85832488D01*
X148521956Y-85887781D01*
X148521955Y-85887781D01*
X148401822Y-85968051D01*
X148332200Y-86037673D01*
X148270876Y-86071157D01*
X148201185Y-86066172D01*
X148145251Y-86024301D01*
X148122902Y-85974184D01*
X148101512Y-85866646D01*
X148046219Y-85733158D01*
X148046218Y-85733156D01*
X148046218Y-85733155D01*
X147965948Y-85613022D01*
X147965942Y-85613015D01*
X147863784Y-85510857D01*
X147863777Y-85510851D01*
X147743643Y-85430581D01*
X147610154Y-85375288D01*
X147610146Y-85375286D01*
X147468447Y-85347100D01*
X147468443Y-85347100D01*
X147323957Y-85347100D01*
X147323952Y-85347100D01*
X147182253Y-85375286D01*
X147182245Y-85375288D01*
X147048756Y-85430581D01*
X147048755Y-85430581D01*
X146928622Y-85510851D01*
X146928615Y-85510857D01*
X146826457Y-85613015D01*
X146826451Y-85613022D01*
X146746181Y-85733155D01*
X146746181Y-85733156D01*
X146690888Y-85866645D01*
X146690886Y-85866653D01*
X146662700Y-86008352D01*
X145929198Y-86008352D01*
X145942500Y-85941479D01*
X145942500Y-85762521D01*
X145907587Y-85587000D01*
X145839102Y-85421664D01*
X145839100Y-85421661D01*
X145839098Y-85421657D01*
X145739678Y-85272865D01*
X145739675Y-85272861D01*
X145613138Y-85146324D01*
X145613134Y-85146321D01*
X145464342Y-85046901D01*
X145464332Y-85046896D01*
X145299000Y-84978413D01*
X145298992Y-84978411D01*
X145123483Y-84943500D01*
X145123479Y-84943500D01*
X144944521Y-84943500D01*
X144944516Y-84943500D01*
X144769007Y-84978411D01*
X144768999Y-84978413D01*
X144603667Y-85046896D01*
X144603657Y-85046901D01*
X144454865Y-85146321D01*
X144454861Y-85146324D01*
X144328324Y-85272861D01*
X144328321Y-85272865D01*
X144228901Y-85421657D01*
X144228896Y-85421667D01*
X144160413Y-85586999D01*
X144160411Y-85587007D01*
X144125500Y-85762516D01*
X144125500Y-85941483D01*
X144143069Y-86029809D01*
X144136842Y-86099401D01*
X144093978Y-86154578D01*
X144028088Y-86177822D01*
X144021452Y-86178000D01*
X143349693Y-86178000D01*
X143348649Y-86178136D01*
X143345047Y-86178974D01*
X143198408Y-86208142D01*
X143128816Y-86201915D01*
X143073639Y-86159052D01*
X143071132Y-86155441D01*
X143016884Y-86074253D01*
X143016882Y-86074250D01*
X142910750Y-85968118D01*
X142910746Y-85968115D01*
X142785948Y-85884727D01*
X142785935Y-85884720D01*
X142647271Y-85827284D01*
X142647259Y-85827281D01*
X142504967Y-85798977D01*
X142501369Y-85798140D01*
X142500307Y-85798000D01*
X142500305Y-85798000D01*
X142109695Y-85798000D01*
X142109693Y-85798000D01*
X142108650Y-85798136D01*
X142105048Y-85798974D01*
X141962738Y-85827281D01*
X141962728Y-85827284D01*
X141824064Y-85884720D01*
X141824051Y-85884727D01*
X141699253Y-85968115D01*
X141699249Y-85968118D01*
X141593118Y-86074249D01*
X141593112Y-86074257D01*
X141560617Y-86122890D01*
X141554526Y-86127980D01*
X141551228Y-86135203D01*
X141528097Y-86150067D01*
X141507005Y-86167696D01*
X141497630Y-86169647D01*
X141492450Y-86172977D01*
X141457515Y-86178000D01*
X141364014Y-86178000D01*
X141296975Y-86158315D01*
X141286703Y-86150949D01*
X141279245Y-86145001D01*
X141279241Y-86144999D01*
X141226127Y-86119421D01*
X141174267Y-86072599D01*
X141155954Y-86005172D01*
X141158311Y-85983509D01*
X141170100Y-85924243D01*
X141170100Y-85779757D01*
X141141912Y-85638046D01*
X141086619Y-85504558D01*
X141086618Y-85504556D01*
X141086618Y-85504555D01*
X141006348Y-85384422D01*
X141006342Y-85384415D01*
X140904184Y-85282257D01*
X140904177Y-85282251D01*
X140784043Y-85201981D01*
X140650554Y-85146688D01*
X140650546Y-85146686D01*
X140508847Y-85118500D01*
X140508843Y-85118500D01*
X140364357Y-85118500D01*
X140364352Y-85118500D01*
X140222653Y-85146686D01*
X140222645Y-85146688D01*
X140089159Y-85201980D01*
X139966394Y-85284008D01*
X139899716Y-85304885D01*
X139850051Y-85295466D01*
X139736154Y-85248288D01*
X139736146Y-85248286D01*
X139594447Y-85220100D01*
X139594443Y-85220100D01*
X139449957Y-85220100D01*
X139449952Y-85220100D01*
X139308253Y-85248286D01*
X139308245Y-85248288D01*
X139174750Y-85303584D01*
X139170399Y-85305910D01*
X139101996Y-85320149D01*
X139064500Y-85311110D01*
X138974158Y-85273689D01*
X138974146Y-85273686D01*
X138832447Y-85245500D01*
X138832443Y-85245500D01*
X138687957Y-85245500D01*
X138687952Y-85245500D01*
X138546253Y-85273686D01*
X138546245Y-85273688D01*
X138412756Y-85328981D01*
X138412755Y-85328981D01*
X138292622Y-85409251D01*
X138292615Y-85409257D01*
X138187481Y-85514392D01*
X138126158Y-85547877D01*
X138056466Y-85542893D01*
X138012119Y-85514392D01*
X137957784Y-85460057D01*
X137957777Y-85460051D01*
X137837643Y-85379781D01*
X137704154Y-85324488D01*
X137704146Y-85324486D01*
X137562447Y-85296300D01*
X137562443Y-85296300D01*
X137417957Y-85296300D01*
X137417952Y-85296300D01*
X137276253Y-85324486D01*
X137276245Y-85324488D01*
X137142758Y-85379780D01*
X137101888Y-85407088D01*
X137035211Y-85427964D01*
X136967831Y-85409478D01*
X136964112Y-85407088D01*
X136923241Y-85379780D01*
X136789754Y-85324488D01*
X136789746Y-85324486D01*
X136648047Y-85296300D01*
X136648043Y-85296300D01*
X136503557Y-85296300D01*
X136503552Y-85296300D01*
X136361853Y-85324486D01*
X136361845Y-85324488D01*
X136228356Y-85379781D01*
X136228355Y-85379781D01*
X136108222Y-85460051D01*
X136108215Y-85460057D01*
X136006057Y-85562215D01*
X136006051Y-85562222D01*
X135925781Y-85682355D01*
X135925781Y-85682356D01*
X135870488Y-85815845D01*
X135870486Y-85815853D01*
X135842300Y-85957552D01*
X135842300Y-86102047D01*
X135870486Y-86243746D01*
X135870488Y-86243754D01*
X135925781Y-86377243D01*
X135925781Y-86377244D01*
X136006051Y-86497377D01*
X136006057Y-86497384D01*
X136108215Y-86599542D01*
X136108222Y-86599548D01*
X136228356Y-86679818D01*
X136228357Y-86679818D01*
X136228358Y-86679819D01*
X136361846Y-86735112D01*
X136405265Y-86743748D01*
X136467174Y-86776132D01*
X136468754Y-86777684D01*
X136800808Y-87109738D01*
X136801289Y-87110221D01*
X136808972Y-87117989D01*
X136818707Y-87132092D01*
X136852749Y-87162250D01*
X136855624Y-87165157D01*
X136870333Y-87192451D01*
X136886816Y-87218729D01*
X136886769Y-87222950D01*
X136888771Y-87226664D01*
X136886388Y-87257583D01*
X136886048Y-87288594D01*
X136883728Y-87292117D01*
X136883404Y-87296327D01*
X136864682Y-87321051D01*
X136847631Y-87346954D01*
X136842741Y-87350025D01*
X136841225Y-87352029D01*
X136837209Y-87353501D01*
X136817899Y-87365634D01*
X136772058Y-87386044D01*
X136772056Y-87386045D01*
X136633801Y-87486493D01*
X136633794Y-87486499D01*
X136519448Y-87613494D01*
X136519445Y-87613499D01*
X136433997Y-87761500D01*
X136381187Y-87924032D01*
X136381186Y-87924034D01*
X136363322Y-88094000D01*
X136381186Y-88263965D01*
X136381187Y-88263967D01*
X136433997Y-88426499D01*
X136447902Y-88450583D01*
X136518926Y-88573602D01*
X136519445Y-88574500D01*
X136519448Y-88574505D01*
X136633794Y-88701500D01*
X136633801Y-88701506D01*
X136772056Y-88801954D01*
X136772057Y-88801954D01*
X136772061Y-88801957D01*
X136899385Y-88858645D01*
X136928180Y-88871466D01*
X136928185Y-88871468D01*
X137095350Y-88907000D01*
X137095351Y-88907000D01*
X138993448Y-88907000D01*
X138993450Y-88907000D01*
X139160615Y-88871468D01*
X139316739Y-88801957D01*
X139455000Y-88701505D01*
X139455810Y-88700606D01*
X139569351Y-88574505D01*
X139569350Y-88574505D01*
X139569354Y-88574502D01*
X139654803Y-88426498D01*
X139707614Y-88263963D01*
X139725478Y-88094000D01*
X139707614Y-87924037D01*
X139654803Y-87761502D01*
X139654283Y-87760602D01*
X139581768Y-87635000D01*
X139565295Y-87567100D01*
X139588148Y-87501073D01*
X139643069Y-87457882D01*
X139689155Y-87449000D01*
X139929305Y-87449000D01*
X139948369Y-87443890D01*
X139952832Y-87442784D01*
X139998407Y-87432382D01*
X140053592Y-87432382D01*
X140099152Y-87442781D01*
X140103655Y-87443898D01*
X140108771Y-87445268D01*
X140122695Y-87449000D01*
X140363305Y-87449000D01*
X140382369Y-87443890D01*
X140386832Y-87442784D01*
X140432407Y-87432382D01*
X140487592Y-87432382D01*
X140533152Y-87442781D01*
X140537655Y-87443898D01*
X140542771Y-87445268D01*
X140556695Y-87449000D01*
X140797305Y-87449000D01*
X140816354Y-87443895D01*
X140820830Y-87442785D01*
X140821151Y-87442711D01*
X140822051Y-87442506D01*
X140891791Y-87446762D01*
X140948159Y-87488047D01*
X140973258Y-87553253D01*
X140959120Y-87621677D01*
X140957060Y-87625389D01*
X140878998Y-87760597D01*
X140878997Y-87760599D01*
X140826187Y-87923132D01*
X140826186Y-87923134D01*
X140808322Y-88093100D01*
X140826186Y-88263065D01*
X140826187Y-88263067D01*
X140878997Y-88425599D01*
X140964445Y-88573600D01*
X140964448Y-88573605D01*
X141078794Y-88700600D01*
X141078801Y-88700606D01*
X141217056Y-88801054D01*
X141217057Y-88801054D01*
X141217061Y-88801057D01*
X141344385Y-88857745D01*
X141373180Y-88870566D01*
X141373185Y-88870568D01*
X141540350Y-88906100D01*
X141540351Y-88906100D01*
X143438448Y-88906100D01*
X143438450Y-88906100D01*
X143605615Y-88870568D01*
X143761739Y-88801057D01*
X143900000Y-88700605D01*
X143916144Y-88682676D01*
X143964468Y-88629006D01*
X143990851Y-88599703D01*
X144050337Y-88563056D01*
X144120194Y-88564385D01*
X144178242Y-88603271D01*
X144206052Y-88667368D01*
X144207001Y-88682676D01*
X144207001Y-88954306D01*
X144245982Y-89099785D01*
X144266833Y-89135900D01*
X144321287Y-89230217D01*
X144417286Y-89326216D01*
X145123784Y-90032714D01*
X145215464Y-90085645D01*
X145254212Y-90108017D01*
X145254213Y-90108017D01*
X145254216Y-90108019D01*
X145399694Y-90147000D01*
X145399695Y-90147000D01*
X145604000Y-90147000D01*
X145671039Y-90166685D01*
X145716794Y-90219489D01*
X145728000Y-90271000D01*
X145728000Y-92252714D01*
X145708315Y-92319753D01*
X145707103Y-92321604D01*
X145706629Y-92322312D01*
X145706629Y-92322313D01*
X145687159Y-92351453D01*
X145626356Y-92442451D01*
X145571064Y-92575937D01*
X145571062Y-92575945D01*
X145542876Y-92717644D01*
X145542876Y-92862139D01*
X145571062Y-93003838D01*
X145571064Y-93003846D01*
X145626357Y-93137335D01*
X145626357Y-93137336D01*
X145706627Y-93257469D01*
X145706633Y-93257476D01*
X145808791Y-93359634D01*
X145808798Y-93359640D01*
X145928932Y-93439910D01*
X145928933Y-93439910D01*
X145928934Y-93439911D01*
X146062422Y-93495204D01*
X146122821Y-93507218D01*
X146154512Y-93513522D01*
X146216423Y-93545906D01*
X146250997Y-93606622D01*
X146250096Y-93667231D01*
X146243767Y-93690853D01*
X146228000Y-93749695D01*
X146228000Y-94059789D01*
X146208315Y-94126828D01*
X146155511Y-94172583D01*
X146086353Y-94182527D01*
X146056548Y-94174350D01*
X145967773Y-94137578D01*
X145967761Y-94137575D01*
X145826062Y-94109389D01*
X145826058Y-94109389D01*
X145681572Y-94109389D01*
X145681567Y-94109389D01*
X145539868Y-94137575D01*
X145539860Y-94137577D01*
X145406371Y-94192870D01*
X145406370Y-94192870D01*
X145286237Y-94273140D01*
X145286230Y-94273146D01*
X145184072Y-94375304D01*
X145184066Y-94375311D01*
X145110849Y-94484890D01*
X145057237Y-94529696D01*
X145007747Y-94540000D01*
X144700292Y-94540000D01*
X144633253Y-94520315D01*
X144612611Y-94503681D01*
X142651215Y-92542285D01*
X142639270Y-92535389D01*
X142628578Y-92529216D01*
X142520784Y-92466981D01*
X142375305Y-92428000D01*
X142375303Y-92428000D01*
X140590899Y-92428000D01*
X140523860Y-92408315D01*
X140478105Y-92355511D01*
X140476338Y-92351453D01*
X140464490Y-92322850D01*
X140425019Y-92227558D01*
X140425018Y-92227556D01*
X140425018Y-92227555D01*
X140344748Y-92107422D01*
X140344742Y-92107415D01*
X140242584Y-92005257D01*
X140242577Y-92005251D01*
X140122443Y-91924981D01*
X139988954Y-91869688D01*
X139988946Y-91869686D01*
X139847247Y-91841500D01*
X139847243Y-91841500D01*
X139702757Y-91841500D01*
X139702752Y-91841500D01*
X139561053Y-91869686D01*
X139561045Y-91869688D01*
X139427556Y-91924981D01*
X139427555Y-91924981D01*
X139307422Y-92005251D01*
X139307415Y-92005257D01*
X139205257Y-92107415D01*
X139205251Y-92107422D01*
X139124981Y-92227555D01*
X139124981Y-92227556D01*
X139069688Y-92361045D01*
X139069686Y-92361053D01*
X139041500Y-92502752D01*
X139041500Y-92647247D01*
X139069686Y-92788946D01*
X139069688Y-92788954D01*
X139124981Y-92922443D01*
X139124981Y-92922444D01*
X139205251Y-93042577D01*
X139205257Y-93042584D01*
X139307415Y-93144742D01*
X139307422Y-93144748D01*
X139427556Y-93225018D01*
X139427557Y-93225018D01*
X139427558Y-93225019D01*
X139561046Y-93280312D01*
X139661887Y-93300370D01*
X139723797Y-93332754D01*
X139725376Y-93334306D01*
X139742286Y-93351216D01*
X139848784Y-93457714D01*
X139929934Y-93504566D01*
X139979212Y-93533017D01*
X139979213Y-93533017D01*
X139979216Y-93533019D01*
X140124695Y-93572000D01*
X140275306Y-93572000D01*
X142011708Y-93572000D01*
X142078747Y-93591685D01*
X142099389Y-93608319D01*
X143200305Y-94709235D01*
X143233790Y-94770558D01*
X143228806Y-94840250D01*
X143186934Y-94896183D01*
X143136816Y-94918533D01*
X143071239Y-94931577D01*
X143071233Y-94931579D01*
X142905901Y-95000062D01*
X142905891Y-95000067D01*
X142757099Y-95099487D01*
X142757095Y-95099490D01*
X142630558Y-95226027D01*
X142630555Y-95226031D01*
X142531135Y-95374823D01*
X142531130Y-95374833D01*
X142462647Y-95540165D01*
X142462645Y-95540173D01*
X142427734Y-95715682D01*
X142427734Y-95894649D01*
X142462645Y-96070158D01*
X142462648Y-96070169D01*
X142464453Y-96074527D01*
X142468074Y-96108231D01*
X142472292Y-96141809D01*
X142471794Y-96142848D01*
X142471918Y-96143997D01*
X142456746Y-96174301D01*
X142442137Y-96204836D01*
X142441155Y-96205442D01*
X142440639Y-96206474D01*
X142411512Y-96223753D01*
X142382694Y-96241555D01*
X142381540Y-96241534D01*
X142380548Y-96242123D01*
X142346693Y-96240911D01*
X142312836Y-96240307D01*
X142311466Y-96239651D01*
X142310723Y-96239625D01*
X142280998Y-96225075D01*
X142256192Y-96208500D01*
X142169077Y-96150291D01*
X142169075Y-96150290D01*
X142107053Y-96124600D01*
X142044685Y-96098766D01*
X142044677Y-96098764D01*
X141912639Y-96072500D01*
X141912635Y-96072500D01*
X141391710Y-96072500D01*
X141324671Y-96052815D01*
X141304029Y-96036181D01*
X141300638Y-96032790D01*
X141300634Y-96032787D01*
X141151842Y-95933367D01*
X141151832Y-95933362D01*
X140986500Y-95864879D01*
X140986494Y-95864877D01*
X140901808Y-95848032D01*
X140839897Y-95815647D01*
X140805323Y-95754931D01*
X140802000Y-95726415D01*
X140802000Y-95252888D01*
X140821685Y-95185849D01*
X140838323Y-95165203D01*
X140844744Y-95158782D01*
X140844747Y-95158779D01*
X140897040Y-95080516D01*
X140925018Y-95038644D01*
X140925018Y-95038643D01*
X140925019Y-95038642D01*
X140980312Y-94905154D01*
X141008500Y-94763443D01*
X141008500Y-94618957D01*
X140980312Y-94477246D01*
X140925019Y-94343758D01*
X140925018Y-94343756D01*
X140925018Y-94343755D01*
X140844748Y-94223622D01*
X140844742Y-94223615D01*
X140742584Y-94121457D01*
X140742577Y-94121451D01*
X140622443Y-94041181D01*
X140488954Y-93985888D01*
X140488946Y-93985886D01*
X140347247Y-93957700D01*
X140347243Y-93957700D01*
X140202757Y-93957700D01*
X140202752Y-93957700D01*
X140061053Y-93985886D01*
X140061045Y-93985888D01*
X139927556Y-94041181D01*
X139927555Y-94041181D01*
X139807422Y-94121451D01*
X139724337Y-94204536D01*
X139663013Y-94238020D01*
X139660848Y-94238471D01*
X139555302Y-94259465D01*
X139555296Y-94259467D01*
X139421807Y-94314760D01*
X139421806Y-94314760D01*
X139301673Y-94395030D01*
X139301666Y-94395036D01*
X139199508Y-94497194D01*
X139199502Y-94497201D01*
X139119232Y-94617334D01*
X139119232Y-94617335D01*
X139063939Y-94750824D01*
X139063937Y-94750832D01*
X139035751Y-94892531D01*
X139035751Y-94903445D01*
X139027886Y-94930229D01*
X139023225Y-94957754D01*
X139018177Y-94963293D01*
X139016066Y-94970484D01*
X138994969Y-94988763D01*
X138976167Y-95009400D01*
X138967064Y-95012944D01*
X138963262Y-95016239D01*
X138943707Y-95023257D01*
X138939848Y-95024286D01*
X138786695Y-95054750D01*
X138716285Y-95083914D01*
X138708364Y-95086027D01*
X138681298Y-95085351D01*
X138654389Y-95088244D01*
X138644981Y-95084445D01*
X138638516Y-95084284D01*
X138629598Y-95078233D01*
X138607519Y-95069318D01*
X138585338Y-95054498D01*
X138420002Y-94986013D01*
X138419996Y-94986011D01*
X138264808Y-94955142D01*
X138202897Y-94922757D01*
X138168323Y-94862041D01*
X138165000Y-94833525D01*
X138165000Y-94812172D01*
X138164999Y-94812155D01*
X138158598Y-94752627D01*
X138158596Y-94752620D01*
X138108354Y-94617913D01*
X138108350Y-94617906D01*
X138022190Y-94502812D01*
X138022187Y-94502809D01*
X137907093Y-94416649D01*
X137907086Y-94416645D01*
X137772379Y-94366403D01*
X137772372Y-94366401D01*
X137712844Y-94360000D01*
X137190000Y-94360000D01*
X137190000Y-97360000D01*
X137358008Y-97360000D01*
X137425047Y-97379685D01*
X137470802Y-97432489D01*
X137480746Y-97501647D01*
X137451721Y-97565203D01*
X137445689Y-97571681D01*
X137312288Y-97705081D01*
X137312284Y-97705087D01*
X137236982Y-97835512D01*
X137236981Y-97835516D01*
X137198000Y-97980995D01*
X137198000Y-97980997D01*
X137198000Y-99332698D01*
X137178315Y-99399737D01*
X137125511Y-99445492D01*
X137098192Y-99454315D01*
X137046051Y-99464686D01*
X137046045Y-99464688D01*
X136912556Y-99519981D01*
X136912555Y-99519981D01*
X136792422Y-99600251D01*
X136792415Y-99600257D01*
X136690257Y-99702415D01*
X136690251Y-99702422D01*
X136609981Y-99822555D01*
X136609981Y-99822556D01*
X136554688Y-99956045D01*
X136554686Y-99956053D01*
X136526500Y-100097752D01*
X136526500Y-100242247D01*
X136554686Y-100383946D01*
X136554688Y-100383954D01*
X136609980Y-100517440D01*
X136612850Y-100522809D01*
X136610511Y-100524059D01*
X136627979Y-100579750D01*
X136628000Y-100582023D01*
X136628000Y-101945723D01*
X136608315Y-102012762D01*
X136555511Y-102058517D01*
X136486353Y-102068461D01*
X136435111Y-102048826D01*
X136383449Y-102014308D01*
X136249961Y-101959015D01*
X136249953Y-101959013D01*
X136108254Y-101930827D01*
X136108250Y-101930827D01*
X135963764Y-101930827D01*
X135963759Y-101930827D01*
X135822060Y-101959013D01*
X135822052Y-101959015D01*
X135688563Y-102014308D01*
X135688562Y-102014308D01*
X135568429Y-102094578D01*
X135568422Y-102094584D01*
X135466264Y-102196742D01*
X135466258Y-102196749D01*
X135385988Y-102316882D01*
X135385988Y-102316883D01*
X135330695Y-102450372D01*
X135330693Y-102450378D01*
X135310636Y-102551213D01*
X135278251Y-102613124D01*
X135276702Y-102614701D01*
X135254485Y-102636918D01*
X135179182Y-102767346D01*
X135179181Y-102767350D01*
X135140200Y-102912829D01*
X135140200Y-106190997D01*
X135179181Y-106336476D01*
X135236514Y-106435780D01*
X135254486Y-106466908D01*
X135254488Y-106466910D01*
X135504322Y-106716744D01*
X135537807Y-106778067D01*
X135532823Y-106847759D01*
X135516976Y-106875312D01*
X135517706Y-106875800D01*
X135414901Y-107029657D01*
X135414896Y-107029667D01*
X135346413Y-107194999D01*
X135346411Y-107195007D01*
X135311500Y-107370516D01*
X135311500Y-107549483D01*
X135346411Y-107724992D01*
X135346413Y-107725000D01*
X135414896Y-107890332D01*
X135414901Y-107890342D01*
X135514321Y-108039134D01*
X135514324Y-108039138D01*
X135640861Y-108165675D01*
X135640865Y-108165678D01*
X135789657Y-108265098D01*
X135789661Y-108265100D01*
X135789664Y-108265102D01*
X135955000Y-108333587D01*
X136119712Y-108366350D01*
X136130516Y-108368499D01*
X136130520Y-108368500D01*
X136130521Y-108368500D01*
X136309480Y-108368500D01*
X136309481Y-108368499D01*
X136485000Y-108333587D01*
X136650336Y-108265102D01*
X136671486Y-108250970D01*
X136804200Y-108162294D01*
X136805303Y-108163945D01*
X136861186Y-108140195D01*
X136930057Y-108151969D01*
X136963254Y-108175677D01*
X138488252Y-109700675D01*
X138521737Y-109761998D01*
X138516753Y-109831690D01*
X138503674Y-109857245D01*
X138465781Y-109913957D01*
X138410488Y-110047445D01*
X138410486Y-110047453D01*
X138382300Y-110189152D01*
X138382300Y-110192440D01*
X138381813Y-110194097D01*
X138381703Y-110195218D01*
X138381490Y-110195197D01*
X138376296Y-110212884D01*
X138375072Y-110234156D01*
X138366649Y-110245738D01*
X138362615Y-110259479D01*
X138346513Y-110273431D01*
X138333982Y-110290665D01*
X138320633Y-110295855D01*
X138309811Y-110305234D01*
X138288721Y-110308266D01*
X138268863Y-110315989D01*
X138249056Y-110313969D01*
X138240653Y-110315178D01*
X138233627Y-110313961D01*
X138228262Y-110312871D01*
X138168964Y-110295272D01*
X138123971Y-110291696D01*
X138117180Y-110290318D01*
X138115613Y-110290017D01*
X138109201Y-110290061D01*
X138098526Y-110289673D01*
X138090918Y-110289067D01*
X138082643Y-110288408D01*
X138082642Y-110288408D01*
X138079176Y-110288132D01*
X138060569Y-110290388D01*
X133768913Y-110319314D01*
X133701742Y-110300082D01*
X133655632Y-110247588D01*
X133645223Y-110178498D01*
X133673819Y-110114748D01*
X133720621Y-110080758D01*
X133880336Y-110014602D01*
X134029135Y-109915178D01*
X134155678Y-109788635D01*
X134255102Y-109639836D01*
X134323587Y-109474500D01*
X134358500Y-109298979D01*
X134358500Y-109120021D01*
X134323587Y-108944500D01*
X134255102Y-108779164D01*
X134255100Y-108779161D01*
X134255098Y-108779157D01*
X134155678Y-108630365D01*
X134155675Y-108630361D01*
X134029138Y-108503824D01*
X134029134Y-108503821D01*
X133880342Y-108404401D01*
X133880332Y-108404396D01*
X133715000Y-108335913D01*
X133714992Y-108335911D01*
X133539483Y-108301000D01*
X133539479Y-108301000D01*
X133360521Y-108301000D01*
X133360516Y-108301000D01*
X133185007Y-108335911D01*
X133184999Y-108335913D01*
X133019667Y-108404396D01*
X133019657Y-108404401D01*
X132870865Y-108503821D01*
X132870861Y-108503824D01*
X132744324Y-108630361D01*
X132744321Y-108630365D01*
X132644901Y-108779157D01*
X132644896Y-108779167D01*
X132576413Y-108944499D01*
X132576411Y-108944507D01*
X132541500Y-109120016D01*
X132541500Y-109298983D01*
X132576411Y-109474492D01*
X132576413Y-109474500D01*
X132644896Y-109639832D01*
X132644901Y-109639842D01*
X132744321Y-109788634D01*
X132744324Y-109788638D01*
X132870861Y-109915175D01*
X132870865Y-109915178D01*
X133019657Y-110014598D01*
X133019661Y-110014600D01*
X133019664Y-110014602D01*
X133055479Y-110029437D01*
X133189560Y-110084976D01*
X133198009Y-110091784D01*
X133208442Y-110094772D01*
X133224737Y-110113324D01*
X133243963Y-110128817D01*
X133247389Y-110139113D01*
X133254552Y-110147267D01*
X133258230Y-110171683D01*
X133266028Y-110195111D01*
X133263344Y-110205625D01*
X133264961Y-110216357D01*
X133254855Y-110238885D01*
X133248749Y-110262811D01*
X133240806Y-110270205D01*
X133236365Y-110280107D01*
X133215682Y-110293596D01*
X133197611Y-110310421D01*
X133185391Y-110313351D01*
X133177842Y-110318276D01*
X133142942Y-110323534D01*
X133000556Y-110324493D01*
X132999284Y-110324495D01*
X128375663Y-110308194D01*
X128308693Y-110288273D01*
X128263125Y-110235308D01*
X128252100Y-110184195D01*
X128252100Y-109768784D01*
X128252169Y-109768078D01*
X128252100Y-109741509D01*
X128252100Y-109741500D01*
X128252100Y-109726599D01*
X128252060Y-109726503D01*
X128240001Y-105135160D01*
X130165137Y-105135160D01*
X130165137Y-105314127D01*
X130200048Y-105489636D01*
X130200050Y-105489644D01*
X130268533Y-105654976D01*
X130268538Y-105654986D01*
X130367958Y-105803778D01*
X130367961Y-105803782D01*
X130494498Y-105930319D01*
X130494502Y-105930322D01*
X130643294Y-106029742D01*
X130643298Y-106029744D01*
X130643301Y-106029746D01*
X130808637Y-106098231D01*
X130984153Y-106133143D01*
X130984157Y-106133144D01*
X130984158Y-106133144D01*
X131163117Y-106133144D01*
X131163118Y-106133143D01*
X131338637Y-106098231D01*
X131503973Y-106029746D01*
X131652772Y-105930322D01*
X131779315Y-105803779D01*
X131878739Y-105654980D01*
X131947224Y-105489644D01*
X131982137Y-105314123D01*
X131982137Y-105135165D01*
X131947224Y-104959644D01*
X131878739Y-104794308D01*
X131878737Y-104794305D01*
X131878735Y-104794301D01*
X131779315Y-104645509D01*
X131775450Y-104640799D01*
X131776614Y-104639843D01*
X131746694Y-104585049D01*
X131751678Y-104515357D01*
X131753278Y-104511288D01*
X131785312Y-104433954D01*
X131813500Y-104292243D01*
X131813500Y-104147757D01*
X131801157Y-104085706D01*
X131807383Y-104016119D01*
X131835094Y-103973835D01*
X131943211Y-103865719D01*
X131943211Y-103865718D01*
X131943214Y-103865716D01*
X131946364Y-103860259D01*
X131953144Y-103848519D01*
X132008626Y-103752419D01*
X132018519Y-103735284D01*
X132057500Y-103589805D01*
X132057500Y-98334695D01*
X132018519Y-98189216D01*
X131943214Y-98058784D01*
X131836716Y-97952286D01*
X131608319Y-97723889D01*
X131574834Y-97662566D01*
X131572000Y-97636208D01*
X131572000Y-96677100D01*
X131591685Y-96610061D01*
X131608319Y-96589419D01*
X132616319Y-95581419D01*
X132677642Y-95547934D01*
X132747334Y-95552918D01*
X132803267Y-95594790D01*
X132827684Y-95660254D01*
X132828000Y-95669100D01*
X132828000Y-103783311D01*
X132808315Y-103850350D01*
X132791681Y-103870992D01*
X132760257Y-103902415D01*
X132760251Y-103902422D01*
X132679981Y-104022555D01*
X132679981Y-104022556D01*
X132624688Y-104156045D01*
X132624686Y-104156053D01*
X132596500Y-104297752D01*
X132596500Y-104442247D01*
X132624686Y-104583946D01*
X132624688Y-104583954D01*
X132679981Y-104717443D01*
X132679981Y-104717444D01*
X132760251Y-104837577D01*
X132760257Y-104837584D01*
X132862415Y-104939742D01*
X132862422Y-104939748D01*
X132982556Y-105020018D01*
X132982557Y-105020018D01*
X132982558Y-105020019D01*
X133116046Y-105075312D01*
X133257752Y-105103499D01*
X133257756Y-105103500D01*
X133257757Y-105103500D01*
X133402244Y-105103500D01*
X133402245Y-105103499D01*
X133543954Y-105075312D01*
X133677442Y-105020019D01*
X133677443Y-105020018D01*
X133677444Y-105020018D01*
X133767790Y-104959651D01*
X133797579Y-104939747D01*
X133899747Y-104837579D01*
X133980019Y-104717442D01*
X134035312Y-104583954D01*
X134063500Y-104442243D01*
X134063500Y-104297757D01*
X134035312Y-104156046D01*
X133981439Y-104025986D01*
X133972000Y-103978533D01*
X133972000Y-96907844D01*
X135715000Y-96907844D01*
X135721401Y-96967372D01*
X135721403Y-96967379D01*
X135771645Y-97102086D01*
X135771649Y-97102093D01*
X135857809Y-97217187D01*
X135857812Y-97217190D01*
X135972906Y-97303350D01*
X135972913Y-97303354D01*
X136107620Y-97353596D01*
X136107627Y-97353598D01*
X136167155Y-97359999D01*
X136167172Y-97360000D01*
X136690000Y-97360000D01*
X136690000Y-96110000D01*
X135715000Y-96110000D01*
X135715000Y-96907844D01*
X133972000Y-96907844D01*
X133972000Y-94863291D01*
X133980644Y-94833850D01*
X133987168Y-94803864D01*
X133990922Y-94798848D01*
X133991685Y-94796252D01*
X134008315Y-94775614D01*
X134055520Y-94728409D01*
X134116842Y-94694925D01*
X134186534Y-94699909D01*
X134242467Y-94741781D01*
X134246297Y-94747193D01*
X134248724Y-94750825D01*
X134274323Y-94789137D01*
X134400861Y-94915675D01*
X134400865Y-94915678D01*
X134549657Y-95015098D01*
X134549661Y-95015100D01*
X134549664Y-95015102D01*
X134715000Y-95083587D01*
X134828383Y-95106140D01*
X134890516Y-95118499D01*
X134890520Y-95118500D01*
X134890521Y-95118500D01*
X135069480Y-95118500D01*
X135069481Y-95118499D01*
X135245000Y-95083587D01*
X135410336Y-95015102D01*
X135522109Y-94940418D01*
X135588786Y-94919540D01*
X135656167Y-94938024D01*
X135702857Y-94990003D01*
X135715000Y-95043520D01*
X135715000Y-95610000D01*
X136690000Y-95610000D01*
X136690000Y-94360000D01*
X136167155Y-94360000D01*
X136107627Y-94366401D01*
X136107616Y-94366404D01*
X136055832Y-94385718D01*
X136027514Y-94387743D01*
X135999590Y-94392862D01*
X135993119Y-94390202D01*
X135986140Y-94390702D01*
X135961221Y-94377094D01*
X135934965Y-94366305D01*
X135930958Y-94360569D01*
X135924818Y-94357216D01*
X135911211Y-94332297D01*
X135894956Y-94309025D01*
X135893439Y-94299751D01*
X135891333Y-94295893D01*
X135888592Y-94274309D01*
X135888500Y-94271920D01*
X135888500Y-94120521D01*
X135881267Y-94084160D01*
X135880890Y-94074362D01*
X135887133Y-94049610D01*
X135889408Y-94024190D01*
X135895535Y-94016302D01*
X135897979Y-94006614D01*
X135916613Y-93989167D01*
X135932270Y-93969012D01*
X135946788Y-93960915D01*
X135948983Y-93958861D01*
X135951202Y-93958454D01*
X135957344Y-93955029D01*
X135983442Y-93944219D01*
X135983443Y-93944218D01*
X135983444Y-93944218D01*
X136059809Y-93893193D01*
X136103579Y-93863947D01*
X136205747Y-93761779D01*
X136267154Y-93669876D01*
X136286018Y-93641644D01*
X136286018Y-93641643D01*
X136286019Y-93641642D01*
X136341312Y-93508154D01*
X136369500Y-93366443D01*
X136369500Y-93221957D01*
X136341312Y-93080246D01*
X136286019Y-92946758D01*
X136286018Y-92946756D01*
X136286018Y-92946755D01*
X136205748Y-92826622D01*
X136205742Y-92826615D01*
X136103584Y-92724457D01*
X136103577Y-92724451D01*
X135983443Y-92644181D01*
X135849954Y-92588888D01*
X135849946Y-92588886D01*
X135708247Y-92560700D01*
X135708243Y-92560700D01*
X135563757Y-92560700D01*
X135563752Y-92560700D01*
X135422053Y-92588886D01*
X135422045Y-92588888D01*
X135306954Y-92636561D01*
X135259501Y-92646000D01*
X134095503Y-92646000D01*
X133950024Y-92684981D01*
X133950022Y-92684982D01*
X133950021Y-92684982D01*
X133833864Y-92752046D01*
X133819595Y-92760284D01*
X133819589Y-92760288D01*
X130542288Y-96037589D01*
X130542284Y-96037595D01*
X130466982Y-96168020D01*
X130466981Y-96168024D01*
X130428000Y-96313503D01*
X130428000Y-97999805D01*
X130466981Y-98145284D01*
X130527280Y-98249724D01*
X130531816Y-98257580D01*
X130542286Y-98275716D01*
X130877181Y-98610611D01*
X130910666Y-98671934D01*
X130913500Y-98698292D01*
X130913500Y-103226208D01*
X130893815Y-103293247D01*
X130877181Y-103313889D01*
X130622288Y-103568781D01*
X130622284Y-103568787D01*
X130546980Y-103699217D01*
X130544764Y-103704566D01*
X130517896Y-103744777D01*
X130510255Y-103752419D01*
X130510248Y-103752426D01*
X130429981Y-103872555D01*
X130429981Y-103872556D01*
X130374688Y-104006045D01*
X130374686Y-104006053D01*
X130346500Y-104147752D01*
X130346500Y-104292247D01*
X130374686Y-104433946D01*
X130374688Y-104433954D01*
X130402973Y-104502240D01*
X130410442Y-104571710D01*
X130379167Y-104634189D01*
X130376097Y-104637371D01*
X130367956Y-104645512D01*
X130268538Y-104794301D01*
X130268533Y-104794311D01*
X130200050Y-104959643D01*
X130200048Y-104959651D01*
X130165137Y-105135160D01*
X128240001Y-105135160D01*
X128201324Y-90409355D01*
X128202226Y-90394100D01*
X128203138Y-90386579D01*
X128220401Y-90244259D01*
X128225434Y-90221292D01*
X128270395Y-90081318D01*
X128279681Y-90059707D01*
X128350274Y-89930761D01*
X128363483Y-89911285D01*
X128457172Y-89797996D01*
X128473813Y-89781376D01*
X128587227Y-89687825D01*
X128606708Y-89674650D01*
X128735747Y-89604219D01*
X128757377Y-89594958D01*
X128897399Y-89550177D01*
X128920378Y-89545171D01*
X129071081Y-89527086D01*
X129085190Y-89526207D01*
X133905306Y-89501589D01*
X133905999Y-89501857D01*
X133920317Y-89501512D01*
X133934602Y-89501440D01*
X133934603Y-89501439D01*
X133942441Y-89501400D01*
X133947143Y-89500868D01*
X134569804Y-89485906D01*
X134570092Y-89485900D01*
X134584218Y-89485900D01*
X134585077Y-89485543D01*
X134586018Y-89485521D01*
X134586026Y-89485517D01*
X134586028Y-89485517D01*
X134598930Y-89479805D01*
X134611967Y-89474406D01*
X134612625Y-89473746D01*
X134613486Y-89473366D01*
X134613490Y-89473360D01*
X134613493Y-89473360D01*
X134623234Y-89463138D01*
X134633206Y-89453167D01*
X134633560Y-89452309D01*
X134634211Y-89451627D01*
X134635614Y-89447994D01*
X134638760Y-89439848D01*
X134639864Y-89437091D01*
X134640601Y-89435311D01*
X134644700Y-89425418D01*
X134644700Y-89425410D01*
X134645041Y-89423697D01*
X134644736Y-89410982D01*
X134644700Y-89408002D01*
X134644700Y-89243384D01*
X134664385Y-89176345D01*
X134717189Y-89130590D01*
X134745907Y-89121497D01*
X134864786Y-89099276D01*
X135050646Y-89027273D01*
X135220110Y-88922345D01*
X135353156Y-88801057D01*
X135367407Y-88788066D01*
X135391623Y-88756000D01*
X135487526Y-88629004D01*
X135576371Y-88450580D01*
X135630917Y-88258869D01*
X135649308Y-88060400D01*
X135630917Y-87861931D01*
X135576371Y-87670220D01*
X135560066Y-87637475D01*
X135487529Y-87491801D01*
X135487524Y-87491793D01*
X135367407Y-87332733D01*
X135220111Y-87198456D01*
X135220110Y-87198455D01*
X135119081Y-87135900D01*
X135050647Y-87093527D01*
X135050645Y-87093526D01*
X134943218Y-87051909D01*
X134864786Y-87021524D01*
X134745914Y-86999303D01*
X134683634Y-86967636D01*
X134648361Y-86907324D01*
X134644700Y-86877415D01*
X134644700Y-78510516D01*
X146691500Y-78510516D01*
X146691500Y-78689483D01*
X146726411Y-78864992D01*
X146726413Y-78865000D01*
X146794896Y-79030332D01*
X146794901Y-79030342D01*
X146894321Y-79179134D01*
X146894324Y-79179138D01*
X147020861Y-79305675D01*
X147020865Y-79305678D01*
X147169657Y-79405098D01*
X147169661Y-79405100D01*
X147169664Y-79405102D01*
X147335000Y-79473587D01*
X147510516Y-79508499D01*
X147510520Y-79508500D01*
X147510521Y-79508500D01*
X147689480Y-79508500D01*
X147689481Y-79508499D01*
X147865000Y-79473587D01*
X148030336Y-79405102D01*
X148179135Y-79305678D01*
X148305678Y-79179135D01*
X148405102Y-79030336D01*
X148473587Y-78865000D01*
X148508500Y-78689479D01*
X148508500Y-78510521D01*
X148473587Y-78335000D01*
X148405102Y-78169664D01*
X148405100Y-78169661D01*
X148405098Y-78169657D01*
X148305678Y-78020865D01*
X148305675Y-78020861D01*
X148179138Y-77894324D01*
X148179134Y-77894321D01*
X148030342Y-77794901D01*
X148030332Y-77794896D01*
X147865000Y-77726413D01*
X147864992Y-77726411D01*
X147689483Y-77691500D01*
X147689479Y-77691500D01*
X147510521Y-77691500D01*
X147510516Y-77691500D01*
X147335007Y-77726411D01*
X147334999Y-77726413D01*
X147169667Y-77794896D01*
X147169657Y-77794901D01*
X147020865Y-77894321D01*
X147020861Y-77894324D01*
X146894324Y-78020861D01*
X146894321Y-78020865D01*
X146794901Y-78169657D01*
X146794896Y-78169667D01*
X146726413Y-78334999D01*
X146726411Y-78335007D01*
X146691500Y-78510516D01*
X134644700Y-78510516D01*
X134644700Y-77059900D01*
X134664385Y-76992861D01*
X134717189Y-76947106D01*
X134768700Y-76935900D01*
X150470778Y-76935900D01*
X150537817Y-76955585D01*
G37*
%TD.AperFunction*%
%TA.AperFunction,Conductor*%
G36*
X149525104Y-107687434D02*
G01*
X149816681Y-107979011D01*
X149850166Y-108040334D01*
X149853000Y-108066692D01*
X149853000Y-109070914D01*
X149859161Y-109093905D01*
X149857499Y-109163755D01*
X149818338Y-109221618D01*
X149754110Y-109249123D01*
X149739387Y-109250000D01*
X149607000Y-109250000D01*
X149539961Y-109230315D01*
X149494206Y-109177511D01*
X149483000Y-109126000D01*
X149483000Y-108274999D01*
X149383860Y-108275000D01*
X149383844Y-108275001D01*
X149282846Y-108285319D01*
X149155282Y-108327589D01*
X149131908Y-108328392D01*
X149109121Y-108333676D01*
X149097639Y-108329571D01*
X149085454Y-108329990D01*
X149065355Y-108318028D01*
X149043329Y-108310154D01*
X149031584Y-108297931D01*
X149025412Y-108294258D01*
X149018035Y-108285540D01*
X149015481Y-108282223D01*
X148948309Y-108181694D01*
X148903747Y-108137132D01*
X148898854Y-108130778D01*
X148888987Y-108105388D01*
X148875932Y-108081480D01*
X148876517Y-108073298D01*
X148873546Y-108065653D01*
X148878973Y-108038956D01*
X148880916Y-108011789D01*
X148885830Y-108005223D01*
X148887465Y-107997184D01*
X148906464Y-107977659D01*
X148922786Y-107955855D01*
X148931434Y-107951998D01*
X148936192Y-107947109D01*
X148949119Y-107944111D01*
X148972906Y-107933503D01*
X148988954Y-107930312D01*
X149122442Y-107875019D01*
X149122443Y-107875018D01*
X149122444Y-107875018D01*
X149182510Y-107834883D01*
X149242579Y-107794747D01*
X149242584Y-107794742D01*
X149349055Y-107688272D01*
X149350895Y-107690112D01*
X149399254Y-107657136D01*
X149469098Y-107655229D01*
X149525104Y-107687434D01*
G37*
%TD.AperFunction*%
%TA.AperFunction,Conductor*%
G36*
X144419706Y-108008192D02*
G01*
X144425863Y-108007523D01*
X144451940Y-108020535D01*
X144479170Y-108030962D01*
X144482839Y-108035953D01*
X144488381Y-108038719D01*
X144503284Y-108063764D01*
X144520554Y-108087257D01*
X144521935Y-108095109D01*
X144524109Y-108098762D01*
X144523858Y-108106039D01*
X144528000Y-108129580D01*
X144528000Y-109121400D01*
X144525449Y-109130085D01*
X144526738Y-109139047D01*
X144515759Y-109163087D01*
X144508315Y-109188439D01*
X144501474Y-109194366D01*
X144497713Y-109202603D01*
X144475478Y-109216892D01*
X144455511Y-109234194D01*
X144444996Y-109236481D01*
X144438935Y-109240377D01*
X144404000Y-109245400D01*
X144171400Y-109245400D01*
X144104361Y-109225715D01*
X144058606Y-109172911D01*
X144047400Y-109121400D01*
X144047400Y-108441955D01*
X144067085Y-108374916D01*
X144068263Y-108373116D01*
X144137153Y-108270015D01*
X144192446Y-108136527D01*
X144192448Y-108136513D01*
X144193946Y-108131580D01*
X144194847Y-108130204D01*
X144194904Y-108128560D01*
X144213935Y-108101076D01*
X144232242Y-108073140D01*
X144234044Y-108072036D01*
X144234680Y-108071118D01*
X144263612Y-108053926D01*
X144265011Y-108053070D01*
X144265260Y-108052966D01*
X144349799Y-108017949D01*
X144350293Y-108017618D01*
X144356403Y-108015079D01*
X144385377Y-108011927D01*
X144413920Y-108005977D01*
X144419706Y-108008192D01*
G37*
%TD.AperFunction*%
%TA.AperFunction,Conductor*%
G36*
X159344934Y-95101341D02*
G01*
X159400867Y-95143213D01*
X159425284Y-95208677D01*
X159425600Y-95217523D01*
X159425600Y-108253556D01*
X159405915Y-108320595D01*
X159353111Y-108366350D01*
X159283953Y-108376294D01*
X159220397Y-108347269D01*
X159213919Y-108341237D01*
X159123653Y-108250971D01*
X159123652Y-108250970D01*
X159001583Y-108175677D01*
X158972740Y-108157886D01*
X158972735Y-108157884D01*
X158804427Y-108102113D01*
X158700552Y-108091500D01*
X158700545Y-108091500D01*
X158221000Y-108091500D01*
X158153961Y-108071815D01*
X158108206Y-108019011D01*
X158097000Y-107967500D01*
X158097000Y-106291217D01*
X158097000Y-106291193D01*
X158097012Y-106235458D01*
X158116711Y-106168425D01*
X158133327Y-106147810D01*
X158207714Y-106073424D01*
X158221130Y-106050186D01*
X158283019Y-105942992D01*
X158322000Y-105797513D01*
X158322000Y-102091396D01*
X158321175Y-102088318D01*
X158283019Y-101945917D01*
X158207714Y-101815484D01*
X157686465Y-101294236D01*
X157652981Y-101232914D01*
X157657965Y-101163223D01*
X157699836Y-101107289D01*
X157749956Y-101084939D01*
X157871754Y-101060712D01*
X158005242Y-101005419D01*
X158005243Y-101005418D01*
X158005244Y-101005418D01*
X158071652Y-100961046D01*
X158125379Y-100925147D01*
X158227547Y-100822979D01*
X158307819Y-100702842D01*
X158363112Y-100569354D01*
X158391300Y-100427643D01*
X158391300Y-100283157D01*
X158363112Y-100141446D01*
X158307819Y-100007958D01*
X158286948Y-99976722D01*
X158266071Y-99910047D01*
X158284555Y-99842666D01*
X158336534Y-99795976D01*
X158351039Y-99790130D01*
X158454920Y-99755709D01*
X158603346Y-99664158D01*
X158726658Y-99540846D01*
X158818209Y-99392420D01*
X158873062Y-99226881D01*
X158883500Y-99124713D01*
X158883499Y-98525288D01*
X158873062Y-98423119D01*
X158818209Y-98257580D01*
X158818205Y-98257574D01*
X158818204Y-98257571D01*
X158726660Y-98109157D01*
X158726657Y-98109153D01*
X158617685Y-98000181D01*
X158584200Y-97938858D01*
X158589184Y-97869166D01*
X158617685Y-97824819D01*
X158670261Y-97772243D01*
X158726658Y-97715846D01*
X158818209Y-97567420D01*
X158873062Y-97401881D01*
X158883500Y-97299713D01*
X158883499Y-96700288D01*
X158873062Y-96598119D01*
X158818209Y-96432580D01*
X158818205Y-96432574D01*
X158818204Y-96432571D01*
X158726660Y-96284157D01*
X158726657Y-96284153D01*
X158603346Y-96160842D01*
X158603342Y-96160839D01*
X158454928Y-96069295D01*
X158454922Y-96069292D01*
X158454920Y-96069291D01*
X158454917Y-96069290D01*
X158289382Y-96014438D01*
X158187220Y-96004000D01*
X158187213Y-96004000D01*
X157814292Y-96004000D01*
X157784851Y-95995355D01*
X157754865Y-95988832D01*
X157749849Y-95985077D01*
X157747253Y-95984315D01*
X157726611Y-95967681D01*
X157604326Y-95845396D01*
X157570841Y-95784073D01*
X157572930Y-95723122D01*
X157593062Y-95653831D01*
X157596000Y-95616502D01*
X157596000Y-95382500D01*
X157615685Y-95315461D01*
X157668489Y-95269706D01*
X157720000Y-95258500D01*
X158878996Y-95258500D01*
X158879002Y-95258500D01*
X158916331Y-95255562D01*
X158916333Y-95255561D01*
X158916335Y-95255561D01*
X159017978Y-95226031D01*
X159076101Y-95209145D01*
X159219307Y-95124453D01*
X159219311Y-95124448D01*
X159225473Y-95119670D01*
X159227577Y-95122383D01*
X159275242Y-95096357D01*
X159344934Y-95101341D01*
G37*
%TD.AperFunction*%
%TA.AperFunction,Conductor*%
G36*
X153460492Y-103972649D02*
G01*
X153471647Y-103971046D01*
X153493740Y-103981135D01*
X153517273Y-103987142D01*
X153524951Y-103995389D01*
X153535203Y-104000071D01*
X153548333Y-104020503D01*
X153564884Y-104038279D01*
X153567865Y-104050894D01*
X153572977Y-104058849D01*
X153578000Y-104093784D01*
X153578000Y-104328594D01*
X153558315Y-104395633D01*
X153522891Y-104431696D01*
X153405618Y-104510054D01*
X153303457Y-104612215D01*
X153303451Y-104612222D01*
X153223181Y-104732355D01*
X153223181Y-104732356D01*
X153167888Y-104865845D01*
X153167886Y-104865853D01*
X153139700Y-105007552D01*
X153139700Y-105152046D01*
X153165114Y-105279809D01*
X153158887Y-105349400D01*
X153116024Y-105404578D01*
X153050134Y-105427822D01*
X153043497Y-105428000D01*
X152027283Y-105428000D01*
X151960244Y-105408315D01*
X151914489Y-105355511D01*
X151904545Y-105286353D01*
X151907419Y-105275073D01*
X151906813Y-105274930D01*
X151908598Y-105267372D01*
X151914999Y-105207844D01*
X151915000Y-105207827D01*
X151915000Y-104382089D01*
X151934685Y-104315050D01*
X151987489Y-104269295D01*
X152056647Y-104259351D01*
X152120203Y-104288376D01*
X152126681Y-104294408D01*
X152186415Y-104354142D01*
X152186422Y-104354148D01*
X152306556Y-104434418D01*
X152306557Y-104434418D01*
X152306558Y-104434419D01*
X152440046Y-104489712D01*
X152581752Y-104517899D01*
X152581756Y-104517900D01*
X152581757Y-104517900D01*
X152726244Y-104517900D01*
X152726245Y-104517899D01*
X152867954Y-104489712D01*
X153001442Y-104434419D01*
X153001443Y-104434418D01*
X153001444Y-104434418D01*
X153061510Y-104394283D01*
X153121579Y-104354147D01*
X153223747Y-104251979D01*
X153293385Y-104147757D01*
X153304018Y-104131844D01*
X153304018Y-104131843D01*
X153304019Y-104131842D01*
X153339439Y-104046330D01*
X153346510Y-104037555D01*
X153349685Y-104026745D01*
X153368038Y-104010841D01*
X153383280Y-103991928D01*
X153393973Y-103988368D01*
X153402489Y-103980990D01*
X153426528Y-103977533D01*
X153449574Y-103969863D01*
X153460492Y-103972649D01*
G37*
%TD.AperFunction*%
%TA.AperFunction,Conductor*%
G36*
X143169668Y-102012495D02*
G01*
X143212859Y-102067416D01*
X143219501Y-102136969D01*
X143219359Y-102137694D01*
X143191500Y-102277752D01*
X143191500Y-102422247D01*
X143219686Y-102563946D01*
X143219689Y-102563958D01*
X143268271Y-102681246D01*
X143275740Y-102750715D01*
X143244465Y-102813194D01*
X143241391Y-102816379D01*
X142874507Y-103183263D01*
X142813184Y-103216748D01*
X142743492Y-103211764D01*
X142687559Y-103169892D01*
X142683743Y-103164500D01*
X142649747Y-103113621D01*
X142649744Y-103113618D01*
X142649742Y-103113615D01*
X142547584Y-103011457D01*
X142547577Y-103011451D01*
X142427443Y-102931181D01*
X142293954Y-102875888D01*
X142293946Y-102875886D01*
X142152247Y-102847700D01*
X142152243Y-102847700D01*
X142007757Y-102847700D01*
X142007756Y-102847700D01*
X142005417Y-102848165D01*
X142004168Y-102848053D01*
X142001693Y-102848297D01*
X142001646Y-102847827D01*
X141935826Y-102841931D01*
X141880653Y-102799063D01*
X141857414Y-102733171D01*
X141873488Y-102665175D01*
X141893552Y-102638869D01*
X142394103Y-102138319D01*
X142455426Y-102104834D01*
X142481784Y-102102000D01*
X142791702Y-102102000D01*
X142791705Y-102102000D01*
X142937184Y-102063019D01*
X143035744Y-102006115D01*
X143103641Y-101989643D01*
X143169668Y-102012495D01*
G37*
%TD.AperFunction*%
%TA.AperFunction,Conductor*%
G36*
X155036158Y-98300877D02*
G01*
X155064915Y-98299888D01*
X155072807Y-98303414D01*
X155077157Y-98303715D01*
X155082661Y-98307815D01*
X155102980Y-98316893D01*
X155152558Y-98350019D01*
X155196616Y-98368268D01*
X155197650Y-98368719D01*
X155200686Y-98371260D01*
X155235775Y-98394705D01*
X156910603Y-100069534D01*
X156944088Y-100130857D01*
X156944539Y-100181408D01*
X156927279Y-100268175D01*
X156894893Y-100330085D01*
X156834177Y-100364659D01*
X156764408Y-100360918D01*
X156743663Y-100351370D01*
X156716823Y-100335874D01*
X156703521Y-100328194D01*
X156651302Y-100298045D01*
X156613076Y-100275975D01*
X156613073Y-100275974D01*
X156540703Y-100256582D01*
X156485117Y-100224489D01*
X154800417Y-98539789D01*
X154796147Y-98531969D01*
X154789003Y-98526647D01*
X154779663Y-98501781D01*
X154766932Y-98478466D01*
X154767567Y-98469578D01*
X154764435Y-98461239D01*
X154770021Y-98435271D01*
X154771916Y-98408774D01*
X154777255Y-98401641D01*
X154779129Y-98392932D01*
X154797870Y-98374104D01*
X154813788Y-98352841D01*
X154823433Y-98348422D01*
X154828420Y-98343413D01*
X154847007Y-98337623D01*
X154861460Y-98331003D01*
X155007454Y-98298891D01*
X155036158Y-98300877D01*
G37*
%TD.AperFunction*%
%TA.AperFunction,Conductor*%
G36*
X154536822Y-95893944D02*
G01*
X154567721Y-95901246D01*
X154570106Y-95903717D01*
X154573400Y-95904685D01*
X154594185Y-95928673D01*
X154616236Y-95951525D01*
X154617780Y-95955902D01*
X154619155Y-95957489D01*
X154627978Y-95984808D01*
X154650343Y-96097245D01*
X154650345Y-96097251D01*
X154698098Y-96212538D01*
X154698099Y-96212540D01*
X154698100Y-96212541D01*
X154735102Y-96267919D01*
X154755980Y-96334594D01*
X154756000Y-96336808D01*
X154756000Y-96915438D01*
X154736315Y-96982477D01*
X154732800Y-96986838D01*
X154732800Y-97234200D01*
X154713115Y-97301239D01*
X154660311Y-97346994D01*
X154608800Y-97358200D01*
X154356800Y-97358200D01*
X154289761Y-97338515D01*
X154244006Y-97285711D01*
X154232800Y-97234200D01*
X154232800Y-96327762D01*
X154252485Y-96260723D01*
X154256000Y-96256361D01*
X154256000Y-96009000D01*
X154275685Y-95941961D01*
X154328489Y-95896206D01*
X154380000Y-95885000D01*
X154506361Y-95885000D01*
X154536822Y-95893944D01*
G37*
%TD.AperFunction*%
%TA.AperFunction,Conductor*%
G36*
X144890747Y-95703685D02*
G01*
X144911389Y-95720319D01*
X146180889Y-96989819D01*
X146214374Y-97051142D01*
X146209390Y-97120834D01*
X146167518Y-97176767D01*
X146102054Y-97201184D01*
X146093208Y-97201500D01*
X145466345Y-97201500D01*
X145405802Y-97208010D01*
X145398245Y-97209796D01*
X145397778Y-97207822D01*
X145338626Y-97212046D01*
X145327708Y-97208839D01*
X145324197Y-97208010D01*
X145263654Y-97201500D01*
X145263638Y-97201500D01*
X144366362Y-97201500D01*
X144366345Y-97201500D01*
X144305802Y-97208010D01*
X144298245Y-97209796D01*
X144297919Y-97208417D01*
X144252724Y-97214274D01*
X144236725Y-97212682D01*
X144224201Y-97208011D01*
X144163638Y-97201500D01*
X144124323Y-97201500D01*
X144118201Y-97200891D01*
X144091289Y-97189993D01*
X144063438Y-97181815D01*
X144055704Y-97175582D01*
X144053440Y-97174666D01*
X144051952Y-97172559D01*
X144042796Y-97165181D01*
X143700732Y-96823117D01*
X143667247Y-96761794D01*
X143672231Y-96692102D01*
X143714103Y-96636169D01*
X143740954Y-96620878D01*
X143766570Y-96610268D01*
X143915369Y-96510844D01*
X144041912Y-96384301D01*
X144141336Y-96235502D01*
X144209821Y-96070166D01*
X144244734Y-95894645D01*
X144244734Y-95808000D01*
X144264419Y-95740961D01*
X144317223Y-95695206D01*
X144368734Y-95684000D01*
X144487305Y-95684000D01*
X144823708Y-95684000D01*
X144890747Y-95703685D01*
G37*
%TD.AperFunction*%
%TA.AperFunction,Conductor*%
G36*
X150280420Y-93273666D02*
G01*
X150324767Y-93302167D01*
X150326889Y-93304289D01*
X150312824Y-93318355D01*
X150297600Y-93355109D01*
X150297600Y-93394891D01*
X150312824Y-93431645D01*
X150340955Y-93459776D01*
X150377709Y-93475000D01*
X150417491Y-93475000D01*
X150454245Y-93459776D01*
X150482376Y-93431645D01*
X150497600Y-93394891D01*
X150497600Y-93355109D01*
X150482376Y-93318355D01*
X150468310Y-93304289D01*
X150470432Y-93302168D01*
X150531755Y-93268683D01*
X150601447Y-93273667D01*
X150645794Y-93302168D01*
X151048047Y-93704421D01*
X151059541Y-93702135D01*
X151081676Y-93674666D01*
X151147970Y-93652599D01*
X151215669Y-93669876D01*
X151233602Y-93682807D01*
X151404324Y-93830738D01*
X151603686Y-93958861D01*
X151623996Y-93971913D01*
X151850826Y-94075502D01*
X151862331Y-94085471D01*
X151876436Y-94091197D01*
X151888199Y-94107886D01*
X151903630Y-94121257D01*
X151907918Y-94135863D01*
X151916689Y-94148306D01*
X151917562Y-94168704D01*
X151923315Y-94188297D01*
X151919072Y-94203980D01*
X151919677Y-94218112D01*
X151908251Y-94243979D01*
X151906402Y-94250814D01*
X151833307Y-94376020D01*
X151813786Y-94394453D01*
X151796938Y-94415361D01*
X151788767Y-94418080D01*
X151782508Y-94423991D01*
X151756121Y-94428944D01*
X151730643Y-94437424D01*
X151722300Y-94435294D01*
X151713838Y-94436883D01*
X151688958Y-94426783D01*
X151664997Y-94420667D01*
X151664872Y-94420897D01*
X151663971Y-94420405D01*
X151662944Y-94420143D01*
X151660499Y-94418509D01*
X151657086Y-94416645D01*
X151522379Y-94366403D01*
X151522372Y-94366401D01*
X151462844Y-94360000D01*
X150940000Y-94360000D01*
X150940000Y-95736000D01*
X150920315Y-95803039D01*
X150867511Y-95848794D01*
X150816000Y-95860000D01*
X150564000Y-95860000D01*
X150496961Y-95840315D01*
X150451206Y-95787511D01*
X150440000Y-95736000D01*
X150440000Y-94360000D01*
X149918176Y-94360000D01*
X149870723Y-94350561D01*
X149739998Y-94296413D01*
X149739990Y-94296411D01*
X149564481Y-94261500D01*
X149564477Y-94261500D01*
X149385519Y-94261500D01*
X149385514Y-94261500D01*
X149210005Y-94296411D01*
X149209997Y-94296413D01*
X149044665Y-94364896D01*
X149044655Y-94364901D01*
X148895863Y-94464321D01*
X148895859Y-94464324D01*
X148769322Y-94590861D01*
X148769319Y-94590865D01*
X148669899Y-94739657D01*
X148669894Y-94739667D01*
X148601411Y-94904999D01*
X148601409Y-94905007D01*
X148566498Y-95080516D01*
X148566498Y-95259483D01*
X148601409Y-95434992D01*
X148601411Y-95435000D01*
X148669894Y-95600332D01*
X148669899Y-95600342D01*
X148745602Y-95713638D01*
X148751252Y-95731684D01*
X148761477Y-95747594D01*
X148765928Y-95778553D01*
X148766480Y-95780315D01*
X148766500Y-95782529D01*
X148766500Y-95932029D01*
X148746815Y-95999068D01*
X148694011Y-96044823D01*
X148666691Y-96053646D01*
X148586053Y-96069686D01*
X148586045Y-96069688D01*
X148452556Y-96124981D01*
X148452555Y-96124981D01*
X148332422Y-96205251D01*
X148332415Y-96205257D01*
X148230257Y-96307415D01*
X148230253Y-96307420D01*
X148218503Y-96325005D01*
X148164889Y-96369808D01*
X148095564Y-96378514D01*
X148032537Y-96348357D01*
X148027722Y-96343792D01*
X147408319Y-95724389D01*
X147374834Y-95663066D01*
X147372000Y-95636708D01*
X147372000Y-94113292D01*
X147380644Y-94083851D01*
X147387168Y-94053865D01*
X147390922Y-94048849D01*
X147391685Y-94046253D01*
X147408319Y-94025611D01*
X147408483Y-94025447D01*
X150068177Y-94025447D01*
X150185541Y-94074061D01*
X150185549Y-94074063D01*
X150325992Y-94101999D01*
X150325996Y-94102000D01*
X150469204Y-94102000D01*
X150469207Y-94101999D01*
X150609650Y-94074063D01*
X150609658Y-94074061D01*
X150727021Y-94025447D01*
X150397601Y-93696026D01*
X150397600Y-93696026D01*
X150068177Y-94025447D01*
X147408483Y-94025447D01*
X147575611Y-93858319D01*
X147636934Y-93824834D01*
X147663292Y-93822000D01*
X148975302Y-93822000D01*
X148975305Y-93822000D01*
X149120784Y-93783019D01*
X149251216Y-93707714D01*
X149357714Y-93601216D01*
X149480305Y-93478624D01*
X149541622Y-93445143D01*
X149611314Y-93450127D01*
X149667248Y-93491998D01*
X149689598Y-93542117D01*
X149698536Y-93587051D01*
X149698538Y-93587059D01*
X149747150Y-93704420D01*
X150149405Y-93302167D01*
X150210728Y-93268682D01*
X150280420Y-93273666D01*
G37*
%TD.AperFunction*%
%TA.AperFunction,Conductor*%
G36*
X158506811Y-92442001D02*
G01*
X158666652Y-92461197D01*
X158689667Y-92466214D01*
X158744898Y-92483892D01*
X158803822Y-92502752D01*
X158838974Y-92514003D01*
X158860624Y-92523281D01*
X158998200Y-92598443D01*
X159017703Y-92611647D01*
X159100084Y-92679678D01*
X159138583Y-92711470D01*
X159155240Y-92728128D01*
X159255060Y-92849009D01*
X159268265Y-92868513D01*
X159343427Y-93006094D01*
X159352701Y-93027735D01*
X159371479Y-93086403D01*
X159400489Y-93177045D01*
X159405506Y-93200061D01*
X159421438Y-93332754D01*
X159424666Y-93359640D01*
X159424716Y-93360052D01*
X159425600Y-93374834D01*
X159425600Y-93682477D01*
X159405915Y-93749516D01*
X159353111Y-93795271D01*
X159283953Y-93805215D01*
X159226516Y-93778984D01*
X159225473Y-93780330D01*
X159219303Y-93775544D01*
X159076101Y-93690855D01*
X159076096Y-93690853D01*
X158916335Y-93644438D01*
X158916329Y-93644437D01*
X158879007Y-93641500D01*
X158879002Y-93641500D01*
X157720000Y-93641500D01*
X157652961Y-93621815D01*
X157607206Y-93569011D01*
X157596000Y-93517500D01*
X157596000Y-93283504D01*
X157596000Y-93283498D01*
X157593062Y-93246169D01*
X157592060Y-93242721D01*
X157546646Y-93086403D01*
X157546645Y-93086400D01*
X157546645Y-93086399D01*
X157478270Y-92970784D01*
X157461955Y-92943196D01*
X157461948Y-92943187D01*
X157344312Y-92825551D01*
X157344303Y-92825544D01*
X157201101Y-92740855D01*
X157201096Y-92740853D01*
X157041335Y-92694438D01*
X157041329Y-92694437D01*
X157004007Y-92691500D01*
X157004002Y-92691500D01*
X155695998Y-92691500D01*
X155695992Y-92691500D01*
X155658670Y-92694437D01*
X155658664Y-92694438D01*
X155498903Y-92740853D01*
X155498898Y-92740855D01*
X155355696Y-92825544D01*
X155355687Y-92825551D01*
X155238051Y-92943187D01*
X155238044Y-92943196D01*
X155153354Y-93086400D01*
X155153353Y-93086402D01*
X155140176Y-93131758D01*
X155108781Y-93184843D01*
X154758113Y-93535513D01*
X154268177Y-94025447D01*
X154271688Y-94043097D01*
X154284729Y-94053606D01*
X154288722Y-94065603D01*
X154296786Y-94075338D01*
X154299546Y-94098120D01*
X154306796Y-94119900D01*
X154303869Y-94133803D01*
X154305190Y-94144700D01*
X154297475Y-94164181D01*
X154294497Y-94178335D01*
X154290749Y-94186081D01*
X154267200Y-94221325D01*
X154228533Y-94314672D01*
X154226970Y-94317905D01*
X154205826Y-94341237D01*
X154186068Y-94365756D01*
X154182545Y-94366928D01*
X154180053Y-94369679D01*
X154149654Y-94377875D01*
X154119774Y-94387821D01*
X154115348Y-94387900D01*
X153582201Y-94387900D01*
X153459822Y-94412243D01*
X153459814Y-94412245D01*
X153344518Y-94460002D01*
X153343116Y-94460752D01*
X153342298Y-94460922D01*
X153338897Y-94462331D01*
X153338629Y-94461685D01*
X153334636Y-94462516D01*
X153327689Y-94467688D01*
X153300950Y-94469527D01*
X153274712Y-94474988D01*
X153266625Y-94471888D01*
X153257984Y-94472483D01*
X153234495Y-94459574D01*
X153209471Y-94449983D01*
X153202739Y-94442121D01*
X153196752Y-94438831D01*
X153185643Y-94422157D01*
X153175678Y-94410519D01*
X153088527Y-94249876D01*
X153082341Y-94221066D01*
X153073541Y-94192959D01*
X153075093Y-94187301D01*
X153073861Y-94181563D01*
X153084234Y-94153981D01*
X153092026Y-94125579D01*
X153096390Y-94121658D01*
X153098456Y-94116166D01*
X153122086Y-94098577D01*
X153144004Y-94078889D01*
X153145913Y-94077996D01*
X153378204Y-93971913D01*
X153597876Y-93830738D01*
X153763447Y-93687269D01*
X153827001Y-93658246D01*
X153896159Y-93668190D01*
X153935238Y-93702052D01*
X153947150Y-93704421D01*
X154296464Y-93355109D01*
X154497600Y-93355109D01*
X154497600Y-93394891D01*
X154512824Y-93431645D01*
X154540955Y-93459776D01*
X154577709Y-93475000D01*
X154617491Y-93475000D01*
X154654245Y-93459776D01*
X154682376Y-93431645D01*
X154697600Y-93394891D01*
X154697600Y-93355109D01*
X154682376Y-93318355D01*
X154654245Y-93290224D01*
X154617491Y-93275000D01*
X154577709Y-93275000D01*
X154540955Y-93290224D01*
X154512824Y-93318355D01*
X154497600Y-93355109D01*
X154296464Y-93355109D01*
X154437087Y-93214487D01*
X154927021Y-92724550D01*
X154818687Y-92679678D01*
X154764283Y-92635837D01*
X154742218Y-92569543D01*
X154759497Y-92501844D01*
X154810634Y-92454233D01*
X154866139Y-92441117D01*
X158492027Y-92441117D01*
X158506811Y-92442001D01*
G37*
%TD.AperFunction*%
%TD*%
M02*
