%TF.GenerationSoftware,KiCad,Pcbnew,9.0.2*%
%TF.CreationDate,2025-06-08T15:56:05+02:00*%
%TF.ProjectId,MicroMod_Processor_Board,4d696372-6f4d-46f6-945f-50726f636573,rev?*%
%TF.SameCoordinates,Original*%
%TF.FileFunction,Soldermask,Top*%
%TF.FilePolarity,Negative*%
%FSLAX46Y46*%
G04 Gerber Fmt 4.6, Leading zero omitted, Abs format (unit mm)*
G04 Created by KiCad (PCBNEW 9.0.2) date 2025-06-08 15:56:05*
%MOMM*%
%LPD*%
G01*
G04 APERTURE LIST*
G04 Aperture macros list*
%AMRoundRect*
0 Rectangle with rounded corners*
0 $1 Rounding radius*
0 $2 $3 $4 $5 $6 $7 $8 $9 X,Y pos of 4 corners*
0 Add a 4 corners polygon primitive as box body*
4,1,4,$2,$3,$4,$5,$6,$7,$8,$9,$2,$3,0*
0 Add four circle primitives for the rounded corners*
1,1,$1+$1,$2,$3*
1,1,$1+$1,$4,$5*
1,1,$1+$1,$6,$7*
1,1,$1+$1,$8,$9*
0 Add four rect primitives between the rounded corners*
20,1,$1+$1,$2,$3,$4,$5,0*
20,1,$1+$1,$4,$5,$6,$7,0*
20,1,$1+$1,$6,$7,$8,$9,0*
20,1,$1+$1,$8,$9,$2,$3,0*%
G04 Aperture macros list end*
%ADD10C,0.000000*%
%ADD11RoundRect,0.262500X0.275000X0.262500X-0.275000X0.262500X-0.275000X-0.262500X0.275000X-0.262500X0*%
%ADD12RoundRect,0.262500X0.262500X-0.275000X0.262500X0.275000X-0.262500X0.275000X-0.262500X-0.275000X0*%
%ADD13RoundRect,0.262500X-0.262500X0.325000X-0.262500X-0.325000X0.262500X-0.325000X0.262500X0.325000X0*%
%ADD14RoundRect,0.262500X0.325000X0.262500X-0.325000X0.262500X-0.325000X-0.262500X0.325000X-0.262500X0*%
%ADD15RoundRect,0.262500X-0.312500X-0.262500X0.312500X-0.262500X0.312500X0.262500X-0.312500X0.262500X0*%
%ADD16RoundRect,0.262500X0.262500X-0.325000X0.262500X0.325000X-0.262500X0.325000X-0.262500X-0.325000X0*%
%ADD17RoundRect,0.262500X-0.325000X-0.262500X0.325000X-0.262500X0.325000X0.262500X-0.325000X0.262500X0*%
%ADD18RoundRect,0.269231X-0.430769X-0.655769X0.430769X-0.655769X0.430769X0.655769X-0.430769X0.655769X0*%
%ADD19RoundRect,0.100000X-0.100000X0.750000X-0.100000X-0.750000X0.100000X-0.750000X0.100000X0.750000X0*%
%ADD20RoundRect,0.100000X-0.750000X0.100000X-0.750000X-0.100000X0.750000X-0.100000X0.750000X0.100000X0*%
%ADD21RoundRect,0.101600X0.175000X0.725000X-0.175000X0.725000X-0.175000X-0.725000X0.175000X-0.725000X0*%
%ADD22C,0.657200*%
%ADD23RoundRect,0.050000X0.711200X-0.101600X0.711200X0.101600X-0.711200X0.101600X-0.711200X-0.101600X0*%
%ADD24RoundRect,0.050000X-0.370000X1.200000X-0.370000X-1.200000X0.370000X-1.200000X0.370000X1.200000X0*%
G04 APERTURE END LIST*
D10*
%TO.C,J1*%
G36*
X150774186Y-92678884D02*
G01*
X150853138Y-92973535D01*
X150982056Y-93250000D01*
X151157022Y-93499878D01*
X151372722Y-93715578D01*
X151622600Y-93890544D01*
X151899065Y-94019462D01*
X152193716Y-94098414D01*
X152497600Y-94125000D01*
X152801484Y-94098414D01*
X153096135Y-94019462D01*
X153372600Y-93890544D01*
X153622478Y-93715578D01*
X153838178Y-93499878D01*
X154013144Y-93250000D01*
X154142062Y-92973535D01*
X154247600Y-92375000D01*
X155247600Y-92375000D01*
X155224073Y-92733947D01*
X155153896Y-93086752D01*
X155038269Y-93427379D01*
X154879170Y-93750000D01*
X154679322Y-94049094D01*
X154442144Y-94319544D01*
X154171694Y-94556722D01*
X153872600Y-94756570D01*
X153549979Y-94915669D01*
X153209352Y-95031296D01*
X152497600Y-95125000D01*
X152138653Y-95101473D01*
X151785848Y-95031296D01*
X151445221Y-94915669D01*
X151122600Y-94756570D01*
X150823506Y-94556722D01*
X150553056Y-94319544D01*
X150315878Y-94049094D01*
X150116030Y-93750000D01*
X149956931Y-93427379D01*
X149841304Y-93086752D01*
X149771127Y-92733947D01*
X149747600Y-92375000D01*
X150747600Y-92375000D01*
X150774186Y-92678884D01*
G37*
%TD*%
D11*
%TO.C,R4*%
X156250000Y-95950000D03*
X158075000Y-95950000D03*
%TD*%
D12*
%TO.C,R2*%
X152200000Y-98025000D03*
X152200000Y-96200000D03*
%TD*%
D13*
%TO.C,C4*%
X149780000Y-79340000D03*
X149780000Y-81065000D03*
%TD*%
D14*
%TO.C,C18*%
X131400000Y-107600000D03*
X129675000Y-107600000D03*
%TD*%
D15*
%TO.C,D1*%
X156400000Y-93725000D03*
X158150000Y-93725000D03*
%TD*%
D16*
%TO.C,C8*%
X155016200Y-109827400D03*
X155016200Y-108102400D03*
%TD*%
D17*
%TO.C,C15*%
X131800000Y-94250000D03*
X133525000Y-94250000D03*
%TD*%
D14*
%TO.C,C12*%
X158470000Y-105120000D03*
X156745000Y-105120000D03*
%TD*%
D17*
%TO.C,C17*%
X129675000Y-109100000D03*
X131400000Y-109100000D03*
%TD*%
D18*
%TO.C,Y1*%
X141875000Y-91525000D03*
X144975000Y-91525000D03*
%TD*%
D17*
%TO.C,C5*%
X156575000Y-108220000D03*
X158300000Y-108220000D03*
%TD*%
D19*
%TO.C,U1*%
X148275000Y-93725000D03*
X147775000Y-93725000D03*
X147275000Y-93725000D03*
X146775000Y-93725000D03*
X146275000Y-93725000D03*
X145775000Y-93725000D03*
X145275000Y-93725000D03*
X144775000Y-93725000D03*
X144275000Y-93725000D03*
X143775000Y-93725000D03*
X143275000Y-93725000D03*
X142775000Y-93725000D03*
X142275000Y-93725000D03*
X141775000Y-93725000D03*
X141275000Y-93725000D03*
X140775000Y-93725000D03*
X140275000Y-93725000D03*
X139775000Y-93725000D03*
X139275000Y-93725000D03*
X138775000Y-93725000D03*
X138275000Y-93725000D03*
X137775000Y-93725000D03*
X137275000Y-93725000D03*
X136775000Y-93725000D03*
X136275000Y-93725000D03*
D20*
X134600000Y-95400000D03*
X134600000Y-95900000D03*
X134600000Y-96400000D03*
X134600000Y-96900000D03*
X134600000Y-97400000D03*
X134600000Y-97900000D03*
X134600000Y-98400000D03*
X134600000Y-98900000D03*
X134600000Y-99400000D03*
X134600000Y-99900000D03*
X134600000Y-100400000D03*
X134600000Y-100900000D03*
X134600000Y-101400000D03*
X134600000Y-101900000D03*
X134600000Y-102400000D03*
X134600000Y-102900000D03*
X134600000Y-103400000D03*
X134600000Y-103900000D03*
X134600000Y-104400000D03*
X134600000Y-104900000D03*
X134600000Y-105400000D03*
X134600000Y-105900000D03*
X134600000Y-106400000D03*
X134600000Y-106900000D03*
X134600000Y-107400000D03*
D19*
X136275000Y-109075000D03*
X136775000Y-109075000D03*
X137275000Y-109075000D03*
X137775000Y-109075000D03*
X138275000Y-109075000D03*
X138775000Y-109075000D03*
X139275000Y-109075000D03*
X139775000Y-109075000D03*
X140275000Y-109075000D03*
X140775000Y-109075000D03*
X141275000Y-109075000D03*
X141775000Y-109075000D03*
X142275000Y-109075000D03*
X142775000Y-109075000D03*
X143275000Y-109075000D03*
X143775000Y-109075000D03*
X144275000Y-109075000D03*
X144775000Y-109075000D03*
X145275000Y-109075000D03*
X145775000Y-109075000D03*
X146275000Y-109075000D03*
X146775000Y-109075000D03*
X147275000Y-109075000D03*
X147775000Y-109075000D03*
X148275000Y-109075000D03*
D20*
X149950000Y-107400000D03*
X149950000Y-106900000D03*
X149950000Y-106400000D03*
X149950000Y-105900000D03*
X149950000Y-105400000D03*
X149950000Y-104900000D03*
X149950000Y-104400000D03*
X149950000Y-103900000D03*
X149950000Y-103400000D03*
X149950000Y-102900000D03*
X149950000Y-102400000D03*
X149950000Y-101900000D03*
X149950000Y-101400000D03*
X149950000Y-100900000D03*
X149950000Y-100400000D03*
X149950000Y-99900000D03*
X149950000Y-99400000D03*
X149950000Y-98900000D03*
X149950000Y-98400000D03*
X149950000Y-97900000D03*
X149950000Y-97400000D03*
X149950000Y-96900000D03*
X149950000Y-96400000D03*
X149950000Y-95900000D03*
X149950000Y-95400000D03*
%TD*%
D17*
%TO.C,C2*%
X143850000Y-89650000D03*
X145575000Y-89650000D03*
%TD*%
D21*
%TO.C,J1*%
X157747600Y-113100000D03*
X157247600Y-113100000D03*
X156747600Y-113100000D03*
X156247600Y-113100000D03*
X155747600Y-113100000D03*
X155247600Y-113100000D03*
X154747600Y-113100000D03*
X154247600Y-113100000D03*
X153747600Y-113100000D03*
X153247600Y-113100000D03*
X152747600Y-113100000D03*
X152247600Y-113100000D03*
X149747600Y-113100000D03*
X149247600Y-113100000D03*
X148747600Y-113100000D03*
X148247600Y-113100000D03*
X147747600Y-113100000D03*
X147247600Y-113100000D03*
X146747600Y-113100000D03*
X146247600Y-113100000D03*
X145747600Y-113100000D03*
X145247600Y-113100000D03*
X144747600Y-113100000D03*
X144247600Y-113100000D03*
X143747600Y-113100000D03*
X143247600Y-113100000D03*
X142747600Y-113100000D03*
X142247600Y-113100000D03*
X141747600Y-113100000D03*
X141247600Y-113100000D03*
X140747600Y-113100000D03*
X140247600Y-113100000D03*
X139747600Y-113100000D03*
X139247600Y-113100000D03*
D22*
X150397600Y-93375000D03*
X152497600Y-94675000D03*
X154597600Y-93375000D03*
%TD*%
D14*
%TO.C,C3*%
X142275000Y-89650000D03*
X140550000Y-89650000D03*
%TD*%
D17*
%TO.C,C6*%
X156593200Y-106705400D03*
X158318200Y-106705400D03*
%TD*%
D23*
%TO.C,J4*%
X156699998Y-102379998D03*
X156699998Y-101979999D03*
X156699998Y-101580000D03*
X156699998Y-101179998D03*
X156699998Y-100779999D03*
X156699998Y-100379999D03*
X156699998Y-99980000D03*
X156699998Y-99579998D03*
X156699998Y-99179999D03*
X156699998Y-98780000D03*
X154350000Y-102379998D03*
X154350000Y-101979999D03*
X154350000Y-101580000D03*
X154350000Y-101179998D03*
X154350000Y-100779999D03*
X154350000Y-100379999D03*
X154350000Y-99980000D03*
X154350000Y-99579998D03*
X154350000Y-99179999D03*
X154350000Y-98780000D03*
%TD*%
D16*
%TO.C,C9*%
X139039600Y-91875000D03*
X139039600Y-90150000D03*
%TD*%
D13*
%TO.C,C7*%
X135864600Y-90121400D03*
X135864600Y-91846400D03*
%TD*%
%TO.C,C14*%
X137541000Y-90146800D03*
X137541000Y-91871800D03*
%TD*%
D23*
%TO.C,J3*%
X132200000Y-105000000D03*
X132200000Y-104600001D03*
X132200000Y-104200002D03*
X132200000Y-103800000D03*
X132200000Y-103400001D03*
X132200000Y-103000001D03*
X132200000Y-102600002D03*
X132200000Y-102200000D03*
X132200000Y-101800001D03*
X132200000Y-101400002D03*
X129850002Y-105000000D03*
X129850002Y-104600001D03*
X129850002Y-104200002D03*
X129850002Y-103800000D03*
X129850002Y-103400001D03*
X129850002Y-103000001D03*
X129850002Y-102600002D03*
X129850002Y-102200000D03*
X129850002Y-101800001D03*
X129850002Y-101400002D03*
%TD*%
D17*
%TO.C,C1*%
X147900000Y-91350000D03*
X149625000Y-91350000D03*
%TD*%
D24*
%TO.C,J5*%
X147600000Y-80070000D03*
X147600000Y-83970000D03*
X146330000Y-80070000D03*
X146330000Y-83970000D03*
X145060000Y-80070000D03*
X145060000Y-83970000D03*
X143790000Y-80070000D03*
X143790000Y-83970000D03*
X142520000Y-80070000D03*
X142520000Y-83970000D03*
X141250000Y-80070000D03*
X141250000Y-83970000D03*
X139980000Y-80070000D03*
X139980000Y-83970000D03*
X138710000Y-80070000D03*
X138710000Y-83970000D03*
X137440000Y-80070000D03*
X137440000Y-83970000D03*
X136170000Y-80070000D03*
X136170000Y-83970000D03*
%TD*%
M02*
