%TF.GenerationSoftware,KiCad,Pcbnew,9.0.2*%
%TF.CreationDate,2025-07-04T12:48:37+02:00*%
%TF.ProjectId,MicroMod_Processor_Board,4d696372-6f4d-46f6-945f-50726f636573,rev?*%
%TF.SameCoordinates,Original*%
%TF.FileFunction,Copper,L3,Inr*%
%TF.FilePolarity,Positive*%
%FSLAX46Y46*%
G04 Gerber Fmt 4.6, Leading zero omitted, Abs format (unit mm)*
G04 Created by KiCad (PCBNEW 9.0.2) date 2025-07-04 12:48:37*
%MOMM*%
%LPD*%
G01*
G04 APERTURE LIST*
%TA.AperFunction,ComponentPad*%
%ADD10C,0.454000*%
%TD*%
%TA.AperFunction,ViaPad*%
%ADD11C,0.450000*%
%TD*%
%TA.AperFunction,ViaPad*%
%ADD12C,0.400000*%
%TD*%
%TA.AperFunction,ViaPad*%
%ADD13C,0.800000*%
%TD*%
%TA.AperFunction,Conductor*%
%ADD14C,1.000000*%
%TD*%
%TA.AperFunction,Conductor*%
%ADD15C,0.127000*%
%TD*%
%TA.AperFunction,Conductor*%
%ADD16C,0.350000*%
%TD*%
%TA.AperFunction,Conductor*%
%ADD17C,0.250000*%
%TD*%
%TA.AperFunction,Conductor*%
%ADD18C,0.500000*%
%TD*%
G04 APERTURE END LIST*
D10*
%TO.N,GND*%
%TO.C,J1*%
X150397600Y-93375000D03*
X152497600Y-94675000D03*
X154597600Y-93375000D03*
%TD*%
D11*
%TO.N,/PWM0*%
X147087942Y-104524079D03*
X140350000Y-107750000D03*
%TO.N,/SD_DAT0*%
X140118000Y-106500000D03*
D12*
%TO.N,GND*%
X152050000Y-105200000D03*
D13*
%TO.N,+3.3V*%
X148537184Y-95335000D03*
D11*
%TO.N,/VBAT*%
X139115800Y-110261400D03*
X145753815Y-94842889D03*
%TO.N,GND*%
X138275000Y-89275000D03*
X139982448Y-105317552D03*
X143425000Y-101900000D03*
X145923000Y-104470200D03*
X147590000Y-100550000D03*
X140868400Y-95529400D03*
D12*
X145197500Y-94697500D03*
D13*
X130100000Y-98400000D03*
D11*
X142341600Y-106328672D03*
D13*
X133325000Y-90325000D03*
D11*
X130420000Y-108380000D03*
X152030000Y-109100000D03*
X144576800Y-99720400D03*
X138950000Y-113300000D03*
X140610000Y-92100000D03*
D13*
X130300000Y-100275000D03*
D11*
X132475000Y-96950000D03*
X157937200Y-106121200D03*
D13*
X132401000Y-95990500D03*
D11*
X149360000Y-111280000D03*
D13*
X135000000Y-109125000D03*
D11*
X149625000Y-91350000D03*
X150266400Y-89585800D03*
X159025000Y-99375000D03*
D13*
X133300000Y-91475000D03*
D11*
X140425000Y-100475000D03*
X158875000Y-108000000D03*
D13*
X129275000Y-95600000D03*
D11*
X133292869Y-106998564D03*
X139014200Y-89204800D03*
X143687800Y-99720400D03*
X136930000Y-97700000D03*
X157962600Y-101142800D03*
X147650000Y-89400000D03*
D13*
X139000078Y-94832600D03*
D11*
X142240000Y-102819200D03*
X139220000Y-111160000D03*
D13*
X130800000Y-91578400D03*
D11*
X158700000Y-97800000D03*
X148375000Y-89375000D03*
X132450000Y-97900000D03*
X144925000Y-90200000D03*
X150200000Y-90225000D03*
D13*
X145671116Y-101603884D03*
D11*
X141808200Y-94970600D03*
X136350000Y-98870000D03*
X131800000Y-97400000D03*
D13*
X129768600Y-93243400D03*
D11*
X158800000Y-102275000D03*
X153593800Y-103962200D03*
D13*
X130780018Y-101618973D03*
D11*
X137236200Y-89255600D03*
D13*
X129850000Y-96600000D03*
D11*
X139954000Y-97358200D03*
D13*
X129100000Y-91250000D03*
D11*
X150291800Y-109448600D03*
X132546612Y-98551329D03*
X136144000Y-101400000D03*
X130370000Y-106440000D03*
D13*
X145500000Y-97000000D03*
D11*
X146775000Y-105486200D03*
X129760000Y-106190000D03*
X131900000Y-98225000D03*
X144522242Y-107714842D03*
X158800000Y-103300000D03*
X136525000Y-90975000D03*
X158075000Y-112450000D03*
X140700000Y-101600000D03*
X137425000Y-104975000D03*
D13*
X149733000Y-109250000D03*
D11*
X140512800Y-91516200D03*
D13*
X132423378Y-108544500D03*
X153845499Y-95919230D03*
X132850000Y-92925000D03*
D11*
X148800000Y-103750000D03*
X136360000Y-99730000D03*
D13*
X130425000Y-95550000D03*
D11*
X158075000Y-112950000D03*
X147777200Y-105867200D03*
X148425000Y-90175000D03*
X158800000Y-101175000D03*
X155400000Y-98575000D03*
X155346400Y-96850200D03*
X136170000Y-96950000D03*
X137414000Y-102844600D03*
D13*
X136375000Y-105600000D03*
X141920000Y-99880000D03*
D11*
X136175000Y-103975000D03*
%TO.N,/~{RESET}*%
X148500000Y-96580000D03*
D13*
%TO.N,+3.3V*%
X139051695Y-95928337D03*
X156088100Y-107510000D03*
X138155002Y-95859600D03*
X143336234Y-95805166D03*
X136220000Y-107460000D03*
X133450000Y-109209500D03*
X156680000Y-102890000D03*
X131073637Y-105224644D03*
X147600000Y-78600000D03*
X134980000Y-94210000D03*
D11*
X148417400Y-109499400D03*
X146175000Y-107850000D03*
X147650000Y-107850000D03*
D13*
X140721500Y-96738466D03*
D11*
%TO.N,Net-(C10-Pad1)*%
X152958800Y-96850200D03*
%TO.N,Net-(F1-Pad2)*%
X157734000Y-111760000D03*
X139380000Y-111940000D03*
%TO.N,/A0*%
X151579084Y-108685013D03*
%TO.N,/AUD_BCLK*%
X145600000Y-105250000D03*
%TO.N,/SPI_COPI1*%
X139150000Y-105550000D03*
%TO.N,/UART_CTS1*%
X153650000Y-106500000D03*
X145862500Y-103387500D03*
X137260000Y-100170000D03*
X137236200Y-106654600D03*
D13*
%TO.N,/G11-SWO*%
X145034000Y-85852000D03*
D11*
%TO.N,/G2*%
X146597346Y-110949912D03*
%TO.N,/SWDIO*%
X148869400Y-86537800D03*
X146064127Y-106701694D03*
%TO.N,/I2C_~{INT}*%
X151200000Y-101175000D03*
%TO.N,/AUD_IN-CAM_PCLK*%
X142080000Y-103581200D03*
%TO.N,/AUD_MCLK*%
X141250000Y-104075000D03*
%TO.N,/SPI_SCK1*%
X139100000Y-104550000D03*
%TO.N,/SWDCK*%
X147396200Y-86080600D03*
X148750000Y-107275000D03*
%TO.N,/CAN-RX*%
X148068418Y-106449297D03*
X148150000Y-111120000D03*
%TO.N,/D0*%
X148325000Y-97575000D03*
%TO.N,/~{BOOT}*%
X156825000Y-96775000D03*
%TO.N,/~{SPI_CS1}*%
X136036007Y-102664327D03*
%TO.N,/SPI_MISO*%
X141404896Y-111461056D03*
X140275000Y-94691200D03*
%TO.N,/USB_D-*%
X151964862Y-110933928D03*
X156747600Y-111472600D03*
%TO.N,/I2C_SDA1*%
X144190000Y-101660000D03*
X144450000Y-111140000D03*
%TO.N,/I2C_SCL*%
X151500000Y-100675000D03*
%TO.N,/CAN-TX*%
X146990978Y-106045489D03*
X147140000Y-111260000D03*
%TO.N,/I2C_SDA*%
X151433576Y-99216424D03*
%TO.N,/SPI_CIPO1*%
X138731892Y-104991729D03*
%TO.N,/UART_RTS1*%
X140000000Y-100050000D03*
X138780000Y-103400000D03*
X143550000Y-101300000D03*
X154381200Y-104622600D03*
%TO.N,/UART_RX2*%
X144154870Y-106987112D03*
%TO.N,/A1*%
X150940000Y-108680000D03*
%TO.N,/UART_RX1*%
X138970000Y-103980000D03*
X147525000Y-103025000D03*
X152806400Y-106629200D03*
X140875000Y-100924745D03*
%TO.N,/BATT_VIN*%
X141478000Y-97282000D03*
X145620000Y-111000000D03*
%TO.N,/G3*%
X146150000Y-111390000D03*
%TO.N,/SPI_MOSI*%
X140830000Y-111450000D03*
X139769251Y-94964779D03*
%TO.N,/D1-CAM_TRIG*%
X148850000Y-102950000D03*
%TO.N,/UART_TX2*%
X145493216Y-106633222D03*
%TO.N,/G1*%
X147494052Y-106422252D03*
%TO.N,/AUD_OUT-CAM_MCLK*%
X141427200Y-103428800D03*
%TO.N,/USB_D+*%
X152000000Y-110360000D03*
X156845577Y-110906006D03*
%TO.N,/G0*%
X147330461Y-105045436D03*
%TO.N,/SPI_SCK*%
X141950000Y-106750000D03*
X143430000Y-110720000D03*
%TO.N,/AUD_LRCLK*%
X145338800Y-104724200D03*
%TO.N,/UART_TX1*%
X153873200Y-105079800D03*
X139870828Y-107019163D03*
%TO.N,/I2C_SCL1*%
X143925000Y-102350000D03*
X144280000Y-110400000D03*
%TO.N,/SD_CLK*%
X147130000Y-101430000D03*
%TO.N,/SD_DAT1*%
X139300000Y-106950000D03*
%TO.N,/SD_DAT3*%
X148137000Y-99695000D03*
%TO.N,/SD_CMD*%
X148150000Y-101380000D03*
%TO.N,/SD_DAT2*%
X148610000Y-100520000D03*
%TO.N,/BT_HOST_WAKE*%
X131080000Y-104220000D03*
X135636000Y-93294200D03*
%TO.N,/BT_REG_ON*%
X133330000Y-104370000D03*
X134325000Y-93650000D03*
%TO.N,/WIFI_SDIO_DAT1*%
X152654000Y-103784400D03*
X143951634Y-107525000D03*
%TO.N,/WIFI_SDIO_DAT0*%
X154035200Y-103174800D03*
X143487134Y-107922573D03*
%TO.N,/WL_GPIO_0_HOST_WAKE*%
X155500000Y-97700000D03*
X157657800Y-100355400D03*
%TO.N,/TRACE_CLK*%
X148625000Y-92550000D03*
X140436600Y-85852000D03*
%TO.N,/TRACE_D3*%
X146276376Y-92789892D03*
X136575800Y-86029800D03*
%TO.N,/TRACE_D2*%
X137490200Y-86029800D03*
X146826172Y-92621509D03*
%TO.N,/TRACE_D1*%
X138760200Y-85979000D03*
X147375000Y-92450000D03*
%TO.N,/TRACE_D0*%
X139522200Y-85953600D03*
X148050000Y-92400000D03*
%TO.N,/BOOT0*%
X155400000Y-94825000D03*
%TO.N,/USB_VIN*%
X139775000Y-92575000D03*
%TO.N,Net-(J1-USB_VIN)*%
X154875000Y-110750000D03*
%TD*%
D14*
%TO.N,+3.3V*%
X153123800Y-97701000D02*
X152556000Y-97701000D01*
X152556000Y-97701000D02*
X152099000Y-97244000D01*
X152099000Y-97244000D02*
X152099000Y-97202496D01*
X152099000Y-97202496D02*
X150283213Y-95386709D01*
X150283213Y-95386709D02*
X148588893Y-95386709D01*
D15*
%TO.N,/PWM0*%
X147087942Y-104524079D02*
X146358478Y-105253544D01*
X146358478Y-105253544D02*
X146358478Y-106308478D01*
X146358478Y-106308478D02*
X146600000Y-106550000D01*
X146600000Y-106550000D02*
X146600000Y-106850001D01*
X146600000Y-106850001D02*
X146363101Y-107086899D01*
X142713580Y-106572612D02*
X141536192Y-107750000D01*
X146363101Y-107086899D02*
X146339601Y-107086899D01*
X144971450Y-107217500D02*
X144326562Y-106572612D01*
X146339601Y-107086899D02*
X146209000Y-107217500D01*
X146209000Y-107217500D02*
X144971450Y-107217500D01*
X144326562Y-106572612D02*
X142713580Y-106572612D01*
X141536192Y-107750000D02*
X140350000Y-107750000D01*
%TO.N,GND*%
X146487298Y-107271001D02*
X146716650Y-107041650D01*
X148314800Y-107010200D02*
X146748100Y-107010200D01*
X146748100Y-107010200D02*
X146716650Y-107041650D01*
X146429899Y-107304899D02*
X146299298Y-107435500D01*
X146299298Y-107435500D02*
X144801584Y-107435500D01*
X144801584Y-107435500D02*
X144522242Y-107714842D01*
X147050000Y-106708299D02*
X147050000Y-106590770D01*
X146716650Y-107041650D02*
X147050000Y-106708299D01*
%TO.N,/SWDIO*%
X147250000Y-95400000D02*
X149039500Y-93610500D01*
X149039500Y-92378308D02*
X148957199Y-92296008D01*
X146380200Y-104898502D02*
X146380200Y-96250000D01*
X146125000Y-106640821D02*
X146125000Y-105153702D01*
X146064127Y-106701694D02*
X146125000Y-106640821D01*
X146125000Y-105153702D02*
X146380200Y-104898502D01*
X146380200Y-96250000D02*
X147230200Y-95400000D01*
X147230200Y-95400000D02*
X147250000Y-95400000D01*
X149039500Y-93610500D02*
X149039500Y-92378308D01*
X148957199Y-92296008D02*
X148957200Y-86625600D01*
X148957200Y-86625600D02*
X148869400Y-86537800D01*
%TO.N,GND*%
X146749788Y-105700488D02*
X146576478Y-105873797D01*
X146819286Y-106459989D02*
X146919219Y-106459989D01*
X146576478Y-105873797D02*
X146576478Y-106217181D01*
X146576478Y-106217181D02*
X146819286Y-106459989D01*
X147050000Y-106590770D02*
X147050000Y-106602500D01*
X146919219Y-106459989D02*
X147050000Y-106590770D01*
X147777200Y-105867200D02*
X147396200Y-105486200D01*
X147396200Y-105486200D02*
X146775000Y-105486200D01*
%TO.N,/SWDCK*%
X148793200Y-107137200D02*
X148793200Y-104818200D01*
X147414500Y-103439500D02*
X147353308Y-103439500D01*
X149210500Y-91178308D02*
X149175199Y-91143007D01*
X149175200Y-86818192D02*
X149334700Y-86658692D01*
X149334700Y-86315308D02*
X149091892Y-86072500D01*
X146660600Y-101120300D02*
X146790500Y-100990400D01*
X146790500Y-100990400D02*
X146790500Y-96250000D01*
X147110500Y-103196692D02*
X147110500Y-103135500D01*
X147353308Y-103439500D02*
X147110500Y-103196692D01*
X147110500Y-103135500D02*
X146660600Y-102685600D01*
X146660600Y-102685600D02*
X146660600Y-101120300D01*
X149257500Y-92232301D02*
X149175199Y-92150000D01*
X146790500Y-96250000D02*
X146800000Y-96250000D01*
X146800000Y-96250000D02*
X149257500Y-93792500D01*
X148793200Y-104818200D02*
X147414500Y-103439500D01*
X149257500Y-93792500D02*
X149257500Y-92232301D01*
X149334700Y-86658692D02*
X149334700Y-86315308D01*
X149091892Y-86072500D02*
X147353500Y-86072500D01*
X149175199Y-92150000D02*
X149175199Y-91556993D01*
X149175199Y-91556993D02*
X149210500Y-91521692D01*
X149210500Y-91521692D02*
X149210500Y-91178308D01*
X149175199Y-91143007D02*
X149175200Y-86818192D01*
X147353500Y-86072500D02*
X147345400Y-86080600D01*
%TO.N,GND*%
X147777200Y-105867200D02*
X148109392Y-105867200D01*
X148109392Y-105867200D02*
X148492500Y-106250308D01*
X148492500Y-106250308D02*
X148492500Y-106832500D01*
X148492500Y-106832500D02*
X148314800Y-107010200D01*
D14*
%TO.N,+3.3V*%
X156680000Y-102890000D02*
X156680000Y-106800000D01*
X156080000Y-107400000D02*
X156080000Y-108270000D01*
X152881000Y-108747504D02*
X151962496Y-107829000D01*
X156680000Y-106800000D02*
X156080000Y-107400000D01*
X148050000Y-108250000D02*
X147650000Y-107850000D01*
X151962496Y-107829000D02*
X150211000Y-107829000D01*
X156080000Y-108270000D02*
X155450000Y-108900000D01*
X155450000Y-108900000D02*
X154578696Y-108900000D01*
X149790000Y-108250000D02*
X148050000Y-108250000D01*
X152881000Y-108929789D02*
X152881000Y-108747504D01*
X154578696Y-108900000D02*
X154413896Y-109064800D01*
X154413896Y-109064800D02*
X153016011Y-109064800D01*
X153016011Y-109064800D02*
X152881000Y-108929789D01*
X150211000Y-107829000D02*
X149790000Y-108250000D01*
X147624501Y-107925501D02*
X146615102Y-108934900D01*
X146615102Y-108934900D02*
X137694900Y-108934900D01*
X137694900Y-108934900D02*
X136220000Y-107460000D01*
X153123800Y-97701000D02*
X156680000Y-101257200D01*
X148950000Y-95350000D02*
X149130000Y-95170000D01*
X152597504Y-97701000D02*
X153123800Y-97701000D01*
X156680000Y-101257200D02*
X156680000Y-102890000D01*
D16*
%TO.N,/VBAT*%
X142500000Y-94900000D02*
X142500000Y-97003877D01*
X139072106Y-100234017D02*
X139072106Y-100372106D01*
X137615248Y-110115248D02*
X138969648Y-110115248D01*
X144671500Y-94700000D02*
X142700000Y-94700000D01*
X135454000Y-103952123D02*
X135454000Y-107954000D01*
X144671500Y-94479623D02*
X144671500Y-94700000D01*
X144979623Y-94171500D02*
X144875561Y-94275561D01*
X139782123Y-99524000D02*
X139072106Y-100234017D01*
X145753815Y-94842889D02*
X145749000Y-94838074D01*
X142500000Y-97003877D02*
X139979877Y-99524000D01*
X144875561Y-94275561D02*
X144671500Y-94479623D01*
X136253884Y-103190327D02*
X136215796Y-103190327D01*
X142700000Y-94700000D02*
X142500000Y-94900000D01*
X136215796Y-103190327D02*
X135454000Y-103952123D01*
X145749000Y-94838074D02*
X145749000Y-94505123D01*
X145415377Y-94171500D02*
X144979623Y-94171500D01*
X145749000Y-94505123D02*
X145415377Y-94171500D01*
X135454000Y-107954000D02*
X137615248Y-110115248D01*
X139072106Y-100372106D02*
X136253884Y-103190327D01*
X139979877Y-99524000D02*
X139782123Y-99524000D01*
X138969648Y-110115248D02*
X139115800Y-110261400D01*
D17*
%TO.N,GND*%
X143159200Y-101900000D02*
X142240000Y-102819200D01*
D15*
X147430941Y-93630941D02*
X147200000Y-93400000D01*
D17*
X142240000Y-102819200D02*
X141919200Y-102819200D01*
D16*
X145197500Y-95030451D02*
X145767049Y-95600000D01*
D15*
X144355004Y-100971804D02*
X144871508Y-101488308D01*
X141910000Y-93400000D02*
X140610000Y-92100000D01*
X146400000Y-95600000D02*
X146400000Y-95061192D01*
X143687800Y-99720400D02*
X143687800Y-100685600D01*
D16*
X146400000Y-95600000D02*
X145500000Y-96500000D01*
D17*
X143425000Y-101900000D02*
X143159200Y-101900000D01*
D16*
X145767049Y-95600000D02*
X146400000Y-95600000D01*
D15*
X143974004Y-100971804D02*
X144355004Y-100971804D01*
D17*
X141919200Y-102819200D02*
X140700000Y-101600000D01*
D16*
X145197500Y-94697500D02*
X145197500Y-95030451D01*
D15*
X143753308Y-102764500D02*
X144510500Y-102764500D01*
X145555540Y-101488308D02*
X145671116Y-101603884D01*
X143425000Y-101900000D02*
X143425000Y-102436192D01*
X143425000Y-102436192D02*
X143753308Y-102764500D01*
D16*
X145500000Y-96500000D02*
X145500000Y-97000000D01*
D15*
X144871508Y-101488308D02*
X145555540Y-101488308D01*
X143687800Y-100685600D02*
X143974004Y-100971804D01*
X147200000Y-93400000D02*
X141910000Y-93400000D01*
X144510500Y-102764500D02*
X145671116Y-101603884D01*
X146400000Y-95061192D02*
X147430941Y-94030251D01*
X147430941Y-94030251D02*
X147430941Y-93630941D01*
D16*
%TO.N,+3.3V*%
X135900000Y-79100000D02*
X136400000Y-78600000D01*
D18*
X133450000Y-109209500D02*
X133450000Y-108500000D01*
X132480000Y-107530000D02*
X131812400Y-107530000D01*
X133450000Y-108500000D02*
X132480000Y-107530000D01*
D16*
X147600000Y-78400000D02*
X147600000Y-78600000D01*
X136400000Y-78600000D02*
X147600000Y-78600000D01*
D14*
X138982958Y-95859600D02*
X137790802Y-95859600D01*
D16*
X134980000Y-94210000D02*
X134980000Y-89620000D01*
D18*
X131812400Y-107530000D02*
X131165600Y-106883200D01*
D14*
X147624501Y-107925501D02*
X147810000Y-108111000D01*
X139051695Y-95928337D02*
X138982958Y-95859600D01*
X146456400Y-108204000D02*
X146278600Y-108204000D01*
X146734899Y-107925501D02*
X146456400Y-108204000D01*
X146278600Y-108204000D02*
X146151600Y-108331000D01*
X134980000Y-94619400D02*
X134980000Y-94210000D01*
D18*
X131165600Y-105316607D02*
X131073637Y-105224644D01*
D14*
X147810000Y-108111000D02*
X147810000Y-108892000D01*
X137790802Y-95859600D02*
X137587602Y-95656400D01*
X147810000Y-108892000D02*
X147828000Y-108910000D01*
D16*
X134980000Y-89620000D02*
X135900000Y-88700000D01*
D14*
X147343000Y-108425000D02*
X147828000Y-108910000D01*
X137587602Y-95656400D02*
X136017000Y-95656400D01*
D18*
X131165600Y-106883200D02*
X131165600Y-105316607D01*
D16*
X135900000Y-88700000D02*
X135900000Y-79100000D01*
D14*
X148417400Y-109499400D02*
X147828000Y-108910000D01*
X136017000Y-95656400D02*
X134980000Y-94619400D01*
X147624501Y-107925501D02*
X146734899Y-107925501D01*
D18*
%TO.N,Net-(F1-Pad2)*%
X149534876Y-112963500D02*
X141157500Y-112963500D01*
X156895800Y-109905800D02*
X153236941Y-109905800D01*
X153236941Y-109905800D02*
X153201242Y-109941499D01*
X141071000Y-113050000D02*
X140050000Y-113050000D01*
X139380000Y-111940000D02*
X139380000Y-112040000D01*
X153201242Y-109941499D02*
X152703356Y-109941499D01*
X152489857Y-109728000D02*
X151490624Y-109728000D01*
X141157500Y-112963500D02*
X141071000Y-113050000D01*
X139527971Y-112527971D02*
X139539000Y-112516943D01*
X150175000Y-111043624D02*
X150175000Y-112323376D01*
X139527971Y-112187971D02*
X139527971Y-112527971D01*
X151490624Y-109728000D02*
X150175000Y-111043624D01*
X157734000Y-111760000D02*
X157734000Y-110744000D01*
X139380000Y-112040000D02*
X139527971Y-112187971D01*
X152703356Y-109941499D02*
X152489857Y-109728000D01*
X157734000Y-110744000D02*
X156895800Y-109905800D01*
X140050000Y-113050000D02*
X139527971Y-112527971D01*
X150175000Y-112323376D02*
X149534876Y-112963500D01*
D15*
%TO.N,/USB_D-*%
X152658443Y-111625000D02*
X151944240Y-110910797D01*
X156747600Y-111472600D02*
X156152400Y-111472600D01*
X156152400Y-111472600D02*
X156000000Y-111625000D01*
X156000000Y-111625000D02*
X152658443Y-111625000D01*
%TO.N,/USB_D+*%
X156845577Y-110906006D02*
X156719956Y-110780385D01*
X152023028Y-110519428D02*
X151892000Y-110388400D01*
X152910600Y-111407000D02*
X152379362Y-110875762D01*
X152136554Y-110519428D02*
X152023028Y-110519428D01*
X152379362Y-110875762D02*
X152379362Y-110762236D01*
X156075342Y-111023193D02*
X156075342Y-111241360D01*
X156075342Y-111241360D02*
X155909702Y-111407000D01*
X156719956Y-110780385D02*
X156318150Y-110780385D01*
X156318150Y-110780385D02*
X156075342Y-111023193D01*
X152379362Y-110762236D02*
X152136554Y-110519428D01*
X155909702Y-111407000D02*
X152910600Y-111407000D01*
%TO.N,/TRACE_CLK*%
X145933074Y-88937000D02*
X146939000Y-89942926D01*
X141324083Y-85748000D02*
X141527083Y-85748000D01*
X148525000Y-92275000D02*
X148525000Y-92450000D01*
X148525000Y-92450000D02*
X148625000Y-92550000D01*
X143582274Y-85875000D02*
X143782274Y-86075000D01*
X146939000Y-89942926D02*
X146939000Y-90689000D01*
X141857083Y-85875000D02*
X141900000Y-85875000D01*
X145262600Y-88662600D02*
X145537000Y-88937000D01*
X146939000Y-90689000D02*
X148525000Y-92275000D01*
X145262600Y-87503000D02*
X145262600Y-88662600D01*
X143834600Y-86075000D02*
X145262600Y-87503000D01*
X141654083Y-85875000D02*
X141857083Y-85875000D01*
X145537000Y-88937000D02*
X145933074Y-88937000D01*
X140459600Y-85875000D02*
X141197083Y-85875000D01*
X141900000Y-85875000D02*
X143582274Y-85875000D01*
X140436600Y-85852000D02*
X140459600Y-85875000D01*
X143782274Y-86075000D02*
X143834600Y-86075000D01*
X141527083Y-85748000D02*
G75*
G02*
X141590600Y-85811500I17J-63500D01*
G01*
X141260583Y-85811500D02*
G75*
G02*
X141324083Y-85747983I63517J0D01*
G01*
X141197083Y-85875000D02*
G75*
G03*
X141260600Y-85811500I17J63500D01*
G01*
X141590583Y-85811500D02*
G75*
G03*
X141654083Y-85875017I63517J0D01*
G01*
%TO.N,/TRACE_D2*%
X142068500Y-87025000D02*
X142068500Y-86961500D01*
X141728500Y-87025000D02*
X141728500Y-87088500D01*
X143702728Y-87025000D02*
X143763864Y-87086136D01*
X138525000Y-87025000D02*
X139625000Y-87025000D01*
X146158576Y-91583576D02*
X146211001Y-91636001D01*
X141388500Y-87025000D02*
X141388500Y-86961500D01*
X140092000Y-87025000D02*
X140305000Y-87025000D01*
X146587498Y-92087620D02*
X146587498Y-92382835D01*
X145631527Y-89664999D02*
X146158576Y-90192048D01*
X142132000Y-86898000D02*
X142345000Y-86898000D01*
X140432000Y-87152000D02*
X140645000Y-87152000D01*
X142408500Y-87025000D02*
X142408500Y-87088500D01*
X146587498Y-92382835D02*
X146826172Y-92621509D01*
X141112000Y-87152000D02*
X141325000Y-87152000D01*
X142748500Y-87025000D02*
X142748500Y-86961500D01*
X141792000Y-87152000D02*
X142005000Y-87152000D01*
X141388500Y-87088500D02*
X141388500Y-87025000D01*
X146158576Y-90192048D02*
X146158576Y-91583576D01*
X143763864Y-87086136D02*
X144495000Y-87817272D01*
X142472000Y-87152000D02*
X142685000Y-87152000D01*
X143152000Y-87025000D02*
X143365000Y-87025000D01*
X142408500Y-86961500D02*
X142408500Y-87025000D01*
X141452000Y-86898000D02*
X141665000Y-86898000D01*
X141728500Y-86961500D02*
X141728500Y-87025000D01*
X144495000Y-88020000D02*
X144497601Y-88022601D01*
X142812000Y-86898000D02*
X143025000Y-86898000D01*
X144497601Y-88822601D02*
X145339999Y-89664999D01*
X143365000Y-87025000D02*
X143702728Y-87025000D01*
X140772000Y-87025000D02*
X140985000Y-87025000D01*
X146211001Y-91711123D02*
X146587498Y-92087620D01*
X144497601Y-88022601D02*
X144497601Y-88822601D01*
X139752000Y-87152000D02*
X139965000Y-87152000D01*
X142748500Y-87088500D02*
X142748500Y-87025000D01*
X144495000Y-87817272D02*
X144495000Y-88020000D01*
X142068500Y-87088500D02*
X142068500Y-87025000D01*
X137500000Y-86000000D02*
X138525000Y-87025000D01*
X145339999Y-89664999D02*
X145631527Y-89664999D01*
X146211001Y-91636001D02*
X146211001Y-91711123D01*
X140305000Y-87025000D02*
G75*
G02*
X140368500Y-87088500I0J-63500D01*
G01*
X140028500Y-87088500D02*
G75*
G02*
X140092000Y-87025000I63500J0D01*
G01*
X140708500Y-87088500D02*
G75*
G02*
X140772000Y-87025000I63500J0D01*
G01*
X139965000Y-87152000D02*
G75*
G03*
X140028500Y-87088500I0J63500D01*
G01*
X142345000Y-86898000D02*
G75*
G02*
X142408500Y-86961500I0J-63500D01*
G01*
X142748500Y-86961500D02*
G75*
G02*
X142812000Y-86898000I63500J0D01*
G01*
X141665000Y-86898000D02*
G75*
G02*
X141728500Y-86961500I0J-63500D01*
G01*
X139688500Y-87088500D02*
G75*
G03*
X139752000Y-87152000I63500J0D01*
G01*
X141728500Y-87088500D02*
G75*
G03*
X141792000Y-87152000I63500J0D01*
G01*
X139625000Y-87025000D02*
G75*
G02*
X139688500Y-87088500I0J-63500D01*
G01*
X141048500Y-87088500D02*
G75*
G03*
X141112000Y-87152000I63500J0D01*
G01*
X140985000Y-87025000D02*
G75*
G02*
X141048500Y-87088500I0J-63500D01*
G01*
X141388500Y-86961500D02*
G75*
G02*
X141452000Y-86898000I63500J0D01*
G01*
X142408500Y-87088500D02*
G75*
G03*
X142472000Y-87152000I63500J0D01*
G01*
X142068500Y-86961500D02*
G75*
G02*
X142132000Y-86898000I63500J0D01*
G01*
X141325000Y-87152000D02*
G75*
G03*
X141388500Y-87088500I0J63500D01*
G01*
X140368500Y-87088500D02*
G75*
G03*
X140432000Y-87152000I63500J0D01*
G01*
X142005000Y-87152000D02*
G75*
G03*
X142068500Y-87088500I0J63500D01*
G01*
X140645000Y-87152000D02*
G75*
G03*
X140708500Y-87088500I0J63500D01*
G01*
X142685000Y-87152000D02*
G75*
G03*
X142748500Y-87088500I0J63500D01*
G01*
X143088500Y-86961500D02*
G75*
G03*
X143152000Y-87025000I63500J0D01*
G01*
X143025000Y-86898000D02*
G75*
G02*
X143088500Y-86961500I0J-63500D01*
G01*
%TO.N,/TRACE_D1*%
X143505000Y-86575000D02*
X143565000Y-86575000D01*
X138892434Y-86150000D02*
X138892434Y-86111234D01*
X142795000Y-86575000D02*
X143085000Y-86575000D01*
X146429001Y-91429001D02*
X146429001Y-91620825D01*
X144752601Y-87714249D02*
X144752601Y-88769303D01*
X141345000Y-86575000D02*
X142795000Y-86575000D01*
X140241000Y-86709000D02*
X140241000Y-86671000D01*
X140817000Y-86575000D02*
X140865000Y-86575000D01*
X141057000Y-86805000D02*
X141105000Y-86805000D01*
X139267968Y-86517968D02*
X139301911Y-86551911D01*
X143613352Y-86575000D02*
X143881676Y-86843324D01*
X145737151Y-89409999D02*
X146413576Y-90086424D01*
X138893202Y-86756971D02*
X139132204Y-86517968D01*
X143265000Y-86755000D02*
X143325000Y-86755000D01*
X140481000Y-86671000D02*
X140481000Y-86709000D01*
X143881676Y-86843324D02*
X144752601Y-87714249D01*
X138723497Y-86723030D02*
X138757438Y-86756971D01*
X141201000Y-86709000D02*
X141201000Y-86671000D01*
X146413576Y-91413576D02*
X146429001Y-91429001D01*
X138962500Y-86348264D02*
X138723497Y-86587266D01*
X139301911Y-86551911D02*
X139325000Y-86575000D01*
X140577000Y-86805000D02*
X140625000Y-86805000D01*
X144752601Y-88769303D02*
X145393297Y-89409999D01*
X138750000Y-86000000D02*
X138962500Y-86212500D01*
X140721000Y-86709000D02*
X140721000Y-86671000D01*
X146429001Y-91620825D02*
X147154088Y-92345912D01*
X140097000Y-86805000D02*
X140145000Y-86805000D01*
X141297000Y-86575000D02*
X141345000Y-86575000D01*
X146413576Y-90086424D02*
X146413576Y-91413576D01*
X138892434Y-86111234D02*
X138760200Y-85979000D01*
X143565000Y-86575000D02*
X143613352Y-86575000D01*
X139615000Y-86575000D02*
X139905000Y-86575000D01*
X140001000Y-86671000D02*
X140001000Y-86709000D01*
X145393297Y-89409999D02*
X145737151Y-89409999D01*
X140337000Y-86575000D02*
X140385000Y-86575000D01*
X139325000Y-86575000D02*
X139615000Y-86575000D01*
X140961000Y-86671000D02*
X140961000Y-86709000D01*
X143415000Y-86665000D02*
G75*
G02*
X143505000Y-86575000I90000J0D01*
G01*
X143175000Y-86665000D02*
G75*
G03*
X143265000Y-86755000I90000J0D01*
G01*
X141201000Y-86671000D02*
G75*
G02*
X141297000Y-86575000I96000J0D01*
G01*
X140385000Y-86575000D02*
G75*
G02*
X140481000Y-86671000I0J-96000D01*
G01*
X140721000Y-86671000D02*
G75*
G02*
X140817000Y-86575000I96000J0D01*
G01*
X141105000Y-86805000D02*
G75*
G03*
X141201000Y-86709000I0J96000D01*
G01*
X138757438Y-86756971D02*
G75*
G03*
X138893202Y-86756971I67882J67881D01*
G01*
X140001000Y-86709000D02*
G75*
G03*
X140097000Y-86805000I96000J0D01*
G01*
X140865000Y-86575000D02*
G75*
G02*
X140961000Y-86671000I0J-96000D01*
G01*
X138723497Y-86587266D02*
G75*
G03*
X138723545Y-86722982I67903J-67834D01*
G01*
X140625000Y-86805000D02*
G75*
G03*
X140721000Y-86709000I0J96000D01*
G01*
X140961000Y-86709000D02*
G75*
G03*
X141057000Y-86805000I96000J0D01*
G01*
X143085000Y-86575000D02*
G75*
G02*
X143175000Y-86665000I0J-90000D01*
G01*
X139132204Y-86517968D02*
G75*
G02*
X139267968Y-86517968I67882J-67881D01*
G01*
X140241000Y-86671000D02*
G75*
G02*
X140337000Y-86575000I96000J0D01*
G01*
X138962500Y-86212500D02*
G75*
G02*
X138962518Y-86348282I-67900J-67900D01*
G01*
X140145000Y-86805000D02*
G75*
G03*
X140241000Y-86709000I0J96000D01*
G01*
X139905000Y-86575000D02*
G75*
G02*
X140001000Y-86671000I0J-96000D01*
G01*
X140481000Y-86709000D02*
G75*
G03*
X140577000Y-86805000I96000J0D01*
G01*
X143325000Y-86755000D02*
G75*
G03*
X143415000Y-86665000I0J90000D01*
G01*
%TO.N,/TRACE_D0*%
X148050000Y-92200000D02*
X146684000Y-90834000D01*
X145842776Y-89155000D02*
X145446596Y-89155000D01*
X143665476Y-86266500D02*
X139809700Y-86266500D01*
X145446596Y-89155000D02*
X145007601Y-88716005D01*
X145007601Y-88716005D02*
X145007601Y-87608625D01*
X145007601Y-87608625D02*
X143665476Y-86266500D01*
X139809700Y-86266500D02*
X139522200Y-85979000D01*
X146684000Y-89996224D02*
X145842776Y-89155000D01*
X146684000Y-90834000D02*
X146684000Y-89996224D01*
X148050000Y-92400000D02*
X148050000Y-92200000D01*
%TD*%
%TA.AperFunction,Conductor*%
%TO.N,GND*%
G36*
X138856803Y-112103517D02*
G01*
X138894577Y-112162295D01*
X138895364Y-112165097D01*
X138903974Y-112197230D01*
X138913608Y-112233187D01*
X138946554Y-112290250D01*
X138979500Y-112347314D01*
X138979502Y-112347316D01*
X138991152Y-112358966D01*
X139005855Y-112385893D01*
X139022448Y-112411712D01*
X139023339Y-112417912D01*
X139024637Y-112420289D01*
X139027471Y-112446647D01*
X139027471Y-112527953D01*
X139027468Y-112593844D01*
X139027470Y-112593861D01*
X139042379Y-112649500D01*
X139042380Y-112649505D01*
X139061571Y-112721142D01*
X139061597Y-112721203D01*
X139061982Y-112721856D01*
X139071696Y-112738681D01*
X139092144Y-112774098D01*
X139092146Y-112774104D01*
X139092148Y-112774104D01*
X139127457Y-112835268D01*
X139127471Y-112835286D01*
X139174047Y-112881861D01*
X139174052Y-112881866D01*
X139226728Y-112934547D01*
X139226766Y-112934580D01*
X139649500Y-113357314D01*
X139742686Y-113450500D01*
X139742687Y-113450501D01*
X139742689Y-113450502D01*
X139766068Y-113464000D01*
X139766071Y-113464001D01*
X139856808Y-113516389D01*
X139856809Y-113516389D01*
X139856814Y-113516392D01*
X139984107Y-113550500D01*
X139984108Y-113550500D01*
X139984109Y-113550500D01*
X141136890Y-113550500D01*
X141136892Y-113550500D01*
X141264186Y-113516392D01*
X141326157Y-113480612D01*
X141388157Y-113464000D01*
X149600766Y-113464000D01*
X149600768Y-113464000D01*
X149728062Y-113429892D01*
X149842190Y-113364000D01*
X150238919Y-112967271D01*
X150300242Y-112933786D01*
X150369934Y-112938770D01*
X150425867Y-112980642D01*
X150450284Y-113046106D01*
X150450600Y-113054952D01*
X150450600Y-114166117D01*
X150430915Y-114233156D01*
X150378111Y-114278911D01*
X150326600Y-114290117D01*
X138775600Y-114290117D01*
X138708561Y-114270432D01*
X138662806Y-114217628D01*
X138651600Y-114166117D01*
X138651600Y-112197230D01*
X138671285Y-112130191D01*
X138724089Y-112084436D01*
X138793247Y-112074492D01*
X138856803Y-112103517D01*
G37*
%TD.AperFunction*%
%TA.AperFunction,Conductor*%
G36*
X152014485Y-111429113D02*
G01*
X152035127Y-111445747D01*
X152465643Y-111876263D01*
X152533943Y-111915695D01*
X152537244Y-111917601D01*
X152617104Y-111939000D01*
X152617106Y-111939000D01*
X156041337Y-111939000D01*
X156041339Y-111939000D01*
X156104323Y-111922123D01*
X156121200Y-111917601D01*
X156192800Y-111876263D01*
X156254876Y-111814186D01*
X156265154Y-111807351D01*
X156287204Y-111800497D01*
X156307467Y-111789434D01*
X156330918Y-111786912D01*
X156331876Y-111786615D01*
X156332382Y-111786755D01*
X156333825Y-111786600D01*
X156337779Y-111786600D01*
X156404818Y-111806285D01*
X156425460Y-111822919D01*
X156455636Y-111853095D01*
X156564064Y-111915695D01*
X156684999Y-111948100D01*
X156685001Y-111948100D01*
X156810199Y-111948100D01*
X156810201Y-111948100D01*
X156931136Y-111915695D01*
X157039564Y-111853095D01*
X157046397Y-111846261D01*
X157107715Y-111812777D01*
X157177407Y-111817759D01*
X157233342Y-111859628D01*
X157253851Y-111901846D01*
X157257731Y-111916324D01*
X157267608Y-111953187D01*
X157279687Y-111974108D01*
X157333500Y-112067314D01*
X157426686Y-112160500D01*
X157540814Y-112226392D01*
X157668108Y-112260500D01*
X157668110Y-112260500D01*
X157799890Y-112260500D01*
X157799892Y-112260500D01*
X157927186Y-112226392D01*
X158041314Y-112160500D01*
X158134500Y-112067314D01*
X158134500Y-112067313D01*
X158138919Y-112062895D01*
X158200242Y-112029410D01*
X158269934Y-112034394D01*
X158325867Y-112076266D01*
X158350284Y-112141730D01*
X158350600Y-112150576D01*
X158350600Y-114166117D01*
X158330915Y-114233156D01*
X158278111Y-114278911D01*
X158226600Y-114290117D01*
X151925600Y-114290117D01*
X151858561Y-114270432D01*
X151812806Y-114217628D01*
X151801600Y-114166117D01*
X151801600Y-111533428D01*
X151804150Y-111524742D01*
X151802862Y-111515781D01*
X151813840Y-111491740D01*
X151821285Y-111466389D01*
X151828125Y-111460461D01*
X151831887Y-111452225D01*
X151854121Y-111437935D01*
X151874089Y-111420634D01*
X151884603Y-111418346D01*
X151890665Y-111414451D01*
X151925600Y-111409428D01*
X151947446Y-111409428D01*
X152014485Y-111429113D01*
G37*
%TD.AperFunction*%
%TA.AperFunction,Conductor*%
G36*
X150393912Y-108780618D02*
G01*
X150421300Y-108782577D01*
X150427683Y-108787355D01*
X150435505Y-108788916D01*
X150455254Y-108807993D01*
X150477235Y-108824448D01*
X150481610Y-108833454D01*
X150485757Y-108837460D01*
X150487831Y-108846259D01*
X150492781Y-108856449D01*
X150493796Y-108856029D01*
X150496905Y-108863536D01*
X150559505Y-108971964D01*
X150648036Y-109060495D01*
X150756464Y-109123095D01*
X150877399Y-109155500D01*
X150877401Y-109155500D01*
X151002600Y-109155500D01*
X151002601Y-109155500D01*
X151037405Y-109146174D01*
X151040457Y-109146246D01*
X151043140Y-109144782D01*
X151075158Y-109147071D01*
X151107253Y-109147835D01*
X151109784Y-109149548D01*
X151112832Y-109149766D01*
X151138536Y-109169007D01*
X151165116Y-109186997D01*
X151166318Y-109189804D01*
X151168766Y-109191637D01*
X151179985Y-109221718D01*
X151192622Y-109251224D01*
X151192115Y-109254238D01*
X151193183Y-109257101D01*
X151186360Y-109288466D01*
X151181037Y-109320127D01*
X151178785Y-109323288D01*
X151178332Y-109325374D01*
X151157181Y-109353629D01*
X151090124Y-109420686D01*
X151090123Y-109420686D01*
X151090122Y-109420687D01*
X151090122Y-109420688D01*
X149850245Y-110660564D01*
X149850244Y-110660564D01*
X149850245Y-110660565D01*
X149774500Y-110736310D01*
X149708608Y-110850436D01*
X149674500Y-110977732D01*
X149674500Y-112064700D01*
X149654815Y-112131739D01*
X149638181Y-112152381D01*
X149363881Y-112426681D01*
X149302558Y-112460166D01*
X149276200Y-112463000D01*
X141091607Y-112463000D01*
X140971113Y-112495286D01*
X140964315Y-112497107D01*
X140964314Y-112497108D01*
X140902342Y-112532887D01*
X140840343Y-112549500D01*
X140308676Y-112549500D01*
X140279235Y-112540855D01*
X140249249Y-112534332D01*
X140244233Y-112530577D01*
X140241637Y-112529815D01*
X140220995Y-112513181D01*
X140064790Y-112356976D01*
X140031305Y-112295653D01*
X140028471Y-112269295D01*
X140028471Y-112122081D01*
X140028471Y-112122079D01*
X139994363Y-111994785D01*
X139928471Y-111880657D01*
X139888832Y-111841018D01*
X139856738Y-111785430D01*
X139846392Y-111746814D01*
X139780500Y-111632686D01*
X139687314Y-111539500D01*
X139595788Y-111486657D01*
X139595787Y-111486656D01*
X139573188Y-111473609D01*
X139573187Y-111473608D01*
X139573186Y-111473608D01*
X139445892Y-111439500D01*
X139314108Y-111439500D01*
X139186812Y-111473608D01*
X139072686Y-111539500D01*
X139072683Y-111539502D01*
X138979502Y-111632683D01*
X138979500Y-111632686D01*
X138913608Y-111746812D01*
X138903974Y-111782769D01*
X138895934Y-111812777D01*
X138895375Y-111814862D01*
X138859010Y-111874523D01*
X138796163Y-111905052D01*
X138726787Y-111896757D01*
X138672910Y-111852272D01*
X138651635Y-111785720D01*
X138651600Y-111782769D01*
X138651600Y-111387399D01*
X140354500Y-111387399D01*
X140354500Y-111512601D01*
X140386905Y-111633536D01*
X140449505Y-111741964D01*
X140538036Y-111830495D01*
X140646464Y-111893095D01*
X140767399Y-111925500D01*
X140767401Y-111925500D01*
X140892599Y-111925500D01*
X140892601Y-111925500D01*
X141013536Y-111893095D01*
X141045870Y-111874426D01*
X141113769Y-111857952D01*
X141169870Y-111874423D01*
X141221360Y-111904151D01*
X141342295Y-111936556D01*
X141342297Y-111936556D01*
X141467495Y-111936556D01*
X141467497Y-111936556D01*
X141588432Y-111904151D01*
X141696860Y-111841551D01*
X141785391Y-111753020D01*
X141847991Y-111644592D01*
X141880396Y-111523657D01*
X141880396Y-111398455D01*
X141847991Y-111277520D01*
X141785391Y-111169092D01*
X141696860Y-111080561D01*
X141588432Y-111017961D01*
X141588433Y-111017961D01*
X141546611Y-111006755D01*
X141467497Y-110985556D01*
X141342295Y-110985556D01*
X141302766Y-110996148D01*
X141221358Y-111017961D01*
X141221357Y-111017962D01*
X141189019Y-111036632D01*
X141121119Y-111053102D01*
X141065023Y-111036630D01*
X141013542Y-111006908D01*
X141013537Y-111006905D01*
X140949342Y-110989704D01*
X140892601Y-110974500D01*
X140767399Y-110974500D01*
X140710658Y-110989704D01*
X140646463Y-111006905D01*
X140538037Y-111069504D01*
X140538034Y-111069506D01*
X140449506Y-111158034D01*
X140449504Y-111158037D01*
X140386905Y-111266463D01*
X140380849Y-111289064D01*
X140354500Y-111387399D01*
X138651600Y-111387399D01*
X138651600Y-110888974D01*
X138652262Y-110888007D01*
X138651600Y-110864548D01*
X138651600Y-110850599D01*
X138651600Y-110844456D01*
X138650858Y-110837876D01*
X138649837Y-110801446D01*
X138644751Y-110780413D01*
X138648127Y-110710626D01*
X138688697Y-110653742D01*
X138753581Y-110627822D01*
X138822178Y-110641095D01*
X138827274Y-110643880D01*
X138932264Y-110704495D01*
X139053199Y-110736900D01*
X139053201Y-110736900D01*
X139178399Y-110736900D01*
X139178401Y-110736900D01*
X139299336Y-110704495D01*
X139380910Y-110657399D01*
X142954500Y-110657399D01*
X142954500Y-110782601D01*
X142986905Y-110903536D01*
X143049505Y-111011964D01*
X143138036Y-111100495D01*
X143246464Y-111163095D01*
X143367399Y-111195500D01*
X143367401Y-111195500D01*
X143492599Y-111195500D01*
X143492601Y-111195500D01*
X143613536Y-111163095D01*
X143721964Y-111100495D01*
X143762819Y-111059640D01*
X143824142Y-111026155D01*
X143893834Y-111031139D01*
X143949767Y-111073011D01*
X143974184Y-111138475D01*
X143974500Y-111147321D01*
X143974500Y-111202601D01*
X144006905Y-111323536D01*
X144069505Y-111431964D01*
X144158036Y-111520495D01*
X144266464Y-111583095D01*
X144387399Y-111615500D01*
X144387401Y-111615500D01*
X144512599Y-111615500D01*
X144512601Y-111615500D01*
X144633536Y-111583095D01*
X144741964Y-111520495D01*
X144830495Y-111431964D01*
X144893095Y-111323536D01*
X144925500Y-111202601D01*
X144925500Y-111077399D01*
X144893095Y-110956464D01*
X144882088Y-110937399D01*
X145144500Y-110937399D01*
X145144500Y-111062601D01*
X145176905Y-111183536D01*
X145239505Y-111291964D01*
X145328036Y-111380495D01*
X145436464Y-111443095D01*
X145557399Y-111475500D01*
X145585488Y-111475500D01*
X145652527Y-111495185D01*
X145698282Y-111547989D01*
X145705260Y-111567400D01*
X145706905Y-111573536D01*
X145769505Y-111681964D01*
X145858036Y-111770495D01*
X145966464Y-111833095D01*
X146087399Y-111865500D01*
X146087401Y-111865500D01*
X146212599Y-111865500D01*
X146212601Y-111865500D01*
X146333536Y-111833095D01*
X146441964Y-111770495D01*
X146530495Y-111681964D01*
X146581101Y-111594309D01*
X146631666Y-111546094D01*
X146700273Y-111532870D01*
X146765138Y-111558837D01*
X146776169Y-111568628D01*
X146848036Y-111640495D01*
X146956464Y-111703095D01*
X147077399Y-111735500D01*
X147077401Y-111735500D01*
X147202599Y-111735500D01*
X147202601Y-111735500D01*
X147323536Y-111703095D01*
X147431964Y-111640495D01*
X147520495Y-111551964D01*
X147582082Y-111445289D01*
X147632648Y-111397075D01*
X147701255Y-111383851D01*
X147766120Y-111409819D01*
X147777150Y-111419609D01*
X147858036Y-111500495D01*
X147966464Y-111563095D01*
X148087399Y-111595500D01*
X148087401Y-111595500D01*
X148212599Y-111595500D01*
X148212601Y-111595500D01*
X148333536Y-111563095D01*
X148441964Y-111500495D01*
X148530495Y-111411964D01*
X148593095Y-111303536D01*
X148625500Y-111182601D01*
X148625500Y-111057399D01*
X148593095Y-110936464D01*
X148530495Y-110828036D01*
X148441964Y-110739505D01*
X148333536Y-110676905D01*
X148333537Y-110676905D01*
X148293224Y-110666103D01*
X148212601Y-110644500D01*
X148087399Y-110644500D01*
X148006775Y-110666103D01*
X147966463Y-110676905D01*
X147858037Y-110739504D01*
X147858034Y-110739506D01*
X147769506Y-110828034D01*
X147769502Y-110828039D01*
X147707917Y-110934709D01*
X147657350Y-110982925D01*
X147588743Y-110996148D01*
X147523878Y-110970180D01*
X147512849Y-110960390D01*
X147431965Y-110879506D01*
X147431964Y-110879505D01*
X147323536Y-110816905D01*
X147323537Y-110816905D01*
X147283224Y-110806103D01*
X147202601Y-110784500D01*
X147122496Y-110784500D01*
X147055457Y-110764815D01*
X147015108Y-110722498D01*
X147009392Y-110712598D01*
X146979352Y-110660565D01*
X146977843Y-110657951D01*
X146977839Y-110657946D01*
X146889311Y-110569418D01*
X146889310Y-110569417D01*
X146780882Y-110506817D01*
X146780883Y-110506817D01*
X146740570Y-110496015D01*
X146659947Y-110474412D01*
X146534745Y-110474412D01*
X146454121Y-110496015D01*
X146413809Y-110506817D01*
X146305383Y-110569416D01*
X146305380Y-110569418D01*
X146216850Y-110657948D01*
X146200125Y-110686918D01*
X146149557Y-110735133D01*
X146080950Y-110748355D01*
X146016086Y-110722387D01*
X146005057Y-110712598D01*
X145911965Y-110619506D01*
X145911964Y-110619505D01*
X145803536Y-110556905D01*
X145803537Y-110556905D01*
X145727250Y-110536464D01*
X145682601Y-110524500D01*
X145557399Y-110524500D01*
X145512750Y-110536464D01*
X145436463Y-110556905D01*
X145328037Y-110619504D01*
X145328034Y-110619506D01*
X145239506Y-110708034D01*
X145239504Y-110708037D01*
X145176905Y-110816463D01*
X145167758Y-110850599D01*
X145144500Y-110937399D01*
X144882088Y-110937399D01*
X144830495Y-110848036D01*
X144741964Y-110759505D01*
X144736217Y-110753758D01*
X144737821Y-110752153D01*
X144703548Y-110705206D01*
X144699401Y-110635459D01*
X144712853Y-110601274D01*
X144723095Y-110583536D01*
X144755500Y-110462601D01*
X144755500Y-110337399D01*
X144723095Y-110216464D01*
X144660495Y-110108036D01*
X144571964Y-110019505D01*
X144463536Y-109956905D01*
X144463537Y-109956905D01*
X144430726Y-109948113D01*
X144342601Y-109924500D01*
X144217399Y-109924500D01*
X144129273Y-109948113D01*
X144096463Y-109956905D01*
X143988037Y-110019504D01*
X143988034Y-110019506D01*
X143899506Y-110108034D01*
X143899504Y-110108037D01*
X143836905Y-110216463D01*
X143836902Y-110216471D01*
X143834777Y-110224402D01*
X143798410Y-110284061D01*
X143735562Y-110314588D01*
X143666187Y-110306290D01*
X143653005Y-110299692D01*
X143613536Y-110276905D01*
X143613537Y-110276905D01*
X143573224Y-110266103D01*
X143492601Y-110244500D01*
X143367399Y-110244500D01*
X143286775Y-110266103D01*
X143246463Y-110276905D01*
X143138037Y-110339504D01*
X143138034Y-110339506D01*
X143049506Y-110428034D01*
X143049504Y-110428037D01*
X142986905Y-110536463D01*
X142978233Y-110568828D01*
X142954500Y-110657399D01*
X139380910Y-110657399D01*
X139407764Y-110641895D01*
X139496295Y-110553364D01*
X139558895Y-110444936D01*
X139591300Y-110324001D01*
X139591300Y-110198799D01*
X139558895Y-110077864D01*
X139496295Y-109969436D01*
X139423940Y-109897081D01*
X139390455Y-109835758D01*
X139395439Y-109766066D01*
X139437311Y-109710133D01*
X139502775Y-109685716D01*
X139511621Y-109685400D01*
X146689022Y-109685400D01*
X146786564Y-109665996D01*
X146834015Y-109656558D01*
X146970597Y-109599984D01*
X147034802Y-109557084D01*
X147093518Y-109517852D01*
X147146319Y-109465051D01*
X147207642Y-109431565D01*
X147277334Y-109436549D01*
X147321682Y-109465050D01*
X147938980Y-110082348D01*
X147938984Y-110082351D01*
X148061898Y-110164480D01*
X148061911Y-110164487D01*
X148187396Y-110216464D01*
X148198487Y-110221058D01*
X148343477Y-110249898D01*
X148343481Y-110249899D01*
X148343482Y-110249899D01*
X148491318Y-110249899D01*
X148491319Y-110249898D01*
X148636312Y-110221058D01*
X148772894Y-110164484D01*
X148895815Y-110082351D01*
X149000351Y-109977815D01*
X149082484Y-109854894D01*
X149139058Y-109718312D01*
X149167899Y-109573317D01*
X149167899Y-109425482D01*
X149139058Y-109280487D01*
X149136193Y-109273571D01*
X149094102Y-109171952D01*
X149086633Y-109102483D01*
X149117908Y-109040004D01*
X149177997Y-109004352D01*
X149208663Y-109000500D01*
X149863920Y-109000500D01*
X149982173Y-108976977D01*
X150008913Y-108971658D01*
X150145495Y-108915084D01*
X150215140Y-108868549D01*
X150268416Y-108832952D01*
X150295803Y-108805564D01*
X150301953Y-108800793D01*
X150327508Y-108790754D01*
X150351609Y-108777594D01*
X150359562Y-108778162D01*
X150366985Y-108775247D01*
X150393912Y-108780618D01*
G37*
%TD.AperFunction*%
%TA.AperFunction,Conductor*%
G36*
X149633625Y-88558883D02*
G01*
X149636666Y-88558593D01*
X149665196Y-88573301D01*
X149694402Y-88586639D01*
X149696872Y-88589631D01*
X149698769Y-88590609D01*
X149720586Y-88618352D01*
X149737919Y-88648374D01*
X149743722Y-88658424D01*
X149743724Y-88658427D01*
X149870310Y-88809289D01*
X149979351Y-88900784D01*
X150016235Y-88931733D01*
X150021172Y-88935875D01*
X150021175Y-88935878D01*
X150125770Y-88996266D01*
X150191726Y-89034346D01*
X150376787Y-89101702D01*
X150491784Y-89121979D01*
X150521232Y-89136573D01*
X150551173Y-89150138D01*
X150552386Y-89152013D01*
X150554387Y-89153005D01*
X150571272Y-89181207D01*
X150589124Y-89208803D01*
X150589556Y-89211746D01*
X150590278Y-89212952D01*
X150594251Y-89243722D01*
X150594722Y-89400419D01*
X150594230Y-89406347D01*
X150594761Y-89425674D01*
X150594807Y-89428694D01*
X150594866Y-89447994D01*
X150595536Y-89453889D01*
X150674897Y-92341086D01*
X150675600Y-92366659D01*
X150675600Y-92496179D01*
X150680217Y-92528293D01*
X150680420Y-92535389D01*
X150673268Y-92562597D01*
X150669264Y-92590443D01*
X150664505Y-92595934D01*
X150662658Y-92602963D01*
X150641931Y-92621985D01*
X150623508Y-92643246D01*
X150616534Y-92645293D01*
X150611181Y-92650207D01*
X150583460Y-92655004D01*
X150556469Y-92662929D01*
X150544487Y-92661748D01*
X150542335Y-92662121D01*
X150540531Y-92661358D01*
X150532280Y-92660546D01*
X150469207Y-92648000D01*
X150325992Y-92648000D01*
X150185549Y-92675935D01*
X150185549Y-92675936D01*
X150068178Y-92724551D01*
X150558113Y-93214487D01*
X151048047Y-93704421D01*
X151059541Y-93702135D01*
X151081676Y-93674666D01*
X151147970Y-93652599D01*
X151215669Y-93669876D01*
X151233602Y-93682807D01*
X151404324Y-93830738D01*
X151577394Y-93941964D01*
X151623996Y-93971913D01*
X151850826Y-94075502D01*
X151903630Y-94121257D01*
X151923315Y-94188297D01*
X151903631Y-94255336D01*
X151902417Y-94257187D01*
X151853341Y-94330633D01*
X151798538Y-94462941D01*
X151798536Y-94462949D01*
X151770600Y-94603392D01*
X151770600Y-94746607D01*
X151798535Y-94887050D01*
X151798538Y-94887059D01*
X151847150Y-95004420D01*
X152249405Y-94602167D01*
X152310728Y-94568682D01*
X152380420Y-94573666D01*
X152424767Y-94602167D01*
X152426889Y-94604289D01*
X152412824Y-94618355D01*
X152397600Y-94655109D01*
X152397600Y-94694891D01*
X152412824Y-94731645D01*
X152440955Y-94759776D01*
X152477709Y-94775000D01*
X152517491Y-94775000D01*
X152554245Y-94759776D01*
X152582376Y-94731645D01*
X152597600Y-94694891D01*
X152597600Y-94655109D01*
X152582376Y-94618355D01*
X152568310Y-94604289D01*
X152570432Y-94602168D01*
X152631755Y-94568683D01*
X152701447Y-94573667D01*
X152745794Y-94602168D01*
X153148047Y-95004421D01*
X153196661Y-94887058D01*
X153196663Y-94887050D01*
X153221458Y-94762399D01*
X154924500Y-94762399D01*
X154924500Y-94887601D01*
X154956905Y-95008536D01*
X155019505Y-95116964D01*
X155108036Y-95205495D01*
X155216464Y-95268095D01*
X155337399Y-95300500D01*
X155337401Y-95300500D01*
X155462599Y-95300500D01*
X155462601Y-95300500D01*
X155583536Y-95268095D01*
X155691964Y-95205495D01*
X155780495Y-95116964D01*
X155843095Y-95008536D01*
X155875500Y-94887601D01*
X155875500Y-94762399D01*
X155843095Y-94641464D01*
X155780495Y-94533036D01*
X155691964Y-94444505D01*
X155583536Y-94381905D01*
X155583537Y-94381905D01*
X155543224Y-94371103D01*
X155462601Y-94349500D01*
X155337399Y-94349500D01*
X155256775Y-94371103D01*
X155216463Y-94381905D01*
X155108037Y-94444504D01*
X155108034Y-94444506D01*
X155019506Y-94533034D01*
X155019504Y-94533037D01*
X154956905Y-94641463D01*
X154943010Y-94693320D01*
X154924500Y-94762399D01*
X153221458Y-94762399D01*
X153224599Y-94746607D01*
X153224600Y-94746603D01*
X153224600Y-94603396D01*
X153224599Y-94603392D01*
X153196663Y-94462949D01*
X153196661Y-94462941D01*
X153141859Y-94330636D01*
X153094419Y-94259637D01*
X153073541Y-94192959D01*
X153092026Y-94125579D01*
X153144004Y-94078889D01*
X153145913Y-94077996D01*
X153260980Y-94025447D01*
X154268177Y-94025447D01*
X154385541Y-94074061D01*
X154385549Y-94074063D01*
X154525992Y-94101999D01*
X154525996Y-94102000D01*
X154669204Y-94102000D01*
X154669207Y-94101999D01*
X154809650Y-94074063D01*
X154809658Y-94074061D01*
X154927021Y-94025447D01*
X154597601Y-93696026D01*
X154597600Y-93696026D01*
X154268177Y-94025447D01*
X153260980Y-94025447D01*
X153378204Y-93971913D01*
X153597876Y-93830738D01*
X153763447Y-93687269D01*
X153827001Y-93658246D01*
X153896159Y-93668190D01*
X153935238Y-93702052D01*
X153947150Y-93704421D01*
X154296464Y-93355109D01*
X154497600Y-93355109D01*
X154497600Y-93394891D01*
X154512824Y-93431645D01*
X154540955Y-93459776D01*
X154577709Y-93475000D01*
X154617491Y-93475000D01*
X154654245Y-93459776D01*
X154682376Y-93431645D01*
X154697600Y-93394891D01*
X154697600Y-93374999D01*
X154918626Y-93374999D01*
X154918626Y-93375000D01*
X155248047Y-93704421D01*
X155296661Y-93587058D01*
X155296663Y-93587050D01*
X155324599Y-93446607D01*
X155324600Y-93446604D01*
X155324600Y-93303396D01*
X155324599Y-93303392D01*
X155296663Y-93162949D01*
X155296661Y-93162941D01*
X155248047Y-93045577D01*
X154918626Y-93374999D01*
X154697600Y-93374999D01*
X154697600Y-93355109D01*
X154682376Y-93318355D01*
X154654245Y-93290224D01*
X154617491Y-93275000D01*
X154577709Y-93275000D01*
X154540955Y-93290224D01*
X154512824Y-93318355D01*
X154497600Y-93355109D01*
X154296464Y-93355109D01*
X154415617Y-93235957D01*
X154437087Y-93214487D01*
X154927021Y-92724550D01*
X154818687Y-92679678D01*
X154764283Y-92635837D01*
X154742218Y-92569543D01*
X154759497Y-92501844D01*
X154810634Y-92454233D01*
X154866139Y-92441117D01*
X158492027Y-92441117D01*
X158506811Y-92442001D01*
X158666652Y-92461197D01*
X158689667Y-92466214D01*
X158833965Y-92512400D01*
X158838974Y-92514003D01*
X158860624Y-92523281D01*
X158998200Y-92598443D01*
X159017703Y-92611647D01*
X159127221Y-92702088D01*
X159138583Y-92711470D01*
X159155240Y-92728128D01*
X159255060Y-92849009D01*
X159268265Y-92868513D01*
X159343427Y-93006094D01*
X159352701Y-93027735D01*
X159362267Y-93057620D01*
X159400489Y-93177045D01*
X159405506Y-93200061D01*
X159424716Y-93360052D01*
X159425600Y-93374834D01*
X159425600Y-109755244D01*
X159424451Y-109772087D01*
X159411557Y-109866136D01*
X159405076Y-109892120D01*
X159373948Y-109976702D01*
X159362039Y-110000687D01*
X159313481Y-110076608D01*
X159296700Y-110097479D01*
X159232967Y-110161210D01*
X159212096Y-110177990D01*
X159136172Y-110226547D01*
X159112186Y-110238455D01*
X159027606Y-110269579D01*
X159001620Y-110276060D01*
X158905454Y-110289240D01*
X158892092Y-110290339D01*
X158864231Y-110291119D01*
X158854360Y-110293187D01*
X158833681Y-110294657D01*
X158713985Y-110329282D01*
X158713982Y-110329283D01*
X158650145Y-110363611D01*
X158604236Y-110388299D01*
X158604234Y-110388300D01*
X158604233Y-110388301D01*
X158509346Y-110469069D01*
X158433560Y-110567981D01*
X158433556Y-110567989D01*
X158432072Y-110571125D01*
X158430708Y-110572655D01*
X158430136Y-110573594D01*
X158429965Y-110573489D01*
X158385599Y-110623298D01*
X158318296Y-110642063D01*
X158251532Y-110621463D01*
X158206504Y-110568038D01*
X158200749Y-110551677D01*
X158200392Y-110550814D01*
X158192106Y-110536463D01*
X158134500Y-110436686D01*
X158041314Y-110343500D01*
X157203114Y-109505300D01*
X157133399Y-109465050D01*
X157088987Y-109439408D01*
X157019114Y-109420686D01*
X156961692Y-109405300D01*
X156961691Y-109405300D01*
X156305430Y-109405300D01*
X156238391Y-109385615D01*
X156192636Y-109332811D01*
X156182692Y-109263653D01*
X156211717Y-109200097D01*
X156217749Y-109193619D01*
X156662949Y-108748418D01*
X156662948Y-108748418D01*
X156662952Y-108748415D01*
X156704326Y-108686494D01*
X156745084Y-108625495D01*
X156772422Y-108559495D01*
X156801659Y-108488912D01*
X156830500Y-108343917D01*
X156830500Y-108196082D01*
X156830500Y-107762229D01*
X156850185Y-107695190D01*
X156866819Y-107674548D01*
X157063483Y-107477884D01*
X157262951Y-107278416D01*
X157271864Y-107265076D01*
X157345084Y-107155495D01*
X157401658Y-107018913D01*
X157416049Y-106946565D01*
X157430500Y-106873920D01*
X157430500Y-101183279D01*
X157401659Y-101038292D01*
X157401658Y-101038291D01*
X157401658Y-101038287D01*
X157388897Y-101007479D01*
X157377093Y-100978980D01*
X157369624Y-100909511D01*
X157400900Y-100847032D01*
X157460989Y-100811380D01*
X157523746Y-100811753D01*
X157595199Y-100830900D01*
X157595200Y-100830900D01*
X157720399Y-100830900D01*
X157720401Y-100830900D01*
X157841336Y-100798495D01*
X157949764Y-100735895D01*
X158038295Y-100647364D01*
X158100895Y-100538936D01*
X158133300Y-100418001D01*
X158133300Y-100292799D01*
X158100895Y-100171864D01*
X158038295Y-100063436D01*
X157949764Y-99974905D01*
X157841336Y-99912305D01*
X157841337Y-99912305D01*
X157771275Y-99893532D01*
X157720401Y-99879900D01*
X157595199Y-99879900D01*
X157544325Y-99893532D01*
X157474263Y-99912305D01*
X157365837Y-99974904D01*
X157365834Y-99974906D01*
X157277306Y-100063434D01*
X157277304Y-100063437D01*
X157214705Y-100171863D01*
X157213061Y-100177999D01*
X157192132Y-100256108D01*
X157182300Y-100292800D01*
X157182300Y-100398770D01*
X157162615Y-100465809D01*
X157109811Y-100511564D01*
X157040653Y-100521508D01*
X156977097Y-100492483D01*
X156970619Y-100486451D01*
X154201121Y-97716952D01*
X154121568Y-97637399D01*
X155024500Y-97637399D01*
X155024500Y-97762601D01*
X155056905Y-97883536D01*
X155119505Y-97991964D01*
X155208036Y-98080495D01*
X155316464Y-98143095D01*
X155437399Y-98175500D01*
X155437401Y-98175500D01*
X155562599Y-98175500D01*
X155562601Y-98175500D01*
X155683536Y-98143095D01*
X155791964Y-98080495D01*
X155880495Y-97991964D01*
X155943095Y-97883536D01*
X155975500Y-97762601D01*
X155975500Y-97637399D01*
X155943095Y-97516464D01*
X155880495Y-97408036D01*
X155791964Y-97319505D01*
X155683536Y-97256905D01*
X155683537Y-97256905D01*
X155634412Y-97243742D01*
X155562601Y-97224500D01*
X155437399Y-97224500D01*
X155365588Y-97243742D01*
X155316463Y-97256905D01*
X155208037Y-97319504D01*
X155208034Y-97319506D01*
X155119506Y-97408034D01*
X155119504Y-97408037D01*
X155056905Y-97516463D01*
X155056905Y-97516464D01*
X155024500Y-97637399D01*
X154121568Y-97637399D01*
X153602221Y-97118052D01*
X153602214Y-97118046D01*
X153525861Y-97067029D01*
X153525762Y-97066964D01*
X153487033Y-97041086D01*
X153442229Y-96987475D01*
X153433872Y-96920941D01*
X153433239Y-96920858D01*
X153433557Y-96918435D01*
X153433522Y-96918150D01*
X153433711Y-96917266D01*
X153434300Y-96912800D01*
X153434300Y-96787600D01*
X153427852Y-96763536D01*
X153414150Y-96712399D01*
X156349500Y-96712399D01*
X156349500Y-96837601D01*
X156381905Y-96958536D01*
X156444505Y-97066964D01*
X156533036Y-97155495D01*
X156641464Y-97218095D01*
X156762399Y-97250500D01*
X156762401Y-97250500D01*
X156887599Y-97250500D01*
X156887601Y-97250500D01*
X157008536Y-97218095D01*
X157116964Y-97155495D01*
X157205495Y-97066964D01*
X157268095Y-96958536D01*
X157300500Y-96837601D01*
X157300500Y-96712399D01*
X157268095Y-96591464D01*
X157205495Y-96483036D01*
X157116964Y-96394505D01*
X157008536Y-96331905D01*
X157008537Y-96331905D01*
X156968224Y-96321103D01*
X156887601Y-96299500D01*
X156762399Y-96299500D01*
X156681775Y-96321103D01*
X156641463Y-96331905D01*
X156533037Y-96394504D01*
X156533034Y-96394506D01*
X156444506Y-96483034D01*
X156444504Y-96483037D01*
X156381905Y-96591463D01*
X156376911Y-96610100D01*
X156349500Y-96712399D01*
X153414150Y-96712399D01*
X153401895Y-96666664D01*
X153339295Y-96558236D01*
X153250764Y-96469705D01*
X153142336Y-96407105D01*
X153142337Y-96407105D01*
X153095309Y-96394504D01*
X153021401Y-96374700D01*
X152896199Y-96374700D01*
X152822291Y-96394504D01*
X152775263Y-96407105D01*
X152666837Y-96469704D01*
X152666834Y-96469706D01*
X152634886Y-96501654D01*
X152573562Y-96535139D01*
X152503871Y-96530153D01*
X152459525Y-96501653D01*
X151330187Y-95372314D01*
X151283320Y-95325447D01*
X152168177Y-95325447D01*
X152285541Y-95374061D01*
X152285549Y-95374063D01*
X152425992Y-95401999D01*
X152425996Y-95402000D01*
X152569204Y-95402000D01*
X152569207Y-95401999D01*
X152709650Y-95374063D01*
X152709658Y-95374061D01*
X152827021Y-95325447D01*
X152497601Y-94996026D01*
X152497600Y-94996026D01*
X152168177Y-95325447D01*
X151283320Y-95325447D01*
X150761633Y-94803760D01*
X150727933Y-94781243D01*
X150672085Y-94743927D01*
X150638708Y-94721625D01*
X150638706Y-94721624D01*
X150638703Y-94721622D01*
X150502130Y-94665052D01*
X150502120Y-94665049D01*
X150357133Y-94636209D01*
X150357131Y-94636209D01*
X149708938Y-94636209D01*
X149641899Y-94616524D01*
X149621257Y-94599890D01*
X149608418Y-94587051D01*
X149608414Y-94587048D01*
X149485500Y-94504919D01*
X149485487Y-94504912D01*
X149348916Y-94448343D01*
X149348906Y-94448340D01*
X149323552Y-94443297D01*
X149261641Y-94410912D01*
X149227067Y-94350196D01*
X149230808Y-94280426D01*
X149260061Y-94234001D01*
X149468616Y-94025447D01*
X150068177Y-94025447D01*
X150185541Y-94074061D01*
X150185549Y-94074063D01*
X150325992Y-94101999D01*
X150325996Y-94102000D01*
X150469204Y-94102000D01*
X150469207Y-94101999D01*
X150609650Y-94074063D01*
X150609658Y-94074061D01*
X150727021Y-94025447D01*
X150397601Y-93696026D01*
X150397600Y-93696026D01*
X150068177Y-94025447D01*
X149468616Y-94025447D01*
X149508763Y-93985300D01*
X149550101Y-93913699D01*
X149559383Y-93879058D01*
X149571500Y-93833839D01*
X149571500Y-93820576D01*
X149591185Y-93753537D01*
X149643989Y-93707782D01*
X149713147Y-93697838D01*
X149719692Y-93698959D01*
X149747151Y-93704421D01*
X150076573Y-93375000D01*
X150056682Y-93355109D01*
X150297600Y-93355109D01*
X150297600Y-93394891D01*
X150312824Y-93431645D01*
X150340955Y-93459776D01*
X150377709Y-93475000D01*
X150417491Y-93475000D01*
X150454245Y-93459776D01*
X150482376Y-93431645D01*
X150497600Y-93394891D01*
X150497600Y-93355109D01*
X150482376Y-93318355D01*
X150454245Y-93290224D01*
X150417491Y-93275000D01*
X150377709Y-93275000D01*
X150340955Y-93290224D01*
X150312824Y-93318355D01*
X150297600Y-93355109D01*
X150056682Y-93355109D01*
X149747150Y-93045577D01*
X149719691Y-93051039D01*
X149650099Y-93044812D01*
X149594922Y-93001948D01*
X149571678Y-92936058D01*
X149571500Y-92929422D01*
X149571500Y-92190963D01*
X149571500Y-92190962D01*
X149550101Y-92111102D01*
X149550101Y-92111101D01*
X149508762Y-92039500D01*
X149508079Y-92038817D01*
X149503708Y-92030594D01*
X149500106Y-92013098D01*
X149489199Y-91972390D01*
X149489199Y-91700196D01*
X149502289Y-91651349D01*
X149499992Y-91650398D01*
X149503099Y-91642895D01*
X149503098Y-91642895D01*
X149503101Y-91642892D01*
X149512885Y-91606376D01*
X149524500Y-91563031D01*
X149524500Y-91136969D01*
X149503101Y-91057109D01*
X149503101Y-91057108D01*
X149498876Y-91041340D01*
X149500230Y-91040977D01*
X149489199Y-90999803D01*
X149489199Y-88680352D01*
X149490059Y-88677421D01*
X149489339Y-88674452D01*
X149499843Y-88644099D01*
X149508884Y-88613313D01*
X149511191Y-88611313D01*
X149512191Y-88608425D01*
X149537440Y-88588568D01*
X149561688Y-88567558D01*
X149564710Y-88567123D01*
X149567113Y-88565234D01*
X149599075Y-88562182D01*
X149630846Y-88557614D01*
X149633625Y-88558883D01*
G37*
%TD.AperFunction*%
%TA.AperFunction,Conductor*%
G36*
X140260503Y-87425385D02*
G01*
X140286287Y-87440272D01*
X140286288Y-87440272D01*
X140286291Y-87440274D01*
X140382301Y-87466000D01*
X140382304Y-87466000D01*
X140694696Y-87466000D01*
X140694699Y-87466000D01*
X140790709Y-87440274D01*
X140800428Y-87434663D01*
X140868328Y-87418188D01*
X140934355Y-87441039D01*
X140977547Y-87495959D01*
X140984191Y-87565512D01*
X140966505Y-87606284D01*
X140967695Y-87606971D01*
X140964446Y-87612597D01*
X140964446Y-87612598D01*
X140957774Y-87624155D01*
X140878997Y-87760600D01*
X140826187Y-87923132D01*
X140826186Y-87923134D01*
X140808322Y-88093100D01*
X140826186Y-88263065D01*
X140826187Y-88263067D01*
X140878997Y-88425599D01*
X140925330Y-88505850D01*
X140960705Y-88567123D01*
X140964445Y-88573600D01*
X140964448Y-88573605D01*
X141078794Y-88700600D01*
X141078801Y-88700606D01*
X141217056Y-88801054D01*
X141217057Y-88801054D01*
X141217061Y-88801057D01*
X141342125Y-88856739D01*
X141373180Y-88870566D01*
X141373185Y-88870568D01*
X141540350Y-88906100D01*
X141540351Y-88906100D01*
X143438448Y-88906100D01*
X143438450Y-88906100D01*
X143605615Y-88870568D01*
X143761739Y-88801057D01*
X143900000Y-88700605D01*
X143967452Y-88625691D01*
X143985192Y-88614762D01*
X143999887Y-88599990D01*
X144014339Y-88596806D01*
X144026937Y-88589045D01*
X144047769Y-88589441D01*
X144068120Y-88584958D01*
X144081998Y-88590092D01*
X144096794Y-88590374D01*
X144114107Y-88601972D01*
X144133649Y-88609202D01*
X144142548Y-88621024D01*
X144154842Y-88629260D01*
X144163135Y-88648374D01*
X144175668Y-88665024D01*
X144179496Y-88686083D01*
X144182652Y-88693357D01*
X144183261Y-88699492D01*
X144183601Y-88704075D01*
X144183601Y-88863940D01*
X144196978Y-88913862D01*
X144199998Y-88925135D01*
X144199999Y-88925139D01*
X144204998Y-88943796D01*
X144205003Y-88943807D01*
X144246333Y-89015394D01*
X144246337Y-89015399D01*
X144246338Y-89015401D01*
X145147199Y-89916262D01*
X145189677Y-89940786D01*
X145218800Y-89957600D01*
X145298660Y-89978999D01*
X145450102Y-89978999D01*
X145517141Y-89998684D01*
X145537783Y-90015318D01*
X145808257Y-90285792D01*
X145841742Y-90347115D01*
X145844576Y-90373473D01*
X145844576Y-91624915D01*
X145852992Y-91656324D01*
X145852993Y-91656327D01*
X145855274Y-91664838D01*
X145865975Y-91704776D01*
X145895589Y-91756071D01*
X145898515Y-91762921D01*
X145898972Y-91766778D01*
X145904251Y-91779523D01*
X145911951Y-91808256D01*
X145911952Y-91808258D01*
X145918400Y-91832323D01*
X145918401Y-91832326D01*
X145959735Y-91903919D01*
X145959739Y-91903924D01*
X146185281Y-92129466D01*
X146218766Y-92190789D01*
X146213782Y-92260481D01*
X146171910Y-92316414D01*
X146129695Y-92336921D01*
X146092844Y-92346795D01*
X146092839Y-92346797D01*
X145984413Y-92409396D01*
X145984410Y-92409398D01*
X145895882Y-92497926D01*
X145895880Y-92497929D01*
X145833281Y-92606355D01*
X145831863Y-92611648D01*
X145800876Y-92727291D01*
X145800876Y-92852493D01*
X145833281Y-92973428D01*
X145895881Y-93081856D01*
X145984412Y-93170387D01*
X146092840Y-93232987D01*
X146213775Y-93265392D01*
X146213777Y-93265392D01*
X146338975Y-93265392D01*
X146338977Y-93265392D01*
X146459912Y-93232987D01*
X146568340Y-93170387D01*
X146616846Y-93121881D01*
X146678169Y-93088396D01*
X146736622Y-93089788D01*
X146745456Y-93092155D01*
X146763571Y-93097009D01*
X146763572Y-93097009D01*
X146888771Y-93097009D01*
X146888773Y-93097009D01*
X147009708Y-93064604D01*
X147118136Y-93002004D01*
X147168903Y-92951236D01*
X147230224Y-92917752D01*
X147288674Y-92919142D01*
X147312399Y-92925500D01*
X147312402Y-92925500D01*
X147437599Y-92925500D01*
X147437601Y-92925500D01*
X147558536Y-92893095D01*
X147666964Y-92830495D01*
X147666970Y-92830488D01*
X147673409Y-92825549D01*
X147674733Y-92827274D01*
X147726023Y-92799260D01*
X147795715Y-92804234D01*
X147814396Y-92813034D01*
X147866464Y-92843095D01*
X147987399Y-92875500D01*
X147987401Y-92875500D01*
X148112599Y-92875500D01*
X148112601Y-92875500D01*
X148173928Y-92859067D01*
X148243777Y-92860730D01*
X148293702Y-92891161D01*
X148333036Y-92930495D01*
X148441464Y-92993095D01*
X148562399Y-93025500D01*
X148562401Y-93025500D01*
X148601500Y-93025500D01*
X148668539Y-93045185D01*
X148714294Y-93097989D01*
X148725500Y-93149500D01*
X148725500Y-93429074D01*
X148705815Y-93496113D01*
X148689181Y-93516755D01*
X147095788Y-95110147D01*
X147070108Y-95129852D01*
X147037406Y-95148732D01*
X147037397Y-95148739D01*
X146128938Y-96057198D01*
X146128932Y-96057206D01*
X146087602Y-96128793D01*
X146087597Y-96128805D01*
X146085986Y-96134814D01*
X146085987Y-96134815D01*
X146066200Y-96208661D01*
X146066200Y-102789181D01*
X146046515Y-102856220D01*
X145993711Y-102901975D01*
X145933229Y-102911038D01*
X145933229Y-102912000D01*
X145926816Y-102912000D01*
X145926015Y-102912120D01*
X145925103Y-102912000D01*
X145925101Y-102912000D01*
X145799899Y-102912000D01*
X145719275Y-102933603D01*
X145678963Y-102944405D01*
X145570537Y-103007004D01*
X145570534Y-103007006D01*
X145482006Y-103095534D01*
X145482004Y-103095537D01*
X145419405Y-103203963D01*
X145403202Y-103264431D01*
X145387000Y-103324899D01*
X145387000Y-103450101D01*
X145419405Y-103571036D01*
X145482005Y-103679464D01*
X145570536Y-103767995D01*
X145678964Y-103830595D01*
X145799899Y-103863000D01*
X145799901Y-103863000D01*
X145925099Y-103863000D01*
X145925101Y-103863000D01*
X145925102Y-103862999D01*
X145926002Y-103862881D01*
X145926766Y-103863000D01*
X145933229Y-103863000D01*
X145933229Y-103864007D01*
X145995038Y-103873639D01*
X146047299Y-103920014D01*
X146066200Y-103985818D01*
X146066200Y-104717077D01*
X146057555Y-104746517D01*
X146051032Y-104776504D01*
X146047277Y-104781519D01*
X146046515Y-104784116D01*
X146029881Y-104804758D01*
X146025981Y-104808658D01*
X145964658Y-104842143D01*
X145894966Y-104837159D01*
X145839033Y-104795287D01*
X145814616Y-104729823D01*
X145814300Y-104720977D01*
X145814300Y-104661600D01*
X145814300Y-104661599D01*
X145781895Y-104540664D01*
X145719295Y-104432236D01*
X145630764Y-104343705D01*
X145522336Y-104281105D01*
X145522337Y-104281105D01*
X145465352Y-104265836D01*
X145401401Y-104248700D01*
X145276199Y-104248700D01*
X145212248Y-104265836D01*
X145155263Y-104281105D01*
X145046837Y-104343704D01*
X145046834Y-104343706D01*
X144958306Y-104432234D01*
X144958304Y-104432237D01*
X144895705Y-104540663D01*
X144893569Y-104548634D01*
X144863300Y-104661599D01*
X144863300Y-104786801D01*
X144895705Y-104907736D01*
X144958305Y-105016164D01*
X145046836Y-105104695D01*
X145046837Y-105104696D01*
X145046839Y-105104697D01*
X145062496Y-105113736D01*
X145110714Y-105164301D01*
X145124500Y-105221125D01*
X145124500Y-105312601D01*
X145156905Y-105433536D01*
X145219505Y-105541964D01*
X145308036Y-105630495D01*
X145416464Y-105693095D01*
X145537399Y-105725500D01*
X145537401Y-105725500D01*
X145662600Y-105725500D01*
X145662601Y-105725500D01*
X145662601Y-105725499D01*
X145670658Y-105724439D01*
X145671126Y-105727999D01*
X145679734Y-105728180D01*
X145704647Y-105724598D01*
X145714068Y-105728900D01*
X145724424Y-105729118D01*
X145745306Y-105743166D01*
X145768203Y-105753623D01*
X145773803Y-105762337D01*
X145782396Y-105768118D01*
X145792368Y-105791225D01*
X145805977Y-105812401D01*
X145808210Y-105827933D01*
X145810081Y-105832268D01*
X145811000Y-105847336D01*
X145811000Y-106064498D01*
X145791315Y-106131537D01*
X145738511Y-106177292D01*
X145669353Y-106187236D01*
X145654907Y-106184273D01*
X145555817Y-106157722D01*
X145430615Y-106157722D01*
X145357580Y-106177292D01*
X145309679Y-106190127D01*
X145201253Y-106252726D01*
X145201250Y-106252728D01*
X145112722Y-106341256D01*
X145112720Y-106341259D01*
X145050121Y-106449685D01*
X145050119Y-106449690D01*
X145020665Y-106559611D01*
X144984300Y-106619271D01*
X144921452Y-106649799D01*
X144852077Y-106641504D01*
X144813210Y-106615197D01*
X144519363Y-106321350D01*
X144519355Y-106321344D01*
X144447768Y-106280013D01*
X144447759Y-106280010D01*
X144425720Y-106274104D01*
X144425720Y-106274105D01*
X144367901Y-106258612D01*
X142672241Y-106258612D01*
X142614422Y-106274105D01*
X142614421Y-106274104D01*
X142592380Y-106280010D01*
X142592373Y-106280013D01*
X142520786Y-106321344D01*
X142520778Y-106321350D01*
X142444973Y-106397154D01*
X142383650Y-106430639D01*
X142313958Y-106425653D01*
X142269612Y-106397153D01*
X142241965Y-106369506D01*
X142241964Y-106369505D01*
X142133536Y-106306905D01*
X142133537Y-106306905D01*
X142093224Y-106296103D01*
X142012601Y-106274500D01*
X141887399Y-106274500D01*
X141806775Y-106296103D01*
X141766463Y-106306905D01*
X141658037Y-106369504D01*
X141658034Y-106369506D01*
X141569506Y-106458034D01*
X141569504Y-106458037D01*
X141506905Y-106566463D01*
X141498814Y-106596659D01*
X141474500Y-106687399D01*
X141474500Y-106812601D01*
X141506905Y-106933536D01*
X141548267Y-107005179D01*
X141569504Y-107041962D01*
X141569506Y-107041965D01*
X141597153Y-107069612D01*
X141601490Y-107077556D01*
X141608739Y-107082982D01*
X141617975Y-107107744D01*
X141630638Y-107130935D01*
X141629992Y-107139963D01*
X141633156Y-107148446D01*
X141627539Y-107174268D01*
X141625654Y-107200627D01*
X141619836Y-107209679D01*
X141618305Y-107216719D01*
X141597154Y-107244974D01*
X141442446Y-107399682D01*
X141381126Y-107433166D01*
X141354767Y-107436000D01*
X140759821Y-107436000D01*
X140692782Y-107416315D01*
X140672140Y-107399681D01*
X140641965Y-107369506D01*
X140641964Y-107369505D01*
X140533536Y-107306905D01*
X140533531Y-107306903D01*
X140422356Y-107277113D01*
X140362696Y-107240748D01*
X140332168Y-107177901D01*
X140330998Y-107145707D01*
X140331976Y-107135324D01*
X140346328Y-107081764D01*
X140346328Y-106982999D01*
X140346875Y-106977194D01*
X140357747Y-106949937D01*
X140366013Y-106921787D01*
X140370793Y-106917228D01*
X140372761Y-106912297D01*
X140385520Y-106903186D01*
X140403779Y-106885776D01*
X140403520Y-106885439D01*
X140406662Y-106883028D01*
X140408328Y-106881438D01*
X140409964Y-106880495D01*
X140498495Y-106791964D01*
X140561095Y-106683536D01*
X140593500Y-106562601D01*
X140593500Y-106437399D01*
X140561095Y-106316464D01*
X140498495Y-106208036D01*
X140409964Y-106119505D01*
X140301536Y-106056905D01*
X140301537Y-106056905D01*
X140258469Y-106045365D01*
X140180601Y-106024500D01*
X140055399Y-106024500D01*
X139977531Y-106045365D01*
X139934463Y-106056905D01*
X139826037Y-106119504D01*
X139826034Y-106119506D01*
X139737506Y-106208034D01*
X139737504Y-106208037D01*
X139674905Y-106316463D01*
X139674903Y-106316468D01*
X139646450Y-106422653D01*
X139610085Y-106482313D01*
X139547237Y-106512841D01*
X139492038Y-106506572D01*
X139491386Y-106509009D01*
X139483537Y-106506906D01*
X139483536Y-106506905D01*
X139362601Y-106474500D01*
X139237399Y-106474500D01*
X139156775Y-106496103D01*
X139116463Y-106506905D01*
X139008037Y-106569504D01*
X139008034Y-106569506D01*
X138919506Y-106658034D01*
X138919504Y-106658037D01*
X138856905Y-106766463D01*
X138843281Y-106817308D01*
X138824500Y-106887399D01*
X138824500Y-107012601D01*
X138856905Y-107133536D01*
X138919505Y-107241964D01*
X139008036Y-107330495D01*
X139116464Y-107393095D01*
X139237399Y-107425500D01*
X139237401Y-107425500D01*
X139362600Y-107425500D01*
X139362601Y-107425500D01*
X139483536Y-107393095D01*
X139483537Y-107393094D01*
X139491267Y-107391023D01*
X139561117Y-107392685D01*
X139585361Y-107403409D01*
X139687292Y-107462258D01*
X139798471Y-107492049D01*
X139858130Y-107528414D01*
X139888659Y-107591261D01*
X139886151Y-107643916D01*
X139878319Y-107673147D01*
X139874500Y-107687399D01*
X139874500Y-107812601D01*
X139906092Y-107930501D01*
X139906905Y-107933536D01*
X139944354Y-107998401D01*
X139960825Y-108066302D01*
X139937973Y-108132328D01*
X139883051Y-108175518D01*
X139836966Y-108184400D01*
X138057129Y-108184400D01*
X137990090Y-108164715D01*
X137969448Y-108148081D01*
X137163149Y-107341781D01*
X137129664Y-107280458D01*
X137134648Y-107210766D01*
X137176520Y-107154833D01*
X137241984Y-107130416D01*
X137250830Y-107130100D01*
X137298799Y-107130100D01*
X137298801Y-107130100D01*
X137419736Y-107097695D01*
X137528164Y-107035095D01*
X137616695Y-106946564D01*
X137679295Y-106838136D01*
X137711700Y-106717201D01*
X137711700Y-106591999D01*
X137679295Y-106471064D01*
X137616695Y-106362636D01*
X137528164Y-106274105D01*
X137419736Y-106211505D01*
X137419737Y-106211505D01*
X137379424Y-106200703D01*
X137298801Y-106179100D01*
X137173599Y-106179100D01*
X137092975Y-106200703D01*
X137052663Y-106211505D01*
X136944237Y-106274104D01*
X136944236Y-106274105D01*
X136855706Y-106362634D01*
X136855704Y-106362637D01*
X136793105Y-106471063D01*
X136787491Y-106492015D01*
X136766728Y-106569505D01*
X136760700Y-106592000D01*
X136760700Y-106687029D01*
X136741015Y-106754068D01*
X136688211Y-106799823D01*
X136619053Y-106809767D01*
X136578251Y-106796390D01*
X136575498Y-106794919D01*
X136575494Y-106794916D01*
X136438912Y-106738342D01*
X136438906Y-106738340D01*
X136293919Y-106709500D01*
X136293917Y-106709500D01*
X136146083Y-106709500D01*
X136146080Y-106709500D01*
X136027691Y-106733049D01*
X135958100Y-106726822D01*
X135902922Y-106683959D01*
X135879678Y-106618069D01*
X135879500Y-106611432D01*
X135879500Y-104929128D01*
X138256392Y-104929128D01*
X138256392Y-105054330D01*
X138288797Y-105175265D01*
X138351397Y-105283693D01*
X138439928Y-105372224D01*
X138548356Y-105434824D01*
X138582593Y-105443998D01*
X138642253Y-105480361D01*
X138672783Y-105543208D01*
X138674500Y-105563772D01*
X138674500Y-105612601D01*
X138706905Y-105733536D01*
X138769505Y-105841964D01*
X138858036Y-105930495D01*
X138966464Y-105993095D01*
X139087399Y-106025500D01*
X139087401Y-106025500D01*
X139212599Y-106025500D01*
X139212601Y-106025500D01*
X139333536Y-105993095D01*
X139441964Y-105930495D01*
X139530495Y-105841964D01*
X139593095Y-105733536D01*
X139625500Y-105612601D01*
X139625500Y-105487399D01*
X139593095Y-105366464D01*
X139530495Y-105258036D01*
X139441964Y-105169505D01*
X139441963Y-105169504D01*
X139441960Y-105169502D01*
X139395975Y-105142953D01*
X139347760Y-105092386D01*
X139334536Y-105023779D01*
X139360504Y-104958914D01*
X139386343Y-104936527D01*
X139385513Y-104935445D01*
X139391957Y-104930498D01*
X139391964Y-104930495D01*
X139480495Y-104841964D01*
X139543095Y-104733536D01*
X139575500Y-104612601D01*
X139575500Y-104487399D01*
X139543095Y-104366464D01*
X139480495Y-104258036D01*
X139457991Y-104235532D01*
X139455145Y-104230321D01*
X139450223Y-104227005D01*
X139438594Y-104200009D01*
X139424506Y-104174209D01*
X139424323Y-104166881D01*
X139422581Y-104162836D01*
X139423794Y-104145609D01*
X139423345Y-104127550D01*
X139424333Y-104121594D01*
X139445500Y-104042601D01*
X139445500Y-104012399D01*
X140774500Y-104012399D01*
X140774500Y-104137601D01*
X140806905Y-104258536D01*
X140869505Y-104366964D01*
X140958036Y-104455495D01*
X141066464Y-104518095D01*
X141187399Y-104550500D01*
X141187401Y-104550500D01*
X141312599Y-104550500D01*
X141312601Y-104550500D01*
X141433536Y-104518095D01*
X141541964Y-104455495D01*
X141630495Y-104366964D01*
X141693095Y-104258536D01*
X141725500Y-104137601D01*
X141725500Y-104137598D01*
X141726561Y-104129542D01*
X141728229Y-104129761D01*
X141745185Y-104072019D01*
X141797989Y-104026264D01*
X141867147Y-104016320D01*
X141888609Y-104022208D01*
X141888614Y-104022191D01*
X141896462Y-104024293D01*
X141896464Y-104024295D01*
X142017399Y-104056700D01*
X142017401Y-104056700D01*
X142142599Y-104056700D01*
X142142601Y-104056700D01*
X142263536Y-104024295D01*
X142371964Y-103961695D01*
X142460495Y-103873164D01*
X142523095Y-103764736D01*
X142555500Y-103643801D01*
X142555500Y-103518599D01*
X142523095Y-103397664D01*
X142460495Y-103289236D01*
X142371964Y-103200705D01*
X142263536Y-103138105D01*
X142263537Y-103138105D01*
X142223224Y-103127303D01*
X142142601Y-103105700D01*
X142017399Y-103105700D01*
X141896605Y-103138066D01*
X141826757Y-103136404D01*
X141776832Y-103105973D01*
X141719165Y-103048306D01*
X141719164Y-103048305D01*
X141610736Y-102985705D01*
X141610737Y-102985705D01*
X141570424Y-102974903D01*
X141489801Y-102953300D01*
X141364599Y-102953300D01*
X141283975Y-102974903D01*
X141243663Y-102985705D01*
X141135237Y-103048304D01*
X141135234Y-103048306D01*
X141046706Y-103136834D01*
X141046704Y-103136837D01*
X140984105Y-103245263D01*
X140972322Y-103289237D01*
X140951700Y-103366199D01*
X140951700Y-103491401D01*
X140968820Y-103555293D01*
X140977431Y-103587428D01*
X140975768Y-103657278D01*
X140945338Y-103707203D01*
X140869503Y-103783037D01*
X140806905Y-103891463D01*
X140799955Y-103917400D01*
X140774500Y-104012399D01*
X139445500Y-104012399D01*
X139445500Y-103917399D01*
X139413095Y-103796464D01*
X139350495Y-103688036D01*
X139278557Y-103616098D01*
X139245072Y-103554775D01*
X139246464Y-103496321D01*
X139247505Y-103492436D01*
X139255500Y-103462601D01*
X139255500Y-103337399D01*
X139223095Y-103216464D01*
X139160495Y-103108036D01*
X139071964Y-103019505D01*
X138963536Y-102956905D01*
X138963537Y-102956905D01*
X138916886Y-102944405D01*
X138842601Y-102924500D01*
X138717399Y-102924500D01*
X138643114Y-102944405D01*
X138596463Y-102956905D01*
X138488037Y-103019504D01*
X138488034Y-103019506D01*
X138399506Y-103108034D01*
X138399504Y-103108037D01*
X138336905Y-103216463D01*
X138336905Y-103216464D01*
X138304500Y-103337399D01*
X138304500Y-103462601D01*
X138329337Y-103555293D01*
X138336905Y-103583536D01*
X138399503Y-103691962D01*
X138471443Y-103763902D01*
X138504927Y-103825226D01*
X138503536Y-103883675D01*
X138494500Y-103917397D01*
X138494500Y-103917399D01*
X138494500Y-104042601D01*
X138526905Y-104163536D01*
X138581752Y-104258536D01*
X138589504Y-104271962D01*
X138589506Y-104271965D01*
X138612008Y-104294467D01*
X138617760Y-104305002D01*
X138627017Y-104312645D01*
X138634195Y-104335099D01*
X138645493Y-104355790D01*
X138645168Y-104369426D01*
X138648292Y-104379197D01*
X138644102Y-104414241D01*
X138631242Y-104462236D01*
X138594877Y-104521897D01*
X138555082Y-104543635D01*
X138555865Y-104545524D01*
X138548355Y-104548634D01*
X138439929Y-104611233D01*
X138439926Y-104611235D01*
X138351398Y-104699763D01*
X138351396Y-104699766D01*
X138288797Y-104808192D01*
X138287484Y-104813094D01*
X138256392Y-104929128D01*
X135879500Y-104929128D01*
X135879500Y-104179731D01*
X135899185Y-104112692D01*
X135915815Y-104092054D01*
X136413485Y-103594383D01*
X136439159Y-103574682D01*
X136515147Y-103530812D01*
X139183816Y-100862144D01*
X140399500Y-100862144D01*
X140399500Y-100987346D01*
X140431905Y-101108281D01*
X140494505Y-101216709D01*
X140583036Y-101305240D01*
X140691464Y-101367840D01*
X140812399Y-101400245D01*
X140812401Y-101400245D01*
X140937599Y-101400245D01*
X140937601Y-101400245D01*
X141058536Y-101367840D01*
X141166964Y-101305240D01*
X141234805Y-101237399D01*
X143074500Y-101237399D01*
X143074500Y-101362601D01*
X143106905Y-101483536D01*
X143169505Y-101591964D01*
X143258036Y-101680495D01*
X143366464Y-101743095D01*
X143487399Y-101775500D01*
X143487401Y-101775500D01*
X143527679Y-101775500D01*
X143594718Y-101795185D01*
X143640473Y-101847989D01*
X143650417Y-101917147D01*
X143621392Y-101980703D01*
X143615360Y-101987181D01*
X143544506Y-102058034D01*
X143544504Y-102058037D01*
X143481905Y-102166463D01*
X143481905Y-102166464D01*
X143449500Y-102287399D01*
X143449500Y-102412601D01*
X143481905Y-102533536D01*
X143544505Y-102641964D01*
X143633036Y-102730495D01*
X143741464Y-102793095D01*
X143862399Y-102825500D01*
X143862401Y-102825500D01*
X143987599Y-102825500D01*
X143987601Y-102825500D01*
X144108536Y-102793095D01*
X144216964Y-102730495D01*
X144305495Y-102641964D01*
X144368095Y-102533536D01*
X144400500Y-102412601D01*
X144400500Y-102287399D01*
X144378745Y-102206209D01*
X144380408Y-102136362D01*
X144419570Y-102078500D01*
X144436517Y-102066733D01*
X144481964Y-102040495D01*
X144570495Y-101951964D01*
X144633095Y-101843536D01*
X144665500Y-101722601D01*
X144665500Y-101597399D01*
X144633095Y-101476464D01*
X144570495Y-101368036D01*
X144481964Y-101279505D01*
X144373536Y-101216905D01*
X144373537Y-101216905D01*
X144297250Y-101196464D01*
X144252601Y-101184500D01*
X144127399Y-101184500D01*
X144127397Y-101184500D01*
X144121095Y-101185330D01*
X144052060Y-101174562D01*
X143999805Y-101128181D01*
X143997339Y-101123396D01*
X143997158Y-101123502D01*
X143993094Y-101116463D01*
X143930495Y-101008036D01*
X143841964Y-100919505D01*
X143733536Y-100856905D01*
X143733537Y-100856905D01*
X143693224Y-100846103D01*
X143612601Y-100824500D01*
X143487399Y-100824500D01*
X143406775Y-100846103D01*
X143366463Y-100856905D01*
X143258037Y-100919504D01*
X143258034Y-100919506D01*
X143169506Y-101008034D01*
X143169504Y-101008037D01*
X143106905Y-101116463D01*
X143093291Y-101167272D01*
X143074500Y-101237399D01*
X141234805Y-101237399D01*
X141255495Y-101216709D01*
X141318095Y-101108281D01*
X141350500Y-100987346D01*
X141350500Y-100862144D01*
X141318095Y-100741209D01*
X141255495Y-100632781D01*
X141166964Y-100544250D01*
X141058536Y-100481650D01*
X141058537Y-100481650D01*
X141018224Y-100470848D01*
X140937601Y-100449245D01*
X140812399Y-100449245D01*
X140731775Y-100470848D01*
X140691463Y-100481650D01*
X140583037Y-100544249D01*
X140583034Y-100544251D01*
X140494506Y-100632779D01*
X140494504Y-100632782D01*
X140431905Y-100741208D01*
X140431905Y-100741209D01*
X140399500Y-100862144D01*
X139183816Y-100862144D01*
X139412591Y-100633369D01*
X139468609Y-100536343D01*
X139485987Y-100471487D01*
X139522351Y-100411828D01*
X139585198Y-100381299D01*
X139654573Y-100389594D01*
X139693442Y-100415901D01*
X139708036Y-100430495D01*
X139816464Y-100493095D01*
X139937399Y-100525500D01*
X139937401Y-100525500D01*
X140062599Y-100525500D01*
X140062601Y-100525500D01*
X140183536Y-100493095D01*
X140291964Y-100430495D01*
X140380495Y-100341964D01*
X140443095Y-100233536D01*
X140475500Y-100112601D01*
X140475500Y-99987399D01*
X140443095Y-99866464D01*
X140443091Y-99866457D01*
X140416024Y-99819574D01*
X140399551Y-99751674D01*
X140422404Y-99685647D01*
X140435724Y-99669900D01*
X142840485Y-97265140D01*
X142896503Y-97168114D01*
X142925500Y-97059896D01*
X142925500Y-96947859D01*
X142925500Y-96524709D01*
X142945185Y-96457670D01*
X142997989Y-96411915D01*
X143067147Y-96401971D01*
X143096952Y-96410147D01*
X143146490Y-96430667D01*
X143146494Y-96430667D01*
X143146495Y-96430668D01*
X143272162Y-96455666D01*
X143272165Y-96455666D01*
X143400305Y-96455666D01*
X143485665Y-96438686D01*
X143525978Y-96430667D01*
X143644361Y-96381631D01*
X143750903Y-96310442D01*
X143841510Y-96219835D01*
X143912699Y-96113293D01*
X143961735Y-95994910D01*
X143986734Y-95869235D01*
X143986734Y-95741097D01*
X143986734Y-95741094D01*
X143961736Y-95615427D01*
X143961735Y-95615426D01*
X143961735Y-95615422D01*
X143912699Y-95497039D01*
X143912698Y-95497038D01*
X143912695Y-95497032D01*
X143841510Y-95390497D01*
X143841507Y-95390493D01*
X143788195Y-95337181D01*
X143754710Y-95275858D01*
X143759694Y-95206166D01*
X143801566Y-95150233D01*
X143867030Y-95125816D01*
X143875876Y-95125500D01*
X144727516Y-95125500D01*
X144727518Y-95125500D01*
X144835737Y-95096503D01*
X144932763Y-95040485D01*
X145011985Y-94961263D01*
X145054419Y-94887765D01*
X145104983Y-94839552D01*
X145173590Y-94826328D01*
X145238455Y-94852296D01*
X145278984Y-94909210D01*
X145281578Y-94917672D01*
X145310718Y-95026420D01*
X145310720Y-95026425D01*
X145373320Y-95134853D01*
X145461851Y-95223384D01*
X145570279Y-95285984D01*
X145691214Y-95318389D01*
X145691216Y-95318389D01*
X145816414Y-95318389D01*
X145816416Y-95318389D01*
X145937351Y-95285984D01*
X146045779Y-95223384D01*
X146134310Y-95134853D01*
X146196910Y-95026425D01*
X146229315Y-94905490D01*
X146229315Y-94780288D01*
X146196910Y-94659353D01*
X146191111Y-94649308D01*
X146187133Y-94635339D01*
X146180671Y-94625942D01*
X146175831Y-94595646D01*
X146174560Y-94591181D01*
X146174500Y-94589259D01*
X146174500Y-94449105D01*
X146173267Y-94444505D01*
X146145503Y-94340886D01*
X146089485Y-94243860D01*
X145676640Y-93831015D01*
X145605603Y-93790002D01*
X145579616Y-93774998D01*
X145579615Y-93774997D01*
X145579614Y-93774997D01*
X145471395Y-93746000D01*
X144923605Y-93746000D01*
X144873222Y-93759500D01*
X144839004Y-93768668D01*
X144839001Y-93768668D01*
X144815388Y-93774996D01*
X144815386Y-93774996D01*
X144815386Y-93774997D01*
X144794213Y-93787220D01*
X144794208Y-93787223D01*
X144789810Y-93789763D01*
X144789389Y-93790006D01*
X144753875Y-93810510D01*
X144718361Y-93831013D01*
X144535078Y-94014296D01*
X144411061Y-94138312D01*
X144411006Y-94138368D01*
X144410238Y-94139137D01*
X144410237Y-94139138D01*
X144331015Y-94218360D01*
X144326802Y-94225655D01*
X144316254Y-94236591D01*
X144298567Y-94246665D01*
X144283839Y-94260711D01*
X144266541Y-94264908D01*
X144255543Y-94271173D01*
X144243398Y-94270523D01*
X144227011Y-94274500D01*
X142643982Y-94274500D01*
X142535763Y-94303497D01*
X142535760Y-94303498D01*
X142438740Y-94359513D01*
X142438734Y-94359517D01*
X142159517Y-94638734D01*
X142159513Y-94638740D01*
X142103498Y-94735760D01*
X142103497Y-94735763D01*
X142074500Y-94843982D01*
X142074500Y-96776266D01*
X142065855Y-96805703D01*
X142059332Y-96835694D01*
X142055576Y-96840710D01*
X142054815Y-96843305D01*
X142038181Y-96863948D01*
X141972974Y-96929154D01*
X141911650Y-96962638D01*
X141841959Y-96957653D01*
X141797612Y-96929153D01*
X141769965Y-96901506D01*
X141769964Y-96901505D01*
X141661536Y-96838905D01*
X141661537Y-96838905D01*
X141619454Y-96827629D01*
X141540601Y-96806500D01*
X141496000Y-96806500D01*
X141428961Y-96786815D01*
X141383206Y-96734011D01*
X141372000Y-96682500D01*
X141372000Y-96674394D01*
X141347002Y-96548727D01*
X141347001Y-96548726D01*
X141347001Y-96548722D01*
X141303023Y-96442551D01*
X141297966Y-96430341D01*
X141297961Y-96430332D01*
X141226776Y-96323797D01*
X141226773Y-96323793D01*
X141136172Y-96233192D01*
X141136168Y-96233189D01*
X141029633Y-96162004D01*
X141029624Y-96161999D01*
X140911244Y-96112965D01*
X140911238Y-96112963D01*
X140785571Y-96087966D01*
X140785569Y-96087966D01*
X140657431Y-96087966D01*
X140657429Y-96087966D01*
X140531761Y-96112963D01*
X140531755Y-96112965D01*
X140413375Y-96161999D01*
X140413366Y-96162004D01*
X140306831Y-96233189D01*
X140306827Y-96233192D01*
X140216226Y-96323793D01*
X140216223Y-96323797D01*
X140145038Y-96430332D01*
X140145033Y-96430341D01*
X140095999Y-96548721D01*
X140095997Y-96548727D01*
X140071000Y-96674394D01*
X140071000Y-96674397D01*
X140071000Y-96802535D01*
X140071000Y-96802537D01*
X140070999Y-96802537D01*
X140095997Y-96928204D01*
X140095999Y-96928210D01*
X140145033Y-97046590D01*
X140145038Y-97046599D01*
X140216223Y-97153134D01*
X140216226Y-97153138D01*
X140306827Y-97243739D01*
X140306831Y-97243742D01*
X140413366Y-97314927D01*
X140413375Y-97314932D01*
X140424418Y-97319506D01*
X140531756Y-97363967D01*
X140531760Y-97363967D01*
X140531761Y-97363968D01*
X140657428Y-97388966D01*
X140657431Y-97388966D01*
X140785570Y-97388966D01*
X140810660Y-97383974D01*
X140888902Y-97368411D01*
X140958492Y-97374638D01*
X141013670Y-97417500D01*
X141018283Y-97424369D01*
X141028079Y-97440064D01*
X141034905Y-97465536D01*
X141097505Y-97573964D01*
X141135166Y-97611625D01*
X141142662Y-97623634D01*
X141148406Y-97644197D01*
X141158638Y-97662935D01*
X141157619Y-97677176D01*
X141161461Y-97690928D01*
X141155176Y-97711331D01*
X141153654Y-97732627D01*
X141143983Y-97747674D01*
X141140895Y-97757702D01*
X141133563Y-97763887D01*
X141125153Y-97776974D01*
X139839948Y-99062181D01*
X139778625Y-99095666D01*
X139752267Y-99098500D01*
X139726105Y-99098500D01*
X139617886Y-99127497D01*
X139617883Y-99127498D01*
X139520863Y-99183513D01*
X139520857Y-99183517D01*
X138731623Y-99972751D01*
X138731619Y-99972757D01*
X138675604Y-100069777D01*
X138675603Y-100069778D01*
X138648669Y-100170300D01*
X138616575Y-100225887D01*
X136530982Y-102311481D01*
X136469659Y-102344966D01*
X136399967Y-102339982D01*
X136355620Y-102311481D01*
X136327972Y-102283833D01*
X136327971Y-102283832D01*
X136219543Y-102221232D01*
X136219544Y-102221232D01*
X136179231Y-102210430D01*
X136098608Y-102188827D01*
X135973406Y-102188827D01*
X135892782Y-102210430D01*
X135852470Y-102221232D01*
X135744044Y-102283831D01*
X135744041Y-102283833D01*
X135655513Y-102372361D01*
X135655511Y-102372364D01*
X135592912Y-102480790D01*
X135592912Y-102480791D01*
X135560507Y-102601726D01*
X135560507Y-102726928D01*
X135578237Y-102793095D01*
X135592912Y-102847863D01*
X135655511Y-102956289D01*
X135655513Y-102956292D01*
X135664116Y-102964895D01*
X135697601Y-103026218D01*
X135692617Y-103095910D01*
X135664116Y-103140257D01*
X135175296Y-103629078D01*
X135175295Y-103629078D01*
X135175296Y-103629079D01*
X135113514Y-103690861D01*
X135113513Y-103690863D01*
X135057498Y-103787883D01*
X135057497Y-103787886D01*
X135028500Y-103896105D01*
X135028500Y-107897982D01*
X135028500Y-108010018D01*
X135057497Y-108118237D01*
X135113515Y-108215263D01*
X136152490Y-109254238D01*
X136984799Y-110086546D01*
X137018284Y-110147869D01*
X137013300Y-110217561D01*
X136971428Y-110273494D01*
X136905964Y-110297911D01*
X136897954Y-110298224D01*
X133000557Y-110324493D01*
X132999284Y-110324495D01*
X128375663Y-110308194D01*
X128308693Y-110288273D01*
X128263125Y-110235308D01*
X128252100Y-110184195D01*
X128252100Y-109756531D01*
X128252139Y-109756437D01*
X128252100Y-109741588D01*
X128252100Y-109726599D01*
X128252100Y-109715005D01*
X128252027Y-109714295D01*
X128240404Y-105288715D01*
X130423136Y-105288715D01*
X130448134Y-105414382D01*
X130448136Y-105414388D01*
X130497170Y-105532768D01*
X130497175Y-105532777D01*
X130568359Y-105639311D01*
X130568360Y-105639312D01*
X130568361Y-105639313D01*
X130628782Y-105699734D01*
X130662266Y-105761055D01*
X130665100Y-105787414D01*
X130665100Y-106817308D01*
X130665100Y-106949092D01*
X130677151Y-106994067D01*
X130699208Y-107076387D01*
X130718643Y-107110048D01*
X130765100Y-107190514D01*
X130765101Y-107190515D01*
X130765102Y-107190516D01*
X131407559Y-107832972D01*
X131407569Y-107832983D01*
X131411899Y-107837313D01*
X131411900Y-107837314D01*
X131505086Y-107930500D01*
X131599635Y-107985088D01*
X131619214Y-107996392D01*
X131746507Y-108030500D01*
X131746508Y-108030500D01*
X132221324Y-108030500D01*
X132288363Y-108050185D01*
X132309005Y-108066819D01*
X132909732Y-108667546D01*
X132943217Y-108728869D01*
X132938233Y-108798561D01*
X132925154Y-108824116D01*
X132873540Y-108901363D01*
X132873533Y-108901375D01*
X132824499Y-109019755D01*
X132824497Y-109019761D01*
X132799500Y-109145428D01*
X132799500Y-109145431D01*
X132799500Y-109273569D01*
X132799500Y-109273571D01*
X132799499Y-109273571D01*
X132824497Y-109399238D01*
X132824499Y-109399244D01*
X132873533Y-109517624D01*
X132873538Y-109517633D01*
X132944723Y-109624168D01*
X132944726Y-109624172D01*
X133035327Y-109714773D01*
X133035331Y-109714776D01*
X133141866Y-109785961D01*
X133141872Y-109785964D01*
X133141873Y-109785965D01*
X133260256Y-109835001D01*
X133260260Y-109835001D01*
X133260261Y-109835002D01*
X133385928Y-109860000D01*
X133385931Y-109860000D01*
X133514071Y-109860000D01*
X133635938Y-109835758D01*
X133639744Y-109835001D01*
X133758127Y-109785965D01*
X133864669Y-109714776D01*
X133955276Y-109624169D01*
X134026465Y-109517627D01*
X134075501Y-109399244D01*
X134097537Y-109288466D01*
X134100500Y-109273571D01*
X134100500Y-109145428D01*
X134075502Y-109019761D01*
X134075501Y-109019760D01*
X134075501Y-109019756D01*
X134026465Y-108901373D01*
X134026464Y-108901371D01*
X134026458Y-108901361D01*
X133971398Y-108818957D01*
X133950520Y-108752280D01*
X133950500Y-108750067D01*
X133950500Y-108434110D01*
X133950490Y-108434045D01*
X133950250Y-108433177D01*
X133916392Y-108306814D01*
X133850500Y-108192686D01*
X132787314Y-107129500D01*
X132695320Y-107076387D01*
X132673187Y-107063608D01*
X132592412Y-107041965D01*
X132545892Y-107029500D01*
X132545891Y-107029500D01*
X132071075Y-107029500D01*
X132004036Y-107009815D01*
X131983394Y-106993181D01*
X131702419Y-106712205D01*
X131668934Y-106650882D01*
X131666100Y-106624524D01*
X131666100Y-105518813D01*
X131675539Y-105471360D01*
X131677250Y-105467229D01*
X131699138Y-105414388D01*
X131714453Y-105337398D01*
X131724137Y-105288715D01*
X131724137Y-105160572D01*
X131699139Y-105034905D01*
X131699138Y-105034904D01*
X131699138Y-105034900D01*
X131650102Y-104916517D01*
X131650101Y-104916516D01*
X131650098Y-104916510D01*
X131578913Y-104809975D01*
X131578910Y-104809971D01*
X131488310Y-104719371D01*
X131484877Y-104717077D01*
X131472934Y-104709096D01*
X131428130Y-104655487D01*
X131419421Y-104586162D01*
X131449575Y-104523134D01*
X131454110Y-104518348D01*
X131460495Y-104511964D01*
X131523095Y-104403536D01*
X131548855Y-104307399D01*
X132854500Y-104307399D01*
X132854500Y-104432601D01*
X132886905Y-104553536D01*
X132949505Y-104661964D01*
X133038036Y-104750495D01*
X133146464Y-104813095D01*
X133267399Y-104845500D01*
X133267401Y-104845500D01*
X133392599Y-104845500D01*
X133392601Y-104845500D01*
X133513536Y-104813095D01*
X133621964Y-104750495D01*
X133710495Y-104661964D01*
X133773095Y-104553536D01*
X133805500Y-104432601D01*
X133805500Y-104307399D01*
X133773095Y-104186464D01*
X133710495Y-104078036D01*
X133621964Y-103989505D01*
X133513536Y-103926905D01*
X133513537Y-103926905D01*
X133473224Y-103916103D01*
X133392601Y-103894500D01*
X133267399Y-103894500D01*
X133186775Y-103916103D01*
X133146463Y-103926905D01*
X133038037Y-103989504D01*
X133038034Y-103989506D01*
X132949506Y-104078034D01*
X132949504Y-104078037D01*
X132886905Y-104186463D01*
X132870702Y-104246931D01*
X132854500Y-104307399D01*
X131548855Y-104307399D01*
X131555500Y-104282601D01*
X131555500Y-104157399D01*
X131523095Y-104036464D01*
X131460495Y-103928036D01*
X131371964Y-103839505D01*
X131263536Y-103776905D01*
X131263537Y-103776905D01*
X131215009Y-103763902D01*
X131142601Y-103744500D01*
X131017399Y-103744500D01*
X130944991Y-103763902D01*
X130896463Y-103776905D01*
X130788037Y-103839504D01*
X130788034Y-103839506D01*
X130699506Y-103928034D01*
X130699504Y-103928037D01*
X130636905Y-104036463D01*
X130621950Y-104092275D01*
X130604500Y-104157399D01*
X130604500Y-104282601D01*
X130627106Y-104366965D01*
X130636905Y-104403536D01*
X130699504Y-104511962D01*
X130699506Y-104511965D01*
X130700757Y-104513216D01*
X130701474Y-104514530D01*
X130704451Y-104518409D01*
X130703846Y-104518873D01*
X130734242Y-104574539D01*
X130729258Y-104644231D01*
X130687386Y-104700164D01*
X130681970Y-104703997D01*
X130658969Y-104719366D01*
X130658964Y-104719370D01*
X130568363Y-104809971D01*
X130568360Y-104809975D01*
X130497175Y-104916510D01*
X130497170Y-104916519D01*
X130448136Y-105034899D01*
X130448134Y-105034905D01*
X130423137Y-105160572D01*
X130423137Y-105160575D01*
X130423137Y-105288713D01*
X130423137Y-105288715D01*
X130423136Y-105288715D01*
X128240404Y-105288715D01*
X128226795Y-100107399D01*
X136784500Y-100107399D01*
X136784500Y-100232601D01*
X136816905Y-100353536D01*
X136879505Y-100461964D01*
X136968036Y-100550495D01*
X137076464Y-100613095D01*
X137197399Y-100645500D01*
X137197401Y-100645500D01*
X137322599Y-100645500D01*
X137322601Y-100645500D01*
X137443536Y-100613095D01*
X137551964Y-100550495D01*
X137640495Y-100461964D01*
X137703095Y-100353536D01*
X137735500Y-100232601D01*
X137735500Y-100107399D01*
X137703095Y-99986464D01*
X137640495Y-99878036D01*
X137551964Y-99789505D01*
X137443536Y-99726905D01*
X137443537Y-99726905D01*
X137403224Y-99716103D01*
X137322601Y-99694500D01*
X137197399Y-99694500D01*
X137116775Y-99716103D01*
X137076463Y-99726905D01*
X136968037Y-99789504D01*
X136968034Y-99789506D01*
X136879506Y-99878034D01*
X136879504Y-99878037D01*
X136816905Y-99986463D01*
X136816654Y-99987399D01*
X136784500Y-100107399D01*
X128226795Y-100107399D01*
X128201324Y-90409355D01*
X128202226Y-90394100D01*
X128220401Y-90244259D01*
X128225434Y-90221292D01*
X128270395Y-90081318D01*
X128279681Y-90059707D01*
X128350274Y-89930761D01*
X128363483Y-89911285D01*
X128457172Y-89797996D01*
X128473813Y-89781376D01*
X128587227Y-89687825D01*
X128606708Y-89674650D01*
X128735747Y-89604219D01*
X128757377Y-89594958D01*
X128897399Y-89550177D01*
X128920378Y-89545171D01*
X129071081Y-89527086D01*
X129085190Y-89526207D01*
X133905306Y-89501589D01*
X133905999Y-89501857D01*
X133920317Y-89501512D01*
X133934602Y-89501440D01*
X133934603Y-89501439D01*
X133942441Y-89501400D01*
X133947143Y-89500868D01*
X134427523Y-89489325D01*
X134495014Y-89507393D01*
X134542024Y-89559083D01*
X134554500Y-89613289D01*
X134554500Y-93057620D01*
X134534815Y-93124659D01*
X134482011Y-93170414D01*
X134412853Y-93180358D01*
X134398410Y-93177396D01*
X134387601Y-93174500D01*
X134262399Y-93174500D01*
X134181775Y-93196103D01*
X134141463Y-93206905D01*
X134033037Y-93269504D01*
X134033034Y-93269506D01*
X133944506Y-93358034D01*
X133944504Y-93358037D01*
X133881905Y-93466463D01*
X133878161Y-93480437D01*
X133849500Y-93587399D01*
X133849500Y-93712601D01*
X133881905Y-93833536D01*
X133944505Y-93941964D01*
X134033036Y-94030495D01*
X134141464Y-94093095D01*
X134141468Y-94093096D01*
X134148971Y-94096204D01*
X134148047Y-94098432D01*
X134197245Y-94128413D01*
X134227781Y-94191257D01*
X134229500Y-94211832D01*
X134229500Y-94693318D01*
X134229500Y-94693320D01*
X134229499Y-94693320D01*
X134258340Y-94838307D01*
X134258343Y-94838317D01*
X134314913Y-94974890D01*
X134314916Y-94974895D01*
X134325888Y-94991316D01*
X134328017Y-94994501D01*
X134328018Y-94994506D01*
X134328020Y-94994506D01*
X134396169Y-95096501D01*
X134397051Y-95097820D01*
X134397052Y-95097821D01*
X135268891Y-95969658D01*
X135434048Y-96134815D01*
X135434049Y-96134816D01*
X135488514Y-96189281D01*
X135538585Y-96239352D01*
X135661498Y-96321480D01*
X135661511Y-96321487D01*
X135738178Y-96353243D01*
X135798087Y-96378058D01*
X135798091Y-96378058D01*
X135798092Y-96378059D01*
X135943079Y-96406900D01*
X135943082Y-96406900D01*
X137225372Y-96406900D01*
X137292411Y-96426585D01*
X137307577Y-96438806D01*
X137307676Y-96438686D01*
X137312386Y-96442551D01*
X137435300Y-96524680D01*
X137435313Y-96524687D01*
X137516311Y-96558237D01*
X137571889Y-96581258D01*
X137571893Y-96581258D01*
X137571894Y-96581259D01*
X137716881Y-96610100D01*
X137716884Y-96610100D01*
X137864719Y-96610100D01*
X138711803Y-96610100D01*
X138759255Y-96619538D01*
X138832783Y-96649995D01*
X138832787Y-96649995D01*
X138832788Y-96649996D01*
X138977775Y-96678837D01*
X138977778Y-96678837D01*
X139125615Y-96678837D01*
X139223157Y-96659433D01*
X139270608Y-96649995D01*
X139338899Y-96621708D01*
X139407186Y-96593423D01*
X139407187Y-96593422D01*
X139407190Y-96593421D01*
X139530111Y-96511289D01*
X139634647Y-96406753D01*
X139716779Y-96283832D01*
X139773353Y-96147250D01*
X139791264Y-96057206D01*
X139802195Y-96002257D01*
X139802195Y-95854417D01*
X139773354Y-95709430D01*
X139773353Y-95709429D01*
X139773353Y-95709425D01*
X139732499Y-95610796D01*
X139725031Y-95541330D01*
X139756306Y-95478851D01*
X139816394Y-95443198D01*
X139830882Y-95440406D01*
X139831845Y-95440279D01*
X139831852Y-95440279D01*
X139952787Y-95407874D01*
X140061215Y-95345274D01*
X140149746Y-95256743D01*
X140165936Y-95228699D01*
X140216502Y-95180485D01*
X140273323Y-95166700D01*
X140337599Y-95166700D01*
X140337601Y-95166700D01*
X140458536Y-95134295D01*
X140566964Y-95071695D01*
X140655495Y-94983164D01*
X140718095Y-94874736D01*
X140750500Y-94753801D01*
X140750500Y-94628599D01*
X140718095Y-94507664D01*
X140655495Y-94399236D01*
X140566964Y-94310705D01*
X140458536Y-94248105D01*
X140458537Y-94248105D01*
X140415566Y-94236591D01*
X140337601Y-94215700D01*
X140212399Y-94215700D01*
X140134434Y-94236591D01*
X140091463Y-94248105D01*
X139983037Y-94310704D01*
X139983034Y-94310706D01*
X139894506Y-94399234D01*
X139894502Y-94399239D01*
X139878314Y-94427279D01*
X139827747Y-94475495D01*
X139770927Y-94489279D01*
X139706650Y-94489279D01*
X139626026Y-94510882D01*
X139585714Y-94521684D01*
X139477288Y-94584283D01*
X139477285Y-94584285D01*
X139388757Y-94672813D01*
X139388755Y-94672816D01*
X139326156Y-94781242D01*
X139326156Y-94781243D01*
X139297658Y-94887599D01*
X139293751Y-94902179D01*
X139293751Y-95005123D01*
X139274066Y-95072162D01*
X139221262Y-95117917D01*
X139152104Y-95127861D01*
X139145559Y-95126740D01*
X139056878Y-95109100D01*
X139056876Y-95109100D01*
X138153033Y-95109100D01*
X138085994Y-95089415D01*
X138070831Y-95077196D01*
X138070733Y-95077317D01*
X138066016Y-95073446D01*
X137973574Y-95011679D01*
X137973574Y-95011680D01*
X137943097Y-94991316D01*
X137943094Y-94991314D01*
X137943093Y-94991314D01*
X137806519Y-94934743D01*
X137806509Y-94934740D01*
X137661522Y-94905900D01*
X137661520Y-94905900D01*
X136379229Y-94905900D01*
X136312190Y-94886215D01*
X136291548Y-94869581D01*
X135766819Y-94344851D01*
X135733334Y-94283528D01*
X135730500Y-94257170D01*
X135730500Y-94136079D01*
X135701659Y-93991092D01*
X135701658Y-93991091D01*
X135701658Y-93991087D01*
X135672920Y-93921709D01*
X135665452Y-93852242D01*
X135696727Y-93789763D01*
X135755385Y-93754484D01*
X135819536Y-93737295D01*
X135927964Y-93674695D01*
X136016495Y-93586164D01*
X136079095Y-93477736D01*
X136111500Y-93356801D01*
X136111500Y-93231599D01*
X136079095Y-93110664D01*
X136016495Y-93002236D01*
X135927964Y-92913705D01*
X135819536Y-92851105D01*
X135819537Y-92851105D01*
X135770860Y-92838062D01*
X135698601Y-92818700D01*
X135573399Y-92818700D01*
X135573398Y-92818700D01*
X135561590Y-92821864D01*
X135536596Y-92821268D01*
X135511853Y-92824826D01*
X135502270Y-92820450D01*
X135491741Y-92820199D01*
X135471039Y-92806187D01*
X135448297Y-92795801D01*
X135442601Y-92786939D01*
X135433879Y-92781035D01*
X135424039Y-92758054D01*
X135410523Y-92737023D01*
X135408242Y-92721163D01*
X135406377Y-92716806D01*
X135405500Y-92702088D01*
X135405500Y-92512399D01*
X139299500Y-92512399D01*
X139299500Y-92637601D01*
X139331905Y-92758536D01*
X139394505Y-92866964D01*
X139483036Y-92955495D01*
X139591464Y-93018095D01*
X139712399Y-93050500D01*
X139712401Y-93050500D01*
X139837599Y-93050500D01*
X139837601Y-93050500D01*
X139958536Y-93018095D01*
X140066964Y-92955495D01*
X140155495Y-92866964D01*
X140218095Y-92758536D01*
X140250500Y-92637601D01*
X140250500Y-92512399D01*
X140218095Y-92391464D01*
X140155495Y-92283036D01*
X140066964Y-92194505D01*
X139958536Y-92131905D01*
X139958537Y-92131905D01*
X139880899Y-92111102D01*
X139837601Y-92099500D01*
X139712399Y-92099500D01*
X139669101Y-92111102D01*
X139591463Y-92131905D01*
X139483037Y-92194504D01*
X139483034Y-92194506D01*
X139394506Y-92283034D01*
X139394504Y-92283037D01*
X139331905Y-92391463D01*
X139318600Y-92441117D01*
X139299500Y-92512399D01*
X135405500Y-92512399D01*
X135405500Y-89847610D01*
X135425185Y-89780571D01*
X135441819Y-89759929D01*
X135827070Y-89374678D01*
X136240484Y-88961264D01*
X136250567Y-88943801D01*
X136296503Y-88864237D01*
X136299361Y-88853570D01*
X136305517Y-88830599D01*
X136313433Y-88801054D01*
X136325500Y-88756019D01*
X136325500Y-88682134D01*
X136345185Y-88615095D01*
X136397989Y-88569340D01*
X136467147Y-88559396D01*
X136530703Y-88588421D01*
X136541649Y-88599161D01*
X136543996Y-88601768D01*
X136633794Y-88701500D01*
X136633801Y-88701506D01*
X136772056Y-88801954D01*
X136772057Y-88801954D01*
X136772061Y-88801957D01*
X136895103Y-88856739D01*
X136928180Y-88871466D01*
X136928185Y-88871468D01*
X137095350Y-88907000D01*
X137095351Y-88907000D01*
X138993448Y-88907000D01*
X138993450Y-88907000D01*
X139160615Y-88871468D01*
X139316739Y-88801957D01*
X139455000Y-88701505D01*
X139455810Y-88700606D01*
X139544620Y-88601972D01*
X139569354Y-88574502D01*
X139654803Y-88426498D01*
X139707614Y-88263963D01*
X139725478Y-88094000D01*
X139707614Y-87924037D01*
X139654803Y-87761502D01*
X139654802Y-87761500D01*
X139591583Y-87652000D01*
X139575110Y-87584100D01*
X139597963Y-87518073D01*
X139652884Y-87474882D01*
X139698970Y-87466000D01*
X140014696Y-87466000D01*
X140014699Y-87466000D01*
X140110709Y-87440274D01*
X140136497Y-87425384D01*
X140204397Y-87408910D01*
X140260503Y-87425385D01*
G37*
%TD.AperFunction*%
%TA.AperFunction,Conductor*%
G36*
X147864582Y-95716426D02*
G01*
X147879109Y-95717465D01*
X147895975Y-95730091D01*
X147915294Y-95738500D01*
X147931888Y-95756974D01*
X147935043Y-95759336D01*
X147938868Y-95764741D01*
X147981887Y-95829125D01*
X148005943Y-95865127D01*
X148110474Y-95969658D01*
X148110477Y-95969660D01*
X148181110Y-96016855D01*
X148225916Y-96070468D01*
X148234623Y-96139792D01*
X148204469Y-96202820D01*
X148199902Y-96207639D01*
X148119503Y-96288037D01*
X148056905Y-96396463D01*
X148047740Y-96430666D01*
X148024500Y-96517399D01*
X148024500Y-96642601D01*
X148056905Y-96763536D01*
X148119504Y-96871962D01*
X148119506Y-96871965D01*
X148178518Y-96930977D01*
X148212003Y-96992300D01*
X148207019Y-97061992D01*
X148165147Y-97117925D01*
X148148312Y-97127513D01*
X148148502Y-97127842D01*
X148033037Y-97194504D01*
X148033034Y-97194506D01*
X147944506Y-97283034D01*
X147944504Y-97283037D01*
X147881905Y-97391463D01*
X147873088Y-97424369D01*
X147849500Y-97512399D01*
X147849500Y-97637601D01*
X147881905Y-97758536D01*
X147944505Y-97866964D01*
X148033036Y-97955495D01*
X148141464Y-98018095D01*
X148262399Y-98050500D01*
X148262401Y-98050500D01*
X148387599Y-98050500D01*
X148387601Y-98050500D01*
X148508536Y-98018095D01*
X148616964Y-97955495D01*
X148705495Y-97866964D01*
X148768095Y-97758536D01*
X148800500Y-97637601D01*
X148800500Y-97512399D01*
X148768095Y-97391464D01*
X148705495Y-97283036D01*
X148646481Y-97224022D01*
X148612996Y-97162699D01*
X148617980Y-97093007D01*
X148659852Y-97037074D01*
X148676688Y-97027487D01*
X148676498Y-97027158D01*
X148683534Y-97023095D01*
X148683536Y-97023095D01*
X148791964Y-96960495D01*
X148880495Y-96871964D01*
X148943095Y-96763536D01*
X148975500Y-96642601D01*
X148975500Y-96517399D01*
X148943095Y-96396464D01*
X148900800Y-96323207D01*
X148884329Y-96255308D01*
X148907182Y-96189281D01*
X148962104Y-96146091D01*
X149008189Y-96137209D01*
X149920983Y-96137209D01*
X149988022Y-96156894D01*
X150008664Y-96173528D01*
X151423837Y-97588700D01*
X151439259Y-97607491D01*
X151508641Y-97711331D01*
X151516051Y-97722420D01*
X151516052Y-97722421D01*
X151973049Y-98179416D01*
X152077584Y-98283951D01*
X152077587Y-98283953D01*
X152077588Y-98283954D01*
X152200503Y-98366083D01*
X152200506Y-98366085D01*
X152250665Y-98386861D01*
X152257080Y-98389518D01*
X152337088Y-98422659D01*
X152453241Y-98445763D01*
X152476380Y-98450365D01*
X152482081Y-98451500D01*
X152482082Y-98451500D01*
X152482083Y-98451500D01*
X152523586Y-98451500D01*
X152761570Y-98451500D01*
X152828609Y-98471185D01*
X152849251Y-98487819D01*
X155893181Y-101531748D01*
X155926666Y-101593071D01*
X155929500Y-101619429D01*
X155929500Y-106437769D01*
X155909815Y-106504808D01*
X155893181Y-106525450D01*
X155497052Y-106921578D01*
X155497049Y-106921581D01*
X155456957Y-106981583D01*
X155456958Y-106981584D01*
X155414914Y-107044508D01*
X155358343Y-107181082D01*
X155358340Y-107181092D01*
X155329500Y-107326079D01*
X155329500Y-107907770D01*
X155320855Y-107937210D01*
X155314332Y-107967197D01*
X155310577Y-107972212D01*
X155309815Y-107974809D01*
X155293181Y-107995451D01*
X155175451Y-108113181D01*
X155114128Y-108146666D01*
X155087770Y-108149500D01*
X154504776Y-108149500D01*
X154359788Y-108178340D01*
X154359778Y-108178343D01*
X154223202Y-108234914D01*
X154223199Y-108234916D01*
X154135669Y-108293402D01*
X154068992Y-108314280D01*
X154066779Y-108314300D01*
X153559704Y-108314300D01*
X153492665Y-108294615D01*
X153468528Y-108273126D01*
X153468260Y-108273395D01*
X152454819Y-107259954D01*
X152454815Y-107259951D01*
X152440912Y-107246048D01*
X152365878Y-107195913D01*
X152326713Y-107169744D01*
X152326682Y-107169722D01*
X152318002Y-107163922D01*
X152317984Y-107163912D01*
X152181413Y-107107343D01*
X152181403Y-107107340D01*
X152036416Y-107078500D01*
X152036414Y-107078500D01*
X150137082Y-107078500D01*
X150137080Y-107078500D01*
X149992092Y-107107340D01*
X149992082Y-107107343D01*
X149855511Y-107163912D01*
X149855498Y-107163919D01*
X149807619Y-107195912D01*
X149807618Y-107195912D01*
X149732585Y-107246046D01*
X149732578Y-107246052D01*
X149515451Y-107463181D01*
X149488523Y-107477884D01*
X149462705Y-107494477D01*
X149456504Y-107495368D01*
X149454128Y-107496666D01*
X149427770Y-107499500D01*
X149343719Y-107499500D01*
X149276680Y-107479815D01*
X149230925Y-107427011D01*
X149220981Y-107357853D01*
X149223945Y-107343405D01*
X149225499Y-107337603D01*
X149225500Y-107337600D01*
X149225500Y-107212400D01*
X149222901Y-107202699D01*
X149193095Y-107091464D01*
X149130495Y-106983036D01*
X149130494Y-106983035D01*
X149126431Y-106975997D01*
X149128474Y-106974817D01*
X149107630Y-106920905D01*
X149107200Y-106910585D01*
X149107200Y-106566599D01*
X152330900Y-106566599D01*
X152330900Y-106691801D01*
X152363305Y-106812736D01*
X152425905Y-106921164D01*
X152514436Y-107009695D01*
X152622864Y-107072295D01*
X152743799Y-107104700D01*
X152743801Y-107104700D01*
X152868999Y-107104700D01*
X152869001Y-107104700D01*
X152989936Y-107072295D01*
X153098364Y-107009695D01*
X153186895Y-106921164D01*
X153186898Y-106921157D01*
X153191845Y-106914713D01*
X153193579Y-106916044D01*
X153235839Y-106875737D01*
X153304444Y-106862503D01*
X153354676Y-106878555D01*
X153358035Y-106880494D01*
X153358036Y-106880495D01*
X153466464Y-106943095D01*
X153587399Y-106975500D01*
X153587401Y-106975500D01*
X153712599Y-106975500D01*
X153712601Y-106975500D01*
X153833536Y-106943095D01*
X153941964Y-106880495D01*
X154030495Y-106791964D01*
X154093095Y-106683536D01*
X154125500Y-106562601D01*
X154125500Y-106437399D01*
X154093095Y-106316464D01*
X154030495Y-106208036D01*
X153941964Y-106119505D01*
X153833536Y-106056905D01*
X153833537Y-106056905D01*
X153790469Y-106045365D01*
X153712601Y-106024500D01*
X153587399Y-106024500D01*
X153509531Y-106045365D01*
X153466463Y-106056905D01*
X153358037Y-106119504D01*
X153358034Y-106119506D01*
X153269506Y-106208034D01*
X153264555Y-106214487D01*
X153262824Y-106213158D01*
X153220530Y-106253478D01*
X153151921Y-106266693D01*
X153101723Y-106250644D01*
X152989936Y-106186105D01*
X152989937Y-106186105D01*
X152949624Y-106175303D01*
X152869001Y-106153700D01*
X152743799Y-106153700D01*
X152663175Y-106175303D01*
X152622863Y-106186105D01*
X152514437Y-106248704D01*
X152514434Y-106248706D01*
X152425906Y-106337234D01*
X152425904Y-106337237D01*
X152363305Y-106445663D01*
X152356499Y-106471063D01*
X152330900Y-106566599D01*
X149107200Y-106566599D01*
X149107200Y-105017199D01*
X153397700Y-105017199D01*
X153397700Y-105142401D01*
X153430105Y-105263336D01*
X153492705Y-105371764D01*
X153581236Y-105460295D01*
X153689664Y-105522895D01*
X153810599Y-105555300D01*
X153810601Y-105555300D01*
X153935799Y-105555300D01*
X153935801Y-105555300D01*
X154056736Y-105522895D01*
X154165164Y-105460295D01*
X154253695Y-105371764D01*
X154316295Y-105263336D01*
X154336083Y-105189485D01*
X154372447Y-105129828D01*
X154435294Y-105099299D01*
X154439678Y-105098642D01*
X154443794Y-105098100D01*
X154443801Y-105098100D01*
X154564736Y-105065695D01*
X154673164Y-105003095D01*
X154761695Y-104914564D01*
X154824295Y-104806136D01*
X154856700Y-104685201D01*
X154856700Y-104559999D01*
X154824295Y-104439064D01*
X154761695Y-104330636D01*
X154673164Y-104242105D01*
X154564736Y-104179505D01*
X154564737Y-104179505D01*
X154524424Y-104168703D01*
X154443801Y-104147100D01*
X154318599Y-104147100D01*
X154237975Y-104168703D01*
X154197663Y-104179505D01*
X154089237Y-104242104D01*
X154089234Y-104242106D01*
X154000706Y-104330634D01*
X154000704Y-104330637D01*
X153938105Y-104439063D01*
X153938103Y-104439068D01*
X153918316Y-104512912D01*
X153881950Y-104572572D01*
X153819103Y-104603100D01*
X153814733Y-104603755D01*
X153810606Y-104604298D01*
X153689663Y-104636705D01*
X153581237Y-104699304D01*
X153581234Y-104699306D01*
X153492706Y-104787834D01*
X153492704Y-104787837D01*
X153430105Y-104896263D01*
X153421299Y-104929128D01*
X153397700Y-105017199D01*
X149107200Y-105017199D01*
X149107200Y-104776862D01*
X149107199Y-104776858D01*
X149088371Y-104706593D01*
X149088368Y-104706582D01*
X149085801Y-104697000D01*
X149044462Y-104625399D01*
X148140862Y-103721799D01*
X152178500Y-103721799D01*
X152178500Y-103847001D01*
X152210905Y-103967936D01*
X152273505Y-104076364D01*
X152362036Y-104164895D01*
X152470464Y-104227495D01*
X152591399Y-104259900D01*
X152591401Y-104259900D01*
X152716599Y-104259900D01*
X152716601Y-104259900D01*
X152837536Y-104227495D01*
X152945964Y-104164895D01*
X153034495Y-104076364D01*
X153097095Y-103967936D01*
X153129500Y-103847001D01*
X153129500Y-103721799D01*
X153097095Y-103600864D01*
X153034495Y-103492436D01*
X152945964Y-103403905D01*
X152837536Y-103341305D01*
X152837537Y-103341305D01*
X152797186Y-103330493D01*
X152716601Y-103308900D01*
X152591399Y-103308900D01*
X152510814Y-103330493D01*
X152470463Y-103341305D01*
X152362037Y-103403904D01*
X152362034Y-103403906D01*
X152273506Y-103492434D01*
X152273504Y-103492437D01*
X152210905Y-103600863D01*
X152210905Y-103600864D01*
X152178500Y-103721799D01*
X148140862Y-103721799D01*
X147908442Y-103489379D01*
X147874957Y-103428056D01*
X147879941Y-103358364D01*
X147901792Y-103324363D01*
X147900549Y-103323409D01*
X147905488Y-103316970D01*
X147905495Y-103316964D01*
X147968095Y-103208536D01*
X148000500Y-103087601D01*
X148000500Y-102962399D01*
X147980403Y-102887399D01*
X148374500Y-102887399D01*
X148374500Y-103012601D01*
X148406905Y-103133536D01*
X148469505Y-103241964D01*
X148558036Y-103330495D01*
X148666464Y-103393095D01*
X148787399Y-103425500D01*
X148787401Y-103425500D01*
X148912599Y-103425500D01*
X148912601Y-103425500D01*
X149033536Y-103393095D01*
X149141964Y-103330495D01*
X149230495Y-103241964D01*
X149293095Y-103133536D01*
X149298812Y-103112199D01*
X153559700Y-103112199D01*
X153559700Y-103237401D01*
X153592105Y-103358336D01*
X153654705Y-103466764D01*
X153743236Y-103555295D01*
X153851664Y-103617895D01*
X153972599Y-103650300D01*
X153972601Y-103650300D01*
X154097799Y-103650300D01*
X154097801Y-103650300D01*
X154218736Y-103617895D01*
X154327164Y-103555295D01*
X154415695Y-103466764D01*
X154478295Y-103358336D01*
X154510700Y-103237401D01*
X154510700Y-103112199D01*
X154478295Y-102991264D01*
X154415695Y-102882836D01*
X154327164Y-102794305D01*
X154218736Y-102731705D01*
X154218737Y-102731705D01*
X154178424Y-102720903D01*
X154097801Y-102699300D01*
X153972599Y-102699300D01*
X153891975Y-102720903D01*
X153851663Y-102731705D01*
X153743237Y-102794304D01*
X153743234Y-102794306D01*
X153654706Y-102882834D01*
X153654704Y-102882837D01*
X153592105Y-102991263D01*
X153586387Y-103012603D01*
X153559700Y-103112199D01*
X149298812Y-103112199D01*
X149325500Y-103012601D01*
X149325500Y-102887399D01*
X149293095Y-102766464D01*
X149230495Y-102658036D01*
X149141964Y-102569505D01*
X149033536Y-102506905D01*
X149033537Y-102506905D01*
X148993224Y-102496103D01*
X148912601Y-102474500D01*
X148787399Y-102474500D01*
X148706775Y-102496103D01*
X148666463Y-102506905D01*
X148558037Y-102569504D01*
X148558034Y-102569506D01*
X148469506Y-102658034D01*
X148469504Y-102658037D01*
X148406905Y-102766463D01*
X148393610Y-102816082D01*
X148374500Y-102887399D01*
X147980403Y-102887399D01*
X147968095Y-102841464D01*
X147905495Y-102733036D01*
X147816964Y-102644505D01*
X147708536Y-102581905D01*
X147708537Y-102581905D01*
X147662259Y-102569505D01*
X147587601Y-102549500D01*
X147462399Y-102549500D01*
X147387741Y-102569505D01*
X147341463Y-102581905D01*
X147233037Y-102644504D01*
X147226591Y-102649451D01*
X147225976Y-102648649D01*
X147222612Y-102653144D01*
X147197852Y-102662378D01*
X147174660Y-102675043D01*
X147165630Y-102674397D01*
X147157148Y-102677561D01*
X147131327Y-102671944D01*
X147104968Y-102670059D01*
X147095914Y-102664240D01*
X147088875Y-102662709D01*
X147060621Y-102641558D01*
X147010919Y-102591856D01*
X146977434Y-102530533D01*
X146974600Y-102504175D01*
X146974600Y-102029500D01*
X146994285Y-101962461D01*
X147047089Y-101916706D01*
X147098600Y-101905500D01*
X147192599Y-101905500D01*
X147192601Y-101905500D01*
X147313536Y-101873095D01*
X147421964Y-101810495D01*
X147510495Y-101721964D01*
X147547045Y-101658655D01*
X147597611Y-101610439D01*
X147666218Y-101597215D01*
X147731083Y-101623182D01*
X147761820Y-101658654D01*
X147769502Y-101671960D01*
X147769504Y-101671962D01*
X147769505Y-101671964D01*
X147858036Y-101760495D01*
X147966464Y-101823095D01*
X148087399Y-101855500D01*
X148087401Y-101855500D01*
X148212599Y-101855500D01*
X148212601Y-101855500D01*
X148333536Y-101823095D01*
X148441964Y-101760495D01*
X148530495Y-101671964D01*
X148593095Y-101563536D01*
X148625500Y-101442601D01*
X148625500Y-101317399D01*
X148593095Y-101196464D01*
X148583670Y-101180140D01*
X148577586Y-101155062D01*
X148567746Y-101131198D01*
X148569482Y-101121660D01*
X148567235Y-101112399D01*
X150724500Y-101112399D01*
X150724500Y-101237601D01*
X150756905Y-101358536D01*
X150819505Y-101466964D01*
X150908036Y-101555495D01*
X151016464Y-101618095D01*
X151137399Y-101650500D01*
X151137401Y-101650500D01*
X151262599Y-101650500D01*
X151262601Y-101650500D01*
X151383536Y-101618095D01*
X151491964Y-101555495D01*
X151580495Y-101466964D01*
X151643095Y-101358536D01*
X151675500Y-101237601D01*
X151675500Y-101194326D01*
X151695185Y-101127287D01*
X151737502Y-101086938D01*
X151791964Y-101055495D01*
X151880495Y-100966964D01*
X151943095Y-100858536D01*
X151975500Y-100737601D01*
X151975500Y-100612399D01*
X151943095Y-100491464D01*
X151880495Y-100383036D01*
X151791964Y-100294505D01*
X151683536Y-100231905D01*
X151683537Y-100231905D01*
X151643224Y-100221103D01*
X151562601Y-100199500D01*
X151437399Y-100199500D01*
X151356775Y-100221103D01*
X151316463Y-100231905D01*
X151208037Y-100294504D01*
X151208034Y-100294506D01*
X151119506Y-100383034D01*
X151119504Y-100383037D01*
X151056905Y-100491463D01*
X151041088Y-100550493D01*
X151032485Y-100582601D01*
X151024500Y-100612400D01*
X151024500Y-100655673D01*
X151004815Y-100722712D01*
X150962500Y-100763060D01*
X150908039Y-100794502D01*
X150908034Y-100794506D01*
X150819506Y-100883034D01*
X150819504Y-100883037D01*
X150756905Y-100991463D01*
X150754750Y-100999505D01*
X150724500Y-101112399D01*
X148567235Y-101112399D01*
X148567197Y-101112241D01*
X148575638Y-101087850D01*
X148580262Y-101062458D01*
X148586878Y-101055373D01*
X148590049Y-101046214D01*
X148610334Y-101030260D01*
X148627954Y-101011397D01*
X148639303Y-101007479D01*
X148644970Y-101003023D01*
X148660583Y-100997943D01*
X148670218Y-100995500D01*
X148672601Y-100995500D01*
X148793536Y-100963095D01*
X148901964Y-100900495D01*
X148990495Y-100811964D01*
X149053095Y-100703536D01*
X149085500Y-100582601D01*
X149085500Y-100457399D01*
X149053095Y-100336464D01*
X148990495Y-100228036D01*
X148901964Y-100139505D01*
X148793536Y-100076905D01*
X148793537Y-100076905D01*
X148743262Y-100063434D01*
X148672601Y-100044500D01*
X148672600Y-100044500D01*
X148664751Y-100042397D01*
X148665618Y-100039161D01*
X148615919Y-100017118D01*
X148577503Y-99958757D01*
X148576739Y-99888891D01*
X148579296Y-99881513D01*
X148580092Y-99878540D01*
X148580095Y-99878536D01*
X148612500Y-99757601D01*
X148612500Y-99632399D01*
X148580095Y-99511464D01*
X148517495Y-99403036D01*
X148428964Y-99314505D01*
X148322575Y-99253082D01*
X148322574Y-99253081D01*
X148320540Y-99251907D01*
X148320537Y-99251905D01*
X148280224Y-99241103D01*
X148199601Y-99219500D01*
X148074399Y-99219500D01*
X147993775Y-99241103D01*
X147953463Y-99251905D01*
X147845037Y-99314504D01*
X147845034Y-99314506D01*
X147756506Y-99403034D01*
X147756504Y-99403037D01*
X147693905Y-99511463D01*
X147693905Y-99511464D01*
X147661500Y-99632399D01*
X147661500Y-99757601D01*
X147693905Y-99878536D01*
X147756505Y-99986964D01*
X147845036Y-100075495D01*
X147953464Y-100138095D01*
X148074399Y-100170500D01*
X148074401Y-100170500D01*
X148082249Y-100172603D01*
X148081376Y-100175859D01*
X148130973Y-100197790D01*
X148169455Y-100256108D01*
X148170298Y-100325973D01*
X148167717Y-100333432D01*
X148150210Y-100398770D01*
X148134500Y-100457399D01*
X148134500Y-100582601D01*
X148151854Y-100647365D01*
X148166905Y-100703537D01*
X148166906Y-100703538D01*
X148176329Y-100719859D01*
X148192802Y-100787759D01*
X148169949Y-100853786D01*
X148115028Y-100896977D01*
X148095187Y-100902168D01*
X148095249Y-100902397D01*
X148087400Y-100904500D01*
X148087399Y-100904500D01*
X148031401Y-100919505D01*
X147966463Y-100936905D01*
X147858037Y-100999504D01*
X147858034Y-100999506D01*
X147769506Y-101088034D01*
X147769502Y-101088039D01*
X147732953Y-101151345D01*
X147682386Y-101199561D01*
X147613779Y-101212784D01*
X147548914Y-101186815D01*
X147518178Y-101151344D01*
X147510495Y-101138036D01*
X147421965Y-101049506D01*
X147421964Y-101049505D01*
X147313536Y-100986905D01*
X147313537Y-100986905D01*
X147239116Y-100966964D01*
X147196404Y-100955519D01*
X147136746Y-100919154D01*
X147106217Y-100856307D01*
X147104500Y-100835745D01*
X147104500Y-99153823D01*
X150958076Y-99153823D01*
X150958076Y-99279025D01*
X150990481Y-99399960D01*
X151053081Y-99508388D01*
X151141612Y-99596919D01*
X151250040Y-99659519D01*
X151370975Y-99691924D01*
X151370977Y-99691924D01*
X151496175Y-99691924D01*
X151496177Y-99691924D01*
X151617112Y-99659519D01*
X151725540Y-99596919D01*
X151814071Y-99508388D01*
X151876671Y-99399960D01*
X151909076Y-99279025D01*
X151909076Y-99153823D01*
X151876671Y-99032888D01*
X151814071Y-98924460D01*
X151725540Y-98835929D01*
X151617112Y-98773329D01*
X151617113Y-98773329D01*
X151576800Y-98762527D01*
X151496177Y-98740924D01*
X151370975Y-98740924D01*
X151290351Y-98762527D01*
X151250039Y-98773329D01*
X151141613Y-98835928D01*
X151141610Y-98835930D01*
X151053082Y-98924458D01*
X151053080Y-98924461D01*
X150990481Y-99032887D01*
X150990481Y-99032888D01*
X150958076Y-99153823D01*
X147104500Y-99153823D01*
X147104500Y-96440924D01*
X147124185Y-96373885D01*
X147140815Y-96353247D01*
X147748097Y-95745964D01*
X147766586Y-95735869D01*
X147782260Y-95721790D01*
X147796636Y-95719460D01*
X147809418Y-95712481D01*
X147830433Y-95713983D01*
X147851230Y-95710614D01*
X147864582Y-95716426D01*
G37*
%TD.AperFunction*%
%TA.AperFunction,Conductor*%
G36*
X144579138Y-107309571D02*
G01*
X144605498Y-107311457D01*
X144614551Y-107317275D01*
X144621591Y-107318807D01*
X144649845Y-107339958D01*
X144778649Y-107468762D01*
X144850250Y-107510101D01*
X144862603Y-107513411D01*
X144867125Y-107514623D01*
X144880435Y-107518189D01*
X144930111Y-107531500D01*
X145590370Y-107531500D01*
X145657409Y-107551185D01*
X145703164Y-107603989D01*
X145713108Y-107673147D01*
X145684083Y-107736703D01*
X145678064Y-107743167D01*
X145623350Y-107797881D01*
X145568650Y-107852581D01*
X145486518Y-107975502D01*
X145486514Y-107975510D01*
X145431696Y-108107853D01*
X145387855Y-108162256D01*
X145321561Y-108184321D01*
X145317135Y-108184400D01*
X144223293Y-108184400D01*
X144156254Y-108164715D01*
X144110499Y-108111911D01*
X144100555Y-108042753D01*
X144129580Y-107979197D01*
X144161291Y-107953013D01*
X144243598Y-107905495D01*
X144332129Y-107816964D01*
X144394729Y-107708536D01*
X144427134Y-107587601D01*
X144427134Y-107462399D01*
X144427133Y-107462396D01*
X144426380Y-107456679D01*
X144437141Y-107387643D01*
X144461637Y-107352804D01*
X144474483Y-107339958D01*
X144482428Y-107335619D01*
X144487854Y-107328372D01*
X144512613Y-107319137D01*
X144535806Y-107306473D01*
X144544835Y-107307118D01*
X144553318Y-107303955D01*
X144579138Y-107309571D01*
G37*
%TD.AperFunction*%
%TA.AperFunction,Conductor*%
G36*
X147119203Y-106720308D02*
G01*
X147125681Y-106726340D01*
X147202088Y-106802747D01*
X147310516Y-106865347D01*
X147416416Y-106893723D01*
X147442012Y-106909325D01*
X147468816Y-106922742D01*
X147471530Y-106927317D01*
X147476074Y-106930087D01*
X147489172Y-106957051D01*
X147504468Y-106982831D01*
X147504278Y-106988148D01*
X147506603Y-106992934D01*
X147503044Y-107022693D01*
X147501975Y-107052656D01*
X147498939Y-107057027D01*
X147498308Y-107062310D01*
X147479220Y-107085427D01*
X147462126Y-107110048D01*
X147455787Y-107113809D01*
X147453823Y-107116188D01*
X147431773Y-107128058D01*
X147378528Y-107150113D01*
X147345198Y-107163919D01*
X147341231Y-107165562D01*
X147293778Y-107175001D01*
X146989711Y-107175001D01*
X146922672Y-107155316D01*
X146876917Y-107102512D01*
X146872604Y-107072521D01*
X146871988Y-107071392D01*
X146872138Y-107069281D01*
X146866973Y-107033354D01*
X146876723Y-107005179D01*
X146876972Y-107001700D01*
X146880568Y-106994067D01*
X146882320Y-106989007D01*
X146885764Y-106983041D01*
X146885767Y-106983036D01*
X146892601Y-106971200D01*
X146914000Y-106891340D01*
X146914000Y-106814021D01*
X146933685Y-106746982D01*
X146986489Y-106701227D01*
X147055647Y-106691283D01*
X147119203Y-106720308D01*
G37*
%TD.AperFunction*%
%TA.AperFunction,Conductor*%
G36*
X147682589Y-104170200D02*
G01*
X147731110Y-104200173D01*
X148442881Y-104911944D01*
X148476366Y-104973267D01*
X148479200Y-104999625D01*
X148479200Y-105922627D01*
X148459515Y-105989666D01*
X148406711Y-106035421D01*
X148337553Y-106045365D01*
X148293202Y-106030015D01*
X148251958Y-106006204D01*
X148251955Y-106006202D01*
X148203035Y-105993094D01*
X148131019Y-105973797D01*
X148005817Y-105973797D01*
X147946594Y-105989666D01*
X147884880Y-106006202D01*
X147884875Y-106006205D01*
X147866653Y-106016725D01*
X147798753Y-106033195D01*
X147742659Y-106016724D01*
X147677592Y-105979159D01*
X147677589Y-105979157D01*
X147637276Y-105968355D01*
X147556653Y-105946752D01*
X147556651Y-105946752D01*
X147551943Y-105946752D01*
X147484904Y-105927067D01*
X147448041Y-105890430D01*
X147437274Y-105873900D01*
X147434073Y-105861953D01*
X147371473Y-105753525D01*
X147335311Y-105717363D01*
X147328245Y-105706515D01*
X147321769Y-105684952D01*
X147310981Y-105665195D01*
X147311914Y-105652137D01*
X147308149Y-105639598D01*
X147314359Y-105617958D01*
X147315965Y-105595503D01*
X147323810Y-105585022D01*
X147327422Y-105572439D01*
X147344345Y-105557591D01*
X147357837Y-105539570D01*
X147373636Y-105531895D01*
X147379944Y-105526361D01*
X147387300Y-105525257D01*
X147400049Y-105519063D01*
X147513997Y-105488531D01*
X147622425Y-105425931D01*
X147710956Y-105337400D01*
X147773556Y-105228972D01*
X147805961Y-105108037D01*
X147805961Y-104982835D01*
X147773556Y-104861900D01*
X147710956Y-104753472D01*
X147622425Y-104664941D01*
X147622422Y-104664939D01*
X147615976Y-104659993D01*
X147617350Y-104658201D01*
X147577217Y-104616097D01*
X147563442Y-104559295D01*
X147563442Y-104461479D01*
X147557436Y-104439064D01*
X147531037Y-104340543D01*
X147531031Y-104340534D01*
X147528867Y-104335306D01*
X147521399Y-104265836D01*
X147552675Y-104203357D01*
X147612764Y-104167705D01*
X147682589Y-104170200D01*
G37*
%TD.AperFunction*%
%TA.AperFunction,Conductor*%
G36*
X148580173Y-88748766D02*
G01*
X148628868Y-88798872D01*
X148643199Y-88856739D01*
X148643199Y-91649774D01*
X148623514Y-91716813D01*
X148570710Y-91762568D01*
X148501552Y-91772512D01*
X148437996Y-91743487D01*
X148431518Y-91737455D01*
X147289319Y-90595256D01*
X147255834Y-90533933D01*
X147253000Y-90507575D01*
X147253000Y-89901588D01*
X147238536Y-89847610D01*
X147231601Y-89821727D01*
X147231601Y-89821726D01*
X147190262Y-89750125D01*
X146558818Y-89118681D01*
X146525333Y-89057358D01*
X146530317Y-88987666D01*
X146572189Y-88931733D01*
X146637653Y-88907316D01*
X146646499Y-88907000D01*
X148060348Y-88907000D01*
X148060350Y-88907000D01*
X148227515Y-88871468D01*
X148383639Y-88801957D01*
X148446315Y-88756420D01*
X148512119Y-88732941D01*
X148580173Y-88748766D01*
G37*
%TD.AperFunction*%
%TD*%
M02*
